<svg xmlns="http://www.w3.org/2000/svg" viewBox="0 0 68.28 68.28"><defs><style>.cls-1,.cls-4{fill:#ee8000;}.cls-2{fill:#fff;}.cls-3{fill:#267ba4;stroke-width:2px;}.cls-3,.cls-4{stroke:#fff;stroke-miterlimit:10;}</style></defs><title>hjb_logo</title><g id="Ebene_2" data-name="Ebene 2"><g id="Ebene_1-2" data-name="Ebene 1"><circle class="cls-1" cx="34.14" cy="34.14" r="34.14"/><polygon class="cls-2" points="49.29 56.47 14.28 56.47 14.28 35.62 3.36 35.62 34.84 4.13 60.32 29.62 60.32 36.51 59.17 36.51 34.82 12.16 16.86 30.11 19.78 30.11 19.78 50.44 44.35 50.44 49.29 56.47"/><path class="cls-3" d="M41.05,47.25l-2.4,1.41s-2.86,1.91-5.23-2c0,0-6.1-13.06-9.21-15.36,0,0-1.87-2.5,1.2-4.62,0,0,5.58-4.13,8.23-4.55,0,0,2-.95,3.74,1.48L49.09,36.06l-4.55,8.55Z"/><path class="cls-4" d="M54.41,49.66s2.68-6.63,2.82-8.61-3.53-1.69-3.53-1.69-6.35-10.31-7.2-11-6.92-4.52-6.92-4.52S37,24,38.74,25.66a51.65,51.65,0,0,0,4.51,3.82l-5.92-4.24s-3-.42-1.56,2.12l5.68,4.23-6.06-3.53s-1.88.24-1,2.73l7.09,5.32s1.8,4.1.68,3.53c0,0-2.55-1.13-4-.56,0,0-2.82.56-1.41,2.54,0,0,6.07,4.23,5.37,5.08C42.13,46.7,45.37,48.68,54.41,49.66Z"/><circle class="cls-2" cx="28.44" cy="30.19" r="1.61"/><circle class="cls-2" cx="30.93" cy="26.57" r="1.02"/><circle class="cls-2" cx="33.09" cy="37.54" r="1.89"/><circle class="cls-2" cx="35.98" cy="44.58" r="0.99"/><circle class="cls-2" cx="36.56" cy="36.03" r="0.51"/><circle class="cls-2" cx="31.57" cy="33.14" r="1.52"/></g></g></svg>