<?xml version="1.0" encoding="utf-8"?>
<!-- Generator: Adobe Illustrator 24.2.0, SVG Export Plug-In . SVG Version: 6.00 Build 0)  -->
<svg version="1.1" id="Ebene_1" xmlns="http://www.w3.org/2000/svg" xmlns:xlink="http://www.w3.org/1999/xlink" x="0px" y="0px"
	 viewBox="0 0 583.9 583.9" style="enable-background:new 0 0 583.9 583.9;" xml:space="preserve">
<style type="text/css">
	.st0{fill:#44251E;}
	.st1{fill:#7A301C;}
	.st2{fill:#A19390;}
	.st3{fill:#5A2316;}
	.st4{fill:#FDD6A6;}
	.st5{fill:#2B2A28;}
	.st6{opacity:0.15;fill:#2B2A28;enable-background:new    ;}
	.st7{fill:#FFFFFF;}
	.st8{fill:#E24264;}
	.st9{fill:#1E1E1D;}
	.st10{opacity:0.1;enable-background:new    ;}
	.st11{opacity:0.11;fill:#1E1E1D;enable-background:new    ;}
	.st12{fill:#512583;}
	.st13{fill:#7E3E90;}
	.st14{fill:#8A6D4D;}
	.st15{fill:#F4EBB8;}
	.st16{fill:#F7D7BA;}
	.st17{fill:none;stroke:#9E9C9A;stroke-width:0.25;stroke-miterlimit:10;}
	.st18{fill:#9FD3ED;}
	.st19{fill:#2977A6;}
	.st20{fill:#71C5CA;}
	.st21{opacity:0.3;}
	.st22{opacity:0.3;fill:none;stroke:#000000;stroke-width:0.59;stroke-miterlimit:10;enable-background:new    ;}
	.st23{fill:none;stroke:#1C1C1C;stroke-width:1.81;stroke-miterlimit:10;}
	.st24{fill:#1C1C1C;}
	.st25{opacity:0.2;}
	.st26{opacity:5.000000e-02;}
	.st27{fill:#E0E0E0;}
	.st28{fill:#B6405F;}
	.st29{opacity:0.53;fill:#6D563C;enable-background:new    ;}
	.st30{fill:#E5B9A2;}
	.st31{opacity:0.1;}
	.st32{fill:#343232;}
	.st33{fill:#6D563C;}
	.st34{fill:#474645;}
	.st35{fill:#352313;}
	.st36{fill:#C4AB96;}
	.st37{opacity:0.27;fill:#6D563C;enable-background:new    ;}
	.st38{fill:#56402B;}
	.st39{fill:none;stroke:#9E9C9A;stroke-width:2;stroke-linecap:round;stroke-linejoin:round;}
	.st40{fill:#9E9C9A;}
	.st41{fill:#262525;}
	.st42{opacity:0.38;fill:#6D563C;enable-background:new    ;}
</style>
<g id="Ebene_1-2">
	<rect x="85.9" y="206.8" class="st0" width="27.8" height="170.5"/>
	<rect x="459.5" y="206.8" class="st0" width="27.8" height="172.9"/>
	<rect x="37.9" y="197" class="st1" width="507.6" height="25.8"/>
	<rect x="37.9" y="236.1" class="st1" width="507.6" height="25.8"/>
	<rect x="37.9" y="277.2" class="st1" width="507.6" height="25.8"/>
	<polygon class="st0" points="53,521.4 61.1,371.7 117.2,365.6 114.5,429.4 103.8,435.4 98.5,375.7 78.4,521.4 	"/>
	<polygon class="st0" points="528.8,521.4 520.8,371.7 464.7,365.6 467.4,429.4 478.1,435.4 483.4,375.7 503.5,521.4 	"/>
	<ellipse class="st2" cx="99.5" cy="211.2" rx="3.4" ry="3.4"/>
	<ellipse class="st2" cx="99.5" cy="248.3" rx="3.4" ry="3.4"/>
	<ellipse class="st2" cx="99.5" cy="288.7" rx="3.4" ry="3.4"/>
	<ellipse class="st2" cx="474.1" cy="211.2" rx="3.4" ry="3.4"/>
	<ellipse class="st2" cx="474.1" cy="248.3" rx="3.4" ry="3.4"/>
	<ellipse class="st2" cx="474.1" cy="288.7" rx="3.4" ry="3.4"/>
	<polygon class="st1" points="36.4,334.7 545.6,334.7 575.6,359.6 8.3,359.6 	"/>
	<polyline class="st3" points="8.3,359.6 15.6,380.4 561.6,380.4 575.6,359.6 	"/>
	<path class="st4" d="M363.8,33.2c0,0-29,14.1-32.5,53c-3.3,36.2,7.9,46.8,11.2,57.6c2.8,9,53.1,24.8,85.5-12.5s19.4-53.3,14.8-71.2
		S404.7,8,363.8,33.2z"/>
	<ellipse transform="matrix(0.9831 -0.1831 0.1831 0.9831 -11.9992 71.6286)" cx="381.8" cy="100.8" rx="5.6" ry="8.6"/>
	<ellipse transform="matrix(0.1769 -0.9842 0.9842 0.1769 190.975 425.3081)" cx="349.8" cy="98.5" rx="8.6" ry="5.6"/>
	<path class="st5" d="M343.9,38.3c0,0-14.2,11.1-15.2,42.1l11.6,1.5c3.9-0.2,7.8-0.6,11.7-1.3c1.2-0.5,12-2.6,12.5-1.6
		c0.5,1,11.6,2.9,14.7,2.9c3,0,15.3,3.5,17.1,2.8s16.1,2.3,16.1,2.3s12.3-7.6,2.8-43.4C415.1,43.7,386.4,17.1,343.9,38.3z"/>
	<path class="st4" d="M339.7,84c0,0-2.1-18.1,8.6-30.6c0,0-9.3,17.1-5.1,29.6"/>
	<path class="st4" d="M396,85.6c0,0,4.3-15.8,1.4-25.7c0,0,5.2,13.5,0.7,26.9"/>
	<ellipse class="st6" cx="364.2" cy="114.4" rx="9.2" ry="2.5"/>
	
		<ellipse transform="matrix(0.2725 -0.9621 0.9621 0.2725 160.0599 403.3683)" class="st7" cx="346.8" cy="95.8" rx="2.6" ry="1.1"/>
	<ellipse transform="matrix(0.1178 -0.993 0.993 0.1178 237.4389 461.2291)" class="st7" cx="378.3" cy="97" rx="2.6" ry="1.1"/>
	<path class="st4" d="M349.8,82.1c-0.1-3.7,0-7.4,0.4-11.1c0.3-3.7,0.9-7.3,1.8-10.9c0.9-3.6,2.1-7,3.7-10.3
		c1.7-3.3,3.9-6.3,6.6-8.9c-2.6,2.6-4.6,5.7-6.2,9c-1.4,3.3-2.5,6.8-3.2,10.3c-0.7,3.6-1.1,7.2-1.3,10.8c-0.2,3.6-0.1,7.2,0.1,10.8
		L349.8,82.1z"/>
	<path class="st5" d="M348.3,33.3c0,0,20.8-21.5,42.2-24.3c21.4-2.8,47.3,6.5,39.9,22.9s-13.8,17.2-13.8,17.2S404.1,22.7,348.3,33.3
		z"/>
	<path d="M349.7,121.8c0,0,15.5,7,29.4,1.6c0,0-6.2,15.5-20.7,10.7C358.3,134.1,352.7,133.6,349.7,121.8z"/>
	<path class="st7" d="M351.8,122.6c0,1.2,0.4,2.3,0.9,3.3c0.9,1.6,15.2,4.1,22.1,1.7c1-0.9,1.6-2,1.9-3.3
		C368.4,126.1,359.8,125.5,351.8,122.6z"/>
	<path class="st8" d="M354.1,131.2c0,0,6-0.5,7.7,1.2c-0.5,0,1.9-1.8,5.7-1.2c1.8,0.3,2.8,2.6,2.8,2.6S359,138.1,354.1,131.2z"/>
	<path class="st4" d="M370.2,149c1.9,4.2,2.7,8.8,2.3,13.3c-0.6,7.8-8.8,21.3-8.8,21.3s36.3,15.6,41.8,8.4
		c5.5-7.2,6.8-37.2,6.8-37.2V144"/>
	<path class="st5" d="M415.2,46.4c0,0,2.7,51.1,3.5,62.7c1.9,27.4-9.1,33.2-13.3,35c0,0,10.2,13.6,24.5,15
		c17.3,1.7,19.7-20.4,18.7-26c-1-5.6-1.3-10.3-0.7-11.3c5.2-7.7,8.2-16.7,8.7-26c0.2-2.9,14.8-51.9-22.6-67l-6.9-3"/>
	<path class="st9" d="M430.8,25.9c0,0-4.5,7.7-8.4,9.2c0,0,11.2-4.1,11.7-6.2C434.1,28.8,433.6,30.3,430.8,25.9z"/>
	<path class="st10" d="M372,154.7c0,0,22-0.7,29.7-5.9c0,0-9.3,9.6-29.2,10.3C372.5,157.6,372.4,156.2,372,154.7z"/>
	<path class="st4" d="M417.9,95.8c0,0,2.6-4.9,6.2-3.3c0,0,4.1,1,2,6.5s-1.9,7.5-1.2,10.4c0.4,2.1-3.1,3.6-4.5,2.5
		c-1.4-1.1-3.3-2.6-3.3-2.6"/>
	<polyline class="st10" points="418.9,113.1 418.4,103.3 419.4,112.6 	"/>
	<path class="st9" d="M383.8,31.9c0,0,32.9,3.1,35.6,18s0.9,27.5-0.7,29.6c0,0,1.4-16.4-0.7-22.1S412.8,36.4,383.8,31.9z"/>
	<ellipse class="st11" cx="357" cy="104.1" rx="0.6" ry="0.6"/>
	<ellipse class="st11" cx="361.5" cy="108.2" rx="0.6" ry="0.6"/>
	<ellipse class="st11" cx="364.2" cy="105.3" rx="0.6" ry="0.6"/>
	<ellipse class="st11" cx="358.5" cy="106.7" rx="0.6" ry="0.6"/>
	<ellipse class="st11" cx="355.2" cy="108.8" rx="0.6" ry="0.6"/>
	<ellipse class="st11" cx="350.6" cy="110.5" rx="0.6" ry="0.6"/>
	<ellipse class="st11" cx="371.1" cy="109.3" rx="0.6" ry="0.6"/>
	<ellipse class="st11" cx="367.6" cy="107.9" rx="0.6" ry="0.6"/>
	<ellipse class="st11" cx="367.6" cy="104.9" rx="0.6" ry="0.6"/>
	<ellipse class="st11" cx="375.6" cy="108.4" rx="0.6" ry="0.6"/>
	<ellipse class="st11" cx="377" cy="111.7" rx="0.6" ry="0.6"/>
	<ellipse class="st11" cx="381.2" cy="112.3" rx="0.6" ry="0.6"/>
	<ellipse class="st11" cx="372" cy="105.5" rx="0.6" ry="0.6"/>
	<path class="st12" d="M312.9,211.2c2.1,1.7,4.3,3.1,6.6,4.4l2.4-6l-1.9-0.7"/>
	<polygon class="st4" points="311.1,187.2 218.3,197.8 160.1,200.3 167.3,214.6 319.4,211 326.6,189.9 320.6,186.2 	"/>
	<path class="st10" d="M313.8,186.9c0,0,6.2,17.1,3.5,24.2h3.9l0.6-10.2l-3.2-11L313.8,186.9z"/>
	<path class="st12" d="M311.1,183.7c-0.9,1.1-1.6,2.4-2.1,3.8l6.4-0.7l-1.6-2.6L311.1,183.7z"/>
	<path class="st10" d="M368.2,175.1c0,0,3.4,14,38.8,9.1c0,0-19.4,8.9-37.4-3.4C367.8,179.4,368.2,175.1,368.2,175.1z"/>
	<path class="st13" d="M368.2,174.6c0,0-1,10.3,21.9,12c19.3,1.4,19.8-8.9,19.8-8.9s29.6,6.8,39.5,16.1c0,0,4.8,9.6,0,31.9
		c0,0-10.3,28.1-11.9,28.7c-1.6,0.7-20.6-15.4-35.1-13.7l28.1-15.4c0,0-21.2,72.5-3.3,70.9c1.1,0-14.9,13.6-40.3,11.7l-39.1-2.6
		l-8.1-89.5c0,0-21.4,2.9-20.6-1.8c2.5-13.9-2.1-22.9-5.2-27.2c-0.8-1.1-1.7-2.1-2.6-3l37.1-7.6L368.2,174.6z"/>
	<path class="st14" d="M161.8,169.3l-29.6,16.2c0,0-2.1,59-1,64.8c1,5.7,0.5,35.6,0.5,35.6l82.6,77.1l39.1,0.4l54.7-46.2l4.6-68.3
		c0,0-5.5-61.8-21.1-69.2s-31.1-17.2-33.2-16.2C256.3,164.6,198.2,195.9,161.8,169.3z"/>
	<path class="st15" d="M188.4,177.9c0,0,7.8,41.8,8.8,47c1,5.2,2.1,31.3,2.1,31.3l8.2,26.4l36.5,1.8l-3.6-83c0,0,1-18.8,1.6-21.4
		s1.6-13.9,1.6-13.9l-27,6.6L188.4,177.9z"/>
	<path class="st10" d="M162.6,171c0,0,14.9,26.9,55.6,23s40.6-41.2,40.6-41.2L162.6,171z"/>
	<path class="st15" d="M242.3,175.9c-5.9,3.9-12.3,6.7-19.2,8.3c0,0,17,4.1,17.6,11.4C240.9,195.4,242.8,180.7,242.3,175.9z"/>
	<path class="st15" d="M209.4,186.1c0,0-15.7,10.5-16.1,18.6l-3.9-20.2C189.4,184.5,202.6,187.1,209.4,186.1z"/>
	<path class="st16" d="M266.9,132.3c1.2,22.4-15.2,42.4-39.1,50.3c-6,2-12.2,3.1-18.5,3.5c-33.3,1.8-61.5-19.3-63-47.1
		c-1.5-27.9,24.3-51.9,57.6-53.8S265.4,104.4,266.9,132.3z"/>
	<polygon class="st10" points="335.9,215.8 341.7,189.9 339.6,216.1 	"/>
	<path class="st4" d="M439.6,248.8c0,0-14.3,34.8-24.7,40.1c-10.4,5.3-36.3,10.3-42.1,13.5S320,317.6,320,317.6l-6.2-13.5
		c0,0,93.8-36,94.3-37.7s21.2-39.7,21.2-39.7L439.6,248.8z"/>
	<path class="st10" d="M409.5,242.2c3.3,6.6,9.8,10.9,17.1,11.4l7.5,1.2C434.1,254.9,411.5,244.8,409.5,242.2z"/>
	<path class="st17" d="M225.8,279.7c0,0-4.5-50-5.6-53.8c-1.1-3.8-1.6-18.7-1.6-18.7l-1.1-22.1"/>
	<polyline class="st4" points="380.4,470.2 391.7,495.4 398.6,493.9 392.2,458.8 	"/>
	<path class="st13" d="M424.3,218.4c0,0-15.2,23.1-16.1,22.9c-1-0.1,22.1,15.2,29.3,13.5c7.2-1.7,5.6-23,5.6-23"/>
	<polygon class="st4" points="405.8,483.1 405.5,496.2 412.8,497.9 417.7,482.8 407.1,478.4 	"/>
	<path class="st18" d="M413.4,496.1c-0.1,2.9-0.4,5.8-1.1,8.7c-1.5,4-2.4,7-2.4,7l-28.5,24c0,0-19.8,2.7-17.5-14.5
		c2.3-17.1,11.1-18,11.1-18l11.4-1.9l19.2-5C405.5,496.3,410.8,498.5,413.4,496.1z"/>
	<path class="st10" d="M425.7,211.1c-0.8,1.1-5.5,18.8-11.5,24.6l-6,5.7"/>
	<path class="st10" d="M382,474c0,0,10,3.2,12.9,0.3l-2.1-10.3l-14.5,0.3"/>
	<path class="st19" d="M344.1,347.8l32.2,121c0,0,15,7.7,20.9-2.5l-14.2-156.9c0,0-16.5-29.3-39.7-9.5
		C333.5,308.1,339.3,332.5,344.1,347.8z"/>
	<path class="st19" d="M413.2,285.5c-3.7-2.4-8.1-3.7-12.5-3.6c-8.4,0.9-16.4,4.5-22.6,10.2c0,0-19.8,15.4-12.7,18.9
		c31.1,15.1,22.4,134.1,33.2,171.1c0,0,13.5,10.3,20.6,2.1c0,0,5.3-152.5,6-158.2C425.8,320.3,425,293.4,413.2,285.5z"/>
	<path class="st10" d="M232,348c0.4-4.4,1.2-8.8,2.4-13c2.3-3.1,4.7-6,7.2-8.8c0.7-0.7,29.2-1.6,29.2-1.6l4.8,0.7l-15.4,34.6
		l-31.3,3.1C230.5,358.1,231.5,353.1,232,348z"/>
	<path class="st20" d="M419,307.8l1,21.7c0.2,7.2,0.4,14.5,0.5,21.7c0.2,7.3,0,14.5-0.6,21.7c-0.5,7.2-0.7,14.5-1,21.7l-3.6,86.9
		l0.5-21.7l0.7-21.7l1.5-43.4c0.3-7.2,0.7-14.5,1.2-21.7c0.7-7.2,1-14.4,0.8-21.7c0-7.2-0.2-14.5-0.3-21.7L419,307.8z"/>
	<path class="st10" d="M220.3,330c1.5,2.1,2.8,4.3,3.7,6.7c0.6,3.7,1.1,7.4,1.3,11.1l0.4,7.8l1.8,7.1l-10.2,1.6l1.3-11.4l0.2-13.3
		L220.3,330z"/>
	<path class="st19" d="M421.3,355.4c0,0,17.5-6.1,16-19.1c-1.5-13-11.4-24.8-11.8-37c-3,1.4-6.2,2.3-9.5,2.7c-4.9,0.4,0,9.2,0,9.2"
		/>
	<path class="st10" d="M422.4,302.4c0,0,5.4,21.5,2.1,52.1c0,0,3.6-3.1,3.6-14S426,309.5,422.4,302.4z"/>
	<path class="st19" d="M387.1,362.6c0,0,3.5,4.5-11-4.5c-14.5-9-10.5-39.3-10.5-39.3l7-2.5C372.6,316.3,392.1,339.4,387.1,362.6z"/>
	<path class="st10" d="M372.6,297.8c0,0,16.3,109.9,16.1,111s6.8,54.7,6.8,54.7c0.9-5,1-10,0.3-15c-1.1-9.6-7.3-59.9-7.3-59.9
		l-11.4-83.4l-2.4-9L372.6,297.8z"/>
	<path class="st18" d="M387.7,489.2c0,0-4.7,17.5-0.7,21c4.1,3.5,6.4,24,8.1,26.9c1.7,2.9,24.4,9.3,30.2-12.1
		c0,0-24.7-31.3-25.3-35.4C400.1,489.6,399.8,500.8,387.7,489.2z"/>
	<g class="st21">
		<path d="M392.3,518.3c1.3,3.6,2.6,7.3,4.1,10.8c0.4,0.9,0.8,1.7,1.2,2.5c0.4,0.8,1,1.7,1.4,1.7c1.8,0.4,3.6,0.6,5.4,0.6
			c3.7,0,7.4-0.7,10.9-2.1c3.5-1.5,6.5-3.9,8.9-6.9c-1.8,3.5-4.7,6.4-8.2,8.3c-3.6,1.8-7.5,2.7-11.5,2.7c-2,0.1-4.1-0.2-6-0.8
			c-0.3-0.1-0.6-0.3-0.9-0.6c-0.2-0.2-0.4-0.4-0.6-0.7c-0.3-0.4-0.6-0.9-0.8-1.4c-0.4-0.9-0.8-1.8-1.1-2.8
			C393.8,526.1,392.9,522.2,392.3,518.3z"/>
	</g>
	<path class="st22" d="M393.6,498.4c0,0,4.7,1.7,7.8-1.2"/>
	<path class="st22" d="M394.6,502.1c0,0,3.7,1.8,8.2-1.9"/>
	<path class="st20" d="M341.9,322.4c3.4,12,6.7,24.1,10,36.1l9.8,36.2l9.6,36.2c3.2,12.1,6.3,24.2,9.3,36.3
		c-3.4-12.1-6.8-24.1-10-36.1l-9.8-36.2l-9.6-36.2C348.1,346.6,345,334.5,341.9,322.4z"/>
	<path class="st10" d="M385.4,502.6c0,0,7.4,24.6,7.4,25.9L390,530C390,530,385.3,504.9,385.4,502.6z"/>
	<g class="st21">
		<path d="M373,505.2c-1.3,3-2.6,6-3.8,9c-0.6,1.5-1.2,3-1.6,4.5c-0.5,1.4-0.8,3-0.8,4.5c0.1,3,1.5,5.9,4,7.7
			c2.6,1.8,5.7,2.8,8.9,2.9c-3.3,0.6-6.7,0-9.7-1.7c-3-1.9-4.9-5.2-5-8.8c0-1.7,0.4-3.4,1-5.1c0.6-1.6,1.2-3.1,1.9-4.6
			C369.3,510.7,371,507.9,373,505.2z"/>
	</g>
	<path class="st10" d="M166.9,116.9c0,0-1.1,14.5,3.4,16.2c4.6,1.7,36.2,0,36.2,0l-5.3,2.8l-34.3,3.2
		C166.9,139.1,160.2,120.2,166.9,116.9z"/>
	<path class="st7" d="M166.9,109.6c17.7,6,40.3,2.6,40.3,2.6l-2.1-5.1l-2.5,0.4l-2.1-2.9l-5,1.8l-3.9-3.2l-1.1,2.8l-5.7-6l0.7,4.3
		l-2.8,0.4l-1.4-2.3l-1-1.6l-1,3.2l-2.5-3.2l-0.7,3.2l-4.6-2.5l1.4,3.9l-4.2-2.5l0.7,4.2"/>
	<path class="st7" d="M251.4,105v-4.3l-3.1,3l0.6-4.1l-3.3,3l-1-3.1l-1.6,3.6l-1.3-3l-0.6,1.7l-0.8,2.4h-2.3v-4.3l-3.6,6.7l-1.3-2.7
		l-2.7,3.6l-4.2-1.2l-1.3,3.1h-2.1l-0.9,5.3c0,0,18.5-0.8,31.7-8.9"/>
	<path class="st23" d="M165.9,113.5l43.8,0.3c0,0,3.9,20.1,3.5,21c-0.3,0.9-40.6,3.5-46.3,4.3C161.2,139.8,165.9,113.5,165.9,113.5z
		"/>
	<polygon class="st23" points="220.8,112.8 225.3,133.1 256.1,126.3 252.4,109 	"/>
	<path class="st24" d="M164.4,122c0,0-4.6-1.1-4.2-2.1c0.3-1,1.1-11.4,1.1-11.4l49.8,3.2l-37.4,1.8h-7.8L164.4,122z"/>
	<path d="M200.8,119.9c-3.4,0.7-6.9,1.1-10.4,1c-3.5,0.1-7-0.3-10.4-1C186.9,118.5,193.9,118.5,200.8,119.9z"/>
	<path d="M247.6,116.1c-3.3,1.3-6.6,2.2-10.1,2.8c-3.4,0.6-6.9,0.9-10.4,0.7c3.2-1.3,6.6-2.2,10.1-2.8
		C240.6,116.2,244.1,115.9,247.6,116.1z"/>
	<g class="st25">
		<path d="M175.5,121.5c1.1,2.2,3.1,3.9,5.4,4.6c2.3,0.7,4.7,1.1,7.1,1c2.5-0.1,5-0.3,7.5-0.7c2.5-0.3,5-0.8,7.6-1.1
			c-2.3,1.1-4.7,2-7.2,2.7c-2.5,0.7-5.1,1-7.7,1.1c-2.7,0-5.3-0.5-7.8-1.6C177.8,126.5,176,124.2,175.5,121.5z"/>
	</g>
	<g class="st25">
		<path d="M252.2,114.6c-0.2,2.9-1.4,5.7-3.6,7.7c-2.2,2-4.9,3.2-7.8,3.5c-1.4,0.2-2.9,0.2-4.3,0.1c-1.4-0.2-2.8-0.4-4.1-0.7
			c-1.3-0.4-2.7-0.8-4-1.3c-1.3-0.5-2.5-1.2-3.7-1.9c1.4,0.2,2.7,0.5,4.1,0.7s2.7,0.4,4,0.6s2.6,0.2,3.9,0.3c1.3,0,2.6-0.1,3.8-0.2
			c2.5-0.3,4.9-1.2,7-2.6C249.6,119.1,251.2,117,252.2,114.6z"/>
	</g>
	<path d="M189.9,153.6l25.8,6.4c5.7,1.4,21.8-3,24.4-7.8c1.6-3,3.5-5.7,5.7-8.3C245.7,143.9,208.6,159.3,189.9,153.6z"/>
	<g class="st26">
		<path d="M234.1,131.6c2.7,0.6,5.2,1.7,7.3,3.4c1.1,0.8,2.1,1.8,3,2.9c1,1.1,1.5,2.4,1.6,3.9c-0.8-1-1.7-2-2.7-2.8
			c-1-0.8-2.1-1.6-3-2.3C238.1,135.1,236,133.4,234.1,131.6z"/>
	</g>
	<g class="st26">
		<path d="M204.8,136.1c-2.1,2.5-4.4,4.8-6.9,6.9c-2.5,2.1-4.9,4.1-7.7,6c0.7-1.5,1.7-2.9,2.8-4.1c1.1-1.2,2.2-2.4,3.5-3.5
			C199.1,139.2,201.9,137.4,204.8,136.1z"/>
	</g>
	<path class="st27" d="M149.3,112.1c-0.2-0.5-1.6-7-1.9-9.6c0.1-2.3,0.8-4.5,1.9-6.5c0,0,3.3-4.1,3.1-6c-0.2-1.9,5.4-5.5,5.4-5.5
		s10-5.5,14.3-5.2c3,0.3,5.9,0.9,8.7,1.8c0,0-10,11.9-14,19.4c-3.9,7.5-7.8,18.9-7.6,21.3c-0.1,3.5-0.4,6.9-1,10.3l-8.4-4.1
		C149.7,127.9,150.6,115.3,149.3,112.1z"/>
	<path class="st28" d="M215.6,160c0,0,7.8-5.7,11.9-5.2h2.7c0.7-1.2,1.8-2.1,3-2.7c2.2-0.9,4.6-0.9,6.8,0
		C240,152.1,232.9,161.3,215.6,160z"/>
	<polyline class="st24" points="211.1,116.9 221.1,115.3 222.6,123.3 212.5,124.1 	"/>
	<polyline class="st24" points="163.4,109 147.1,114.4 147.1,117.8 161.1,117.8 	"/>
	<g class="st25">
		<path d="M188.6,100l7.7,1.6c2.6,0.5,5.1,1,7.7,1.3c1.2,0.1,2.5,0.1,3.7,0c0.5,0,1.2-0.3,1.9-0.4c0.7-0.1,1.4-0.2,2.1-0.3
			c2.7-0.1,5.4,0.1,8,0.8h-0.2c2.4-0.5,4.8-0.8,7.3-1.2c-2.3,0.8-4.7,1.5-7.1,2.1h-0.2c-2.5-0.4-5.1-0.5-7.7-0.2
			c-0.6,0-1.2,0.1-1.9,0.3c-0.6,0.1-1.2,0.3-2.1,0.5c-1.4,0.1-2.8,0.1-4.1-0.1c-2.6-0.4-5.2-0.9-7.7-1.7
			C193.5,101.8,191.1,101,188.6,100z"/>
	</g>
	<g class="st25">
		<path d="M193.4,97.3l6.9,1.1c2.3,0.3,4.6,0.6,6.8,0.7c1.1,0.1,2.2,0,3.3-0.2l0.7-0.2c0.3,0,0.6-0.2,0.9-0.3
			c0.6-0.2,1.2-0.3,1.8-0.4c2.4-0.3,4.8-0.2,7.1,0.2h-0.2c2.1-0.6,4.1-1.2,6.3-1.7c-2.1,0.9-4.1,1.8-6.1,2.6h-0.2
			c-2.3-0.2-4.5-0.1-6.8,0.2c-0.5,0.1-1.1,0.2-1.6,0.4c-0.3,0-0.5,0.2-0.8,0.3l-0.9,0.3c-1.2,0.2-2.4,0.3-3.7,0.2
			c-2.3-0.2-4.7-0.6-7-1.2C197.8,98.8,195.6,98.1,193.4,97.3z"/>
	</g>
	<polygon class="st10" points="169.4,107.1 205.1,110.5 206.5,110.6 208.1,113.9 165.8,110.8 	"/>
	<path class="st29" d="M131.1,222.2c0,0,5.5,1.2,8.1,0.2s4.1,0,5.9-1s4.3-0.5,4.5-2.6c0.2-2.2,1.9-1.2,2.4-2.9
		c0.6-1.6,1-3.2,1.2-4.8c0.3-1.8,0.4-3.7,0.2-5.5c-0.5-1.2-3.6-13.4-3.6-13.4l-4.1-13.4l-4.9,4.3l-18.1,21.5L131.1,222.2z"/>
	<path class="st16" d="M154.1,121c0,0-9-8.3-12.5-4.1c-3.5,4.1-5.1,6.9-3.5,11.8c1.6,4.9-3.8,12,0.9,17c4.8,4.9,11.5,4.7,14.1,0"/>
	<path class="st4" d="M145.7,176.5c0,0-11.1-2.1-12.5,2.6c-1.3,4.7-7.2,5.3-9.2,7.9c-2.2,3-4,6.3-5.2,9.9
		c-0.7,2.6,7.2,21.1,10.5,22.4c3.3,1.3,15.6,1.1,18.8-4.1c2-3.7,2.6-8,1.9-12.2L145.7,176.5z"/>
	<path class="st30" d="M237.9,135.9c0,7.1-8.2,12.8-18.4,12.8s-16.5-4.9-15.3-11.8c1.1-6.2,5-14.2,15.1-14.2
		S237.9,128.8,237.9,135.9z"/>
	<g class="st31">
		<path d="M143.5,119.9c-1.4,1.8-2.1,4.1-1.7,6.4c0.3,1.1,0.7,2.2,1.2,3.3c0.4,1.3,0.5,2.6,0.4,3.9c-0.1,1.3-0.3,2.5-0.7,3.7
			c-0.3,1.1-0.8,2.4-1,3.3c-0.3-0.2,0.3,0.4,0.7,0.7c0.4,0.3,0.9,0.7,1.4,1c1,0.7,2,1.3,3.1,1.8c-1.2-0.1-2.4-0.4-3.6-0.9
			c-0.6-0.2-1.1-0.5-1.7-0.8c-0.3-0.2-0.6-0.3-0.9-0.5c-0.2-0.1-0.3-0.3-0.5-0.4c-0.1-0.1-0.2-0.3-0.3-0.5c0-0.1,0-0.2,0-0.4
			c0.1-1.3,0.4-2.5,0.7-3.8c0.3-1.1,0.4-2.2,0.5-3.4c0.1-1.1,0-2.2-0.2-3.3c-0.4-1.2-0.7-2.4-0.9-3.7
			C140.1,123.8,141.3,121.3,143.5,119.9z"/>
	</g>
	<path d="M192.1,150.8c-0.7,1-1.4,2-1.9,3.2c-0.2,0.5-0.4,1.1-0.6,1.7c-0.2,0.6-0.3,1.2-0.5,1.8c-0.5-1.3-0.5-2.7,0-4
		C189.7,152.2,190.7,151.2,192.1,150.8z"/>
	<path d="M248.2,147.1c-0.9-0.9-1.8-1.6-2.9-2.3c-0.5-0.3-1-0.6-1.6-0.8c-0.6-0.3-1.1-0.5-1.8-0.7c1.3-0.3,2.7-0.1,3.9,0.6
		C247.1,144.6,247.9,145.7,248.2,147.1z"/>
	<path class="st10" d="M148.2,149.2c0.4-3.6,0.6-7.2,0.6-10.8c0-0.3-0.1-0.8,0-0.7c1,4.6,1.1,9.2,0.4,13.8L148.2,149.2z"/>
	<path class="st27" d="M164.3,99.3c-0.5,0.6,12.3-16.7,12.6-18c0.2-1.3-3.2-0.8-3.2-0.8l-7.5-1.9c0,0,16.6-11.9,26.8-14
		c10.1-2.2,19.1,7.5,26,7.8c6.9,0.3,15.3,4.1,17.7,5.1c2.4,1,9.9,8.6,9.9,8.6l1.9,5.4l-6.4-1.9l5.6,4.6l-7.2-1.1l7,4.3l-10.6-4.3
		l-3.2,1.3c0,0-4-3-12.6-3.5c-8.6-0.5-24.9-2.7-24.9-2.7l5.6,5.4l-16.1-1.1C185.6,92.6,167.3,96.1,164.3,99.3z"/>
	<path class="st16" d="M173.4,95.4c0,0-15.3,0.5-17.1,1.1c0,0,10.7,0,12.6,1.6L173.4,95.4z"/>
	<path class="st7" d="M154.9,91.8c3.9-0.7,7.7-1.4,11.6-2.1c3.8-0.7,7.5-1.8,11.2-3.1c1.8-0.9,3.7-1.6,5.7-2.1c2-0.3,4-0.5,5.9-0.6
		c4-0.2,8,0.1,11.8,1.1c-2-0.2-3.9-0.2-5.9,0c-2.1,0.1-3.9,0.3-5.8,0.5c-1.9,0.2-3.8,0.5-5.7,0.9c-1.9,0.5-3.7,1.2-5.4,2.1
		c-3.8,1.3-7.7,2.2-11.7,2.7C162.8,91.8,158.9,91.9,154.9,91.8z"/>
	<path class="st7" d="M168.1,85.4c4.7-3.4,9.9-6,15.4-7.7c5.5-1.9,11.5-2.4,17.2-1.6c2.9,0.6,5.6,1.5,8.2,2.8
		c2.5,1.2,5.2,2.1,7.9,2.8c5.4,1.5,11.2,1.5,16.6-0.1c-2.6,1.2-5.4,2-8.2,2.3c-2.9,0.2-5.8,0-8.7-0.6c-2.8-0.6-5.6-1.5-8.2-2.6
		c-2.5-1.2-5.1-2.1-7.9-2.5c-5.5-0.8-11.1-0.4-16.5,1.1c-2.7,0.7-5.4,1.6-8,2.6C173.2,82.9,170.6,84,168.1,85.4z"/>
	<path class="st32" d="M171.2,514.6c0,0-15,18.4-14.4,30.3c0.6,11.9,10.5,15.9,23,15.9c12.5,0,40.9,0,42.6-23.7
		c1.7-23.7,0.7-28.3,0.7-28.3l-49.2-4.6"/>
	<path class="st32" d="M234.3,506.8c0,0-3.6,8.9-1.3,14.9s3.6,22.3,7.2,29.7c3.6,7.4,22.5,17.8,44.1,6.4c0,0,12.6-3,9.4-20.7
		c-2.3-11.9-5.9-23.5-10.8-34.7l-38.2,1L234.3,506.8z"/>
	<path class="st14" d="M184.9,321.5c0,0-23,9.2-24.3,19.7c-1.3,10.5,0.5,52.7-2.1,68.5c-1.9,11.4,8.4,87.9,8.9,90.8
		c0.5,3-3.6,11.4-3.6,11.4s24.1-6.6,55.2,1.8c3.1,0.8,11.3-8.6,11.3-8.6s-3.6-82.4-4.1-84.1c-0.5-1.7-5.8-45.2-4.9-49.5
		c0.9-4.2,7.6-46.3-11.2-48.8S184.9,321.5,184.9,321.5z"/>
	<path class="st33" d="M163.9,492.5c0.8-0.3,16.5,6.6,31.9,7.7c9.5,0.6,19.1-0.7,28.2-3.7l6.6-7.1l2.8,13.3l-4,10.1
		c0,0-10.1,0-17.2,4.2c-12.8,7.8-39.8-2.9-40.9-2.4c-1.1,0.5-7.6-0.7-7.6-2.6c0-1.9,1.4-5.7,0.5-9.4
		C163.7,499.3,163.6,495.9,163.9,492.5z"/>
	<path class="st14" d="M131.6,285.8c0,0,12.2,33.4,19.3,37.5c7.2,4.1,8.7,6.1,8.7,6.1l0,0l11.1-18.4l32.2-3.8l2.5-14.1l-17.5-9.5
		l-3.4-14.5"/>
	<path class="st33" d="M159.6,329.4c0,0-9.2-7.9-7.4-17.4c1.7-9.5,11.9-13.7,15-15s21.3-5.7,27.3-3.8c3.5,1.1,6.7,3,9.3,5.5
		c0,0,2.2,6.2,1.1,8.4c-0.9,1.7-2,3.2-3.2,4.7L159.6,329.4z"/>
	<path class="st10" d="M227.1,460.7l-6.8,34.1c-0.8,2.8-1.5,5.7-2.1,8.6c0,1.3,0.9,10.3,0.9,10.3l5.2-0.6l4.7-11.1L227.1,460.7z"/>
	<path class="st14" d="M271,324.6c0,0,22.3,8.9,23.6,19.2c1.3,10.3-0.5,51.2,2.1,66.5c1.8,11-8.1,85.4-8.6,88.3
		c-0.4,2.9,3.5,11.1,3.5,11.1s-23.3-6.4-53.5,1.7c-3,0.8-10.9-8.3-10.9-8.3s3.5-80.1,3.9-81.7c0.4-1.6,5.6-44,4.8-48
		c-0.9-4.1-7.4-45,10.8-47.5C264.9,323.4,271,324.6,271,324.6z"/>
	<path class="st33" d="M291.3,490.7c-0.8-0.2-15.8,6.5-30.9,7.5c-9.2,0.6-18.5-0.7-27.3-3.7l-6.2-6.9l-2.7,12.9l3.8,9.8
		c0,0,8.7,5.4,16.7,4.1s38.5-2.8,39.6-2.3c1.1,0.5,7.3-0.7,7.3-2.5s-1.3-5.5-0.5-9.1C291.5,497.3,291.6,494,291.3,490.7z"/>
	<path class="st14" d="M135.3,292.3c0,0,4.4,37.2,8.5,46.5c4,9.3,9.3,17.4,14.2,20.1c2.8,1.4,4.7,4.2,5,7.3l3.6-17l1.8-13.9
		L135.3,292.3z"/>
	<path class="st34" d="M160.6,549.3c4.8,1.3,9.7,2.1,14.7,2.5c2.4,0.2,4.9,0.3,7.3,0.2c1.2,0,2.4,0,3.6,0l3.6-0.4
		c1.2-0.1,2.4-0.3,3.6-0.5c1.2-0.2,2.4-0.4,3.6-0.7l3.6-0.8l3.5-1c2.4-0.6,4.7-1.6,7-2.3s4.6-1.9,7.1-2.8c-2,1.6-4,3.2-6.2,4.6
		c-2.2,1.4-4.5,2.6-6.9,3.6c-4.8,2.1-9.8,3.4-15,4c-5.2,0.6-10.4,0.4-15.5-0.7C169.8,554.1,164.9,552.2,160.6,549.3z"/>
	<path class="st34" d="M246.1,549.6c4,1.4,8.1,2.4,12.3,2.8c2.1,0.2,4.1,0.3,6.2,0.2l3.1-0.1l3-0.4c1,0,2.1-0.4,3-0.6l1.5-0.3
		l1.5-0.5c1-0.3,2.1-0.5,3-0.8c0.9-0.3,1.9-0.7,2.9-1.1l1.5-0.5l1.4-0.7l2.9-1.3c1.9-0.9,3.8-2.1,5.8-2.9c-1.5,1.6-3.1,3.1-4.8,4.6
		l-2.7,1.9l-1.4,1l-1.5,0.8c-3.9,2.2-8.2,3.7-12.7,4.3c-4.5,0.7-9,0.4-13.4-0.6C253.6,554.4,249.5,552.4,246.1,549.6z"/>
	<path class="st35" d="M224.4,325c0,0-17.1-21.9-33.4-16.2s-32,7.7-35.5,24.5c-3.6,17.4-35.6,210.1-35.6,210.1c-0.1,2.7,2.1,5,4.8,5
		c0.1,0,0.2,0,0.2,0c5,0,5.6-8.8,5.6-8.8l37.5-203.9c0,0,27-16.5,32.1-14.7c5,1.9,14.9,13.5,20.1,12.4
		C227,331.7,224.4,325,224.4,325z"/>
	<path class="st33" d="M207.4,282.4c1.3,2.6,2.4,5.2,3.4,8c1,2.7,1.8,5.4,2.6,8.3v0.2v0.1c-0.1,2.1-0.3,3.9-0.6,5.9v0.3l-0.2,0.1
		c-1.3,0.8-2.6,1.6-4,2.3c1-1.2,2.2-2.3,3.3-3.4l-0.2,0.5c-0.1-2.1-0.1-4-0.1-5.9v0.3c-0.9-2.7-1.8-5.5-2.5-8.3
		C208.4,288.1,207.8,285.3,207.4,282.4z"/>
	<path class="st29" d="M268.5,320.7c0,0-7.4,17.7-7.6,20.3c-0.2,3.9,1.7,7.7,6.4,7.2c4.7-0.5,0.8,1.8,3.9,4.1c0,0,3.8,2.4,6.3-0.5
		c0,2.4,2,4.3,4.4,4.3c0.1,0,0.1,0,0.2,0l4-0.8c0,0-0.3,3.7,3.9,3.2c2.3-0.1,4.3-1.8,4.7-4.1l1.4-4.5l-3.3-9.5l-26.3-21.2
		L268.5,320.7z"/>
	<path class="st33" d="M190.1,518.9c-3.1-13.5-5.9-27.1-7.7-40.8c-0.5-3.4-0.8-6.9-1-10.3s-0.2-6.9-0.3-10.3l-0.3-20.7l-0.3-20.7
		v-10.3c0-3.5,0-6.8-0.3-10.3l-2.6-41.4l0,0c0.5-5.5,1.4-11,2.5-16.4c0.5-2.9,1.2-5.7,2.1-8.4c0.4-1.3,1-2.6,1.7-3.8
		c0.7-1.1,1.7-2.4,3.1-2.5c-1.4,0.1-2.3,1.4-3,2.6c-0.6,1.2-1.1,2.5-1.5,3.8c-0.8,2.6-1.4,5.3-1.9,8c-0.9,5.4-1.5,10.9-2.1,16.4
		v-0.1c1.2,13.8,2.4,27.6,3.3,41.4c0.3,3.4,0.4,7,0.4,10.4l0.2,10.3l0.2,20.7l0.2,20.7c0,3.5,0,6.9,0.1,10.3s0.4,6.9,0.8,10.3
		C185.3,491.6,187.7,505.3,190.1,518.9z"/>
	<path class="st33" d="M271.7,334.8c2.4,13.6,4.7,27.2,6,41.1l0.1,2.6c0,0.9,0,1.8,0,2.6l-0.2,5.1l-0.4,10.3l-0.8,20.7
		c-0.3,6.9-0.7,13.8-1.3,20.7c-0.2,1.7-0.3,3.5-0.6,5.2c-0.1,0.9-0.3,1.8-0.5,2.7c-0.2,0.8-0.5,1.6-0.6,2.4
		c-0.7,3.3-1.3,6.7-1.9,10.1c-1.2,6.8-2.2,13.6-3.3,20.5l-1.5,10.2l-0.7,5.2c-0.4,1.7-1,3.3-1.7,4.9c0.6-1.6,1.1-3.3,1.4-5l0.5-5.2
		l1.1-10.3c0.8-6.9,1.7-13.7,2.7-20.7c0.5-3.4,1-6.8,1.7-10.3c0.2-0.9,0.4-1.7,0.7-2.6c0.1-0.8,0.3-1.5,0.4-2.4
		c0.2-1.7,0.4-3.4,0.5-5.1c0.5-6.9,0.8-13.8,1.2-20.7l1-20.7l0.5-10.3c0.1-1.7,0.2-3.5,0.3-5.2c0-0.9,0.1-1.7,0.2-2.5v-2.5
		c-0.4-6.9-1.2-13.7-2.1-20.6L271.7,334.8z"/>
	<path class="st16" d="M197.3,299.6c0,0,11.6,5.5,15,5.2c3.5-0.3,5.3,2.6,3.1,4.9c-5.1,5.5-11,2.7-13.9,2.1"/>
	<path class="st10" d="M159.8,400c0,0,11.6-44.3,11.9-45.1c0.3-0.8,3.2-10.9,4-11.4l11.1-7.4l16.9-3.7c0,0,9.3,11.4,12.3,11.1
		c2.6-0.2,4.6-2.5,4.4-5.1c-0.1-0.9-0.4-1.8-1-2.6c-2.5-3.1-4.8-6.2-6.9-9.6l-4.5-4.5l-7.9-1l-21.6,10.3l-7.7,6.8l-3.4,2.1
		C167.4,340.1,159.3,394.2,159.8,400z"/>
	<path class="st16" d="M158.4,317.2c-0.2,4.1,0.2,8.2,1.3,12.2c1.8,5.5,4.6,10.7,8.4,15c3.1,3.8,4.7,5.3,8.4,5.2
		c5.9-0.3,0.7-9.5,0.7-9.5s6.2,7.2,9.7,4.9c3.5-2.3,1.6-8.5,1.6-8.5s5.4,7.9,9.7,5.6c4.3-2.3,1.6-8.3,1.6-8.3s3.9,7.9,7.8,4.6
		c3.9-3.3,1.2-9.2,1.2-9.2l-11.3-29.6c0,0-31.1,1-35.7,7.9C156.9,314.3,160.9,313.2,158.4,317.2z"/>
	<path class="st36" d="M178,341.3c-1.6-1.3-3-2.8-4.1-4.5c-1.2-1.7-2.3-3.4-3.2-5.3c-2-3.6-3.5-7.4-4.5-11.4c2.1,3.5,4,7.1,5.9,10.7
		c0.9,1.8,1.9,3.6,2.9,5.3C175.8,337.9,176.8,339.6,178,341.3z"/>
	<path class="st36" d="M189,337.8c-2.8-3.9-5.4-8-7.7-12.2c-2.4-4.2-4.4-8.6-6-13.1c1.3,2.1,2.6,4.1,3.8,6.2s2.4,4.1,3.6,6.2
		C185,329.1,187.2,333.4,189,337.8z"/>
	<path class="st36" d="M174.1,348.2c0.9-0.1,1.7-0.3,2.5-0.6c0.3-0.1,0.6-0.4,0.8-0.6c0.2-0.4,0.4-0.8,0.6-1.2
		c0.2,0.5,0.3,1,0.2,1.5c-0.2,0.6-0.6,1-1.1,1.3c-0.5,0.2-1,0.3-1.6,0.2C175,348.6,174.5,348.5,174.1,348.2z"/>
	<path class="st36" d="M160.2,320.4c-0.1-0.8-0.1-1.6,0-2.5c0.1-0.8,0.4-1.7,0.9-2.3c0.3-0.3,0.7-0.5,1.1-0.6c0.4-0.1,0.7-0.3,1-0.6
		c0.6-0.6,1.1-1.2,1.5-1.9c0.4-0.7,1.1-1.3,1.8-1.7c0.9-0.2,1.6-0.2,2.4-0.5c1.5-0.6,2.9-1.5,4.1-2.6c1.4-0.9,3.2-1.3,4.8-1
		c0.8,0.2,1.6,0.3,2.4,0.3c0.8-0.1,1.6-0.3,2.3-0.7c0.7-0.3,1.5-0.7,2.2-1c0.7-0.4,1.5-0.7,2.3-0.8c1.5,0.6,3.1,0.9,4.8,1
		c-1.6,0-3.3-0.2-4.8-0.7c-0.8,0.1-1.5,0.4-2.2,0.8c-0.7,0.4-1.4,0.8-2.2,1.1c-0.8,0.4-1.6,0.6-2.4,0.7c-0.8,0-1.6,0-2.4-0.2
		c-1.6-0.3-3.2,0.1-4.5,1c-1.2,1.1-2.6,2-4.1,2.7c-0.8,0.2-1.7,0.3-2.4,0.5c-0.7,0.4-1.3,0.9-1.7,1.6c-0.5,0.7-1,1.3-1.6,1.9
		c-0.3,0.3-0.7,0.5-1.1,0.6c-0.4,0.1-0.7,0.3-1,0.5C160.5,317.2,160,318.8,160.2,320.4z"/>
	<path class="st36" d="M187.9,309.5c2.3,3.9,4.4,7.9,6.3,11.9s3.8,8.1,5.4,12.4c-2.3-3.9-4.4-7.9-6.4-11.9S189.4,313.7,187.9,309.5z
		"/>
	<path class="st36" d="M182.6,342.7c0.7,0.3,1.3,0.5,2.1,0.6c0.6,0.1,1.2,0,1.7-0.4c1-1,1.5-2.4,1.2-3.8c0.4,0.7,0.6,1.5,0.6,2.3
		c0,0.9-0.4,1.7-1.1,2.3c-0.7,0.6-1.7,0.8-2.5,0.5C183.7,343.8,183,343.3,182.6,342.7z"/>
	<path class="st36" d="M193.4,339.1c0.6,0.5,1.3,0.9,2.1,1.1c0.7,0.1,1.4,0,2-0.3c0.6-0.3,1.1-0.8,1.4-1.4c0.2-0.7,0.3-1.5,0.2-2.2
		c0.5,0.7,0.8,1.6,0.6,2.4c-0.2,0.9-0.8,1.7-1.7,2.1c-0.8,0.4-1.8,0.5-2.7,0.1C194.4,340.6,193.7,340,193.4,339.1z"/>
	<path class="st36" d="M203,336.3c0.5,0.4,1,0.7,1.6,0.9c0.5,0.1,1.1,0.1,1.5-0.2c0.5-0.3,1-0.6,1.4-1c0.4-0.4,0.7-1,0.8-1.6
		c0.3,0.7,0.2,1.4-0.2,2.1c-0.4,0.6-0.9,1.1-1.6,1.5c-0.7,0.4-1.6,0.4-2.3,0C203.8,337.6,203.3,337,203,336.3z"/>
	<path class="st16" d="M273.8,310.7c0,0-10.1,4.8-13.1,4.6c-3-0.3-4.6,2.3-2.8,4.3c4.4,4.8,9.6,2.3,12.1,1.8"/>
	<path class="st16" d="M307.8,326c0.2,3.6-0.2,7.2-1.1,10.7c-1.5,4.8-4,9.3-7.3,13.1c-2.7,3.3-4.1,4.7-7.3,4.5
		c-5.1-0.3-0.6-8.3-0.6-8.3s-5.4,6.3-8.5,4.3c-3.1-2-1.3-7.5-1.3-7.5s-4.8,6.9-8.5,4.9c-3.7-2.1-1.4-7.2-1.4-7.2s-3.4,6.9-6.8,4
		c-3.4-2.9-1-8-1-8l9.8-25.8c0,0,27.1,0.8,31.2,6.9C309,323.6,305.6,322.6,307.8,326z"/>
	<path class="st36" d="M290.7,347.1c1-1.4,1.9-3,2.8-4.5c0.9-1.5,1.7-3.1,2.5-4.7c1.7-3.1,3.3-6.2,5.1-9.3c-0.9,3.5-2.3,6.8-4,9.9
		c-0.8,1.6-1.8,3.1-2.8,4.6C293.4,344.6,292.1,345.9,290.7,347.1z"/>
	<path class="st36" d="M281.1,344.1c1.6-3.9,3.5-7.6,5.5-11.3c1-1.8,2.1-3.6,3.1-5.4s2.2-3.6,3.3-5.3c-1.4,4-3.2,7.8-5.2,11.4
		C285.8,337.1,283.5,340.7,281.1,344.1z"/>
	<path class="st36" d="M306.2,328.9c0.1-1.4-0.2-2.8-1-4c-0.2-0.2-0.5-0.4-0.9-0.5c-0.4-0.1-0.7-0.3-1-0.5c-0.5-0.5-1-1.1-1.4-1.7
		c-0.3-0.6-0.9-1.1-1.5-1.4c-0.6-0.2-1.4-0.2-2.1-0.4c-1.3-0.6-2.6-1.4-3.6-2.3c-1.1-0.8-2.5-1.1-3.9-0.9c-0.7,0.2-1.4,0.2-2.2,0.2
		c-0.7-0.1-1.4-0.3-2.1-0.6c-1.2-0.7-2.5-1.3-3.8-1.7c-1.3,0.5-2.7,0.7-4.1,0.6c1.4,0,2.8-0.3,4.1-0.8c0.7,0.1,1.4,0.3,2.1,0.7
		c0.6,0.3,1.3,0.6,1.9,0.9c0.7,0.3,1.3,0.5,2.1,0.6c0.7,0,1.4-0.1,2.1-0.2c1.4-0.2,2.9,0.1,4.1,0.9c1,1,2.2,1.7,3.5,2.3
		c0.7,0.2,1.3,0.2,2.1,0.5c0.7,0.3,1.2,0.9,1.6,1.5c0.4,0.6,0.8,1.1,1.3,1.6c0.2,0.2,0.5,0.4,0.9,0.5c0.4,0.1,0.7,0.3,1,0.5
		C306.2,325.9,306.5,327.4,306.2,328.9z"/>
	<path class="st36" d="M282,319.3c-1.4,3.7-3.1,7.2-4.7,10.8s-3.5,7-5.5,10.3c1.4-3.7,3.1-7.2,4.7-10.8
		C278.2,326.2,280,322.7,282,319.3z"/>
	<path class="st36" d="M286.7,348.3c-0.4,0.6-1,1-1.6,1.3c-0.8,0.3-1.6,0.1-2.2-0.4c-0.6-0.5-0.9-1.2-1-2c-0.1-0.7,0.1-1.5,0.5-2.1
		c-0.3,1.2,0.1,2.4,1,3.3c0.4,0.3,1,0.4,1.5,0.3C285.5,348.7,286.1,348.5,286.7,348.3z"/>
	<path class="st36" d="M277.2,345.2c-0.3,0.7-0.8,1.3-1.5,1.6c-0.8,0.3-1.6,0.2-2.3-0.1c-0.7-0.4-1.3-1-1.4-1.8
		c-0.1-0.7,0.1-1.5,0.5-2.1c-0.1,0.7-0.1,1.3,0.1,2c0.2,0.6,0.6,1,1.2,1.2C275,346.5,276.4,346.2,277.2,345.2z"/>
	<path class="st36" d="M268.9,342.8c-0.2,0.6-0.6,1.1-1.2,1.4c-0.6,0.3-1.4,0.3-2.1,0c-0.6-0.3-1.1-0.7-1.4-1.3
		c-0.3-0.5-0.4-1.2-0.2-1.8c0.1,0.5,0.4,1,0.7,1.4c0.4,0.4,0.8,0.7,1.2,0.9c0.4,0.2,0.9,0.3,1.3,0.1
		C267.9,343.4,268.4,343.1,268.9,342.8z"/>
	<path class="st37" d="M270.6,319.2c0,0-2.1,1.6,0.6,2.8c2.7,1.2,4.1,3.4,5.6,3.1c1.5-0.2,1.9,2.1,4.5,2.1c2.6,0,3.6,1.2,5.7,0.9
		c2.1-0.3,3.1,0.5,5.7-0.4c2.6-0.9,16.9-5.1,16.9-5.1l-0.2-0.8L270.6,319.2z"/>
	<path class="st33" d="M134.8,286c2.7-2.8,5.9-5.1,9.3-6.9c3.4-1.9,7.1-3.2,10.9-4.1c3.8-0.9,7.7-1.3,11.6-1.2
		c3.9,0.1,7.7,0.7,11.4,1.9c-3.8-0.4-7.6-0.4-11.4-0.3c-3.8,0.2-7.5,0.7-11.1,1.6c-3.7,0.9-7.2,2-10.7,3.6
		C141.3,282.1,138,283.9,134.8,286z"/>
	<path class="st33" d="M156.6,192.4c4.1,15.7,8,31.4,11.9,47.1l5.8,23.6l1.5,5.9c0.4,1.9,1,3.7,1.7,5.5c2.4,3.1,5.1,6,8.1,8.5l0,0
		c4,2.4,8,4.8,11.9,7.2l0.2,0.1v0.2c-0.2,1.3-0.3,2.7-0.6,4c0-1.3-0.1-2.7-0.2-4.1l0.2,0.4c-4.1-2.1-8.2-4.3-12.3-6.5l0,0l0,0
		c-1.6-1.2-3.2-2.6-4.7-4c-1.5-1.4-2.9-3-4.1-4.7c-0.1-0.2-0.3-0.5-0.4-0.8l-0.2-0.8c-0.2-0.5-0.3-1-0.4-1.5l-0.8-3l-1.4-5.9
		l-5.9-23.7C163.3,224.1,159.8,208.3,156.6,192.4z"/>
	<path class="st4" d="M321.6,302.6c0,0-19.4-3.8-22.2-2.5c-5.8,2.8-15.1,11.1-16.7,11.5c-1.6,0.4-11.4,4.5-12.6,6.9
		c-1.2,2.4,11,4.9,12.2,5.3c1.2,0.4,13.5,0,13.5,0s24.8-1.2,28.4-4.5c2.2-2.1,4.1-4.7,5.4-7.5"/>
	<path class="st33" d="M292.1,185.5c-1.3,1.8-2.3,3.9-2.9,6c-0.7,2.2-1.2,4.3-1.6,6.6c-0.9,4.4-1.4,8.9-1.7,13.4
		c-0.3,4.5-0.5,9-0.6,13.5c-0.1,4.5-0.1,9,0,13.5v0.1c-0.6,5.4-1.2,10.9-1.9,16.3l-2.1,16.3c-1.4,10.8-2.9,21.7-4.6,32.5
		c0.8-10.9,1.9-21.8,2.9-32.7l1.7-16.3c0.6-5.4,1.2-10.9,1.8-16.3v0.1c0-4.6,0-9.1,0.2-13.7c0.2-4.6,0.5-9.1,1-13.6
		c0.5-4.5,1.2-9,2.3-13.5c0.6-2.2,1.2-4.4,2.1-6.5C289.5,189.2,290.6,187.2,292.1,185.5z"/>
	<path class="st33" d="M208.6,282.8c5.9-0.1,11.8,0,17.7,0c5.9,0,11.8,0.2,17.7,0.4h0.8l0.2,0.8c0.7,3.2,1.3,6.5,1.9,9.8
		s1.1,6.5,1.4,9.8c0.2,1.7,0.3,3.4,0.2,5.1c0,1.6,0.2,3.1,0.7,4.6c1,3.1,2.2,6.2,3.6,9.1l-0.3-0.2l5.8,0.3l-5.8,0.3h-0.2v-0.2
		c-1.7-2.8-3.2-5.8-4.3-9c-0.6-1.6-1-3.4-1-5.1c0-1.6-0.1-3.2-0.4-4.8c-0.9-6.5-2.2-12.9-3.4-19.4l0.9,0.8c-5.9-0.3-11.8-0.6-17.7-1
		C220.5,283.8,214.5,283.4,208.6,282.8z"/>
	<polygon class="st38" points="208.6,282.8 243.1,285.1 245,294.4 213.4,295 	"/>
	<polygon class="st39" points="214.6,281.8 218.2,297.3 238.3,296.9 237.9,281.8 	"/>
	<ellipse class="st40" cx="228.2" cy="271.1" rx="1.5" ry="1.5"/>
	<ellipse class="st40" cx="227.1" cy="257.4" rx="1.5" ry="1.5"/>
	<ellipse class="st40" cx="225.4" cy="244.3" rx="1.5" ry="1.5"/>
	<ellipse class="st40" cx="224.3" cy="230.5" rx="1.5" ry="1.5"/>
	<ellipse class="st40" cx="222.6" cy="217.5" rx="1.5" ry="1.5"/>
	<ellipse class="st40" cx="222.3" cy="206.2" rx="1.5" ry="1.5"/>
	<ellipse class="st40" cx="222" cy="195.8" rx="1.5" ry="1.5"/>
	<path class="st10" d="M194.2,209.1c1.7-9.7,7.6-18.2,16.1-23.2l-0.9,0.1c0,0-12.7,8.1-16.1,18.6L194.2,209.1z"/>
	<path class="st10" d="M223.2,184c0,0,16,6.5,17.2,16.8l0.5-4.9C240.9,196,241,188.9,223.2,184z"/>
	<ellipse class="st41" cx="223.9" cy="289" rx="1" ry="1.1"/>
	<ellipse class="st41" cx="230.8" cy="288.9" rx="1" ry="1.1"/>
	<g class="st31">
		<path d="M288.6,321.5c3.5-1,7-1.8,10.5-2.6c0.9-0.2,1.7-0.5,2.6-0.7s1.6-0.7,2.5-1c1.7-0.6,3.5-1.1,5.2-1.4
			c-1.7,0.7-3.3,1.4-5,2.1c-0.8,0.4-1.5,0.8-2.4,1.2c-0.9,0.4-1.7,0.6-2.6,0.8c-1.7,0.4-3.5,0.8-5.3,1.1
			C292.2,321.2,290.4,321.4,288.6,321.5z"/>
	</g>
	<g class="st31">
		<path d="M296.9,305c1.6-0.2,3.3,0,4.8,0.4c0.4,0.1,0.8,0.4,1.1,0.7c0.3,0.4,0.4,0.7,0.6,1.1c0.5,0.6,1,1.2,1.7,1.7
			c1.3,0.9,2.6,1.8,4,2.6c1.4,0.8,2.7,1.7,4.1,2.6l0,0l2.6,2.6l-2.9-2.4l0,0c-1.4-0.8-2.8-1.6-4.1-2.4c-1.4-0.8-2.8-1.6-4.1-2.6
			c-0.7-0.5-1.2-1.1-1.7-1.8c-0.2-0.3-0.4-0.8-0.6-1.1c-0.2-0.3-0.5-0.5-0.9-0.6C300,305.2,298.4,305,296.9,305z"/>
	</g>
	<g class="st31">
		<path d="M280,320.4c0,0-0.3,0.1-0.1,0.1h0.3l0.7-0.2l1.4-0.4c0.9-0.2,1.9-0.5,2.8-0.8c1.9-0.6,3.7-1.1,5.5-1.8l5.5-2.1
			c1.9-0.6,3.7-1.3,5.6-1.8c-1.7,0.9-3.5,1.7-5.3,2.5c-1.8,0.8-3.6,1.6-5.4,2.2c-1.9,0.6-3.7,1.1-5.7,1.6c-0.9,0.2-1.9,0.4-2.9,0.5
			l-1.5,0.2h-0.7h-0.4l0,0l0,0L280,320.4z"/>
	</g>
	<path class="st4" d="M299.4,300.2c0,0-10.9,1.8-12.9,2.3c-2,0.5-3.8,1.6-1.4,2.1c2.5,0.5,5.4,0.9,5.4,0.9l3.4,0.2"/>
	<g class="st31">
		<path d="M273.8,318.5c4.2-1.3,8.5-2.5,12.5-4.1c4.1-1.6,8.4-2.9,12.6-4.1c-4.1,1.9-8.2,3.5-12.3,5c-2.1,0.8-4.2,1.5-6.4,2.1
			C278.1,317.9,276,318.3,273.8,318.5z"/>
	</g>
	<polygon class="st10" points="289.3,305.2 290.8,304.6 296.6,302.2 290.9,305.5 	"/>
	<path class="st42" d="M135.9,298.8c0,0,5.3,33.2,6.4,34.3s3.6-15.8,5.1-16.2l12,9.7l-0.8-5C158.5,321.6,140.8,300.2,135.9,298.8z"
		/>
	<g class="st31">
		<path d="M125.1,201.1c1.5,3,2.9,6,4.3,9c0.7,1.5,1.5,2.9,2.3,4.3c0.8,1.5,1.8,2.9,2.9,4.1c-1.4-1-2.6-2.2-3.5-3.6
			c-1-1.4-1.8-2.8-2.6-4.3c-0.8-1.5-1.5-3-2.1-4.6C125.9,204.4,125.4,202.7,125.1,201.1z"/>
	</g>
	<g class="st31">
		<path d="M128.2,192.2c1.7,4.1,3.4,8.4,5.2,12.6c0.9,2.1,1.9,4.1,2.9,6.1c1,2,2.3,3.9,3.7,5.6c-1.7-1.5-3.2-3.3-4.4-5.3
			c-1.2-1.9-2.3-4-3.2-6.1c-0.9-2.1-1.7-4.1-2.5-6.4C129.3,196.6,128.7,194.4,128.2,192.2z"/>
	</g>
	<g class="st31">
		<path d="M135.6,190c2.4,3.7,4.6,7.6,6.5,11.6c0.9,2.1,1.9,4,2.7,6.1c0.9,2,1.6,4.1,2.2,6.2l-5.9-11.9
			C139.3,198.1,137.4,194.1,135.6,190z"/>
	</g>
	<path class="st4" d="M151.8,174.2c0,0,0.4-7.8-3.1-5.9c-3.5,2-2.8,3.2-3.6,3.8c-0.9,1.6-1.6,3.4-2.1,5.2l1.1,2.6L151.8,174.2z"/>
</g>
</svg>
