<?xml version="1.0" encoding="utf-8"?>
<!-- Generator: Adobe Illustrator 24.2.0, SVG Export Plug-In . SVG Version: 6.00 Build 0)  -->
<svg version="1.1" id="Ebene_1" xmlns="http://www.w3.org/2000/svg" xmlns:xlink="http://www.w3.org/1999/xlink" x="0px" y="0px"
	 viewBox="0 0 250 250" style="enable-background:new 0 0 250 250;" xml:space="preserve">
<style type="text/css">
	.st0{clip-path:url(#SVGID_2_);}
	.st1{fill:#F4BF99;}
	.st2{fill:#D62866;}
	.st3{fill:#C62116;}
	.st4{fill:#BA6382;}
	.st5{clip-path:url(#SVGID_4_);}
	.st6{fill:#B21916;}
	.st7{fill:#E88CA8;}
	.st8{fill:#82FFFF;}
	.st9{fill:#CCAA9E;}
	.st10{fill:#2DD6FF;}
	.st11{fill:#CE6B38;}
	.st12{fill:#FFDDD1;}
	.st13{fill:#23262D;}
	.st14{fill:#966B4F;}
	.st15{fill:#BC8763;}
	.st16{fill:#911916;}
	.st17{fill:#FFFFFF;}
</style>
<g id="image_babysitter">
	<g>
		<defs>
			<rect id="SVGID_1_" x="78.1" y="21.8" width="94.2" height="206.5"/>
		</defs>
		<clipPath id="SVGID_2_">
			<use xlink:href="#SVGID_1_"  style="overflow:visible;"/>
		</clipPath>
		<g id="Gruppe_12490" class="st0">
			<g id="Gruppe_12485" transform="translate(29.975 151.535)">
				<path id="Pfad_13460" class="st1" d="M79.9,71l-1.8-0.2c1.7-12.5,7.9-45.6,10.1-49l1.5,1C87.8,25.7,81.6,58,79.9,71"/>
			</g>
			<g id="Gruppe_12486" transform="translate(14.801 198.794)">
				<path id="Pfad_13461" class="st2" d="M78.6,23.4c2.2-1.1,4.7-1.6,7.1-1.4c0,0,0.1,0,0.1,0c3.3-0.4,6.6,0,9.6,1.2l0,0
					c0.4,0.2,0.7,0.6,0.7,1l0,0c-0.1,1.6-0.5,3.1-1.2,4.6l0,0c-0.2,0.4-0.7,0.7-1.1,0.6l0,0c-3.3-0.6-6.7-1.3-10.1-2.2
					c-1.9-0.4-3.7-1.1-5.3-2l0,0c-0.5-0.3-0.6-0.9-0.3-1.4C78.3,23.6,78.5,23.5,78.6,23.4z"/>
			</g>
			<g id="Gruppe_12487" transform="translate(58.238 152.381)">
				<path id="Pfad_13462" class="st1" d="M91.1,70.4l1.8-0.4c-2.5-12.4-11-45-13.3-48.2l-1.5,1.1C80.1,25.6,88.5,57.5,91.1,70.4"/>
			</g>
			<g id="Gruppe_12488" transform="translate(70.088 198.411)">
				<path id="Pfad_13463" class="st2" d="M95.6,22.9c-2.3-0.9-4.8-1.2-7.2-0.9c0,0-0.1,0-0.1,0c-3.3-0.2-6.5,0.5-9.5,1.9l0,0
					c-0.4,0.2-0.7,0.6-0.6,1.1l0,0c0.2,1.6,0.7,3.1,1.5,4.5l0,0c0.2,0.4,0.7,0.6,1.2,0.5l0,0c3.3-0.8,6.6-1.8,9.9-2.8
					c1.8-0.5,3.6-1.3,5.2-2.4l0,0c0.5-0.3,0.6-1,0.2-1.4C95.9,23.1,95.7,22.9,95.6,22.9L95.6,22.9z"/>
			</g>
			<g id="Gruppe_12489" transform="translate(14.475 81.289)">
				<path id="Pfad_13464" class="st3" d="M113.3,21.9c2.2-0.3,4.5-0.2,6.7,0.4c4.8,1.7,7,7.2,8.4,12.1c4.6,15.9,6.8,43,8.6,59.5
					c-17.1-5.2-42.1,1.3-58.9-4.7c2.4-9.9,13.7-42.8,16-52.7c0.8-3.3,1.6-6.7,3.8-9.2C101.5,23,107.7,22.3,113.3,21.9"/>
			</g>
		</g>
	</g>
	<g id="Gruppe_12491" transform="translate(38.037 80.666)">
		<path id="Pfad_13466" class="st4" d="M79.6,22.6l19.2-0.8l1.3,20.8l-22-3.1L79.6,22.6z"/>
	</g>
	<g>
		<defs>
			<rect id="SVGID_3_" x="78.1" y="21.8" width="94.2" height="206.5"/>
		</defs>
		<clipPath id="SVGID_4_">
			<use xlink:href="#SVGID_3_"  style="overflow:visible;"/>
		</clipPath>
		<g id="Gruppe_12518" class="st5">
			<g id="Gruppe_12492" transform="translate(41.413 80.76)">
				<path id="Pfad_13467" class="st6" d="M89.1,27c0.8-0.5,1.5-1.2,2.1-2c0.7-0.9,1.2-2,1.3-3.2c-4.6,0.1-9.9,0.3-14.5,0.7
					c0.2,1,0.6,1.9,1.2,2.7c0.5,0.8,1.3,1.5,2.1,2c0.7,0.4,1.4,0.6,2.1,0.8c1.1,0.3,2.2,0.4,3.3,0.2C87.6,27.8,88.4,27.4,89.1,27"/>
			</g>
			<g id="Gruppe_12493" transform="translate(41.95 70.8)">
				<path id="Pfad_13468" class="st1" d="M80.1,24.5c0,0-1.1,6.4-2.1,7.9c0,0,7.1,9.9,13.6-0.5c0,0-2.5-6.8-2.7-9.3
					S80.1,24.5,80.1,24.5"/>
			</g>
			<g id="Gruppe_12494" transform="translate(17.964 0.912)">
				<path id="Pfad_13469" class="st1" d="M137,66c-2.8,17.8-15.7,29.9-29.2,29.9S81.4,83.8,78.6,66c-3.5-22,9.2-44.2,29.2-44.2
					S140.5,43.9,137,66"/>
			</g>
			<g id="Gruppe_12495" transform="translate(25.621 80.665)">
				<path id="Pfad_13470" class="st7" d="M111.2,21.8l-1.5,14.5c0,0-12,0.1-16.1-0.6L92,22.6l-7.2,0.2c0,0,7.3,43.1-6.8,74.9
					c0,0,20.4,10.4,45.7,0c0,0-10.9-12.9-6.1-75.1L111.2,21.8z"/>
			</g>
			<g id="Gruppe_12496" transform="translate(27.104 88.145)">
				<path id="Pfad_13471" class="st8" d="M117.1,23.5c0,0-4.1-0.2-5.2,3.4c0,0-7.9,0-8.5,2.9c0,0-27.7-0.4-25.3,12
					s29.9,19.7,44.1,6.6c0,0,6.7-0.2,6.2-3.8c0,0,6.7-3.4,4.4-6.8c0,0,4.2-3.4,0.5-7.4c0,0,4-3.2,0.6-7S117.1,23.5,117.1,23.5"/>
			</g>
			<g id="Gruppe_12497" transform="translate(43.466 74.247)">
				<path id="Pfad_13472" class="st9" d="M78.4,22.2c0,0,5.9,0.9,9.6-0.4l0.6,2.2c-3.5,0.5-7.1,0.5-10.6,0L78.4,22.2z"/>
			</g>
			<g id="Gruppe_12498" transform="translate(62.552 89.865)">
				<path id="Pfad_13473" class="st10" d="M78.1,22.9c0,0,3.8,13.4,21.3,8.4v-1.1l-18.5-8.3L79,22.3L78.1,22.9z"/>
			</g>
			<g id="Gruppe_12499" transform="translate(61.505 66.622)">
				<path id="Pfad_13474" class="st1" d="M110.7,38.1c0,9-7.3,16.3-16.3,16.3c0,0,0,0,0,0c-9,0-16.3-7.3-16.3-16.3
					s7.3-16.3,16.3-16.3C103.4,21.8,110.7,29.1,110.7,38.1C110.7,38.1,110.7,38.1,110.7,38.1"/>
			</g>
			<g id="Gruppe_12500" transform="translate(65.283 72.006)">
				<path id="Pfad_13475" class="st11" d="M82.9,23c0,0,4-2.6,7.5,0s-1.2,9.9-10.7,6.2c0,0,1-0.6,2.6-1.8c0,0-2.8,0.1-4.2-1.4
					C79.9,25.5,81.6,24.4,82.9,23"/>
			</g>
			<g id="Gruppe_12501" transform="translate(57.635 112.109)">
				<path id="Pfad_13476" class="st12" d="M91.4,25.8c0,0-1-4.7-3.5-3.6c-0.9,0.4,0,3.4,0,3.4s-5.6-5.4-7.2-3.4
					c-1.6,1.9,1,1.9,3.1,3.8c0,0-3.9-2.8-5.5-0.9s4.6,3.3,4.6,3.3s-4-1.5-4.3,0.3c-0.2,1.5,2.8,1.4,4.7,2.9c1.3,1.1,2.9,1.9,4.6,2.2
					L91.4,25.8z"/>
			</g>
			<g id="Gruppe_12502" transform="translate(23.62 81.633)">
				<path id="Pfad_13477" class="st4" d="M87.9,31.1l0.7,12.2c8.5,12.8,30.1,1.9,30.1,1.9l3.5,7.9c-19.3,16.8-48.1,6.4-43.7-15.7
					c1.1-5.4,5.1-15.4,8.3-15.5L87.9,31.1z"/>
			</g>
			<g id="Gruppe_12503" transform="translate(64.286 101.013)">
				<path id="Pfad_13478" class="st12" d="M78.1,25.8c0,0,1-4.7,3.5-3.6c0.9,0.4,0,3.4,0,3.4s5.6-5.4,7.2-3.4c1.6,1.9-1,1.9-3.1,3.8
					c0,0,3.9-2.8,5.5-0.9s-4.6,3.3-4.6,3.3s4-1.5,4.3,0.3c0.2,1.4-2.8,1.4-4.7,2.9c-1.3,1.1-2.9,1.9-4.6,2.2L78.1,25.8z"/>
			</g>
			<g id="Gruppe_12504" transform="translate(67.477 114.274)">
				<path id="Pfad_13479" class="st4" d="M78.1,31.5c0,0,12.9-1,6.7-9.7h-2.8L81.3,23l0.2,0.7"/>
			</g>
			<g id="Gruppe_12505" transform="translate(20.224 45.653)">
				<path id="Pfad_13480" class="st3" d="M78.4,26.8l8.9-2.9c0,0,11.3-4.7,16.8,0.1c5,4.4,10.4-0.8,10.4-0.8s4.2-2.7,11,0.5
					c4.9,2.3,8.1,1.9,8.1,1.9s-1,6.6-3.1,8.3c-2.1,1.7-14.1,5-18.8,0.5c-5.3-5.1-7.1,3.6-13.9,1.8c-4.3-1.1-7.6-2.4-9.1-2.5
					c-2.4-0.2-7.5,1.8-7.5,1.8S76.8,26.5,78.4,26.8"/>
			</g>
			<g id="Gruppe_12506" transform="translate(58.504 48.715)">
				<path id="Pfad_13481" class="st13" d="M81.4,25.1c0,1.8-0.8,3.3-1.7,3.3s-1.7-1.5-1.7-3.3c0-1.8,0.8-3.3,1.7-3.3
					S81.4,23.3,81.4,25.1"/>
			</g>
			<g id="Gruppe_12507" transform="translate(40.264 49.749)">
				<path id="Pfad_13482" class="st13" d="M81.4,25.1c0,1.8-0.8,3.3-1.7,3.3s-1.7-1.5-1.7-3.3s0.8-3.3,1.7-3.3S81.4,23.3,81.4,25.1"
					/>
			</g>
			<g id="Gruppe_12508" transform="translate(0 1.557)">
				<path id="Pfad_13483" class="st14" d="M91.2,21.8c-1.6,0-3.3,0.2-4.8,0.8c-5.6,2.3-7.8,9.8-8.3,16.3
					c-0.7,10.6,1.5,21.1,6.2,30.6c7.1-6.6,12.9-14.4,17.1-23.2c2.7-5.7,4.7-12.8,1.7-18.3C100.8,23.8,95.9,21.8,91.2,21.8"/>
			</g>
			<g id="Gruppe_12509" transform="translate(18.325 6.239)">
				<path id="Pfad_13484" class="st3" d="M87.5,27.2c1.1-1.3,2.2-2.8,2.3-4.6c-3.2-1.5-7-0.8-9.3,1.8c-2.4,2.8-3,6.8-1.6,10.2
					c1.2,0.2,2.3-0.7,3.2-1.6C83.9,31.2,85.7,29.3,87.5,27.2"/>
			</g>
			<g id="Gruppe_12510" transform="translate(14.587 0)">
				<path id="Pfad_13485" class="st15" d="M80.5,65.2c1,3.8,2.9,9.7,6,11.2c6.1-6.7,11.3-18.2,12.3-28c13.9,12.9,31.2,20.4,48.7,21
					c-0.4-12.7-4.5-26-12.1-34.8c-7.6-8.9-18.3-12.7-28.9-12.8c-8.5-0.1-18.2,4.4-20.9,14.1c-4.2,3.4-6.8,8.5-7.5,14.5
					C77.6,55.7,79.5,60,80.5,65.2"/>
			</g>
			<g id="Gruppe_12511" transform="translate(42.61 85.431)">
				<path id="Pfad_13486" class="st6" d="M83.7,22.3c-0.1-0.2-0.3-0.3-0.5-0.4c-0.8-0.1-1.6,0-2.2,0.5c-1.2,0.7-2.2,1.6-2.9,2.7
					c1.1,0.1,2.3,0,3.4-0.1c1.1-0.2,2-1.1,2.3-2.2C83.7,22.6,83.7,22.4,83.7,22.3"/>
			</g>
			<g id="Gruppe_12512" transform="translate(47.1 84.014)">
				<path id="Pfad_13487" class="st3" d="M81.8,23.3c0-0.2,0-0.4-0.1-0.5c0-0.2-0.1-0.3-0.2-0.5c-0.2-0.2-0.4-0.3-0.6-0.4
					c-0.3-0.1-0.6-0.2-0.9-0.1c-0.3,0.1-0.6,0.2-0.9,0.4c-0.4,0.3-0.7,0.6-0.9,1c-0.2,0.4-0.2,0.9,0.1,1.3c0.2,0.2,0.5,0.4,0.8,0.5
					c0.2,0.1,0.5,0.1,0.7,0.2c0.5,0,1-0.2,1.4-0.5C81.5,24.3,81.8,23.8,81.8,23.3"/>
			</g>
			<g id="Gruppe_12513" transform="translate(49.585 85.431)">
				<path id="Pfad_13488" class="st3" d="M78.1,22.3c0.1-0.2,0.3-0.3,0.5-0.4c0.8-0.1,1.6,0,2.2,0.5C82,23,83,24,83.7,25.1
					c-1.1,0.1-2.3,0-3.4-0.1c-1.1-0.2-2-1.1-2.3-2.2C78,22.6,78.1,22.4,78.1,22.3"/>
			</g>
			<g id="Gruppe_12514" transform="translate(43.736 64.809)">
				<path id="Pfad_13489" class="st16" d="M78.1,22.5c2.5,0.6,5,0.8,7.5,0.6c2.2-0.2,4.4-0.6,6.5-1.3C92.1,21.8,86.7,31.2,78.1,22.5
					"/>
			</g>
			<g id="Gruppe_12515" transform="translate(43.736 64.809)">
				<path id="Pfad_13490" class="st3" d="M78.1,22.5c0,0,5-0.8,6.1-0.4c1.1,0.4,1.5-0.3,2.5-0.2c1,0.1,5.3-0.1,5.3-0.1
					C87.6,23.5,82.7,23.7,78.1,22.5"/>
			</g>
			<g id="Gruppe_12516" transform="translate(43.736 64.852)">
				<path id="Pfad_13491" class="st3" d="M78.1,22.5c0,0,3.5,4.3,7.1,4.6c3.6,0.3,6.9-5.2,6.9-5.2S86.5,30.9,78.1,22.5"/>
			</g>
			<g id="Gruppe_12517" transform="translate(46.507 65.662)">
				<path id="Pfad_13492" class="st17" d="M78.1,22.1c1.2,1.8,4.8,1.9,6.7,1.3c0.8-0.2,1.4-0.8,1.7-1.6
					C83.7,22.3,80.9,22.4,78.1,22.1"/>
			</g>
		</g>
	</g>
</g>
</svg>
