<svg xmlns="http://www.w3.org/2000/svg" viewBox="0 0 77.93 77.93"><defs><style>.cls-1{fill:#ee8000;}.cls-2{fill:#fff;}</style></defs><title>hjb_user</title><g id="Ebene_2" data-name="Ebene 2"><g id="Ebene_1-2" data-name="Ebene 1"><circle class="cls-1" cx="38.96" cy="38.96" r="38.96"/><path class="cls-2" d="M38.32,44.43a16,16,0,1,1,16-16A16,16,0,0,1,38.32,44.43Zm0-26.88A10.87,10.87,0,1,0,49.19,28.41,10.87,10.87,0,0,0,38.32,17.55Z"/><path class="cls-2" d="M59.7,65.27H54.43c.14-6.49-1.51-20.28-15.94-20.72l-.58,0c-14.33.5-15.62,14-15.62,20.6H16.88c-.29-9.54,3.74-21.34,15.59-24.94l-.81-.81h6.42l.52,0h5.56l-.62.73C55,43.15,59.94,54,59.7,65.27Z"/></g></g></svg>