<svg xmlns="http://www.w3.org/2000/svg" viewBox="0 0 33.45 33.45"><defs><style>.cls-1{fill:#1d1d1b;fill-rule:evenodd;}</style></defs><title>Element 13</title><g id="Ebene_2" data-name="Ebene 2"><g id="Ebene_1-2" data-name="Ebene 1"><path class="cls-1" d="M16.72,33.45A16.73,16.73,0,1,1,33.45,16.72,16.73,16.73,0,0,1,16.72,33.45Zm0-2.09a14.5,14.5,0,0,0,8.6-2.85,15,15,0,0,0-2.37-3A31.4,31.4,0,0,0,20.09,23a6.28,6.28,0,0,1-3.37,1,6.25,6.25,0,0,1-3.36-1,30.11,30.11,0,0,0-2.86,2.47,15,15,0,0,0-2.37,3A14.47,14.47,0,0,0,16.72,31.36ZM22,15.16c0-3.75-2.34-6.8-5.23-6.8s-5.22,3.05-5.22,6.8S13.84,22,16.72,22,22,18.91,22,15.16ZM16.72,2.09A14.61,14.61,0,0,0,6.57,27.23,15,15,0,0,1,9,24.11a30.8,30.8,0,0,1,2.82-2.44,9.78,9.78,0,0,1-2.37-6.51c0-4.91,3.27-8.89,7.31-8.89s7.32,4,7.32,8.89a9.78,9.78,0,0,1-2.37,6.51,32.19,32.19,0,0,1,2.82,2.44,15,15,0,0,1,2.39,3.12A14.61,14.61,0,0,0,16.72,2.09Z"/></g></g></svg>