<svg xmlns="http://www.w3.org/2000/svg" viewBox="0 0 78.07 78.07"><defs><style>.cls-1{fill:#ee8000;}.cls-2{fill:#fff;}</style></defs><title>hjb_user_check</title><g id="Ebene_2" data-name="Ebene 2"><g id="Ebene_1-2" data-name="Ebene 1"><circle class="cls-1" cx="39.04" cy="39.04" r="39.04"/><path class="cls-2" d="M58,64.6a2.58,2.58,0,0,1-1.84-.76l-4.52-4.52a2.6,2.6,0,0,1,3.68-3.68L58,58.32l8.55-8.55a2.6,2.6,0,1,1,3.68,3.68L59.84,63.84A2.58,2.58,0,0,1,58,64.6Z"/><path class="cls-2" d="M38.39,45.53A16.07,16.07,0,1,1,54.46,29.46,16.08,16.08,0,0,1,38.39,45.53Zm0-26.93A10.87,10.87,0,1,0,49.25,29.46,10.88,10.88,0,0,0,38.39,18.6Z"/><path class="cls-2" d="M17.85,64.47c0-2,.32-12.19,6.87-18.75,3.52-3.52,8.15-5.31,13.76-5.31a18.06,18.06,0,0,1,14.81,7.1l-3.63,3.77a13.67,13.67,0,0,0-11.18-5.66A13.72,13.72,0,0,0,28.4,49.4c-5.29,5.3-5.34,14.67-5.34,15.06Z"/></g></g></svg>