<svg xmlns="http://www.w3.org/2000/svg" viewBox="0 0 370.69 68.28"><defs><style>.cls-1{fill:#004968;}.cls-2,.cls-5{fill:#ee8000;}.cls-3{fill:#fff;}.cls-4{fill:#267ba4;stroke-width:2px;}.cls-4,.cls-5{stroke:#fff;stroke-miterlimit:10;}</style></defs><title>hjb_logo_mit_wortmarke</title><g id="Ebene_2" data-name="Ebene 2"><g id="Ebene_1-2" data-name="Ebene 1"><path class="cls-1" d="M84,48.37h-.53c-.2,0-.3-.12-.3-.35V22c0-.22.1-.34.3-.34H84c.21,0,.31.12.31.34v9h.15q1.06-2,4-2h2.81a5,5,0,0,1,3.7,1.4,5.1,5.1,0,0,1,1.39,3.76V48c0,.23-.1.35-.3.35h-.53c-.21,0-.31-.12-.31-.35V34.19a4.32,4.32,0,0,0-1-3,3.83,3.83,0,0,0-2.93-1.1H88.58a4.47,4.47,0,0,0-3.07,1A3.65,3.65,0,0,0,84.33,34V48C84.33,48.25,84.23,48.37,84,48.37Z"/><path class="cls-1" d="M110,48.37H107.2A5,5,0,0,1,103.5,47a5.1,5.1,0,0,1-1.39-3.76V34.15a5.1,5.1,0,0,1,1.39-3.76,5,5,0,0,1,3.7-1.4H115c.2,0,.3.11.3.34V48c0,.23-.1.35-.3.35h-.53c-.2,0-.31-.12-.31-.35V46.39H114Q113,48.37,110,48.37Zm4.18-5v-13c0-.2-.11-.3-.34-.3H107.2a3.81,3.81,0,0,0-2.92,1.1,4.27,4.27,0,0,0-1,3v9a4.26,4.26,0,0,0,1,3,3.77,3.77,0,0,0,2.92,1.1h2.74a4.54,4.54,0,0,0,3.08-1A3.7,3.7,0,0,0,114.19,43.35Z"/><path class="cls-1" d="M129.32,48.37h-2.81A5,5,0,0,1,122.8,47a5.14,5.14,0,0,1-1.39-3.76V29.33c0-.23.11-.34.31-.34h.53c.2,0,.3.11.3.34V43.16a4.3,4.3,0,0,0,1,3,3.78,3.78,0,0,0,2.93,1.1h2.73a4.54,4.54,0,0,0,3.08-1,3.67,3.67,0,0,0,1.18-2.93v-14c0-.23.1-.34.3-.34h.53c.21,0,.31.11.31.34V48c0,.23-.1.35-.31.35h-.53c-.2,0-.3-.12-.3-.35V46.39h-.15C132.64,47.71,131.29,48.37,129.32,48.37Z"/><path class="cls-1" d="M146.91,48.37h-6.46c-.23,0-.34-.1-.34-.31v-.45c0-.21.11-.31.34-.31h6.46q3.84,0,3.84-3V43.12a4.76,4.76,0,0,0-.49-2.28,3.19,3.19,0,0,0-1.79-1.33l-5-1.75a5.8,5.8,0,0,1-2.75-1.69,4.52,4.52,0,0,1-.78-2.83c0-2.83,1.54-4.25,4.64-4.25h6.11c.23,0,.35.1.35.3v.46c0,.2-.12.3-.35.3h-6.11a3.72,3.72,0,0,0-2.61.8,2.42,2.42,0,0,0-.85,1.82v1a2.66,2.66,0,0,0,.62,1.88,4.8,4.8,0,0,0,2,1.12l5,1.79a3.81,3.81,0,0,1,2.62,1.86,8.57,8.57,0,0,1,.61,3.61,4.22,4.22,0,0,1-1.22,3.36A5.65,5.65,0,0,1,146.91,48.37Z"/><path class="cls-1" d="M158.23,48.37h-.53c-.2,0-.3-.12-.3-.35V22c0-.22.1-.34.3-.34h.53c.21,0,.31.12.31.34v9h.15q1.06-2,4-2h2.81a5,5,0,0,1,3.71,1.4,5.14,5.14,0,0,1,1.38,3.76V48c0,.23-.1.35-.3.35h-.53c-.21,0-.31-.12-.31-.35V34.19a4.32,4.32,0,0,0-1-3,3.83,3.83,0,0,0-2.93-1.1H162.8a4.48,4.48,0,0,0-3.08,1A3.65,3.65,0,0,0,158.54,34V48C158.54,48.25,158.44,48.37,158.23,48.37Z"/><path class="cls-1" d="M184.23,48.37h-2.81A5,5,0,0,1,177.71,47a5.14,5.14,0,0,1-1.39-3.76V34.15a5.14,5.14,0,0,1,1.39-3.76,5,5,0,0,1,3.71-1.4h7.82c.21,0,.31.11.31.34V48c0,.23-.1.35-.31.35h-.53c-.2,0-.3-.12-.3-.35V46.39h-.15C187.55,47.71,186.2,48.37,184.23,48.37Zm4.18-5v-13c0-.2-.12-.3-.34-.3h-6.65a3.82,3.82,0,0,0-2.93,1.1,4.32,4.32,0,0,0-1,3v9a4.3,4.3,0,0,0,1,3,3.78,3.78,0,0,0,2.93,1.1h2.73a4.54,4.54,0,0,0,3.08-1A3.7,3.7,0,0,0,188.41,43.35Z"/><path class="cls-1" d="M196.84,48.37h-.53c-.2,0-.3-.12-.3-.35V22c0-.22.1-.34.3-.34h.53c.21,0,.31.12.31.34V48C197.15,48.25,197.05,48.37,196.84,48.37Z"/><path class="cls-1" d="M204.56,30.05h-2.51c-.23,0-.34-.1-.34-.3v-.46c0-.2.11-.3.34-.3h2.51c.22,0,.34-.1.34-.31v-3c0-.23.1-.34.3-.34h.53c.21,0,.31.11.31.34v3c0,.21.11.31.34.31h4.9c.23,0,.34.1.34.3v.46c0,.2-.11.3-.34.3h-4.9c-.23,0-.34.1-.34.3V43.27a3.89,3.89,0,0,0,1.12,3,4.27,4.27,0,0,0,3.06,1.06h1.44c.23,0,.34.1.34.31v.45c0,.21-.11.31-.34.31h-1.44A5.45,5.45,0,0,1,206.38,47a4.76,4.76,0,0,1-1.48-3.69v-13C204.9,30.15,204.78,30.05,204.56,30.05Z"/><path class="cls-1" d="M223,48.37h-6.46c-.23,0-.34-.1-.34-.31v-.45c0-.21.11-.31.34-.31H223q3.84,0,3.84-3V43.12a4.64,4.64,0,0,0-.5-2.28,3.16,3.16,0,0,0-1.78-1.33l-5-1.75a5.7,5.7,0,0,1-2.75-1.69,4.52,4.52,0,0,1-.78-2.83Q216,29,220.59,29h6.12c.23,0,.34.1.34.3v.46c0,.2-.11.3-.34.3h-6.12a3.71,3.71,0,0,0-2.6.8,2.44,2.44,0,0,0-.86,1.82v1a2.62,2.62,0,0,0,.63,1.88,4.8,4.8,0,0,0,2,1.12l5,1.79a3.83,3.83,0,0,1,2.62,1.86,8.73,8.73,0,0,1,.61,3.61,4.22,4.22,0,0,1-1.22,3.36A5.65,5.65,0,0,1,223,48.37Z"/><path class="cls-1" d="M229.67,53.42h-.76c-.22,0-.34-.1-.34-.3v-.46c0-.2.12-.3.34-.3h.76a3.78,3.78,0,0,0,2.93-1.11,4.29,4.29,0,0,0,1-3V29.33c0-.23.1-.34.3-.34h.53c.2,0,.31.11.31.34V48.25A5.13,5.13,0,0,1,233.38,52,5,5,0,0,1,229.67,53.42Zm4-27.59V22.07c0-.23.1-.34.3-.34h.53c.2,0,.31.11.31.34v3.76c0,.23-.11.34-.31.34h-.53C233.73,26.17,233.63,26.06,233.63,25.83Z"/><path class="cls-1" d="M249.17,48.37h-3.23A5,5,0,0,1,242.23,47a5.14,5.14,0,0,1-1.38-3.76V34.15a5.14,5.14,0,0,1,1.38-3.76,5,5,0,0,1,3.71-1.4h3.23a5,5,0,0,1,3.7,1.4,5.1,5.1,0,0,1,1.39,3.76V43.2A5.1,5.1,0,0,1,252.87,47,5,5,0,0,1,249.17,48.37Zm-3.23-1.07h3.23a3.77,3.77,0,0,0,2.92-1.1,4.26,4.26,0,0,0,1-3v-9a4.27,4.27,0,0,0-1-3,3.81,3.81,0,0,0-2.92-1.1h-3.23a3.83,3.83,0,0,0-2.93,1.1,4.32,4.32,0,0,0-1,3v9a4.3,4.3,0,0,0,1,3A3.79,3.79,0,0,0,245.94,47.3Z"/><path class="cls-1" d="M260.15,48V22c0-.22.1-.34.3-.34H261c.2,0,.3.12.3.34v8.59h.15c.71-1.31,2.05-2,4-2h2.81A5,5,0,0,1,272,30a5.14,5.14,0,0,1,1.38,3.76V43.2A5.14,5.14,0,0,1,272,47a5,5,0,0,1-3.71,1.41h-7.83C260.25,48.37,260.15,48.25,260.15,48Zm1.48-.72h6.65a3.79,3.79,0,0,0,2.93-1.1,4.3,4.3,0,0,0,1-3V33.81a4.32,4.32,0,0,0-1-3,3.83,3.83,0,0,0-2.93-1.1h-2.73a4.48,4.48,0,0,0-3.08,1,3.65,3.65,0,0,0-1.18,2.92V47C261.29,47.2,261.4,47.3,261.63,47.3Z"/><path class="cls-1" d="M286.22,36.74h-8.14c-.22,0-.34-.1-.34-.31V36c0-.2.12-.31.34-.31h8.14c.22,0,.34.11.34.31v.45C286.56,36.64,286.44,36.74,286.22,36.74Z"/><path class="cls-1" d="M291.31,48V22c0-.22.1-.34.3-.34h.54c.2,0,.3.12.3.34v8.59h.15c.71-1.31,2-2,4-2h2.81a5,5,0,0,1,3.71,1.4,5.14,5.14,0,0,1,1.38,3.76V43.2A5.14,5.14,0,0,1,303.15,47a5,5,0,0,1-3.71,1.41h-7.83C291.41,48.37,291.31,48.25,291.31,48Zm1.48-.72h6.65a3.79,3.79,0,0,0,2.93-1.1,4.3,4.3,0,0,0,1-3V33.81a4.32,4.32,0,0,0-1-3,3.83,3.83,0,0,0-2.93-1.1h-2.73a4.48,4.48,0,0,0-3.08,1,3.65,3.65,0,0,0-1.18,2.92V47C292.45,47.2,292.56,47.3,292.79,47.3Z"/><path class="cls-1" d="M318.36,48.37h-3.23a5,5,0,0,1-3.7-1.41A5.1,5.1,0,0,1,310,43.2V34.15a5.1,5.1,0,0,1,1.39-3.76,5,5,0,0,1,3.7-1.4h3.23a5,5,0,0,1,3.71,1.4,5.14,5.14,0,0,1,1.39,3.76V43.2A5.14,5.14,0,0,1,322.07,47,5,5,0,0,1,318.36,48.37Zm-3.23-1.07h3.23a3.78,3.78,0,0,0,2.93-1.1,4.3,4.3,0,0,0,1-3v-9a4.32,4.32,0,0,0-1-3,3.82,3.82,0,0,0-2.93-1.1h-3.23a3.81,3.81,0,0,0-2.92,1.1,4.27,4.27,0,0,0-1,3v9a4.26,4.26,0,0,0,1,3A3.77,3.77,0,0,0,315.13,47.3ZM313.2,26.21V22c0-.22.1-.34.3-.34H314c.2,0,.31.12.31.34v4.22c0,.23-.11.34-.31.34h-.53C313.3,26.55,313.2,26.44,313.2,26.21Zm5.92,0V22c0-.22.11-.34.31-.34H320c.2,0,.3.12.3.34v4.22c0,.23-.1.34-.3.34h-.53C319.23,26.55,319.12,26.44,319.12,26.21Z"/><path class="cls-1" d="M330.18,48.37h-.53c-.2,0-.3-.12-.3-.35V29.33c0-.23.1-.34.3-.34h.53c.2,0,.31.11.31.34V31h.15a4,4,0,0,1,1.46-1.41,5.12,5.12,0,0,1,2.72-.64h1.52c.23,0,.34.1.34.3v.46c0,.2-.11.3-.34.3h-1.56a4.16,4.16,0,0,0-3.12,1.22,4.56,4.56,0,0,0-1.17,3.3V48C330.49,48.25,330.38,48.37,330.18,48.37Z"/><path class="cls-1" d="M347.05,48.37h-6.46c-.22,0-.34-.1-.34-.31v-.45c0-.21.12-.31.34-.31h6.46q3.84,0,3.84-3V43.12a4.64,4.64,0,0,0-.49-2.28,3.19,3.19,0,0,0-1.79-1.33l-5-1.75a5.78,5.78,0,0,1-2.76-1.69,4.52,4.52,0,0,1-.78-2.83q0-4.25,4.64-4.25h6.12c.22,0,.34.1.34.3v.46c0,.2-.12.3-.34.3H344.7a3.72,3.72,0,0,0-2.61.8,2.46,2.46,0,0,0-.85,1.82v1a2.62,2.62,0,0,0,.63,1.88,4.75,4.75,0,0,0,1.95,1.12l5,1.79a3.81,3.81,0,0,1,2.62,1.86A8.57,8.57,0,0,1,352,44a4.21,4.21,0,0,1-1.21,3.36A5.68,5.68,0,0,1,347.05,48.37Z"/><path class="cls-1" d="M370,48.37h-7.79a5,5,0,0,1-3.7-1.41,5.1,5.1,0,0,1-1.39-3.76V34.15a5.1,5.1,0,0,1,1.39-3.76,5,5,0,0,1,3.7-1.4h3.35a5,5,0,0,1,3.7,1.4,5.1,5.1,0,0,1,1.39,3.76V39c0,.25-.11.38-.34.38H358.64c-.22,0-.34.1-.34.3v3.5a4.26,4.26,0,0,0,1,3,3.77,3.77,0,0,0,2.92,1.1H370c.23,0,.34.1.34.31v.45C370.38,48.27,370.27,48.37,370,48.37ZM358.64,38.3h10.57c.23,0,.34-.1.34-.31v-3.8a4.27,4.27,0,0,0-1-3,3.81,3.81,0,0,0-2.92-1.1h-3.35a3.81,3.81,0,0,0-2.92,1.1,4.27,4.27,0,0,0-1,3V38C358.3,38.2,358.42,38.3,358.64,38.3Z"/><circle class="cls-2" cx="34.14" cy="34.14" r="34.14"/><polygon class="cls-3" points="49.29 56.47 14.28 56.47 14.28 35.62 3.36 35.62 34.84 4.13 60.32 29.62 60.32 36.51 59.17 36.51 34.82 12.16 16.86 30.11 19.78 30.11 19.78 50.44 44.35 50.44 49.29 56.47"/><path class="cls-4" d="M41.05,47.25l-2.4,1.41s-2.86,1.91-5.23-2c0,0-6.1-13.06-9.21-15.36,0,0-1.87-2.5,1.2-4.62,0,0,5.58-4.13,8.23-4.55,0,0,2-.95,3.74,1.48L49.09,36.06l-4.55,8.55Z"/><path class="cls-5" d="M54.41,49.66s2.68-6.63,2.82-8.61-3.53-1.69-3.53-1.69-6.35-10.31-7.2-11-6.92-4.52-6.92-4.52S37,24,38.74,25.66a51.65,51.65,0,0,0,4.51,3.82l-5.92-4.24s-3-.42-1.56,2.12l5.68,4.23-6.06-3.53s-1.88.24-1,2.73l7.09,5.32s1.8,4.1.68,3.53c0,0-2.55-1.13-4-.56,0,0-2.82.56-1.41,2.54,0,0,6.07,4.23,5.37,5.08C42.13,46.7,45.37,48.68,54.41,49.66Z"/><circle class="cls-3" cx="28.44" cy="30.19" r="1.61"/><circle class="cls-3" cx="30.93" cy="26.57" r="1.02"/><circle class="cls-3" cx="33.09" cy="37.54" r="1.89"/><circle class="cls-3" cx="35.98" cy="44.58" r="0.99"/><circle class="cls-3" cx="36.56" cy="36.03" r="0.51"/><circle class="cls-3" cx="31.57" cy="33.14" r="1.52"/></g></g></svg>