<?xml version="1.0" encoding="utf-8"?>
<!-- Generator: Adobe Illustrator 24.2.0, SVG Export Plug-In . SVG Version: 6.00 Build 0)  -->
<svg version="1.1" id="Ebene_1" xmlns="http://www.w3.org/2000/svg" xmlns:xlink="http://www.w3.org/1999/xlink" x="0px" y="0px"
	 viewBox="0 0 250 250" style="enable-background:new 0 0 250 250;" xml:space="preserve">
<style type="text/css">
	.st0{clip-path:url(#SVGID_2_);}
	.st1{fill:#CC824C;}
	.st2{fill:#AA6D3D;}
	.st3{fill:#FFE099;}
	.st4{fill:#FFCC77;}
	.st5{fill:#5B260C;}
	.st6{fill:#FFFFFF;}
	.st7{fill:#996035;}
	.st8{fill:#491900;}
	.st9{fill:#DBB266;}
	.st10{fill:#A8894F;}
	.st11{fill:#231E21;}
	.st12{clip-path:url(#SVGID_4_);}
	.st13{fill:#C1495B;}
	.st14{fill:#545454;}
	.st15{fill:#F2F2F2;}
	.st16{fill:#89723F;}
	.st17{clip-path:url(#SVGID_6_);}
	.st18{fill:#F2C9B5;}
	.st19{fill:#2B2D28;}
	.st20{fill:#21211E;}
	.st21{fill:#23B2A5;}
	.st22{fill:none;stroke:#F4E8C1;stroke-width:3.704;}
	.st23{fill:#38332D;}
	.st24{fill:#383D3F;}
	.st25{fill:#596068;}
	.st26{fill:#42494F;}
	.st27{fill:#D8DBDB;}
	.st28{fill:#7A331C;}
	.st29{fill:#6D2611;}
	.st30{fill:#BA563A;}
	.st31{fill:#CC724C;}
	.st32{clip-path:url(#SVGID_8_);}
	.st33{fill:#FCE256;}
	.st34{fill:#F9D81C;}
	.st35{fill:#CE993D;}
	.st36{fill:#F9EA99;}
	.st37{clip-path:url(#SVGID_10_);}
	.st38{fill:#23262D;}
	.st39{clip-path:url(#SVGID_12_);}
</style>
<g id="image_pet">
	<g>
		<defs>
			<rect id="SVGID_1_" x="33.8" y="21.6" width="183.5" height="206"/>
		</defs>
		<clipPath id="SVGID_2_">
			<use xlink:href="#SVGID_1_"  style="overflow:visible;"/>
		</clipPath>
		<g id="Gruppe_1230" class="st0">
			<g id="Gruppe_1211" transform="translate(0 133.5)">
				<path id="Pfad_2188" class="st1" d="M44.5,21.6c0,0-10.2,4.7-10.1,46.4c0,0-2.5,23.9,3.2,24.8s49,2.4,50-0.3s0.2-40.5-1.8-50.2
					c-1.8-8.8-5.7-18.7-9.5-19.4"/>
			</g>
			<g id="Gruppe_1212" transform="translate(11.889 103.634)">
				<path id="Pfad_2189" class="st1" d="M48.6,44.3V21.6c-9.3,0-13.3,2.6-14.4,10s0.6,17.3,0.6,17.3L48.6,44.3z"/>
			</g>
			<g id="Gruppe_1213" transform="translate(4.188 101.841)">
				<path id="Pfad_2190" class="st2" d="M49.5,24.8c0,0,1.8-3.1-3.5-3.2S35.9,26,34.2,28.9s2,11.2,3.6,12.5s3.6-5.8,5.4-8.1
					S49.3,26.3,49.5,24.8"/>
			</g>
			<g id="Gruppe_1214" transform="translate(10.201 121.688)">
				<path id="Pfad_2191" class="st3" d="M50.5,21.6v29.7c-1.2-0.9-2-2.2-2.5-3.7c-0.2,1-0.9,1.9-1.8,2.5c0,0-2.2-2.6-2.4-5
					c-0.3,0.9-0.9,1.7-1.6,2.3c0,0-4-2.2-3.7-6.1c-0.4,0.9-1,1.6-1.9,2c0,0-2.5-2.2-2.8-8.3S37.5,21.6,50.5,21.6"/>
			</g>
			<g id="Gruppe_1215" transform="translate(10.202 132.507)">
				<path id="Pfad_2192" class="st4" d="M47.9,32.6c-0.2,1-0.9,1.9-1.8,2.5c0,0-2.2-2.6-2.4-5c-0.3,0.9-0.8,1.7-1.6,2.3
					c0,0-4-2.2-3.7-6.1c-0.4,0.9-1,1.6-1.9,2c0,0-2-1.8-2.6-6.6c-0.1,0.8-0.2,1.7-0.1,2.6c0.3,6.1,2.7,8.3,2.7,8.3
					c0.8-0.4,1.5-1.2,1.9-2c-0.3,3.9,3.7,6.1,3.7,6.1c0.8-0.6,1.3-1.4,1.6-2.3c0.2,2.4,2.4,5,2.4,5c0.9-0.5,1.5-1.4,1.8-2.5
					c0.4,1.4,1.3,2.7,2.4,3.7v-4.3C49.1,35.3,48.3,34,47.9,32.6"/>
			</g>
			<g id="Gruppe_1216" transform="translate(19.24 114.215)">
				<path id="Pfad_2193" class="st5" d="M37.2,23.3c0,0.9-0.8,1.7-1.7,1.7s-1.7-0.8-1.7-1.7c0-0.9,0.8-1.7,1.7-1.7
					S37.2,22.4,37.2,23.3"/>
			</g>
			<g id="Gruppe_1217" transform="translate(19.89 114.917)">
				<path id="Pfad_2194" class="st6" d="M34.7,22c0,0.2-0.2,0.4-0.4,0.4c-0.2,0-0.4-0.2-0.4-0.4l0,0c0-0.2,0.2-0.4,0.4-0.5
					c0,0,0,0,0,0C34.5,21.6,34.7,21.8,34.7,22C34.7,22,34.7,22,34.7,22"/>
			</g>
			<g id="Gruppe_1218" transform="translate(21.804 122.955)">
				<path id="Pfad_2195" class="st5" d="M38.7,21.6v5.6c-2.4,0.2-4.5-1.5-4.8-3.9C33.6,22.1,35.9,21.6,38.7,21.6"/>
			</g>
			<g id="Gruppe_1219" transform="translate(12.899 110.662)">
				<path id="Pfad_2196" class="st3" d="M45.5,25.1c2.2,0.6-2.4-4-5.7-3.5s-6.4,3.5-6,4.2C34.3,26.6,39.7,23.7,45.5,25.1"/>
			</g>
			<g id="Gruppe_1220" transform="translate(33.161 101.841)">
				<path id="Pfad_2197" class="st7" d="M34.1,24.8c0,0-1.8-3.1,3.5-3.2c5.3-0.2,10.2,4.4,11.8,7.3s-2,11.2-3.6,12.5
					s-3.6-5.8-5.4-8.1S34.4,26.3,34.1,24.8"/>
			</g>
			<g id="Gruppe_1221" transform="translate(26.677 103.634)">
				<path id="Pfad_2198" class="st1" d="M33.8,44.3V21.6c9.3,0,13.3,2.6,14.4,10c1.1,7.3-0.6,17.3-0.6,17.3L33.8,44.3z"/>
			</g>
			<g id="Gruppe_1222" transform="translate(26.677 121.688)">
				<path id="Pfad_2199" class="st3" d="M33.8,21.6v29.7c1.2-0.9,2-2.2,2.4-3.7c0.2,1,0.9,1.9,1.8,2.5c0,0,2.2-2.6,2.4-5
					c0.3,0.9,0.8,1.7,1.6,2.3c0,0,4-2.2,3.7-6.1c0.4,0.9,1,1.6,1.9,2c0,0,2.5-2.2,2.7-8.3C50.5,28.8,46.7,21.6,33.8,21.6"/>
			</g>
			<g id="Gruppe_1223" transform="translate(26.677 132.507)">
				<path id="Pfad_2200" class="st4" d="M36.3,32.6c0.2,1,0.9,1.9,1.8,2.5c0,0,2.2-2.6,2.4-5c0.3,0.9,0.8,1.7,1.6,2.3
					c0,0,4-2.2,3.7-6.1c0.4,0.9,1,1.6,1.9,2c0,0,2-1.8,2.6-6.6c0.1,0.8,0.2,1.7,0.1,2.6c-0.3,6.1-2.7,8.3-2.7,8.3
					c-0.8-0.4-1.5-1.2-1.9-2c0.3,3.9-3.7,6.1-3.7,6.1c-0.8-0.6-1.3-1.4-1.6-2.3c-0.2,2.4-2.4,5-2.4,5c-0.9-0.5-1.5-1.4-1.8-2.5
					c-0.4,1.4-1.3,2.7-2.4,3.7v-4.3C35,35.3,35.8,34,36.3,32.6"/>
			</g>
			<g id="Gruppe_1224" transform="translate(30.707 114.215)">
				<path id="Pfad_2201" class="st8" d="M37.2,23.3c0,0.9-0.8,1.7-1.7,1.7s-1.7-0.8-1.7-1.7c0-0.9,0.8-1.7,1.7-1.7
					S37.2,22.4,37.2,23.3"/>
			</g>
			<g id="Gruppe_1225" transform="translate(31.357 114.917)">
				<path id="Pfad_2202" class="st6" d="M34.7,22c0,0.2-0.2,0.4-0.4,0.4c-0.2,0-0.4-0.2-0.4-0.4l0,0c0-0.2,0.2-0.4,0.4-0.5
					c0,0,0,0,0,0C34.5,21.6,34.7,21.8,34.7,22C34.7,22,34.7,22,34.7,22"/>
			</g>
			<g id="Gruppe_1226" transform="translate(26.551 122.955)">
				<path id="Pfad_2203" class="st5" d="M33.8,21.6v5.6c3.9,0,4.7-2.6,5-3.9C39.1,22.1,36.7,21.6,33.8,21.6"/>
			</g>
			<g id="Gruppe_1227" transform="translate(28.156 110.662)">
				<path id="Pfad_2204" class="st4" d="M34.4,25.1c-2.2,0.6,2.4-4,5.7-3.5c3.3,0.5,6.4,3.5,6,4.2C45.7,26.6,40.2,23.7,34.4,25.1"/>
			</g>
			<g id="Gruppe_1228" transform="translate(65.626 131.988)">
				<path id="Pfad_2205" class="st9" d="M44.5,21.6c0,0-10.2,4.7-10.1,46.4c0,0-2.5,23.9,3.2,24.8s49,2.4,50-0.3s0.2-40.4-1.8-50.2
					c-1.8-8.8-5.7-18.7-9.5-19.4"/>
			</g>
			<g id="Gruppe_1229" transform="translate(64.468 101.768)">
				<path id="Pfad_2206" class="st10" d="M54.3,21.6c0,0-12.7,8.1-17.9,17.6s-1.5,15.1,2.4,20.7s9,5.7,11.8,3.4s3.2-7.3,3.5-10.1
					C54.3,50.4,54.3,21.6,54.3,21.6"/>
			</g>
		</g>
	</g>
	<g id="Gruppe_1231" transform="translate(90.159 136.587)">
		<path id="Pfad_2208" class="st11" d="M35.1,21.6l1.3,0.7l1.5,9.3L36,33l-1.4-0.6l-0.8-4.9L35.1,21.6z"/>
	</g>
	<g>
		<defs>
			<rect id="SVGID_3_" x="33.8" y="21.6" width="183.5" height="206"/>
		</defs>
		<clipPath id="SVGID_4_">
			<use xlink:href="#SVGID_3_"  style="overflow:visible;"/>
		</clipPath>
		<g id="Gruppe_1241" class="st12">
			<g id="Gruppe_1232" transform="translate(88.839 136.587)">
				<path id="Pfad_2209" class="st13" d="M33.8,30.9c0-0.6,0.1-1.1,0.1-1.7c0.5-0.4,1-0.9,1.5-1.3c0.3-0.2,0.3-0.6,0.1-0.8
					c0,0-0.1-0.1-0.1-0.1c-0.3-0.4-0.7-0.8-1-1.1l-0.1,0c0.1,0.2,0.1,0.3,0.2,0.5c0.2,0.2,0.4,0.5,0.6,0.7c0.4,0.4,0.4,0.5,0,0.8
					c-0.1,0.1-0.2,0.1-0.3,0.2c-0.2,0-0.5,0-0.7-0.1c0.1-0.6,0.1-1.1,0.2-1.7c0-0.1,0-0.2,0-0.3c0.1-0.1,0.1-0.3,0.1-0.4
					c0-0.3,0-0.6,0-1c0-0.1,0-0.1-0.1-0.2c0-0.1,0-0.3,0.2-0.3c0.6-0.6,1.1-1.2,1.6-1.8c0.1-0.2,0.3-0.4,0.4-0.6
					c0.1,0.1,0.1,0.2,0.1,0.3c0.1,0.8,0.2,1.6,0.3,2.5c0.1,0.8,0.1,1.5,0.1,2.3c0,1.7,0,3.4,0,5.1c0,0.1,0,0.2,0,0.3l0.1,0
					c0.1-0.3,0.2-0.7,0.2-1c0.4-2.1,0.6-4.3,0.4-6.4c0-0.8-0.1-1.6-0.2-2.5c0.1,0.2,0.2,0.4,0.3,0.6c0.3,0.6,0.7,1.3,1.1,1.8
					c0.4,0.5,0.8,0.9,1.3,1.3c0,0,0.1,0.1,0.1,0.2c0.2,0.6,0.4,1.2,0.5,1.7c0.3,0.9,0.4,1.8,0.4,2.7c0,1-0.5,2-1.4,2.6
					c-0.5,0.3-1.1,0.6-1.7,0.7c-0.5,0.1-1,0.1-1.6,0.1c-0.7-0.1-1.4-0.4-2-0.9C34.1,32.4,33.8,31.6,33.8,30.9"/>
			</g>
			<g id="Gruppe_1233" transform="translate(88.142 140.678)">
				<path id="Pfad_2210" class="st14" d="M33.8,21.6C33.8,21.6,33.8,21.6,33.8,21.6C33.8,21.6,33.8,21.6,33.8,21.6
					C33.9,21.6,33.8,21.6,33.8,21.6"/>
			</g>
			<g id="Gruppe_1234" transform="translate(88.381 137.757)">
				<path id="Pfad_2211" class="st13" d="M36.1,21.6c-1.2,0.8-1.9,2.1-2,3.6c-0.7,1.9,0.3,5.4,0.3,5.4c0.7-0.5,1.4-1,2.1-1.6
					c0.2-1.3,0.3-2.6,0.3-3.9c0-0.1-0.5-1.9-0.5-2.2C36.1,22.7,36.1,21.6,36.1,21.6"/>
			</g>
			<g id="Gruppe_1235" transform="translate(76.496 100.908)">
				<path id="Pfad_2212" class="st9" d="M46.1,60.5c0,0,0,0,0.1,0h0l0,0c0,0,0.1-0.1,0.2-0.2c0-0.1,0.1-0.2,0.2-0.3
					c0.5-0.9,1.7-1.2,2.6-0.7c0.1,0.1,0.2,0.1,0.3,0.2v-38c-12.7,0-16.8,5.8-15.4,16.2c1.2,8.5,3.6,20.1,10.3,24.1
					C44.6,61.1,45.3,60.6,46.1,60.5"/>
			</g>
			<g id="Gruppe_1236" transform="translate(82.626 113.999)">
				<path id="Pfad_2213" class="st15" d="M43.4,21.6V47c-2.9,0-2,2.7-6.5,2.6c-4.5-0.1-3.7-10.2,0.6-15S42,21.6,43.4,21.6"/>
			</g>
			<g id="Gruppe_1237" transform="translate(82.51 113.235)">
				<path id="Pfad_2214" class="st5" d="M38.6,24c0,1.3-1.1,2.4-2.4,2.4c0,0,0,0,0,0c-1.3,0-2.4-1.1-2.4-2.4l0,0
					c0-1.3,1.1-2.4,2.4-2.4l0,0C37.5,21.6,38.6,22.7,38.6,24C38.6,24,38.6,24,38.6,24"/>
			</g>
			<g id="Gruppe_1238" transform="translate(83.42 114.22)">
				<path id="Pfad_2215" class="st6" d="M35.1,22.2c0,0.3-0.3,0.6-0.6,0.6c0,0,0,0,0,0c-0.3,0-0.6-0.3-0.6-0.6
					c0-0.3,0.3-0.6,0.6-0.6S35.1,21.9,35.1,22.2L35.1,22.2"/>
			</g>
			<g id="Gruppe_1239" transform="translate(99.458 101.768)">
				<path id="Pfad_2216" class="st16" d="M33.8,21.6c0,0,12.7,8.1,17.9,17.6s1.5,15.1-2.4,20.7s-9,5.7-11.8,3.4
					c-2.8-2.3-3.2-7.3-3.5-10.1C33.8,50.4,33.8,21.6,33.8,21.6"/>
			</g>
			<g id="Gruppe_1240" transform="translate(92.184 100.907)">
				<path id="Pfad_2217" class="st9" d="M33.8,21.6V58c0.3,0.1,0.6,0.4,0.7,0.7c0.1,0.3,0.3,0.6,0.5,0.9c0.3-0.1,0.7-0.1,1,0
					c1.2,0.4,2.4,0.5,3.5,0.9c0.3,0.1,0.5,0.2,0.7,0.4c5.7-4.6,7.8-15.2,8.9-23.1C50.7,27.4,46.6,21.6,33.8,21.6"/>
			</g>
		</g>
	</g>
	<g id="Gruppe_1242" transform="translate(86.67 113.999)">
		<path id="Pfad_2219" class="st15" d="M37.6,46.6l1.6,0.4l1.3,0l3.5-5.1l-2-9.1L39.7,22l-0.4-0.4L39,22.5l-5.1,16.9L37.6,46.6z"/>
	</g>
	<g>
		<defs>
			<rect id="SVGID_5_" x="33.8" y="21.6" width="183.5" height="206"/>
		</defs>
		<clipPath id="SVGID_6_">
			<use xlink:href="#SVGID_5_"  style="overflow:visible;"/>
		</clipPath>
		<g id="Gruppe_1304" class="st17">
			<g id="Gruppe_1243" transform="translate(92.184 113.999)">
				<path id="Pfad_2220" class="st15" d="M33.8,21.6V47c2.9,0,2,2.7,6.5,2.6c4.5-0.1,3.7-10.2-0.6-15S35.2,21.6,33.8,21.6"/>
			</g>
			<g id="Gruppe_1244" transform="translate(97.08 113.235)">
				<path id="Pfad_2221" class="st8" d="M38.6,24c0,1.3-1.1,2.4-2.4,2.4c0,0,0,0,0,0c-1.3,0-2.4-1.1-2.4-2.4l0,0
					c0-1.3,1.1-2.4,2.4-2.4l0,0C37.5,21.6,38.6,22.7,38.6,24C38.6,24,38.6,24,38.6,24"/>
			</g>
			<g id="Gruppe_1245" transform="translate(97.991 114.22)">
				<path id="Pfad_2222" class="st6" d="M35.1,22.2c0,0.3-0.3,0.6-0.6,0.6c0,0,0,0,0,0c-0.3,0-0.6-0.3-0.6-0.6
					c0-0.3,0.3-0.6,0.6-0.6S35.1,21.9,35.1,22.2L35.1,22.2"/>
			</g>
			<g id="Gruppe_1246" transform="translate(86.716 131.125)">
				<path id="Pfad_2223" class="st5" d="M39.3,21.6v6.3c-4.3,0-5.1-3-5.4-4.4C33.5,22.1,36.1,21.6,39.3,21.6"/>
			</g>
			<g id="Gruppe_1247" transform="translate(92.158 131.125)">
				<path id="Pfad_2224" class="st5" d="M33.8,21.6v6.3c4.3,0,5.1-3,5.5-4.4C39.6,22.1,37,21.6,33.8,21.6"/>
			</g>
			<g id="Gruppe_1248" transform="translate(88.354 131.13)">
				<path id="Pfad_2225" class="st5" d="M34.4,21.8c2.3-0.3,4.7-0.3,7.1,0.2c0.3,1.5-0.8,3.8-0.8,3.8l-0.8,1.8
					c-1.7,0.5-3.4,0.4-5-0.3c-1-2-0.9-2.7-0.9-2.7L34.4,21.8z"/>
			</g>
			<g id="Gruppe_1249" transform="translate(100.458 64.514)">
				<path id="Pfad_2226" class="st18" d="M64,21.6c-0.1,0.1-0.2,0.2-0.4,0.3c-1,0.6-2,1.3-3,1.9c-1.2,1.4-2.1,2.9-2.8,4.6
					c0.6,7.2,0.8,16.7-2,19c-4.6,3.7-20,13.1-21.4,12.4s0,4.1,0,4.1l0.8-0.2c0,0,28.5-7.1,30.9-16.3C67.7,41.1,65.6,28.7,64,21.6"/>
			</g>
			<g id="Gruppe_1250" transform="translate(143.192 48.582)">
				<path id="Pfad_2227" class="st18" d="M48.9,21.6v10.7c0,0-5.3,8.6-6.2,8.6s-8.9-3.6-8.9-3.6l0.6-10.7L48.9,21.6z"/>
			</g>
			<g id="Gruppe_1251" transform="translate(141.195 24.082)">
				<path id="Pfad_2228" class="st19" d="M61.8,31.7c0,0-2.3,10.7-7.7,13s0,3.8,0,3.8s-8.3,4-11.5,0s-8.8-26.9-8.8-26.9h8.8
					L61.8,31.7z"/>
			</g>
			<g id="Gruppe_1252" transform="translate(125.376 21.954)">
				<path id="Pfad_2229" class="st18" d="M40.4,21.6c0,0-6.4,8.8-6.6,14l3.3,2.4c0,0-4.3,13.1,13.5,13.1c0,0,1.4,7.3,0.2,10.6
					l14.7-6.5c0,0-6.9-5.7-6.1-13.3c0,0,6.1,0.2,6.1-6.7s-8.6-4.2-8.6-0.6l-2.3,1.6L51,21.6H40.4z"/>
			</g>
			<g id="Gruppe_1253" transform="translate(129.006 0)">
				<path id="Pfad_2230" class="st19" d="M37.9,21.7c-1.9,2.3-3.2,5.1-3.7,8.1c-0.4,1.8-0.5,5.1,0.2,6.3c2.7,4.9,5.6,8.5,11,10.3
					s11.2,2.1,16.7,3.3c0.7,0.1,1.4,0.4,2,0.8c0.2,0.2,0.4,0.5,0.6,0.8c1.4,2.1,2.3,8.6,3.7,10.7c1.2,0.1,2.3,0.3,3.4,0.4
					c1.6-1.7,2.7-3.9,3.1-6.2c0.2-0.6,0.1-1.3-0.1-1.9c-0.4-0.9-1.9-1.9-2.2-2.8c-0.4-1.2,0.5-0.9,1.4-1.8
					c2.9-2.7,5.5-14.3-2.6-17.1c-1-3.5-4.9-5.7-8.7-6.2c-3.7-0.4-7.5-0.4-11.1,0.1c-3.8,0.4-8.1,1-11.3-1c-1.2-0.8-2.4-2.1-2.1-3.5
					C38.2,22,38.4,21.3,37.9,21.7"/>
			</g>
			<g id="Gruppe_1254" transform="translate(164.254 11.456)">
				<path id="Pfad_2231" class="st19" d="M33.8,50.7c0.9,0.1,1.8,0.2,2.7,0.3c1.6-1.7,2.7-3.9,3.1-6.2c0.2-0.6,0.1-1.3-0.1-1.9
					c-0.4-0.9-2-1.9-2.2-2.8c-0.4-1.2,0.5-0.9,1.4-1.8c2.8-2.6,5.3-13.7-2-16.9c2.2,1.6,3.5,4.2,3.5,6.9c-0.1,3-1.2,5.8-3.3,8
					c-0.5,0.4-0.8,0.9-1.1,1.5c-0.1,0.6-0.1,1.2,0,1.7C36.3,43.5,35.6,47.4,33.8,50.7"/>
			</g>
			<g id="Gruppe_1255" transform="translate(166.148 10.763)">
				<path id="Pfad_2232" class="st20" d="M33.8,21.6L33.8,21.6L33.8,21.6L33.8,21.6"/>
			</g>
			<g id="Gruppe_1256" transform="translate(128.337 16.126)">
				<path id="Pfad_2233" class="st21" d="M74.7,33.8c-13.1-3.2-26.1-7.3-38.6-12.2c-1.5,1.5-2.3,3.6-2.2,5.7
					c12.8,6.1,26.7,9.6,40.9,10.2C74.9,36.1,74.6,35.1,74.7,33.8"/>
			</g>
			<g id="Gruppe_1257" transform="translate(138.846 61.753)">
				<path id="Pfad_2234" class="st21" d="M49.5,29c0,0-1-6.7-1.6-6.4s-3.3,0.9-3.3,0.9h-3.8l-3-1.8l-2,1.8l-1.9,69.8l1.8,0.4
					L50,94.1l4-20.4l-1.5-34.8L49.5,29z"/>
			</g>
			<g id="Gruppe_1258" transform="translate(142.31 60.235)">
				<path id="Pfad_2235" class="st22" d="M45.6,23.5c0,0-8.9,4.6-11.8-1.9"/>
			</g>
			<g id="Gruppe_1259" transform="translate(153.697 172.184)">
				<path id="Pfad_2236" class="st23" d="M41.3,21.7c0,0-3.1,5.9-4.8,6.1c-1.7,0.1-3.2,3.9-2.5,5.2c0.6,1.3,0.5,2.1,3.6,3.6
					c0.8-0.1,9-12.6,8.4-13C45.4,23.2,41.8,21.1,41.3,21.7"/>
			</g>
			<g id="Gruppe_1260" transform="translate(129.248 131.672)">
				<path id="Pfad_2237" class="st24" d="M70.9,21.8c0,0,1.6,10.8-1.3,13.4c-2.9,2.6-3.4,3.9-4,7.2c-0.6,3.3-2.1,16-2,17.5
					s19,2.3,19.7,1.1s-0.6,6.6-0.6,6.6s-26.3,1.7-27.1-4.5s-1.6-21.9-0.3-28c-1.6-0.2-9.4-0.9-9.4-1.3c-1.5,6.7-2.2,13.6-2.1,20.5
					c0.1,3.4,1.6,5.2,8.2,6.6s10.2,1.7,10.2,1.7l2,5.2c0,0-29,1.6-29.6-8.6s-1-21.5-0.6-24.6s2.9-12.4,2.9-12.4l14.4-0.5L70.9,21.8z
					"/>
			</g>
			<g id="Gruppe_1261" transform="translate(149.431 54.834)">
				<path id="Pfad_2238" class="st25" d="M54.7,49.8c0,0-4.5,29.1-0.5,49.4c-2,0.7-3.1,1.2-4.2,1.6s-13,3.4-13.9,3.3
					s-4.2-20.4-1.1-54.6c0,0,0.9-20,1.9-22.1c1-2.1,5.7-5.7,5.7-5.7s2.3,4.2,3,4.4s15.9,5.8,15.9,9.8s-0.3,9.8,0.3,10.5
					c-2.3,0.2-6.4,1.2-7.1,0.5S54.7,49.8,54.7,49.8"/>
			</g>
			<g id="Gruppe_1262" transform="translate(121.822 56.139)">
				<path id="Pfad_2239" class="st25" d="M54.9,21.6c0,0-0.8,77.2,0.7,80.4c-8.4-3.2-12.7-4.2-12.7-6.3s-1.4-48.2-1.4-48.2l0.6-5
					l-0.8,0.2l-7.3,1c0,0-3-11.8,13.8-16.5c4.9-1.4,5.7-3.2,5.7-3.2L54.9,21.6z"/>
			</g>
			<g id="Gruppe_1263" transform="translate(126.059 66.972)">
				<path id="Pfad_2240" class="st26" d="M40.9,22.5c1.3,0,1.1,0.9,1.1,0.9c-0.3,0.8-1.6,0.6-1.6,0.6l-4,3.9c0,0,0.3,2.1-1.2,1.9
					c-0.3-0.2-0.5-0.5-0.5-0.9c-0.4,0-0.8-0.3-0.8-0.7c-0.1-0.4,0.1-0.8,0.5-0.9c0,0,0.1,0,0.1,0c0.4,0,0.8-0.1,1.1-0.4l3.5-3.6
					c0.2-0.3,0.2-0.6,0.2-0.9c0-0.3,0.2-0.7,0.5-0.7C39.9,21.6,40.9,21.4,40.9,22.5"/>
			</g>
			<g id="Gruppe_1264" transform="translate(132.816 86.64)">
				<path id="Pfad_2241" class="st26" d="M38.4,22.2c1.2-0.4,1.4,0.4,1.4,0.4c0,0.9-1.3,1.1-1.3,1.1l-2.3,5c0,0,1.1,1.9-0.5,2.2
					c-0.3-0.1-0.6-0.3-0.8-0.7c-0.4,0.2-0.8,0-1-0.4c-0.2-0.3-0.2-0.8,0.1-1c0,0,0.1-0.1,0.1-0.1c0.4-0.1,0.7-0.4,0.9-0.7l2-4.6
					c0.1-0.3,0-0.6-0.2-0.9c-0.2-0.3-0.1-0.7,0.2-0.8c0.4-0.3,0.9-0.2,1.1,0.2C38.4,22,38.4,22.1,38.4,22.2"/>
			</g>
			<g id="Gruppe_1265" transform="translate(161.661 86.64)">
				<path id="Pfad_2242" class="st26" d="M38.4,22.2c1.2-0.4,1.4,0.4,1.4,0.4c0,0.9-1.3,1.1-1.3,1.1l-2.3,5c0,0,1.1,1.9-0.5,2.2
					c-0.3-0.1-0.6-0.3-0.8-0.7c-0.4,0.2-0.8,0-1-0.4c-0.2-0.3-0.2-0.8,0.1-1c0,0,0.1-0.1,0.1-0.1c0.4-0.1,0.7-0.4,0.9-0.7l2-4.6
					c0.1-0.3,0-0.6-0.2-0.9c-0.2-0.3-0.1-0.7,0.2-0.8c0.4-0.3,0.9-0.2,1.1,0.2C38.4,22,38.4,22.1,38.4,22.2"/>
			</g>
			<g id="Gruppe_1266" transform="translate(152.564 85.875)">
				<path id="Pfad_2243" class="st26" d="M35.4,22.3c0.7-1.2,1.5-0.6,1.5-0.6c0.7,0.8-0.3,1.8-0.3,1.8l1.6,6c0,0,2.3,0.9,1.2,2.3
					c-0.4,0.2-0.8,0.1-1.1-0.1c-0.2,0.4-0.8,0.6-1.2,0.4c-0.5-0.1-0.7-0.6-0.6-1c0-0.1,0-0.1,0.1-0.1c0.2-0.4,0.3-0.8,0.3-1.3
					l-1.6-5.4c-0.2-0.3-0.4-0.6-0.8-0.7c-0.4-0.1-0.5-0.5-0.4-0.9c0.1-0.5,0.6-0.8,1.1-0.6C35.1,22.2,35.3,22.2,35.4,22.3"/>
			</g>
			<g id="Gruppe_1267" transform="translate(89.054 96.836)">
				<path id="Pfad_2244" class="st18" d="M60.1,26.1c-5.8,2.6-10,5-10,5s-6.8,5.8-7.6,5.2c-0.8-0.6-0.3-1,0.5-2
					c0.8-0.9-5.7,3.2-6.8,2.9c-1.1-0.3-0.9-1.2-0.3-1.4s5.3-2.6,5.3-2.6s0.5-0.3-0.1-0.2c-0.6,0.2-6.4,3.1-6.8,2.5
					c-0.4-0.6-1-1,0.2-1.6c1.2-0.6,6.2-2.8,6.2-2.8s0.8-0.6-0.2-0.3s-4.6,2.2-5.1,2.1s-0.9-0.8-0.6-1c0.4-0.3,5.7-2.5,5.7-2.5
					s0.3-0.6-0.2-0.4s-3.7,1.7-3.8,1.5c-0.3-0.1-0.9-0.8,0.2-1.4c1.1-0.5,9.1-3.6,9.9-3.7c2.7-0.3,5.3-1,7.8-2
					c0.9-0.4,2.5-1.1,4.3-1.8C59.3,23.1,59.7,24.6,60.1,26.1"/>
			</g>
			<g id="Gruppe_1268" transform="translate(171.269 171)">
				<path id="Pfad_2245" class="st23" d="M41.3,21.7c0,0-3.1,5.9-4.8,6.1c-1.7,0.1-3.2,3.9-2.5,5.2c0.6,1.3,0.5,2.1,3.6,3.6
					c0.8-0.1,9-12.6,8.4-13C45.4,23.2,41.8,21.1,41.3,21.7"/>
			</g>
			<g id="Gruppe_1269" transform="translate(155.118 62.845)">
				<path id="Pfad_2246" class="st26" d="M39.7,22.4c1.4-0.4,1.5,0.6,1.5,0.6c0,1-1.5,1.1-1.5,1.1l-3.1,5.5c0,0,1,2.2-0.7,2.4
					c-0.4-0.1-0.7-0.4-0.8-0.8c-0.5,0.1-0.9-0.1-1.2-0.5c-0.3-0.4-0.1-0.9,0.3-1.2c0.1,0,0.1-0.1,0.2-0.1c0.4-0.1,0.8-0.4,1.1-0.8
					l2.6-5c0.1-0.3,0.1-0.7-0.1-1c-0.2-0.3,0-0.8,0.3-0.9c0.4-0.3,1-0.2,1.3,0.3C39.6,22.1,39.7,22.3,39.7,22.4"/>
			</g>
			<g id="Gruppe_1270" transform="translate(152.685 79.02)">
				<path id="Pfad_2247" class="st26" d="M34.3,23.4c-0.9-0.9-0.2-1.4-0.2-1.4c0.8-0.4,1.6,0.6,1.6,0.6l5.8-0.1c0,0,1.3-1.8,2.3-0.5
					c0.1,0.3,0,0.7-0.3,0.9c0.3,0.3,0.4,0.8,0.1,1.1c-0.2,0.4-0.7,0.5-1.1,0.3c0,0-0.1,0-0.1-0.1c-0.3-0.3-0.7-0.4-1.1-0.5l-5.2,0.2
					c-0.3,0.1-0.6,0.3-0.8,0.5c-0.2,0.3-0.6,0.4-0.9,0.2c-0.4-0.2-0.5-0.6-0.4-1C34.1,23.6,34.2,23.5,34.3,23.4"/>
			</g>
			<g id="Gruppe_1271" transform="translate(136.182 64.247)">
				<path id="Pfad_2248" class="st26" d="M35.3,22.1c0.8-0.9,1.4-0.2,1.4-0.2c0.4,0.8-0.6,1.5-0.6,1.5l0.3,5.5c0,0,1.8,1.2,0.6,2.1
					c-0.3,0.1-0.7,0-1-0.3c-0.3,0.3-0.7,0.4-1.1,0.1c-0.4-0.2-0.5-0.6-0.4-1c0,0,0-0.1,0.1-0.1c0.3-0.3,0.4-0.7,0.4-1.1l-0.4-4.9
					c-0.1-0.3-0.3-0.6-0.6-0.7c-0.3-0.2-0.4-0.6-0.2-0.8c0.2-0.4,0.7-0.6,1.1-0.4C35.1,21.9,35.2,22,35.3,22.1"/>
			</g>
			<g id="Gruppe_1272" transform="translate(132.791 75.286)">
				<path id="Pfad_2249" class="st26" d="M41.6,22.6c1.3,0.2,1,1,1,1c-0.4,0.8-1.6,0.4-1.6,0.4l-4.5,3.3c0,0,0,2.1-1.5,1.7
					c-0.3-0.2-0.4-0.6-0.3-0.9c-0.4,0-0.7-0.4-0.7-0.8c-0.1-0.4,0.2-0.8,0.7-0.8c0,0,0.1,0,0.1,0c0.4,0.1,0.8,0,1.2-0.2l4-3.1
					c0.2-0.2,0.3-0.5,0.3-0.9c0-0.3,0.3-0.6,0.6-0.6C40.7,21.6,41.8,21.5,41.6,22.6"/>
			</g>
			<g id="Gruppe_1273" transform="translate(131.656 108.782)">
				<path id="Pfad_2250" class="st26" d="M34.8,22.3c0.3-1,1-0.7,1-0.7C36.5,22.1,36,23,36,23l2.3,4.1c0,0,1.9,0.3,1.3,1.4
					c-0.2,0.2-0.6,0.2-0.9,0.1c-0.1,0.3-0.4,0.6-0.8,0.5c0,0-0.8-0.1-0.6-0.8c0.1-0.3,0.1-0.7-0.1-1L35,23.8
					c-0.2-0.2-0.4-0.3-0.7-0.4c-0.3,0-0.5-0.3-0.5-0.6c0-0.4,0.3-0.7,0.7-0.7C34.6,22.2,34.7,22.3,34.8,22.3"/>
			</g>
			<g id="Gruppe_1274" transform="translate(134.8 122.783)">
				<path id="Pfad_2251" class="st26" d="M38.4,22.2c1.2-0.4,1.4,0.4,1.4,0.4c0,0.9-1.3,1.1-1.3,1.1l-2.3,5c0,0,1.1,1.9-0.5,2.2
					c-0.3-0.1-0.6-0.3-0.8-0.7c-0.4,0.2-0.8,0-1-0.4c-0.2-0.3-0.2-0.8,0.1-1c0,0,0.1-0.1,0.1-0.1c0.4-0.1,0.7-0.4,0.9-0.7l2-4.6
					c0.1-0.3,0-0.6-0.2-0.9c-0.2-0.3-0.1-0.7,0.2-0.8c0.4-0.3,0.9-0.2,1.1,0.2C38.4,22,38.4,22.1,38.4,22.2"/>
			</g>
			<g id="Gruppe_1275" transform="translate(153.005 123.02)">
				<path id="Pfad_2252" class="st26" d="M35.4,22.3c0.7-1.2,1.5-0.6,1.5-0.6c0.7,0.8-0.3,1.8-0.3,1.8l1.6,6c0,0,2.3,0.9,1.2,2.3
					c-0.4,0.2-0.8,0.1-1.1-0.1c-0.2,0.4-0.8,0.6-1.2,0.4c-0.5-0.1-0.7-0.6-0.6-1c0-0.1,0-0.1,0.1-0.1c0.2-0.4,0.3-0.8,0.3-1.3
					l-1.6-5.4c-0.2-0.3-0.4-0.6-0.8-0.7c-0.4-0.1-0.5-0.5-0.4-0.9c0.1-0.5,0.6-0.8,1.1-0.6C35.1,22.2,35.3,22.2,35.4,22.3"/>
			</g>
			<g id="Gruppe_1276" transform="translate(152.756 101.81)">
				<path id="Pfad_2253" class="st26" d="M39.7,22.4c1.4-0.4,1.5,0.6,1.5,0.6c0,1-1.5,1.1-1.5,1.1l-3.1,5.5c0,0,1,2.2-0.7,2.4
					c-0.4-0.1-0.7-0.4-0.8-0.8c-0.5,0.1-0.9-0.1-1.2-0.5c-0.3-0.4-0.1-0.9,0.3-1.2c0.1,0,0.1-0.1,0.2-0.1c0.4-0.1,0.8-0.4,1.1-0.8
					l2.6-5c0.1-0.3,0.1-0.7-0.1-1c-0.2-0.3,0-0.8,0.3-0.9c0,0,0,0,0,0c0.4-0.3,1-0.2,1.3,0.3C39.6,22.1,39.7,22.3,39.7,22.4"/>
			</g>
			<g id="Gruppe_1277" transform="translate(162.734 104.395)">
				<path id="Pfad_2254" class="st26" d="M35.2,22c0.8-0.8,1.3-0.2,1.3-0.2c0.4,0.7-0.6,1.4-0.6,1.4l0.1,5.2c0,0,1.7,1.2,0.5,2
					c-0.3,0.1-0.7,0-0.9-0.3c-0.3,0.3-0.7,0.3-1,0.1c-0.3-0.2-0.5-0.6-0.3-0.9c0,0,0-0.1,0.1-0.1c0.3-0.3,0.4-0.6,0.4-1l-0.3-4.6
					c-0.1-0.3-0.3-0.5-0.5-0.7c-0.3-0.2-0.3-0.5-0.2-0.8c0.2-0.4,0.7-0.5,1-0.3C35.1,21.9,35.1,21.9,35.2,22"/>
			</g>
			<g id="Gruppe_1278" transform="translate(154.32 117.041)">
				<path id="Pfad_2255" class="st26" d="M34.3,23.1c-0.8-0.9-0.1-1.4-0.1-1.4c0.9-0.3,1.5,0.8,1.5,0.8l5.8,0.4c0,0,1.5-1.6,2.3-0.3
					c0,0.4-0.1,0.7-0.4,0.9c0.3,0.3,0.3,0.8,0,1.1c-0.3,0.4-0.8,0.4-1.1,0.2c0,0,0,0-0.1-0.1c-0.3-0.3-0.6-0.5-1-0.6L36,23.8
					c-0.3,0-0.6,0.2-0.8,0.5c-0.2,0.3-0.6,0.3-0.9,0.1c-0.4-0.2-0.5-0.7-0.3-1C34,23.2,34.1,23.1,34.3,23.1"/>
			</g>
			<g id="Gruppe_1279" transform="translate(136.182 103.121)">
				<path id="Pfad_2256" class="st26" d="M35.3,22.1c0.8-0.9,1.4-0.2,1.4-0.2c0.4,0.8-0.6,1.5-0.6,1.5l0.3,5.5c0,0,1.8,1.2,0.6,2.1
					c-0.3,0.1-0.7,0-1-0.3c-0.3,0.3-0.7,0.4-1.1,0.1c-0.4-0.2-0.5-0.6-0.4-1c0,0,0-0.1,0.1-0.1c0.3-0.3,0.4-0.7,0.4-1.1l-0.4-4.9
					c-0.1-0.3-0.3-0.6-0.6-0.7c-0.3-0.2-0.4-0.6-0.2-0.8c0.2-0.4,0.7-0.6,1.1-0.4C35.1,21.9,35.2,22,35.3,22.1"/>
			</g>
			<g id="Gruppe_1280" transform="translate(132.697 115.343)">
				<path id="Pfad_2257" class="st26" d="M41.6,22.6c1.3,0.2,1,1,1,1c-0.4,0.8-1.6,0.4-1.6,0.4l-4.5,3.3c0,0,0,2.1-1.5,1.7
					c-0.3-0.2-0.4-0.6-0.3-0.9c-0.4,0-0.7-0.4-0.7-0.8c-0.1-0.4,0.2-0.8,0.7-0.8c0,0,0.1,0,0.1,0c0.4,0.1,0.8,0,1.2-0.2l4-3.1
					c0.2-0.2,0.3-0.5,0.3-0.9c0-0.3,0.3-0.6,0.6-0.6C40.7,21.6,41.8,21.5,41.6,22.6"/>
			</g>
			<g id="Gruppe_1281" transform="translate(162.373 123.444)">
				<path id="Pfad_2258" class="st26" d="M36.9,22.1c1-0.5,1.2,0.2,1.2,0.2c0.1,0.7-0.9,1.1-0.9,1.1l-1.4,4.5c0,0,1.1,1.5-0.1,1.9
					c-0.3,0-0.6-0.2-0.7-0.5c-0.3,0.2-0.7,0.1-0.9-0.2c-0.2-0.2-0.2-0.6,0-0.9c0,0,0.1-0.1,0.1-0.1c0.3-0.2,0.5-0.4,0.7-0.7l1.1-4.1
					c0-0.3-0.1-0.5-0.2-0.7c-0.2-0.2-0.1-0.6,0.1-0.7c0.3-0.3,0.7-0.3,1,0C36.8,21.9,36.9,22,36.9,22.1"/>
			</g>
			<g id="Gruppe_1282" transform="translate(154.09 128.062)">
				<path id="Pfad_2259" class="st6" d="M34.9,25.1c-2,2.1,0,3.5,0,3.5c2.1,1,3.6-1.5,3.6-1.5l14,0.7c0,0,3.7,4.4,5.7,1.5
					c0.1-0.9-0.3-1.8-1-2.4c0.7-0.8,0.7-2-0.1-2.7c0,0-1.4-1.9-3-0.7c-0.6,0.7-1.5,1.1-2.5,1.1l-12.6-1c-0.8-0.2-1.6-0.7-2-1.4
					c-0.5-0.7-1.5-0.9-2.2-0.5C34.7,21.8,32.6,23.2,34.9,25.1"/>
			</g>
			<g id="Gruppe_1283" transform="translate(154.162 130.888)">
				<path id="Pfad_2260" class="st27" d="M55.2,23l0.6,0.2c0.2,0.1,0.4,0.2,0.6,0.3c0.2,0.1,0.4,0.2,0.5,0.4l0.3,0.2l0.2,0.2
					c0.1,0.1,0.2,0.2,0.2,0.2c0.1,0.1,0.1,0.2,0.2,0.3c0.1,0.1,0.1,0.2,0.2,0.3c0.1,0.1,0.1,0.2,0.1,0.3c0.1,0.2,0.1,0.4,0.2,0.6
					c0,0.1,0,0.2,0,0.3c0,0.1,0,0.2,0,0.3v0l0,0c-0.1,0.1-0.2,0.2-0.2,0.3c-0.1,0.1-0.2,0.2-0.3,0.3c-0.1,0.1-0.2,0.2-0.3,0.2
					l-0.2,0.1L57,27.7c-0.1,0-0.3,0.1-0.5,0.1c-0.1,0-0.2,0-0.2,0c-0.1,0-0.2,0-0.2,0c-0.2,0-0.3-0.1-0.5-0.1
					c-0.2,0-0.3-0.1-0.5-0.2c-0.6-0.3-1.1-0.6-1.6-1c-0.2-0.2-0.5-0.4-0.7-0.6c-0.1-0.1-0.2-0.2-0.3-0.3c-0.1-0.1-0.2-0.2-0.3-0.4
					l0.3,0.2c-1.2,0-2.3-0.1-3.5-0.1s-2.3-0.1-3.5-0.2L42,24.8l-3.5-0.2l0.3-0.1c-0.1,0.1-0.1,0.2-0.2,0.2c-0.1,0.1-0.1,0.1-0.2,0.2
					c-0.1,0.1-0.2,0.3-0.4,0.4c-0.1,0.1-0.1,0.1-0.2,0.2c-0.1,0.1-0.1,0.1-0.2,0.2l-0.2,0.2c-0.1,0.1-0.2,0.1-0.2,0.1
					c-0.1,0-0.2,0.1-0.3,0.1c-0.1,0-0.2,0.1-0.3,0.1c-0.1,0-0.2,0-0.3,0.1l-0.3,0l-0.3,0c-0.1,0-0.2,0-0.3-0.1
					c-0.1,0-0.2-0.1-0.3-0.1L34.8,26l0,0l0,0c-0.1-0.1-0.2-0.2-0.3-0.3c-0.1-0.1-0.2-0.2-0.2-0.3c-0.1-0.1-0.1-0.2-0.2-0.3
					c-0.1-0.1-0.1-0.2-0.1-0.4c0-0.1,0-0.2-0.1-0.4c0-0.1,0-0.2,0-0.3s0-0.2,0.1-0.3c0-0.1,0.1-0.2,0.1-0.3c0-0.1,0.1-0.2,0.1-0.3
					c0.1-0.1,0.1-0.2,0.2-0.3c0.1-0.2,0.3-0.3,0.4-0.5l0.2-0.2c0.1-0.1,0.2-0.1,0.2-0.2l0.5-0.4L35.2,22c-0.1,0.1-0.3,0.3-0.4,0.4
					c-0.1,0.2-0.2,0.3-0.3,0.5c0,0.1-0.1,0.2-0.1,0.3c0,0.1-0.1,0.2-0.1,0.3c0,0.1-0.1,0.2-0.1,0.3c0,0.1,0,0.2,0,0.3s0,0.2,0,0.3
					c0,0.1,0,0.2,0.1,0.3c0,0.1,0.1,0.2,0.1,0.3c0,0.1,0.1,0.2,0.2,0.3c0.1,0.1,0.1,0.2,0.2,0.2c0.1,0.1,0.1,0.1,0.2,0.2l0,0
					l0.2,0.1c0.1,0,0.2,0.1,0.2,0.1c0.1,0,0.2,0,0.2,0h0.2l0.2,0c0.1,0,0.2,0,0.2-0.1c0.1,0,0.2,0,0.2-0.1c0.1,0,0.1-0.1,0.2-0.1
					c0.1,0,0.1-0.1,0.2-0.1l0.2-0.1c0.1-0.1,0.1-0.1,0.2-0.2c0.1-0.1,0.1-0.1,0.2-0.2c0.1-0.1,0.2-0.2,0.3-0.4
					c0-0.1,0.1-0.1,0.1-0.2s0.1-0.1,0.1-0.2l0.1-0.1l0.2,0l3.5,0.1l3.5,0.2c1.2,0.1,2.3,0.1,3.5,0.2c1.2,0.1,2.3,0.1,3.5,0.2l0.2,0
					l0.1,0.1c0.1,0.1,0.2,0.2,0.3,0.3c0.1,0.1,0.2,0.2,0.3,0.3c0.2,0.2,0.4,0.4,0.6,0.6c0.4,0.4,0.9,0.7,1.4,0.9
					c0.1,0.1,0.2,0.1,0.4,0.1c0.1,0,0.2,0.1,0.4,0.1c0.1,0,0.1,0,0.2,0c0.1,0,0.1,0,0.2,0c0.1,0,0.2,0,0.4,0l0.2,0l0.2-0.1
					c0.1-0.1,0.2-0.1,0.3-0.2c0.1-0.1,0.2-0.2,0.3-0.2c0.1-0.1,0.2-0.2,0.2-0.3l0,0.1c0-0.1,0-0.2,0-0.2c0-0.1,0-0.2,0-0.3
					c0-0.2-0.1-0.4-0.1-0.5c0-0.1-0.1-0.2-0.1-0.3c0-0.1-0.1-0.2-0.1-0.3c0-0.1-0.1-0.2-0.2-0.2c-0.1-0.1-0.1-0.2-0.2-0.2L57,24.2
					L56.8,24c-0.1-0.1-0.3-0.3-0.5-0.4c-0.2-0.1-0.3-0.2-0.5-0.3L55.2,23z"/>
			</g>
			<g id="Gruppe_1284" transform="translate(164.759 69.835)">
				<path id="Pfad_2261" class="st18" d="M40.7,78c1.7-5.1,6.2-17.7,7.4-28.1c1-9.2-5.6-25-5.6-25l-1.8-3.4l-4.9,4.7
					c2,2.7,8,20.4,4.4,33c-3.5,12-5.9,16.4-6.1,17.8c-0.4,1.1-0.1,2.3,0.7,3.2"/>
			</g>
			<g id="Gruppe_1285" transform="translate(160.842 122.693)">
				<path id="Pfad_2262" class="st18" d="M40.3,21.6c1.9,0.2,3.3,0.7,5.2,0.9c-0.3,1.2-0.5,2.4-0.5,3.6c0,0.8-2.7,8.7-3.2,9.8
					s-1.2,0.6-1.3,0.3c-0.2-0.1,1.1-3.2,1.3-3.7c0.2-0.6-0.4-0.2-0.4-0.2s-2,5.3-2.3,5.7c-0.2,0.4-0.9,0-1-0.5
					c-0.1-0.5,1.6-4.1,1.9-5.1c0.3-1-0.3-0.2-0.3-0.2s-2,4.9-2.5,6.1c-0.5,1.2-0.9,0.7-1.5,0.3c-0.7-0.4,2.1-6.1,2.2-6.7
					s-0.2-0.1-0.2-0.1s-2.1,4.7-2.4,5.2c-0.2,0.6-1.1,0.8-1.4-0.3s3.5-7.6,2.6-6.7c-0.9,0.8-1.3,1.3-1.9,0.6
					c-0.6-0.8,4.6-7.9,4.6-7.9C39,22.5,39.7,22,40.3,21.6"/>
			</g>
			<g id="Gruppe_1286" transform="translate(163.475 67.943)">
				<path id="Pfad_2263" class="st25" d="M38.4,37c0.3-0.7,1.3-3.2,1.3-3.2l8.2-0.7l-2.5-7.1l-3.7-4.5c0,0-7.8,1.6-7.8,2.5
					s2.3,11.5,2.3,11.5L38.4,37z"/>
			</g>
			<g id="Gruppe_1287" transform="translate(166.431 66.235)">
				<path id="Pfad_2264" class="st26" d="M35.3,22.4c0.7-1.2,1.5-0.6,1.5-0.6c0.7,0.7-0.3,1.8-0.3,1.8l1.8,6c0,0,2.3,0.8,1.3,2.2
					c-0.4,0.2-0.8,0.2-1.1,0c-0.2,0.4-0.7,0.6-1.2,0.4c-0.5-0.1-0.8-0.6-0.7-1c0-0.1,0-0.1,0-0.2c0.2-0.4,0.3-0.8,0.2-1.3l-1.8-5.3
					c-0.2-0.3-0.5-0.6-0.8-0.6c-0.4-0.1-0.6-0.5-0.5-0.9c0.1-0.5,0.6-0.8,1.1-0.7C35.1,22.2,35.2,22.3,35.3,22.4"/>
			</g>
			<g id="Gruppe_1288" transform="translate(161.196 104.836)">
				<path id="Pfad_2265" class="st25" d="M33.8,21.7c0.7,0.4,1.6,0.4,2.3-0.1"/>
			</g>
			<g id="Gruppe_1289" transform="translate(160.979 56.53)">
				<path id="Pfad_2266" class="st28" d="M35.7,40c-0.6,0-1.2,0-1.8,0c0.1-0.3,0.1-0.6,0.1-0.9c0.1-5.2,0-10.5,0-15.7
					c0-0.6-0.1-1.2-0.2-1.8c1.3,1.1,2.1,2.8,2,4.5c0,4.3,0,8.6,0,12.9C35.8,39.3,35.8,39.6,35.7,40"/>
			</g>
			<g id="Gruppe_1290" transform="translate(142.223 71.898)">
				<path id="Pfad_2267" class="st28" d="M33.8,21.6c0.4,0.8,0.8,1.6,1.3,2.5c0.7,1.5,0.8,3.2,0.2,4.8c0.1,1.1,0.2,2.3,0.2,3.4
					c1.5-1,2.2-2.9,1.7-4.7C36.7,25.3,35.5,23.3,33.8,21.6"/>
			</g>
			<g id="Gruppe_1291" transform="translate(137.681 79.171)">
				<path id="Pfad_2268" class="st28" d="M40.1,25c-0.1-1.1-0.2-2.3-0.2-3.4l-0.5,0c-0.6,1-1.4,1.9-2.3,2.7c-1.3,0.6-1.8,0-3.2,0.5
					c0,0.1,0,0.2,0,0.4l1.7,1.3l2.1-0.2l-1.3-1.4l1.7-0.6V26L40.1,25"/>
			</g>
			<g id="Gruppe_1292" transform="translate(141.195 54.382)">
				<path id="Pfad_2269" class="st29" d="M51.2,22.6L50.6,22c-2-0.1-3.9-0.3-5.9-0.4c-2.1,0-4.3,0.1-6.4,0.2c-0.9,0-1.7,0.1-2.5,0.4
					c-0.7,0.3-1.4,0.7-2,1.2l0,0c1.7-0.9,3.6-1.3,5.5-1.2c3.1,0,6.2,0,9.4,0C49.6,22.2,50.4,22.4,51.2,22.6"/>
			</g>
			<g id="Gruppe_1293" transform="translate(138.197 57.178)">
				<path id="Pfad_2270" class="st29" d="M33.8,31.1l0.8,0.8c-0.1-2.4-0.3-4.9-0.2-7.3c0.2-1.1,0.6-2.1,1.2-3l0,0
					c-1.6,0.7-1.6,2-1.7,3.1c-0.1,1.8,0.1,3.6,0.2,5.5C34,30.5,34,30.8,33.8,31.1"/>
			</g>
			<g id="Gruppe_1294" transform="translate(132.278 79.671)">
				<path id="Pfad_2271" class="st28" d="M41,25.9l-1.7-1.3c-0.7-0.1-4.7-2.9-5.4-3C34.1,22.9,35.9,25.9,41,25.9"/>
			</g>
			<g id="Gruppe_1295" transform="translate(140.193 81.691)">
				<path id="Pfad_2272" class="st28" d="M35.6,23.5v-1.9l-1.7,0.6l1.3,1.4L35.6,23.5"/>
			</g>
			<g id="Gruppe_1296" transform="translate(140.758 69.865)">
				<path id="Pfad_2273" class="st30" d="M33.8,21.6l1.5,2L33.8,21.6"/>
			</g>
			<g id="Gruppe_1297" transform="translate(139.944 56.168)">
				<path id="Pfad_2274" class="st29" d="M33.9,22.6l1.2-1l0,0C34.3,21.6,33.8,21.9,33.9,22.6L33.9,22.6z"/>
			</g>
			<g id="Gruppe_1298" transform="translate(138.979 67.459)">
				<path id="Pfad_2275" class="st29" d="M33.8,21.6l0.3,0.4L33.8,21.6"/>
			</g>
			<g id="Gruppe_1299" transform="translate(135.214 82.186)">
				<path id="Pfad_2276" class="st28" d="M34.3,21.8l-0.5-0.2L34.3,21.8"/>
			</g>
			<g id="Gruppe_1300" transform="translate(132.192 66.345)">
				<path id="Pfad_2277" class="st28" d="M35.9,36.1c-0.9-2.5,0.2-4.8,1.7-6.9c0.9-1.2,1.7-2.4,2.5-3.6c0.2-0.5,0.4-1,0.5-1.5
					l-1.9-2.6c-2,3.3-4.4,6.3-4.9,10C33.5,33.4,34.3,35.2,35.9,36.1"/>
			</g>
			<g id="Gruppe_1301" transform="translate(136.956 53.551)">
				<path id="Pfad_2278" class="st28" d="M36.8,25.2c0-0.7,0.4-1,1.3-1c0.6-0.5,1.3-0.9,2-1.2c0.8-0.3,1.7-0.4,2.5-0.4
					c2.1-0.1,4.3-0.2,6.4-0.2c2,0,3.9,0.2,5.9,0.4c-1.3-0.8-2.8-1.2-4.3-1.2c-3.4-0.1-6.7,0-10.1,0c-3.6,0-6.2,2.2-6.4,5.3
					c-0.1,1.6-0.1,3.2-0.2,4.8c-0.1,1.1,0.4,2.2,1.2,3c0.1-0.3,0.2-0.6,0.2-0.9c0-1.8-0.3-3.6-0.2-5.5
					C35.2,27.2,35.2,25.9,36.8,25.2"/>
			</g>
			<g id="Gruppe_1302" transform="translate(134.279 76.821)">
				<path id="Pfad_2279" class="st31" d="M43.1,21.6c-1.5,8.1-8.7,4.3-8.7,4.3s-0.3,0.1-0.6,0.6c9.4,3.9,9.8-4.5,9.8-4.5"/>
			</g>
			<g id="Gruppe_1303" transform="translate(131.561 53.051)">
				<path id="Pfad_2280" class="st31" d="M33.8,45.6c0.1-2.5,0.9-4.8,2.4-6.8c1.9-2.5,2.9-5.1,2.5-8c-0.1-1-0.1-1.9,0-2.9
					c0.2-3.3,2.3-6.5,8-6.3c2.6,0.1,5.2,0.1,7.7,0c3.8-0.1,6.8,0.8,8.8,3.5c0.1,0.6,0.2,1.2,0.2,1.8c0,5.2,0.1,10.5,0,15.7
					c0,0.2,0,0.4-0.1,0.6L62.7,43c0.1-0.4,0.2-0.8,0.2-1.2c0.1-3.3,0-6.6,0-9.9c0-1.8,0-3.7-0.1-5.5c0-1.2-0.8-2.2-1.9-2.5l-0.5-0.6
					c-1.3-0.8-2.8-1.2-4.3-1.2c-3.4-0.1-6.7,0-10.1,0c-3.6,0-6.2,2.2-6.4,5.3c-0.1,1.6-0.1,3.2-0.2,4.8c-0.1,1.1,0.4,2.2,1.2,3
					l0.8,0.8l0.3,0.4l0,0l0.2,0.5l1.3,1.5l0,0l1.5,2h0c0.4,0.8,0.8,1.6,1.3,2.5c0.7,1.5,0.8,3.2,0.2,4.8l-0.5,0
					c1.1-4.1-1.5-7.2-4.2-10.3l-1.9-2.6c-2,3.3-4.4,6.3-4.9,10c-0.4,1.8,0.4,3.6,2,4.5l3.5,1.4c0,0.1,0,0.2,0,0.4L38,51l-0.5-0.2
					C34.9,49.7,33.7,47.9,33.8,45.6"/>
			</g>
		</g>
	</g>
	<g id="Gruppe_1305" transform="translate(160.541 74.883)">
		<path id="Pfad_2282" class="st28" d="M36.2,21.6l0.1,29.3h-2.4l0.5-29.3L36.2,21.6z"/>
	</g>
	<g id="Gruppe_1306" transform="translate(159.541 72.552)">
		<path id="Pfad_2283" class="st31" d="M35.5,23l-0.3,30.2l-1.3,0.1l1.1-31.7L35.5,23z"/>
	</g>
	<g>
		<defs>
			<rect id="SVGID_7_" x="33.8" y="21.6" width="183.5" height="206"/>
		</defs>
		<clipPath id="SVGID_8_">
			<use xlink:href="#SVGID_7_"  style="overflow:visible;"/>
		</clipPath>
		<g id="Gruppe_1318" class="st32">
			<g id="Gruppe_1307" transform="translate(157.764 105.535)">
				<path id="Pfad_2284" class="st33" d="M36.3,24.8c-1.8,0.5-2.8,1.8-2.3,3.3c0.3,0.9,1.1,1.4,2,1.2c0.7-0.2,1.3-0.6,1.8-1.2
					c0.4-0.6,0.6-1.2,0.7-1.9c0.1-0.5,0.1-1.1,0-1.6c-0.1-1-0.2-2-0.3-3.1h-0.3c0,0.8-0.1,1.6-0.1,2.5c0,0.9-0.1,1.8-0.2,2.8
					c0,0.2-0.4,0.3-0.7,0.4c0,0.3-0.1,0.7-0.1,1l-0.2,0.2l0,0L36,28.6h-0.4l-0.3-0.1c-0.1,0-0.1,0-0.2,0L34.8,28
					c-0.1-0.3-0.1-0.5-0.2-0.8l0.4-1l0.2-0.2l0.2-0.2l0.8-0.5C36.3,25.2,36.3,25,36.3,24.8"/>
			</g>
			<g id="Gruppe_1308" transform="translate(160.217 105.167)">
				<path id="Pfad_2285" class="st34" d="M33.8,25.2c0,0.2,0,0.4,0,0.6l0.1,0l0.4,0.2c0,0.5,0,1.1,0.1,1.6c0.2-0.1,0.6-0.3,0.7-0.4
					c0.1-0.9,0.1-1.8,0.2-2.8c0-0.8,0.1-1.6,0.1-2.5l-0.2-0.4l-0.7,0l-0.2,0.5C34,23.1,33.9,24.1,33.8,25.2"/>
			</g>
			<g id="Gruppe_1309" transform="translate(161.477 103.118)">
				<path id="Pfad_2286" class="st35" d="M33.8,23.6c0.1,0.1,0.1,0.2,0.2,0.4h0.3c0.7-0.1,1.3-0.3,1.4-1c0.1-0.7-0.4-1.2-1.2-1.5
					l-0.5,0.6c0,0.1,0,0.1,0,0.2l0.5,0C35.8,23.4,34.3,23.3,33.8,23.6"/>
			</g>
			<g id="Gruppe_1310" transform="translate(159.091 103.168)">
				<path id="Pfad_2287" class="st35" d="M35.3,24.1l0.2-0.5c-0.7-0.2-1.3-0.4-0.7-1.1l0-0.9C33.4,22.6,33.6,23.6,35.3,24.1"/>
			</g>
			<g id="Gruppe_1311" transform="translate(158.572 110.185)">
				<path id="Pfad_2288" class="st36" d="M33.8,22.6l0.4-1C34.1,21.9,34,22.3,33.8,22.6"/>
			</g>
			<g id="Gruppe_1312" transform="translate(158.756 111.985)">
				<path id="Pfad_2289" class="st36" d="M34.1,22l-0.3-0.4L34.1,22"/>
			</g>
			<g id="Gruppe_1313" transform="translate(159.251 109.763)">
				<path id="Pfad_2290" class="st36" d="M33.8,21.8l0.2-0.2L33.8,21.8"/>
			</g>
			<g id="Gruppe_1314" transform="translate(160.314 109.345)">
				<path id="Pfad_2291" class="st33" d="M33.8,21.6l0.4,0.2L33.8,21.6"/>
			</g>
			<g id="Gruppe_1315" transform="translate(158.522 109.252)">
				<path id="Pfad_2292" class="st25" d="M35.6,21.6c0,0-1.7,0.6-1.8,1.6c-0.2,0.7,0.1,1.4,0.6,1.8c0.4,0.3,1.5-0.1,1.6-0.4
					c0.1-0.9,0.1-1.8,0-2.7C36,21.7,35.8,21.6,35.6,21.6"/>
			</g>
			<g id="Gruppe_1316" transform="translate(159.685 104.86)">
				<path id="Pfad_2293" class="st35" d="M34.1,22.2c0.7,0.3,1.4,0.3,2.1,0.1l0.6-0.3l0.2-0.4c-0.9,0.3-1.8,0.4-2.7,0.1
					C33.3,21.3,34.1,22.2,34.1,22.2"/>
			</g>
			<g id="Gruppe_1317" transform="translate(142.138 50.413)">
				<path id="Pfad_2294" class="st18" d="M33.8,22.6l0.7,6.1c0,0,10.3,4.2,10.2,2c1.3-1.3,2.6-2.5,4-3.7l1.3-0.6l-0.1-1.7l-2.4-0.6
					l-2-0.1l-7.7-2.5L33.8,22.6z"/>
			</g>
		</g>
	</g>
	<g>
		<defs>
			<rect id="SVGID_9_" x="165.9" y="47.8" width="3.1" height="5.7"/>
		</defs>
		<clipPath id="SVGID_10_">
			<use xlink:href="#SVGID_9_"  style="overflow:visible;"/>
		</clipPath>
		<g id="Gruppe_1320" transform="translate(132.047 26.231)" class="st37">
			<g id="Gruppe_1319" transform="translate(0 0)">
				<path id="Pfad_2296" class="st38" d="M36.8,24.8c-0.4,1.6-1.3,2.7-2.1,2.5s-1.1-1.6-0.7-3.2s1.3-2.7,2.1-2.5
					C36.9,21.8,37.2,23.2,36.8,24.8"/>
			</g>
		</g>
	</g>
	<g>
		<defs>
			<rect id="SVGID_11_" x="33.8" y="21.6" width="183.5" height="206"/>
		</defs>
		<clipPath id="SVGID_12_">
			<use xlink:href="#SVGID_11_"  style="overflow:visible;"/>
		</clipPath>
		<g id="Gruppe_1322" class="st39">
			<g id="Gruppe_1321" transform="translate(23.441 131.165)">
				<path id="Pfad_2298" class="st14" d="M33.8,21.6C33.8,21.6,33.8,21.6,33.8,21.6C33.8,21.6,33.8,21.6,33.8,21.6
					C33.9,21.6,33.8,21.6,33.8,21.6"/>
			</g>
		</g>
	</g>
</g>
</svg>
