<?xml version="1.0" encoding="utf-8"?>
<!-- Generator: Adobe Illustrator 24.2.0, SVG Export Plug-In . SVG Version: 6.00 Build 0)  -->
<svg version="1.1" id="Ebene_1" xmlns="http://www.w3.org/2000/svg" xmlns:xlink="http://www.w3.org/1999/xlink" x="0px" y="0px"
	 viewBox="0 0 250 250" style="enable-background:new 0 0 250 250;" xml:space="preserve">
<style type="text/css">
	.st0{clip-path:url(#SVGID_2_);}
	.st1{fill:#F4A572;}
	.st2{fill:#F4B58C;}
	.st3{fill:#60AACE;}
	.st4{fill:#93D6F2;}
	.st5{fill:#B26328;}
	.st6{fill:#FFE260;}
	.st7{fill:#CEEDFF;}
	.st8{fill:#E5F4FF;}
	.st9{fill:#F2F2F2;}
	.st10{fill:#E5E5E5;}
	.st11{fill:#EFEFEF;}
	.st12{clip-path:url(#SVGID_4_);}
	.st13{fill:#CCCCCC;}
	.st14{fill:#E2E2E2;}
	.st15{fill:#4299E8;}
	.st16{fill:#60AFF4;}
	.st17{fill:#72C6FF;}
	.st18{fill:#96D8FF;}
	.st19{fill:#A8DBFF;}
	.st20{fill:#91CEFF;}
	.st21{clip-path:url(#SVGID_6_);}
	.st22{fill:#8C022D;}
	.st23{fill:#9E7C59;}
	.st24{fill:#D6A377;}
	.st25{fill:#C1936B;}
</style>
<g id="image_cleaner">
	<g>
		<defs>
			<rect id="SVGID_1_" x="37.3" y="22.2" width="167.5" height="206"/>
		</defs>
		<clipPath id="SVGID_2_">
			<use xlink:href="#SVGID_1_"  style="overflow:visible;"/>
		</clipPath>
		<g id="Gruppe_12343" class="st0">
			<g id="Gruppe_12303" transform="translate(91.072 111.002)">
				<path id="Pfad_13279" class="st1" d="M67.8,94.5c-10.4,16.6-15.6,5.3-19.6-3.8c-5.6-12.9-12-33.4-10.8-48.6
					C41.1-3,105.4,34.5,67.8,94.5"/>
			</g>
			<g id="Gruppe_12304" transform="translate(77.627 0)">
				<path id="Pfad_13280" d="M54,22.2c8.8,0.4,15.6,8.1,15.2,17.2c-0.4,9.1-7.9,16.2-16.7,15.8c-9-0.6-15.8-8.3-15.2-17.3
					C37.6,29,45,21.9,54,22.2"/>
			</g>
			<g id="Gruppe_12305" transform="translate(61.956 6.566)">
				<path id="Pfad_13281" d="M47.6,22.2c5.5,0.3,9.7,5,9.4,10.5c0,0,0,0.1,0,0.1c-0.1,5.5-4.7,9.9-10.2,9.7c0,0-0.1,0-0.1,0
					c-5.5-0.3-9.7-5.1-9.3-10.6C37.4,26.4,42,22.1,47.6,22.2C47.5,22.2,47.5,22.2,47.6,22.2"/>
			</g>
			<g id="Gruppe_12306" transform="translate(55.399 19.084)">
				<path id="Pfad_13282" d="M43.3,22.2c3.2,0.2,5.7,3,5.5,6.2c-0.1,3.2-2.8,5.8-6,5.7c-3.2-0.2-5.7-3-5.5-6.3
					C37.4,24.6,40.1,22.1,43.3,22.2"/>
			</g>
			<g id="Gruppe_12307" transform="translate(47.408 26.55)">
				<path id="Pfad_13283" d="M45.1,22.2c4.2,0.3,7.4,3.9,7.1,8.1c-0.1,4.2-3.5,7.5-7.7,7.4c0,0-0.1,0-0.1,0c-4.2-0.2-7.4-3.8-7.2-8
					c0,0,0,0,0,0C37.5,25.4,41,22.1,45.1,22.2"/>
			</g>
			<g id="Gruppe_12308" transform="translate(45.369 40.495)">
				<path id="Pfad_13284" d="M47.6,22.2c5.5,0.3,9.8,5.1,9.4,10.6c-0.1,5.5-4.7,9.9-10.2,9.7c0,0-0.1,0-0.1,0
					c-5.5-0.3-9.8-5.1-9.4-10.6C37.5,26.4,42.1,22,47.6,22.2"/>
			</g>
			<g id="Gruppe_12309" transform="translate(50.342 57.764)">
				<path id="Pfad_13285" d="M44.5,22.2c3.9,0.2,6.8,3.6,6.6,7.5c0,0,0,0,0,0c-0.1,3.8-3.2,6.9-7.1,6.9c-0.1,0-0.1,0-0.2,0
					c-3.8-0.2-6.8-3.4-6.6-7.3c0-0.1,0-0.1,0-0.2C37.4,25.2,40.7,22.1,44.5,22.2"/>
			</g>
			<g id="Gruppe_12310" transform="translate(56.378 65.226)">
				<path id="Pfad_13286" d="M48.8,22.2C55,22.6,59.7,27.9,59.3,34c0,0,0,0,0,0.1c-0.1,6.1-5.2,11-11.4,10.9c0,0,0,0-0.1,0
					C41.7,44.6,37,39.2,37.3,33C37.5,26.9,42.7,22,48.8,22.2"/>
			</g>
			<g id="Gruppe_12311" transform="translate(105.461 8.526)">
				<path id="Pfad_13287" d="M47.6,22.2c-5.5-0.2-10.1,4.2-10.3,9.6c0,0,0,0.1,0,0.1c-0.3,5.5,3.9,10.2,9.3,10.6
					c5.5,0.2,10.1-4.2,10.3-9.7c0,0,0-0.1,0-0.1C57.3,27.3,53.1,22.5,47.6,22.2C47.6,22.2,47.6,22.2,47.6,22.2"/>
			</g>
			<g id="Gruppe_12312" transform="translate(119.337 21.949)">
				<path id="Pfad_13288" d="M43.3,22.2c-3.2-0.1-5.9,2.5-6,5.7c-0.2,3.2,2.3,6,5.5,6.2c0,0,0,0,0,0c3.2,0.1,6-2.5,6-5.7
					c0,0,0,0,0,0C49,25.1,46.6,22.4,43.3,22.2"/>
			</g>
			<g id="Gruppe_12313" transform="translate(123.027 30.012)">
				<path id="Pfad_13289" d="M45.1,22.2c-4.2-0.1-7.7,3.1-7.8,7.3c0,0,0,0,0,0c-0.3,4.2,2.9,7.8,7,8.1c0,0,0,0,0.1,0
					c4.2,0.2,7.7-3.1,7.8-7.2c0,0,0-0.1,0-0.1C52.5,26,49.3,22.4,45.1,22.2C45.2,22.2,45.2,22.2,45.1,22.2"/>
			</g>
			<g id="Gruppe_12314" transform="translate(118.807 43.806)">
				<path id="Pfad_13290" d="M47.6,22.2c-5.5-0.2-10.1,4.1-10.3,9.6c0,0,0,0.1,0,0.1c-0.3,5.5,3.9,10.3,9.4,10.6
					c5.5,0.1,10.1-4.2,10.3-9.7C57.4,27.3,53.2,22.5,47.6,22.2"/>
			</g>
			<g id="Gruppe_12315" transform="translate(118.502 60.856)">
				<path id="Pfad_13291" d="M44.5,22.2c-3.9-0.1-7.1,2.9-7.2,6.8c0,0,0,0.1,0,0.1c-0.3,3.9,2.7,7.2,6.6,7.5c0,0,0,0,0,0
					c3.9,0.1,7.2-3,7.3-6.9C51.4,25.8,48.4,22.4,44.5,22.2"/>
			</g>
			<g id="Gruppe_12316" transform="translate(103.2 67.338)">
				<path id="Pfad_13292" d="M48.8,22.2C42.7,22,37.5,26.9,37.3,33C37,39.2,41.7,44.6,47.9,45c6.2,0.2,11.3-4.7,11.5-10.9
					C59.7,27.9,55.1,22.6,48.8,22.2C48.9,22.2,48.9,22.2,48.8,22.2"/>
			</g>
			<g id="Gruppe_12317" transform="translate(52.65 9.098)">
				<path id="Pfad_13293" d="M78.6,22.2c21.7,1,38.5,20.1,37.5,42.5c-1.1,22.5-19.5,39.9-41.2,38.9s-38.5-20-37.5-42.5
					C38.4,38.7,56.8,21.2,78.6,22.2"/>
			</g>
			<g id="Gruppe_12318" transform="translate(14.443 60.639)">
				<path id="Pfad_13294" class="st1" d="M41.1,39.2c-10.4-16.6,2.9-18.8,12.1-16c27.6,8.9,33.3,11.5,46.4,19.2
					C138.5,65.5,78.7,99.2,41.1,39.2"/>
			</g>
			<g id="Gruppe_12319" transform="translate(51.698 64.152)">
				<path id="Pfad_13295" class="st2" d="M136.4,36.2c7.2-2.8,25.4,35.5,11.8,58.4c-7.3,12.3-19.7,17.8-33.4,18.8
					c-11.5,0.8-23.4-7.1-35.4-5.7c-8.1,1-18.2-5-20.8-8.7c-2.3-3.3-4.1-6.5-6.6-9.2C41.8,79.3,35.6,60.5,37.7,45.4
					c4.1-30.8,42.7-27.1,58.6-11.3c7.5,7.5,11.4,17.9,17.1,29.3c3.1,6.1,7.4,4,13.6,1.4C138.5,59.9,132,37.9,136.4,36.2"/>
			</g>
			<g id="Gruppe_12320" transform="translate(84.733 71.884)">
				<path id="Pfad_13296" class="st2" d="M96.9,23.6c18.7,3.2,6.9,9-1.9,11.7c-8.2,2.5-16.2,5.5-24,9.2
					C33.9,59.7,25.6,33.6,55.1,25.1C65.2,22.2,82,21,96.9,23.6"/>
			</g>
			<g id="Gruppe_12321" transform="translate(92.463 106.162)">
				<path id="Pfad_13297" class="st3" d="M37.5,65.8c-0.7,2.4,0.5,11.2,3.7,14.4c3.2,3.2,33.4,2.9,35.4-1.3c2-4.2,2.3-8,4.2-8.4
					c2-0.5,19,0,20.3-17.3c1.1-14-10.2-25-14.6-28.7c-1.7-1.4-1.7-1.7-4-1.3c-2.6,0.4-6.7,1.1-9-0.5c-2.2-1.5-4.3-0.5-4.9,2.7
					C67.2,34.3,56.3,56.2,37.5,65.8"/>
			</g>
			<g id="Gruppe_12322" transform="translate(50.858 69.443)">
				<path id="Pfad_13298" class="st4" d="M43.7,24.8c0,0-13.1,32.6-1.9,54.3s32.5,17.3,50.2,5.1c17.8-12.2,23.1-24.7,23.1-24.7
					c0.3-4.5-1.8-8.7-5.6-11.2c0,0-21.8-10.5-17.2-24.4C94.5,19.4,43.7,24.8,43.7,24.8"/>
			</g>
			<g id="Gruppe_12323" transform="translate(48.217 24.829)">
				<path id="Pfad_13299" class="st2" d="M62.2,22.2c15.2-1.2,28.7,14.1,30,30.3C93.6,68.8,82,79.7,66.9,80.9
					c-15.1,1.2-28.2-7.8-29.5-24S47.1,23.5,62.2,22.2"/>
			</g>
			<g id="Gruppe_12324" transform="translate(53.445 21.705)">
				<path id="Pfad_13300" class="st5" d="M37.3,38.9c0,0,19.1-4.2,45.7,18.3l3.8-3.7C80.9,14.7,40.5,14.5,37.3,38.9"/>
			</g>
			<g id="Gruppe_12325" transform="translate(69.546 4.278)">
				<path id="Pfad_13301" d="M46.3,22.2c-5.4,0.5-9.5,5.3-9,10.7c0,0,0,0.1,0,0.1c0.3,5.5,5.1,9.7,10.6,9.3c5.5-0.5,9.5-5.3,9-10.8
					c0,0,0,0,0,0C56.5,26.1,51.9,21.9,46.3,22.2C46.3,22.2,46.3,22.2,46.3,22.2"/>
			</g>
			<g id="Gruppe_12326" transform="translate(84.419 16.361)">
				<path id="Pfad_13302" d="M42.7,22.2c-3.2,0.3-5.6,3.2-5.4,6.4c0.2,3.2,3,5.7,6.2,5.5c0,0,0,0,0,0c3.2-0.3,5.6-3.1,5.3-6.3
					c0,0,0-0.1,0-0.1C48.7,24.5,45.9,22,42.7,22.2C42.7,22.2,42.7,22.2,42.7,22.2"/>
			</g>
			<g id="Gruppe_12327" transform="translate(89.314 23.67)">
				<path id="Pfad_13303" d="M44.2,22.2c-4.2,0.4-7.2,4.1-6.9,8.3c0.3,4.2,3.9,7.3,8,7.1c0,0,0,0,0,0c4.1-0.3,7.2-4,6.9-8.1
					c0-0.1,0-0.1,0-0.2C52,25.1,48.4,21.9,44.2,22.2C44.2,22.2,44.2,22.2,44.2,22.2"/>
			</g>
			<g id="Gruppe_12328" transform="translate(87.189 37.605)">
				<path id="Pfad_13304" d="M46.3,22.2c-5.5,0.5-9.5,5.3-9,10.8c0,0.1,0,0.1,0,0.2c0.3,5.5,5,9.7,10.5,9.4c0,0,0.1,0,0.1,0
					c5.5-0.5,9.6-5.4,9-10.9c0,0,0,0,0,0C56.6,26,51.8,21.9,46.3,22.2"/>
			</g>
			<g id="Gruppe_12329" transform="translate(89.068 52.99)">
				<path id="Pfad_13305" d="M47.7,22.2c-6.3,0.6-10.9,6.3-10.3,12.6c0.4,6.3,5.9,11.1,12.2,10.8c6.3-0.7,10.9-6.3,10.3-12.6
					C59.5,26.7,54,21.8,47.7,22.2"/>
			</g>
			<g id="Gruppe_12330" transform="translate(86.597 64.382)">
				<path id="Pfad_13306" d="M43.1,22.2c-3.5,0.3-6.1,3.4-5.8,6.9c0,0,0,0,0,0.1c0.2,3.5,3.3,6.2,6.8,6c0,0,0,0,0,0
					c3.5-0.3,6.1-3.5,5.7-7c0,0,0,0,0,0C49.7,24.6,46.6,22,43.1,22.2"/>
			</g>
			<g id="Gruppe_12331" transform="translate(83.288 50.818)">
				<path id="Pfad_13307" class="st2" d="M42.7,22.2c3.2-0.3,6,2.1,6.3,5.4c0.3,3.2-2,6-5.2,6.3c0,0-0.1,0-0.1,0
					c-3.2,0.3-6-2.1-6.3-5.4C37.1,25.3,39.4,22.5,42.7,22.2"/>
			</g>
			<g id="Gruppe_12332" transform="translate(0 48.229)">
				<path id="Pfad_13308" class="st6" d="M73.7,62.2c0,0-32.5-17.1-34.1-18s-0.1-4.2,1.6-3.3s11.3,4.4,11.3,4.4l-14.4-6.7
					c-1.9-0.9-0.1-4.2,1.5-3.3L54,41L39,34.1c-2.1-0.9-0.6-4.5,1.6-3.4l15.1,5.6l-12.6-5.5c-2-1.1-0.2-4.2,1.6-3.4
					c0.8,0.3,7.2,2.7,14.4,5.2c-0.4-2.2-0.7-4.3-1.1-5.8c-0.9-4.2,2.2-6.4,3.9-2.9c1.4,2.9,4.8,9.7,5.7,11.6
					c6.2,2.2,14.2,4.8,14.2,4.8L73.7,62.2z"/>
			</g>
			<g id="Gruppe_12333" transform="translate(60.135 50.528)">
				<path id="Pfad_13309" d="M38.9,22.2c1.1-0.1,2,1.2,2.1,2.9c0.2,1.7-0.6,3.2-1.6,3.3c-1.1,0.1-2-1.3-2.1-3
					C37.2,23.7,37.8,22.3,38.9,22.2"/>
			</g>
			<g id="Gruppe_12334" transform="translate(19.778 75.349)">
				<path id="Pfad_13310" class="st6" d="M41.4,22.8L37.3,25c0,0,2.8,7.8,11.8,16.5c1,0.7,2.3,2,2.3,2l2.9-9.7l1.3-11.6L41.4,22.8z"
					/>
			</g>
			<g id="Gruppe_12335" transform="translate(100.674 39.715)">
				<path id="Pfad_13311" d="M49.3,22.2c-7.3,0.7-12.7,7.3-12,14.6c0.5,7.4,6.8,12.9,14.2,12.5c7.3-0.7,12.7-7.3,12-14.6
					C63,27.4,56.7,21.8,49.3,22.2"/>
			</g>
			<g id="Gruppe_12336" transform="translate(122.406 48.091)">
				<path id="Pfad_13312" d="M44.7,22.2c-4.5,0.4-7.8,4.5-7.4,9c0.2,4.5,4.1,7.9,8.5,7.7c0,0,0.1,0,0.1,0c4.5-0.4,7.8-4.4,7.4-8.9
					c0,0,0,0,0-0.1c-0.2-4.5-4.1-7.9-8.5-7.7C44.8,22.2,44.8,22.2,44.7,22.2"/>
			</g>
			<g id="Gruppe_12337" transform="translate(20.241 60.832)">
				<path id="Pfad_13313" class="st7" d="M37.3,22.7h0.8c0,0.1,0,0.3,0.1,0.4h2.1c0.5,0.3,3.2,2.3,4.2,13.8
					c0.5,5.7,0.1,14.4-2.3,14.7h-4.8v0.9h4.8c4.5-0.5,3.1-15.7,3.1-15.7C44,23,40.4,22.2,40.4,22.2h-3.1V22.7z"/>
			</g>
			<g id="Gruppe_12338" transform="translate(10.093 60.832)">
				<path id="Pfad_13314" class="st8" d="M47.4,22.2h-3.1c-2.3,1.3,0.1,2.4,0.1,2.4c1.9,5.4-0.2,6.8-2.3,8.2
					c-2.3,1.5-3.9,3.8-4.6,6.5c-0.3,3-0.4,6.1-0.3,9.2c0.4,4.1,3.5,4,3.5,4h6.6v-1.3h-6.6c-0.2,0-1.9-0.1-2.2-2.8
					c-0.1-3,0-5.9,0.3-8.8c0.2-0.9,0.5-1.8,1-2.6h7.5V23.7c0-0.3-0.1-0.5-0.1-0.7c0-0.3-0.1-0.4-0.1-0.4h0.2L47.4,22.2z"/>
			</g>
			<g id="Gruppe_12339" transform="translate(20.241 62.405)">
				<path id="Pfad_13315" class="st7" d="M37.9,35.3c0.3-4.4,0.1-8.8-0.6-13.1v13.1H37.9z"/>
			</g>
			<g id="Gruppe_12340" transform="translate(20.241 61.708)">
				<path id="Pfad_13316" class="st7" d="M38.8,36H44c0.6,6.5-0.1,13.9-1.9,14.3h-4.7v0.4h4.8c2.5-0.4,2.8-9,2.3-14.7
					c-1-11.5-3.7-13.5-4.2-13.8h-2.1C38.9,26.7,39.2,31.4,38.8,36"/>
			</g>
			<g id="Gruppe_12341" transform="translate(9.964 48.562)">
				<path id="Pfad_13317" class="st9" d="M37.3,22.4v4.3c0.7-0.1,1.3-0.1,2-0.1v-4.5C38.6,22.3,38,22.3,37.3,22.4"/>
			</g>
			<g id="Gruppe_12342" transform="translate(8.903 53.343)">
				<path id="Pfad_13318" class="st9" d="M42.1,22.2c-0.4,1.2-1.7,4.2-3.9,5.6c-0.3,0.2-2.4,1.9,0.9,0.9c2.4-1,4.3-2.8,5.3-5.2
					c0.2,0.1,0.4,0.2,0.5,0.3C44.2,22.9,43.2,22.4,42.1,22.2"/>
			</g>
		</g>
	</g>
	<g id="Gruppe_12344" transform="translate(20.241 56.128)">
		<path id="Pfad_13320" class="st10" d="M37.3,26.9h3.1v-4.7h-3.1V26.9z"/>
	</g>
	<g id="Gruppe_12345" transform="translate(17.121 56.128)">
		<path id="Pfad_13321" class="st11" d="M40.4,22.2h-3.1v4.7h3.1V22.2z"/>
	</g>
	<g>
		<defs>
			<rect id="SVGID_3_" x="37.3" y="22.2" width="167.5" height="206"/>
		</defs>
		<clipPath id="SVGID_4_">
			<use xlink:href="#SVGID_3_"  style="overflow:visible;"/>
		</clipPath>
		<g id="Gruppe_12356" class="st12">
			<g id="Gruppe_12346" transform="translate(20.24 48.501)">
				<path id="Pfad_13322" class="st13" d="M44.6,27.8c0,0,3.6-0.1-0.4-3.3c0,0-1.9-1.7-6.9-2.4v7.6h3.1c0.1-0.2,0.2-0.3,0.4-0.4
					C41.7,28.3,43.2,27.7,44.6,27.8"/>
			</g>
			<g id="Gruppe_12347" transform="translate(11.957 48.27)">
				<path id="Pfad_13323" class="st14" d="M37.7,22.4c-0.1,0-0.3,0-0.4,0V27c0.1,0,0.3,0,0.4,0c0.2,0,0.5,0,0.7,0.1
					c0.1,0,0.3,0,0.4,0.1c0.1,0,0.1,0,0.2,0c1.1,0.2,2.1,0.7,2.9,1.6c0.2,0.2,0.3,0.5,0.4,0.8c0.1,0.1,0.1,0.3,0.1,0.4h3.1v-7.6
					C43,22.1,40.3,22.1,37.7,22.4"/>
			</g>
			<g id="Gruppe_12348" transform="translate(20.241 75.516)">
				<path id="Pfad_13324" class="st15" d="M37.3,36.4H42c1.8-0.3,2.5-7.8,1.9-14.3h-5.1c-0.2,2.7-0.7,5.3-1.5,7.8V36.4z"/>
			</g>
			<g id="Gruppe_12349" transform="translate(20.241 75.516)">
				<path id="Pfad_13325" class="st15" d="M37.3,26.5c0.3-1.4,0.5-2.8,0.6-4.3h-0.6V26.5z"/>
			</g>
			<g id="Gruppe_12350" transform="translate(11.407 75.516)">
				<path id="Pfad_13326" class="st16" d="M44.7,33.4h-1c1.2-2.2,2-4.5,2.4-6.9v-4.3h-7.5c-0.5,0.8-0.8,1.7-1,2.6
					c-0.3,2.9-0.4,5.9-0.3,8.8c0.3,2.7,2,2.8,2.2,2.8h6.6V30C45.8,31.2,45.3,32.3,44.7,33.4"/>
			</g>
			<g id="Gruppe_12351" transform="translate(20.241 61.307)">
				<path id="Pfad_13327" class="st17" d="M38.1,22.6c0-0.1,0-0.3-0.1-0.4h-0.8v0.4L38.1,22.6z"/>
			</g>
			<g id="Gruppe_12352" transform="translate(20.241 61.708)">
				<path id="Pfad_13328" class="st17" d="M37.3,22.9c0.7,4.3,0.9,8.7,0.6,13.1h0.9c0.4-4.6,0.1-9.3-0.7-13.8h-0.8V22.9z"/>
			</g>
			<g id="Gruppe_12353" transform="translate(20.041 61.307)">
				<path id="Pfad_13329" class="st18" d="M37.3,22.2c0,0,0,0.1,0.1,0.4c0,0.2,0.1,0.4,0.1,0.7v-1.1H37.3z"/>
			</g>
			<g id="Gruppe_12354" transform="translate(17.818 79.804)">
				<path id="Pfad_13330" class="st19" d="M38.3,29.1c0.6-1.1,1.1-2.2,1.4-3.4v-3.5c-0.5,2.4-1.3,4.7-2.4,6.9H38.3z"/>
			</g>
			<g id="Gruppe_12355" transform="translate(20.241 75.516)">
				<path id="Pfad_13331" class="st20" d="M37.3,30c0.8-2.5,1.3-5.2,1.5-7.8h-0.9c-0.1,1.4-0.3,2.9-0.6,4.3V30z"/>
			</g>
		</g>
	</g>
	<g id="Gruppe_12357" transform="translate(1.716 50.76)">
		<path id="Pfad_13333" class="st15" d="M37.3,22.7l7.2-0.3l-7.2-0.3V22.7z"/>
	</g>
	<g id="Gruppe_12358" transform="translate(1.896 51.777)">
		<path id="Pfad_13334" class="st15" d="M37.3,23.8l0.1,0.5l6.9-2.1L37.3,23.8z"/>
	</g>
	<g id="Gruppe_12359" transform="translate(1.896 48.14)">
		<path id="Pfad_13335" class="st15" d="M37.4,22.2l-0.1,0.5l7,1.6L37.4,22.2z"/>
	</g>
	<g>
		<defs>
			<rect id="SVGID_5_" x="37.3" y="22.2" width="167.5" height="206"/>
		</defs>
		<clipPath id="SVGID_6_">
			<use xlink:href="#SVGID_5_"  style="overflow:visible;"/>
		</clipPath>
		<g id="Gruppe_12375" class="st21">
			<g id="Gruppe_12360" transform="translate(49.456 48.985)">
				<path id="Pfad_13336" d="M38.7,22.2c0.5,0.1,0.7,1.1,0.5,2.4c-0.2,1.3-0.9,2.3-1.3,2.2c-0.5-0.1-0.8-1.2-0.5-2.5
					C37.6,23.1,38.2,22.1,38.7,22.2"/>
			</g>
			<g id="Gruppe_12361" transform="translate(52.906 63.597)">
				<path id="Pfad_13337" d="M37.3,22.2c0,0,6,4.2,11.2,1.6l-1,9.4C47.5,33.2,37.3,33.8,37.3,22.2"/>
			</g>
			<g id="Gruppe_12362" transform="translate(55.738 70.582)">
				<path id="Pfad_13338" class="st22" d="M44.7,26.2c-5.6-0.1-7.4-2.7-7.4-2.7c3-2.8,7.7-0.5,7.7-0.5L44.7,26.2z"/>
			</g>
			<g id="Gruppe_12363" transform="translate(102.818 178.235)">
				<path id="Pfad_13339" class="st23" d="M62.1,22.2L37.3,49.6l0.3,0.3c0,0,1.5-0.9,7.5-7.5l17.7-19.6L62.1,22.2z"/>
			</g>
			<g id="Gruppe_12364" transform="translate(105.761 176.554)">
				<path id="Pfad_13340" class="st23" d="M53.5,28.2l4.8-5.3c0.2-0.2,0.2-0.4,0-0.6c-0.2-0.2-0.5-0.1-0.6,0l-4.8,5.3
					c-2.2,2.6-5.2,4.4-8.6,5.2c-2.1,0.5-4.3,0.7-6.5,0.5c-0.2,0-0.5,0.1-0.5,0.4c0,0.2,0.1,0.4,0.3,0.5c0,0,0,0,0,0
					c2.3,0.2,4.6,0,6.8-0.5C48,32.9,51.1,30.9,53.5,28.2"/>
			</g>
			<g id="Gruppe_12365" transform="translate(100.557 177.221)">
				<path id="Pfad_13341" class="st24" d="M37.6,49.3c-1.1-1.7,0.8-4.9,2.9-9.1c1.2-2.1,2-4.4,2.5-6.7c2.2,0.2,4.4,0,6.6-0.6
					c3.5-0.8,6.7-2.7,9-5.4l4.8-5.3c0,0,0,0,0-0.1c0.4,0.3,0.7,0.6,0.9,1L39.6,50.6C39.6,50.6,38.5,50.7,37.6,49.3"/>
			</g>
			<g id="Gruppe_12366" transform="translate(112.558 184.669)">
				<path id="Pfad_13342" class="st25" d="M37.3,25.6c0.1,0,0.2-0.1,0.3-0.1c0.2-0.1,0.4-0.1,0.6-0.2l3.7,1.4l0.2-0.5l-3-1.2
					c0.3-0.1,0.6-0.2,0.8-0.3l2.4,0.9l1.2-2.8c0.3-0.2,0.6-0.5,0.9-0.7l-1.6,3.8l0.2,0.1l-0.4,0.5h0l0,0l-1.2,1.3l0.2-0.5L37.3,25.6
					z"/>
			</g>
			<g id="Gruppe_12367" transform="translate(119.002 180.275)">
				<path id="Pfad_13343" class="st25" d="M40.1,24.6L40.1,24.6l0.5,0.3l0.2-0.5l-0.3-0.1l0.4-0.5l0.1,0.1l0.2-0.4l1.2-1.3L41.9,23
					l1,0.4l-0.4,0.5l-0.8-0.3l-0.2,0.5l0.7,0.3l-0.4,0.5l-0.5-0.2L41,25.1l0.3,0.1l-0.4,0.5l-0.1,0l-0.1,0.3l-1.2,1.3l0.8-1.8
					l-0.5-0.2l-1.4,3.2l-1.2,1.3l1.7-3.9C39.3,25.4,39.7,25,40.1,24.6"/>
			</g>
			<g id="Gruppe_12368" transform="translate(100.557 188.305)">
				<path id="Pfad_13344" class="st25" d="M37.3,37.4l1.1,0.4l-0.4,0.9c0.1,0.1,0.3,0.3,0.4,0.4l0.5-1.1l0.5,0.2L39,39.4
					c0.2,0.1,0.4,0.1,0.6,0.1l0.5-1.1l0.4,0.2l1.3-1.5l0.2-0.4l0.1,0.1l0.4-0.5l-0.3-0.1l2.3-5.5l2.3,0.9l0.4-0.5l-2.5-1l0.2-0.5
					l2.6,1l0.4-0.5l-2.8-1.1l0.2-0.5l3,1.2l0.4-0.5l-3.2-1.2l2.3-5.5l5.1,2l0.4-0.5l-5.2-2c-0.4,0.1-0.8,0.1-1.2,0.2l0.3,0.1
					l-2.3,5.5l-0.5-0.2l2.3-5.3c-0.2,0-0.4,0-0.6,0.1l-2.2,5.1l-0.5-0.2l2.1-4.9c-0.2,0-0.4,0-0.6,0l-2,4.6l-1.3-0.5
					c-0.1,0.2-0.2,0.4-0.2,0.5l1.3,0.5l-0.2,0.5l-1.3-0.5c-0.1,0.2-0.2,0.3-0.2,0.5l1.4,0.5l-0.2,0.5l-1.4-0.5
					c-0.1,0.2-0.2,0.3-0.2,0.5l0,0.1l1.4,0.6l-2.3,5.5l-1.7-0.7c-0.1,0.2-0.1,0.4-0.2,0.5l1.7,0.7l-0.2,0.5l-1.6-0.6
					c-0.1,0.2-0.1,0.4-0.1,0.6l1.5,0.6l-0.2,0.5l-1.4-0.5C37.3,37,37.3,37.2,37.3,37.4 M44.1,28.8l0.2-0.5l0.5,0.2L44.6,29
					L44.1,28.8z M43.6,28.6l-0.5-0.2l0.2-0.5l0.5,0.2L43.6,28.6z M43.7,29.8l0.2-0.5l0.5,0.2L44.2,30L43.7,29.8z M43.2,29.6
					l-0.5-0.2l0.2-0.5l0.5,0.2L43.2,29.6z M41.1,35.8l2.3-5.5l0.5,0.2L41.6,36L41.1,35.8z M40.6,35.6l-0.5-0.2l2.3-5.5l0.5,0.2
					L40.6,35.6z M40.7,36.9l0.2-0.5l0.5,0.2l-0.2,0.5L40.7,36.9z M40.2,36.7l-0.5-0.2l0.2-0.5l0.5,0.2L40.2,36.7z M40.2,37.9
					l0.2-0.5l0.5,0.2l-0.2,0.5L40.2,37.9z M39.2,37.5l0.2-0.5l0.5,0.2l-0.2,0.5L39.2,37.5z"/>
			</g>
			<g id="Gruppe_12369" transform="translate(149.958 62.15)">
				<path id="Pfad_13345" class="st23" d="M53.9,55.5L37.3,22.4l0.4-0.2c0,0,1.2,1.3,5.2,9.2l11.8,23.6L53.9,55.5z"/>
			</g>
			<g id="Gruppe_12370" transform="translate(148.077 79.741)">
				<path id="Pfad_13346" class="st23" d="M51.4,32.2l3.2,6.4c0.1,0.2,0,0.5-0.2,0.6c-0.2,0.1-0.5,0-0.6-0.2l-3.2-6.4
					c-1.4-3.1-3.8-5.7-6.9-7.3c-1.9-1.1-3.9-1.8-6.1-2.2c-0.2,0-0.4-0.3-0.4-0.5c0-0.2,0.2-0.4,0.4-0.4c0,0,0,0,0,0
					c2.3,0.4,4.4,1.2,6.4,2.3C47.3,26.2,49.9,28.9,51.4,32.2"/>
			</g>
			<g id="Gruppe_12371" transform="translate(146.932 62.3)">
				<path id="Pfad_13347" class="st24" d="M38.1,23c-1.5,1.3-0.6,4.9,0.4,9.5c0.6,2.3,0.8,4.7,0.7,7.1c2.2,0.4,4.3,1.2,6.2,2.3
					c3.2,1.7,5.7,4.4,7.2,7.7l3.2,6.4c0,0,0,0,0,0.1c0.4-0.2,0.8-0.4,1.1-0.7L40.3,22.2C40.3,22.2,39.4,21.9,38.1,23"/>
			</g>
			<g id="Gruppe_12372" transform="translate(154.629 80.943)">
				<path id="Pfad_13348" class="st25" d="M37.3,23.1c0.1,0.1,0.2,0.1,0.3,0.2c0.2,0.1,0.4,0.2,0.6,0.3l3.9-0.4l0.1,0.5l-3.2,0.3
					c0.3,0.2,0.5,0.3,0.7,0.5l2.6-0.3l0.4,3.1c0.2,0.3,0.5,0.6,0.7,0.9l-0.5-4l0.2,0l-0.3-0.6h0v0l-0.8-1.5l0.1,0.5L37.3,23.1z"/>
			</g>
			<g id="Gruppe_12373" transform="translate(160.756 83.933)">
				<path id="Pfad_13349" class="st25" d="M38.6,27.8L38.6,27.8l0.5-0.1l0.1,0.5l-0.4,0l0.3,0.6l0.2,0l0.1,0.4l0.8,1.5L40,29.9
					l1.1-0.1l-0.3-0.6l-0.9,0.1l-0.1-0.5l0.7-0.1l-0.3-0.6l-0.5,0l-0.1-0.5l0.3,0L39.7,27l-0.1,0l0-0.3l-0.8-1.5l0.3,1.9l-0.5,0.1
					l-0.5-3.4l-0.8-1.5l0.6,4.3C38.1,26.9,38.4,27.3,38.6,27.8"/>
			</g>
			<g id="Gruppe_12374" transform="translate(146.933 62.3)">
				<path id="Pfad_13350" class="st25" d="M37.4,24.3l1.5-0.1l0.1,0.5l-1.6,0.2c0,0.2,0,0.4,0,0.6l1.7-0.2l0.1,0.5L37.3,26
					c0,0.2,0,0.4,0,0.6l1.8-0.2l0.8,5.9l-1.5,0.1c0,0,0,0,0,0.1c0,0.2,0.1,0.3,0.1,0.5l1.5-0.1l0.1,0.5l-1.5,0.1
					c0,0.2,0.1,0.4,0.1,0.6l1.4-0.1l0.1,0.5l-1.4,0.1c0,0.2,0.1,0.4,0.1,0.6l1.4-0.1l0.7,5c0.2,0.1,0.4,0.1,0.6,0.2l-0.7-5.2
					l0.5-0.1l0.7,5.5c0.2,0.1,0.4,0.1,0.6,0.2L42,35l0.5-0.1l0.8,5.9l-0.3,0c0.3,0.1,0.7,0.3,1.1,0.5l5.5-0.5l-0.3-0.6l-5.5,0.5
					l-0.8-5.9l3.4-0.3L46.2,34L43,34.3l-0.1-0.5l3-0.3l-0.3-0.6l-2.8,0.3l-0.1-0.5l2.6-0.3l-0.3-0.6L42.7,32l-0.8-5.9l0.3,0L42,25.5
					l-0.1,0l-0.1-0.4l-0.9-1.8l-0.4,0l-0.2-1.2c-0.2,0-0.4-0.1-0.6,0l0.2,1.3l-0.5,0.1l-0.2-1.2c-0.2,0.1-0.4,0.2-0.5,0.3l0.1,1
					l-1.2,0.1C37.5,23.9,37.4,24.1,37.4,24.3 M42.4,33.8l0.1,0.5l-0.5,0.1l-0.1-0.5L42.4,33.8z M41.4,34.4l-0.5,0.1L40.8,34l0.5-0.1
					L41.4,34.4z M42.2,32.7l0.1,0.5l-0.5,0.1l-0.1-0.5L42.2,32.7z M41.2,33.3l-0.5,0.1l-0.1-0.5l0.5-0.1L41.2,33.3z M41.4,26.2
					l0.8,5.9l-0.5,0.1l-0.8-5.9L41.4,26.2z M41.1,32.2l-0.5,0.1l-0.8-5.9l0.5-0.1L41.1,32.2z M41.2,25.1l0.1,0.5l-0.5,0.1l-0.1-0.5
					L41.2,25.1z M40.2,25.7l-0.5,0.1l-0.1-0.5l0.5-0.1L40.2,25.7z M41.1,23.9l0.1,0.5l-0.5,0.1L40.5,24L41.1,23.9z M40,24l0.1,0.5
					l-0.5,0.1l-0.1-0.5L40,24z"/>
			</g>
		</g>
	</g>
</g>
</svg>
