<?xml version="1.0" encoding="utf-8"?>
<!-- Generator: Adobe Illustrator 24.2.0, SVG Export Plug-In . SVG Version: 6.00 Build 0)  -->
<svg version="1.1" id="Ebene_1" xmlns="http://www.w3.org/2000/svg" xmlns:xlink="http://www.w3.org/1999/xlink" x="0px" y="0px"
	 viewBox="0 0 250 250" style="enable-background:new 0 0 250 250;" xml:space="preserve">
<style type="text/css">
	.st0{clip-path:url(#SVGID_2_);}
	.st1{fill:#966B4F;}
	.st2{fill:#BC8763;}
	.st3{fill:#995635;}
	.st4{fill:#683A26;}
	.st5{fill:#BFBC60;}
	.st6{fill:#C4BA99;}
	.st7{clip-path:url(#SVGID_4_);}
	.st8{fill:#999349;}
	.st9{fill:#6D8C3D;}
	.st10{fill:#607C38;}
	.st11{fill:#EFD6B7;}
	.st12{fill:#3A4C56;}
	.st13{fill:#F9F7F7;}
	.st14{fill:#FC8C60;}
	.st15{fill:#D6AF7F;}
	.st16{fill:#5E6670;}
	.st17{clip-path:url(#SVGID_6_);}
	.st18{fill:#668238;}
	.st19{fill:#779347;}
	.st20{fill:#547033;}
	.st21{fill:#597535;}
	.st22{fill:#D1D1D3;}
	.st23{fill:#BF0023;}
	.st24{fill:#BFC1BF;}
</style>
<g id="image_gärtner">
	<g>
		<defs>
			<rect id="SVGID_1_" x="70.6" y="21.4" width="108.7" height="206"/>
		</defs>
		<clipPath id="SVGID_2_">
			<use xlink:href="#SVGID_1_"  style="overflow:visible;"/>
		</clipPath>
		<g id="Gruppe_12387" class="st0">
			<g id="Gruppe_12377" transform="translate(86.523 191.116)">
				<path id="Pfad_13352" class="st1" d="M80.1,23.2c1.4,2.8,3.3,5.3,5.6,7.4c3.6,2.9,2.3,5.5,2.3,5.5s-8.8,1.5-14.6-4.1l-2.9-5.6
					c0-1.5,0.9-2.8,2.2-3.4c1.7-0.7,3.5-1.2,5.4-1.5C78.5,21.4,80.1,23.2,80.1,23.2"/>
			</g>
			<g id="Gruppe_12378" transform="translate(0 124.919)">
				<path id="Pfad_13353" class="st1" d="M83,30.3c-1.5-0.2-3,0.1-4.4,0.8c-1.9,1.2-4.9,2.5-6.8,1.5c-1.9-1-1-4.6-0.4-5.3
					c2-3.1,5.3-5.1,8.9-5.5c6-0.9,6.5,0.2,6.5,0.2c0.4,1.4,0.5,2.8,0.4,4.2c0,1.5-0.7,3-1.8,4C85.2,30.4,83,30.3,83,30.3"/>
			</g>
			<g id="Gruppe_12379" transform="translate(11.712 116.602)">
				<path id="Pfad_13354" class="st2" d="M141.8,25.4c0,0,19.9,31.7,13.1,72.3c0,0-2.7,2.1-7.4-0.3c0,0,9.8-39.8-24-60.9
					c0,0-22.8,24.9-40.4,21c0,0-11.6-2.8-12.6-19.9c0,0-0.2-4.4,4.7-4.2c0,0,1,11.7,8.1,14.1s17.2-16.7,19-26.2L141.8,25.4z"/>
			</g>
			<g id="Gruppe_12380" transform="translate(43.349 118.195)">
				<path id="Pfad_13355" class="st3" d="M71.4,21.4L70.6,25c0,0,8.9,5.5,23.1,5.5c5.8,0,11.5-0.9,17-2.6l-1-2.5
					c-5.1,1.9-10.6,2.9-16,2.8C85.7,28.4,77.9,26,71.4,21.4"/>
			</g>
			<g id="Gruppe_12381" transform="translate(66.298 129.809)">
				<path id="Pfad_13356" class="st3" d="M77.9,21.4c-2.5,0-4.9,0.3-7.4,0.8C103.6,42.8,93.7,84,93.7,84l2.1,0.1
					c8.6-40.1-15.2-62.5-15.2-62.5C79.7,21.5,78.8,21.4,77.9,21.4"/>
			</g>
			<g id="Gruppe_12382" transform="translate(3.552 129.31)">
				<path id="Pfad_13357" class="st4" d="M78.1,21.4c-2.1,0-4.2,0.7-5.7,2.1c-2.7,2.6-1.9,4-0.8,4c0.2,0,0.5-0.1,0.7-0.2
					c1.1-0.6,3.9-2.5,6.2-2.5c0.1,0,0.2,0,0.3,0c0-1.2,0.5-2.4,1.4-3.2C79.5,21.5,78.8,21.4,78.1,21.4"/>
			</g>
			<g id="Gruppe_12383" transform="translate(11.713 129.529)">
				<path id="Pfad_13358" class="st3" d="M72,21.4c-0.9,0.8-1.4,2-1.4,3.2c0.3,0,0.5,0.1,0.8,0.2c0,0,0.9,14.6,10.4,18
					c1.7,0.5,3.4,0.8,5.2,0.9c0.3,0,0.7,0,1,0c0,0-6.3-1.5-6.7-7.4C81.3,36.3,71.6,30.7,72,21.4z"/>
			</g>
			<g id="Gruppe_12384" transform="translate(28.68 58.428)">
				<path id="Pfad_13359" class="st5" d="M124,23.2c-1.2-0.4-2.4-1-3.5-1.8c-1.4,3.4-5.3,6.4-7.8,9.1c-1,1-1.8,2.3-3.1,2.8
					c-2,0.7-4.5-0.2-6.3-0.9c-3.8-1.5-7.4-3.7-11-5.6c-2.9-1.5-5-3.6-10-3.8c-0.9-0.3-4,2.4-5,3c-2.2,1.4-4.8,2.7-6.7,4.5
					c0,0.1,0,0.1,0.1,0.2c2.8,3.3,3.8,7.3,4.8,11.6c1,4.5,2.7,8.6,4.2,12.9c0.2-0.2,0.3-0.4,0.5-0.6c-0.2,0.5-0.2,1.1-0.2,1.6
					c0.3,0.9,0.6,1.8,0.8,2.8c0.1,0.4,0.1,0.8,0,1.2c1.2,3.7,2,7.4,2.4,11.3c0.3,3.5,0.6,7.1,1.1,10.6c0.2,1.9,1.1,4.6,0.8,6.4
					c1-0.5,2.4,0.2,3.5,0.2c2.3,0.1,4.7,0,7,0c6.3-0.1,12.6-0.6,18.8-1.5c4.6-0.6,9.1-0.9,13.5-2.2c-0.4-3.1,0.4-6.6,0.3-9.8
					c-0.3-7.1,0.3-14.3,0.4-21.4c0.1-6,0.3-12.7,1.6-18.6c0.7-3,2.2-5.8,3-8.7C130.1,26.1,127,24.3,124,23.2"/>
			</g>
			<g id="Gruppe_12385" transform="translate(39.167 54.909)">
				<path id="Pfad_13360" class="st5" d="M72.8,21.5c-0.2,2.2-0.9,4.2-2.2,6c0.1-0.1,0.2-0.2,0.3-0.3c1.5,0.5,3,0.9,4.6,1.3
					c1.4,0.4,2.9,1.2,4.3,1.2c-1.4-1.3-2-3.6-3-5.2c-1-1.7-3.1-2.4-5-2.9C72.1,21.4,72.4,21.4,72.8,21.5"/>
			</g>
			<g id="Gruppe_12386" transform="translate(42.977 121.442)">
				<path id="Pfad_13361" class="st2" d="M71,25.7c-0.2-0.1-0.3-0.3-0.4-0.5c7.6-0.7,15.2-0.5,22.9-1.3c4.8-0.5,9.7-1.3,14.5-1.9
					c1.8-0.4,3.7-0.5,5.6-0.5c-0.4,2,0.3,4,0.1,6.1c-7.6,0.4-15.2,1.8-22.8,2.1c-3.9,0.2-7.8,0.4-11.6,0.7c-2.5,0.2-5.9,0.6-8.4-0.1
					C71.5,29,70.4,26.6,71,25.7"/>
			</g>
		</g>
	</g>
	<g id="Gruppe_12388" transform="translate(60.591 122.559)">
		<path id="Pfad_13363" class="st6" d="M70.6,28.8v-6.7l7.9-0.7v6.8L70.6,28.8z M72.8,24.2v2.3l3.5-0.3v-2.4L72.8,24.2z"/>
	</g>
	<path id="Pfad_13364" class="st2" d="M149.1,149.1h-2.2v-5.9h2.2V149.1z"/>
	<g id="Gruppe_12389" transform="translate(50.029 123.675)">
		<path id="Pfad_13365" class="st2" d="M71.1,28.3l-0.5-6.7l2.2-0.2l0.5,6.7L71.1,28.3z"/>
	</g>
	<g>
		<defs>
			<rect id="SVGID_3_" x="70.6" y="21.4" width="108.7" height="206"/>
		</defs>
		<clipPath id="SVGID_4_">
			<use xlink:href="#SVGID_3_"  style="overflow:visible;"/>
		</clipPath>
		<g id="Gruppe_12451" class="st7">
			<g id="Gruppe_12390" transform="translate(64.25 71.746)">
				<path id="Pfad_13366" class="st8" d="M73.4,71.4c-1.3-16.4-2.2-32.9-2.8-49.4c0-0.6,0.3-0.7,0.3,0c1.3,16.5,2.2,32.9,2.8,49.4
					C73.7,72,73.4,72,73.4,71.4"/>
			</g>
			<g id="Gruppe_12391" transform="translate(58.216 70.782)">
				<path id="Pfad_13367" class="st8" d="M74.2,72.7c-1.6-16.9-2.8-33.8-3.6-50.8c0-0.7,0.3-0.7,0.3,0c1.5,16.9,2.8,33.8,3.6,50.8
					C74.6,73.4,74.3,73.4,74.2,72.7"/>
			</g>
			<g id="Gruppe_12392" transform="translate(70.76 78.52)">
				<path id="Pfad_13368" class="st8" d="M75.1,21.8l8.3-0.3l0.4,0l0,0.4c-0.1,2.3-0.2,4.5-0.2,6.8c0,1.1,0,2.3,0.1,3.4l0.1,1.7
					c0,0.4,0,0.7-0.2,1c-0.2,0.3-0.4,0.6-0.7,0.8l-2.7,2.1l-1.3,1l-0.3,0.3c-0.1,0.1-0.3,0.2-0.5,0.3c-0.2,0.1-0.5,0.1-0.7-0.1
					C77.1,39,77,39,76.9,38.9l-6-3.2l-0.2-0.1v-0.2c-0.1-4.2-0.1-8.4-0.1-12.6c0-0.6,0.3-0.6,0.3,0c0.2,4.2,0.4,8.4,0.5,12.6
					l-0.2-0.3l6,3.1c0.1,0.1,0.3,0.1,0.4,0.2c0,0,0.1,0,0.1,0l0,0l0,0l0,0l0,0c0.1,0,0.2-0.1,0.2-0.2l0.3-0.3l1.3-1.1l2.7-2.1
					c0.4-0.2,0.6-0.7,0.5-1.1L82.8,32c0-1.1,0-2.3,0-3.4c0-2.3,0.2-4.6,0.4-6.8l0.3,0.4l-8.3,0C74.5,22.1,74.5,21.8,75.1,21.8"/>
			</g>
			<g id="Gruppe_12393" transform="translate(30.2 68.179)">
				<path id="Pfad_13369" class="st8" d="M77.5,39.7c-0.5-3.2-1.1-6.4-2.1-9.6c-0.9-3.1-2.5-6-4.8-8.3c-0.2-0.2,0-0.4,0.2-0.2
					c2.6,2.2,4.4,5.1,5.4,8.3c0.9,3.2,1.5,6.5,1.6,9.8C77.8,39.9,77.5,39.9,77.5,39.7"/>
			</g>
			<g id="Gruppe_12394" transform="translate(87.471 65.153)">
				<path id="Pfad_13370" class="st8" d="M70.6,34.4c0.1-4.4,1-8.8,2.8-12.8c0.1-0.2,0.4-0.1,0.3,0.1c-1.1,4.2-2,8.5-2.8,12.8
					C70.9,34.6,70.6,34.5,70.6,34.4"/>
			</g>
			<g id="Gruppe_12395" transform="translate(85.636 86.304)">
				<path id="Pfad_13371" class="st8" d="M70.7,55.4c-0.3-11.2-0.1-22.4,0.4-33.7c0-0.4,0.3-0.4,0.3,0c0.2,11.2,0.1,22.5-0.4,33.7
					C71,55.9,70.7,55.9,70.7,55.4"/>
			</g>
			<g id="Gruppe_12396" transform="translate(37.687 91)">
				<path id="Pfad_13372" class="st8" d="M75.6,52.6c-1.5-10.3-3.2-20.5-5-30.8c-0.1-0.4,0.2-0.5,0.3-0.1c2.5,10.1,4.2,20.4,5,30.8
					C75.9,53,75.6,53,75.6,52.6"/>
			</g>
			<g id="Gruppe_12397" transform="translate(71.389 83.728)">
				<path id="Pfad_13373" class="st8" d="M80.7,21.8c-0.7,0.5-1.3,1.2-2,1.8c-0.4,0.3-0.9,0.6-1.4,0.7c-0.1,0-0.3,0.1-0.4,0.1
					c-0.1,0-0.3,0-0.4,0c-0.3,0-0.5,0-0.7-0.1c-0.9-0.3-1.7-0.6-2.6-1c-0.4-0.2-0.8-0.4-1.2-0.5c-0.4-0.2-0.8-0.2-1.2-0.2
					c-0.1,0-0.2-0.3-0.1-0.3c0.1,0,0.2-0.1,0.4-0.1c0.1,0,0.2,0,0.4,0c0.2,0,0.5,0,0.7,0.1c0.5,0.1,0.9,0.2,1.3,0.4
					c0.9,0.3,1.7,0.6,2.5,0.9c0.2,0,0.4,0.1,0.6,0.1c0.1,0,0.2,0,0.3,0c0.1,0,0.2,0,0.3,0c0.4-0.1,0.8-0.2,1.1-0.5
					c0.7-0.6,1.5-1.1,2.3-1.5C80.6,21.4,80.8,21.7,80.7,21.8"/>
			</g>
			<g id="Gruppe_12398" transform="translate(42.6 79.19)">
				<path id="Pfad_13374" class="st8" d="M71,27.2c0.2,1.2,0.4,2.3,0.5,3.5c0.2,1.1,0.7,2.2,0.8,3.5L72,33.9
					c1.2,0.4,2.5,0.8,3.7,1.4c1.2,0.5,2.4,1.3,3.3,2.2l-0.6,0c1-1.1,2.2-2,3.1-3.1c0.4-0.5,0.8-1.1,1-1.7c0.2-0.7,0.2-1.3,0.1-2
					c-0.1-0.7-0.3-1.4-0.4-2.2c0-0.2-0.1-0.4-0.1-0.6l0-0.5c0-0.4-0.1-0.7-0.1-1.1c-0.1-0.7-0.2-1.5-0.2-2.2c-0.1-0.8,0-1.6,0.2-2.3
					l0.3,0.5c-1.8,0-3.5,0.2-5.2,0.6c-1.8,0.4-3.6,0.5-5.4,0.5c-0.5-0.1-0.5-0.4,0-0.3c1.8,0,3.5-0.3,5.2-0.7
					c1.7-0.4,3.5-0.7,5.3-0.8h0.5l-0.1,0.5c-0.1,0.7-0.2,1.4-0.1,2.1c0.1,0.7,0.2,1.4,0.3,2.2c0.1,0.4,0.1,0.7,0.1,1.1l0.1,0.6
					c0,0.2,0,0.3,0.1,0.5c0.1,0.7,0.3,1.4,0.4,2.2c0.1,0.4,0.1,0.8,0.1,1.2c0,0.2,0,0.4,0,0.6c0,0.2-0.1,0.4-0.1,0.6
					c-0.3,0.8-0.7,1.5-1.2,2.1C81.2,36.1,80,37,79,38l-0.3,0.3L78.4,38c-0.9-0.9-1.9-1.6-3.1-2.1c-1.1-0.6-2.3-1-3.5-1.4l-0.2-0.1
					l0-0.2c-0.1-1.1-0.3-2.3-0.6-3.4c-0.1-1.2-0.1-2.4-0.3-3.5C70.5,26.7,70.8,26.6,71,27.2"/>
			</g>
			<g id="Gruppe_12399" transform="translate(44.049 82.928)">
				<path id="Pfad_13375" class="st8" d="M80.5,21.7c-1,1.2-2.1,2.2-3.3,3.2l0.2-0.4c0,0,0,0.1,0,0.1c0,0.1,0.1,0.2,0.1,0.3l0.1,0.7
					L77,25.4c-1-0.3-2-0.6-3.1-0.9c-1-0.3-2.1-0.4-3.2-0.5c-0.1,0-0.2-0.3,0-0.3c1.1-0.2,2.2-0.1,3.3,0c1.1,0.2,2.2,0.4,3.2,0.8
					L76.7,25c0,0,0-0.1,0-0.1c0-0.1-0.1-0.2-0.1-0.3l0-0.3l0.2-0.1c1.2-0.8,2.3-1.9,3.6-2.7C80.4,21.4,80.6,21.6,80.5,21.7"/>
			</g>
			<g id="Gruppe_12400" transform="translate(60.086 75.122)">
				<path id="Pfad_13376" class="st8" d="M73.1,21.5c0.1,0.1,0.1,0.1,0.2,0.2c0.1,0.1,0.1,0.2,0.1,0.3c0,0.2,0,0.5-0.2,0.7
					c-0.3,0.4-0.7,0.6-1.1,0.6c-0.4,0-0.9-0.1-1.2-0.5c-0.3-0.3-0.4-0.7-0.3-1.1c0-0.1,0.3-0.1,0.3-0.1c0.1,0.5,0.6,0.8,1.1,0.7
					c0.2,0,0.4-0.1,0.6-0.2c0.2-0.1,0.3-0.3,0.2-0.5C72.8,21.6,73,21.4,73.1,21.5"/>
			</g>
			<g id="Gruppe_12401" transform="translate(61.389 93.274)">
				<path id="Pfad_13377" class="st8" d="M73,21.5c0.3,0.3,0.3,0.8,0.2,1.2c-0.2,0.4-0.5,0.8-1,0.9c-0.4,0.1-0.9,0-1.3-0.3
					c-0.1-0.1-0.2-0.2-0.2-0.3c-0.1-0.1-0.1-0.2-0.1-0.3c0-0.1,0-0.2,0-0.3l0.1-0.3c0-0.1,0.3-0.1,0.3,0l0.1,0.2
					c0,0.1,0.1,0.1,0.1,0.1c0,0,0.1,0.1,0.1,0.1l0.1,0.1c0.2,0.1,0.4,0.1,0.6,0c0.2,0,0.4-0.2,0.5-0.3c0.1-0.2,0.2-0.5,0.1-0.7
					C72.7,21.5,73,21.4,73,21.5"/>
			</g>
			<g id="Gruppe_12402" transform="translate(63.105 115.689)">
				<path id="Pfad_13378" class="st8" d="M73.3,21.5c0.1,0.4,0.1,0.8,0,1.1c-0.2,0.4-0.5,0.7-0.9,0.8c-0.4,0.1-0.9,0.1-1.2-0.2
					c-0.2-0.1-0.3-0.3-0.4-0.5c0-0.1-0.1-0.2-0.1-0.3l0-0.2c0-0.1,0.3-0.2,0.3-0.1c0.2,0.4,0.8,0.6,1.2,0.5c0.5-0.2,0.8-0.6,0.9-1.1
					C73,21.5,73.3,21.4,73.3,21.5"/>
			</g>
			<g id="Gruppe_12403" transform="translate(60.26 73.471)">
				<path id="Pfad_13379" class="st8" d="M73.2,22.6c-0.5,0-1-0.1-1.4-0.3c-0.1-0.1-0.3-0.1-0.4-0.1c-0.2,0-0.4,0.1-0.6,0.3
					c0,0-0.3-0.2-0.3-0.2c0.1-0.3,0.3-0.5,0.5-0.7c0.3-0.2,0.6-0.2,1-0.1c0.5,0.2,0.9,0.4,1.3,0.8C73.3,22.3,73.3,22.6,73.2,22.6"/>
			</g>
			<g id="Gruppe_12404" transform="translate(61.371 91.958)">
				<path id="Pfad_13380" class="st8" d="M72.3,22.3c-0.2,0-0.5,0-0.7,0.1c-0.2,0.1-0.4,0.2-0.6,0.4l-0.3,0c-0.1-0.5,0.2-1,0.7-1.2
					c0.5-0.2,1.1,0.1,1.2,0.6C72.5,22.1,72.3,22.3,72.3,22.3"/>
			</g>
			<g id="Gruppe_12405" transform="translate(62.972 114.089)">
				<path id="Pfad_13381" class="st8" d="M72.6,22.3c-0.3-0.1-0.6-0.1-0.9,0c-0.3,0.1-0.5,0.3-0.7,0.6l-0.3,0
					c-0.1-0.6,0.2-1.2,0.7-1.4c0.6-0.2,1.2,0,1.5,0.5C72.8,22.1,72.6,22.3,72.6,22.3"/>
			</g>
			<g id="Gruppe_12406" transform="translate(30.566 63.393)">
				<path id="Pfad_13382" class="st8" d="M76.3,21.7c-1.6,1.5-3.5,2.7-5.5,3.6c-0.1,0-0.2-0.2-0.2-0.3c1.6-1.5,3.5-2.7,5.5-3.6
					C76.2,21.4,76.4,21.7,76.3,21.7"/>
			</g>
			<g id="Gruppe_12407" transform="translate(83.584 61.417)">
				<path id="Pfad_13383" class="st8" d="M70.7,21.4c2,0.4,3.9,1.2,5.6,2.3c0.1,0,0,0.3-0.1,0.3c-2-0.4-3.9-1.2-5.6-2.3
					C70.5,21.7,70.7,21.4,70.7,21.4"/>
			</g>
			<g id="Gruppe_12408" transform="translate(40.383 60.365)">
				<path id="Pfad_13384" class="st8" d="M79.8,26.5c-1.6-0.6-3.2-1.1-4.8-1.8c-1.6-0.7-3.1-1.7-4.3-2.9c-0.1-0.1,0.1-0.3,0.2-0.3
					c2.8,2,6.2,2.7,9.1,4.7C80,26.2,79.9,26.5,79.8,26.5"/>
			</g>
			<g id="Gruppe_12409" transform="translate(73.619 54.152)">
				<path id="Pfad_13385" class="st9" d="M72,21.4c2.2,3.7,3.9,19.5-1.3,31.6c-0.4,1,0.3,9.2,5.3,2.4c5-6.8,4.5-23.3,4.9-24.9
					C81.3,28.6,74.3,22.3,72,21.4"/>
			</g>
			<g id="Gruppe_12410" transform="translate(75.044 54.152)">
				<path id="Pfad_13386" class="st10" d="M70.6,21.4c2,3.3,3.5,15.9,0.3,27.1c0,0.4,0,0.7,0.1,1.1c0.4,0.2,0.5-1.1,1-1.9
					c0.4-0.8,1.8-6.8,1.7-15.1c0-3.5-0.4-6.9-1.3-10.2C71.8,22,71.2,21.7,70.6,21.4"/>
			</g>
			<g id="Gruppe_12411" transform="translate(80.503 16.117)">
				<path id="Pfad_13387" class="st2" d="M76.1,21.5c0,0.9,0.1,1.8,0.3,2.6c0.1,1,0.1,2.1,0.1,3.1c0,2-0.4,4-1.2,5.9
					c0.1-1.8-1.1-4.3-1.8-6c-0.7-1.8-1.7-3.4-2.8-4.9c0.7-0.5,1.7-0.4,2.5-0.5C74.1,21.5,75.1,21.4,76.1,21.5"/>
			</g>
			<g id="Gruppe_12412" transform="translate(32.328 31.687)">
				<path id="Pfad_13388" class="st11" d="M82.9,36.4c-1.2-3-0.5-7.3-0.7-10.6c-0.2-3.5-0.4-4.8-4-4.3c-2.7,0.4-5.6,1.2-7.1,3.7
					c-1,1.7-0.5,3.8,0,5.6c0.9,2.9,3.5,4.9,5.3,7.2c1.3,1.7,1.7,3.5,2.6,5.4c0.3,1,0.8,1.9,1.4,2.6c1,0.9,4.3,1,5.7,0.9
					C84.7,43.5,83.6,40,82.9,36.4"/>
			</g>
			<g id="Gruppe_12413" transform="translate(44.589 13.027)">
				<path id="Pfad_13389" class="st11" d="M107.2,60c0.1-2.2,1.1-4.3,1.7-6.3c0.4-2,0.5-4,0.3-6c0-2.5,0.4-4.9,1.3-7.2
					c1.7-4.7,1.1-11-2.6-14.7c-0.7-0.7-1.6-1.3-2.5-1.7c-0.6-0.3-1.3-0.4-2-0.6c-0.4,0-0.9-0.1-1.3-0.2c-1-0.2-2-0.3-2.9-0.3
					c-1.5-0.2-2.9-0.3-4.4-0.3c-2.9-0.2-5.7-0.3-8.6-0.4c-3.3-0.2-6.8-1.1-10.1-0.7c-2.6,0.3-3.1,3.7-3.6,5.9
					c-1.4,6.2-2.1,12.5-1.9,18.9c0.1,9,5.9,18,14.4,21c4.1,1.4,8.2,2,12.3,0c1.4-0.9,2.7-1.9,3.8-3c1.1-0.8,2-1.8,2.7-3"/>
			</g>
			<g id="Gruppe_12414" transform="translate(30.148 0.832)">
				<path id="Pfad_13390" class="st2" d="M90.5,50.8c-0.9-1.9-1.4-3.8-1.7-5.9c-0.5-3.7,1.7-5.7,3.2-8.8c3.4,1.7,8.3,1.1,12.1,1.3
					c4.9,0.2,9.8,0.7,14.8,0.6c4.2-0.1,8.5-0.1,11.8-3.2c2-2,3.4-4.7,3.7-7.6c-1.4,1.1-4.2,0.4-5.8,0.1c-3.8-0.7-7.5-1.9-11.3-2.7
					c-5.4-1.2-10.7-2.4-16.2-2.8c-5.1-0.3-10.5-0.9-15.4,0.9c-2.2,0.8-3.8,2.7-4.2,5c-6.6,0.2-9.8,4.6-10.4,10.9S70.3,52,71.6,58.1
					c0.3,1.6,0.8,3.2,1.5,4.7c1,2.3,2.3,4.5,4,6.4c1.1,1.3,2.7,2.5,3.6,4c0-2.1-0.6-4.3-0.7-6.5c-1.3,0.3-2.8-1.2-3.7-2.1
					c-1.8-1.9-3-4.7-2.3-7.3c1-4,5.3-3,8.2-3.1c0.3,3.8,0.8,7.6,1.5,11.4c0.4-1.2,1.8-1.2,2.5-2.1c0.6-0.8,0.6-2.8,0.9-4
					C87.8,56.5,88.7,53.2,90.5,50.8"/>
			</g>
			<g id="Gruppe_12415" transform="translate(43.088 41.64)">
				<path id="Pfad_13391" class="st2" d="M96,26.8c1.1-1.8,5.7-1.8,7.6-1.2c1.8,0.6,3.4,1.8,4.6,3.3c2.6,3.8-0.7,8.6-3,11.8
					c-1.3,1.8-2.6,3.7-4,5.5c-1.1,1.5-3,3.2-3.4,5.1c-7.3,0.6-14.4-1.7-20-6.4c-4.5-3.9-7.1-11.2-7.2-17.1c0-1.6,0-3.1,0-4.6
					c1.6-1,2.2-2,4.3-1.6c3.9,0.8,4.1,4.3,5.7,7.2c-0.5-3.6,6.2-4.3,8.6-4.2C91.7,24.6,94,25.5,96,26.8"/>
			</g>
			<g id="Gruppe_12416" transform="translate(58.666 48.681)">
				<path id="Pfad_13392" class="st11" d="M70.7,21.4c5.2,2.1,11.6,0.9,17,1.5c-1.9,3.8-5,6-9.3,5.5c-2.1-0.2-4.1-1.2-5.5-2.8
					C71.8,24.5,70.2,22.6,70.7,21.4"/>
			</g>
			<g id="Gruppe_12417" transform="translate(77.291 34.464)">
				<path id="Pfad_13393" class="st12" d="M70.9,26.7c-0.1-1.6-0.9-3.5,0.5-4.8c1.3-1.3,2,0.2,2.1,1.5c0.1,1,0,2.9-1,3.6
					C71.7,27.6,70.7,27,70.9,26.7"/>
			</g>
			<g id="Gruppe_12418" transform="translate(56.766 34.464)">
				<path id="Pfad_13394" class="st12" d="M70.9,26.7c-0.1-1.6-0.9-3.5,0.5-4.8c1.3-1.3,2,0.2,2.1,1.5c0.1,1,0,2.9-1,3.6
					C71.7,27.6,70.7,27,70.9,26.7"/>
			</g>
			<g id="Gruppe_12419" transform="translate(77.122 25.447)">
				<path id="Pfad_13395" class="st2" d="M70.6,25.1c0,0,0-0.2,0-0.5c0.1-0.4,0.2-0.8,0.4-1.1c0.3-0.5,0.6-0.9,1.1-1.3
					c0.6-0.5,1.4-0.7,2.2-0.7c0.9,0,1.7,0.5,2.3,1.2c0.4,0.5,0.6,1.1,0.6,1.7c0,0.4,0,0.8-0.1,1.2c-0.1,0.3-0.2,0.5-0.2,0.5
					l-0.4-0.2c-0.2-0.2-0.6-0.4-0.9-0.6c-0.3-0.2-0.6-0.4-0.9-0.5c-0.2-0.1-0.3-0.1-0.5,0c-0.3,0-0.5,0-0.8,0
					c-0.4,0-0.8,0.1-1.2,0.2c-0.4,0.1-0.8,0.1-1,0.2C70.8,25.1,70.6,25.1,70.6,25.1"/>
			</g>
			<g id="Gruppe_12420" transform="translate(55.588 24.998)">
				<path id="Pfad_13396" class="st2" d="M77.6,24.7l0.2,0.5v0l0,0.2l-0.4,0c-0.4-0.1-0.8-0.2-1.2-0.5c-0.2-0.1-0.4-0.2-0.6-0.3
					c-0.1,0-0.2,0-0.4,0c-0.1,0.1-0.3,0.1-0.6,0.1c-0.4,0-0.7,0.1-1.1,0.2c-0.4,0.1-0.9,0.1-1.2,0.2c-0.4,0.1-0.8,0.1-1.1,0.2
					c-0.2,0-0.3,0-0.5,0.1c0,0,0-0.2,0-0.5c0.1-0.4,0.2-0.8,0.4-1.2c0.3-0.5,0.7-1,1.1-1.3c0.6-0.4,1.2-0.7,1.9-0.9
					c0.4,0,0.8,0,1.2,0c0.5,0.1,0.9,0.3,1.2,0.6c0.3,0.2,0.6,0.6,0.8,1c0.1,0.2,0.2,0.5,0.2,0.8c0.1,0.4,0,0.8,0.1,1l-0.5,0.1l0,0
					L77.6,24.7"/>
			</g>
			<g id="Gruppe_12421" transform="translate(60.619 50.084)">
				<path id="Pfad_13397" class="st13" d="M70.9,21.7c0.6-0.3,2.2,0,3,0.1c1.2,0.2,2.4,0.3,3.6,0.4c2.2,0,4.5,0.2,6.6,0.1
					c-0.6,0.8-0.8,2-1.6,2.7c-1,0.9-2.7,0.9-3.9,0.9c-2,0-5.1,0.2-6.6-1.3c-0.8-0.7-1-2-1.4-3C70.7,21.4,70.8,21.4,70.9,21.7"/>
			</g>
			<g id="Gruppe_12422" transform="translate(61.154 51.683)">
				<path id="Pfad_13398" class="st14" d="M77.4,22.1c-1.6,0-3.2-0.1-4.7-0.3c-0.7-0.1-1.4-0.2-2.1-0.4c0.2,0.5,0.5,1,0.9,1.5
					c1.5,1.5,4.7,1.3,6.6,1.3c1.2,0,2.9,0,3.9-0.9c0.4-0.4,0.7-0.8,0.9-1.3C81.1,22,79.2,22.1,77.4,22.1"/>
			</g>
			<g id="Gruppe_12423" transform="translate(66.716 43.477)">
				<path id="Pfad_13399" class="st15" d="M70.6,22.6c0,0,0.1-0.1,0.2-0.2c0.2-0.1,0.3-0.3,0.5-0.4c0.3-0.2,0.5-0.3,0.8-0.4
					c0.3-0.1,0.7-0.2,1-0.2c0.3,0,0.7,0,1,0.1c0.3,0.1,0.6,0.2,0.8,0.4c0.2,0.1,0.4,0.3,0.5,0.5l0.2,0.2l-0.3,0.1
					c-0.2,0.1-0.4,0.1-0.6,0.2c-0.2,0-0.5,0.1-0.8,0.1c-0.3,0-0.6,0-0.9,0c-0.3,0-0.6-0.1-0.9-0.1c-0.3,0-0.6-0.2-0.8-0.2
					c-0.2,0-0.5-0.1-0.6-0.2C70.7,22.6,70.6,22.6,70.6,22.6"/>
			</g>
			<g id="Gruppe_12424" transform="translate(37.457 35.714)">
				<path id="Pfad_13400" class="st15" d="M73.7,28.1c0,0-0.2,0-0.4,0c-0.4,0-0.8,0-1.2-0.1c-0.3-0.1-0.6-0.3-0.8-0.5
					c-0.3-0.3-0.5-0.6-0.6-1c-0.1-0.4-0.1-0.8,0.1-1.2c0.1-0.4,0.2-0.7,0.4-1c0.3-0.4,0.5-0.7,0.7-1.2c0.1-0.2,0-0.5-0.2-0.7
					c-0.2-0.2-0.5-0.3-0.8-0.2c-0.1,0-0.3,0-0.4,0.1l0-0.1c0-0.1,0.1-0.2,0.2-0.3c0.1-0.1,0.3-0.3,0.5-0.4c0.3-0.1,0.6-0.2,0.8-0.1
					c0.4,0.1,0.7,0.3,0.9,0.6c0.3,0.3,0.5,0.8,0.4,1.2c-0.1,0.7-0.3,1.4-0.8,2c-0.2,0.3-0.4,0.7-0.5,1.1c-0.1,0.4,0,0.7,0.3,0.9
					c0.3,0.2,0.5,0.5,0.8,0.6C73.5,28,73.6,28.1,73.7,28.1"/>
			</g>
			<g id="Gruppe_12425" transform="translate(33.423 39.148)">
				<path id="Pfad_13401" class="st15" d="M79.8,28.1l-0.5,0.2c-0.5,0.2-1,0.3-1.4,0.4c-0.3,0-0.6,0.1-1,0.1c-0.4,0-0.8,0-1.2,0
					c-0.4-0.1-0.9-0.3-1.2-0.6c-0.3-0.3-0.7-0.6-0.9-0.9c-0.5-0.6-1-1.3-1.5-2c-0.4-0.6-0.7-1.2-1-1.9c-0.2-0.5-0.3-1-0.4-1.5
					c0-0.4,0-0.6,0-0.6c0.1,0.2,0.1,0.4,0.2,0.5c0.2,0.5,0.4,0.9,0.6,1.3c0.4,0.6,0.7,1.1,1.2,1.7c0.5,0.6,0.9,1.3,1.5,1.8
					c0.4,0.6,1,1,1.7,1.3c0.6,0.2,1.3,0.2,2,0.2c0.5,0,1,0,1.5-0.1C79.4,28.2,79.6,28.2,79.8,28.1"/>
			</g>
			<g id="Gruppe_12426" transform="translate(78.768 35.389)">
				<path id="Pfad_13402" class="st16" d="M70.7,21.4c0,0,0,0,0.1,0.1c0.1,0.1,0.2,0.1,0.2,0.2c0.1,0.1,0.2,0.2,0.2,0.3
					c0.1,0.1,0.1,0.3,0.2,0.4c0,0.1,0,0.3,0,0.4c0,0.1,0,0.3-0.1,0.4c0,0.1-0.1,0.2-0.1,0.3l-0.1,0.1l-0.1-0.1
					c0-0.1-0.1-0.1-0.2-0.2c0-0.1-0.1-0.2-0.2-0.3c0-0.1-0.1-0.2-0.1-0.4c0-0.1,0-0.3,0-0.4c0-0.1,0-0.3,0-0.4c0-0.1,0-0.2,0-0.3
					C70.6,21.5,70.7,21.4,70.7,21.4"/>
			</g>
			<g id="Gruppe_12427" transform="translate(58.377 35.498)">
				<path id="Pfad_13403" class="st16" d="M70.8,21.4l0.1,0.1c0,0.1,0.1,0.2,0.2,0.3c0.1,0.1,0.1,0.3,0.2,0.4
					c0.1,0.2,0.1,0.3,0.1,0.5c0,0.2,0,0.3,0,0.5c0,0.2,0,0.3-0.1,0.5c0,0.1-0.1,0.2-0.1,0.3l-0.1,0.1l-0.1-0.1
					c-0.1-0.1-0.1-0.2-0.2-0.3c-0.1-0.1-0.1-0.3-0.2-0.4c0-0.2-0.1-0.3-0.1-0.5c0-0.2,0-0.3,0-0.5c0-0.2,0-0.3,0.1-0.5
					c0-0.1,0.1-0.3,0.1-0.3L70.8,21.4"/>
			</g>
			<g id="Gruppe_12428" transform="translate(59.926 49.915)">
				<path id="Pfad_13404" class="st15" d="M70.6,21.7c0,0-0.1-0.1,0-0.1c0,0,0,0,0,0c0.1-0.1,0.3-0.1,0.5-0.1l1.7,0.2
					c0.7,0.1,1.5,0.1,2.4,0.2C76.1,21.9,77,22,78,22c0.9,0,1.9,0.1,2.8,0.1s1.7,0.1,2.4,0.1l1.7,0l0.7,0l-0.6,0.1
					c-0.4,0.1-1,0.2-1.7,0.2s-1.5,0.1-2.4,0.1c-0.9,0-1.9,0-2.8-0.1c-0.9,0-1.9-0.2-2.8-0.3s-1.7-0.3-2.4-0.4
					c-0.7-0.1-1.3-0.3-1.7-0.4c-0.1-0.1-0.3-0.1-0.4,0C70.6,21.6,70.6,21.7,70.6,21.7C70.6,21.7,70.6,21.7,70.6,21.7"/>
			</g>
			<g id="Gruppe_12429" transform="translate(70.68 36.414)">
				<path id="Pfad_13405" class="st15" d="M71,21.4l0.1,0.3c0,0.2,0.1,0.4,0.2,0.7s0.1,0.7,0.2,1c0,0.4,0.1,0.8,0.1,1.2
					c0,0.4,0,0.8,0,1.2c0,0.4-0.1,0.7-0.1,1s-0.1,0.6-0.1,0.7L71.2,28l-0.1-0.3c-0.1-0.2-0.2-0.5-0.2-0.7c-0.1-0.3-0.2-0.7-0.2-1
					c0-0.4-0.1-0.8-0.1-1.2c0-0.4,0-0.8,0-1.2c0-0.4,0.1-0.7,0.1-1c0-0.2,0.1-0.5,0.2-0.7L71,21.4"/>
			</g>
			<g id="Gruppe_12430" transform="translate(51.999 5.934)">
				<path id="Pfad_13406" class="st1" d="M70.6,29.4l0.1-0.4c0.1-0.3,0.2-0.7,0.3-1c0.5-1.2,1.2-2.3,2.2-3.1
					c1.3-1.2,2.9-2.2,4.7-2.7c2-0.6,4.1-0.8,6.1-0.7c2,0.1,4.1,0.3,6.1,0.6c1.9,0.3,3.7,0.6,5.2,0.6c1.2,0.1,2.5,0.1,3.7,0
					c0.4,0,0.8-0.1,1-0.1l0.4,0l-0.4,0.1c-0.2,0.1-0.6,0.1-1,0.2c-1.2,0.2-2.5,0.4-3.8,0.3c-1.8,0-3.6-0.1-5.3-0.4
					c-1.9-0.2-4-0.5-6-0.6c-2-0.1-4,0.1-5.9,0.5c-1.7,0.4-3.2,1.2-4.6,2.3c-1,0.8-1.8,1.7-2.4,2.8c-0.2,0.3-0.3,0.6-0.4,1L70.6,29.4
					"/>
			</g>
			<g id="Gruppe_12431" transform="translate(60.645 8.285)">
				<path id="Pfad_13407" class="st1" d="M72.3,29.1c-0.4-0.2-0.8-0.5-1.1-0.8c-0.3-0.5-0.5-1-0.6-1.5c-0.1-0.7,0.1-1.5,0.4-2.1
					c0.4-0.7,1.1-1.4,1.8-1.8c0.8-0.5,1.7-0.8,2.6-0.9c2-0.3,3.9-0.5,5.9-0.5c2,0,4,0.2,5.9,0.3c1.9,0.1,3.6,0.2,5.1,0.2
					c1.2,0,2.4,0,3.6-0.2l1.4-0.2L96.1,22c-1.2,0.2-2.4,0.4-3.6,0.5c-1.5,0.1-3.3,0.1-5.2,0c-1.9-0.1-3.9-0.2-5.9-0.2
					c-1.9-0.1-3.9,0-5.8,0.3c-0.9,0.1-1.7,0.4-2.5,0.8c-0.7,0.3-1.3,0.8-1.7,1.5c-0.3,0.6-0.5,1.2-0.5,1.9c0,0.5,0.1,1,0.4,1.5
					C71.5,28.6,71.8,28.9,72.3,29.1"/>
			</g>
			<g id="Gruppe_12432" transform="translate(55.6 9.403)">
				<path id="Pfad_13408" class="st1" d="M71.5,27.9c-0.1-0.1-0.2-0.1-0.2-0.2c-0.2-0.2-0.3-0.5-0.4-0.7c-0.2-0.4-0.2-0.8-0.2-1.2
					c0-0.5,0.1-1,0.2-1.4c0.2-0.4,0.4-0.9,0.7-1.2c0.2-0.3,0.5-0.6,0.8-0.9c0.2-0.2,0.4-0.4,0.6-0.5l0.3-0.2c0,0-0.1,0.1-0.1,0.3
					c-0.1,0.2-0.2,0.4-0.4,0.7s-0.3,0.6-0.5,1c-0.2,0.4-0.4,0.7-0.5,1.1c-0.2,0.4-0.3,0.8-0.3,1.2c-0.1,0.4-0.1,0.7,0,1.1
					c0,0.3,0.1,0.5,0.2,0.8C71.4,27.7,71.5,27.8,71.5,27.9"/>
			</g>
			<g id="Gruppe_12433" transform="translate(82.292 7.637)">
				<path id="Pfad_13409" class="st1" d="M81.4,21.4l-0.2,0.6c-0.1,0.5-0.3,1.1-0.5,1.6c-0.3,0.8-0.7,1.5-1.1,2.2
					c-0.5,0.8-1.2,1.5-1.9,2.1c-0.8,0.5-1.6,0.9-2.5,1.2c-0.8,0.3-1.6,0.4-2.3,0.6c-0.7,0.2-1.2,0.3-1.6,0.5
					c-0.2,0.1-0.3,0.1-0.4,0.2l-0.2,0.1l0.1-0.1c0.1-0.1,0.2-0.2,0.4-0.3c0.5-0.3,1-0.6,1.5-0.8c0.7-0.3,1.4-0.5,2.2-0.8
					c0.8-0.3,1.6-0.6,2.4-1.1c0.7-0.5,1.4-1.1,1.9-1.8c0.5-0.6,0.9-1.3,1.3-2c0.3-0.6,0.6-1.1,0.8-1.5S81.4,21.4,81.4,21.4"/>
			</g>
			<g id="Gruppe_12434" transform="translate(49.649 3.818)">
				<path id="Pfad_13410" class="st1" d="M70.6,30.1c0,0,0-0.2,0.1-0.6c0.1-0.5,0.2-1,0.4-1.6c0.2-0.7,0.6-1.4,1-2
					c0.5-0.7,1.1-1.4,1.7-2c0.7-0.6,1.4-1,2.2-1.4c0.7-0.3,1.4-0.6,2.1-0.8c0.5-0.1,1-0.2,1.6-0.3l0.6,0l-0.5,0.2
					c-0.4,0.1-0.8,0.4-1.4,0.6c-0.6,0.2-1.2,0.6-1.9,1c-0.7,0.4-1.4,0.9-2,1.4c-0.6,0.5-1.2,1.1-1.7,1.7c-0.5,0.5-0.9,1.1-1.2,1.7
					c-0.3,0.4-0.5,0.9-0.6,1.4c-0.1,0.1-0.1,0.3-0.1,0.4L70.6,30.1"/>
			</g>
			<g id="Gruppe_12435" transform="translate(47.829 4.221)">
				<path id="Pfad_13411" class="st1" d="M70.6,28.7c0,0,0-0.2,0.1-0.4c0.1-0.4,0.2-0.8,0.3-1.1c0.2-0.5,0.5-1,0.8-1.5
					c0.4-0.5,0.8-1,1.2-1.5c0.5-0.4,0.9-0.8,1.5-1.2c0.5-0.3,1-0.6,1.4-0.8c0.4-0.2,0.8-0.4,1-0.5l0.4-0.2L77,21.7
					c-0.2,0.2-0.5,0.5-0.9,0.8c-0.4,0.3-0.8,0.7-1.2,1.1c-0.4,0.4-0.9,0.8-1.3,1.2c-0.4,0.4-0.9,0.9-1.2,1.3c-0.3,0.4-0.7,0.8-1,1.2
					c-0.2,0.3-0.4,0.6-0.6,1C70.7,28.4,70.6,28.6,70.6,28.7"/>
			</g>
			<g id="Gruppe_12436" transform="translate(45.17 2.214)">
				<path id="Pfad_13412" class="st1" d="M70.8,28.7c-0.1,0-0.1,0-0.1,0c-0.1-0.1-0.1-0.3,0-0.5c0.2-0.5,0.4-1,0.7-1.5
					c0.4-0.7,0.8-1.3,1.3-1.9c0.6-0.7,1.3-1.2,2-1.7c0.7-0.5,1.5-0.9,2.4-1.2c0.7-0.2,1.5-0.4,2.2-0.5c0.3,0,0.6-0.1,0.9,0
					c0.3,0,0.5,0,0.7,0l0.6,0.1l-0.6,0.1c-0.2,0-0.4,0.1-0.7,0.1c-0.3,0.1-0.5,0.1-0.8,0.2c-0.7,0.2-1.4,0.5-2,0.8
					c-0.7,0.3-1.5,0.7-2.2,1.2c-0.7,0.4-1.3,0.9-2,1.5c-0.6,0.5-1.1,1-1.5,1.5c-0.4,0.5-0.7,0.9-0.9,1.2c-0.1,0.1-0.1,0.3-0.1,0.4
					C70.7,28.7,70.8,28.7,70.8,28.7"/>
			</g>
			<g id="Gruppe_12437" transform="translate(42.89 3.669)">
				<path id="Pfad_13413" class="st1" d="M70.6,25.8c0,0,0-0.1,0-0.2c0-0.2,0.1-0.4,0.1-0.6c0.1-0.3,0.2-0.6,0.3-0.9
					c0.1-0.3,0.3-0.6,0.5-0.9c0.2-0.3,0.4-0.5,0.7-0.8c0.2-0.2,0.5-0.4,0.8-0.5c0.2-0.1,0.4-0.2,0.6-0.3l0.2-0.1l-0.2,0.2
					c-0.1,0.1-0.2,0.3-0.4,0.5s-0.3,0.4-0.5,0.7c-0.2,0.2-0.4,0.5-0.6,0.8c-0.2,0.3-0.4,0.5-0.6,0.8c-0.2,0.3-0.4,0.5-0.5,0.7
					c-0.1,0.2-0.3,0.4-0.3,0.5L70.6,25.8"/>
			</g>
			<g id="Gruppe_12438" transform="translate(42.273 14.828)">
				<path id="Pfad_13414" class="st1" d="M75.5,21.4c-0.1,0-0.2,0.1-0.3,0.2c-0.2,0.2-0.5,0.4-0.7,0.6c-0.3,0.3-0.6,0.6-0.8,1
					l-0.9,1.2c-0.3,0.4-0.6,0.8-0.9,1.2c-0.3,0.4-0.5,0.7-0.7,1.1s-0.4,0.6-0.5,0.8l-0.2,0.3l0.1-0.3c0.1-0.3,0.2-0.6,0.3-0.9
					c0.2-0.4,0.3-0.8,0.5-1.2c0.2-0.4,0.5-0.9,0.8-1.3c0.3-0.4,0.6-0.8,1-1.2c0.3-0.3,0.7-0.6,1-0.9c0.3-0.2,0.6-0.3,0.9-0.4
					C75.4,21.5,75.5,21.4,75.5,21.4"/>
			</g>
			<g id="Gruppe_12439" transform="translate(37.294 11.843)">
				<path id="Pfad_13415" class="st1" d="M77.1,21.4c-0.1,0.1-0.3,0.1-0.4,0.2c-0.3,0.2-0.7,0.4-1,0.7c-0.4,0.4-0.8,0.7-1.2,1.2
					c-0.4,0.5-0.8,1-1.2,1.5c-0.4,0.5-0.7,1.1-1,1.7c-0.3,0.5-0.6,1-0.9,1.5S71,29,70.8,29.2l-0.2,0.4l0.1-0.5
					c0.1-0.3,0.2-0.7,0.3-1.2s0.3-1.1,0.6-1.7c0.3-0.6,0.6-1.2,1-1.8C73,24,73.5,23.5,74,23c0.5-0.4,1-0.7,1.5-1
					c0.4-0.2,0.8-0.3,1.2-0.4L77.1,21.4"/>
			</g>
			<g id="Gruppe_12440" transform="translate(42.445 13.021)">
				<path id="Pfad_13416" class="st1" d="M73.3,21.4c0,0-0.1,0-0.1,0.1c-0.1,0.1-0.2,0.2-0.3,0.4c-0.1,0.1-0.3,0.3-0.4,0.5
					c-0.2,0.2-0.3,0.4-0.5,0.6c-0.2,0.2-0.3,0.4-0.5,0.6c-0.2,0.2-0.3,0.4-0.4,0.5c-0.1,0.2-0.2,0.3-0.3,0.4l-0.1,0.1
					c0,0,0-0.1,0-0.2c0-0.2,0-0.3,0.1-0.5c0.1-0.2,0.1-0.5,0.3-0.7c0.1-0.2,0.3-0.5,0.5-0.7c0.2-0.2,0.4-0.4,0.6-0.5
					c0.2-0.1,0.4-0.2,0.6-0.3c0.2-0.1,0.3-0.1,0.5-0.2C73.3,21.5,73.3,21.4,73.3,21.4"/>
			</g>
			<g id="Gruppe_12441" transform="translate(36.371 9.746)">
				<path id="Pfad_13417" class="st1" d="M75.9,21.4c0,0-0.1,0.1-0.3,0.3c-0.2,0.2-0.5,0.4-0.8,0.7c-0.3,0.3-0.7,0.7-1,1.1
					c-0.4,0.4-0.7,0.9-1,1.4c-0.3,0.5-0.6,1-0.9,1.5c-0.2,0.5-0.5,0.9-0.7,1.4c-0.2,0.4-0.3,0.8-0.4,1l-0.2,0.4c0,0,0-0.2,0-0.4
					c0-0.4,0.1-0.7,0.2-1.1c0.1-0.5,0.3-1,0.5-1.5c0.2-0.6,0.5-1.1,0.9-1.6c0.4-0.5,0.7-1,1.2-1.4c0.4-0.4,0.8-0.7,1.2-1
					c0.3-0.2,0.6-0.4,1-0.5C75.7,21.5,75.9,21.4,75.9,21.4"/>
			</g>
			<g id="Gruppe_12442" transform="translate(31.965 9.129)">
				<path id="Pfad_13418" class="st1" d="M78.9,21.5c-0.1,0-0.1,0-0.2,0c-0.2,0-0.3,0-0.5,0.1c-0.5,0.2-1,0.5-1.5,0.9
					c-0.6,0.4-1.3,0.9-2,1.4c-0.7,0.6-1.4,1.2-2,2c-0.5,0.7-0.9,1.6-1.2,2.5c-0.2,0.8-0.4,1.6-0.5,2.4c-0.1,0.7-0.2,1.3-0.2,1.8
					c-0.1,0.4-0.1,0.7-0.1,0.7s0-0.2-0.1-0.7c0-0.4-0.1-1.1-0.1-1.8c0-0.9,0.1-1.7,0.3-2.6c0.2-1,0.6-2,1.2-2.8
					c0.6-0.8,1.4-1.5,2.2-2.1c0.7-0.5,1.5-0.9,2.3-1.2c0.5-0.3,1.1-0.5,1.7-0.6c0.2,0,0.3,0,0.5,0L78.9,21.5"/>
			</g>
			<g id="Gruppe_12443" transform="translate(74.729 10.069)">
				<path id="Pfad_13419" class="st1" d="M70.6,27.8c0,0,0-0.1,0-0.2c0-0.2,0.1-0.4,0.1-0.6c0.2-0.7,0.5-1.3,1-1.8
					c0.6-0.7,1.4-1.4,2.2-1.9c0.9-0.6,1.9-1,3-1.3c1.1-0.3,2.1-0.5,3.2-0.6c0.9-0.1,1.9,0,2.8,0.1c0.8,0.1,1.5,0.2,2,0.3l0.7,0.2
					l-0.8,0c-0.5,0-1.2,0-2,0c-0.8,0-1.8,0.1-2.7,0.2c-1,0.1-2.1,0.3-3.1,0.6c-1,0.3-2,0.7-2.9,1.1c-0.8,0.4-1.6,0.9-2.2,1.5
					c-0.5,0.4-0.9,0.9-1.2,1.5C70.7,27.3,70.6,27.5,70.6,27.8"/>
			</g>
			<g id="Gruppe_12444" transform="translate(40.681 0.426)">
				<path id="Pfad_13420" class="st2" d="M75.5,21.6c-1.5,0.5-2.9,1.5-3.8,2.8c-0.9,1.4-1.1,3.1-0.4,4.6c0,0.1,0,0.1-0.1,0
					c-0.5-0.7-0.7-1.6-0.6-2.4c0-0.9,0.3-1.7,0.8-2.4c0.5-0.7,1.1-1.3,1.8-1.8c0.7-0.4,1.5-0.8,2.3-1C75.6,21.4,75.6,21.5,75.5,21.6
					"/>
			</g>
			<g id="Gruppe_12445" transform="translate(35.899 5.711)">
				<path id="Pfad_13421" class="st2" d="M70.6,21.8c1-0.5,2.2-0.5,3.3-0.1c0.5,0.2,1,0.5,1.4,0.9c0.4,0.4,0.8,0.8,1,1.3
					c0,0.1,0,0.1-0.1,0c-0.3-0.4-0.7-0.8-1.1-1.1c-0.4-0.3-0.9-0.5-1.4-0.7c-1-0.4-2.1-0.4-3.1-0.2C70.6,22,70.5,21.8,70.6,21.8"/>
			</g>
			<g id="Gruppe_12446" transform="translate(49.271 13.55)">
				<path id="Pfad_13422" class="st2" d="M86.6,26.5c-1.4,0.2-2.9,0.2-4.3,0.1c-1.4-0.1-2.9-0.4-4.2-0.8c-1.4-0.4-2.7-0.9-4-1.6
					c-1.3-0.6-2.5-1.6-3.3-2.7c-0.1-0.2-0.1-0.2,0.1-0.1c0.9,1.1,2.1,1.9,3.4,2.5c1.3,0.6,2.6,1.1,4,1.5c2.7,0.8,5.6,1.1,8.4,0.9
					C86.8,26.4,86.8,26.5,86.6,26.5"/>
			</g>
			<g id="Gruppe_12447" transform="translate(47.202 0)">
				<path id="Pfad_13423" class="st2" d="M116.7,27.4c-0.8,0.6-1.7,1-2.7,1.1c-1,0.1-2,0.1-3,0c-2-0.3-3.9-0.6-5.8-1.1
					c-3.8-0.9-7.6-2.2-11.3-3.3c-3.7-1.2-7.6-1.9-11.5-2.3c-2-0.1-3.9-0.1-5.9,0.2c-1,0.1-1.9,0.3-2.9,0.6c-1,0.2-1.9,0.6-2.6,1.2
					c-0.1,0.1-0.2,0.2-0.3,0.3c0,0,0,0,0.1-0.1c0.1-0.1,0.2-0.2,0.2-0.3c0.8-0.6,1.7-1.1,2.6-1.3c0.9-0.3,1.9-0.5,2.9-0.7
					c2-0.3,3.9-0.4,5.9-0.3c3.9,0.3,7.8,1,11.6,2.2c3.8,1.1,7.5,2.4,11.3,3.3c1.9,0.5,3.8,0.9,5.8,1.2c1,0.1,1.9,0.2,2.9,0.1
					c1-0.1,1.9-0.4,2.7-1C117,26.8,117.1,26.9,116.7,27.4"/>
			</g>
			<g id="Gruppe_12448" transform="translate(30.854 7.566)">
				<path id="Pfad_13424" class="st2" d="M70.8,36.1c0.1-1.6,0-3.2-0.1-4.7c-0.2-1.6-0.1-3.2,0.3-4.8c0.2-0.8,0.5-1.6,0.9-2.2
					c0.4-0.7,1-1.3,1.7-1.8c1.3-0.9,2.9-1.3,4.5-1.1c0.2,0,0.2,0.1,0,0.1c-1.6-0.2-3.1,0.3-4.4,1.2c-0.6,0.5-1.1,1-1.5,1.7
					c-0.4,0.7-0.7,1.4-0.8,2.1c-0.3,1.5-0.4,3.1-0.3,4.7c0.1,1.6,0.1,3.2,0,4.8C70.9,36.4,70.8,36.4,70.8,36.1"/>
			</g>
			<g id="Gruppe_12449" transform="translate(73.734 32.152)">
				<path id="Pfad_13425" class="st12" d="M71.2,22.1v0.6H84v-0.6l-0.6,0c0,0,0,0.1,0,0.3c0,0.8-0.2,2.7-0.4,4.5
					c-0.1,0.8-0.3,1.7-0.5,2.5c-0.1,0.3-0.2,0.6-0.3,0.9c-0.1,0.1-0.1,0.3-0.2,0.4c-0.1,0.1-0.2,0.1-0.3,0.1
					C81.3,30.9,81,31,80.6,31c-0.5,0.1-1.1,0.1-1.6,0.1c-1.2,0-2.5-0.1-3.7-0.3c-0.6-0.1-1.1-0.2-1.4-0.3c-0.2,0-0.3-0.1-0.5-0.1
					c-0.1,0-0.1-0.1-0.2-0.1l-0.1,0.1l0.1-0.1l0,0l-0.1,0.1l0.1-0.1l0,0l0,0l0,0l0,0l0,0c-0.1-0.1-0.2-0.3-0.2-0.5
					c-0.2-0.7-0.4-1.4-0.5-2.1c-0.2-1.3-0.4-2.7-0.5-3.9c-0.1-0.6-0.1-1.1-0.1-1.4c0-0.2,0-0.3,0-0.4c0-0.1,0-0.1,0-0.1L71.2,22.1
					L71.2,22.1l-0.6,0c0,0,0.1,2,0.4,4.2c0.1,1.1,0.3,2.2,0.5,3c0.1,0.4,0.2,0.8,0.4,1.2c0.1,0.2,0.1,0.3,0.2,0.5
					c0.1,0.2,0.2,0.3,0.4,0.4c0.2,0.1,0.3,0.2,0.5,0.2c0.4,0.1,0.7,0.2,1.1,0.3c1.6,0.3,3.3,0.4,4.9,0.4c0.7,0,1.5,0,2.2-0.1
					c0.3,0,0.6-0.1,0.9-0.2c0.3-0.1,0.5-0.2,0.7-0.4c0.3-0.3,0.4-0.6,0.6-0.9c0.3-0.8,0.5-1.6,0.6-2.4c0.5-2.7,0.7-6.1,0.7-6.1
					l0-0.6H70.6l0,0.6L71.2,22.1z"/>
			</g>
			<g id="Gruppe_12450" transform="translate(52.309 32.152)">
				<path id="Pfad_13426" class="st12" d="M85.9,22.1v-0.6H70.6l0,0.6c0,0,0.1,2,0.4,4.1c0.1,1.1,0.3,2.1,0.6,3.1
					c0.1,0.4,0.3,0.9,0.4,1.3c0.1,0.4,0.4,0.7,0.6,0.9c0.2,0.2,0.5,0.3,0.8,0.4c0.5,0.1,1,0.2,1.6,0.3c0.6,0.1,1.3,0.1,2,0.1
					c1.5,0,2.9-0.1,4.4-0.3c0.7-0.1,1.3-0.2,1.8-0.3c0.2-0.1,0.5-0.1,0.7-0.2c0.2-0.1,0.4-0.1,0.5-0.2c0.2-0.1,0.3-0.2,0.4-0.4
					c0.2-0.3,0.3-0.6,0.5-0.9c0.2-0.8,0.4-1.5,0.6-2.3c0.5-2.6,0.7-5.6,0.7-5.6l0-0.6h-0.6L85.9,22.1l-0.6,0c0,0,0,0.1,0,0.3
					c-0.1,0.8-0.2,2.7-0.5,4.5c-0.1,0.8-0.3,1.6-0.5,2.4c-0.1,0.3-0.2,0.5-0.3,0.8c0,0.1-0.1,0.1-0.1,0.2l0,0l0,0l0.1,0.1l0-0.1l0,0
					l0.1,0.1l0-0.1c-0.1,0-0.2,0.1-0.3,0.1c-0.4,0.1-0.7,0.2-1.1,0.3c-1.8,0.3-3.6,0.4-5.4,0.4c-0.8,0-1.6,0-2.4-0.1
					c-0.3,0-0.6-0.1-0.8-0.2c-0.1,0-0.3-0.1-0.4-0.2c-0.1-0.1-0.2-0.3-0.3-0.5c-0.3-0.7-0.5-1.4-0.6-2.1c-0.3-1.3-0.4-2.8-0.6-4
					c-0.1-0.6-0.1-1.1-0.1-1.4c0-0.2,0-0.3,0-0.4c0-0.1,0-0.1,0-0.1l-0.6,0v0.6h14.7L85.9,22.1l-0.6,0L85.9,22.1z"/>
			</g>
		</g>
	</g>
	<g id="Gruppe_12452" transform="translate(67.574 32.152)">
		<path id="Pfad_13428" class="st12" d="M70.6,22.7h6.8v-1.2h-6.8"/>
	</g>
	<g>
		<defs>
			<rect id="SVGID_5_" x="70.6" y="21.4" width="108.7" height="206"/>
		</defs>
		<clipPath id="SVGID_6_">
			<use xlink:href="#SVGID_5_"  style="overflow:visible;"/>
		</clipPath>
		<g id="Gruppe_12483" class="st17">
			<g id="Gruppe_12453" transform="translate(41.243 32.152)">
				<path id="Pfad_13429" class="st12" d="M82.3,21.4H71.2c-0.3,0-0.6,0.3-0.6,0.6c0,0,0,0,0,0c0,0.3,0.3,0.6,0.6,0.6l0,0h11.1
					c0.3,0,0.6-0.3,0.6-0.6c0,0,0,0,0,0C82.9,21.7,82.6,21.4,82.3,21.4C82.3,21.4,82.3,21.4,82.3,21.4"/>
			</g>
			<g id="Gruppe_12454" transform="translate(86.591 32.152)">
				<path id="Pfad_13430" class="st12" d="M71.2,22.7h1c0.3,0,0.6-0.3,0.6-0.6l0,0c0-0.3-0.3-0.6-0.6-0.6c0,0,0,0,0,0h-1
					c-0.3,0-0.6,0.3-0.6,0.6l0,0C70.6,22.4,70.9,22.7,71.2,22.7L71.2,22.7"/>
			</g>
			<g id="Gruppe_12455" transform="translate(44.027 125.485)">
				<path id="Pfad_13431" class="st15" d="M70.6,21.6c0.1,0,0.2,0,0.3,0.1c0.2,0,0.5,0.1,0.8,0.2c0.3,0.1,0.7,0.2,1.1,0.4
					c0.4,0.1,0.9,0.2,1.3,0.3c0.4,0,0.9,0,1.3,0c0.4,0,0.8-0.1,1.1-0.1c0.3,0,0.5,0,0.8,0.1c0.1,0,0.2,0,0.3,0.1
					c-0.1-0.1-0.1-0.2-0.2-0.3c-0.2-0.2-0.5-0.4-0.7-0.5c-0.4-0.2-0.8-0.2-1.2-0.3c-0.4,0-0.9,0-1.3,0c-0.4,0-0.8,0-1.2,0
					c-0.4,0-0.8,0-1.2,0c-0.3,0-0.6,0-0.8,0.1L70.6,21.6"/>
			</g>
			<g id="Gruppe_12456" transform="translate(32.014 60.87)">
				<path id="Pfad_13432" class="st9" d="M77.7,21.7c0.5,0,4.6,4.2,7.5,6.9c2.9,2.7,11.8,15.1,12,17.4c0.2,2.3-3.6,1.9-3.9,3.5
					c-0.2,1.2-10.9-19.7-22.4-25.4C68.9,23.2,77,20.7,77.7,21.7"/>
			</g>
			<g id="Gruppe_12457" transform="translate(32.014 63.063)">
				<path id="Pfad_13433" class="st10" d="M90.8,43.9C87,37.9,79.1,26,70.9,22c-0.3-0.1-0.4-0.3-0.3-0.5c4-0.3,20.7,19.2,20.7,21.6
					C91.2,43.4,91,43.7,90.8,43.9"/>
			</g>
			<g id="Gruppe_12458" transform="translate(40.589 72.963)">
				<path id="Pfad_13434" class="st18" d="M78.5,46.5c0-1.7-0.4-10.8-0.7-17.2c-0.2-3.6-0.2-4.4-0.2-4.4c1.4-1.2,3.3-2,5.2-2.1
					c8-0.3,22.9-1,28.8-1.3c1.3-0.1,3.4,1.6,3.6,1.6c1.4-0.2,0.5,37,0.5,46.2c0,6,0.8,12,2.4,17.8c0.4,1.2,1.1,5.2-4.8,7.6
					s-42.3-0.8-42.3-0.8s-1.2-19.2,1.6-27.2C75.2,58.5,78.5,46.5,78.5,46.5"/>
			</g>
			<g id="Gruppe_12459" transform="translate(40.617 72.963)">
				<path id="Pfad_13435" class="st19" d="M78.5,46c0-1.6-0.4-10.6-0.7-16.8c-0.2-3.5-0.2-4.3-0.2-4.3c1.5-1.2,3.3-1.9,5.2-2
					c8-0.3,22.9-1,28.8-1.3c1.3-0.1,3.4,1.6,3.6,1.5c0.2,0,0.4,0.9,0.5,2.6c0,0-3.1-2.8-4.3-3.1c-1.3-0.3-26.9,1.2-27.5,1.5
					s-4.4,1.1-4.6,1.9c-0.1,0.8,0.7,19,0.7,20.8s-3.3,12.6-5.8,19.5c-1.6,4.6-2.5,9.3-2.8,14.1l-0.7-0.2c0.1-5.2,0.5-11,1.8-14.5
					C75.2,57.7,78.5,46,78.5,46"/>
			</g>
			<g id="Gruppe_12460" transform="translate(40.614 115.941)">
				<path id="Pfad_13436" class="st20" d="M74.5,27.2c0.6-0.2,11-5.8,11-5.8s1.5,1.5,1.6,2.2c0.1,1.8-12.6,6.5-14.9,7.4l-1.5-2
					C70.6,29,74.6,27.2,74.5,27.2"/>
			</g>
			<g id="Gruppe_12461" transform="translate(53.918 87.734)">
				<path id="Pfad_13437" class="st21" d="M98.1,21.4c0,0,1,19.5,0.2,22.5c-0.9,3-8.9,4.9-17.1,5.2C73,49.5,70.6,47,70.6,47
					c0.8-8.3,1.2-16.6,1.2-24.9C73.5,22.1,98.1,21.4,98.1,21.4"/>
			</g>
			<g id="Gruppe_12462" transform="translate(51.739 76.712)">
				<path id="Pfad_13438" class="st22" d="M72.2,24.5c-0.9,0-1.6-0.7-1.6-1.5c0-0.9,0.8-1.6,1.6-1.5c0.9,0,1.6,0.7,1.6,1.5
					C73.8,23.9,73.1,24.6,72.2,24.5"/>
			</g>
			<g id="Gruppe_12463" transform="translate(78.721 75.29)">
				<path id="Pfad_13439" class="st22" d="M72.2,24.5c-0.9,0-1.6-0.7-1.6-1.5c0-0.9,0.8-1.6,1.6-1.5c0.9,0,1.6,0.7,1.6,1.5
					C73.8,23.9,73.1,24.6,72.2,24.5"/>
			</g>
			<g id="Gruppe_12464" transform="translate(53.568 85.336)">
				<path id="Pfad_13440" class="st20" d="M99.7,21.4c-9.6,1.4-19.4,1.7-29.1,0.9c0,1.5,0,3,0,4.5c9.7,0.7,19.4,0.4,29.1-0.9
					C99.7,24.4,99.7,22.9,99.7,21.4"/>
			</g>
			<g id="Gruppe_12465" transform="translate(81.421 113.096)">
				<path id="Pfad_13441" class="st20" d="M70.7,23.8c1.6,1.2,3,2.4,4.5,3.8c0.2-0.8,0.3-1.7,0.4-2.6c-0.3-0.7-4.1-3.4-5-3.6
					L70.7,23.8z"/>
			</g>
			<g id="Gruppe_12466" transform="translate(49.987 111.743)">
				<path id="Pfad_13442" class="st23" d="M70.6,21.8l4.6-0.3c0,1.8,0.1,3.8,0.1,5.7c0,5.3,0.1,10.7,0.1,16.1c0,0.8,0,1.6-0.1,2.5
					c-0.1,1.2-1,2.1-2.1,2.3c-1.2-0.1-2.2-1.1-2.3-2.3c-0.1-0.3-0.1-0.7-0.1-1c0-6.7-0.1-13.4-0.1-20.1
					C70.6,23.6,70.6,22.6,70.6,21.8"/>
			</g>
			<g id="Gruppe_12467" transform="translate(50.009 109.284)">
				<path id="Pfad_13443" class="st23" d="M70.7,21.7l4.2-0.3c0.4,0.7,0.2,1.5-0.4,2c-1,0.7-2.3,0.8-3.4,0.2
					C70.6,23.2,70.4,22.4,70.7,21.7"/>
			</g>
			<g id="Gruppe_12468" transform="translate(26.505 101.613)">
				<path id="Pfad_13444" class="st23" d="M86.5,21.4l2.1,3.5c-0.2,0.2-0.5,0.5-0.9,0.7c-4.4,3.3-8.7,6.6-13.1,9.8
					c-0.6,0.5-1.3,0.8-2.1,0.9c-0.6,0-1.3-0.2-1.7-0.7c-0.3-0.6-0.3-1.3-0.1-2c0.2-0.5,0.6-0.9,1-1.2c4.8-3.6,9.6-7.3,14.4-10.9
					C86.3,21.6,86.4,21.5,86.5,21.4"/>
			</g>
			<g id="Gruppe_12469" transform="translate(43.106 100.249)">
				<path id="Pfad_13445" class="st23" d="M73.7,25.1c-0.5,0.2-1.4,0.7-1.5,0.6C71.5,24.9,71,24,70.6,23c-0.1-0.4,0.6-1,0.9-1.6
					L73.7,25.1"/>
			</g>
			<g id="Gruppe_12470" transform="translate(44.658 70.191)">
				<path id="Pfad_13446" class="st24" d="M82.2,23c-1.1,1.8-1.9,3.7-2.6,5.8c-1.5,5.8-2.7,11.6-4,17.4c-0.1,0.9-0.6,1.6-1.4,1.9
					c-1.5,0.6-2.7,1.7-3.4,3.2l0,0c-0.2,0.3-0.3,0.6-0.2,0.7c0.2,0.3,0.3,0.6,0.6,0.9c0.1,0.2,0.3,0.3,0.4,0.5
					c0.1,0.1,0.1,0.2,0.2,0.3c1.3,1.8,2.3,0.6,2.5,0.2c0.2-0.2,0.3-0.5,0.3-0.8c0-0.4,0.2-0.7,0.4-1c0.3-0.2,0.6-0.3,0.9-0.2
					c0.7,0.4,0.8,2.7,0.1,3.1c-0.6,0.4-0.8,1.2-0.5,1.8c0,0,0,0.1,0.1,0.1c0.3,0.6,0.7,1.1,1.2,1.5c-0.1,0.3-0.1,0.5-0.1,0.7
					c-0.1,0.3,0,0.6,0.2,0.8c0.5,0.5,1.3,0.6,1.9,0.4c0.3-0.2,0.5-0.5,0.5-0.8h0c0,0,0-0.1,0-0.1c0-0.1,0-0.2,0-0.2h0
					c0-0.3-0.1-0.6-0.1-0.8c-0.6-3.3-1.9-6.6,0.1-9.9c0,0,0-0.1,0-0.1c1.6-8.5,3.2-16.9,4.8-25.4c0.1-0.4,0.1-0.7,0.1-1.1l-0.3-0.3
					C83.3,22,82.5,22.4,82.2,23 M77.9,49c-0.2,0.4-0.6,0.6-1.1,0.7c-0.4-0.2-0.6-0.6-0.7-1.1c0-0.3,0.6-0.6,1.2-1.2
					C77.6,48.2,78,48.7,77.9,49"/>
			</g>
			<g id="Gruppe_12471" transform="translate(54.273 74.995)">
				<path id="Pfad_13447" class="st24" d="M78.3,22c-1.7,2.5-3.5,5-5.2,7.6c-0.3,0.4-0.4,0.9-0.5,1.4c-0.7,3.5-1.3,7-1.9,10.6
					c-0.1,0.3-0.1,0.6-0.1,1.1c0.2-0.2,0.4-0.2,0.4-0.3c2.6-5.4,5.2-10.8,7.7-16.3c0.8-1.4,0.8-3.1,0.1-4.6
					C78.7,21.6,78.5,21.8,78.3,22"/>
			</g>
			<g id="Gruppe_12472" transform="translate(20.129 67.294)">
				<path id="Pfad_13448" class="st5" d="M93.9,70.2c-0.3-0.3-1.3-0.9-1.4-1.3c-0.1-0.4,0.4-1.2,0.2-1.7c-0.1-0.3-1-0.9-1.2-1.2
					c-0.7-1-1.3-2-1.8-3.1c-1.3-2.4-2.3-5-2.9-7.7c-0.6-3,0.7-7,1.7-9.9c0-0.1-0.1-0.2-0.1-0.2c-1.6-5.2-4.3-10-5.8-15.3
					c-0.6-2.9-1.6-5.7-2.8-8.3c-0.3,0.8-0.6,1.5-0.8,2c-1.4,4.1-2.8,8.3-3.9,12.5c-1.8,7.2-4,14.2-4.5,21.6
					c-0.3,5.3,1.8,9.9,4.8,14.1c1.5,2.1,3.4,3,5.6,4.2c1.2,0.9,2.5,1.6,3.8,2.3c1.2,0.5,1.8-0.1,3,0.1c1.4,0.3,2.6,2.6,4,3.2
					c0.9-1.1,1.6-2.3,2.2-3.5c0.6-1.1,3-4.5,2.7-5.7C96.4,71.6,94.4,70.6,93.9,70.2"/>
			</g>
			<g id="Gruppe_12473" transform="translate(24.832 75.09)">
				<path id="Pfad_13449" class="st8" d="M70.6,33.6c1.7-4.1,3.6-8.1,5.8-12c0.1-0.2,0.4,0,0.3,0.1c-1.5,4.2-3.4,8.3-5.8,12.1
					C70.8,33.9,70.5,33.7,70.6,33.6"/>
			</g>
			<g id="Gruppe_12474" transform="translate(35.474 116.145)">
				<path id="Pfad_13450" class="st8" d="M70.6,25.6c0.9-1.6,2.1-3,3.5-4.2c0.1,0,0.3,0.1,0.3,0.2c-0.8,1.7-2,3.1-3.5,4.2
					C70.8,25.9,70.6,25.7,70.6,25.6"/>
			</g>
			<g id="Gruppe_12475" transform="translate(43.442 119.298)">
				<path id="Pfad_13451" class="st11" d="M70.6,30c1.5,0.5,2.7,1.8,4.1,2.7c1.2,0.6,2.4,1.2,3.7,1.7c1.3,0.6,1.8,0.8,2.9-0.1
					c1.7-1.8,2.9-3.9,3.5-6.3c0.2-1.1-0.3-1.3-1.1-1.8c-0.9-0.7-1.4-1.9-1.2-3.1c0-0.6,0-0.7-0.6-1c-0.7-0.3-1.5-0.4-2.3-0.5
					c-1.2-0.1-2.4-0.2-3.6-0.1c-1,0.1-0.9,0.3-1.3,1.1c-0.3,0.7-0.8,1.3-1.2,2C73.2,25,70.3,25.5,70.6,30"/>
			</g>
			<g id="Gruppe_12476" transform="translate(44.024 128.314)">
				<path id="Pfad_13452" class="st15" d="M70.6,21.4c0,0,0.1,0.1,0.4,0.2c0.2,0.2,0.6,0.4,1,0.6l1.4,0.8L75,24
					c0.6,0.3,1.1,0.6,1.6,0.9c0.5,0.3,1,0.5,1.6,0.6c0.4,0.1,0.8,0.2,1.2,0.2c0.2,0,0.3,0,0.4-0.1c-0.1,0-0.3-0.1-0.4-0.1
					c-0.4-0.1-0.7-0.3-1-0.5c-0.4-0.2-0.8-0.6-1.3-0.9s-1.1-0.6-1.6-1c-0.6-0.3-1.2-0.6-1.7-0.8c-0.6-0.2-1.1-0.4-1.6-0.6
					c-0.5-0.2-0.9-0.2-1.1-0.3C70.7,21.5,70.6,21.4,70.6,21.4"/>
			</g>
			<g id="Gruppe_12477" transform="translate(52.435 121.447)">
				<path id="Pfad_13453" class="st15" d="M70.6,21.4c0.1,0.1,0.2,0.1,0.2,0.2c0.1,0.1,0.3,0.3,0.5,0.5c0.2,0.2,0.4,0.5,0.7,0.8
					c0.3,0.3,0.6,0.6,1,0.8c0.3,0.2,0.7,0.4,1.1,0.6c0.3,0.2,0.7,0.3,0.9,0.4c0.2,0.1,0.4,0.2,0.6,0.4c0.1,0.1,0.2,0.1,0.2,0.2
					c0-0.1,0-0.2-0.1-0.3c-0.1-0.3-0.2-0.5-0.4-0.7c-0.2-0.3-0.5-0.5-0.8-0.8c-0.3-0.2-0.7-0.4-1-0.6c-0.3-0.2-0.7-0.4-1-0.6
					c-0.3-0.2-0.7-0.4-0.9-0.5c-0.2-0.1-0.5-0.2-0.7-0.3L70.6,21.4"/>
			</g>
			<g id="Gruppe_12478" transform="translate(38.63 118.475)">
				<path id="Pfad_13454" class="st11" d="M75.9,21.5c0,0-4.7,6.1-5.3,6.6c1.4,0.8,2.4,1.8,3.5,1.5c1-0.2,3.9-3.5,4.4-4.8
					c0.2-0.8,0.1-1.7-0.3-2.4C77.6,21.7,76.8,21.4,75.9,21.5"/>
			</g>
			<g id="Gruppe_12479" transform="translate(82.012 113.259)">
				<path id="Pfad_13455" class="st11" d="M85.6,25.1c-0.8,1.5-1,3.5-1.5,5.1c-0.5,1.4-1.2,2.7-1.9,4c-0.7,1.4-0.9,1.9-2.4,1.9
					c-2.6-0.3-5.1-1.2-7.2-2.7c-1-0.8-0.6-1.3-0.4-2.3c0.4-1.4-0.3-2.4-1.2-3.4c-0.4-0.5-0.5-0.6-0.2-1.3c0.4-0.7,0.9-1.4,1.6-2
					c0.9-1,1.9-1.9,2.9-2.7c0.8-0.6,0.9-0.4,1.8-0.1c0.7,0.3,1.6,0.5,2.3,0.8C80,22.8,82.7,21.2,85.6,25.1"/>
			</g>
			<g id="Gruppe_12480" transform="translate(92.121 117.674)">
				<path id="Pfad_13456" class="st15" d="M75.3,21.4c0,0-0.1,0.2-0.2,0.5c-0.1,0.3-0.2,0.7-0.4,1.2l-0.6,1.7
					c-0.2,0.6-0.5,1.3-0.7,1.9c-0.2,0.6-0.5,1.3-0.7,1.9c-0.2,0.6-0.5,1.1-0.8,1.6c-0.2,0.4-0.5,0.7-0.9,1c-0.1,0.1-0.3,0.2-0.4,0.3
					c0.1-0.1,0.2-0.3,0.3-0.4c0.2-0.4,0.4-0.7,0.5-1.1c0.2-0.5,0.3-1.1,0.5-1.7s0.4-1.3,0.7-1.9c0.3-0.6,0.6-1.3,0.9-1.9
					c0.3-0.6,0.6-1.1,0.9-1.6c0.3-0.5,0.5-0.8,0.7-1.1C75.2,21.6,75.3,21.4,75.3,21.4"/>
			</g>
			<g id="Gruppe_12481" transform="translate(83.139 117.976)">
				<path id="Pfad_13457" class="st15" d="M72.6,21.4c0,0.1,0,0.2-0.1,0.3c0,0.2,0,0.5-0.1,0.8c0,0.3,0,0.7-0.1,1.1
					c0,0.5-0.1,0.9-0.3,1.4c-0.1,0.4-0.3,0.8-0.5,1.2c-0.2,0.4-0.3,0.7-0.4,1c-0.1,0.2-0.2,0.5-0.2,0.7c0,0.1,0,0.2-0.1,0.3
					c-0.1-0.1-0.1-0.2-0.2-0.3c-0.1-0.3-0.2-0.6-0.2-0.9c0-0.4,0.1-0.8,0.2-1.2c0.1-0.4,0.3-0.8,0.4-1.2c0.2-0.4,0.3-0.8,0.4-1.2
					c0.1-0.4,0.3-0.8,0.4-1.1c0.1-0.3,0.2-0.5,0.4-0.7L72.6,21.4"/>
			</g>
			<g id="Gruppe_12482" transform="translate(84.063 63.456)">
				<path id="Pfad_13458" class="st5" d="M93.7,48.1c-3-6.8-7.5-12.6-11.7-18.7c-1.9-2.8-4-5.4-6.1-8c-2,6.3-3.7,12.7-5.3,19.1
					c0.6,0.7,1.2,1.4,1.8,2c2,2.4,4.8,5.8,5.3,9c0.4,2.7,0.4,5.5,0,8.3c-0.1,1.2-0.3,2.4-0.6,3.5c-0.3,0.5-0.5,1-0.7,1.5
					c0,0.6,0.8,1.1,0.8,1.6c-0.2,0.6-0.5,1.2-0.9,1.7c-0.4,0.6-1.8,2.2-1.8,2.9c0.1,1.2,3.5,3.6,4.5,4.4c1,1,2.1,1.8,3.3,2.5
					c1.1-1.1,1.4-3.7,2.6-4.4c1-0.6,1.8-0.2,2.7-1.2c1-1.1,1.9-2.3,2.7-3.5c1.6-1.9,3.1-3.4,3.8-5.9C95.5,58.1,95.8,52.9,93.7,48.1"
					/>
			</g>
		</g>
	</g>
</g>
</svg>
