<?xml version="1.0" standalone="no"?>
<!DOCTYPE svg PUBLIC "-//W3C//DTD SVG 1.1//EN" "http://www.w3.org/Graphics/SVG/1.1/DTD/svg11.dtd" >
<svg xmlns="http://www.w3.org/2000/svg" xmlns:xlink="http://www.w3.org/1999/xlink" version="1.1">
<metadata>
Created by FontForge 20170731 at Wed Oct 10 01:32:25 2018
 By Aleksey,,,
Copyright (c) 2017 by Satya Rajpurohit. All rights reserved.
</metadata>
<defs>
<font id="KohinoorKBS-LightItalic" horiz-adv-x="563" >
  <font-face 
    font-family="Kohinoor KBS Light Italic"
    font-weight="300"
    font-style="italic"
    font-stretch="normal"
    units-per-em="1000"
    panose-1="0 0 8 0 0 0 0 0 0 0"
    ascent="800"
    descent="-200"
    x-height="539"
    cap-height="701"
    bbox="-231 -313 1126 979"
    underline-thickness="50"
    underline-position="-200"
    slope="-8"
    unicode-range="U+0020-25CA"
  />
<missing-glyph horiz-adv-x="477" 
d="M391 760v-954h-302v954h302zM318 696h-158v-31h62v-36h-63v-31h159v31h-63v36h63v31zM255 573h-96v-99h159v32h-63v67zM222 541v-35h-31v35h31zM318 448h-159v-31h63v-36h-63v-31h96v67h63v31zM318 391h-32v-63h-127v-33h159v96zM318 274h-96v-53h33v22h31v-45h-95v76
h-32v-107h159v107zM318 109h-159v-107h159v107zM286 78v-45h-95v45h95zM318 -20h-159v-32h67l-67 -45v-31h159v31h-98l67 45h31v32z" />
    <glyph glyph-name="f_i" unicode="fi" horiz-adv-x="576" 
d="M446 82q0 -19 9.5 -27t34.5 -8h20l-7 -42q-16 -7 -44 -7q-35 0 -53 19t-18 51q0 27 13 113l43 308h-257l-95 -683h-58l95 683h-92l7 50h92l10 66q10 78 60.5 118t155.5 40q50 0 95.5 -10.5t62.5 -21.5l-20 -48q-49 28 -149 28q-73 0 -106.5 -25.5t-40.5 -76.5l-10 -70
h315l-50 -358q-1 -11 -4.5 -34.5t-6 -40.5t-2.5 -24z" />
    <glyph glyph-name="f_l" unicode="fl" horiz-adv-x="594" 
d="M495 45q23 0 45 6l-6 -47q-20 -10 -53 -10q-92 0 -92 85q0 16 12 102l72 512q-48 18 -122 18q-73 0 -106.5 -25.5t-40.5 -76.5l-10 -70h146l-7 -50h-146l-95 -683h-58l95 683h-92l7 50h92l10 66q10 78 60.5 118t155.5 40q54 0 101.5 -12.5t71.5 -29.5l-76 -540
q-11 -85 -11 -95q0 -41 47 -41z" />
    <glyph glyph-name=".notdef" horiz-adv-x="477" 
d="M391 760v-954h-302v954h302zM318 696h-158v-31h62v-36h-63v-31h159v31h-63v36h63v31zM255 573h-96v-99h159v32h-63v67zM222 541v-35h-31v35h31zM318 448h-159v-31h63v-36h-63v-31h96v67h63v31zM318 391h-32v-63h-127v-33h159v96zM318 274h-96v-53h33v22h31v-45h-95v76
h-32v-107h159v107zM318 109h-159v-107h159v107zM286 78v-45h-95v45h95zM318 -20h-159v-32h67l-67 -45v-31h159v31h-98l67 45h31v32z" />
    <glyph glyph-name=".null" horiz-adv-x="0" 
 />
    <glyph glyph-name="nonmarkingreturn" horiz-adv-x="333" 
 />
    <glyph glyph-name="space" unicode=" " horiz-adv-x="250" 
 />
    <glyph glyph-name="exclam" unicode="!" horiz-adv-x="285" 
d="M106 267l45 434h80l-76 -434h-49zM101 0q-22 0 -36.5 14.5t-14.5 36.5q0 23 17.5 40.5t40.5 17.5q22 0 36.5 -14.5t14.5 -36.5q0 -23 -17.5 -40.5t-40.5 -17.5z" />
    <glyph glyph-name="quotedbl" unicode="&#x22;" horiz-adv-x="350" 
d="M86 497l14 211h73l-44 -211h-43zM260 497l14 211h73l-44 -211h-43z" />
    <glyph glyph-name="numbersign" unicode="#" horiz-adv-x="670" 
d="M70 0l64 205h-109l8 52h118l59 186h-112l7 52h121l62 193h55l-62 -193h214l62 193h55l-62 -193h94l-7 -52h-103l-59 -186h97l-8 -52h-106l-64 -205h-55l64 205h-214l-64 -205h-55zM206 257h214l59 186h-214z" />
    <glyph glyph-name="dollar" unicode="$" horiz-adv-x="521" 
d="M317 637q-73 0 -113 -35.5t-40 -89.5q0 -47 25.5 -73.5t78.5 -55.5l45 -25q65 -37 96.5 -77.5t31.5 -97.5q0 -71 -51 -123.5t-152 -58.5l-19 -142h-59l21 143q-59 6 -103 27t-67 42l37 46q24 -23 69 -42.5t101 -19.5q83 0 123 37t40 90q0 45 -26.5 74t-91.5 66l-44 25
q-54 29 -84 66t-30 98q0 74 52 123t135 55l19 139h59l-20 -140q81 -7 131 -50l-34 -45q-52 44 -130 44z" />
    <glyph glyph-name="percent" unicode="%" horiz-adv-x="819" 
d="M199 319q-62 0 -95.5 37t-33.5 112q0 110 47.5 171.5t123.5 61.5q128 0 128 -149q0 -110 -47 -171.5t-123 -61.5zM151 18l-41 37l562 623l42 -35zM202 370q51 0 80.5 48t30.5 144q0 44 -21 66.5t-54 22.5q-51 0 -80.5 -49.5t-29.5 -147.5q0 -42 20.5 -63t53.5 -21z
M578 -10q-62 0 -95.5 37t-33.5 112q0 110 47 172t123 62q62 0 95.5 -37.5t33.5 -112.5q0 -110 -47 -171.5t-123 -61.5zM581 41q50 0 79.5 48.5t30.5 143.5q0 44 -21 66.5t-54 22.5q-51 0 -80 -49.5t-29 -146.5q0 -42 20.5 -63.5t53.5 -21.5z" />
    <glyph glyph-name="ampersand" unicode="&#x26;" horiz-adv-x="776" 
d="M667 -37l-136 133q-97 -108 -250 -108q-114 0 -175.5 62t-61.5 151q0 78 51 132.5t134 70.5q-59 69 -59 142q0 72 49.5 117.5t122.5 45.5q84 0 125.5 -51t39.5 -126q23 1 69.5 3.5t69.5 3.5h116l-7 -51h-121q8 -29 8 -74q0 -160 -76 -274l177 -173v-4h-76zM525 180
q62 96 62 224q0 50 -9 84h-127q4 21 4 45q0 59 -31 91t-82 32q-55 0 -84 -31t-29 -80q0 -48 30 -89.5t132 -142.5zM289 43q119 0 202 92l-155 154q-42 41 -66 67q-72 -8 -118 -45t-46 -109q0 -68 50 -113.5t133 -45.5z" />
    <glyph glyph-name="quotesingle" unicode="'" horiz-adv-x="176" 
d="M83 497l14 211h73l-44 -211h-43z" />
    <glyph glyph-name="parenleft" unicode="(" horiz-adv-x="325" 
d="M207 -201q-15 16 -33.5 45.5t-43.5 81t-41.5 125.5t-16.5 153q0 170 68.5 323.5t199.5 270.5h70v-6q-56 -48 -102.5 -104t-88.5 -129t-65.5 -163.5t-23.5 -188.5q0 -127 41.5 -230t101.5 -171v-7h-66z" />
    <glyph glyph-name="parenright" unicode=")" horiz-adv-x="325" 
d="M-103 -201v6q56 48 102.5 104t88.5 129t65.5 163.5t23.5 188.5q0 127 -41.5 230t-101.5 171v7h66q15 -16 33.5 -45.5t43.5 -81t41.5 -125.5t16.5 -153q0 -170 -68.5 -323.5t-199.5 -270.5h-70z" />
    <glyph glyph-name="asterisk" unicode="*" horiz-adv-x="437" 
d="M164 364l-45 33l33 47l53 67l-83 23l-54 18l17 53l55 -17l80 -30l-3 86v57h56v-57l-4 -87l82 31l53 18l18 -53l-55 -19l-83 -23l55 -68l33 -45l-45 -33l-35 46l-47 71l-48 -72z" />
    <glyph glyph-name="plus" unicode="+" horiz-adv-x="499" 
d="M482 365l-8 -56h-201l-28 -201h-58l28 201h-200l8 56h200l28 202h58l-28 -202h201z" />
    <glyph glyph-name="comma" unicode="," horiz-adv-x="219" 
d="M-7 -130l-17 35q77 31 77 81q0 31 -42 57v3q0 21 15 38.5t43 17.5q24 0 41 -17t17 -49q0 -60 -43 -105t-91 -61z" />
    <glyph glyph-name="hyphen" unicode="-" horiz-adv-x="325" 
d="M14 264l7 56h277l-7 -56h-277z" />
    <glyph glyph-name="period" unicode="." horiz-adv-x="219" 
d="M68 0q-22 0 -36.5 14.5t-14.5 36.5q0 23 17.5 40.5t40.5 17.5q22 0 36.5 -14.5t14.5 -36.5q0 -23 -17.5 -40.5t-40.5 -17.5z" />
    <glyph glyph-name="slash" unicode="/" horiz-adv-x="353" 
d="M-56 -128l387 858h57l-389 -858h-55z" />
    <glyph glyph-name="zero" unicode="0" horiz-adv-x="549" 
d="M228 -10q-184 0 -184 235q0 57 6 114.5t25 124.5t48 118t80.5 85t117.5 34q184 0 184 -235q0 -57 -6 -114.5t-25 -124.5t-48 -118t-80.5 -85t-117.5 -34zM233 47q50 0 89 31t61 76.5t36 105.5t18.5 109.5t4.5 96.5q0 178 -126 178q-50 0 -88.5 -31t-60.5 -77t-36.5 -106
t-19 -109.5t-4.5 -95.5q2 -178 126 -178z" />
    <glyph glyph-name="one" unicode="1" horiz-adv-x="446" 
d="M226 59h131l-8 -59h-331l8 59h141l54 382q5 30 12.5 89t12.5 89h-4l-134 -78l-26 50l166 97h67z" />
    <glyph glyph-name="two" unicode="2" horiz-adv-x="506" 
d="M15 0l-11 56l264 260q33 32 49.5 50.5t37.5 47t30 57t9 60.5q0 50 -31 81t-84 31t-88 -29t-51 -73l-56 23q24 59 74.5 97t121.5 38q80 0 126.5 -48.5t46.5 -119.5q0 -68 -36.5 -125t-109.5 -130l-98 -98q-20 -19 -61 -58.5t-61 -58.5v-4h163h163l-8 -57h-390z" />
    <glyph glyph-name="three" unicode="3" horiz-adv-x="499" 
d="M186 -8q-70 0 -118 26.5t-71 66.5l53 36q39 -73 138 -73q83 0 123 45.5t40 121.5q0 103 -150 103h-44l8 54h55q79 0 118.5 47.5t39.5 122.5q0 46 -28 73.5t-79 27.5q-106 0 -142 -95l-57 21q52 130 202 130q76 0 121 -42t45 -112q0 -84 -38 -134t-92 -62l-1 -4
q43 -6 71.5 -39.5t28.5 -91.5q0 -102 -57 -162t-166 -60z" />
    <glyph glyph-name="four" unicode="4" horiz-adv-x="526" 
d="M294 0l23 171h-285l-15 56l348 464h84l-65 -465h101l-8 -55h-101l-24 -171h-58zM86 226h239l36 257l24 140h-4l-88 -121z" />
    <glyph glyph-name="five" unicode="5" horiz-adv-x="530" 
d="M228 -8q-80 0 -128 34t-65 76l56 30q43 -85 140 -85q72 0 117 52t45 150q0 54 -31.5 82t-80.5 28q-74 0 -123 -47l-67 30l80 349h319l-8 -57h-267l-58 -256l5 -3q52 40 128 40q78 0 121.5 -47.5t43.5 -118.5q0 -115 -58.5 -186t-168.5 -71z" />
    <glyph glyph-name="six" unicode="6" horiz-adv-x="552" 
d="M239 -10q-92 0 -137.5 53t-45.5 147q0 86 28.5 168t74.5 145.5t98.5 111t106.5 76.5h93v-6q-198 -104 -285 -273l3 -2q57 30 127 30q77 0 123.5 -45t46.5 -128q0 -130 -63 -203.5t-170 -73.5zM241 44q78 0 124 59t46 169q0 51 -31 81.5t-86 30.5q-80 0 -147 -41
q-12 -26 -21 -73t-9 -84q0 -74 34 -108t90 -34z" />
    <glyph glyph-name="seven" unicode="7" horiz-adv-x="476" 
d="M104 0q23 179 155 402l74 124l68 101l1 5h-335l8 59h380l11 -59l-156 -258q-120 -200 -143 -374h-63z" />
    <glyph glyph-name="eight" unicode="8" horiz-adv-x="590" 
d="M253 -10q-94 0 -144.5 46.5t-50.5 122.5q0 86 44 134t106 61v4q-32 11 -57 44.5t-25 87.5q0 103 60.5 157t157.5 54q83 0 131 -42t48 -118q0 -84 -37.5 -128.5t-86.5 -57.5l-1 -4q101 -31 101 -142q0 -106 -64.5 -162.5t-181.5 -56.5zM308 378q68 0 112.5 40.5
t44.5 122.5q0 49 -31.5 78t-89.5 29q-80 0 -119.5 -41t-39.5 -116q0 -54 32 -83.5t91 -29.5zM260 43q83 0 129.5 41t46.5 124q0 116 -143 116q-83 0 -127.5 -42t-44.5 -119q0 -54 34.5 -87t104.5 -33z" />
    <glyph glyph-name="nine" unicode="9" horiz-adv-x="552" 
d="M83 0l1 6q202 105 289 278l-3 2q-53 -28 -124 -28q-76 0 -122.5 47t-46.5 130q0 127 63 196.5t168 69.5q91 0 136 -51.5t45 -145.5q0 -112 -50.5 -219t-119 -176.5t-142.5 -108.5h-94zM254 314q81 0 145 38q12 26 20.5 72.5t8.5 83.5q0 71 -33.5 105t-88.5 34
q-79 0 -123 -54t-44 -163q0 -52 30.5 -84t84.5 -32z" />
    <glyph glyph-name="colon" unicode=":" horiz-adv-x="215" 
d="M127 413q-22 0 -36.5 14.5t-14.5 36.5q0 23 17.5 40.5t40.5 17.5q22 0 36.5 -14.5t14.5 -36.5q0 -23 -17.5 -40.5t-40.5 -17.5zM66 8q-22 0 -36.5 14.5t-14.5 36.5q0 23 17.5 40.5t40.5 17.5q22 0 36.5 -14.5t14.5 -36.5q0 -23 -17.5 -40.5t-40.5 -17.5z" />
    <glyph glyph-name="semicolon" unicode=";" horiz-adv-x="219" 
d="M127 413q-22 0 -36.5 14.5t-14.5 36.5q0 23 17.5 40.5t40.5 17.5q22 0 36.5 -14.5t14.5 -36.5q0 -23 -17.5 -40.5t-40.5 -17.5zM0 -130l-17 35q77 31 77 81q0 31 -45 59l1 5q3 23 20.5 37.5t40.5 14.5q24 0 40.5 -17t16.5 -49q0 -60 -43 -105t-91 -61z" />
    <glyph glyph-name="less" unicode="&#x3c;" horiz-adv-x="531" 
d="M454 100l-429 214l8 63l490 214l-9 -66l-276 -119l-154 -61v-4l136 -63l242 -118z" />
    <glyph glyph-name="equal" unicode="=" horiz-adv-x="530" 
d="M48 420l7 56h459l-7 -56h-459zM16 198l8 56h459l-8 -56h-459z" />
    <glyph glyph-name="greater" unicode="&#x3e;" horiz-adv-x="531" 
d="M11 100l9 66l276 119l154 61v4l-136 63l-242 118l8 60l429 -214l-8 -63z" />
    <glyph glyph-name="question" unicode="?" horiz-adv-x="449" 
d="M156 230q-27 9 -27 37q0 10 3 17t13.5 18t21 19t35 28t45.5 38q56 48 80.5 84.5t24.5 88.5q0 42 -29 68.5t-77 26.5q-78 0 -125 -47l-37 51q66 52 163 52q79 0 122.5 -41.5t43.5 -108.5q0 -105 -92 -186q-39 -34 -77 -68t-55.5 -49.5t-30.5 -27.5h-2zM173 0q-21 0 -36 15
t-15 36q0 22 15 37.5t36 15.5q23 0 38 -15t15 -38q0 -21 -15.5 -36t-37.5 -15z" />
    <glyph glyph-name="at" unicode="@" horiz-adv-x="879" 
d="M366 -125q-151 0 -234.5 81.5t-83.5 221.5q0 124 61 231t165.5 169.5t225.5 62.5q148 0 233.5 -78t85.5 -203q0 -126 -62.5 -214.5t-165.5 -88.5q-66 0 -81 54h-5q-41 -54 -118 -54q-66 0 -99 37t-33 98q0 114 67 189.5t174 75.5q75 0 122 -27l-41 -177q-19 -82 -19 -104
t10 -32t33 -10q69 0 116 72.5t47 179.5q0 106 -72 167.5t-197 61.5q-156 0 -273.5 -123.5t-117.5 -285.5q0 -119 69.5 -185t200.5 -66q104 0 180 50l24 -46q-93 -57 -212 -57zM395 104q39 0 69 20.5t44 51.5q1 5 2.5 13t3.5 16t3 11l40 180q-26 10 -64 10q-86 0 -134.5 -61
t-48.5 -152q0 -42 22 -65.5t63 -23.5z" />
    <glyph glyph-name="A" unicode="A" horiz-adv-x="576" 
d="M463 0l-40 216h-295l-100 -216h-66l329 701h101l133 -701h-62zM154 272h259l-51 275q-4 19 -11.5 58.5t-11.5 59.5h-4q-8 -20 -26 -58.5t-26 -57.5z" />
    <glyph glyph-name="B" unicode="B" horiz-adv-x="603" 
d="M50 0l98 701h200q80 0 127.5 -39t47.5 -116q0 -83 -35.5 -129t-87.5 -60v-4q50 -4 81 -38.5t31 -97.5q0 -102 -62.5 -159.5t-180.5 -57.5h-219zM162 380h133q76 0 121 39t45 127q0 100 -123 100h-139zM116 55h143q190 0 190 163q0 63 -36 85t-111 22h-148z" />
    <glyph glyph-name="C" unicode="C" horiz-adv-x="547" 
d="M293 -10q-112 0 -172.5 72t-60.5 198q0 63 9.5 123t33 120.5t59.5 105.5t93.5 73.5t130.5 28.5q115 0 173 -51l-37 -48q-53 43 -141 43q-114 0 -186 -102.5t-72 -295.5q0 -106 48 -159t135 -53q86 0 144 45l29 -48q-64 -52 -186 -52z" />
    <glyph glyph-name="D" unicode="D" horiz-adv-x="642" 
d="M50 0l98 701h171q261 0 261 -269q0 -68 -10 -127.5t-35 -116.5t-64 -98t-101 -65.5t-141 -24.5h-179zM118 57h115q142 0 213 97.5t71 275.5q0 113 -54 163.5t-157 50.5h-106z" />
    <glyph glyph-name="E" unicode="E" horiz-adv-x="519" 
d="M50 0l98 701h360l-8 -56h-300l-37 -262h265l-8 -56h-265l-38 -271h315l-7 -56h-375z" />
    <glyph glyph-name="F" unicode="F" horiz-adv-x="497" 
d="M50 0l98 701h357l-8 -56h-295l-39 -278h261l-8 -56h-261l-43 -311h-62z" />
    <glyph glyph-name="G" unicode="G" horiz-adv-x="633" 
d="M355 355h195l-43 -309q-61 -56 -203 -56q-114 0 -179 69.5t-65 204.5q0 65 10 125.5t34 120t61 103.5t96 71t133 27q120 0 185 -56l-36 -46q-60 47 -148 47q-76 0 -131.5 -35t-85 -94t-43 -124.5t-13.5 -139.5q0 -110 50.5 -163.5t142.5 -53.5q95 0 137 33l31 220h-136z
" />
    <glyph glyph-name="H" unicode="H" horiz-adv-x="682" 
d="M50 0l98 701h60l-45 -317h362l45 317h60l-98 -701h-60l46 328h-362l-46 -328h-60z" />
    <glyph glyph-name="I" unicode="I" horiz-adv-x="280" 
d="M60 0l98 701h60l-98 -701h-60z" />
    <glyph glyph-name="J" unicode="J" horiz-adv-x="350" 
d="M52 -8q-73 0 -114 28l24 52q41 -24 96 -24q89 0 102 95l78 558h60l-79 -564q-21 -145 -167 -145z" />
    <glyph glyph-name="K" unicode="K" horiz-adv-x="533" 
d="M50 0l98 701h60l-98 -701h-60zM415 0l-223 358v4l300 339h78l-308 -345l226 -356h-73z" />
    <glyph glyph-name="L" unicode="L" horiz-adv-x="482" 
d="M50 0l98 701h60l-91 -645h313l-7 -56h-373z" />
    <glyph glyph-name="M" unicode="M" horiz-adv-x="845" 
d="M50 0l98 701h97l146 -530h6l293 530h103l-98 -701h-59l89 631h-6l-296 -526h-74l-147 526h-6l-87 -631h-59z" />
    <glyph glyph-name="N" unicode="N" horiz-adv-x="694" 
d="M50 0l98 701h87l192 -473q11 -26 32 -79t32 -79h4l24 166l65 465h58l-98 -701h-86l-191 469l-66 162h-4l-24 -170l-64 -461h-59z" />
    <glyph glyph-name="O" unicode="O" horiz-adv-x="675" 
d="M289 -10q-229 0 -229 259q0 67 9 128.5t32 124t58 107.5t93 73.5t132 28.5q229 0 229 -260q0 -67 -9 -128.5t-32 -123.5t-58 -107t-93 -73.5t-132 -28.5zM293 47q60 0 106.5 25t74.5 64.5t45.5 95t24 109t6.5 113.5q0 200 -170 200q-60 0 -106.5 -25t-74.5 -64.5
t-45.5 -95t-24 -109t-6.5 -113.5q0 -200 170 -200z" />
    <glyph glyph-name="P" unicode="P" horiz-adv-x="545" 
d="M50 0l98 701h188q99 0 149.5 -43.5t50.5 -126.5q0 -122 -67 -184.5t-189 -62.5h-131l-39 -284h-60zM157 340h126q190 0 190 190q0 61 -37.5 88t-120.5 27h-115z" />
    <glyph glyph-name="Q" unicode="Q" horiz-adv-x="675" 
d="M507 -150l-192 141q-8 -1 -26 -1q-229 0 -229 259q0 67 9 128.5t32 124t58 107.5t93 73.5t132 28.5q229 0 229 -260q0 -75 -12.5 -144t-37.5 -131t-69.5 -106.5t-102.5 -61.5l-1 -4l183 -120zM293 47q60 0 106.5 25t74.5 64.5t45.5 95t24 109t6.5 113.5q0 200 -170 200
q-60 0 -106.5 -25t-74.5 -64.5t-45.5 -95t-24 -109t-6.5 -113.5q0 -200 170 -200z" />
    <glyph glyph-name="R" unicode="R" horiz-adv-x="574" 
d="M50 0l98 701h177q92 0 142 -44t50 -124q0 -110 -53.5 -162.5t-127.5 -58.5l-1 -4q18 -12 29.5 -26.5t30.5 -55.5l104 -226h-67l-100 223q-19 43 -45.5 59.5t-70.5 16.5h-64l-42 -299h-60zM159 354h102q96 0 144 39t48 141q0 58 -36.5 84.5t-116.5 26.5h-100z" />
    <glyph glyph-name="S" unicode="S" horiz-adv-x="523" 
d="M208 -10q-75 0 -130.5 24.5t-83.5 49.5l39 48q25 -24 71.5 -44.5t105.5 -20.5q88 0 129.5 38.5t41.5 94.5q0 45 -30 78t-72.5 55.5t-84.5 46.5t-72 65.5t-30 98.5q0 83 62 135t157 52q112 0 174 -55l-36 -47q-54 46 -135 46q-76 0 -118 -37t-42 -93q0 -44 30 -77t72 -56
t84.5 -47.5t72.5 -65.5t30 -98q0 -79 -59 -135t-176 -56z" />
    <glyph glyph-name="T" unicode="T" horiz-adv-x="468" 
d="M154 0l90 645h-190l8 56h440l-8 -56h-190l-90 -645h-60z" />
    <glyph glyph-name="U" unicode="U" horiz-adv-x="685" 
d="M296 -10q-102 0 -159.5 50.5t-57.5 142.5q0 23 4 57.5t12.5 91t10.5 71.5l42 298h60l-43 -306q-24 -170 -24 -209q0 -138 157 -138q183 0 209 183l66 470h60l-67 -478q-16 -115 -84.5 -174t-185.5 -59z" />
    <glyph glyph-name="V" unicode="V" horiz-adv-x="561" 
d="M177 0l-133 701h62l84 -448q7 -36 20.5 -108.5t20.5 -108.5h4l99 217l207 448h66l-329 -701h-101z" />
    <glyph glyph-name="W" unicode="W" horiz-adv-x="895" 
d="M131 0l-83 701h59l56 -474l21 -176h4q12 29 35.5 87.5t34.5 88.5l187 474h98l56 -480l20 -170h4q11 28 34 84.5t34 84.5l192 481h61l-279 -701h-98l-56 485q-3 28 -9.5 85t-9.5 85h-4q-12 -29 -34.5 -86t-33.5 -85l-191 -484h-98z" />
    <glyph glyph-name="X" unicode="X" horiz-adv-x="565" 
d="M-39 0l278 360l-167 341h68l140 -291h5l219 291h74l-260 -338l180 -363h-68l-153 314h-5l-237 -314h-74z" />
    <glyph glyph-name="Y" unicode="Y" horiz-adv-x="507" 
d="M175 0l36 260l-169 441h66l138 -378h4l244 378h70l-293 -441l-36 -260h-60z" />
    <glyph glyph-name="Z" unicode="Z" horiz-adv-x="504" 
d="M1 0l-11 59l445 581v4h-331l8 57h390l6 -59l-443 -581v-4h364l-8 -57h-420z" />
    <glyph glyph-name="bracketleft" unicode="[" horiz-adv-x="292" 
d="M37 -203l141 1000h169l-7 -49h-111l-127 -902h111l-7 -49h-169z" />
    <glyph glyph-name="backslash" unicode="\" horiz-adv-x="353" 
d="M265 -128l-149 858h57l148 -858h-56z" />
    <glyph glyph-name="bracketright" unicode="]" horiz-adv-x="292" 
d="M-63 -203l7 49h111l127 902h-111l7 49h169l-141 -1000h-169z" />
    <glyph glyph-name="asciicircum" unicode="^" horiz-adv-x="498" 
d="M30 320l227 381h82l120 -380h-59l-61 203l-41 141h-4l-81 -142l-118 -203h-65z" />
    <glyph glyph-name="underscore" unicode="_" horiz-adv-x="484" 
d="M-60 -111l8 56h475l-8 -56h-475z" />
    <glyph glyph-name="grave" unicode="`" horiz-adv-x="550" 
d="M367 626l-168 117l64 36l142 -120z" />
    <glyph glyph-name="a" unicode="a" 
d="M220 -9q-78 0 -120.5 49t-42.5 145q0 154 77.5 256t212.5 102q100 0 148 -30l-40 -280q-16 -116 -16 -139q0 -24 9 -35t35 -11h18l-6 -42q-16 -8 -39 -8q-34 0 -51.5 19t-20.5 48h-4q-57 -74 -160 -74zM232 43q52 0 94.5 30.5t59.5 71.5l47 333q-30 13 -88 13
q-99 0 -164 -80t-65 -220q0 -148 116 -148z" />
    <glyph glyph-name="b" unicode="b" horiz-adv-x="557" 
d="M196 -10q-90 0 -142 29l86 611q6 39 6 74q0 26 -5 49l57 7q6 -23 6 -56q0 -25 -6 -73l-21 -148h4q49 60 137 60q79 0 131 -51.5t52 -154.5q0 -155 -78.5 -251t-226.5 -96zM209 46q103 0 167 77t64 214q0 81 -38 117t-94 36q-61 0 -101 -42.5t-50 -112.5l-39 -275
q33 -14 91 -14z" />
    <glyph glyph-name="c" unicode="c" horiz-adv-x="460" 
d="M247 -8q-89 0 -139.5 52t-50.5 157q0 66 13.5 125t42 110t79.5 81t118 30q98 0 148 -52l-38 -42q-38 40 -108 40q-92 0 -143 -77t-51 -217q0 -153 137 -153q69 0 111 40l33 -42q-49 -52 -152 -52z" />
    <glyph glyph-name="d" unicode="d" horiz-adv-x="569" 
d="M228 -11q-82 0 -126.5 49t-44.5 146q0 69 16 130t48.5 112.5t89 81.5t131.5 30q66 0 103 -15l15 107q6 39 6 74q0 26 -5 49l57 7q6 -23 6 -56q0 -25 -6 -73l-57 -396q-19 -129 -19 -151q0 -19 9.5 -28.5t35.5 -9.5h19l-7 -42q-16 -7 -44 -7q-66 0 -70 62h-4
q-51 -70 -153 -70zM237 41q58 0 97.5 32.5t55.5 70.5l48 321q-40 19 -94 19q-108 0 -167.5 -78t-59.5 -222q0 -75 32.5 -109t87.5 -34z" />
    <glyph glyph-name="e" unicode="e" horiz-adv-x="545" 
d="M261 -6q-101 0 -152.5 55.5t-51.5 160.5q0 168 69.5 252.5t176.5 84.5q92 0 138.5 -49.5t46.5 -133.5q0 -56 -17 -115h-356q-2 -15 -2 -36q0 -166 154 -166q48 0 86 15t53 29l28 -46q-64 -51 -173 -51zM122 299h300q8 34 8 65q0 129 -128 129q-150 0 -180 -194z" />
    <glyph glyph-name="f" unicode="f" horiz-adv-x="290" 
d="M34 -194l95 683h-92l7 50h92l13 93q19 132 162 132q49 0 79 -14l-21 -49q-28 11 -64 11q-45 0 -68 -18.5t-29 -59.5l-14 -95h146l-7 -50h-146l-95 -683h-58z" />
    <glyph glyph-name="g" unicode="g" horiz-adv-x="556" 
d="M193 -221q-59 0 -105.5 18t-65.5 36l34 47q9 -8 24 -17.5t48 -19.5t70 -10q79 0 121.5 37t52.5 118l8 64h-4q-50 -60 -146 -60q-80 0 -127.5 51t-47.5 152q0 158 80 256.5t219 98.5q39 0 74.5 -7.5t51 -14t22.5 -11.5l-73 -529q-15 -108 -72 -158.5t-164 -50.5zM244 45
q64 0 105 35.5t51 103.5l41 298q-30 16 -87 16q-107 0 -173 -76.5t-66 -218.5q0 -158 129 -158z" />
    <glyph glyph-name="h" unicode="h" horiz-adv-x="567" 
d="M51 0l88 630q6 39 6 74q0 26 -5 49l57 7q6 -23 6 -56q0 -25 -6 -73l-24 -167h4q65 83 169 83q69 0 110 -36.5t41 -96.5q0 -41 -15 -146l-38 -268h-58l38 268q16 120 16 134q0 93 -104 93q-68 0 -119.5 -47t-61.5 -121l-46 -327h-58z" />
    <glyph glyph-name="i" unicode="i" horiz-adv-x="273" 
d="M183 647q-19 0 -32 12t-13 33q0 22 14 36.5t37 14.5q20 0 32.5 -12t12.5 -33q0 -22 -14 -36.5t-37 -14.5zM146 -2q-35 0 -53 19t-18 51q0 27 13 113l50 358h58l-50 -358q-1 -11 -4.5 -34.5t-6 -40.5t-2.5 -24q0 -19 9.5 -27t34.5 -8h20l-7 -42q-16 -7 -44 -7z" />
    <glyph glyph-name="j" unicode="j" horiz-adv-x="243" 
d="M176 647q-19 0 -32 12t-13 33q0 22 14 36.5t37 14.5q20 0 32.5 -12t12.5 -33q0 -22 -14 -36.5t-37 -14.5zM-73 -198l-20 52q28 10 48.5 21t44.5 32t40 57t23 84l68 491h58l-68 -493q-16 -111 -67 -165t-127 -79z" />
    <glyph glyph-name="k" unicode="k" horiz-adv-x="460" 
d="M46 0l89 631q6 39 6 73q0 26 -5 49l57 7q6 -23 6 -56q0 -25 -6 -73l-89 -631h-58zM383 -5q-55 0 -84 49l-142 250v4l239 241h73v-4l-242 -244v-4l115 -201q14 -24 24 -31.5t32 -7.5h27l-6 -44q-14 -8 -36 -8z" />
    <glyph glyph-name="l" unicode="l" horiz-adv-x="274" 
d="M161 -6q-92 0 -92 85q0 16 12 102l63 449q6 39 6 74q0 26 -5 49l57 7q6 -23 6 -56q0 -25 -6 -73l-63 -450q-11 -85 -11 -95q0 -41 47 -41q23 0 45 6l-6 -47q-20 -10 -53 -10z" />
    <glyph glyph-name="m" unicode="m" horiz-adv-x="847" 
d="M51 0l75 539h43l6 -69h4q16 27 55 52t95 25q55 0 90.5 -24.5t44.5 -68.5h4q18 36 63 64.5t106 28.5q64 0 101.5 -35t37.5 -100q0 -32 -15 -144l-38 -268h-58l38 268q15 113 15 138q0 89 -92 89q-68 0 -110.5 -48t-54.5 -129l-45 -318h-58l38 268q17 128 17 134
q0 45 -24.5 69t-68.5 24q-68 0 -111.5 -50.5t-55.5 -133.5l-44 -311h-58z" />
    <glyph glyph-name="n" unicode="n" horiz-adv-x="577" 
d="M51 0l75 539h43l6 -69h4q21 28 64 52.5t104 24.5q73 0 114.5 -38t41.5 -106q0 -51 -12 -135l-38 -268h-58l38 267q12 79 12 128q0 100 -105 100q-73 0 -123.5 -46.5t-61.5 -121.5l-46 -327h-58z" />
    <glyph glyph-name="o" unicode="o" horiz-adv-x="555" 
d="M254 -10q-102 0 -149.5 53.5t-47.5 160.5q0 72 13.5 132.5t41 109t75.5 76t112 27.5q103 0 151 -53t48 -160q0 -151 -60 -248.5t-184 -97.5zM256 42q45 0 79 20.5t53 51.5t31 74t15.5 80t3.5 78q0 151 -141 151q-45 0 -79 -20.5t-52.5 -51t-30 -73.5t-15 -80t-3.5 -78
q0 -152 139 -152z" />
    <glyph glyph-name="p" unicode="p" horiz-adv-x="571" 
d="M38 -194q13 91 25 174.5t20 139.5t15 106.5t11.5 81t8.5 57.5l6 40.5t3 25.5t1.5 17.5t0.5 11.5q0 19 -9.5 27t-34.5 8h-20l6 42q16 7 45 7q32 0 50.5 -17.5t20.5 -45.5h4q49 68 147 68q83 0 129.5 -52.5t46.5 -150.5q0 -69 -16 -129t-49 -109.5t-90 -78.5t-132 -29
q-57 0 -101 14l-30 -208h-58zM227 54q107 0 167 75.5t60 218.5q0 74 -33.5 111t-86.5 37q-66 0 -109.5 -41.5t-54.5 -123.5l-35 -261q36 -16 92 -16z" />
    <glyph glyph-name="q" unicode="q" horiz-adv-x="558" 
d="M348 -194l34 246h-4q-50 -60 -144 -60q-79 0 -128 51.5t-49 151.5q0 158 79.5 256.5t218.5 98.5q89 0 149 -31l-98 -713h-58zM247 45q64 0 105 38.5t51 112.5l40 286q-30 16 -86 16q-107 0 -173.5 -77.5t-66.5 -216.5q0 -159 130 -159z" />
    <glyph glyph-name="r" unicode="r" horiz-adv-x="336" 
d="M67 0l50 358q13 101 13 102q0 19 -9.5 27t-34.5 8h-20l6 42q18 7 45 7q62 0 69 -60h4q48 63 137 63q31 0 60 -9l-9 -63q-33 10 -66 10q-119 0 -136 -118l-51 -367h-58z" />
    <glyph glyph-name="s" unicode="s" horiz-adv-x="456" 
d="M205 -8q-54 0 -102 17.5t-67.5 32t-27.5 24.5l38 44q21 -23 64 -44.5t95 -21.5q64 0 97 28.5t33 70.5q0 37 -24.5 58t-83.5 43l-26 10q-119 44 -119 141q0 62 48 107t138 45q110 0 161 -51l-37 -42q-47 40 -124 40q-64 0 -96.5 -28.5t-32.5 -69.5q0 -35 22.5 -56.5
t73.5 -41.5l26 -10q61 -23 96 -55t35 -89q0 -24 -9.5 -49t-30 -49t-59 -39t-88.5 -15z" />
    <glyph glyph-name="t" unicode="t" horiz-adv-x="362" 
d="M203 -5q-54 0 -83 28t-29 76q0 24 20 164l32 226h-83l6 41l84 9l28 135h49l-19 -135h130l-7 -50h-130l-33 -234q-19 -135 -19 -147q0 -62 68 -62q34 0 64 15l12 -48q-28 -18 -90 -18z" />
    <glyph glyph-name="u" unicode="u" horiz-adv-x="583" 
d="M224 -11q-74 0 -113.5 38.5t-39.5 103.5q0 20 11 104l25 176q6 39 6 74q0 26 -5 49l57 7q6 -23 6 -56q0 -25 -6 -73l-24 -173q-11 -82 -11 -99q0 -99 107 -99q71 0 118.5 43t59.5 129l45 326h58l-50 -358q-1 -11 -4.5 -34.5t-6 -40.5t-2.5 -24q0 -19 9.5 -27t34.5 -8h20
l-6 -42q-14 -7 -45 -7q-35 0 -52.5 19t-17.5 51h-4q-5 -11 -21 -27t-57 -34t-92 -18z" />
    <glyph glyph-name="v" unicode="v" horiz-adv-x="454" 
d="M145 0l-117 539h62l69 -341q4 -23 13 -71t13 -71h4q11 23 32.5 70.5t32.5 71.5l83 173q44 91 44 156q0 2 -0.5 6t-0.5 6h59v-8q0 -79 -42 -164l-183 -367h-69z" />
    <glyph glyph-name="w" unicode="w" horiz-adv-x="728" 
d="M95 0l-69 539h59l38 -311l19 -175h4q49 130 57 149l132 337h90l38 -338q12 -118 14 -148h4l69 175l57 143q43 107 43 156q0 2 -0.5 6t-0.5 6h60v-8q0 -55 -44 -163l-150 -368h-86l-53 487h-4l-191 -487h-86z" />
    <glyph glyph-name="x" unicode="x" horiz-adv-x="460" 
d="M-20 0l214 280l-129 259h66l101 -212h4l159 212h71l-201 -260l137 -279h-67l-109 232h-4l-170 -232h-72z" />
    <glyph glyph-name="y" unicode="y" horiz-adv-x="561" 
d="M189 -221q-112 0 -174 54l35 48q51 -48 144 -48q162 0 182 155l11 80h-4q-6 -12 -18.5 -27t-51.5 -33.5t-90 -18.5q-70 0 -109 38.5t-39 103.5q0 37 21 170.5t21 158.5q0 19 -9 27t-35 8h-20l7 42q16 7 46 7q35 0 53 -19t18 -51q0 -25 -21.5 -157.5t-21.5 -176.5
q0 -99 101 -99q70 0 115 43t57 129l45 326h58l-77 -551q-30 -209 -244 -209z" />
    <glyph glyph-name="z" unicode="z" horiz-adv-x="447" 
d="M27 0l-10 68l276 316q54 61 62 101h-256l7 54h294l14 -58q-13 -60 -63 -116l-271 -307v-4h292l-7 -54h-338z" />
    <glyph glyph-name="braceleft" unicode="{" horiz-adv-x="349" 
d="M195 -209q-55 0 -83 29t-28 83t27.5 153t27.5 128q0 38 -18.5 56t-57.5 24l9 66q72 13 91 57.5t19 171.5q0 124 33.5 184t119.5 60q31 0 53 -9l-18 -46q-18 6 -41 6q-53 0 -71 -49t-18 -162q0 -117 -24 -169q-27 -56 -91 -76v-4q73 -24 73 -109q0 -30 -28 -131t-28 -145
q0 -70 57 -70q23 0 44 7l5 -46q-23 -9 -53 -9z" />
    <glyph glyph-name="bar" unicode="|" horiz-adv-x="271" 
d="M35 -239l150 1071h50l-150 -1071h-50z" />
    <glyph glyph-name="braceright" unicode="}" horiz-adv-x="349" 
d="M-2 -209q-31 0 -53 9l18 46q18 -6 41 -6q53 0 71 49t18 162q0 117 24 169q27 56 91 76v4q-73 24 -73 109q0 30 28 131t28 145q0 70 -57 70q-23 0 -44 -7l-5 46q23 9 53 9q55 0 83 -29t28 -83t-27.5 -153t-27.5 -128q0 -38 18.5 -56t57.5 -24l-9 -66q-72 -13 -91 -57.5
t-19 -171.5q0 -124 -33.5 -184t-119.5 -60z" />
    <glyph glyph-name="asciitilde" unicode="~" horiz-adv-x="518" 
d="M68 268l-52 5q-2 60 28.5 95t86.5 35q50 0 135 -38.5t122 -38.5q65 0 60 79l54 -5q0 -65 -31.5 -97.5t-85.5 -32.5q-50 0 -135 38.5t-122 38.5q-65 0 -60 -79z" />
    <glyph glyph-name="exclamdown" unicode="&#xa1;" horiz-adv-x="285" 
d="M168 551q22 0 36.5 -14.5t14.5 -36.5q0 -23 -17.5 -40.5t-40.5 -17.5q-22 0 -36.5 14.5t-14.5 36.5q0 23 17.5 40.5t40.5 17.5zM163 284l-45 -434h-80l76 434h49z" />
    <glyph glyph-name="cent" unicode="&#xa2;" horiz-adv-x="448" 
d="M47 -126l72 143q-84 48 -84 184q0 66 13.5 125t42 110t79.5 81t118 30q47 0 90 -16l62 123h55l-74 -146q10 -8 16 -15l-42 -37l-204 -406q17 -4 42 -4q69 0 111 40l33 -42q-49 -52 -152 -52q-29 0 -60 7l-63 -125h-55zM141 69h4l208 413q-27 11 -63 11q-92 0 -143 -77
t-51 -217q0 -96 45 -130z" />
    <glyph glyph-name="sterling" unicode="&#xa3;" horiz-adv-x="518" 
d="M10 0l-4 63q74 37 95 139l23 111h-78l8 52h82l29 136q41 191 210 191q99 0 152 -61l-42 -39q-40 45 -113 45q-116 0 -145 -132l-30 -140h224l-8 -52h-228l-23 -112q-22 -108 -84 -143v-4h374l-7 -54h-435z" />
    <glyph glyph-name="currency" unicode="&#xa4;" horiz-adv-x="603" 
d="M460 94l-52 60q-59 -36 -135 -36q-75 0 -123 39l-73 -64l-39 43l74 65q-25 37 -25 93q0 95 60 163l-51 60l45 37l49 -58q63 42 143 42q71 0 120 -38l68 59l38 -43l-67 -59q26 -41 26 -97q0 -100 -65 -170l51 -59zM280 164q82 0 133.5 54.5t51.5 133.5q0 63 -36 100.5
t-103 37.5q-82 0 -134.5 -55.5t-52.5 -132.5q0 -61 36.5 -99.5t104.5 -38.5z" />
    <glyph glyph-name="yen" unicode="&#xa5;" horiz-adv-x="507" 
d="M175 0l37 268h-200l8 56h166l-131 364h65l79 -231l45 -143h4q15 24 43.5 72.5t42.5 72.5l142 229h71l-234 -364h167l-8 -56h-200l-37 -268h-60z" />
    <glyph glyph-name="brokenbar" unicode="&#xa6;" horiz-adv-x="285" 
d="M131 392l47 339h50l-47 -339h-50zM56 -141l47 339h50l-47 -339h-50z" />
    <glyph glyph-name="section" unicode="&#xa7;" horiz-adv-x="617" 
d="M217 -145q-46 0 -92 12l10 58q39 -13 84 -13q59 0 99 19q74 34 74 113q0 35 -23 67.5t-57 56.5t-74 54t-74 59.5t-57 74.5t-23 98q0 114 78.5 198t205.5 84q48 0 82 -9l-9 -57q-33 10 -70 10q-77 0 -119 -35.5t-42 -91.5q0 -44 33 -83.5t80 -72t94 -68t80 -86.5t33 -113
q0 -113 -86.5 -194t-226.5 -81zM444 33h5q27 37 27 92q0 54 -30.5 98t-75.5 75.5t-90.5 62.5t-81.5 75t-43 97h-4q-13 -36 -13 -74q0 -58 31.5 -102.5t76.5 -74.5t90 -61t76.5 -78t31.5 -110z" />
    <glyph glyph-name="dieresis" unicode="&#xa8;" horiz-adv-x="550" 
d="M229 666q-18 0 -29 11t-11 29q0 20 12.5 33t33.5 13q18 0 29 -11t11 -29q0 -20 -12.5 -33t-33.5 -13zM404 666q-18 0 -29 11t-11 29q0 20 12.5 33t33.5 13q18 0 29 -11t11 -29q0 -20 -12.5 -33t-33.5 -13z" />
    <glyph glyph-name="copyright" unicode="&#xa9;" horiz-adv-x="834" 
d="M371 -5q-144 0 -229.5 85.5t-85.5 220.5q0 162 115.5 279.5t291.5 117.5q144 0 229.5 -85.5t85.5 -220.5q0 -162 -115.5 -279.5t-291.5 -117.5zM374 47q149 0 247 98.5t98 242.5q0 119 -70.5 188.5t-188.5 69.5q-149 0 -247.5 -99t-98.5 -244q1 -118 71.5 -187t188.5 -69
zM399 146q-64 0 -100.5 38t-36.5 114q0 64 19 119t63 93t106 38q73 0 109 -41l-31 -37q-30 32 -76 32q-62 0 -100 -52.5t-38 -152.5q0 -103 94 -103q47 0 79 27l27 -36q-46 -39 -115 -39z" />
    <glyph glyph-name="guillemotleft" unicode="&#xab;" horiz-adv-x="491" 
d="M164 69l-112 198l167 198l39 -32l-137 -171l88 -169zM346 69l-112 198l167 198l39 -32l-137 -171l88 -169z" />
    <glyph glyph-name="logicalnot" unicode="&#xac;" horiz-adv-x="572" 
d="M444 199l27 190h-422l8 56h480l-35 -246h-58z" />
    <glyph glyph-name="registered" unicode="&#xae;" horiz-adv-x="509" 
d="M255 296q-85 0 -136 50.5t-51 129.5q0 96 68 165.5t171 69.5q85 0 136 -50.5t51 -131.5q0 -94 -68 -163.5t-171 -69.5zM257 336q83 0 137.5 55t54.5 135q0 67 -39 105.5t-105 38.5q-83 0 -138 -55.5t-55 -135.5q0 -66 39.5 -104.5t105.5 -38.5zM193 393l33 225h66
q71 0 71 -58q0 -62 -55 -68v-4q10 -6 16 -18l38 -77h-46l-33 70q-9 19 -25 19h-10l-12 -89h-43zM252 515h20q25 0 36.5 9t11.5 36q0 25 -36 25h-20z" />
    <glyph glyph-name="macron" unicode="&#xaf;" horiz-adv-x="550" 
d="M167 676l6 46h303l-6 -46h-303z" />
    <glyph glyph-name="degree" unicode="&#xb0;" horiz-adv-x="350" 
d="M193 432q-56 0 -92 33.5t-36 88.5q0 61 40.5 102.5t106.5 41.5q56 0 92 -33.5t36 -88.5q0 -61 -40.5 -102.5t-106.5 -41.5zM197 482q39 0 63.5 26t24.5 68q0 32 -21.5 52t-55.5 20q-39 0 -63.5 -26t-24.5 -68q0 -32 22 -52t55 -20z" />
    <glyph glyph-name="plusminus" unicode="&#xb1;" horiz-adv-x="526" 
d="M-4 53l8 56h200l28 200h-200l8 56h200l28 202h58l-28 -202h201l-8 -56h-201l-28 -200h201l-8 -56h-459z" />
    <glyph glyph-name="acute" unicode="&#xb4;" horiz-adv-x="550" 
d="M281 626l-38 33l142 120l64 -36z" />
    <glyph glyph-name="uni00B5" unicode="&#xb5;" horiz-adv-x="576" 
d="M21 -194l85 605q6 39 6 74q0 26 -5 49l57 7q6 -23 6 -56q0 -25 -6 -73q-35 -254 -35 -275q0 -96 107 -96q71 0 118.5 43t59.5 129l45 326h58l-50 -358q-1 -11 -4.5 -34.5t-6 -40.5t-2.5 -24q0 -19 9.5 -27t34.5 -8h20l-6 -42q-14 -7 -45 -7q-35 0 -52.5 19t-17.5 51h-4
q-5 -11 -20.5 -27t-56 -34t-91.5 -18q-80 0 -109 45h-4l-33 -228h-58z" />
    <glyph glyph-name="paragraph" unicode="&#xb6;" horiz-adv-x="547" 
d="M115 -161l-29 37q50 37 78 79t40 123l34 241q-7 -1 -21 -1q-71 0 -110 38t-39 114q0 113 59.5 172t159.5 59h56l-89 -627q-22 -154 -139 -235zM425 -2q-30 0 -47 17.5t-17 47.5q0 26 14 118l73 520h48l-73 -520q-14 -101 -14 -109q0 -31 35 -31h26l-7 -36q-15 -7 -38 -7z
" />
    <glyph glyph-name="periodcentered" unicode="&#xb7;" horiz-adv-x="288" 
d="M136 299q-22 0 -36.5 14.5t-14.5 36.5q0 23 17.5 40.5t40.5 17.5q22 0 36.5 -14.5t14.5 -36.5q0 -23 -17.5 -40.5t-40.5 -17.5z" />
    <glyph glyph-name="cedilla" unicode="&#xb8;" horiz-adv-x="457" 
d="M185 -230l-18 34q67 31 67 91q0 22 -15 50v4h61q10 -17 10 -43q0 -100 -105 -136z" />
    <glyph glyph-name="guillemotright" unicode="&#xbb;" horiz-adv-x="491" 
d="M75 69l-39 32l137 171l-88 169l45 24l112 -198zM257 69l-39 32l137 171l-88 169l45 24l112 -198z" />
    <glyph glyph-name="questiondown" unicode="&#xbf;" horiz-adv-x="449" 
d="M277 549q21 0 36 -15t15 -36q0 -22 -15 -37.5t-36 -15.5q-23 0 -38 15.5t-15 37.5q0 21 15.5 36t37.5 15zM294 319q27 -9 27 -37q0 -10 -3 -17t-13.5 -18t-21 -19t-35 -28t-45.5 -38q-56 -48 -80.5 -84.5t-24.5 -88.5q0 -42 29 -68.5t77 -26.5q78 0 125 47l37 -51
q-66 -52 -163 -52q-79 0 -122.5 41.5t-43.5 108.5q0 105 92 186q39 34 77 68t55.5 49.5t30.5 27.5h2z" />
    <glyph glyph-name="Agrave" unicode="&#xc0;" horiz-adv-x="576" 
d="M387 821l-38 -33l-168 117l64 36zM463 0l-40 216h-295l-100 -216h-66l329 701h101l133 -701h-62zM154 272h259l-51 275q-4 19 -11.5 58.5t-11.5 59.5h-4q-8 -20 -26 -58.5t-26 -57.5z" />
    <glyph glyph-name="Aacute" unicode="&#xc1;" horiz-adv-x="576" 
d="M514 905l-168 -117l-38 33l142 120zM463 0l-40 216h-295l-100 -216h-66l329 701h101l133 -701h-62zM154 272h259l-51 275q-4 19 -11.5 58.5t-11.5 59.5h-4q-8 -20 -26 -58.5t-26 -57.5z" />
    <glyph glyph-name="Acircumflex" unicode="&#xc2;" horiz-adv-x="576" 
d="M370 884l-179 -98l-24 37l206 123l175 -124l-25 -35zM291 701h101l133 -701h-62l-40 216h-295l-100 -216h-66zM154 272h259l-51 275q-4 19 -11.5 58.5t-11.5 59.5h-4q-8 -20 -26 -58.5t-26 -57.5z" />
    <glyph glyph-name="Atilde" unicode="&#xc3;" horiz-adv-x="576" 
d="M288 847q-40 0 -71 -24l-17 40q45 33 95 33q26 0 68 -16.5t60 -16.5q41 0 65 27l18 -40q-5 -6 -14 -13.5t-30 -15.5t-45 -8q-22 0 -65 17t-64 17zM463 0l-40 216h-295l-100 -216h-66l329 701h101l133 -701h-62zM154 272h259l-51 275q-4 19 -11.5 58.5t-11.5 59.5h-4
q-8 -20 -26 -58.5t-26 -57.5z" />
    <glyph glyph-name="Adieresis" unicode="&#xc4;" horiz-adv-x="576" 
d="M267 828q-18 0 -29 11t-11 29q0 20 12.5 33t33.5 13q18 0 29 -11t11 -29q0 -20 -12.5 -33t-33.5 -13zM442 828q-18 0 -29 11t-11 29q0 20 12.5 33t33.5 13q18 0 29 -11t11 -29q0 -20 -12.5 -33t-33.5 -13zM463 0l-40 216h-295l-100 -216h-66l329 701h101l133 -701h-62z
M154 272h259l-51 275q-4 19 -11.5 58.5t-11.5 59.5h-4q-8 -20 -26 -58.5t-26 -57.5z" />
    <glyph glyph-name="Aring" unicode="&#xc5;" horiz-adv-x="576" 
d="M-38 0l329 701l24 -1v4q-32 5 -51 28.5t-19 58.5q0 46 31.5 78.5t81.5 32.5q43 0 69.5 -24.5t26.5 -66.5q0 -41 -25 -71.5t-66 -35.5v-4l29 1l133 -701h-62l-40 216h-295l-100 -216h-66zM344 738q29 0 48.5 20.5t19.5 52.5q0 53 -57 53q-29 0 -48.5 -20.5t-19.5 -52.5
q0 -53 57 -53zM154 272h259l-51 275l-21 121h-4q-22 -50 -54 -119z" />
    <glyph glyph-name="AE" unicode="&#xc6;" horiz-adv-x="858" 
d="M-30 0l494 701h383l-8 -56h-280l-37 -262h245l-8 -56h-245l-38 -271h295l-7 -56h-353l31 225h-245l-158 -225h-69zM236 281h214l53 376h-4z" />
    <glyph glyph-name="Ccedilla" unicode="&#xc7;" horiz-adv-x="547" 
d="M293 -10q-112 0 -172.5 72t-60.5 198q0 63 9.5 123t33 120.5t59.5 105.5t93.5 73.5t130.5 28.5q115 0 173 -51l-37 -48q-53 43 -141 43q-114 0 -186 -102.5t-72 -295.5q0 -106 48 -159t135 -53q86 0 144 45l29 -48q-64 -52 -186 -52zM207 -230l-18 34q67 31 67 91
q0 22 -15 50v4h61q10 -17 10 -43q0 -100 -105 -136z" />
    <glyph glyph-name="Egrave" unicode="&#xc8;" horiz-adv-x="519" 
d="M346 788l-168 117l64 36l142 -120zM50 0l98 701h360l-8 -56h-300l-37 -262h265l-8 -56h-265l-38 -271h315l-7 -56h-375z" />
    <glyph glyph-name="Eacute" unicode="&#xc9;" horiz-adv-x="519" 
d="M341 788l-38 33l142 120l64 -36zM50 0l98 701h360l-8 -56h-300l-37 -262h265l-8 -56h-265l-38 -271h315l-7 -56h-375z" />
    <glyph glyph-name="Ecircumflex" unicode="&#xca;" horiz-adv-x="519" 
d="M191 786l-24 37l206 123l175 -124l-25 -35l-153 97zM50 0l98 701h360l-8 -56h-300l-37 -262h265l-8 -56h-265l-38 -271h315l-7 -56h-375z" />
    <glyph glyph-name="Edieresis" unicode="&#xcb;" horiz-adv-x="519" 
d="M266 828q-18 0 -29 11t-11 29q0 20 12.5 33t33.5 13q18 0 29 -11t11 -29q0 -20 -12.5 -33t-33.5 -13zM441 828q-18 0 -29 11t-11 29q0 20 12.5 33t33.5 13q18 0 29 -11t11 -29q0 -20 -12.5 -33t-33.5 -13zM50 0l98 701h360l-8 -56h-300l-37 -262h265l-8 -56h-265
l-38 -271h315l-7 -56h-375z" />
    <glyph glyph-name="Igrave" unicode="&#xcc;" horiz-adv-x="280" 
d="M201 788l-168 117l64 36l142 -120zM60 0l98 701h60l-98 -701h-60z" />
    <glyph glyph-name="Iacute" unicode="&#xcd;" horiz-adv-x="280" 
d="M201 788l-38 33l142 120l64 -36zM60 0l98 701h60l-98 -701h-60z" />
    <glyph glyph-name="Icircumflex" unicode="&#xce;" horiz-adv-x="280" 
d="M44 786l-24 37l206 123l175 -124l-25 -35l-153 97zM60 0l98 701h60l-98 -701h-60z" />
    <glyph glyph-name="Idieresis" unicode="&#xcf;" horiz-adv-x="280" 
d="M122 828q-18 0 -29 11t-11 29q0 20 12.5 33t33.5 13q18 0 29 -11t11 -29q0 -20 -12.5 -33t-33.5 -13zM297 828q-18 0 -29 11t-11 29q0 20 12.5 33t33.5 13q18 0 29 -11t11 -29q0 -20 -12.5 -33t-33.5 -13zM60 0l98 701h60l-98 -701h-60z" />
    <glyph glyph-name="Eth" unicode="&#xd0;" horiz-adv-x="672" 
d="M349 701q261 0 261 -269q0 -68 -10 -127.5t-35 -116.5t-64 -98t-101 -65.5t-141 -24.5h-179l48 342h-74l6 48h75l43 311h171zM263 57q142 0 213 97.5t71 275.5q0 113 -54 163.5t-157 50.5h-106l-35 -254h171l-6 -48h-172l-40 -285h115z" />
    <glyph glyph-name="Ntilde" unicode="&#xd1;" horiz-adv-x="694" 
d="M491 813q-22 0 -65 17t-64 17q-40 0 -71 -24l-17 40q45 33 95 33q26 0 68 -16.5t60 -16.5q41 0 65 27l18 -40q-5 -6 -14 -13.5t-30 -15.5t-45 -8zM50 0l98 701h87l192 -473q11 -26 32 -79t32 -79h4l24 166l65 465h58l-98 -701h-86l-191 469l-66 162h-4l-24 -170l-64 -461
h-59z" />
    <glyph glyph-name="Ograve" unicode="&#xd2;" horiz-adv-x="675" 
d="M404 788l-168 117l64 36l142 -120zM289 -10q-229 0 -229 259q0 67 9 128.5t32 124t58 107.5t93 73.5t132 28.5q229 0 229 -260q0 -67 -9 -128.5t-32 -123.5t-58 -107t-93 -73.5t-132 -28.5zM293 47q60 0 106.5 25t74.5 64.5t45.5 95t24 109t6.5 113.5q0 200 -170 200
q-60 0 -106.5 -25t-74.5 -64.5t-45.5 -95t-24 -109t-6.5 -113.5q0 -200 170 -200z" />
    <glyph glyph-name="Oacute" unicode="&#xd3;" horiz-adv-x="675" 
d="M421 788l-38 33l142 120l64 -36zM289 -10q-229 0 -229 259q0 67 9 128.5t32 124t58 107.5t93 73.5t132 28.5q229 0 229 -260q0 -67 -9 -128.5t-32 -123.5t-58 -107t-93 -73.5t-132 -28.5zM293 47q60 0 106.5 25t74.5 64.5t45.5 95t24 109t6.5 113.5q0 200 -170 200
q-60 0 -106.5 -25t-74.5 -64.5t-45.5 -95t-24 -109t-6.5 -113.5q0 -200 170 -200z" />
    <glyph glyph-name="Ocircumflex" unicode="&#xd4;" horiz-adv-x="675" 
d="M250 786l-24 37l206 123l175 -124l-25 -35l-153 97zM289 -10q-229 0 -229 259q0 67 9 128.5t32 124t58 107.5t93 73.5t132 28.5q229 0 229 -260q0 -67 -9 -128.5t-32 -123.5t-58 -107t-93 -73.5t-132 -28.5zM293 47q60 0 106.5 25t74.5 64.5t45.5 95t24 109t6.5 113.5
q0 200 -170 200q-60 0 -106.5 -25t-74.5 -64.5t-45.5 -95t-24 -109t-6.5 -113.5q0 -200 170 -200z" />
    <glyph glyph-name="Otilde" unicode="&#xd5;" horiz-adv-x="675" 
d="M479 813q-22 0 -65 17t-64 17q-40 0 -71 -24l-17 40q45 33 95 33q26 0 68 -16.5t60 -16.5q41 0 65 27l18 -40q-5 -6 -14 -13.5t-30 -15.5t-45 -8zM289 -10q-229 0 -229 259q0 67 9 128.5t32 124t58 107.5t93 73.5t132 28.5q229 0 229 -260q0 -67 -9 -128.5t-32 -123.5
t-58 -107t-93 -73.5t-132 -28.5zM293 47q60 0 106.5 25t74.5 64.5t45.5 95t24 109t6.5 113.5q0 200 -170 200q-60 0 -106.5 -25t-74.5 -64.5t-45.5 -95t-24 -109t-6.5 -113.5q0 -200 170 -200z" />
    <glyph glyph-name="Odieresis" unicode="&#xd6;" horiz-adv-x="675" 
d="M328 828q-18 0 -29 11t-11 29q0 20 12.5 33t33.5 13q18 0 29 -11t11 -29q0 -20 -12.5 -33t-33.5 -13zM503 828q-18 0 -29 11t-11 29q0 20 12.5 33t33.5 13q18 0 29 -11t11 -29q0 -20 -12.5 -33t-33.5 -13zM289 -10q-229 0 -229 259q0 67 9 128.5t32 124t58 107.5t93 73.5
t132 28.5q229 0 229 -260q0 -67 -9 -128.5t-32 -123.5t-58 -107t-93 -73.5t-132 -28.5zM293 47q60 0 106.5 25t74.5 64.5t45.5 95t24 109t6.5 113.5q0 200 -170 200q-60 0 -106.5 -25t-74.5 -64.5t-45.5 -95t-24 -109t-6.5 -113.5q0 -200 170 -200z" />
    <glyph glyph-name="multiply" unicode="&#xd7;" horiz-adv-x="526" 
d="M81 141l-37 41l182 158l-134 157l42 36l134 -156l180 155l36 -40l-181 -156l135 -156l-43 -36l-134 155z" />
    <glyph glyph-name="Oslash" unicode="&#xd8;" horiz-adv-x="675" 
d="M14 -10l79 99q-33 60 -33 160q0 67 9 128.5t32 124t58 107.5t93 73.5t132 28.5q104 0 162 -55l45 56h68l-80 -100q34 -62 34 -161q0 -67 -9 -128.5t-32 -123.5t-58 -107t-93 -73.5t-132 -28.5q-105 0 -163 55l-44 -55h-68zM138 145l368 461q-42 48 -126 48
q-60 0 -106.5 -25t-74.5 -64.5t-45.5 -95t-24 -109t-6.5 -113.5q0 -61 15 -102zM293 47q60 0 106.5 25t74.5 64.5t45.5 95t24 109t6.5 113.5q0 59 -16 102l-368 -461q41 -48 127 -48z" />
    <glyph glyph-name="Ugrave" unicode="&#xd9;" horiz-adv-x="685" 
d="M397 788l-168 117l64 36l142 -120zM296 -10q-102 0 -159.5 50.5t-57.5 142.5q0 23 4 57.5t12.5 91t10.5 71.5l42 298h60l-43 -306q-24 -170 -24 -209q0 -138 157 -138q183 0 209 183l66 470h60l-67 -478q-16 -115 -84.5 -174t-185.5 -59z" />
    <glyph glyph-name="Uacute" unicode="&#xda;" horiz-adv-x="685" 
d="M408 788l-38 33l142 120l64 -36zM296 -10q-102 0 -159.5 50.5t-57.5 142.5q0 23 4 57.5t12.5 91t10.5 71.5l42 298h60l-43 -306q-24 -170 -24 -209q0 -138 157 -138q183 0 209 183l66 470h60l-67 -478q-16 -115 -84.5 -174t-185.5 -59z" />
    <glyph glyph-name="Ucircumflex" unicode="&#xdb;" horiz-adv-x="685" 
d="M248 786l-24 37l206 123l175 -124l-25 -35l-153 97zM296 -10q-102 0 -159.5 50.5t-57.5 142.5q0 23 4 57.5t12.5 91t10.5 71.5l42 298h60l-43 -306q-24 -170 -24 -209q0 -138 157 -138q183 0 209 183l66 470h60l-67 -478q-16 -115 -84.5 -174t-185.5 -59z" />
    <glyph glyph-name="Udieresis" unicode="&#xdc;" horiz-adv-x="685" 
d="M327 828q-18 0 -29 11t-11 29q0 20 12.5 33t33.5 13q18 0 29 -11t11 -29q0 -20 -12.5 -33t-33.5 -13zM502 828q-18 0 -29 11t-11 29q0 20 12.5 33t33.5 13q18 0 29 -11t11 -29q0 -20 -12.5 -33t-33.5 -13zM296 -10q-102 0 -159.5 50.5t-57.5 142.5q0 23 4 57.5t12.5 91
t10.5 71.5l42 298h60l-43 -306q-24 -170 -24 -209q0 -138 157 -138q183 0 209 183l66 470h60l-67 -478q-16 -115 -84.5 -174t-185.5 -59z" />
    <glyph glyph-name="Yacute" unicode="&#xdd;" horiz-adv-x="507" 
d="M307 788l-38 33l142 120l64 -36zM175 0l36 260l-169 441h66l138 -378h4l244 378h70l-293 -441l-36 -260h-60z" />
    <glyph glyph-name="Thorn" unicode="&#xde;" horiz-adv-x="525" 
d="M70 0l98 701h57l-21 -150h66q99 0 149 -43.5t50 -126.5q0 -122 -67 -184.5t-188 -62.5h-69l-18 -134h-57zM153 190h66q190 0 190 190q0 61 -37 88t-119 27h-57z" />
    <glyph glyph-name="germandbls" unicode="&#xdf;" horiz-adv-x="575" 
d="M21 -217l101 735q17 126 73.5 180t154.5 54q77 0 122 -43t45 -106q0 -42 -15.5 -76t-37.5 -54.5t-44.5 -37t-38 -32t-15.5 -31.5q0 -20 23 -47t51 -51t51 -60.5t23 -73.5q0 -58 -44 -102.5t-126 -44.5q-44 0 -84 14t-57.5 27t-27.5 24l39 43q51 -55 133 -55q49 0 79 26
t30 69q0 28 -23.5 58.5t-52 53t-52 54t-23.5 60.5t16 52t38.5 39.5t45 34t38.5 43t16 58.5q0 45 -29 75t-85 30q-75 0 -113.5 -43t-51.5 -136l-101 -737h-58z" />
    <glyph glyph-name="agrave" unicode="&#xe0;" 
d="M383 626l-168 117l64 36l142 -120zM220 -9q-78 0 -120.5 49t-42.5 145q0 154 77.5 256t212.5 102q100 0 148 -30l-40 -280q-16 -116 -16 -139q0 -24 9 -35t35 -11h18l-6 -42q-16 -8 -39 -8q-34 0 -51.5 19t-20.5 48h-4q-57 -74 -160 -74zM232 43q52 0 94.5 30.5
t59.5 71.5l47 333q-30 13 -88 13q-99 0 -164 -80t-65 -220q0 -148 116 -148z" />
    <glyph glyph-name="aacute" unicode="&#xe1;" 
d="M354 626l-38 33l142 120l64 -36zM220 -9q-78 0 -120.5 49t-42.5 145q0 154 77.5 256t212.5 102q100 0 148 -30l-40 -280q-16 -116 -16 -139q0 -24 9 -35t35 -11h18l-6 -42q-16 -8 -39 -8q-34 0 -51.5 19t-20.5 48h-4q-57 -74 -160 -74zM232 43q52 0 94.5 30.5t59.5 71.5
l47 333q-30 13 -88 13q-99 0 -164 -80t-65 -220q0 -148 116 -148z" />
    <glyph glyph-name="acircumflex" unicode="&#xe2;" 
d="M189 624l-24 37l206 123l175 -124l-25 -35l-153 97zM220 -9q-78 0 -120.5 49t-42.5 145q0 154 77.5 256t212.5 102q100 0 148 -30l-40 -280q-16 -116 -16 -139q0 -24 9 -35t35 -11h18l-6 -42q-16 -8 -39 -8q-34 0 -51.5 19t-20.5 48h-4q-57 -74 -160 -74zM232 43
q52 0 94.5 30.5t59.5 71.5l47 333q-30 13 -88 13q-99 0 -164 -80t-65 -220q0 -148 116 -148z" />
    <glyph glyph-name="atilde" unicode="&#xe3;" 
d="M414 651q-22 0 -65 17t-64 17q-40 0 -71 -24l-17 40q45 33 95 33q26 0 68 -16.5t60 -16.5q41 0 65 27l18 -40q-5 -6 -14 -13.5t-30 -15.5t-45 -8zM220 -9q-78 0 -120.5 49t-42.5 145q0 154 77.5 256t212.5 102q100 0 148 -30l-40 -280q-16 -116 -16 -139q0 -24 9 -35
t35 -11h18l-6 -42q-16 -8 -39 -8q-34 0 -51.5 19t-20.5 48h-4q-57 -74 -160 -74zM232 43q52 0 94.5 30.5t59.5 71.5l47 333q-30 13 -88 13q-99 0 -164 -80t-65 -220q0 -148 116 -148z" />
    <glyph glyph-name="adieresis" unicode="&#xe4;" 
d="M259 666q-18 0 -29 11t-11 29q0 20 12.5 33t33.5 13q18 0 29 -11t11 -29q0 -20 -12.5 -33t-33.5 -13zM434 666q-18 0 -29 11t-11 29q0 20 12.5 33t33.5 13q18 0 29 -11t11 -29q0 -20 -12.5 -33t-33.5 -13zM220 -9q-78 0 -120.5 49t-42.5 145q0 154 77.5 256t212.5 102
q100 0 148 -30l-40 -280q-16 -116 -16 -139q0 -24 9 -35t35 -11h18l-6 -42q-16 -8 -39 -8q-34 0 -51.5 19t-20.5 48h-4q-57 -74 -160 -74zM232 43q52 0 94.5 30.5t59.5 71.5l47 333q-30 13 -88 13q-99 0 -164 -80t-65 -220q0 -148 116 -148z" />
    <glyph glyph-name="aring" unicode="&#xe5;" 
d="M347 615q-43 0 -69.5 24.5t-26.5 66.5q0 46 31.5 78.5t81.5 32.5q43 0 69.5 -24.5t26.5 -66.5q0 -46 -31.5 -78.5t-81.5 -32.5zM350 653q29 0 48.5 21t19.5 52q0 53 -57 53q-29 0 -48.5 -21t-19.5 -52q0 -53 57 -53zM220 -9q-78 0 -120.5 49t-42.5 145q0 154 77.5 256
t212.5 102q100 0 148 -30l-40 -280q-16 -116 -16 -139q0 -24 9 -35t35 -11h18l-6 -42q-16 -8 -39 -8q-34 0 -51.5 19t-20.5 48h-4q-57 -74 -160 -74zM232 43q52 0 94.5 30.5t59.5 71.5l47 333q-30 13 -88 13q-99 0 -164 -80t-65 -220q0 -148 116 -148z" />
    <glyph glyph-name="ae" unicode="&#xe6;" horiz-adv-x="884" 
d="M220 -9q-78 0 -120.5 49t-42.5 145q0 154 77.5 256t212.5 102q97 0 145 -30l-5 -28h4q55 62 151 62q92 0 138.5 -49.5t46.5 -133.5q0 -56 -17 -115h-356q-2 -15 -2 -36q0 -166 154 -166q48 0 86 15t53 29l28 -46q-64 -51 -173 -51q-138 0 -178 101h-4q-24 -41 -74 -72.5
t-124 -31.5zM461 299h300q8 34 8 65q0 129 -128 129q-150 0 -180 -194zM232 43q52 0 94.5 30.5t59.5 71.5l47 333q-30 13 -88 13q-99 0 -164 -80t-65 -220q0 -148 116 -148z" />
    <glyph glyph-name="ccedilla" unicode="&#xe7;" horiz-adv-x="460" 
d="M247 -8q-89 0 -139.5 52t-50.5 157q0 66 13.5 125t42 110t79.5 81t118 30q98 0 148 -52l-38 -42q-38 40 -108 40q-92 0 -143 -77t-51 -217q0 -153 137 -153q69 0 111 40l33 -42q-49 -52 -152 -52zM186 -230l-18 34q67 31 67 91q0 22 -15 50v4h61q10 -17 10 -43
q0 -100 -105 -136z" />
    <glyph glyph-name="egrave" unicode="&#xe8;" horiz-adv-x="545" 
d="M331 626l-168 117l64 36l142 -120zM261 -6q-101 0 -152.5 55.5t-51.5 160.5q0 168 69.5 252.5t176.5 84.5q92 0 138.5 -49.5t46.5 -133.5q0 -56 -17 -115h-356q-2 -15 -2 -36q0 -166 154 -166q48 0 86 15t53 29l28 -46q-64 -51 -173 -51zM122 299h300q8 34 8 65
q0 129 -128 129q-150 0 -180 -194z" />
    <glyph glyph-name="eacute" unicode="&#xe9;" horiz-adv-x="545" 
d="M320 626l-38 33l142 120l64 -36zM261 -6q-101 0 -152.5 55.5t-51.5 160.5q0 168 69.5 252.5t176.5 84.5q92 0 138.5 -49.5t46.5 -133.5q0 -56 -17 -115h-356q-2 -15 -2 -36q0 -166 154 -166q48 0 86 15t53 29l28 -46q-64 -51 -173 -51zM122 299h300q8 34 8 65
q0 129 -128 129q-150 0 -180 -194z" />
    <glyph glyph-name="ecircumflex" unicode="&#xea;" horiz-adv-x="545" 
d="M173 624l-24 37l206 123l175 -124l-25 -35l-153 97zM261 -6q-101 0 -152.5 55.5t-51.5 160.5q0 168 69.5 252.5t176.5 84.5q92 0 138.5 -49.5t46.5 -133.5q0 -56 -17 -115h-356q-2 -15 -2 -36q0 -166 154 -166q48 0 86 15t53 29l28 -46q-64 -51 -173 -51zM122 299h300
q8 34 8 65q0 129 -128 129q-150 0 -180 -194z" />
    <glyph glyph-name="edieresis" unicode="&#xeb;" horiz-adv-x="545" 
d="M248 666q-18 0 -29 11t-11 29q0 20 12.5 33t33.5 13q18 0 29 -11t11 -29q0 -20 -12.5 -33t-33.5 -13zM423 666q-18 0 -29 11t-11 29q0 20 12.5 33t33.5 13q18 0 29 -11t11 -29q0 -20 -12.5 -33t-33.5 -13zM261 -6q-101 0 -152.5 55.5t-51.5 160.5q0 168 69.5 252.5
t176.5 84.5q92 0 138.5 -49.5t46.5 -133.5q0 -56 -17 -115h-356q-2 -15 -2 -36q0 -166 154 -166q48 0 86 15t53 29l28 -46q-64 -51 -173 -51zM122 299h300q8 34 8 65q0 129 -128 129q-150 0 -180 -194z" />
    <glyph glyph-name="igrave" unicode="&#xec;" horiz-adv-x="273" 
d="M191 626l-168 117l64 36l142 -120zM146 -2q-35 0 -53 19t-18 51q0 27 13 113l50 358h58l-50 -358q-1 -11 -4.5 -34.5t-6 -40.5t-2.5 -24q0 -19 9.5 -27t34.5 -8h20l-7 -42q-16 -7 -44 -7z" />
    <glyph glyph-name="iacute" unicode="&#xed;" horiz-adv-x="273" 
d="M191 626l-38 33l142 120l64 -36zM146 -2q-35 0 -53 19t-18 51q0 27 13 113l50 358h58l-50 -358q-1 -11 -4.5 -34.5t-6 -40.5t-2.5 -24q0 -19 9.5 -27t34.5 -8h20l-7 -42q-16 -7 -44 -7z" />
    <glyph glyph-name="icircumflex" unicode="&#xee;" horiz-adv-x="273" 
d="M21 624l-24 37l206 123l175 -124l-25 -35l-153 97zM146 -2q-35 0 -53 19t-18 51q0 27 13 113l50 358h58l-50 -358q-1 -11 -4.5 -34.5t-6 -40.5t-2.5 -24q0 -19 9.5 -27t34.5 -8h20l-7 -42q-16 -7 -44 -7z" />
    <glyph glyph-name="idieresis" unicode="&#xef;" horiz-adv-x="273" 
d="M99 666q-18 0 -29 11t-11 29q0 20 12.5 33t33.5 13q18 0 29 -11t11 -29q0 -20 -12.5 -33t-33.5 -13zM274 666q-18 0 -29 11t-11 29q0 20 12.5 33t33.5 13q18 0 29 -11t11 -29q0 -20 -12.5 -33t-33.5 -13zM146 -2q-35 0 -53 19t-18 51q0 27 13 113l50 358h58l-50 -358
q-1 -11 -4.5 -34.5t-6 -40.5t-2.5 -24q0 -19 9.5 -27t34.5 -8h20l-7 -42q-16 -7 -44 -7z" />
    <glyph glyph-name="eth" unicode="&#xf0;" horiz-adv-x="505" 
d="M202 0q-85 0 -133 50.5t-48 134.5q0 111 62 183.5t166 72.5q70 0 124 -27l3 2q-14 82 -64 149l-155 -86l8 56l118 66q-48 54 -109 94l1 6h80q33 -21 77 -72l133 75l-7 -56l-98 -55q79 -120 79 -258q0 -335 -237 -335zM206 55q162 0 176 241q1 18 1 53q-15 13 -52 25.5
t-82 12.5q-75 0 -121.5 -53t-46.5 -154q0 -60 34 -92.5t91 -32.5z" />
    <glyph glyph-name="ntilde" unicode="&#xf1;" horiz-adv-x="577" 
d="M415 651q-22 0 -65 17t-64 17q-40 0 -71 -24l-17 40q45 33 95 33q26 0 68 -16.5t60 -16.5q41 0 65 27l18 -40q-5 -6 -14 -13.5t-30 -15.5t-45 -8zM51 0l75 539h43l6 -69h4q21 28 64 52.5t104 24.5q73 0 114.5 -38t41.5 -106q0 -51 -12 -135l-38 -268h-58l38 267
q12 79 12 128q0 100 -105 100q-73 0 -123.5 -46.5t-61.5 -121.5l-46 -327h-58z" />
    <glyph glyph-name="ograve" unicode="&#xf2;" horiz-adv-x="555" 
d="M318 626l-168 117l64 36l142 -120zM254 -10q-102 0 -149.5 53.5t-47.5 160.5q0 72 13.5 132.5t41 109t75.5 76t112 27.5q103 0 151 -53t48 -160q0 -151 -60 -248.5t-184 -97.5zM256 42q45 0 79 20.5t53 51.5t31 74t15.5 80t3.5 78q0 151 -141 151q-45 0 -79 -20.5
t-52.5 -51t-30 -73.5t-15 -80t-3.5 -78q0 -152 139 -152z" />
    <glyph glyph-name="oacute" unicode="&#xf3;" horiz-adv-x="555" 
d="M333 626l-38 33l142 120l64 -36zM254 -10q-102 0 -149.5 53.5t-47.5 160.5q0 72 13.5 132.5t41 109t75.5 76t112 27.5q103 0 151 -53t48 -160q0 -151 -60 -248.5t-184 -97.5zM256 42q45 0 79 20.5t53 51.5t31 74t15.5 80t3.5 78q0 151 -141 151q-45 0 -79 -20.5
t-52.5 -51t-30 -73.5t-15 -80t-3.5 -78q0 -152 139 -152z" />
    <glyph glyph-name="ocircumflex" unicode="&#xf4;" horiz-adv-x="555" 
d="M176 624l-24 37l206 123l175 -124l-25 -35l-153 97zM254 -10q-102 0 -149.5 53.5t-47.5 160.5q0 72 13.5 132.5t41 109t75.5 76t112 27.5q103 0 151 -53t48 -160q0 -151 -60 -248.5t-184 -97.5zM256 42q45 0 79 20.5t53 51.5t31 74t15.5 80t3.5 78q0 151 -141 151
q-45 0 -79 -20.5t-52.5 -51t-30 -73.5t-15 -80t-3.5 -78q0 -152 139 -152z" />
    <glyph glyph-name="otilde" unicode="&#xf5;" horiz-adv-x="555" 
d="M403 651q-22 0 -65 17t-64 17q-40 0 -71 -24l-17 40q45 33 95 33q26 0 68 -16.5t60 -16.5q41 0 65 27l18 -40q-5 -6 -14 -13.5t-30 -15.5t-45 -8zM254 -10q-102 0 -149.5 53.5t-47.5 160.5q0 72 13.5 132.5t41 109t75.5 76t112 27.5q103 0 151 -53t48 -160
q0 -151 -60 -248.5t-184 -97.5zM256 42q45 0 79 20.5t53 51.5t31 74t15.5 80t3.5 78q0 151 -141 151q-45 0 -79 -20.5t-52.5 -51t-30 -73.5t-15 -80t-3.5 -78q0 -152 139 -152z" />
    <glyph glyph-name="odieresis" unicode="&#xf6;" horiz-adv-x="555" 
d="M254 666q-18 0 -29 11t-11 29q0 20 12.5 33t33.5 13q18 0 29 -11t11 -29q0 -20 -12.5 -33t-33.5 -13zM429 666q-18 0 -29 11t-11 29q0 20 12.5 33t33.5 13q18 0 29 -11t11 -29q0 -20 -12.5 -33t-33.5 -13zM254 -10q-102 0 -149.5 53.5t-47.5 160.5q0 72 13.5 132.5
t41 109t75.5 76t112 27.5q103 0 151 -53t48 -160q0 -151 -60 -248.5t-184 -97.5zM256 42q45 0 79 20.5t53 51.5t31 74t15.5 80t3.5 78q0 151 -141 151q-45 0 -79 -20.5t-52.5 -51t-30 -73.5t-15 -80t-3.5 -78q0 -152 139 -152z" />
    <glyph glyph-name="divide" unicode="&#xf7;" horiz-adv-x="499" 
d="M269 459q-22 0 -36.5 14.5t-14.5 36.5q0 23 17.5 40.5t40.5 17.5q22 0 36.5 -14.5t14.5 -36.5q0 -23 -17.5 -40.5t-40.5 -17.5zM16 309l8 56h459l-8 -56h-459zM220 106q-22 0 -36.5 14.5t-14.5 36.5q0 23 17.5 40.5t40.5 17.5q22 0 36.5 -14.5t14.5 -36.5
q0 -23 -17.5 -40.5t-40.5 -17.5z" />
    <glyph glyph-name="oslash" unicode="&#xf8;" horiz-adv-x="555" 
d="M11 -10l64 80q-28 50 -28 134q0 72 13.5 132.5t41 109t75.5 76t112 27.5q91 0 140 -43l35 43h60l-65 -80q29 -49 29 -133q0 -151 -60 -248.5t-184 -97.5q-91 0 -139 42l-34 -42h-60zM117 122l275 338q-37 37 -105 37q-45 0 -79 -20.5t-52.5 -51t-30 -73.5t-15 -80
t-3.5 -78q0 -43 10 -72zM246 42q45 0 79 20.5t53 51.5t31 74t15.5 80t3.5 78t-11 71l-274 -338q34 -37 103 -37z" />
    <glyph glyph-name="ugrave" unicode="&#xf9;" horiz-adv-x="583" 
d="M320 626l-168 117l64 36l142 -120zM224 -11q-74 0 -113.5 38.5t-39.5 103.5q0 20 11 104l25 176q6 39 6 74q0 26 -5 49l57 7q6 -23 6 -56q0 -25 -6 -73l-24 -173q-11 -82 -11 -99q0 -99 107 -99q71 0 118.5 43t59.5 129l45 326h58l-50 -358q-1 -11 -4.5 -34.5t-6 -40.5
t-2.5 -24q0 -19 9.5 -27t34.5 -8h20l-6 -42q-14 -7 -45 -7q-35 0 -52.5 19t-17.5 51h-4q-5 -11 -21 -27t-57 -34t-92 -18z" />
    <glyph glyph-name="uacute" unicode="&#xfa;" horiz-adv-x="583" 
d="M327 626l-38 33l142 120l64 -36zM224 -11q-74 0 -113.5 38.5t-39.5 103.5q0 20 11 104l25 176q6 39 6 74q0 26 -5 49l57 7q6 -23 6 -56q0 -25 -6 -73l-24 -173q-11 -82 -11 -99q0 -99 107 -99q71 0 118.5 43t59.5 129l45 326h58l-50 -358q-1 -11 -4.5 -34.5t-6 -40.5
t-2.5 -24q0 -19 9.5 -27t34.5 -8h20l-6 -42q-14 -7 -45 -7q-35 0 -52.5 19t-17.5 51h-4q-5 -11 -21 -27t-57 -34t-92 -18z" />
    <glyph glyph-name="ucircumflex" unicode="&#xfb;" horiz-adv-x="583" 
d="M177 624l-24 37l206 123l175 -124l-25 -35l-153 97zM224 -11q-74 0 -113.5 38.5t-39.5 103.5q0 20 11 104l25 176q6 39 6 74q0 26 -5 49l57 7q6 -23 6 -56q0 -25 -6 -73l-24 -173q-11 -82 -11 -99q0 -99 107 -99q71 0 118.5 43t59.5 129l45 326h58l-50 -358
q-1 -11 -4.5 -34.5t-6 -40.5t-2.5 -24q0 -19 9.5 -27t34.5 -8h20l-6 -42q-14 -7 -45 -7q-35 0 -52.5 19t-17.5 51h-4q-5 -11 -21 -27t-57 -34t-92 -18z" />
    <glyph glyph-name="udieresis" unicode="&#xfc;" horiz-adv-x="583" 
d="M254 666q-18 0 -29 11t-11 29q0 20 12.5 33t33.5 13q18 0 29 -11t11 -29q0 -20 -12.5 -33t-33.5 -13zM429 666q-18 0 -29 11t-11 29q0 20 12.5 33t33.5 13q18 0 29 -11t11 -29q0 -20 -12.5 -33t-33.5 -13zM224 -11q-74 0 -113.5 38.5t-39.5 103.5q0 20 11 104l25 176
q6 39 6 74q0 26 -5 49l57 7q6 -23 6 -56q0 -25 -6 -73l-24 -173q-11 -82 -11 -99q0 -99 107 -99q71 0 118.5 43t59.5 129l45 326h58l-50 -358q-1 -11 -4.5 -34.5t-6 -40.5t-2.5 -24q0 -19 9.5 -27t34.5 -8h20l-6 -42q-14 -7 -45 -7q-35 0 -52.5 19t-17.5 51h-4
q-5 -11 -21 -27t-57 -34t-92 -18z" />
    <glyph glyph-name="yacute" unicode="&#xfd;" horiz-adv-x="561" 
d="M318 626l-38 33l142 120l64 -36zM189 -221q-112 0 -174 54l35 48q51 -48 144 -48q162 0 182 155l11 80h-4q-6 -12 -18.5 -27t-51.5 -33.5t-90 -18.5q-70 0 -109 38.5t-39 103.5q0 37 21 170.5t21 158.5q0 19 -9 27t-35 8h-20l7 42q16 7 46 7q35 0 53 -19t18 -51
q0 -25 -21.5 -157.5t-21.5 -176.5q0 -99 101 -99q70 0 115 43t57 129l45 326h58l-77 -551q-30 -209 -244 -209z" />
    <glyph glyph-name="thorn" unicode="&#xfe;" horiz-adv-x="561" 
d="M28 -194l116 824q6 39 6 74q0 26 -5 49l57 7q6 -23 6 -56q0 -25 -6 -73l-21 -147h4q47 65 143 65q82 0 129 -52.5t47 -150.5q0 -69 -16 -129t-49 -109.5t-90 -78.5t-132 -29q-57 0 -101 14l-30 -208h-58zM217 54q107 0 167 75.5t60 218.5q0 75 -33.5 111.5t-86.5 36.5
q-66 0 -109.5 -41.5t-54.5 -123.5l-35 -261q36 -16 92 -16z" />
    <glyph glyph-name="ydieresis" unicode="&#xff;" horiz-adv-x="561" 
d="M253 666q-18 0 -29 11t-11 29q0 20 12.5 33t33.5 13q18 0 29 -11t11 -29q0 -20 -12.5 -33t-33.5 -13zM428 666q-18 0 -29 11t-11 29q0 20 12.5 33t33.5 13q18 0 29 -11t11 -29q0 -20 -12.5 -33t-33.5 -13zM189 -221q-112 0 -174 54l35 48q51 -48 144 -48q162 0 182 155
l11 80h-4q-6 -12 -18.5 -27t-51.5 -33.5t-90 -18.5q-70 0 -109 38.5t-39 103.5q0 37 21 170.5t21 158.5q0 19 -9 27t-35 8h-20l7 42q16 7 46 7q35 0 53 -19t18 -51q0 -25 -21.5 -157.5t-21.5 -176.5q0 -99 101 -99q70 0 115 43t57 129l45 326h58l-77 -551
q-30 -209 -244 -209z" />
    <glyph glyph-name="Amacron" unicode="&#x100;" horiz-adv-x="576" 
d="M521 884l-6 -46h-303l6 46h303zM463 0l-40 216h-295l-100 -216h-66l329 701h101l133 -701h-62zM154 272h259l-51 275q-4 19 -11.5 58.5t-11.5 59.5h-4q-8 -20 -26 -58.5t-26 -57.5z" />
    <glyph glyph-name="amacron" unicode="&#x101;" 
d="M180 676l6 46h303l-6 -46h-303zM210 -9q-78 0 -120.5 49t-42.5 145q0 154 77.5 256t212.5 102q100 0 148 -30l-40 -280q-16 -116 -16 -139q0 -24 9 -35t35 -11h18l-6 -42q-16 -8 -39 -8q-34 0 -51.5 19t-20.5 48h-4q-57 -74 -160 -74zM222 43q52 0 94.5 30.5t59.5 71.5
l47 333q-30 13 -88 13q-99 0 -164 -80t-65 -220q0 -148 116 -148z" />
    <glyph glyph-name="Abreve" unicode="&#x102;" horiz-adv-x="576" 
d="M358 807q-39 0 -70 11.5t-47.5 29.5t-23.5 29t-10 19l44 26q29 -67 110 -67q82 0 126 70l39 -27q-6 -10 -14 -20t-28 -29t-53 -30.5t-73 -11.5zM291 701h101l133 -701h-62l-40 216h-295l-100 -216h-66zM154 272h259l-51 275q-4 19 -11.5 58.5t-11.5 59.5h-4
q-8 -20 -26 -58.5t-26 -57.5z" />
    <glyph glyph-name="abreve" unicode="&#x103;" 
d="M333 645q-39 0 -70 11.5t-47.5 29.5t-23.5 29t-10 19l44 26q29 -67 110 -67q82 0 126 70l39 -27q-6 -10 -14 -20t-28 -29t-53 -30.5t-73 -11.5zM218 -9q-78 0 -120.5 49t-42.5 145q0 154 77.5 256t212.5 102q100 0 148 -30l-40 -280q-16 -116 -16 -139q0 -24 9 -35
t35 -11h18l-6 -42q-16 -8 -39 -8q-34 0 -51.5 19t-20.5 48h-4q-57 -74 -160 -74zM230 43q52 0 94.5 30.5t59.5 71.5l47 333q-30 13 -88 13q-99 0 -164 -80t-65 -220q0 -148 116 -148z" />
    <glyph glyph-name="Aogonek" unicode="&#x104;" horiz-adv-x="576" 
d="M395 -136q0 -52 68 -52q31 0 52 8v-46q-33 -11 -68 -11q-53 0 -81 25.5t-28 64.5q0 86 123 157l-38 206h-295l-100 -216h-66l329 701h101l133 -701q-130 -64 -130 -136zM154 272h259l-51 275q-4 19 -11.5 58.5t-11.5 59.5h-4q-8 -20 -26 -58.5t-26 -57.5z" />
    <glyph glyph-name="aogonek" unicode="&#x105;" 
d="M423 -227q-55 0 -82 24.5t-27 64.5q0 84 110 150q-36 6 -40 53h-4q-57 -74 -160 -74q-78 0 -120.5 49t-42.5 145q0 154 77.5 256t212.5 102q100 0 148 -30l-40 -280q-16 -116 -16 -139q0 -24 9 -35t35 -11h18l-6 -42q-124 -63 -124 -133q0 -51 70 -51q27 0 48 8l2 -47
q-30 -10 -68 -10zM232 43q52 0 94.5 30.5t59.5 71.5l47 333q-30 13 -88 13q-99 0 -164 -80t-65 -220q0 -148 116 -148z" />
    <glyph glyph-name="Cacute" unicode="&#x106;" horiz-adv-x="547" 
d="M416 788l-38 33l142 120l64 -36zM293 -10q-112 0 -172.5 72t-60.5 198q0 63 9.5 123t33 120.5t59.5 105.5t93.5 73.5t130.5 28.5q115 0 173 -51l-37 -48q-53 43 -141 43q-114 0 -186 -102.5t-72 -295.5q0 -106 48 -159t135 -53q86 0 144 45l29 -48q-64 -52 -186 -52z" />
    <glyph glyph-name="cacute" unicode="&#x107;" horiz-adv-x="460" 
d="M323 626l-38 33l142 120l64 -36zM247 -8q-89 0 -139.5 52t-50.5 157q0 66 13.5 125t42 110t79.5 81t118 30q98 0 148 -52l-38 -42q-38 40 -108 40q-92 0 -143 -77t-51 -217q0 -153 137 -153q69 0 111 40l33 -42q-49 -52 -152 -52z" />
    <glyph glyph-name="Ccircumflex" unicode="&#x108;" horiz-adv-x="547" 
d="M244 786l-24 37l206 123l175 -124l-25 -35l-153 97zM293 -10q-112 0 -172.5 72t-60.5 198q0 63 9.5 123t33 120.5t59.5 105.5t93.5 73.5t130.5 28.5q115 0 173 -51l-37 -48q-53 43 -141 43q-114 0 -186 -102.5t-72 -295.5q0 -106 48 -159t135 -53q86 0 144 45l29 -48
q-64 -52 -186 -52z" />
    <glyph glyph-name="ccircumflex" unicode="&#x109;" horiz-adv-x="460" 
d="M156 624l-24 37l206 123l175 -124l-25 -35l-153 97zM247 -8q-89 0 -139.5 52t-50.5 157q0 66 13.5 125t42 110t79.5 81t118 30q98 0 148 -52l-38 -42q-38 40 -108 40q-92 0 -143 -77t-51 -217q0 -153 137 -153q69 0 111 40l33 -42q-49 -52 -152 -52z" />
    <glyph glyph-name="Cdotaccent" unicode="&#x10a;" horiz-adv-x="547" 
d="M418 809q-19 0 -31.5 11t-13.5 30v4q0 22 14 36.5t37 14.5q20 0 32.5 -12t12.5 -33q0 -22 -14 -36.5t-37 -14.5zM293 -10q-112 0 -172.5 72t-60.5 198q0 63 9.5 123t33 120.5t59.5 105.5t93.5 73.5t130.5 28.5q115 0 173 -51l-37 -48q-53 43 -141 43q-114 0 -186 -102.5
t-72 -295.5q0 -106 48 -159t135 -53q86 0 144 45l29 -48q-64 -52 -186 -52z" />
    <glyph glyph-name="cdotaccent" unicode="&#x10b;" horiz-adv-x="460" 
d="M350 647q-19 0 -31.5 11t-13.5 30v4q0 22 14 36.5t37 14.5q20 0 32.5 -12t12.5 -33q0 -22 -14 -36.5t-37 -14.5zM247 -8q-89 0 -139.5 52t-50.5 157q0 66 13.5 125t42 110t79.5 81t118 30q98 0 148 -52l-38 -42q-38 40 -108 40q-92 0 -143 -77t-51 -217q0 -153 137 -153
q69 0 111 40l33 -42q-49 -52 -152 -52z" />
    <glyph glyph-name="Ccaron" unicode="&#x10c;" horiz-adv-x="547" 
d="M392 786l-175 124l25 35l153 -97l179 98l24 -37zM293 -10q-112 0 -172.5 72t-60.5 198q0 63 9.5 123t33 120.5t59.5 105.5t93.5 73.5t130.5 28.5q115 0 173 -51l-37 -48q-53 43 -141 43q-114 0 -186 -102.5t-72 -295.5q0 -106 48 -159t135 -53q86 0 144 45l29 -48
q-64 -52 -186 -52z" />
    <glyph glyph-name="ccaron" unicode="&#x10d;" horiz-adv-x="460" 
d="M332 624l-175 124l25 35l153 -97l179 98l24 -37zM247 -8q-89 0 -139.5 52t-50.5 157q0 66 13.5 125t42 110t79.5 81t118 30q98 0 148 -52l-38 -42q-38 40 -108 40q-92 0 -143 -77t-51 -217q0 -153 137 -153q69 0 111 40l33 -42q-49 -52 -152 -52z" />
    <glyph glyph-name="Dcaron" unicode="&#x10e;" horiz-adv-x="642" 
d="M335 786l-175 124l25 35l153 -97l179 98l24 -37zM50 0l98 701h171q261 0 261 -269q0 -68 -10 -127.5t-35 -116.5t-64 -98t-101 -65.5t-141 -24.5h-179zM118 57h115q142 0 213 97.5t71 275.5q0 113 -54 163.5t-157 50.5h-106z" />
    <glyph glyph-name="dcaron" unicode="&#x10f;" horiz-adv-x="656" 
d="M228 -11q-82 0 -126.5 49t-44.5 146q0 69 16 130t48.5 112.5t89 81.5t131.5 30q66 0 103 -15l15 107q6 39 6 74q0 26 -5 49l57 7q6 -23 6 -56q0 -25 -6 -73l-57 -396q-19 -129 -19 -151q0 -19 9.5 -28.5t35.5 -9.5h19l-7 -42q-16 -7 -44 -7q-66 0 -70 62h-4
q-51 -70 -153 -70zM237 41q58 0 97.5 32.5t55.5 70.5l48 321q-40 19 -94 19q-108 0 -167.5 -78t-59.5 -222q0 -75 32.5 -109t87.5 -34z" />
    <glyph glyph-name="Dcroat" unicode="&#x110;" horiz-adv-x="642" 
d="M319 701q261 0 261 -269q0 -68 -10 -127.5t-35 -116.5t-64 -98t-101 -65.5t-141 -24.5h-179l48 342h-96l6 48h97l43 311h171zM233 57q142 0 213 97.5t71 275.5q0 113 -54 163.5t-157 50.5h-106l-35 -254h149l-6 -48h-150l-40 -285h115z" />
    <glyph glyph-name="dcroat" unicode="&#x111;" horiz-adv-x="569" 
d="M517 623l-56 -388q-19 -129 -19 -151q0 -19 9.5 -28.5t35.5 -9.5h19l-7 -42q-16 -7 -44 -7q-66 0 -70 62h-4q-51 -70 -153 -70q-82 0 -126.5 49t-44.5 146q0 69 16 130t48.5 112.5t89 81.5t131.5 30q66 0 103 -15l14 100h-187l7 48h186q1 11 1 33q0 26 -5 49l57 7
q6 -23 6 -56q0 -11 -2 -33h63l-7 -48h-61zM390 144l48 321q-40 19 -94 19q-108 0 -167.5 -78t-59.5 -222q0 -75 32.5 -109t87.5 -34q58 0 97.5 32.5t55.5 70.5z" />
    <glyph glyph-name="Emacron" unicode="&#x112;" horiz-adv-x="519" 
d="M211 838l6 46h303l-6 -46h-303zM50 0l98 701h360l-8 -56h-300l-37 -262h265l-8 -56h-265l-38 -271h315l-7 -56h-375z" />
    <glyph glyph-name="emacron" unicode="&#x113;" horiz-adv-x="545" 
d="M191 676l6 46h303l-6 -46h-303zM261 -6q-101 0 -152.5 55.5t-51.5 160.5q0 168 69.5 252.5t176.5 84.5q92 0 138.5 -49.5t46.5 -133.5q0 -56 -17 -115h-356q-2 -15 -2 -36q0 -166 154 -166q48 0 86 15t53 29l28 -46q-64 -51 -173 -51zM122 299h300q8 34 8 65
q0 129 -128 129q-150 0 -180 -194z" />
    <glyph glyph-name="Ebreve" unicode="&#x114;" horiz-adv-x="519" 
d="M358 807q-39 0 -70 11.5t-47.5 29.5t-23.5 29t-10 19l44 26q29 -67 110 -67q82 0 126 70l39 -27q-6 -10 -14 -20t-28 -29t-53 -30.5t-73 -11.5zM50 0l98 701h360l-8 -56h-300l-37 -262h265l-8 -56h-265l-38 -271h315l-7 -56h-375z" />
    <glyph glyph-name="ebreve" unicode="&#x115;" horiz-adv-x="545" 
d="M336 645q-39 0 -70 11.5t-47.5 29.5t-23.5 29t-10 19l44 26q29 -67 110 -67q82 0 126 70l39 -27q-6 -10 -14 -20t-28 -29t-53 -30.5t-73 -11.5zM261 -6q-101 0 -152.5 55.5t-51.5 160.5q0 168 69.5 252.5t176.5 84.5q92 0 138.5 -49.5t46.5 -133.5q0 -56 -17 -115h-356
q-2 -15 -2 -36q0 -166 154 -166q48 0 86 15t53 29l28 -46q-64 -51 -173 -51zM122 299h300q8 34 8 65q0 129 -128 129q-150 0 -180 -194z" />
    <glyph glyph-name="Edotaccent" unicode="&#x116;" horiz-adv-x="519" 
d="M361 809q-19 0 -31.5 11t-13.5 30v4q0 22 14 36.5t37 14.5q20 0 32.5 -12t12.5 -33q0 -22 -14 -36.5t-37 -14.5zM50 0l98 701h360l-8 -56h-300l-37 -262h265l-8 -56h-265l-38 -271h315l-7 -56h-375z" />
    <glyph glyph-name="edotaccent" unicode="&#x117;" horiz-adv-x="545" 
d="M338 647q-19 0 -31.5 11t-13.5 30v4q0 22 14 36.5t37 14.5q20 0 32.5 -12t12.5 -33q0 -22 -14 -36.5t-37 -14.5zM261 -6q-101 0 -152.5 55.5t-51.5 160.5q0 168 69.5 252.5t176.5 84.5q92 0 138.5 -49.5t46.5 -133.5q0 -56 -17 -115h-356q-2 -15 -2 -36q0 -166 154 -166
q48 0 86 15t53 29l28 -46q-64 -51 -173 -51zM122 299h300q8 34 8 65q0 129 -128 129q-150 0 -180 -194z" />
    <glyph glyph-name="Eogonek" unicode="&#x118;" horiz-adv-x="519" 
d="M500 645h-300l-37 -262h265l-8 -56h-265l-38 -271h315l-7 -56q-130 -64 -130 -136q0 -52 68 -52q31 0 52 8v-46q-33 -11 -68 -11q-53 0 -81 25.5t-28 64.5q0 82 107 147h-295l98 701h360z" />
    <glyph glyph-name="eogonek" unicode="&#x119;" horiz-adv-x="545" 
d="M471 249h-356q-2 -15 -2 -36q0 -166 154 -166q48 0 86 15t53 29l28 -46q-17 -14 -44 -26q-119 -62 -119 -130q0 -52 68 -52q31 0 52 8v-46q-33 -11 -68 -11q-53 0 -81 25.5t-28 64.5q0 63 64 116h-17q-101 0 -152.5 55.5t-51.5 160.5q0 168 69.5 252.5t176.5 84.5
q92 0 138.5 -49.5t46.5 -133.5q0 -56 -17 -115zM302 493q-150 0 -180 -194h300q8 34 8 65q0 129 -128 129z" />
    <glyph glyph-name="Ecaron" unicode="&#x11a;" horiz-adv-x="519" 
d="M350 786l-175 124l25 35l153 -97l179 98l24 -37zM50 0l98 701h360l-8 -56h-300l-37 -262h265l-8 -56h-265l-38 -271h315l-7 -56h-375z" />
    <glyph glyph-name="ecaron" unicode="&#x11b;" horiz-adv-x="545" 
d="M331 624l-175 124l25 35l153 -97l179 98l24 -37zM261 -6q-101 0 -152.5 55.5t-51.5 160.5q0 168 69.5 252.5t176.5 84.5q92 0 138.5 -49.5t46.5 -133.5q0 -56 -17 -115h-356q-2 -15 -2 -36q0 -166 154 -166q48 0 86 15t53 29l28 -46q-64 -51 -173 -51zM122 299h300
q8 34 8 65q0 129 -128 129q-150 0 -180 -194z" />
    <glyph glyph-name="Gcircumflex" unicode="&#x11c;" horiz-adv-x="633" 
d="M419 884l-179 -98l-24 37l206 123l175 -124l-25 -35zM395 656q-76 0 -131.5 -35t-85 -94t-43 -124.5t-13.5 -139.5q0 -110 50.5 -163.5t142.5 -53.5q95 0 137 33l31 220h-136l8 56h195l-43 -309q-61 -56 -203 -56q-114 0 -179 69.5t-65 204.5q0 65 10 125.5t34 120
t61 103.5t96 71t133 27q120 0 185 -56l-36 -46q-60 47 -148 47z" />
    <glyph glyph-name="gcircumflex" unicode="&#x11d;" horiz-adv-x="556" 
d="M187 624l-24 37l206 123l175 -124l-25 -35l-153 97zM193 -221q-59 0 -105.5 18t-65.5 36l34 47q9 -8 24 -17.5t48 -19.5t70 -10q79 0 121.5 37t52.5 118l8 64h-4q-50 -60 -146 -60q-80 0 -127.5 51t-47.5 152q0 158 80 256.5t219 98.5q39 0 74.5 -7.5t51 -14t22.5 -11.5
l-73 -529q-15 -108 -72 -158.5t-164 -50.5zM244 45q64 0 105 35.5t51 103.5l41 298q-30 16 -87 16q-107 0 -173 -76.5t-66 -218.5q0 -158 129 -158z" />
    <glyph glyph-name="Gbreve" unicode="&#x11e;" horiz-adv-x="633" 
d="M418 807q-39 0 -70 11.5t-47.5 29.5t-23.5 29t-10 19l44 26q29 -67 110 -67q82 0 126 70l39 -27q-6 -10 -14 -20t-28 -29t-53 -30.5t-73 -11.5zM395 656q-76 0 -131.5 -35t-85 -94t-43 -124.5t-13.5 -139.5q0 -110 50.5 -163.5t142.5 -53.5q95 0 137 33l31 220h-136l8 56
h195l-43 -309q-61 -56 -203 -56q-114 0 -179 69.5t-65 204.5q0 65 10 125.5t34 120t61 103.5t96 71t133 27q120 0 185 -56l-36 -46q-60 47 -148 47z" />
    <glyph glyph-name="gbreve" unicode="&#x11f;" horiz-adv-x="556" 
d="M360 645q-39 0 -70 11.5t-47.5 29.5t-23.5 29t-10 19l44 26q29 -67 110 -67q82 0 126 70l39 -27q-6 -10 -14 -20t-28 -29t-53 -30.5t-73 -11.5zM193 -221q-59 0 -105.5 18t-65.5 36l34 47q9 -8 24 -17.5t48 -19.5t70 -10q79 0 121.5 37t52.5 118l8 64h-4
q-50 -60 -146 -60q-80 0 -127.5 51t-47.5 152q0 158 80 256.5t219 98.5q39 0 74.5 -7.5t51 -14t22.5 -11.5l-73 -529q-15 -108 -72 -158.5t-164 -50.5zM244 45q64 0 105 35.5t51 103.5l41 298q-30 16 -87 16q-107 0 -173 -76.5t-66 -218.5q0 -158 129 -158z" />
    <glyph glyph-name="Gdotaccent" unicode="&#x120;" horiz-adv-x="633" 
d="M458 809q-19 0 -31.5 11t-13.5 30v4q0 22 14 36.5t37 14.5q20 0 32.5 -12t12.5 -33q0 -22 -14 -36.5t-37 -14.5zM355 355h195l-43 -309q-61 -56 -203 -56q-114 0 -179 69.5t-65 204.5q0 65 10 125.5t34 120t61 103.5t96 71t133 27q120 0 185 -56l-36 -46q-60 47 -148 47
q-76 0 -131.5 -35t-85 -94t-43 -124.5t-13.5 -139.5q0 -110 50.5 -163.5t142.5 -53.5q95 0 137 33l31 220h-136z" />
    <glyph glyph-name="gdotaccent" unicode="&#x121;" horiz-adv-x="556" 
d="M380 647q-19 0 -31.5 11t-13.5 30v4q0 22 14 36.5t37 14.5q20 0 32.5 -12t12.5 -33q0 -22 -14 -36.5t-37 -14.5zM193 -221q-59 0 -105.5 18t-65.5 36l34 47q9 -8 24 -17.5t48 -19.5t70 -10q79 0 121.5 37t52.5 118l8 64h-4q-50 -60 -146 -60q-80 0 -127.5 51t-47.5 152
q0 158 80 256.5t219 98.5q39 0 74.5 -7.5t51 -14t22.5 -11.5l-73 -529q-15 -108 -72 -158.5t-164 -50.5zM244 45q64 0 105 35.5t51 103.5l41 298q-30 16 -87 16q-107 0 -173 -76.5t-66 -218.5q0 -158 129 -158z" />
    <glyph glyph-name="Gcommaaccent" unicode="&#x122;" horiz-adv-x="633" 
d="M355 355h195l-43 -309q-61 -56 -203 -56q-114 0 -179 69.5t-65 204.5q0 65 10 125.5t34 120t61 103.5t96 71t133 27q120 0 185 -56l-36 -46q-60 47 -148 47q-76 0 -131.5 -35t-85 -94t-43 -124.5t-13.5 -139.5q0 -110 50.5 -163.5t142.5 -53.5q95 0 137 33l31 220h-136z
M285 -117q23 0 38.5 -15.5t15.5 -43.5q0 -86 -85 -137l-19 23q43 32 43 63q0 5 -1 9.5t-4 9t-5 8t-7 8t-8 7t-10.5 8t-10.5 8.5q2 22 16.5 37t36.5 15z" />
    <glyph glyph-name="gcommaaccent" unicode="&#x123;" horiz-adv-x="556" 
d="M193 -221q-59 0 -105.5 18t-65.5 36l34 47q9 -8 24 -17.5t48 -19.5t70 -10q79 0 121.5 37t52.5 118l8 64h-4q-50 -60 -146 -60q-80 0 -127.5 51t-47.5 152q0 158 80 256.5t219 98.5q39 0 74.5 -7.5t51 -14t22.5 -11.5l-73 -529q-15 -108 -72 -158.5t-164 -50.5zM244 45
q64 0 105 35.5t51 103.5l41 298q-30 16 -87 16q-107 0 -173 -76.5t-66 -218.5q0 -158 129 -158z" />
    <glyph glyph-name="Hcircumflex" unicode="&#x124;" horiz-adv-x="682" 
d="M241 786l-24 37l206 123l175 -124l-25 -35l-153 97zM23 0l98 701h60l-45 -317h362l45 317h60l-98 -701h-60l46 328h-362l-46 -328h-60z" />
    <glyph glyph-name="hcircumflex" unicode="&#x125;" horiz-adv-x="567" 
d="M29 759l-24 37l206 123l175 -124l-25 -35l-153 97zM51 0l88 630q6 39 6 74q0 26 -5 49l57 7q6 -23 6 -56q0 -25 -6 -73l-24 -167h4q65 83 169 83q69 0 110 -36.5t41 -96.5q0 -41 -15 -146l-38 -268h-58l38 268q16 120 16 134q0 93 -104 93q-68 0 -119.5 -47t-61.5 -121
l-46 -327h-58z" />
    <glyph glyph-name="Hbar" unicode="&#x126;" horiz-adv-x="694" 
d="M687 563l-7 -48h-97l-72 -515h-60l46 328h-362l-46 -328h-60l72 515h-43l7 48h43l19 138h60l-20 -138h362l20 138h60l-19 -138h97zM504 384l19 131h-362l-19 -131h362z" />
    <glyph glyph-name="hbar" unicode="&#x127;" horiz-adv-x="567" 
d="M346 547q69 0 110 -36.5t41 -96.5q0 -41 -15 -146l-38 -268h-58l38 268q16 120 16 134q0 93 -104 93q-68 0 -119.5 -47t-61.5 -121l-46 -327h-58l87 623h-64l7 48h63q1 11 1 33q0 26 -5 49l57 7q6 -23 6 -56q0 -11 -2 -33h186l-7 -48h-184l-23 -159h4q65 83 169 83z" />
    <glyph glyph-name="Itilde" unicode="&#x128;" horiz-adv-x="280" 
d="M272 813q-22 0 -65 17t-64 17q-40 0 -71 -24l-17 40q45 33 95 33q26 0 68 -16.5t60 -16.5q41 0 65 27l18 -40q-5 -6 -14 -13.5t-30 -15.5t-45 -8zM60 0l98 701h60l-98 -701h-60z" />
    <glyph glyph-name="itilde" unicode="&#x129;" horiz-adv-x="273" 
d="M254 651q-22 0 -65 17t-64 17q-40 0 -71 -24l-17 40q45 33 95 33q26 0 68 -16.5t60 -16.5q41 0 65 27l18 -40q-5 -6 -14 -13.5t-30 -15.5t-45 -8zM146 -2q-35 0 -53 19t-18 51q0 27 13 113l50 358h58l-50 -358q-1 -11 -4.5 -34.5t-6 -40.5t-2.5 -24q0 -19 9.5 -27
t34.5 -8h20l-7 -42q-16 -7 -44 -7z" />
    <glyph glyph-name="Imacron" unicode="&#x12a;" horiz-adv-x="280" 
d="M56 838l6 46h303l-6 -46h-303zM60 0l98 701h60l-98 -701h-60z" />
    <glyph glyph-name="imacron" unicode="&#x12b;" horiz-adv-x="273" 
d="M33 676l6 46h303l-6 -46h-303zM146 -2q-35 0 -53 19t-18 51q0 27 13 113l50 358h58l-50 -358q-1 -11 -4.5 -34.5t-6 -40.5t-2.5 -24q0 -19 9.5 -27t34.5 -8h20l-7 -42q-16 -7 -44 -7z" />
    <glyph glyph-name="Ibreve" unicode="&#x12c;" horiz-adv-x="280" 
d="M204 807q-39 0 -70 11.5t-47.5 29.5t-23.5 29t-10 19l44 26q29 -67 110 -67q82 0 126 70l39 -27q-6 -10 -14 -20t-28 -29t-53 -30.5t-73 -11.5zM60 0l98 701h60l-98 -701h-60z" />
    <glyph glyph-name="ibreve" unicode="&#x12d;" horiz-adv-x="273" 
d="M181 645q-39 0 -70 11.5t-47.5 29.5t-23.5 29t-10 19l44 26q29 -67 110 -67q82 0 126 70l39 -27q-6 -10 -14 -20t-28 -29t-53 -30.5t-73 -11.5zM146 -2q-35 0 -53 19t-18 51q0 27 13 113l50 358h58l-50 -358q-1 -11 -4.5 -34.5t-6 -40.5t-2.5 -24q0 -19 9.5 -27t34.5 -8
h20l-7 -42q-16 -7 -44 -7z" />
    <glyph glyph-name="Iogonek" unicode="&#x12e;" horiz-adv-x="280" 
d="M120 0q-130 -64 -130 -136q0 -52 68 -52q31 0 52 8v-46q-33 -11 -68 -11q-53 0 -81 25.5t-28 64.5q0 90 129 160l96 688h60z" />
    <glyph glyph-name="iogonek" unicode="&#x12f;" horiz-adv-x="273" 
d="M189 743q20 0 32.5 -12t12.5 -33q0 -22 -14 -36.5t-37 -14.5q-19 0 -32 12t-13 33q0 22 14 36.5t37 14.5zM133 82q0 -19 9.5 -27t34.5 -8h20l-7 -42q-130 -64 -130 -136q0 -52 68 -52q31 0 52 8v-46q-33 -11 -68 -11q-53 0 -81 25.5t-28 64.5q0 82 107 147q-35 16 -35 63
q0 27 13 113l50 358h58l-50 -358q-1 -11 -4.5 -34.5t-6 -40.5t-2.5 -24z" />
    <glyph glyph-name="Idotaccent" unicode="&#x130;" horiz-adv-x="280" 
d="M205 809q-19 0 -31.5 11t-13.5 30v4q0 22 14 36.5t37 14.5q20 0 32.5 -12t12.5 -33q0 -22 -14 -36.5t-37 -14.5zM60 0l98 701h60l-98 -701h-60z" />
    <glyph glyph-name="dotlessi" unicode="&#x131;" horiz-adv-x="273" 
d="M146 -2q-35 0 -53 19t-18 51q0 27 13 113l50 358h58l-50 -358q-1 -11 -4.5 -34.5t-6 -40.5t-2.5 -24q0 -19 9.5 -27t34.5 -8h20l-7 -42q-16 -7 -44 -7z" />
    <glyph glyph-name="IJ" unicode="&#x132;" horiz-adv-x="630" 
d="M60 0l98 701h60l-98 -701h-60zM332 -8q-73 0 -114 28l24 52q41 -24 96 -24q89 0 102 95l78 558h60l-79 -564q-21 -145 -167 -145z" />
    <glyph glyph-name="ij" unicode="&#x133;" horiz-adv-x="516" 
d="M183 647q-19 0 -32 12t-13 33q0 22 14 36.5t37 14.5q20 0 32.5 -12t12.5 -33q0 -22 -14 -36.5t-37 -14.5zM449 647q-19 0 -32 12t-13 33q0 22 14 36.5t37 14.5q20 0 32.5 -12t12.5 -33q0 -22 -14 -36.5t-37 -14.5zM146 -2q-35 0 -53 19t-18 51q0 27 13 113l50 358h58
l-50 -358q-1 -11 -4.5 -34.5t-6 -40.5t-2.5 -24q0 -19 9.5 -27t34.5 -8h20l-7 -42q-16 -7 -44 -7zM200 -198l-20 52q28 10 48.5 21t44.5 32t40 57t23 84l68 491h58l-68 -493q-16 -111 -67 -165t-127 -79z" />
    <glyph glyph-name="Jcircumflex" unicode="&#x134;" horiz-adv-x="350" 
d="M125 786l-24 37l206 123l175 -124l-25 -35l-153 97zM52 -8q-73 0 -114 28l24 52q41 -24 96 -24q89 0 102 95l78 558h60l-79 -564q-21 -145 -167 -145z" />
    <glyph glyph-name="jcircumflex" unicode="&#x135;" horiz-adv-x="243" 
d="M-3 624l-24 37l206 123l175 -124l-25 -35l-153 97zM-81 -198l-20 52q28 10 48.5 21t44.5 32t40 57t23 84l68 491h58l-68 -493q-16 -111 -67 -165t-127 -79z" />
    <glyph glyph-name="Kcommaaccent" unicode="&#x136;" horiz-adv-x="533" 
d="M50 0l98 701h60l-98 -701h-60zM415 0l-223 358v4l300 339h78l-308 -345l226 -356h-73zM179 -313l-19 23q43 32 43 63q0 5 -1 9.5t-4 9t-5 8t-7 8t-8 7t-10.5 8t-10.5 8.5q2 22 16.5 37t36.5 15q23 0 38.5 -15.5t15.5 -43.5q0 -86 -85 -137z" />
    <glyph glyph-name="kcommaaccent" unicode="&#x137;" horiz-adv-x="460" 
d="M46 0l89 631q6 39 6 73q0 26 -5 49l57 7q6 -23 6 -56q0 -25 -6 -73l-89 -631h-58zM383 -5q-55 0 -84 49l-142 250v4l239 241h73v-4l-242 -244v-4l115 -201q14 -24 24 -31.5t32 -7.5h27l-6 -44q-14 -8 -36 -8zM159 -313l-19 23q43 32 43 63q0 5 -1 9.5t-4 9t-5 8t-7 8
t-8 7t-10.5 8t-10.5 8.5q2 22 16.5 37t36.5 15q23 0 38.5 -15.5t15.5 -43.5q0 -86 -85 -137z" />
    <glyph glyph-name="kgreenlandic" unicode="&#x138;" horiz-adv-x="460" 
d="M46 0l76 539h58l-76 -539h-58zM382 -5q-54 0 -83 49l-135 226v4l234 265h72v-4l-236 -264v-4l108 -181q14 -24 24 -31.5t32 -7.5h27l-6 -44q-14 -8 -37 -8z" />
    <glyph glyph-name="Lacute" unicode="&#x139;" horiz-adv-x="482" 
d="M224 788l-38 33l142 120l64 -36zM50 0l98 701h60l-91 -645h313l-7 -56h-373z" />
    <glyph glyph-name="lacute" unicode="&#x13a;" horiz-adv-x="274" 
d="M184 809l-38 33l142 120l64 -36zM161 -6q-92 0 -92 85q0 16 12 102l63 449q6 39 6 74q0 26 -5 49l57 7q6 -23 6 -56q0 -25 -6 -73l-63 -450q-11 -85 -11 -95q0 -41 47 -41q23 0 45 6l-6 -47q-20 -10 -53 -10z" />
    <glyph glyph-name="Lcommaaccent" unicode="&#x13b;" horiz-adv-x="482" 
d="M50 0l98 701h60l-91 -645h313l-7 -56h-373zM199 -313l-19 23q43 32 43 63q0 5 -1 9.5t-4 9t-5 8t-7 8t-8 7t-10.5 8t-10.5 8.5q2 22 16.5 37t36.5 15q23 0 38.5 -15.5t15.5 -43.5q0 -86 -85 -137z" />
    <glyph glyph-name="lcommaaccent" unicode="&#x13c;" horiz-adv-x="274" 
d="M161 -6q-92 0 -92 85q0 16 12 102l63 449q6 39 6 74q0 26 -5 49l57 7q6 -23 6 -56q0 -25 -6 -73l-63 -450q-11 -85 -11 -95q0 -41 47 -41q23 0 45 6l-6 -47q-20 -10 -53 -10zM76 -313l-19 23q43 32 43 63q0 5 -1 9.5t-4 9t-5 8t-7 8t-8 7t-10.5 8t-10.5 8.5q2 22 16.5 37
t36.5 15q23 0 38.5 -15.5t15.5 -43.5q0 -86 -85 -137z" />
    <glyph glyph-name="Lcaron" unicode="&#x13d;" horiz-adv-x="482" 
d="M50 0l98 701h60l-91 -645h313l-7 -56h-373z" />
    <glyph glyph-name="lcaron" unicode="&#x13e;" horiz-adv-x="357" 
d="M161 -6q-92 0 -92 85q0 16 12 102l63 449q6 39 6 74q0 26 -5 49l57 7q6 -23 6 -56q0 -25 -6 -73l-63 -450q-11 -85 -11 -95q0 -41 47 -41q23 0 45 6l-6 -47q-20 -10 -53 -10z" />
    <glyph glyph-name="Ldot" unicode="&#x13f;" horiz-adv-x="482" 
d="M50 0l98 701h60l-91 -645h313l-7 -56h-373zM304 279q-22 0 -36.5 14.5t-14.5 36.5q0 23 17.5 40.5t40.5 17.5q22 0 36.5 -14.5t14.5 -36.5q0 -23 -17.5 -40.5t-40.5 -17.5z" />
    <glyph glyph-name="ldot" unicode="&#x140;" horiz-adv-x="337" 
d="M161 -6q-92 0 -92 85q0 16 12 102l63 449q6 39 6 74q0 26 -5 49l57 7q6 -23 6 -56q0 -25 -6 -73l-63 -450q-11 -85 -11 -95q0 -41 47 -41q23 0 45 6l-6 -47q-20 -10 -53 -10zM286 293q-22 0 -36.5 14.5t-14.5 36.5q0 23 17.5 40.5t40.5 17.5q22 0 36.5 -14.5t14.5 -36.5
q0 -23 -17.5 -40.5t-40.5 -17.5z" />
    <glyph glyph-name="Lslash" unicode="&#x141;" horiz-adv-x="489" 
d="M124 56h313l-7 -56h-373l44 315l-65 -47l8 56l65 47l46 330h60l-40 -282l149 107l-7 -56l-150 -108z" />
    <glyph glyph-name="lslash" unicode="&#x142;" horiz-adv-x="287" 
d="M171 369l-26 -188q-11 -85 -11 -95q0 -41 47 -41q23 0 45 6l-6 -47q-20 -10 -53 -10q-92 0 -92 85q0 16 12 102l20 141l-59 -43l8 56l59 43l35 252q6 39 6 74q0 26 -5 49l57 7q6 -23 6 -56q0 -25 -6 -73l-29 -206l113 82l-8 -56z" />
    <glyph glyph-name="Nacute" unicode="&#x143;" horiz-adv-x="694" 
d="M424 788l-38 33l142 120l64 -36zM50 0l98 701h87l192 -473q11 -26 32 -79t32 -79h4l24 166l65 465h58l-98 -701h-86l-191 469l-66 162h-4l-24 -170l-64 -461h-59z" />
    <glyph glyph-name="nacute" unicode="&#x144;" horiz-adv-x="577" 
d="M335 626l-38 33l142 120l64 -36zM51 0l75 539h43l6 -69h4q21 28 64 52.5t104 24.5q73 0 114.5 -38t41.5 -106q0 -51 -12 -135l-38 -268h-58l38 267q12 79 12 128q0 100 -105 100q-73 0 -123.5 -46.5t-61.5 -121.5l-46 -327h-58z" />
    <glyph glyph-name="Ncommaaccent" unicode="&#x145;" horiz-adv-x="694" 
d="M50 0l98 701h87l192 -473q11 -26 32 -79t32 -79h4l24 166l65 465h58l-98 -701h-86l-191 469l-66 162h-4l-24 -170l-64 -461h-59zM231 -313l-19 23q43 32 43 63q0 5 -1 9.5t-4 9t-5 8t-7 8t-8 7t-10.5 8t-10.5 8.5q2 22 16.5 37t36.5 15q23 0 38.5 -15.5t15.5 -43.5
q0 -86 -85 -137z" />
    <glyph glyph-name="ncommaaccent" unicode="&#x146;" horiz-adv-x="577" 
d="M51 0l75 539h43l6 -69h4q21 28 64 52.5t104 24.5q73 0 114.5 -38t41.5 -106q0 -51 -12 -135l-38 -268h-58l38 267q12 79 12 128q0 100 -105 100q-73 0 -123.5 -46.5t-61.5 -121.5l-46 -327h-58zM178 -219l-18 34q67 31 67 91q0 22 -15 50v4h61q10 -17 10 -43
q0 -100 -105 -136z" />
    <glyph glyph-name="Ncaron" unicode="&#x147;" horiz-adv-x="694" 
d="M414 786l-175 124l25 35l153 -97l179 98l24 -37zM50 0l98 701h87l192 -473q11 -26 32 -79t32 -79h4l24 166l65 465h58l-98 -701h-86l-191 469l-66 162h-4l-24 -170l-64 -461h-59z" />
    <glyph glyph-name="ncaron" unicode="&#x148;" horiz-adv-x="577" 
d="M339 624l-175 124l25 35l153 -97l179 98l24 -37zM51 0l75 539h43l6 -69h4q21 28 64 52.5t104 24.5q73 0 114.5 -38t41.5 -106q0 -51 -12 -135l-38 -268h-58l38 267q12 79 12 128q0 100 -105 100q-73 0 -123.5 -46.5t-61.5 -121.5l-46 -327h-58z" />
    <glyph glyph-name="napostrophe" unicode="&#x149;" horiz-adv-x="624" 
d="M98 0l75 539h43l6 -69h4q21 28 64 52.5t104 24.5q73 0 114.5 -38t41.5 -106q0 -51 -12 -135l-38 -268h-58l38 267q12 79 12 128q0 100 -105 100q-73 0 -123.5 -46.5t-61.5 -121.5l-46 -327h-58z" />
    <glyph glyph-name="Eng" unicode="&#x14a;" horiz-adv-x="693" 
d="M356 -198l-20 52q24 9 42 18t39.5 25.5t38 42t26.5 60.5h-24l-195 477l-63 154h-4l-23 -170l-64 -461h-59l98 701h87l197 -484l60 -147h4q4 28 11.5 83t11.5 83l65 465h58l-92 -655q-16 -111 -67 -165t-127 -79z" />
    <glyph glyph-name="eng" unicode="&#x14b;" horiz-adv-x="577" 
d="M265 -200l-20 52q28 10 48.5 21t44.5 32t40 57t23 84l32 221q12 79 12 128q0 100 -105 100q-73 0 -123.5 -46.5t-61.5 -121.5l-46 -327h-58l75 539h43l6 -69h4q21 28 64 52.5t104 24.5q73 0 114.5 -38t41.5 -106q0 -51 -12 -135l-32 -224q-16 -111 -67 -165t-127 -79z
" />
    <glyph glyph-name="Omacron" unicode="&#x14c;" horiz-adv-x="675" 
d="M255 838l6 46h303l-6 -46h-303zM289 -10q-229 0 -229 259q0 67 9 128.5t32 124t58 107.5t93 73.5t132 28.5q229 0 229 -260q0 -67 -9 -128.5t-32 -123.5t-58 -107t-93 -73.5t-132 -28.5zM293 47q60 0 106.5 25t74.5 64.5t45.5 95t24 109t6.5 113.5q0 200 -170 200
q-60 0 -106.5 -25t-74.5 -64.5t-45.5 -95t-24 -109t-6.5 -113.5q0 -200 170 -200z" />
    <glyph glyph-name="omacron" unicode="&#x14d;" horiz-adv-x="555" 
d="M186 676l6 46h303l-6 -46h-303zM254 -10q-102 0 -149.5 53.5t-47.5 160.5q0 72 13.5 132.5t41 109t75.5 76t112 27.5q103 0 151 -53t48 -160q0 -151 -60 -248.5t-184 -97.5zM256 42q45 0 79 20.5t53 51.5t31 74t15.5 80t3.5 78q0 151 -141 151q-45 0 -79 -20.5t-52.5 -51
t-30 -73.5t-15 -80t-3.5 -78q0 -152 139 -152z" />
    <glyph glyph-name="Obreve" unicode="&#x14e;" horiz-adv-x="675" 
d="M405 807q-39 0 -70 11.5t-47.5 29.5t-23.5 29t-10 19l44 26q29 -67 110 -67q82 0 126 70l39 -27q-6 -10 -14 -20t-28 -29t-53 -30.5t-73 -11.5zM289 -10q-229 0 -229 259q0 67 9 128.5t32 124t58 107.5t93 73.5t132 28.5q229 0 229 -260q0 -67 -9 -128.5t-32 -123.5
t-58 -107t-93 -73.5t-132 -28.5zM293 47q60 0 106.5 25t74.5 64.5t45.5 95t24 109t6.5 113.5q0 200 -170 200q-60 0 -106.5 -25t-74.5 -64.5t-45.5 -95t-24 -109t-6.5 -113.5q0 -200 170 -200z" />
    <glyph glyph-name="obreve" unicode="&#x14f;" horiz-adv-x="555" 
d="M330 645q-39 0 -70 11.5t-47.5 29.5t-23.5 29t-10 19l44 26q29 -67 110 -67q82 0 126 70l39 -27q-6 -10 -14 -20t-28 -29t-53 -30.5t-73 -11.5zM254 -10q-102 0 -149.5 53.5t-47.5 160.5q0 72 13.5 132.5t41 109t75.5 76t112 27.5q103 0 151 -53t48 -160
q0 -151 -60 -248.5t-184 -97.5zM256 42q45 0 79 20.5t53 51.5t31 74t15.5 80t3.5 78q0 151 -141 151q-45 0 -79 -20.5t-52.5 -51t-30 -73.5t-15 -80t-3.5 -78q0 -152 139 -152z" />
    <glyph glyph-name="Ohungarumlaut" unicode="&#x150;" horiz-adv-x="675" 
d="M294 786l-27 36l176 116l49 -42zM495 786l-28 35l177 117l48 -43zM289 -10q-229 0 -229 259q0 67 9 128.5t32 124t58 107.5t93 73.5t132 28.5q229 0 229 -260q0 -67 -9 -128.5t-32 -123.5t-58 -107t-93 -73.5t-132 -28.5zM293 47q60 0 106.5 25t74.5 64.5t45.5 95t24 109
t6.5 113.5q0 200 -170 200q-60 0 -106.5 -25t-74.5 -64.5t-45.5 -95t-24 -109t-6.5 -113.5q0 -200 170 -200z" />
    <glyph glyph-name="ohungarumlaut" unicode="&#x151;" horiz-adv-x="555" 
d="M221 624l-27 36l176 116l49 -42zM422 624l-28 35l177 117l48 -43zM254 -10q-102 0 -149.5 53.5t-47.5 160.5q0 72 13.5 132.5t41 109t75.5 76t112 27.5q103 0 151 -53t48 -160q0 -151 -60 -248.5t-184 -97.5zM256 42q45 0 79 20.5t53 51.5t31 74t15.5 80t3.5 78
q0 151 -141 151q-45 0 -79 -20.5t-52.5 -51t-30 -73.5t-15 -80t-3.5 -78q0 -152 139 -152z" />
    <glyph glyph-name="OE" unicode="&#x152;" horiz-adv-x="961" 
d="M289 -10q-229 0 -229 259q0 67 9 128.5t32 124t58 107.5t93 73.5t132 28.5q144 0 192 -100h4l13 90h357l-8 -56h-300l-37 -262h265l-8 -56h-265l-38 -271h315l-7 -56h-372l13 92h-4q-70 -102 -215 -102zM293 47q60 0 106.5 25t74 64.5t45 95t24 109t6.5 113.5
q0 200 -169 200q-60 0 -106.5 -25t-74.5 -64.5t-45.5 -95t-24 -109t-6.5 -113.5q0 -200 170 -200z" />
    <glyph glyph-name="oe" unicode="&#x153;" horiz-adv-x="919" 
d="M257 -15q-104 0 -152 54.5t-48 161.5q0 151 60.5 249.5t184.5 98.5q142 0 180 -115h4q26 53 76 83t118 30q91 0 136.5 -49t45.5 -134q0 -56 -17 -115h-356q-2 -15 -2 -36q0 -166 154 -166q48 0 87 14.5t53 27.5l27 -44q-64 -51 -173 -51q-145 0 -183 114h-4
q-51 -123 -191 -123zM259 37q45 0 79 21t53.5 52t31.5 74t15.5 80.5t3.5 78.5q0 154 -142 154q-45 0 -79 -21t-53.5 -52t-31.5 -74t-15.5 -80.5t-3.5 -78.5q0 -154 142 -154zM496 299h300q8 34 8 62q0 132 -125 132q-153 0 -183 -194z" />
    <glyph glyph-name="Racute" unicode="&#x154;" horiz-adv-x="574" 
d="M330 788l-38 33l142 120l64 -36zM50 0l98 701h177q92 0 142 -44t50 -124q0 -110 -53.5 -162.5t-127.5 -58.5l-1 -4q18 -12 29.5 -26.5t30.5 -55.5l104 -226h-67l-100 223q-19 43 -45.5 59.5t-70.5 16.5h-64l-42 -299h-60zM159 354h102q96 0 144 39t48 141
q0 58 -36.5 84.5t-116.5 26.5h-100z" />
    <glyph glyph-name="racute" unicode="&#x155;" horiz-adv-x="336" 
d="M201 626l-38 33l142 120l64 -36zM67 0l50 358q13 101 13 102q0 19 -9.5 27t-34.5 8h-20l6 42q18 7 45 7q62 0 69 -60h4q48 63 137 63q31 0 60 -9l-9 -63q-33 10 -66 10q-119 0 -136 -118l-51 -367h-58z" />
    <glyph glyph-name="Rcommaaccent" unicode="&#x156;" horiz-adv-x="574" 
d="M50 0l98 701h177q92 0 142 -44t50 -124q0 -110 -53.5 -162.5t-127.5 -58.5l-1 -4q18 -12 29.5 -26.5t30.5 -55.5l104 -226h-67l-100 223q-19 43 -45.5 59.5t-70.5 16.5h-64l-42 -299h-60zM159 354h102q96 0 144 39t48 141q0 58 -36.5 84.5t-116.5 26.5h-100zM207 -313
l-19 23q43 32 43 63q0 5 -1 9.5t-4 9t-5 8t-7 8t-8 7t-10.5 8t-10.5 8.5q2 22 16.5 37t36.5 15q23 0 38.5 -15.5t15.5 -43.5q0 -86 -85 -137z" />
    <glyph glyph-name="rcommaaccent" unicode="&#x157;" horiz-adv-x="336" 
d="M67 0l50 358q13 101 13 102q0 19 -9.5 27t-34.5 8h-20l6 42q18 7 45 7q62 0 69 -60h4q48 63 137 63q31 0 60 -9l-9 -63q-33 10 -66 10q-119 0 -136 -118l-51 -367h-58zM54 -313l-19 23q43 32 43 63q0 5 -1 9.5t-4 9t-5 8t-7 8t-8 7t-10.5 8t-10.5 8.5q2 22 16.5 37
t36.5 15q23 0 38.5 -15.5t15.5 -43.5q0 -86 -85 -137z" />
    <glyph glyph-name="Rcaron" unicode="&#x158;" horiz-adv-x="574" 
d="M331 786l-175 124l25 35l153 -97l179 98l24 -37zM50 0l98 701h177q92 0 142 -44t50 -124q0 -110 -53.5 -162.5t-127.5 -58.5l-1 -4q18 -12 29.5 -26.5t30.5 -55.5l104 -226h-67l-100 223q-19 43 -45.5 59.5t-70.5 16.5h-64l-42 -299h-60zM159 354h102q96 0 144 39t48 141
q0 58 -36.5 84.5t-116.5 26.5h-100z" />
    <glyph glyph-name="rcaron" unicode="&#x159;" horiz-adv-x="336" 
d="M246 624l-175 124l25 35l153 -97l179 98l24 -37zM67 0l50 358q13 101 13 102q0 19 -9.5 27t-34.5 8h-20l6 42q18 7 45 7q62 0 69 -60h4q48 63 137 63q31 0 60 -9l-9 -63q-33 10 -66 10q-119 0 -136 -118l-51 -367h-58z" />
    <glyph glyph-name="Sacute" unicode="&#x15a;" horiz-adv-x="523" 
d="M323 788l-38 33l142 120l64 -36zM208 -10q-75 0 -130.5 24.5t-83.5 49.5l39 48q25 -24 71.5 -44.5t105.5 -20.5q88 0 129.5 38.5t41.5 94.5q0 45 -30 78t-72.5 55.5t-84.5 46.5t-72 65.5t-30 98.5q0 83 62 135t157 52q112 0 174 -55l-36 -47q-54 46 -135 46
q-76 0 -118 -37t-42 -93q0 -44 30 -77t72 -56t84.5 -47.5t72.5 -65.5t30 -98q0 -79 -59 -135t-176 -56z" />
    <glyph glyph-name="sacute" unicode="&#x15b;" horiz-adv-x="456" 
d="M288 626l-38 33l142 120l64 -36zM205 -8q-54 0 -102 17.5t-67.5 32t-27.5 24.5l38 44q21 -23 64 -44.5t95 -21.5q64 0 97 28.5t33 70.5q0 37 -24.5 58t-83.5 43l-26 10q-119 44 -119 141q0 62 48 107t138 45q110 0 161 -51l-37 -42q-47 40 -124 40q-64 0 -96.5 -28.5
t-32.5 -69.5q0 -35 22.5 -56.5t73.5 -41.5l26 -10q61 -23 96 -55t35 -89q0 -24 -9.5 -49t-30 -49t-59 -39t-88.5 -15z" />
    <glyph glyph-name="Scircumflex" unicode="&#x15c;" horiz-adv-x="523" 
d="M174 786l-24 37l206 123l175 -124l-25 -35l-153 97zM208 -10q-75 0 -130.5 24.5t-83.5 49.5l39 48q25 -24 71.5 -44.5t105.5 -20.5q88 0 129.5 38.5t41.5 94.5q0 45 -30 78t-72.5 55.5t-84.5 46.5t-72 65.5t-30 98.5q0 83 62 135t157 52q112 0 174 -55l-36 -47
q-54 46 -135 46q-76 0 -118 -37t-42 -93q0 -44 30 -77t72 -56t84.5 -47.5t72.5 -65.5t30 -98q0 -79 -59 -135t-176 -56z" />
    <glyph glyph-name="scircumflex" unicode="&#x15d;" horiz-adv-x="456" 
d="M134 624l-24 37l206 123l175 -124l-25 -35l-153 97zM205 -8q-54 0 -102 17.5t-67.5 32t-27.5 24.5l38 44q21 -23 64 -44.5t95 -21.5q64 0 97 28.5t33 70.5q0 37 -24.5 58t-83.5 43l-26 10q-119 44 -119 141q0 62 48 107t138 45q110 0 161 -51l-37 -42q-47 40 -124 40
q-64 0 -96.5 -28.5t-32.5 -69.5q0 -35 22.5 -56.5t73.5 -41.5l26 -10q61 -23 96 -55t35 -89q0 -24 -9.5 -49t-30 -49t-59 -39t-88.5 -15z" />
    <glyph glyph-name="Scedilla" unicode="&#x15e;" horiz-adv-x="523" 
d="M208 -10q-75 0 -130.5 24.5t-83.5 49.5l39 48q25 -24 71.5 -44.5t105.5 -20.5q88 0 129.5 38.5t41.5 94.5q0 45 -30 78t-72.5 55.5t-84.5 46.5t-72 65.5t-30 98.5q0 83 62 135t157 52q112 0 174 -55l-36 -47q-54 46 -135 46q-76 0 -118 -37t-42 -93q0 -44 30 -77t72 -56
t84.5 -47.5t72.5 -65.5t30 -98q0 -79 -59 -135t-176 -56zM134 -248l-18 34q67 31 67 91q0 22 -15 50v4h61q10 -17 10 -43q0 -100 -105 -136z" />
    <glyph glyph-name="scedilla" unicode="&#x15f;" horiz-adv-x="456" 
d="M205 -8q-54 0 -102 17.5t-67.5 32t-27.5 24.5l38 44q21 -23 64 -44.5t95 -21.5q64 0 97 28.5t33 70.5q0 37 -24.5 58t-83.5 43l-26 10q-119 44 -119 141q0 62 48 107t138 45q110 0 161 -51l-37 -42q-47 40 -124 40q-64 0 -96.5 -28.5t-32.5 -69.5q0 -35 22.5 -56.5
t73.5 -41.5l26 -10q61 -23 96 -55t35 -89q0 -24 -9.5 -49t-30 -49t-59 -39t-88.5 -15zM119 -250l-18 34q67 31 67 91q0 22 -15 50v4h61q10 -17 10 -43q0 -100 -105 -136z" />
    <glyph glyph-name="Scaron" unicode="&#x160;" horiz-adv-x="523" 
d="M327 786l-175 124l25 35l153 -97l179 98l24 -37zM208 -10q-75 0 -130.5 24.5t-83.5 49.5l39 48q25 -24 71.5 -44.5t105.5 -20.5q88 0 129.5 38.5t41.5 94.5q0 45 -30 78t-72.5 55.5t-84.5 46.5t-72 65.5t-30 98.5q0 83 62 135t157 52q112 0 174 -55l-36 -47
q-54 46 -135 46q-76 0 -118 -37t-42 -93q0 -44 30 -77t72 -56t84.5 -47.5t72.5 -65.5t30 -98q0 -79 -59 -135t-176 -56z" />
    <glyph glyph-name="scaron" unicode="&#x161;" horiz-adv-x="456" 
d="M279 624l-175 124l25 35l153 -97l179 98l24 -37zM205 -8q-54 0 -102 17.5t-67.5 32t-27.5 24.5l38 44q21 -23 64 -44.5t95 -21.5q64 0 97 28.5t33 70.5q0 37 -24.5 58t-83.5 43l-26 10q-119 44 -119 141q0 62 48 107t138 45q110 0 161 -51l-37 -42q-47 40 -124 40
q-64 0 -96.5 -28.5t-32.5 -69.5q0 -35 22.5 -56.5t73.5 -41.5l26 -10q61 -23 96 -55t35 -89q0 -24 -9.5 -49t-30 -49t-59 -39t-88.5 -15z" />
    <glyph glyph-name="uni0162" unicode="&#x162;" horiz-adv-x="468" 
d="M154 0l90 645h-190l8 56h440l-8 -56h-190l-90 -645h-60zM103 -230l-18 34q67 31 67 91q0 22 -15 50v4h61q10 -17 10 -43q0 -100 -105 -136z" />
    <glyph glyph-name="uni0163" unicode="&#x163;" horiz-adv-x="362" 
d="M203 -5q-54 0 -83 28t-29 76q0 24 20 164l32 226h-83l6 41l84 9l28 135h49l-19 -135h130l-7 -50h-130l-33 -234q-19 -135 -19 -147q0 -62 68 -62q34 0 64 15l12 -48q-28 -18 -90 -18zM85 -230l-18 34q67 31 67 91q0 22 -15 50v4h61q10 -17 10 -43q0 -100 -105 -136z" />
    <glyph glyph-name="Tcaron" unicode="&#x164;" horiz-adv-x="468" 
d="M293 786l-175 124l25 35l153 -97l179 98l24 -37zM154 0l90 645h-190l8 56h440l-8 -56h-190l-90 -645h-60z" />
    <glyph glyph-name="tcaron" unicode="&#x165;" horiz-adv-x="362" 
d="M203 -5q-54 0 -83 28t-29 76q0 24 20 164l32 226h-83l6 41l84 9l28 135h49l-19 -135h130l-7 -50h-130l-33 -234q-19 -135 -19 -147q0 -62 68 -62q34 0 64 15l12 -48q-28 -18 -90 -18z" />
    <glyph glyph-name="Tbar" unicode="&#x166;" horiz-adv-x="475" 
d="M497 645h-190l-37 -267h121l-7 -46h-121l-46 -332h-60l46 332h-122l7 46h122l37 267h-190l8 56h440z" />
    <glyph glyph-name="tbar" unicode="&#x167;" horiz-adv-x="377" 
d="M211 -5q-54 0 -83 28t-29 76q0 21 26 210h-82l5 38l84 12l19 130h-83l6 41l84 9l28 135h49l-19 -135h130l-7 -50h-130l-19 -130h150l-7 -50h-150q-26 -191 -26 -201q0 -62 68 -62q34 0 64 15l12 -48q-28 -18 -90 -18z" />
    <glyph glyph-name="Utilde" unicode="&#x168;" horiz-adv-x="685" 
d="M472 813q-22 0 -65 17t-64 17q-40 0 -71 -24l-17 40q45 33 95 33q26 0 68 -16.5t60 -16.5q41 0 65 27l18 -40q-5 -6 -14 -13.5t-30 -15.5t-45 -8zM296 -10q-102 0 -159.5 50.5t-57.5 142.5q0 23 4 57.5t12.5 91t10.5 71.5l42 298h60l-43 -306q-24 -170 -24 -209
q0 -138 157 -138q183 0 209 183l66 470h60l-67 -478q-16 -115 -84.5 -174t-185.5 -59z" />
    <glyph glyph-name="utilde" unicode="&#x169;" horiz-adv-x="583" 
d="M409 651q-22 0 -65 17t-64 17q-40 0 -71 -24l-17 40q45 33 95 33q26 0 68 -16.5t60 -16.5q41 0 65 27l18 -40q-5 -6 -14 -13.5t-30 -15.5t-45 -8zM224 -11q-74 0 -113.5 38.5t-39.5 103.5q0 20 11 104l25 176q6 39 6 74q0 26 -5 49l57 7q6 -23 6 -56q0 -25 -6 -73
l-24 -173q-11 -82 -11 -99q0 -99 107 -99q71 0 118.5 43t59.5 129l45 326h58l-50 -358q-1 -11 -4.5 -34.5t-6 -40.5t-2.5 -24q0 -19 9.5 -27t34.5 -8h20l-6 -42q-14 -7 -45 -7q-35 0 -52.5 19t-17.5 51h-4q-5 -11 -21 -27t-57 -34t-92 -18z" />
    <glyph glyph-name="Umacron" unicode="&#x16a;" horiz-adv-x="685" 
d="M255 838l6 46h303l-6 -46h-303zM296 -10q-102 0 -159.5 50.5t-57.5 142.5q0 23 4 57.5t12.5 91t10.5 71.5l42 298h60l-43 -306q-24 -170 -24 -209q0 -138 157 -138q183 0 209 183l66 470h60l-67 -478q-16 -115 -84.5 -174t-185.5 -59z" />
    <glyph glyph-name="umacron" unicode="&#x16b;" horiz-adv-x="583" 
d="M185 676l6 46h303l-6 -46h-303zM224 -11q-74 0 -113.5 38.5t-39.5 103.5q0 20 11 104l25 176q6 39 6 74q0 26 -5 49l57 7q6 -23 6 -56q0 -25 -6 -73l-24 -173q-11 -82 -11 -99q0 -99 107 -99q71 0 118.5 43t59.5 129l45 326h58l-50 -358q-1 -11 -4.5 -34.5t-6 -40.5
t-2.5 -24q0 -19 9.5 -27t34.5 -8h20l-6 -42q-14 -7 -45 -7q-35 0 -52.5 19t-17.5 51h-4q-5 -11 -21 -27t-57 -34t-92 -18z" />
    <glyph glyph-name="Ubreve" unicode="&#x16c;" horiz-adv-x="685" 
d="M400 807q-39 0 -70 11.5t-47.5 29.5t-23.5 29t-10 19l44 26q29 -67 110 -67q82 0 126 70l39 -27q-6 -10 -14 -20t-28 -29t-53 -30.5t-73 -11.5zM296 -10q-102 0 -159.5 50.5t-57.5 142.5q0 23 4 57.5t12.5 91t10.5 71.5l42 298h60l-43 -306q-24 -170 -24 -209
q0 -138 157 -138q183 0 209 183l66 470h60l-67 -478q-16 -115 -84.5 -174t-185.5 -59z" />
    <glyph glyph-name="ubreve" unicode="&#x16d;" horiz-adv-x="583" 
d="M333 645q-39 0 -70 11.5t-47.5 29.5t-23.5 29t-10 19l44 26q29 -67 110 -67q82 0 126 70l39 -27q-6 -10 -14 -20t-28 -29t-53 -30.5t-73 -11.5zM224 -11q-74 0 -113.5 38.5t-39.5 103.5q0 20 11 104l25 176q6 39 6 74q0 26 -5 49l57 7q6 -23 6 -56q0 -25 -6 -73l-24 -173
q-11 -82 -11 -99q0 -99 107 -99q71 0 118.5 43t59.5 129l45 326h58l-50 -358q-1 -11 -4.5 -34.5t-6 -40.5t-2.5 -24q0 -19 9.5 -27t34.5 -8h20l-6 -42q-14 -7 -45 -7q-35 0 -52.5 19t-17.5 51h-4q-5 -11 -21 -27t-57 -34t-92 -18z" />
    <glyph glyph-name="Uring" unicode="&#x16e;" horiz-adv-x="685" 
d="M407 777q-43 0 -69.5 24.5t-26.5 66.5q0 46 31.5 78.5t81.5 32.5q43 0 69.5 -24.5t26.5 -66.5q0 -46 -31.5 -78.5t-81.5 -32.5zM410 815q29 0 48.5 21t19.5 52q0 53 -57 53q-29 0 -48.5 -21t-19.5 -52q0 -53 57 -53zM296 -10q-102 0 -159.5 50.5t-57.5 142.5q0 23 4 57.5
t12.5 91t10.5 71.5l42 298h60l-43 -306q-24 -170 -24 -209q0 -138 157 -138q183 0 209 183l66 470h60l-67 -478q-16 -115 -84.5 -174t-185.5 -59z" />
    <glyph glyph-name="uring" unicode="&#x16f;" horiz-adv-x="583" 
d="M340 615q-43 0 -69.5 24.5t-26.5 66.5q0 46 31.5 78.5t81.5 32.5q43 0 69.5 -24.5t26.5 -66.5q0 -46 -31.5 -78.5t-81.5 -32.5zM343 653q29 0 48.5 21t19.5 52q0 53 -57 53q-29 0 -48.5 -21t-19.5 -52q0 -53 57 -53zM224 -11q-74 0 -113.5 38.5t-39.5 103.5q0 20 11 104
l25 176q6 39 6 74q0 26 -5 49l57 7q6 -23 6 -56q0 -25 -6 -73l-24 -173q-11 -82 -11 -99q0 -99 107 -99q71 0 118.5 43t59.5 129l45 326h58l-50 -358q-1 -11 -4.5 -34.5t-6 -40.5t-2.5 -24q0 -19 9.5 -27t34.5 -8h20l-6 -42q-14 -7 -45 -7q-35 0 -52.5 19t-17.5 51h-4
q-5 -11 -21 -27t-57 -34t-92 -18z" />
    <glyph glyph-name="Uhungarumlaut" unicode="&#x170;" horiz-adv-x="685" 
d="M289 786l-27 36l176 116l49 -42zM490 786l-28 35l177 117l48 -43zM296 -10q-102 0 -159.5 50.5t-57.5 142.5q0 23 4 57.5t12.5 91t10.5 71.5l42 298h60l-43 -306q-24 -170 -24 -209q0 -138 157 -138q183 0 209 183l66 470h60l-67 -478q-16 -115 -84.5 -174t-185.5 -59z
" />
    <glyph glyph-name="uhungarumlaut" unicode="&#x171;" horiz-adv-x="583" 
d="M218 624l-27 36l176 116l49 -42zM419 624l-28 35l177 117l48 -43zM224 -11q-74 0 -113.5 38.5t-39.5 103.5q0 20 11 104l25 176q6 39 6 74q0 26 -5 49l57 7q6 -23 6 -56q0 -25 -6 -73l-24 -173q-11 -82 -11 -99q0 -99 107 -99q71 0 118.5 43t59.5 129l45 326h58l-50 -358
q-1 -11 -4.5 -34.5t-6 -40.5t-2.5 -24q0 -19 9.5 -27t34.5 -8h20l-6 -42q-14 -7 -45 -7q-35 0 -52.5 19t-17.5 51h-4q-5 -11 -21 -27t-57 -34t-92 -18z" />
    <glyph glyph-name="Uogonek" unicode="&#x172;" horiz-adv-x="685" 
d="M573 701h60l-67 -478q-24 -172 -163 -217q-121 -63 -121 -132q0 -52 68 -52q31 0 52 8v-46q-33 -11 -68 -11q-53 0 -81 25.5t-28 64.5q0 67 77 127h-6q-102 0 -159.5 50.5t-57.5 142.5q0 23 4 57.5t12.5 91t10.5 71.5l42 298h60l-43 -306q-24 -170 -24 -209
q0 -138 157 -138q183 0 209 183z" />
    <glyph glyph-name="uogonek" unicode="&#x173;" horiz-adv-x="583" 
d="M513 5q-130 -64 -130 -136q0 -52 68 -52q31 0 52 8v-46q-33 -11 -68 -11q-53 0 -81 25.5t-28 64.5q0 82 107 147q-35 16 -35 63h-4q-5 -11 -21 -27t-57 -34t-92 -18q-74 0 -113.5 38.5t-39.5 103.5q0 20 11 104l25 176q6 39 6 74q0 26 -5 49l57 7q6 -23 6 -56
q0 -25 -6 -73l-24 -173q-11 -82 -11 -99q0 -99 107 -99q71 0 118.5 43t59.5 129l45 326h58l-50 -358q-1 -11 -4.5 -34.5t-6 -40.5t-2.5 -24q0 -19 9.5 -27t34.5 -8h20z" />
    <glyph glyph-name="Wcircumflex" unicode="&#x174;" horiz-adv-x="895" 
d="M355 786l-24 37l206 123l175 -124l-25 -35l-153 97zM131 0l-83 701h59l56 -474l21 -176h4q12 29 35.5 87.5t34.5 88.5l187 474h98l56 -480l20 -170h4q11 28 34 84.5t34 84.5l192 481h61l-279 -701h-98l-56 485q-3 28 -9.5 85t-9.5 85h-4q-12 -29 -34.5 -86t-33.5 -85
l-191 -484h-98z" />
    <glyph glyph-name="wcircumflex" unicode="&#x175;" horiz-adv-x="728" 
d="M248 624l-24 37l206 123l175 -124l-25 -35l-153 97zM95 0l-69 539h59l38 -311l19 -175h4q49 130 57 149l132 337h90l38 -338q12 -118 14 -148h4l69 175l57 143q43 107 43 156q0 2 -0.5 6t-0.5 6h60v-8q0 -55 -44 -163l-150 -368h-86l-53 487h-4l-191 -487h-86z" />
    <glyph glyph-name="Ycircumflex" unicode="&#x176;" horiz-adv-x="507" 
d="M153 786l-24 37l206 123l175 -124l-25 -35l-153 97zM175 0l36 260l-169 441h66l138 -378h4l244 378h70l-293 -441l-36 -260h-60z" />
    <glyph glyph-name="ycircumflex" unicode="&#x177;" horiz-adv-x="561" 
d="M159 624l-24 37l206 123l175 -124l-25 -35l-153 97zM189 -221q-112 0 -174 54l35 48q51 -48 144 -48q162 0 182 155l11 80h-4q-6 -12 -18.5 -27t-51.5 -33.5t-90 -18.5q-70 0 -109 38.5t-39 103.5q0 37 21 170.5t21 158.5q0 19 -9 27t-35 8h-20l7 42q16 7 46 7
q35 0 53 -19t18 -51q0 -25 -21.5 -157.5t-21.5 -176.5q0 -99 101 -99q70 0 115 43t57 129l45 326h58l-77 -551q-30 -209 -244 -209z" />
    <glyph glyph-name="Ydieresis" unicode="&#x178;" horiz-adv-x="507" 
d="M234 828q-18 0 -29 11t-11 29q0 20 12.5 33t33.5 13q18 0 29 -11t11 -29q0 -20 -12.5 -33t-33.5 -13zM409 828q-18 0 -29 11t-11 29q0 20 12.5 33t33.5 13q18 0 29 -11t11 -29q0 -20 -12.5 -33t-33.5 -13zM175 0l36 260l-169 441h66l138 -378h4l244 378h70l-293 -441
l-36 -260h-60z" />
    <glyph glyph-name="Zacute" unicode="&#x179;" horiz-adv-x="504" 
d="M319 788l-38 33l142 120l64 -36zM1 0l-11 59l445 581v4h-331l8 57h390l6 -59l-443 -581v-4h364l-8 -57h-420z" />
    <glyph glyph-name="zacute" unicode="&#x17a;" horiz-adv-x="447" 
d="M279 626l-38 33l142 120l64 -36zM27 0l-10 68l276 316q54 61 62 101h-256l7 54h294l14 -58q-13 -60 -63 -116l-271 -307v-4h292l-7 -54h-338z" />
    <glyph glyph-name="Zdotaccent" unicode="&#x17b;" horiz-adv-x="504" 
d="M321 809q-19 0 -31.5 11t-13.5 30v4q0 22 14 36.5t37 14.5q20 0 32.5 -12t12.5 -33q0 -22 -14 -36.5t-37 -14.5zM1 0l-11 59l445 581v4h-331l8 57h390l6 -59l-443 -581v-4h364l-8 -57h-420z" />
    <glyph glyph-name="zdotaccent" unicode="&#x17c;" horiz-adv-x="447" 
d="M282 647q-19 0 -31.5 11t-13.5 30v4q0 22 14 36.5t37 14.5q20 0 32.5 -12t12.5 -33q0 -22 -14 -36.5t-37 -14.5zM27 0l-10 68l276 316q54 61 62 101h-256l7 54h294l14 -58q-13 -60 -63 -116l-271 -307v-4h292l-7 -54h-338z" />
    <glyph glyph-name="Zcaron" unicode="&#x17d;" horiz-adv-x="504" 
d="M341 786l-175 124l25 35l153 -97l179 98l24 -37zM1 0l-11 59l445 581v4h-331l8 57h390l6 -59l-443 -581v-4h364l-8 -57h-420z" />
    <glyph glyph-name="zcaron" unicode="&#x17e;" horiz-adv-x="447" 
d="M290 624l-175 124l25 35l153 -97l179 98l24 -37zM27 0l-10 68l276 316q54 61 62 101h-256l7 54h294l14 -58q-13 -60 -63 -116l-271 -307v-4h292l-7 -54h-338z" />
    <glyph glyph-name="longs" unicode="&#x17f;" horiz-adv-x="290" 
d="M34 -194l115 826q19 132 162 132q49 0 79 -14l-21 -49q-28 11 -64 11q-45 0 -68 -18.5t-29 -59.5l-116 -828h-58z" />
    <glyph glyph-name="florin" unicode="&#x192;" horiz-adv-x="528" 
d="M71 -8q-45 0 -69 15l20 48q22 -10 53 -10q82 0 109 102l51 194h-98l8 53h105l38 146q40 155 171 155q45 0 69 -15l-20 -48q-22 10 -53 10q-83 0 -109 -102l-38 -146h133l-8 -53h-140l-51 -194q-41 -155 -171 -155z" />
    <glyph glyph-name="Scommaaccent" unicode="&#x218;" horiz-adv-x="523" 
d="M208 -10q-75 0 -130.5 24.5t-83.5 49.5l39 48q25 -24 71.5 -44.5t105.5 -20.5q88 0 129.5 38.5t41.5 94.5q0 45 -30 78t-72.5 55.5t-84.5 46.5t-72 65.5t-30 98.5q0 83 62 135t157 52q112 0 174 -55l-36 -47q-54 46 -135 46q-76 0 -118 -37t-42 -93q0 -44 30 -77t72 -56
t84.5 -47.5t72.5 -65.5t30 -98q0 -79 -59 -135t-176 -56zM142 -313l-19 23q43 32 43 63q0 5 -1 9.5t-4 9t-5 8t-7 8t-8 7t-10.5 8t-10.5 8.5q2 22 16.5 37t36.5 15q23 0 38.5 -15.5t15.5 -43.5q0 -86 -85 -137z" />
    <glyph glyph-name="scommaaccent" unicode="&#x219;" horiz-adv-x="456" 
d="M205 -8q-54 0 -102 17.5t-67.5 32t-27.5 24.5l38 44q21 -23 64 -44.5t95 -21.5q64 0 97 28.5t33 70.5q0 37 -24.5 58t-83.5 43l-26 10q-119 44 -119 141q0 62 48 107t138 45q110 0 161 -51l-37 -42q-47 40 -124 40q-64 0 -96.5 -28.5t-32.5 -69.5q0 -35 22.5 -56.5
t73.5 -41.5l26 -10q61 -23 96 -55t35 -89q0 -24 -9.5 -49t-30 -49t-59 -39t-88.5 -15zM149 -313l-19 23q43 32 43 63q0 5 -1 9.5t-4 9t-5 8t-7 8t-8 7t-10.5 8t-10.5 8.5q2 22 16.5 37t36.5 15q23 0 38.5 -15.5t15.5 -43.5q0 -86 -85 -137z" />
    <glyph glyph-name="uni021A" unicode="&#x21a;" horiz-adv-x="468" 
d="M154 0l90 645h-190l8 56h440l-8 -56h-190l-90 -645h-60zM132 -313l-19 23q43 32 43 63q0 5 -1 9.5t-4 9t-5 8t-7 8t-8 7t-10.5 8t-10.5 8.5q2 22 16.5 37t36.5 15q23 0 38.5 -15.5t15.5 -43.5q0 -86 -85 -137z" />
    <glyph glyph-name="uni021B" unicode="&#x21b;" horiz-adv-x="362" 
d="M203 -5q-54 0 -83 28t-29 76q0 24 20 164l32 226h-83l6 41l84 9l28 135h49l-19 -135h130l-7 -50h-130l-33 -234q-19 -135 -19 -147q0 -62 68 -62q34 0 64 15l12 -48q-28 -18 -90 -18zM129 -313l-19 23q43 32 43 63q0 5 -1 9.5t-4 9t-5 8t-7 8t-8 7t-10.5 8t-10.5 8.5
q2 22 16.5 37t36.5 15q23 0 38.5 -15.5t15.5 -43.5q0 -86 -85 -137z" />
    <glyph glyph-name="uni0237" unicode="&#x237;" horiz-adv-x="243" 
d="M-81 -198l-20 52q28 10 48.5 21t44.5 32t40 57t23 84l68 491h58l-68 -493q-16 -111 -67 -165t-127 -79z" />
    <glyph glyph-name="apostrophe" unicode="&#x2bc;" horiz-adv-x="168" 
d="M54 474l-17 35q77 31 77 81q0 31 -42 57v3q0 21 15 38.5t43 17.5q24 0 41 -17t17 -49q0 -60 -43 -105t-91 -61z" />
    <glyph glyph-name="circumflex" unicode="&#x2c6;" horiz-adv-x="550" 
d="M138 624l-24 37l206 123l175 -124l-25 -35l-153 97z" />
    <glyph glyph-name="caron" unicode="&#x2c7;" horiz-adv-x="550" 
d="M316 624l-175 124l25 35l153 -97l179 98l24 -37z" />
    <glyph glyph-name="breve" unicode="&#x2d8;" horiz-adv-x="550" 
d="M303 645q-39 0 -70 11.5t-47.5 29.5t-23.5 29t-10 19l44 26q29 -67 110 -67q82 0 126 70l39 -27q-6 -10 -14 -20t-28 -29t-53 -30.5t-73 -11.5z" />
    <glyph glyph-name="dotaccent" unicode="&#x2d9;" horiz-adv-x="550" 
d="M308 647q-19 0 -31.5 11t-13.5 30v4q0 22 14 36.5t37 14.5q20 0 32.5 -12t12.5 -33q0 -22 -14 -36.5t-37 -14.5z" />
    <glyph glyph-name="ring" unicode="&#x2da;" horiz-adv-x="550" 
d="M312 615q-43 0 -69.5 24.5t-26.5 66.5q0 46 31.5 78.5t81.5 32.5q43 0 69.5 -24.5t26.5 -66.5q0 -46 -31.5 -78.5t-81.5 -32.5zM315 653q29 0 48.5 21t19.5 52q0 53 -57 53q-29 0 -48.5 -21t-19.5 -52q0 -53 57 -53z" />
    <glyph glyph-name="ogonek" unicode="&#x2db;" horiz-adv-x="550" 
d="M250 -227q-53 0 -81 25.5t-28 64.5q0 102 165 178l22 -31q-130 -64 -130 -136q0 -52 68 -52q31 0 52 8v-46q-33 -11 -68 -11z" />
    <glyph glyph-name="tilde" unicode="&#x2dc;" horiz-adv-x="550" 
d="M376 651q-22 0 -65 17t-64 17q-40 0 -71 -24l-17 40q45 33 95 33q26 0 68 -16.5t60 -16.5q41 0 65 27l18 -40q-5 -6 -14 -13.5t-30 -15.5t-45 -8z" />
    <glyph glyph-name="hungarumlaut" unicode="&#x2dd;" horiz-adv-x="550" 
d="M133 624l-27 36l176 116l49 -42zM334 624l-28 35l177 117l48 -43z" />
    <glyph glyph-name="pi" unicode="&#x3c0;" horiz-adv-x="617" 
d="M98 -10l-40 33q33 40 46.5 75t24.5 113l40 281h-71l7 53h473l-7 -53h-71l-69 -492h-58l69 492h-215l-40 -284q-22 -149 -89 -218z" />
    <glyph glyph-name="Wgrave" unicode="&#x1e80;" horiz-adv-x="895" 
d="M495 788l-168 117l64 36l142 -120zM131 0l-83 701h59l56 -474l21 -176h4q12 29 35.5 87.5t34.5 88.5l187 474h98l56 -480l20 -170h4q11 28 34 84.5t34 84.5l192 481h61l-279 -701h-98l-56 485q-3 28 -9.5 85t-9.5 85h-4q-12 -29 -34.5 -86t-33.5 -85l-191 -484h-98z" />
    <glyph glyph-name="wgrave" unicode="&#x1e81;" horiz-adv-x="728" 
d="M379 626l-168 117l64 36l142 -120zM95 0l-69 539h59l38 -311l19 -175h4q49 130 57 149l132 337h90l38 -338q12 -118 14 -148h4l69 175l57 143q43 107 43 156q0 2 -0.5 6t-0.5 6h60v-8q0 -55 -44 -163l-150 -368h-86l-53 487h-4l-191 -487h-86z" />
    <glyph glyph-name="Wacute" unicode="&#x1e82;" horiz-adv-x="895" 
d="M510 788l-38 33l142 120l64 -36zM131 0l-83 701h59l56 -474l21 -176h4q12 29 35.5 87.5t34.5 88.5l187 474h98l56 -480l20 -170h4q11 28 34 84.5t34 84.5l192 481h61l-279 -701h-98l-56 485q-3 28 -9.5 85t-9.5 85h-4q-12 -29 -34.5 -86t-33.5 -85l-191 -484h-98z" />
    <glyph glyph-name="wacute" unicode="&#x1e83;" horiz-adv-x="728" 
d="M389 626l-38 33l142 120l64 -36zM95 0l-69 539h59l38 -311l19 -175h4q49 130 57 149l132 337h90l38 -338q12 -118 14 -148h4l69 175l57 143q43 107 43 156q0 2 -0.5 6t-0.5 6h60v-8q0 -55 -44 -163l-150 -368h-86l-53 487h-4l-191 -487h-86z" />
    <glyph glyph-name="Wdieresis" unicode="&#x1e84;" horiz-adv-x="895" 
d="M432 828q-18 0 -29 11t-11 29q0 20 12.5 33t33.5 13q18 0 29 -11t11 -29q0 -20 -12.5 -33t-33.5 -13zM607 828q-18 0 -29 11t-11 29q0 20 12.5 33t33.5 13q18 0 29 -11t11 -29q0 -20 -12.5 -33t-33.5 -13zM131 0l-83 701h59l56 -474l21 -176h4q12 29 35.5 87.5t34.5 88.5
l187 474h98l56 -480l20 -170h4q11 28 34 84.5t34 84.5l192 481h61l-279 -701h-98l-56 485q-3 28 -9.5 85t-9.5 85h-4q-12 -29 -34.5 -86t-33.5 -85l-191 -484h-98z" />
    <glyph glyph-name="wdieresis" unicode="&#x1e85;" horiz-adv-x="728" 
d="M333 666q-18 0 -29 11t-11 29q0 20 12.5 33t33.5 13q18 0 29 -11t11 -29q0 -20 -12.5 -33t-33.5 -13zM508 666q-18 0 -29 11t-11 29q0 20 12.5 33t33.5 13q18 0 29 -11t11 -29q0 -20 -12.5 -33t-33.5 -13zM104 0l-69 539h59l38 -311l19 -175h4q49 130 57 149l132 337h90
l38 -338q12 -118 14 -148h4l69 175l57 143q43 107 43 156q0 2 -0.5 6t-0.5 6h60v-8q0 -55 -44 -163l-150 -368h-86l-53 487h-4l-191 -487h-86z" />
    <glyph glyph-name="Ygrave" unicode="&#x1ef2;" horiz-adv-x="507" 
d="M303 788l-168 117l64 36l142 -120zM175 0l36 260l-169 441h66l138 -378h4l244 378h70l-293 -441l-36 -260h-60z" />
    <glyph glyph-name="ygrave" unicode="&#x1ef3;" horiz-adv-x="561" 
d="M316 626l-168 117l64 36l142 -120zM189 -221q-112 0 -174 54l35 48q51 -48 144 -48q162 0 182 155l11 80h-4q-6 -12 -18.5 -27t-51.5 -33.5t-90 -18.5q-70 0 -109 38.5t-39 103.5q0 37 21 170.5t21 158.5q0 19 -9 27t-35 8h-20l7 42q16 7 46 7q35 0 53 -19t18 -51
q0 -25 -21.5 -157.5t-21.5 -176.5q0 -99 101 -99q70 0 115 43t57 129l45 326h58l-77 -551q-30 -209 -244 -209z" />
    <glyph glyph-name="endash" unicode="&#x2013;" horiz-adv-x="411" 
d="M-6 264l7 56h393l-7 -56h-393z" />
    <glyph glyph-name="emdash" unicode="&#x2014;" horiz-adv-x="663" 
d="M-4 264l7 56h645l-7 -56h-645z" />
    <glyph glyph-name="quoteleft" unicode="&#x2018;" horiz-adv-x="168" 
d="M184 704l17 -35q-77 -31 -77 -81q0 -31 42 -57v-3q0 -21 -15 -38.5t-43 -17.5q-24 0 -41 17t-17 49q0 60 43 105t91 61z" />
    <glyph glyph-name="quoteright" unicode="&#x2019;" horiz-adv-x="168" 
d="M53 474l-17 35q77 31 77 81q0 31 -42 57v3q0 21 15 38.5t43 17.5q24 0 41 -17t17 -49q0 -60 -43 -105t-91 -61z" />
    <glyph glyph-name="quotesinglbase" unicode="&#x201a;" horiz-adv-x="219" 
d="M-7 -130l-17 35q77 31 77 81q0 31 -42 57v3q0 21 15 38.5t43 17.5q24 0 41 -17t17 -49q0 -60 -43 -105t-91 -61z" />
    <glyph glyph-name="quotedblleft" unicode="&#x201c;" horiz-adv-x="351" 
d="M184 704l17 -35q-77 -31 -77 -81q0 -31 42 -57v-3q0 -21 -15 -38.5t-43 -17.5q-24 0 -41 17t-17 49q0 60 43 105t91 61zM367 704l17 -35q-77 -31 -77 -81q0 -31 42 -57v-3q0 -21 -15 -38.5t-43 -17.5q-24 0 -41 17t-17 49q0 60 43 105t91 61z" />
    <glyph glyph-name="quotedblright" unicode="&#x201d;" horiz-adv-x="351" 
d="M53 474l-17 35q77 31 77 81q0 31 -42 57v3q0 21 15 38.5t43 17.5q24 0 41 -17t17 -49q0 -60 -43 -105t-91 -61zM236 474l-17 35q77 31 77 81q0 31 -42 57v3q0 21 15 38.5t43 17.5q24 0 41 -17t17 -49q0 -60 -43 -105t-91 -61z" />
    <glyph glyph-name="quotedblbase" unicode="&#x201e;" horiz-adv-x="403" 
d="M-7 -130l-17 35q77 31 77 81q0 31 -42 57v3q0 21 15 38.5t43 17.5q24 0 41 -17t17 -49q0 -60 -43 -105t-91 -61zM177 -130l-17 35q77 31 77 81q0 31 -42 57v3q0 21 15 38.5t43 17.5q24 0 41 -17t17 -49q0 -60 -43 -105t-91 -61z" />
    <glyph glyph-name="dagger" unicode="&#x2020;" horiz-adv-x="510" 
d="M156 -120l92 604l-191 -12l10 73l187 -13l19 220h73l-44 -220l193 13l-10 -73l-188 12l-75 -604h-66z" />
    <glyph glyph-name="daggerdbl" unicode="&#x2021;" horiz-adv-x="510" 
d="M155 -121l43 219l-191 -12l10 73l187 -13l18 169l30 169l-191 -12l10 73l187 -13l19 220h73l-44 -220l193 13l-10 -73l-188 12l-17 -169l-30 -169l191 13l-10 -73l-189 12l-18 -219h-73z" />
    <glyph glyph-name="bullet" unicode="&#x2022;" horiz-adv-x="455" 
d="M226 223q-57 0 -95 38t-38 95t37.5 95t94.5 38q56 0 94.5 -38.5t38.5 -94.5t-38 -94.5t-94 -38.5z" />
    <glyph glyph-name="ellipsis" unicode="&#x2026;" horiz-adv-x="830" 
d="M104 0q-22 0 -36.5 14.5t-14.5 36.5q0 23 17.5 40.5t40.5 17.5q22 0 36.5 -14.5t14.5 -36.5q0 -23 -17.5 -40.5t-40.5 -17.5zM374 0q-22 0 -36.5 14.5t-14.5 36.5q0 23 17.5 40.5t40.5 17.5q22 0 36.5 -14.5t14.5 -36.5q0 -23 -17.5 -40.5t-40.5 -17.5zM652 0
q-22 0 -36.5 14.5t-14.5 36.5q0 23 17.5 40.5t40.5 17.5q22 0 36.5 -14.5t14.5 -36.5q0 -23 -17.5 -40.5t-40.5 -17.5z" />
    <glyph glyph-name="perthousand" unicode="&#x2030;" horiz-adv-x="1213" 
d="M216 319q-62 0 -95.5 37t-33.5 112q0 110 47.5 171.5t123.5 61.5q128 0 128 -149q0 -110 -47 -171.5t-123 -61.5zM168 18l-41 37l562 623l42 -35zM219 370q51 0 80.5 48t30.5 144q0 44 -21 66.5t-54 22.5q-51 0 -80.5 -49.5t-29.5 -147.5q0 -42 20.5 -63t53.5 -21z
M595 -10q-62 0 -95.5 37t-33.5 112q0 110 47 172t123 62q62 0 95.5 -37.5t33.5 -112.5q0 -110 -47 -171.5t-123 -61.5zM956 -10q-62 0 -95.5 37t-33.5 112q0 110 47 172t123 62q62 0 95.5 -37.5t33.5 -112.5q0 -110 -47 -171.5t-123 -61.5zM598 41q50 0 79.5 48.5
t30.5 143.5q0 44 -21 66.5t-54 22.5q-51 0 -80 -49.5t-29 -146.5q0 -42 20.5 -63.5t53.5 -21.5zM959 41q50 0 79.5 48.5t30.5 143.5q0 44 -21 66.5t-54 22.5q-51 0 -80 -49.5t-29 -146.5q0 -42 20.5 -63.5t53.5 -21.5z" />
    <glyph glyph-name="guilsinglleft" unicode="&#x2039;" horiz-adv-x="313" 
d="M167 69l-112 198l167 198l39 -32l-137 -171l88 -169z" />
    <glyph glyph-name="guilsinglright" unicode="&#x203a;" horiz-adv-x="288" 
d="M73 69l-39 32l137 171l-88 169l45 24l112 -198z" />
    <glyph glyph-name="fraction" unicode="&#x2044;" horiz-adv-x="164" 
d="M-196 12l-35 30l587 647l35 -32z" />
    <glyph glyph-name="uni20A8" unicode="&#x20a8;" horiz-adv-x="1007" 
d="M50 0l98 701h177q92 0 142 -44t50 -124q0 -110 -53.5 -162.5t-127.5 -58.5l-1 -4q18 -12 29.5 -26.5t30.5 -55.5l104 -226h-67l-100 223q-19 43 -45.5 59.5t-70.5 16.5h-64l-42 -299h-60zM159 354h102q96 0 144 39t48 141q0 58 -36.5 84.5t-116.5 26.5h-100zM756 -8
q-54 0 -102 17.5t-67.5 32t-27.5 24.5l38 44q21 -23 64 -44.5t95 -21.5q64 0 97 28.5t33 70.5q0 37 -24.5 58t-83.5 43l-26 10q-119 44 -119 141q0 62 48 107t138 45q110 0 161 -51l-37 -42q-48 40 -124 40q-64 0 -96.5 -28.5t-32.5 -69.5q0 -35 22.5 -56.5t73.5 -41.5
l26 -10q61 -23 96 -55t35 -89q0 -24 -9.5 -49t-30 -49t-59 -39t-88.5 -15z" />
    <glyph glyph-name="Euro" unicode="&#x20ac;" horiz-adv-x="607" 
d="M353 -10q-109 0 -169.5 68.5t-63.5 189.5h-92l8 51h86q1 43 9 88h-83l7 52h86q31 120 106.5 196t198.5 76q115 0 173 -51l-37 -48q-53 43 -141 43q-85 0 -146 -54.5t-90 -161.5h246l-19 -52h-240q-8 -53 -9 -88h217l-20 -51h-197q2 -101 50 -152t133 -51q86 0 144 45
l29 -48q-64 -52 -186 -52z" />
    <glyph glyph-name="uni20B9" unicode="&#x20b9;" horiz-adv-x="520" 
d="M241 0l-62 120q-27 52 -58 88.5t-47 48t-41 24.5l11 54q34 -9 71 -9q78 0 135.5 42t67.5 123q-54 -3 -190 -3h-66l8 56h65l181 -3q-17 91 -138 91h-96l8 56h447l-8 -56h-202v-4q41 -30 47 -84h143l-8 -56h-133q-14 -107 -84 -159t-155 -51l-1 -4q50 -35 94 -117l83 -157
h-72z" />
    <glyph glyph-name="trademark" unicode="&#x2122;" horiz-adv-x="591" 
d="M101 428l34 241h-78l4 32h196l-4 -32h-78l-34 -241h-40zM254 427l38 274h69l42 -207l99 207h71l-38 -274h-39l21 156l12 81h-4l-104 -209h-46l-46 213h-4l-12 -88l-21 -153h-38z" />
    <glyph glyph-name="uni2126" unicode="&#x2126;" horiz-adv-x="736" 
d="M8 0l7 54l184 -6v4q-65 24 -103.5 85.5t-38.5 158.5q0 195 103 304.5t252 109.5q129 0 203 -73t74 -205q0 -161 -66.5 -255.5t-162.5 -124.5v-4l183 8l-7 -56h-257l9 70q36 9 68.5 25.5t64 46t54 68.5t36.5 96.5t14 126.5q0 111 -58 166t-155 55q-127 0 -209 -91
t-82 -266q0 -185 154 -227l-9 -70h-258z" />
    <glyph glyph-name="estimated" unicode="&#x212e;" horiz-adv-x="669" 
d="M289 -10q-119 0 -186 63t-67 170q0 140 94.5 233t233.5 93q113 0 172.5 -59.5t59.5 -161.5q0 -39 -8 -73h-417l-26 -188q57 -43 150 -43q68 0 129.5 31t97.5 83l30 -18q-43 -63 -111.5 -96.5t-151.5 -33.5zM176 290h291l26 188q-52 36 -133 36q-92 0 -159 -49z" />
    <glyph glyph-name="partialdiff" unicode="&#x2202;" horiz-adv-x="538" 
d="M219 0q-85 0 -133 50.5t-48 134.5q0 111 62 183.5t166 72.5q70 0 124 -27l3 2q-14 85 -69.5 157t-132.5 122l1 6h80q82 -57 133 -155.5t51 -210.5q0 -335 -237 -335zM223 55q164 0 176 243q1 17 1 51q-15 13 -52.5 25.5t-81.5 12.5q-75 0 -121.5 -53t-46.5 -154
q0 -60 34 -92.5t91 -32.5z" />
    <glyph glyph-name="uni2206" unicode="&#x2206;" horiz-adv-x="649" 
d="M-6 0l-31 51l381 650h66l199 -650l-45 -51h-570zM21 51h536l-46 143l-90 292l-47 161h-4l-91 -160l-171 -293z" />
    <glyph glyph-name="product" unicode="&#x220f;" horiz-adv-x="659" 
d="M68 -159l-45 28q32 39 46.5 76.5t25.5 117.5l90 638h379l-120 -857h-60l113 804h-259l-83 -588q-22 -154 -87 -219z" />
    <glyph glyph-name="summation" unicode="&#x2211;" horiz-adv-x="523" 
d="M4 -168l-14 51l285 384l-177 385l28 49h402l-8 -54h-255l-101 4l-1 -4l39 -78l140 -302l-226 -305l-60 -76v-4l102 4h255l-7 -54h-402z" />
    <glyph glyph-name="minus" unicode="&#x2212;" horiz-adv-x="499" 
d="M6 309l8 56h459l-8 -56h-459z" />
    <glyph glyph-name="uni2215" unicode="&#x2215;" horiz-adv-x="164" 
d="M-186 12l-35 30l587 647l35 -32z" />
    <glyph glyph-name="uni2219" unicode="&#x2219;" horiz-adv-x="288" 
d="M129 301q-22 0 -36.5 14.5t-14.5 36.5q0 23 17.5 40.5t40.5 17.5q22 0 36.5 -14.5t14.5 -36.5q0 -23 -17.5 -40.5t-40.5 -17.5z" />
    <glyph glyph-name="radical" unicode="&#x221a;" horiz-adv-x="633" 
d="M221 -159l-126 558h-109l7 51h151l95 -425q5 -24 15.5 -71t15.5 -70h4q17 44 52.5 130.5t53.5 129.5l344 814h64l-474 -1117h-93z" />
    <glyph glyph-name="infinity" unicode="&#x221e;" horiz-adv-x="839" 
d="M205 185q-71 0 -111 40.5t-40 104.5q0 77 55 128.5t135 51.5q60 0 102.5 -32.5t78.5 -93.5q110 127 214 127q71 0 111.5 -40.5t40.5 -101.5q0 -83 -51 -133.5t-137 -50.5q-113 0 -185 120q-53 -57 -102 -88.5t-111 -31.5zM207 232q88 0 183 115q-66 116 -147 116
q-58 0 -98 -36.5t-40 -95.5q0 -43 27 -71t75 -28zM609 233q60 0 94.5 37t34.5 99q0 42 -26 68t-74 26q-87 0 -184 -119q59 -111 155 -111z" />
    <glyph glyph-name="integral" unicode="&#x222b;" horiz-adv-x="365" 
d="M-36 -171q-57 0 -95 18l21 49q33 -14 73 -14q104 0 136 116l210 772q21 78 72 119.5t120 41.5q57 0 95 -18l-21 -49q-33 14 -73 14q-104 0 -135 -115l-212 -776q-21 -78 -71 -118t-120 -40z" />
    <glyph glyph-name="approxequal" unicode="&#x2248;" horiz-adv-x="545" 
d="M93 364l-52 13q40 108 143 108q39 0 107 -30t104 -30q29 0 48 13.5t33 50.5l53 -10q-35 -110 -131 -110q-48 0 -120 30t-103 30q-58 0 -82 -65zM68 180l-52 13q40 108 143 108q39 0 107 -30t104 -30q29 0 48 13.5t33 50.5l53 -10q-35 -110 -131 -110q-48 0 -120 30
t-103 30q-58 0 -82 -65z" />
    <glyph glyph-name="notequal" unicode="&#x2260;" horiz-adv-x="530" 
d="M507 420h-166l-89 -166h231l-8 -56h-252l-64 -120h-55l64 120h-152l8 56h173l89 166h-238l7 56h260l64 120h55l-64 -120h144z" />
    <glyph glyph-name="lessequal" unicode="&#x2264;" horiz-adv-x="531" 
d="M469 100l-429 214l8 63l490 214l-9 -66l-276 -119l-152 -62v-4l134 -62l242 -118zM-1 27l8 56h459l-8 -56h-459z" />
    <glyph glyph-name="greaterequal" unicode="&#x2265;" horiz-adv-x="531" 
d="M11 100l9 66l276 119l154 61v4l-136 63l-242 118l8 60l429 -214l-8 -63zM1 27l8 56h459l-8 -56h-459z" />
    <glyph glyph-name="lozenge" unicode="&#x25ca;" horiz-adv-x="556" 
d="M190 0l-148 350l249 351h86l148 -351l-249 -350h-86zM235 41h3l220 315l-126 302h-4l-108 -156l-109 -156l62 -152z" />
    <glyph glyph-name="four.superior" horiz-adv-x="344" 
d="M234 383l14 96h-200l-5 43l234 272h66l-38 -269h50l-6 -46h-50l-14 -96h-51zM105 525h149l20 143q3 21 8 41t8 29l3 9l-3 1q-30 -43 -59 -76z" />
    <glyph glyph-name="f_f" horiz-adv-x="639" 
d="M620 712q-45 0 -68 -18.5t-29 -59.5l-14 -95h146l-7 -50h-146l-95 -683h-58l95 683h-257l-95 -683h-58l95 683h-92l7 50h92l10 66q10 78 60.5 118t155.5 40q96 0 154 -30q40 31 110 31q49 0 79 -14l-21 -49q-28 11 -64 11zM451 539l13 93q5 34 18 59q-56 20 -131 20
q-73 0 -106.5 -25.5t-40.5 -76.5l-10 -70h257z" />
    <glyph glyph-name="f_f_i" horiz-adv-x="891" 
d="M761 82q0 -19 9.5 -27t34.5 -8h20l-7 -42q-16 -7 -44 -7q-35 0 -53 19t-18 51q0 27 13 113l43 308h-257l-95 -683h-58l95 683h-257l-95 -683h-58l95 683h-92l7 50h92l10 66q10 78 60.5 118t155.5 40q108 0 166 -35q52 35 149 35q50 0 95.5 -10.5t62.5 -21.5l-20 -48
q-49 28 -149 28q-73 0 -106.5 -25.5t-40.5 -76.5l-10 -70h315l-50 -358q-1 -11 -4.5 -34.5t-6 -40.5t-2.5 -24zM451 539l10 66q6 50 28 83q-56 23 -138 23q-73 0 -106.5 -25.5t-40.5 -76.5l-10 -70h257z" />
    <glyph glyph-name="f_f_l" horiz-adv-x="909" 
d="M810 45q22 0 45 6l-6 -47q-20 -10 -53 -10q-92 0 -92 85q0 16 12 102l72 512q-48 18 -122 18q-73 0 -106.5 -25.5t-40.5 -76.5l-10 -70h146l-7 -50h-146l-95 -683h-58l95 683h-257l-95 -683h-58l95 683h-92l7 50h92l10 66q10 78 60.5 118t155.5 40q108 0 166 -35
q52 35 149 35q54 0 101.5 -12.5t71.5 -29.5l-76 -540q-11 -85 -11 -95q0 -41 47 -41zM451 539l10 66q6 50 28 83q-56 23 -138 23q-73 0 -106.5 -25.5t-40.5 -76.5l-10 -70h257z" />
    <glyph glyph-name="a.ss01" 
d="M220 -9q-78 0 -120.5 49t-42.5 145q0 154 77.5 256t212.5 102q100 0 148 -30l-41 -295q-15 -104 -18 -218h-56q0 43 1 65h-4q-57 -74 -157 -74zM232 43q52 0 94.5 30.5t59.5 71.5l47 333q-30 13 -88 13q-99 0 -164 -80t-65 -220q0 -148 116 -148z" />
    <glyph glyph-name="aacute.ss01" 
d="M354 626l-38 33l142 120l64 -36zM220 -9q-78 0 -120.5 49t-42.5 145q0 154 77.5 256t212.5 102q100 0 148 -30l-41 -295q-15 -104 -18 -218h-56q0 43 1 65h-4q-57 -74 -157 -74zM232 43q52 0 94.5 30.5t59.5 71.5l47 333q-30 13 -88 13q-99 0 -164 -80t-65 -220
q0 -148 116 -148z" />
    <glyph glyph-name="abreve.ss01" 
d="M333 645q-39 0 -70 11.5t-47.5 29.5t-23.5 29t-10 19l44 26q29 -67 110 -67q82 0 126 70l39 -27q-6 -10 -14 -20t-28 -29t-53 -30.5t-73 -11.5zM218 -9q-78 0 -120.5 49t-42.5 145q0 154 77.5 256t212.5 102q100 0 148 -30l-41 -295q-15 -104 -18 -218h-56q0 43 1 65h-4
q-57 -74 -157 -74zM230 43q52 0 94.5 30.5t59.5 71.5l47 333q-30 13 -88 13q-99 0 -164 -80t-65 -220q0 -148 116 -148z" />
    <glyph glyph-name="acircumflex.ss01" 
d="M189 624l-24 37l206 123l175 -124l-25 -35l-153 97zM220 -9q-78 0 -120.5 49t-42.5 145q0 154 77.5 256t212.5 102q100 0 148 -30l-41 -295q-15 -104 -18 -218h-56q0 43 1 65h-4q-57 -74 -157 -74zM232 43q52 0 94.5 30.5t59.5 71.5l47 333q-30 13 -88 13q-99 0 -164 -80
t-65 -220q0 -148 116 -148z" />
    <glyph glyph-name="adieresis.ss01" 
d="M259 666q-18 0 -29 11t-11 29q0 20 12.5 33t33.5 13q18 0 29 -11t11 -29q0 -20 -12.5 -33t-33.5 -13zM434 666q-18 0 -29 11t-11 29q0 20 12.5 33t33.5 13q18 0 29 -11t11 -29q0 -20 -12.5 -33t-33.5 -13zM220 -9q-78 0 -120.5 49t-42.5 145q0 154 77.5 256t212.5 102
q100 0 148 -30l-41 -295q-15 -104 -18 -218h-56q0 43 1 65h-4q-57 -74 -157 -74zM232 43q52 0 94.5 30.5t59.5 71.5l47 333q-30 13 -88 13q-99 0 -164 -80t-65 -220q0 -148 116 -148z" />
    <glyph glyph-name="agrave.ss01" 
d="M383 626l-168 117l64 36l142 -120zM220 -9q-78 0 -120.5 49t-42.5 145q0 154 77.5 256t212.5 102q100 0 148 -30l-41 -295q-15 -104 -18 -218h-56q0 43 1 65h-4q-57 -74 -157 -74zM232 43q52 0 94.5 30.5t59.5 71.5l47 333q-30 13 -88 13q-99 0 -164 -80t-65 -220
q0 -148 116 -148z" />
    <glyph glyph-name="amacron.ss01" 
d="M180 676l6 46h303l-6 -46h-303zM210 -9q-78 0 -120.5 49t-42.5 145q0 154 77.5 256t212.5 102q100 0 148 -30l-41 -295q-15 -104 -18 -218h-56q0 43 1 65h-4q-57 -74 -157 -74zM222 43q52 0 94.5 30.5t59.5 71.5l47 333q-30 13 -88 13q-99 0 -164 -80t-65 -220
q0 -148 116 -148z" />
    <glyph glyph-name="aogonek.ss01" 
d="M347 543q100 0 148 -30l-41 -295q-15 -104 -18 -218h-1l1 -1q-124 -63 -124 -132q0 -51 70 -51q27 0 48 8l2 -47q-30 -10 -68 -10q-55 0 -82 24.5t-27 64.5q0 94 125 161q0 32 1 48h-4q-57 -74 -157 -74q-78 0 -120.5 49t-42.5 145q0 154 77.5 256t212.5 102zM232 43
q52 0 94.5 30.5t59.5 71.5l47 333q-30 13 -88 13q-99 0 -164 -80t-65 -220q0 -148 116 -148z" />
    <glyph glyph-name="aring.ss01" 
d="M347 615q-43 0 -69.5 24.5t-26.5 66.5q0 46 31.5 78.5t81.5 32.5q43 0 69.5 -24.5t26.5 -66.5q0 -46 -31.5 -78.5t-81.5 -32.5zM350 653q29 0 48.5 21t19.5 52q0 53 -57 53q-29 0 -48.5 -21t-19.5 -52q0 -53 57 -53zM220 -9q-78 0 -120.5 49t-42.5 145q0 154 77.5 256
t212.5 102q100 0 148 -30l-41 -295q-15 -104 -18 -218h-56q0 43 1 65h-4q-57 -74 -157 -74zM232 43q52 0 94.5 30.5t59.5 71.5l47 333q-30 13 -88 13q-99 0 -164 -80t-65 -220q0 -148 116 -148z" />
    <glyph glyph-name="atilde.ss01" 
d="M414 651q-22 0 -65 17t-64 17q-40 0 -71 -24l-17 40q45 33 95 33q26 0 68 -16.5t60 -16.5q41 0 65 27l18 -40q-5 -6 -14 -13.5t-30 -15.5t-45 -8zM220 -9q-78 0 -120.5 49t-42.5 145q0 154 77.5 256t212.5 102q100 0 148 -30l-41 -295q-15 -104 -18 -218h-56q0 43 1 65
h-4q-57 -74 -157 -74zM232 43q52 0 94.5 30.5t59.5 71.5l47 333q-30 13 -88 13q-99 0 -164 -80t-65 -220q0 -148 116 -148z" />
    <glyph glyph-name="one.superior" horiz-adv-x="280" 
d="M142 383l37 261q4 32 9 57t8 34l3 9l-2 1q-10 -9 -45 -29l-75 -42l-23 42l144 78h54l-58 -411h-52z" />
    <glyph glyph-name="two.superior" horiz-adv-x="339" 
d="M37 379l-5 42l186 167q67 59 67 108q0 27 -16 44.5t-49 17.5q-31 0 -53.5 -18t-31.5 -44l-51 14q39 90 137 90q53 0 84 -28.5t31 -70.5q0 -66 -85 -143l-148 -133h97h111l-7 -46h-267z" />
    <glyph glyph-name="three.superior" horiz-adv-x="344" 
d="M153 373q-45 0 -76.5 18t-45.5 45l40 27q26 -47 86 -47q51 0 77.5 24.5t26.5 68.5q0 32 -23.5 45.5t-71.5 13.5h-35l6 40h35q49 0 76.5 26t27.5 69q0 58 -67 58q-59 0 -85 -57l-51 13q16 38 53 62.5t87 24.5q53 0 83.5 -27t30.5 -71q0 -82 -73 -117q58 -14 58 -76
q0 -68 -42 -104t-117 -36z" />
    </font>
</defs>
</svg>
