<?xml version="1.0" standalone="no"?>
<!DOCTYPE svg PUBLIC "-//W3C//DTD SVG 1.1//EN" "http://www.w3.org/Graphics/SVG/1.1/DTD/svg11.dtd" >
<svg xmlns="http://www.w3.org/2000/svg" xmlns:xlink="http://www.w3.org/1999/xlink" version="1.1">
<metadata>
Created by FontForge 20170731 at Wed Oct 10 01:32:25 2018
 By Aleksey,,,
Copyright (c) 2017 by Satya Rajpurohit. All rights reserved.
</metadata>
<defs>
<font id="KohinoorKBS-Black" horiz-adv-x="559" >
  <font-face 
    font-family="Kohinoor KBS Black"
    font-weight="900"
    font-stretch="normal"
    units-per-em="1000"
    panose-1="0 0 8 0 0 0 0 0 0 0"
    ascent="800"
    descent="-200"
    x-height="572"
    cap-height="701"
    bbox="-145 -359 1262 1028"
    underline-thickness="50"
    underline-position="-200"
    unicode-range="U+0020-25CA"
  />
<missing-glyph horiz-adv-x="476" 
d="M390 758v-952h-301v952h301zM317 694h-157v-31h62v-35h-63v-32h158v32h-63v35h63v31zM254 571h-95v-99h158v33h-63v66zM222 539v-34h-32v34h32zM317 447h-158v-32h63v-35h-63v-31h95v66h63v32zM317 390h-31v-63h-127v-33h158v96zM317 273h-95v-53h32v22h32v-45h-96v76
h-31v-107h158v107zM317 109h-158v-108h158v108zM286 77v-44h-96v44h96zM317 -21h-158v-31h67l-67 -45v-31h158v31h-97l67 45h30v31z" />
    <glyph glyph-name="f_i" unicode="fi" horiz-adv-x="661" 
d="M597 572v-572h-174v454h-153v-454h-174v454h-81v118h84v36q0 179 256 179q154 0 218 -32l-35 -126q-61 22 -189 22q-26 0 -42 -4.5t-23 -14.5t-8.5 -19t-1.5 -25v-16h323z" />
    <glyph glyph-name="f_l" unicode="fl" horiz-adv-x="684" 
d="M641 142q5 0 9 -0.5t5 -0.5v-136q-39 -15 -74 -15q-73 0 -115.5 42t-42.5 117v499q-37 3 -74 3q-27 0 -43 -4.5t-22.5 -14.5t-8 -18.5t-1.5 -25.5v-16h83v-118h-87v-454h-174v454h-81v118h84v36q0 179 256 179q174 0 242 -36v-557q0 -52 44 -52z" />
    <glyph glyph-name=".notdef" horiz-adv-x="476" 
d="M390 758v-952h-301v952h301zM317 694h-157v-31h62v-35h-63v-32h158v32h-63v35h63v31zM254 571h-95v-99h158v33h-63v66zM222 539v-34h-32v34h32zM317 447h-158v-32h63v-35h-63v-31h95v66h63v32zM317 390h-31v-63h-127v-33h158v96zM317 273h-95v-53h32v22h32v-45h-96v76
h-31v-107h158v107zM317 109h-158v-108h158v108zM286 77v-44h-96v44h96zM317 -21h-158v-31h67l-67 -45v-31h158v31h-97l67 45h30v31z" />
    <glyph glyph-name=".null" horiz-adv-x="0" 
 />
    <glyph glyph-name="nonmarkingreturn" horiz-adv-x="333" 
 />
    <glyph glyph-name="space" unicode=" " horiz-adv-x="238" 
 />
    <glyph glyph-name="exclam" unicode="!" horiz-adv-x="325" 
d="M93 291l-33 453h207l-32 -453h-142zM161 -9q-41 0 -70.5 29t-29.5 69q0 45 29 75t71 30q44 0 73.5 -30t29.5 -75q0 -41 -29.5 -69.5t-73.5 -28.5z" />
    <glyph glyph-name="quotedbl" unicode="&#x22;" horiz-adv-x="442" 
d="M59 450l-23 272h170l-23 -272h-124zM259 450l-22 272h169l-23 -272h-124z" />
    <glyph glyph-name="numbersign" unicode="#" horiz-adv-x="716" 
d="M120 0l24 180h-109l18 123h105l14 95h-108l18 123h106l24 183h145l-24 -183h103l24 183h145l-24 -183h100l-18 -123h-100l-10 -95h99l-18 -123h-98l-23 -180h-145l23 180h-102l-24 -180h-145zM303 303h105l10 95h-101z" />
    <glyph glyph-name="dollar" unicode="$" horiz-adv-x="570" 
d="M534 212q0 -72 -46 -127t-132 -74l3 -133h-138l3 128q-114 13 -199 89l94 127q51 -49 115 -68h103q24 13 24 39q0 23 -20 37t-84 44l-60 27q-148 65 -148 191q0 80 52.5 135.5t134.5 71.5l-4 124h138l-4 -125q45 -9 81.5 -29t50 -34t16.5 -21l-99 -116q-58 60 -128 60
q-31 0 -47 -14.5t-16 -37.5q0 -24 21.5 -41t72.5 -40l47 -21q95 -43 132 -83.5t37 -108.5z" />
    <glyph glyph-name="percent" unicode="%" horiz-adv-x="899" 
d="M214 332q-87 0 -130.5 46t-43.5 143q0 92 47.5 142t133.5 50q174 0 174 -185q0 -97 -47 -146.5t-134 -49.5zM186 32l-69 70l607 577l70 -70zM218 426q30 0 41.5 22.5t11.5 73.5q0 97 -57 97q-50 0 -50 -97q0 -96 54 -96zM678 -9q-87 0 -130.5 46t-43.5 143q0 92 47.5 142
t133.5 50q174 0 174 -185q0 -97 -47 -146.5t-134 -49.5zM683 85q29 0 41 22.5t12 73.5q0 97 -57 97q-51 0 -51 -97q0 -96 55 -96z" />
    <glyph glyph-name="ampersand" unicode="&#x26;" horiz-adv-x="738" 
d="M271 -23q-127 0 -191.5 62t-64.5 148q0 75 40.5 121t114.5 79q-47 54 -47 130q0 82 58 138t154 56q95 0 150.5 -52.5t55.5 -135.5q0 -135 -146 -194q7 -7 21.5 -21t21 -20.5t18 -17t22 -18.5t23.5 -17q12 17 20.5 59t8.5 87h149q1 -65 -19.5 -129t-51.5 -103
q19 -17 48 -39.5t66 -49.5t51 -37v-23h-206q-11 7 -32.5 23t-26.5 19q-92 -65 -237 -65zM312 430q38 16 58 34.5t20 51.5q0 30 -16.5 46.5t-44.5 16.5q-24 0 -39 -15.5t-15 -46.5q0 -22 12.5 -50.5t24.5 -36.5zM300 112q53 0 97 21q-6 5 -21 18t-20 17.5t-17 14.5t-18 15.5
t-16 15.5t-18 18.5t-18.5 19.5t-22.5 24q-65 -22 -65 -75q0 -38 33 -63.5t86 -25.5z" />
    <glyph glyph-name="quotesingle" unicode="'" horiz-adv-x="242" 
d="M59 450l-23 272h170l-23 -272h-124z" />
    <glyph glyph-name="parenleft" unicode="(" horiz-adv-x="398" 
d="M302 -280q-20 17 -45 45.5t-58 81.5t-59 114t-44 147.5t-18 178.5q0 112 26 215t66 173t72.5 112.5t59.5 65.5h154v-16q-101 -96 -168.5 -237t-67.5 -313t67.5 -313t168.5 -238v-16h-154z" />
    <glyph glyph-name="parenright" unicode=")" horiz-adv-x="398" 
d="M-59 -280v16q102 96 169.5 237.5t67.5 313.5t-68 313t-169 237v16h155q27 -23 59.5 -65.5t72.5 -112.5t66 -173t26 -215q0 -92 -18 -178.5t-44 -147.5t-59 -114t-58 -81.5t-45 -45.5h-155z" />
    <glyph glyph-name="asterisk" unicode="*" horiz-adv-x="432" 
d="M165 333l-102 74l35 47l53 35l-63 -1l-57 18l40 119l55 -18l48 -39l-20 59v59h126v-58l-22 -58l49 38l58 18l36 -120l-53 -18l-65 3l53 -35l35 -49l-102 -73l-34 46l-18 61l-17 -60z" />
    <glyph glyph-name="plus" unicode="+" horiz-adv-x="568" 
d="M535 419v-134h-183v-184h-136v184h-183v134h183v184h136v-184h183z" />
    <glyph glyph-name="comma" unicode="," horiz-adv-x="312" 
d="M70 -193l-54 76q115 50 115 123q0 58 -73 79v16q0 39 27 66.5t71 27.5q54 0 84.5 -36.5t30.5 -91.5q0 -86 -59.5 -159.5t-141.5 -100.5z" />
    <glyph glyph-name="hyphen" unicode="-" horiz-adv-x="396" 
d="M24 259v137h348v-137h-348z" />
    <glyph glyph-name="period" unicode="." horiz-adv-x="318" 
d="M157 -12q-45 0 -76.5 31.5t-31.5 76.5q0 48 31.5 80.5t76.5 32.5q48 0 80 -32t32 -81q0 -45 -32 -76.5t-80 -31.5z" />
    <glyph glyph-name="slash" unicode="/" horiz-adv-x="414" 
d="M-8 -167l287 897h142l-286 -897h-143z" />
    <glyph glyph-name="zero" unicode="0" horiz-adv-x="598" 
d="M290 -10q-135 0 -194.5 85.5t-59.5 265.5q0 361 271 361q134 0 194.5 -87t60.5 -269q0 -356 -272 -356zM301 135q53 0 70.5 46t17.5 160q0 111 -22.5 163.5t-71.5 52.5q-52 0 -68.5 -46.5t-16.5 -164.5q0 -112 21.5 -161.5t69.5 -49.5z" />
    <glyph glyph-name="one" unicode="1" horiz-adv-x="497" 
d="M352 152h131v-152h-437v152h133v142q0 96 6 196h-4l-94 -56l-75 147l180 111h160v-540z" />
    <glyph glyph-name="two" unicode="2" horiz-adv-x="547" 
d="M74 0l-31 144q193 176 239 248q42 65 42 99q0 67 -49 67q-27 0 -41.5 -26.5t-12.5 -62.5l-176 29q6 88 66.5 146.5t172.5 58.5q102 0 161 -50.5t59 -136.5q0 -110 -83 -214q-28 -37 -90 -99q-15 -13 -79 -66v-4q76 9 178 9h81v-142h-437z" />
    <glyph glyph-name="three" unicode="3" horiz-adv-x="543" 
d="M244 -11q-96 0 -157.5 46t-82.5 113l164 70q31 -87 98 -87q70 0 70 78q0 31 -26.5 51t-79.5 20h-47v141h46q43 0 62 17t19 60q0 63 -55 63q-27 0 -43 -20t-15 -56l-166 12q0 89 58.5 147t163.5 58q116 0 171.5 -46t55.5 -143q0 -54 -28.5 -92t-74.5 -55v-4q55 -4 93 -39
t38 -106q0 -110 -71.5 -169t-192.5 -59z" />
    <glyph glyph-name="four" unicode="4" horiz-adv-x="594" 
d="M319 0v148h-263l-34 132l271 412h193v-404h89v-140h-89v-148h-167zM195 288h124v4q0 115 12 220h-4q-32 -64 -73 -130z" />
    <glyph glyph-name="five" unicode="5" horiz-adv-x="587" 
d="M277 -11q-190 0 -245 154l170 71q26 -83 86 -83q71 0 71 91q0 49 -21.5 75.5t-61.5 26.5q-38 0 -68 -30l-138 48l29 350h394v-141h-241l-13 -119l4 1q12 9 36.5 16t42.5 7q207 0 207 -211q0 -115 -66.5 -185.5t-185.5 -70.5z" />
    <glyph glyph-name="six" unicode="6" horiz-adv-x="585" 
d="M289 -10q-238 0 -238 269q0 128 63.5 244.5t161.5 188.5h218v-24q-133 -74 -215 -202l1 -4q35 5 45 5q100 0 158.5 -52t58.5 -165q0 -117 -70 -188.5t-183 -71.5zM308 132q34 0 48.5 23t14.5 77q0 43 -24.5 69.5t-70.5 26.5q-42 0 -49 -1q-4 -28 -4 -62q0 -133 85 -133z
" />
    <glyph glyph-name="seven" unicode="7" horiz-adv-x="490" 
d="M91 0v13q0 258 199 532v4q-95 -9 -179 -9h-114v152h445l33 -159q-60 -79 -102.5 -152.5t-63 -121.5t-31.5 -100.5t-12 -75.5t-1 -60v-12v-11h-174z" />
    <glyph glyph-name="eight" unicode="8" horiz-adv-x="593" 
d="M295 -10q-249 0 -249 202q0 59 34.5 99t92.5 58v4q-48 12 -79 51t-31 94q0 97 60.5 150.5t173.5 53.5q119 0 176.5 -47.5t57.5 -144.5q0 -49 -31 -89.5t-78 -57.5v-4q125 -25 125 -148q0 -110 -66.5 -165.5t-185.5 -55.5zM297 417q37 0 50 19.5t13 59.5q0 67 -63 67
t-63 -68q0 -39 13.5 -58.5t49.5 -19.5zM298 127q80 0 80 79q0 21 -4.5 35.5t-23.5 27t-53 12.5q-81 0 -81 -78q0 -76 82 -76z" />
    <glyph glyph-name="nine" unicode="9" horiz-adv-x="555" 
d="M80 0v24q147 83 216 208l-2 3q-9 -1 -22.5 0.5t-16.5 1.5q-102 0 -164.5 52t-62.5 162q0 119 69.5 185t185.5 66q235 0 235 -266q0 -121 -62.5 -242t-158.5 -194h-217zM288 377q41 0 55 3q4 27 4 49q0 69 -24.5 100.5t-56.5 31.5q-35 0 -51.5 -19.5t-16.5 -69.5
q0 -95 90 -95z" />
    <glyph glyph-name="colon" unicode=":" horiz-adv-x="318" 
d="M157 357q-45 0 -76.5 31.5t-31.5 76.5q0 48 31.5 80.5t76.5 32.5q48 0 80 -32t32 -81q0 -45 -32 -76.5t-80 -31.5zM157 -14q-45 0 -76.5 31.5t-31.5 75.5q0 48 31.5 80.5t76.5 32.5q48 0 80 -32t32 -81q0 -45 -32 -76t-80 -31z" />
    <glyph glyph-name="semicolon" unicode=";" horiz-adv-x="312" 
d="M156 357q-46 0 -77.5 31.5t-31.5 75.5q0 48 31.5 80.5t77.5 32.5q47 0 79 -32t32 -81q0 -45 -32 -76t-79 -31zM60 -192l-55 76q115 51 115 122q0 58 -72 79v16q0 39 27 66.5t71 27.5q54 0 84.5 -36.5t30.5 -91.5q0 -86 -59 -159.5t-142 -99.5z" />
    <glyph glyph-name="less" unicode="&#x3c;" horiz-adv-x="568" 
d="M535 78l-502 210v122l502 211v-170l-150 -52l-149 -46v-4l148 -47l151 -54v-170z" />
    <glyph glyph-name="equal" unicode="=" horiz-adv-x="568" 
d="M33 403v134h502v-134h-502zM33 167v135h502v-135h-502z" />
    <glyph glyph-name="greater" unicode="&#x3e;" horiz-adv-x="568" 
d="M33 78v170l150 52l149 46v4l-148 47l-151 54v170l502 -210v-122z" />
    <glyph glyph-name="question" unicode="?" horiz-adv-x="469" 
d="M187 248q-76 25 -76 94q0 38 24.5 67.5t53.5 45.5t53.5 39.5t24.5 51.5q0 24 -16 40t-43 16q-63 0 -114 -71l-113 126q32 36 93.5 63.5t154.5 27.5q101 0 157 -46.5t56 -129.5q0 -61 -21.5 -104.5t-87.5 -98.5zM231 -9q-44 0 -72 27.5t-28 70.5q0 46 29.5 75.5t71.5 29.5
q47 0 74.5 -28.5t27.5 -76.5q0 -42 -29 -70t-74 -28z" />
    <glyph glyph-name="at" unicode="@" horiz-adv-x="1048" 
d="M462 -169q-200 0 -301.5 101.5t-101.5 283.5q0 230 143.5 373t380.5 143q185 0 295.5 -94.5t110.5 -253.5q0 -154 -76 -244t-203 -90q-97 0 -131 55h-4q-37 -52 -110 -52q-84 0 -125.5 47t-41.5 122q0 85 26.5 145t71 90t90 42.5t96.5 12.5q44 0 91 -12t75 -33l-41 -241
q-2 -14 -2 -20q0 -31 26 -31q38 0 65.5 33.5t39 74t11.5 78.5q0 116 -72 180t-215 64q-166 0 -262 -104.5t-96 -264.5q0 -278 284 -278q84 0 140 32l50 -113q-88 -46 -214 -46zM498 178q18 0 58 15q0 20 5 47l26 141l-13 2q-12 2 -20 2q-43 0 -75 -36.5t-32 -100.5
q0 -41 12 -55.5t39 -14.5z" />
    <glyph glyph-name="A" unicode="A" horiz-adv-x="689" 
d="M489 0l-37 147h-221l-38 -147h-177l207 701h241l209 -701h-184zM269 291h146l-14 54q-43 157 -57 234h-4q-16 -89 -56 -229z" />
    <glyph glyph-name="B" unicode="B" horiz-adv-x="654" 
d="M72 0v701h262q235 0 235 -183q0 -54 -30 -90.5t-74 -54.5v-4q56 -6 97 -43.5t41 -105.5q0 -29 -5.5 -55.5t-24.5 -57.5t-49.5 -53.5t-85.5 -38t-128 -15.5h-238zM246 430h60q47 0 70.5 20t23.5 43q0 64 -85 64h-69v-127zM246 144h93q46 0 65.5 22.5t19.5 48.5
q0 35 -27 53t-67 18h-84v-142z" />
    <glyph glyph-name="C" unicode="C" horiz-adv-x="598" 
d="M348 -10q-159 0 -233 94t-74 258q0 169 82 268.5t236 99.5q152 0 229 -90l-116 -127q-15 21 -26 32.5t-38 24.5t-61 13q-64 0 -94.5 -51t-30.5 -159q0 -100 35 -156.5t104 -56.5q73 0 122 64l96 -125q-28 -35 -86.5 -62t-144.5 -27z" />
    <glyph glyph-name="D" unicode="D" horiz-adv-x="686" 
d="M77 0v701h229q173 0 256 -82.5t83 -249.5q0 -53 -8.5 -101.5t-32 -98.5t-60 -86.5t-97 -59.5t-138.5 -23h-232zM252 143h41q51 0 85.5 16t52.5 46.5t25.5 66t7.5 81.5q0 111 -45 158t-126 47h-41v-415z" />
    <glyph glyph-name="E" unicode="E" horiz-adv-x="574" 
d="M77 0v701h429v-143h-254v-130h216v-143h-216v-141h265v-144h-440z" />
    <glyph glyph-name="F" unicode="F" horiz-adv-x="550" 
d="M77 0v701h429v-143h-255v-163h218v-144h-218v-251h-174z" />
    <glyph glyph-name="G" unicode="G" horiz-adv-x="665" 
d="M338 396h269v-344q-94 -62 -261 -62q-305 0 -305 353q0 181 95.5 274.5t247.5 93.5q66 0 119.5 -18.5t74.5 -35t35 -33.5l-113 -122q-50 58 -122 58q-156 0 -156 -196q0 -121 39 -177t122 -56q23 0 48 5v108h-93v152z" />
    <glyph glyph-name="H" unicode="H" horiz-adv-x="734" 
d="M77 0v701h176v-281h228v281h177v-701h-177v277h-228v-277h-176z" />
    <glyph glyph-name="I" unicode="I" horiz-adv-x="345" 
d="M84 0v701h177v-701h-177z" />
    <glyph glyph-name="J" unicode="J" horiz-adv-x="462" 
d="M165 -13q-43 0 -79.5 7t-52.5 13.5t-24 12.5l54 154q45 -35 95 -35q29 0 40 12.5t11 40.5v509h176v-523q0 -87 -54.5 -139t-165.5 -52z" />
    <glyph glyph-name="K" unicode="K" horiz-adv-x="670" 
d="M670 0h-219l-198 350v-350h-176v701h176v-337l193 337h202l-208 -338z" />
    <glyph glyph-name="L" unicode="L" horiz-adv-x="514" 
d="M77 0v701h176v-557h244v-144h-420z" />
    <glyph glyph-name="M" unicode="M" horiz-adv-x="912" 
d="M79 0v701h269l112 -339h3l109 339h261v-701h-168v491h-3l-140 -412h-139l-137 412h-6v-491h-161z" />
    <glyph glyph-name="N" unicode="N" horiz-adv-x="743" 
d="M79 0v701h206l113 -223q72 -136 105 -233h3q-10 109 -10 295v161h167v-701h-200l-128 248q-48 94 -97 232h-3q13 -105 13 -264v-216h-169z" />
    <glyph glyph-name="O" unicode="O" horiz-adv-x="675" 
d="M332 -10q-141 0 -216 83.5t-75 272.5q0 182 82.5 273.5t217.5 91.5q293 0 293 -357q0 -182 -83 -273t-219 -91zM342 135q54 0 82 48.5t28 163.5q0 220 -121 220q-109 0 -109 -210q0 -118 30.5 -170t89.5 -52z" />
    <glyph glyph-name="P" unicode="P" horiz-adv-x="612" 
d="M77 0v701h252q251 0 251 -210q0 -51 -14 -93.5t-45 -79.5t-88.5 -57.5t-136.5 -20.5h-43v-240h-176zM253 383h32q67 0 90 22.5t23 60.5q0 45 -22.5 66.5t-73.5 21.5h-49v-171z" />
    <glyph glyph-name="Q" unicode="Q" horiz-adv-x="708" 
d="M526 -160l-178 156q-49 1 -88.5 9.5t-79.5 32t-66.5 61t-43 100.5t-16.5 148q0 182 83 273t219 91q298 0 298 -358q0 -124 -37.5 -203.5t-92.5 -106.5v-4l167 -103zM357 135q58 0 86.5 48.5t28.5 164.5q0 118 -31.5 168.5t-92.5 50.5q-114 0 -114 -210q0 -222 123 -222z
" />
    <glyph glyph-name="R" unicode="R" horiz-adv-x="619" 
d="M518 185l100 -185h-209l-113 229q-10 21 -45 23v-252h-174v701h244q122 0 184 -49.5t62 -159.5q0 -164 -144 -196v-4q29 -15 49.5 -38t45.5 -69zM298 389q53 0 72 22t19 67q0 80 -86 80h-52v-169h47z" />
    <glyph glyph-name="S" unicode="S" horiz-adv-x="586" 
d="M275 -10q-94 0 -161.5 31.5t-88.5 59.5l99 146q81 -90 175 -90q35 0 53.5 15t18.5 38q0 26 -33 47t-80 40t-93.5 44t-79.5 70.5t-33 106.5q0 90 72.5 151.5t183.5 61.5q86 0 145.5 -31t78.5 -61l-110 -129q-8 14 -20.5 27.5t-42.5 28t-66 14.5q-29 0 -45 -13.5t-16 -34.5
q0 -26 33 -47t79.5 -40.5t93 -44t79.5 -70.5t33 -109q0 -85 -71.5 -148t-203.5 -63z" />
    <glyph glyph-name="T" unicode="T" horiz-adv-x="517" 
d="M170 0v558h-170v143h516v-143h-170v-558h-176z" />
    <glyph glyph-name="U" unicode="U" horiz-adv-x="705" 
d="M335 -10q-133 0 -197 71t-64 186v454h176v-419q0 -73 24.5 -109.5t85.5 -36.5q49 0 72 29.5t23 94.5v441h176v-415q0 -82 -24 -141.5t-66.5 -92.5t-93 -47.5t-112.5 -14.5z" />
    <glyph glyph-name="V" unicode="V" horiz-adv-x="684" 
d="M231 0l-223 701h196l91 -341q41 -152 52 -212h4q18 97 49 214l91 339h186l-224 -701h-222z" />
    <glyph glyph-name="W" unicode="W" horiz-adv-x="974" 
d="M184 0l-178 701h191l56 -235q40 -166 40 -265h4q5 65 31 190l64 310h201l68 -307q26 -112 33 -190h4q5 104 38 242l56 255h175l-178 -701h-201l-57 268q-31 134 -39 230h-4q-13 -111 -32 -190l-71 -308h-201z" />
    <glyph glyph-name="X" unicode="X" horiz-adv-x="643" 
d="M3 0l223 358l-212 343h212l103 -196h3l95 196h203l-211 -344l222 -357h-211l-114 205h-4l-106 -205h-203z" />
    <glyph glyph-name="Y" unicode="Y" horiz-adv-x="654" 
d="M239 0v216l-237 485h195l131 -309h4l135 309h186l-238 -485v-216h-176z" />
    <glyph glyph-name="Z" unicode="Z" horiz-adv-x="569" 
d="M45 0l-23 135l296 415v4h-261v147h452l24 -135l-293 -415v-4h296v-147h-491z" />
    <glyph glyph-name="bracketleft" unicode="[" horiz-adv-x="387" 
d="M108 -274v1126h302v-113h-156v-902h156v-111h-302z" />
    <glyph glyph-name="backslash" unicode="\" horiz-adv-x="414" 
d="M279 -167l-287 897h143l286 -897h-142z" />
    <glyph glyph-name="bracketright" unicode="]" horiz-adv-x="387" 
d="M-24 -274v111h156v902h-156v113h303v-1126h-303z" />
    <glyph glyph-name="asciicircum" unicode="^" horiz-adv-x="585" 
d="M26 266l184 435h165l184 -435h-167l-53 138l-47 151h-4l-47 -151l-53 -138h-162z" />
    <glyph glyph-name="underscore" unicode="_" horiz-adv-x="544" 
d="M5 -150v121h534v-121h-534z" />
    <glyph glyph-name="grave" unicode="`" horiz-adv-x="510" 
d="M335 614l-249 147l149 88l188 -160z" />
    <glyph glyph-name="a" unicode="a" horiz-adv-x="548" 
d="M202 -9q-81 0 -125.5 46.5t-44.5 113.5q0 97 78.5 144t211.5 39v39q0 72 -70 72q-63 0 -89 -64l-123 90q77 111 210 111q119 0 177.5 -44.5t58.5 -149.5v-219q0 -20 8 -27.5t27 -7.5h16v-119q-37 -23 -89 -23q-72 0 -103 60h-4q-44 -61 -139 -61zM251 123q47 0 71 29v67
q-121 11 -121 -51q0 -21 13 -33t37 -12z" />
    <glyph glyph-name="b" unicode="b" horiz-adv-x="603" 
d="M274 -10q-123 0 -211 38v730h172v-207h4q43 27 103 27q228 0 228 -284q0 -132 -78.5 -218t-217.5 -86zM285 127q113 0 113 155q0 84 -24 119t-73 35q-41 0 -63 -22v-282q15 -5 47 -5z" />
    <glyph glyph-name="c" unicode="c" horiz-adv-x="514" 
d="M287 -12q-254 0 -254 293q0 146 74 224t197 78q141 0 207 -90l-116 -108q-3 8 -12 20t-30.5 24.5t-47.5 12.5q-46 0 -70 -33.5t-24 -114.5q0 -164 93 -164q33 0 57.5 18.5t34.5 40.5l112 -100q-34 -46 -84 -73.5t-137 -27.5z" />
    <glyph glyph-name="d" unicode="d" horiz-adv-x="608" 
d="M241 -9q-94 0 -151 65.5t-57 198.5q0 72 15 129.5t39 92.5t57 58t65.5 32t67.5 9q53 0 95 -13v195h173v-758h-137l-27 43h-4q-66 -52 -136 -52zM294 127q49 0 83 36v251q-21 23 -73 23q-19 0 -33.5 -5t-30 -20.5t-23.5 -51.5t-8 -91q0 -142 85 -142z" />
    <glyph glyph-name="e" unicode="e" horiz-adv-x="580" 
d="M312 -12q-138 0 -208.5 76.5t-70.5 222.5q0 136 73 216t203 80q111 0 173.5 -63.5t62.5 -170.5q0 -48 -7 -103h-335q2 -123 128 -123q76 0 123 54l76 -122q-40 -33 -88.5 -50t-129.5 -17zM207 358h176q-1 2 -1 9q0 87 -76 87q-47 0 -72.5 -29t-26.5 -67z" />
    <glyph glyph-name="f" unicode="f" horiz-adv-x="401" 
d="M96 0v454h-81v118h84v26q0 80 55 134.5t162 54.5q53 0 95 -10l-23 -140q-40 10 -62 10q-28 0 -40 -13t-12 -41v-21h117v-118h-121v-454h-174z" />
    <glyph glyph-name="g" unicode="g" horiz-adv-x="602" 
d="M269 -201q-103 0 -157.5 22.5t-85.5 60.5l98 127q21 -32 60.5 -51.5t81.5 -19.5q55 0 78.5 21.5t23.5 76.5v22h-4q-32 -29 -104 -29q-227 0 -227 263q0 123 72.5 205t205.5 82q143 0 228 -35v-510q0 -114 -74.5 -174.5t-195.5 -60.5zM299 169q43 0 68 21v246q-28 8 -54 8
q-107 0 -107 -147q0 -74 21.5 -101t71.5 -27z" />
    <glyph glyph-name="h" unicode="h" horiz-adv-x="623" 
d="M63 0v758h175v-242h4q58 58 146 58q173 0 173 -191v-383h-174v347q0 81 -68 81q-18 0 -42.5 -15t-38.5 -37v-376h-175z" />
    <glyph glyph-name="i" unicode="i" horiz-adv-x="297" 
d="M146 621q-40 0 -68 27.5t-28 66.5q0 43 27.5 71.5t68.5 28.5q42 0 70.5 -28.5t28.5 -71.5q0 -39 -28.5 -66.5t-70.5 -27.5zM60 0v572h175v-572h-175z" />
    <glyph glyph-name="j" unicode="j" horiz-adv-x="300" 
d="M151 621q-40 0 -68 27.5t-28 66.5q0 43 28 71.5t68 28.5q43 0 71 -28.5t28 -71.5q0 -39 -28.5 -66.5t-70.5 -27.5zM24 -218l-55 136q58 26 76.5 61.5t18.5 118.5v474h175v-480q0 -37 -3 -66.5t-16 -69t-34.5 -70t-63 -59t-98.5 -45.5z" />
    <glyph glyph-name="k" unicode="k" horiz-adv-x="595" 
d="M421 307l157 -307h-205l-135 305v-305h-175v758h175v-449l141 263h197l-155 -261v-4z" />
    <glyph glyph-name="l" unicode="l" horiz-adv-x="322" 
d="M220 -10q-73 0 -115.5 42t-42.5 117v609h174v-564q0 -52 44 -52q5 0 8.5 -0.5t4.5 -0.5v-136q-36 -15 -73 -15z" />
    <glyph glyph-name="m" unicode="m" horiz-adv-x="941" 
d="M63 0v572h145l28 -52h4q51 65 151 65q60 0 91 -19.5t49 -52.5h4q62 72 168 72q176 0 176 -190v-395h-174v364q0 76 -62 76q-24 0 -48 -15t-37 -42v-383h-174v352q0 88 -71 88q-21 0 -43 -16.5t-32 -40.5v-383h-175z" />
    <glyph glyph-name="n" unicode="n" horiz-adv-x="623" 
d="M63 0v572h137l34 -52h4q56 67 151 67q173 0 172 -191v-396h-174v360q0 80 -66 80q-58 0 -83 -57v-383h-175z" />
    <glyph glyph-name="o" unicode="o" horiz-adv-x="603" 
d="M298 -12q-145 0 -205 76t-60 219q0 140 65.5 219.5t204.5 79.5q145 0 206 -76t61 -219q0 -139 -66.5 -219t-205.5 -80zM303 122q49 0 68.5 38t19.5 121q0 84 -21.5 125.5t-72.5 41.5q-85 0 -85 -159q0 -84 21 -125.5t70 -41.5z" />
    <glyph glyph-name="p" unicode="p" horiz-adv-x="609" 
d="M63 -194v766h128l37 -46h4q48 56 133 56q95 0 153 -71.5t58 -200.5q0 -152 -73.5 -233t-178.5 -81q-48 0 -88 10v-200h-173zM301 135q48 0 73 35.5t25 125.5q0 71 -26.5 108.5t-68.5 37.5q-46 0 -70 -32v-256q28 -19 67 -19z" />
    <glyph glyph-name="q" unicode="q" horiz-adv-x="601" 
d="M371 -194v212h-4q-35 -28 -113 -28q-101 0 -161 67.5t-60 220.5q0 130 72 214.5t211 84.5q142 0 221 -37v-734h-166zM302 132q45 0 67 20v281q-26 9 -63 9q-53 0 -76.5 -40.5t-23.5 -119.5q0 -89 23.5 -119.5t72.5 -30.5z" />
    <glyph glyph-name="r" unicode="r" horiz-adv-x="438" 
d="M63 0v572h137l36 -90h4q38 103 148 103q24 0 46 -5v-171q-20 4 -66 4q-65 0 -132 -37v-376h-173z" />
    <glyph glyph-name="s" unicode="s" horiz-adv-x="503" 
d="M244 -10q-89 0 -150 28t-91 62l103 118q22 -27 61.5 -50t86.5 -23q50 0 50 36q0 18 -27 32.5t-66 27.5t-78 32t-66 56.5t-27 90.5q0 75 60 128.5t158 53.5q147 0 218 -86l-112 -107q-47 55 -111 55q-16 0 -28 -9t-12 -23q0 -17 19.5 -30t49 -22t63.5 -24t63.5 -33t49 -52
t19.5 -79q0 -30 -12.5 -60.5t-38 -58.5t-73 -45.5t-109.5 -17.5z" />
    <glyph glyph-name="t" unicode="t" horiz-adv-x="409" 
d="M250 -5q-176 0 -176 198v247h-69v108l70 35l61 130h110v-141h138v-132h-138v-254q0 -50 52 -50q42 0 75 26l45 -129q-52 -38 -168 -38z" />
    <glyph glyph-name="u" unicode="u" horiz-adv-x="628" 
d="M241 -11q-93 0 -136.5 49t-42.5 153v381h174v-368q0 -40 18.5 -61t50.5 -21q27 0 46 13t27.5 24.5t11.5 10.5v402h175v-572h-150l-23 51h-4q-51 -62 -147 -62z" />
    <glyph glyph-name="v" unicode="v" horiz-adv-x="570" 
d="M197 0l-194 572h188l68 -253q27 -96 36 -156h4q6 60 32 156l63 253h173l-176 -572h-194z" />
    <glyph glyph-name="w" unicode="w" horiz-adv-x="852" 
d="M154 0l-147 572h173l55 -249q20 -96 25 -176h4q7 90 30 181l66 244h158l55 -238q29 -120 30 -187h4q6 75 31 182l55 243h153l-147 -572h-198l-64 351h-4l-84 -351h-195z" />
    <glyph glyph-name="x" unicode="x" horiz-adv-x="547" 
d="M-1 0l179 295l-168 277h192l80 -155h4l50 155h205l-164 -279l171 -293h-193l-82 165h-4l-68 -165h-202z" />
    <glyph glyph-name="y" unicode="y" horiz-adv-x="560" 
d="M146 -214q-66 0 -102 19l29 141q27 -15 64 -15q38 0 59.5 20.5t20.5 57.5l-217 563h196l55 -168q38 -121 46 -197h4q18 119 38 197l43 168h180l-190 -597q-27 -86 -79 -137.5t-147 -51.5z" />
    <glyph glyph-name="z" unicode="z" horiz-adv-x="524" 
d="M61 0l-22 124l232 306v4h-220v138h407l21 -126l-227 -304v-4h242v-138h-433z" />
    <glyph glyph-name="braceleft" unicode="{" horiz-adv-x="382" 
d="M302 -274q-88 0 -135.5 41.5t-47.5 117.5q0 45 16 137t16 156q0 21 -20 38.5t-68 15.5v128q48 -2 68 15.5t20 38.5q0 64 -16 148.5t-16 129.5q0 159 172 159q53 0 85 -13l-14 -111q-28 5 -44 5q-28 0 -39.5 -13.5t-11.5 -30.5q0 -50 14 -125.5t14 -126.5
q0 -115 -100 -138v-4q100 -23 100 -139q0 -50 -14 -133t-14 -134q0 -16 11.5 -30t39.5 -14q22 0 44 6l14 -111q-29 -13 -74 -13z" />
    <glyph glyph-name="bar" unicode="|" horiz-adv-x="285" 
d="M85 -290v1160h115v-1160h-115z" />
    <glyph glyph-name="braceright" unicode="}" horiz-adv-x="382" 
d="M80 -274q-44 0 -73 13l13 111q24 -6 45 -6q28 0 39.5 14t11.5 30q0 51 -14 134t-14 133q0 116 99 139v4q-99 23 -99 138q0 51 14 126.5t14 125.5q0 17 -11.5 30.5t-39.5 13.5q-15 0 -45 -5l-13 111q32 13 85 13q172 0 172 -159q0 -45 -16 -129.5t-16 -148.5
q0 -21 19.5 -38.5t67.5 -15.5v-128q-48 2 -67.5 -15.5t-19.5 -38.5q0 -64 16 -156t16 -137q0 -76 -47.5 -117.5t-136.5 -41.5z" />
    <glyph glyph-name="asciitilde" unicode="~" horiz-adv-x="583" 
d="M162 162l-136 25v13q0 77 38 129.5t114 52.5q45 0 117 -33.5t96 -33.5q33 0 33 55q0 4 -0.5 13t-0.5 13l135 -25l-3 -47q-24 -148 -148 -148q-47 0 -118.5 33.5t-95.5 33.5q-33 0 -33 -54q0 -9 2 -27z" />
    <glyph glyph-name="exclamdown" unicode="&#xa1;" horiz-adv-x="330" 
d="M167 379q-44 0 -73.5 29.5t-29.5 74.5q0 41 29.5 70t73.5 29q41 0 70.5 -29t29.5 -70q0 -45 -29 -74.5t-71 -29.5zM58 -171l33 460h146l34 -460h-213z" />
    <glyph glyph-name="cent" unicode="&#xa2;" horiz-adv-x="515" 
d="M123 -139l52 146q-142 55 -142 274q0 145 74 223.5t195 78.5q49 0 78 -8l51 138h76l-60 -165q36 -23 60 -61l-121 -108l-90 -249h10q56 0 90 65l109 -106q-12 -21 -31.5 -40.5t-70 -40t-117.5 -20.5q-22 0 -40 3l-47 -130h-76zM229 168h5l99 274q-18 5 -33 5
q-95 0 -95 -153q0 -80 24 -126z" />
    <glyph glyph-name="sterling" unicode="&#xa3;" horiz-adv-x="585" 
d="M73 0l-27 118q32 11 51 35t22 78l3 63h-71v134h80l6 71q9 106 76 162.5t163 56.5q80 0 123.5 -23.5t75.5 -67.5l-108 -110q-40 58 -97 58q-33 0 -46.5 -18.5t-16.5 -56.5l-6 -72h165v-134h-173l-3 -45q-4 -65 -41 -100v-4h298v-145h-474z" />
    <glyph glyph-name="currency" unicode="&#xa4;" horiz-adv-x="568" 
d="M115 70l-96 92l60 57q-27 52 -27 108q0 54 25 104l-58 56l96 92l58 -56q48 24 110 24q61 0 110 -23l58 55l96 -92l-58 -57q26 -52 26 -105q0 -57 -26 -107l58 -56l-96 -92l-58 55q-47 -22 -108 -22q-64 0 -112 24zM284 232q40 0 66 28.5t26 65.5t-26 65t-66 28
q-41 0 -67 -28t-26 -65q0 -38 26 -66t67 -28z" />
    <glyph glyph-name="yen" unicode="&#xa5;" horiz-adv-x="650" 
d="M236 0v201h-182v132h122l-165 371h195l73 -189l46 -162h4l47 162l76 189h186l-166 -371h118v-132h-178v-201h-176z" />
    <glyph glyph-name="brokenbar" unicode="&#xa6;" horiz-adv-x="285" 
d="M85 415v360h115v-360h-115zM85 -207v360h115v-360h-115z" />
    <glyph glyph-name="section" unicode="&#xa7;" horiz-adv-x="556" 
d="M230 -116q-52 0 -88 8l24 103q37 -17 79 -17q36 0 57 13.5t26 26.5t5 27q0 33 -26 65.5t-63 63t-74.5 66t-63.5 88.5t-26 116q0 118 89 207.5t229 89.5q40 0 77 -8l-29 -100q-36 15 -78 15q-40 0 -65.5 -19.5t-25.5 -51.5q0 -30 25.5 -64t62 -68.5t73 -73.5t62 -92
t25.5 -111q0 -115 -80 -199.5t-215 -84.5zM418 88h5q14 42 14 81q0 43 -22.5 82t-55 69.5t-66.5 60.5t-60.5 68t-31.5 78q0 2 -0.5 5t-1.5 5h-6q-20 -33 -20 -88q0 -42 22.5 -82t56 -71.5t68 -62t61.5 -66.5t33 -72q2 -5 4 -7z" />
    <glyph glyph-name="dieresis" unicode="&#xa8;" horiz-adv-x="510" 
d="M121 631q-39 0 -64.5 25.5t-25.5 62.5t25.5 63t64.5 26t64.5 -26t25.5 -63t-25.5 -62.5t-64.5 -25.5zM389 631q-38 0 -63.5 25.5t-25.5 62.5t25.5 63t63.5 26q39 0 64.5 -26t25.5 -63t-25.5 -62.5t-64.5 -25.5z" />
    <glyph glyph-name="copyright" unicode="&#xa9;" horiz-adv-x="837" 
d="M419 -24q-164 0 -274.5 106t-110.5 266t111 267t273 107q164 0 273 -106t109 -269q0 -158 -110.5 -264.5t-270.5 -106.5zM418 90q114 0 190 74t76 184q0 116 -72 187.5t-193 71.5t-194.5 -72.5t-73.5 -187.5q0 -114 74 -185.5t193 -71.5zM426 137q-95 0 -138.5 59.5
t-43.5 153.5t46.5 150.5t134.5 56.5q57 0 91.5 -17t45.5 -37l-66 -79q-23 40 -71 40q-33 0 -47.5 -27.5t-14.5 -88.5q0 -59 14 -87t48 -28q31 0 45.5 10t26.5 30l65 -77q-49 -59 -136 -59z" />
    <glyph glyph-name="guillemotleft" unicode="&#xab;" horiz-adv-x="643" 
d="M238 15l-218 272l218 273l107 -86l-149 -187l149 -185zM516 15l-218 272l218 273l107 -86l-149 -187l149 -185z" />
    <glyph glyph-name="logicalnot" unicode="&#xac;" horiz-adv-x="568" 
d="M421 158v171h-398v119h521v-290h-123z" />
    <glyph glyph-name="registered" unicode="&#xae;" horiz-adv-x="486" 
d="M242 272q-93 0 -156 57.5t-63 160.5q0 102 63.5 159.5t156.5 57.5t156.5 -58t63.5 -160q0 -101 -62 -159t-159 -58zM242 326q69 0 115 41.5t46 121.5q0 83 -46.5 124t-113.5 41q-66 0 -113 -41.5t-47 -123.5q0 -81 45.5 -122t113.5 -41zM165 376v237h82q39 0 63 -17.5
t24 -53.5q0 -60 -45 -69l62 -97h-67l-47 85h-15v-85h-57zM222 506h17q21 0 29.5 7.5t8.5 25.5q0 29 -34 29h-21v-62z" />
    <glyph glyph-name="macron" unicode="&#xaf;" horiz-adv-x="510" 
d="M96 630v137h319v-137h-319z" />
    <glyph glyph-name="degree" unicode="&#xb0;" horiz-adv-x="440" 
d="M218 386q-74 0 -121 44.5t-47 117.5t49 119.5t123 46.5q75 0 121.5 -44t46.5 -118t-48.5 -120t-123.5 -46zM222 469q35 0 53.5 21.5t18.5 57.5t-20.5 59t-55.5 23t-54.5 -21t-19.5 -56t21.5 -59.5t56.5 -24.5z" />
    <glyph glyph-name="plusminus" unicode="&#xb1;" horiz-adv-x="568" 
d="M535 285h-183v-165h183v-133h-502v133h183v165h-183v134h183v184h136v-184h183v-134z" />
    <glyph glyph-name="acute" unicode="&#xb4;" horiz-adv-x="510" 
d="M174 614l-88 75l188 160l149 -88z" />
    <glyph glyph-name="uni00B5" unicode="&#xb5;" horiz-adv-x="638" 
d="M63 -194v766h175v-371q0 -36 19 -58t49 -22q55 0 70.5 26t15.5 82v343h174v-408q0 -15 9.5 -25t26.5 -10q14 0 27 4v-119q-37 -24 -87 -24q-43 0 -74.5 22t-37.5 67h-4q-36 -86 -142 -86q-29 0 -48 4v-191h-173z" />
    <glyph glyph-name="paragraph" unicode="&#xb6;" horiz-adv-x="652" 
d="M250 -224l-88 88q49 43 64.5 74t15.5 101v261q-20 -2 -31 -2q-171 0 -171 186q0 103 70.5 160t184.5 57h73v-688q0 -151 -118 -237zM454 0v701h123v-701h-123z" />
    <glyph glyph-name="periodcentered" unicode="&#xb7;" horiz-adv-x="315" 
d="M156 238q-45 0 -76.5 31.5t-31.5 76.5q0 48 31.5 80.5t76.5 32.5q48 0 80 -32t32 -81q0 -45 -32 -76.5t-80 -31.5z" />
    <glyph glyph-name="cedilla" unicode="&#xb8;" horiz-adv-x="510" 
d="M206 -269l-46 82q37 13 55.5 30t18.5 45q0 18 -9 34.5t-18 22.5v4h126q17 -25 17 -68q0 -116 -144 -150z" />
    <glyph glyph-name="guillemotright" unicode="&#xbb;" horiz-adv-x="643" 
d="M128 15l-108 87l150 185l-150 187l108 86l217 -273zM406 15l-108 87l150 185l-150 187l108 86l217 -273z" />
    <glyph glyph-name="questiondown" unicode="&#xbf;" horiz-adv-x="469" 
d="M227 580q44 0 72 -27.5t28 -70.5q0 -46 -29.5 -75.5t-71.5 -29.5q-47 0 -74.5 28.5t-27.5 76.5q0 42 29 70t74 28zM271 323q76 -25 76 -94q0 -38 -24.5 -67.5t-53.5 -45.5t-53.5 -39.5t-24.5 -51.5q0 -24 16 -40t43 -16q63 0 114 71l113 -126q-32 -36 -93.5 -63.5
t-154.5 -27.5q-101 0 -157 46.5t-56 129.5q0 61 21.5 104.5t87.5 98.5z" />
    <glyph glyph-name="Agrave" unicode="&#xc0;" horiz-adv-x="689" 
d="M431 822l-88 -75l-249 147l149 88zM489 0l-37 147h-221l-38 -147h-177l207 701h241l209 -701h-184zM269 291h146l-14 54q-43 157 -57 234h-4q-16 -89 -56 -229z" />
    <glyph glyph-name="Aacute" unicode="&#xc1;" horiz-adv-x="689" 
d="M603 889l-249 -147l-88 75l188 160zM489 0l-37 147h-221l-38 -147h-177l207 701h241l209 -701h-184zM269 291h146l-14 54q-43 157 -57 234h-4q-16 -89 -56 -229z" />
    <glyph glyph-name="Acircumflex" unicode="&#xc2;" horiz-adv-x="689" 
d="M343 822l-151 -80l-57 102l208 126l211 -126l-64 -103zM489 0l-37 147h-221l-38 -147h-177l207 701h241l209 -701h-184zM269 291h146l-14 54q-43 157 -57 234h-4q-16 -89 -56 -229z" />
    <glyph glyph-name="Atilde" unicode="&#xc3;" horiz-adv-x="689" 
d="M275 804q-48 0 -78 -49l-68 98q16 29 48.5 53.5t72.5 24.5q35 0 88.5 -21.5t75.5 -21.5q26 0 41.5 9.5t37.5 38.5l67 -97q-17 -29 -49.5 -53t-72.5 -24q-31 0 -88.5 21t-74.5 21zM489 0l-37 147h-221l-38 -147h-177l207 701h241l209 -701h-184zM269 291h146l-14 54
q-43 157 -57 234h-4q-16 -89 -56 -229z" />
    <glyph glyph-name="Adieresis" unicode="&#xc4;" horiz-adv-x="689" 
d="M211 759q-39 0 -64.5 25.5t-25.5 62.5t25.5 63t64.5 26t64.5 -26t25.5 -63t-25.5 -62.5t-64.5 -25.5zM479 759q-38 0 -63.5 25.5t-25.5 62.5t25.5 63t63.5 26q39 0 64.5 -26t25.5 -63t-25.5 -62.5t-64.5 -25.5zM489 0l-37 147h-221l-38 -147h-177l207 701h241l209 -701
h-184zM269 291h146l-14 54q-43 157 -57 234h-4q-16 -89 -56 -229z" />
    <glyph glyph-name="Aring" unicode="&#xc5;" horiz-adv-x="689" 
d="M343 709q-63 0 -100 36t-37 92q0 57 38 95.5t101 38.5t100.5 -35.5t37.5 -92.5q0 -56 -38.5 -95t-101.5 -39zM344 891q-51 0 -51 -50q0 -51 50 -51q53 0 53 49q0 52 -52 52zM489 0l-37 147h-221l-38 -147h-177l207 701h241l209 -701h-184zM269 291h146l-14 54
q-43 157 -57 234h-4q-16 -89 -56 -229z" />
    <glyph glyph-name="AE" unicode="&#xc6;" horiz-adv-x="949" 
d="M-6 0l338 701h548v-143h-266v-130h229v-143h-229v-141h277v-144h-445v170h-190l-80 -170h-182zM326 311h120v249h-4z" />
    <glyph glyph-name="Ccedilla" unicode="&#xc7;" horiz-adv-x="598" 
d="M348 -10q-159 0 -233 94t-74 258q0 169 82 268.5t236 99.5q152 0 229 -90l-116 -127q-15 21 -26 32.5t-38 24.5t-61 13q-64 0 -94.5 -51t-30.5 -159q0 -100 35 -156.5t104 -56.5q73 0 122 64l96 -125q-28 -35 -86.5 -62t-144.5 -27zM234 -269l-46 82q37 13 55.5 30
t18.5 45q0 18 -9 34.5t-18 22.5v4h126q17 -25 17 -68q0 -116 -144 -150z" />
    <glyph glyph-name="Egrave" unicode="&#xc8;" horiz-adv-x="574" 
d="M302 742l-249 147l149 88l188 -160zM77 0v701h429v-143h-254v-130h216v-143h-216v-141h265v-144h-440z" />
    <glyph glyph-name="Eacute" unicode="&#xc9;" horiz-adv-x="574" 
d="M285 742l-88 75l188 160l149 -88zM77 0v701h429v-143h-254v-130h216v-143h-216v-141h265v-144h-440z" />
    <glyph glyph-name="Ecircumflex" unicode="&#xca;" horiz-adv-x="574" 
d="M144 742l-57 102l208 126l211 -126l-64 -103l-147 81zM77 0v701h429v-143h-254v-130h216v-143h-216v-141h265v-144h-440z" />
    <glyph glyph-name="Edieresis" unicode="&#xcb;" horiz-adv-x="574" 
d="M161 759q-39 0 -64.5 25.5t-25.5 62.5t25.5 63t64.5 26t64.5 -26t25.5 -63t-25.5 -62.5t-64.5 -25.5zM429 759q-38 0 -63.5 25.5t-25.5 62.5t25.5 63t63.5 26q39 0 64.5 -26t25.5 -63t-25.5 -62.5t-64.5 -25.5zM77 0v701h429v-143h-254v-130h216v-143h-216v-141h265v-144
h-440z" />
    <glyph glyph-name="Igrave" unicode="&#xcc;" horiz-adv-x="345" 
d="M187 742l-249 147l149 88l188 -160zM84 0v701h177v-701h-177z" />
    <glyph glyph-name="Iacute" unicode="&#xcd;" horiz-adv-x="345" 
d="M152 742l-88 75l188 160l149 -88zM84 0v701h177v-701h-177z" />
    <glyph glyph-name="Icircumflex" unicode="&#xce;" horiz-adv-x="345" 
d="M20 742l-57 102l208 126l211 -126l-64 -103l-147 81zM84 0v701h177v-701h-177z" />
    <glyph glyph-name="Idieresis" unicode="&#xcf;" horiz-adv-x="345" 
d="M39 759q-39 0 -64.5 25.5t-25.5 62.5t25.5 63t64.5 26t64.5 -26t25.5 -63t-25.5 -62.5t-64.5 -25.5zM307 759q-38 0 -63.5 25.5t-25.5 62.5t25.5 63t63.5 26q39 0 64.5 -26t25.5 -63t-25.5 -62.5t-64.5 -25.5zM84 0v701h177v-701h-177z" />
    <glyph glyph-name="Eth" unicode="&#xd0;" horiz-adv-x="694" 
d="M314 701q174 0 256.5 -82.5t82.5 -249.5q0 -53 -8.5 -101.5t-32 -98.5t-59.5 -86.5t-97 -59.5t-139 -23h-232v313h-77v114h77v274h229zM302 143q96 0 133 56t37 154q0 111 -44.5 158t-125.5 47h-42v-131h107v-114h-107v-170h42z" />
    <glyph glyph-name="Ntilde" unicode="&#xd1;" horiz-adv-x="743" 
d="M223 755l-68 98q16 29 48.5 53.5t72.5 24.5q35 0 88.5 -21.5t75.5 -21.5q26 0 41.5 9.5t37.5 38.5l67 -97q-17 -29 -49.5 -53t-72.5 -24q-31 0 -88.5 21t-74.5 21q-48 0 -78 -49zM79 0v701h206l113 -223q72 -136 105 -233h3q-10 109 -10 295v161h167v-701h-200l-128 248
q-48 94 -97 232h-3q13 -105 13 -264v-216h-169z" />
    <glyph glyph-name="Ograve" unicode="&#xd2;" horiz-adv-x="708" 
d="M374 742l-249 147l149 88l188 -160zM348 -10q-141 0 -216 83.5t-75 272.5q0 182 82.5 273.5t217.5 91.5q293 0 293 -357q0 -182 -83 -273t-219 -91zM358 135q54 0 82 48.5t28 163.5q0 220 -121 220q-109 0 -109 -210q0 -118 30.5 -170t89.5 -52z" />
    <glyph glyph-name="Oacute" unicode="&#xd3;" horiz-adv-x="708" 
d="M344 742l-88 75l188 160l149 -88zM348 -10q-141 0 -216 83.5t-75 272.5q0 182 82.5 273.5t217.5 91.5q293 0 293 -357q0 -182 -83 -273t-219 -91zM358 135q54 0 82 48.5t28 163.5q0 220 -121 220q-109 0 -109 -210q0 -118 30.5 -170t89.5 -52z" />
    <glyph glyph-name="Ocircumflex" unicode="&#xd4;" horiz-adv-x="708" 
d="M202 742l-57 102l208 126l211 -126l-64 -103l-147 81zM348 -10q-141 0 -216 83.5t-75 272.5q0 182 82.5 273.5t217.5 91.5q293 0 293 -357q0 -182 -83 -273t-219 -91zM358 135q54 0 82 48.5t28 163.5q0 220 -121 220q-109 0 -109 -210q0 -118 30.5 -170t89.5 -52z" />
    <glyph glyph-name="Otilde" unicode="&#xd5;" horiz-adv-x="708" 
d="M207 755l-68 98q16 29 48.5 53.5t72.5 24.5q35 0 88.5 -21.5t75.5 -21.5q26 0 41.5 9.5t37.5 38.5l67 -97q-17 -29 -49.5 -53t-72.5 -24q-31 0 -88.5 21t-74.5 21q-48 0 -78 -49zM348 -10q-141 0 -216 83.5t-75 272.5q0 182 82.5 273.5t217.5 91.5q293 0 293 -357
q0 -182 -83 -273t-219 -91zM358 135q54 0 82 48.5t28 163.5q0 220 -121 220q-109 0 -109 -210q0 -118 30.5 -170t89.5 -52z" />
    <glyph glyph-name="Odieresis" unicode="&#xd6;" horiz-adv-x="708" 
d="M219 759q-39 0 -64.5 25.5t-25.5 62.5t25.5 63t64.5 26t64.5 -26t25.5 -63t-25.5 -62.5t-64.5 -25.5zM487 759q-38 0 -63.5 25.5t-25.5 62.5t25.5 63t63.5 26q39 0 64.5 -26t25.5 -63t-25.5 -62.5t-64.5 -25.5zM348 -10q-141 0 -216 83.5t-75 272.5q0 182 82.5 273.5
t217.5 91.5q293 0 293 -357q0 -182 -83 -273t-219 -91zM358 135q54 0 82 48.5t28 163.5q0 220 -121 220q-109 0 -109 -210q0 -118 30.5 -170t89.5 -52z" />
    <glyph glyph-name="multiply" unicode="&#xd7;" horiz-adv-x="568" 
d="M147 122l-93 93l142 137l-142 137l93 93l137 -142l137 142l93 -93l-142 -137l142 -137l-93 -93l-137 142z" />
    <glyph glyph-name="Oslash" unicode="&#xd8;" horiz-adv-x="708" 
d="M348 -10q-81 0 -143 23l-15 -23h-149v4l65 99q-65 90 -65 253q0 182 88 273.5t228 91.5q81 0 144 -25l17 25h149v-5l-67 -100q67 -91 67 -252q0 -181 -89 -272.5t-230 -91.5zM226 273l185 278q-28 16 -64 16q-125 0 -125 -210q0 -32 4 -84zM358 135q127 0 127 212
q0 37 -5 80l-184 -276q29 -16 62 -16z" />
    <glyph glyph-name="Ugrave" unicode="&#xd9;" horiz-adv-x="705" 
d="M349 742l-249 147l149 88l188 -160zM335 -10q-133 0 -197 71t-64 186v454h176v-419q0 -73 24.5 -109.5t85.5 -36.5q49 0 72 29.5t23 94.5v441h176v-415q0 -82 -24 -141.5t-66.5 -92.5t-93 -47.5t-112.5 -14.5z" />
    <glyph glyph-name="Uacute" unicode="&#xda;" horiz-adv-x="705" 
d="M351 742l-88 75l188 160l149 -88zM335 -10q-133 0 -197 71t-64 186v454h176v-419q0 -73 24.5 -109.5t85.5 -36.5q49 0 72 29.5t23 94.5v441h176v-415q0 -82 -24 -141.5t-66.5 -92.5t-93 -47.5t-112.5 -14.5z" />
    <glyph glyph-name="Ucircumflex" unicode="&#xdb;" horiz-adv-x="705" 
d="M200 742l-57 102l208 126l211 -126l-64 -103l-147 81zM335 -10q-133 0 -197 71t-64 186v454h176v-419q0 -73 24.5 -109.5t85.5 -36.5q49 0 72 29.5t23 94.5v441h176v-415q0 -82 -24 -141.5t-66.5 -92.5t-93 -47.5t-112.5 -14.5z" />
    <glyph glyph-name="Udieresis" unicode="&#xdc;" horiz-adv-x="705" 
d="M218 759q-39 0 -64.5 25.5t-25.5 62.5t25.5 63t64.5 26t64.5 -26t25.5 -63t-25.5 -62.5t-64.5 -25.5zM486 759q-38 0 -63.5 25.5t-25.5 62.5t25.5 63t63.5 26q39 0 64.5 -26t25.5 -63t-25.5 -62.5t-64.5 -25.5zM335 -10q-133 0 -197 71t-64 186v454h176v-419
q0 -73 24.5 -109.5t85.5 -36.5q49 0 72 29.5t23 94.5v441h176v-415q0 -82 -24 -141.5t-66.5 -92.5t-93 -47.5t-112.5 -14.5z" />
    <glyph glyph-name="Yacute" unicode="&#xdd;" horiz-adv-x="654" 
d="M324 742l-88 75l188 160l149 -88zM239 0v216l-237 485h195l131 -309h4l135 309h186l-238 -485v-216h-176z" />
    <glyph glyph-name="Thorn" unicode="&#xde;" horiz-adv-x="616" 
d="M77 0v701h177v-108q46 -3 86 -3q258 0 258 -209q0 -48 -14 -89.5t-46 -78t-91.5 -58t-141.5 -21.5q-25 0 -51 -3v-131h-177zM288 276q128 0 128 79q0 47 -25 67.5t-80 20.5q-25 0 -57 3v-173q16 3 34 3z" />
    <glyph glyph-name="germandbls" unicode="&#xdf;" horiz-adv-x="664" 
d="M431 -13q-86 0 -160 38l68 134q53 -35 104 -35t51 44q0 21 -20.5 38.5t-49.5 32t-58 31t-49.5 42.5t-20.5 59q0 32 22 67.5t44 70t22 64.5q0 68 -69 68q-45 0 -63.5 -27.5t-18.5 -90.5v-523h-168v518q0 127 63.5 193.5t185.5 66.5q114 0 175.5 -50.5t61.5 -126.5
q0 -48 -20.5 -90t-40.5 -70t-20 -43q0 -10 19.5 -22t47 -27.5t54.5 -37t46.5 -57.5t19.5 -81q0 -80 -56 -133t-170 -53z" />
    <glyph glyph-name="agrave" unicode="&#xe0;" 
d="M262 614l-249 147l149 88l188 -160zM205 -9q-81 0 -125.5 46.5t-44.5 113.5q0 97 78.5 144t211.5 39v39q0 72 -70 72q-63 0 -89 -64l-123 90q77 111 210 111q119 0 177.5 -44.5t58.5 -149.5v-219q0 -20 8 -27.5t27 -7.5h16v-119q-37 -23 -89 -23q-72 0 -103 60h-4
q-44 -61 -139 -61zM254 123q47 0 71 29v67q-121 11 -121 -51q0 -21 13 -33t37 -12z" />
    <glyph glyph-name="aacute" unicode="&#xe1;" 
d="M265 614l-88 75l188 160l149 -88zM205 -9q-81 0 -125.5 46.5t-44.5 113.5q0 97 78.5 144t211.5 39v39q0 72 -70 72q-63 0 -89 -64l-123 90q77 111 210 111q119 0 177.5 -44.5t58.5 -149.5v-219q0 -20 8 -27.5t27 -7.5h16v-119q-37 -23 -89 -23q-72 0 -103 60h-4
q-44 -61 -139 -61zM254 123q47 0 71 29v67q-121 11 -121 -51q0 -21 13 -33t37 -12z" />
    <glyph glyph-name="acircumflex" unicode="&#xe2;" 
d="M130 614l-57 102l208 126l211 -126l-64 -103l-147 81zM205 -9q-81 0 -125.5 46.5t-44.5 113.5q0 97 78.5 144t211.5 39v39q0 72 -70 72q-63 0 -89 -64l-123 90q77 111 210 111q119 0 177.5 -44.5t58.5 -149.5v-219q0 -20 8 -27.5t27 -7.5h16v-119q-37 -23 -89 -23
q-72 0 -103 60h-4q-44 -61 -139 -61zM254 123q47 0 71 29v67q-121 11 -121 -51q0 -21 13 -33t37 -12z" />
    <glyph glyph-name="atilde" unicode="&#xe3;" 
d="M132 627l-68 98q16 29 48.5 53.5t72.5 24.5q35 0 88.5 -21.5t75.5 -21.5q26 0 41.5 9.5t37.5 38.5l67 -97q-17 -29 -49.5 -53t-72.5 -24q-31 0 -88.5 21t-74.5 21q-48 0 -78 -49zM205 -9q-81 0 -125.5 46.5t-44.5 113.5q0 97 78.5 144t211.5 39v39q0 72 -70 72
q-63 0 -89 -64l-123 90q77 111 210 111q119 0 177.5 -44.5t58.5 -149.5v-219q0 -20 8 -27.5t27 -7.5h16v-119q-37 -23 -89 -23q-72 0 -103 60h-4q-44 -61 -139 -61zM254 123q47 0 71 29v67q-121 11 -121 -51q0 -21 13 -33t37 -12z" />
    <glyph glyph-name="adieresis" unicode="&#xe4;" 
d="M146 631q-39 0 -64.5 25.5t-25.5 62.5t25.5 63t64.5 26t64.5 -26t25.5 -63t-25.5 -62.5t-64.5 -25.5zM414 631q-38 0 -63.5 25.5t-25.5 62.5t25.5 63t63.5 26q39 0 64.5 -26t25.5 -63t-25.5 -62.5t-64.5 -25.5zM205 -9q-81 0 -125.5 46.5t-44.5 113.5q0 97 78.5 144
t211.5 39v39q0 72 -70 72q-63 0 -89 -64l-123 90q77 111 210 111q119 0 177.5 -44.5t58.5 -149.5v-219q0 -20 8 -27.5t27 -7.5h16v-119q-37 -23 -89 -23q-72 0 -103 60h-4q-44 -61 -139 -61zM254 123q47 0 71 29v67q-121 11 -121 -51q0 -21 13 -33t37 -12z" />
    <glyph glyph-name="aring" unicode="&#xe5;" 
d="M524 134h16v-119q-37 -23 -89 -23q-72 0 -103 60h-4q-44 -61 -139 -61q-81 0 -125.5 46.5t-44.5 113.5q0 97 78.5 144t211.5 39v39q0 72 -70 72q-63 0 -89 -64l-123 90q77 111 210 111h6q-55 6 -86.5 41t-31.5 86q0 57 38 95.5t101 38.5t100.5 -35.5t37.5 -92.5
q0 -55 -36.5 -93t-95.5 -41q102 -5 152.5 -50t50.5 -143v-219q0 -20 8 -27.5t27 -7.5zM228 713q0 -51 50 -51q53 0 53 49q0 52 -52 52q-51 0 -51 -50zM325 152v67q-121 11 -121 -51q0 -21 13 -33t37 -12q47 0 71 29z" />
    <glyph glyph-name="ae" unicode="&#xe6;" horiz-adv-x="873" 
d="M205 -15q-100 0 -150 45.5t-50 117.5q0 193 327 193v21q0 37 -19 60t-56 23q-35 0 -64 -13.5t-37.5 -23t-22.5 -26.5l-98 120q61 80 223 80q129 0 180 -65h4q58 66 155 66q117 0 181 -63.5t64 -177.5q0 -30 -5.5 -62.5t-10.5 -39.5h-331q13 -117 129 -117q35 0 62.5 10.5
t40.5 21.5t28 28l88 -112q-80 -83 -234 -83q-141 0 -199 79h-4q-26 -42 -68.5 -62t-132.5 -20zM497 356h175q-1 3 -1 12q0 86 -82 86q-39 0 -62.5 -26.5t-29.5 -71.5zM242 116q90 0 90 89v25q-83 0 -117.5 -14t-34.5 -51q0 -16 15 -32.5t47 -16.5z" />
    <glyph glyph-name="ccedilla" unicode="&#xe7;" horiz-adv-x="514" 
d="M287 -12q-254 0 -254 293q0 146 74 224t197 78q141 0 207 -90l-116 -108q-3 8 -12 20t-30.5 24.5t-47.5 12.5q-46 0 -70 -33.5t-24 -114.5q0 -164 93 -164q33 0 57.5 18.5t34.5 40.5l112 -100q-34 -46 -84 -73.5t-137 -27.5zM251 -269l-46 82q37 13 55.5 30t18.5 45
q0 18 -9 34.5t-18 22.5v4h126q17 -25 17 -68q0 -116 -144 -150z" />
    <glyph glyph-name="egrave" unicode="&#xe8;" horiz-adv-x="580" 
d="M307 614l-249 147l149 88l188 -160zM312 -12q-138 0 -208.5 76.5t-70.5 222.5q0 136 73 216t203 80q111 0 173.5 -63.5t62.5 -170.5q0 -48 -7 -103h-335q2 -123 128 -123q76 0 123 54l76 -122q-40 -33 -88.5 -50t-129.5 -17zM207 358h176q-1 2 -1 9q0 87 -76 87
q-47 0 -72.5 -29t-26.5 -67z" />
    <glyph glyph-name="eacute" unicode="&#xe9;" horiz-adv-x="580" 
d="M298 614l-88 75l188 160l149 -88zM312 -12q-138 0 -208.5 76.5t-70.5 222.5q0 136 73 216t203 80q111 0 173.5 -63.5t62.5 -170.5q0 -48 -7 -103h-335q2 -123 128 -123q76 0 123 54l76 -122q-40 -33 -88.5 -50t-129.5 -17zM207 358h176q-1 2 -1 9q0 87 -76 87
q-47 0 -72.5 -29t-26.5 -67z" />
    <glyph glyph-name="ecircumflex" unicode="&#xea;" horiz-adv-x="580" 
d="M138 614l-57 102l208 126l211 -126l-64 -103l-147 81zM312 -12q-138 0 -208.5 76.5t-70.5 222.5q0 136 73 216t203 80q111 0 173.5 -63.5t62.5 -170.5q0 -48 -7 -103h-335q2 -123 128 -123q76 0 123 54l76 -122q-40 -33 -88.5 -50t-129.5 -17zM207 358h176q-1 2 -1 9
q0 87 -76 87q-47 0 -72.5 -29t-26.5 -67z" />
    <glyph glyph-name="edieresis" unicode="&#xeb;" horiz-adv-x="580" 
d="M156 631q-39 0 -64.5 25.5t-25.5 62.5t25.5 63t64.5 26t64.5 -26t25.5 -63t-25.5 -62.5t-64.5 -25.5zM424 631q-38 0 -63.5 25.5t-25.5 62.5t25.5 63t63.5 26q39 0 64.5 -26t25.5 -63t-25.5 -62.5t-64.5 -25.5zM312 -12q-138 0 -208.5 76.5t-70.5 222.5q0 136 73 216
t203 80q111 0 173.5 -63.5t62.5 -170.5q0 -48 -7 -103h-335q2 -123 128 -123q76 0 123 54l76 -122q-40 -33 -88.5 -50t-129.5 -17zM207 358h176q-1 2 -1 9q0 87 -76 87q-47 0 -72.5 -29t-26.5 -67z" />
    <glyph glyph-name="igrave" unicode="&#xec;" horiz-adv-x="297" 
d="M160 614l-249 147l149 88l188 -160zM60 0v572h175v-572h-175z" />
    <glyph glyph-name="iacute" unicode="&#xed;" horiz-adv-x="297" 
d="M130 614l-88 75l188 160l149 -88zM60 0v572h175v-572h-175z" />
    <glyph glyph-name="icircumflex" unicode="&#xee;" horiz-adv-x="297" 
d="M-4 614l-57 102l208 126l211 -126l-64 -103l-147 81zM60 0v572h175v-572h-175z" />
    <glyph glyph-name="idieresis" unicode="&#xef;" horiz-adv-x="297" 
d="M15 631q-39 0 -64.5 25.5t-25.5 62.5t25.5 63t64.5 26t64.5 -26t25.5 -63t-25.5 -62.5t-64.5 -25.5zM283 631q-38 0 -63.5 25.5t-25.5 62.5t25.5 63t63.5 26q39 0 64.5 -26t25.5 -63t-25.5 -62.5t-64.5 -25.5zM60 0v572h175v-572h-175z" />
    <glyph glyph-name="eth" unicode="&#xf0;" horiz-adv-x="567" 
d="M524 708v-91l-99 -36q99 -130 99 -282t-68 -231t-182 -79q-107 0 -170 58.5t-63 166.5q0 120 65 180.5t151 60.5q49 0 78 -6q-13 38 -45 81l-183 -66v91l113 40q-51 37 -175 95v11h243q42 -21 75 -51zM283 126q48 0 68.5 31t20.5 104q0 41 -3 58q-34 8 -77 8
q-47 0 -67.5 -22t-20.5 -78q0 -49 23.5 -75t55.5 -26z" />
    <glyph glyph-name="ntilde" unicode="&#xf1;" horiz-adv-x="623" 
d="M164 627l-68 98q16 29 48.5 53.5t72.5 24.5q35 0 88.5 -21.5t75.5 -21.5q26 0 41.5 9.5t37.5 38.5l67 -97q-17 -29 -49.5 -53t-72.5 -24q-31 0 -88.5 21t-74.5 21q-48 0 -78 -49zM63 0v572h137l34 -52h4q56 67 151 67q173 0 172 -191v-396h-174v360q0 80 -66 80
q-58 0 -83 -57v-383h-175z" />
    <glyph glyph-name="ograve" unicode="&#xf2;" horiz-adv-x="603" 
d="M305 614l-249 147l149 88l188 -160zM298 -12q-145 0 -205 76t-60 219q0 140 65.5 219.5t204.5 79.5q145 0 206 -76t61 -219q0 -139 -66.5 -219t-205.5 -80zM303 122q49 0 68.5 38t19.5 121q0 84 -21.5 125.5t-72.5 41.5q-85 0 -85 -159q0 -84 21 -125.5t70 -41.5z" />
    <glyph glyph-name="oacute" unicode="&#xf3;" horiz-adv-x="603" 
d="M301 614l-88 75l188 160l149 -88zM298 -12q-145 0 -205 76t-60 219q0 140 65.5 219.5t204.5 79.5q145 0 206 -76t61 -219q0 -139 -66.5 -219t-205.5 -80zM303 122q49 0 68.5 38t19.5 121q0 84 -21.5 125.5t-72.5 41.5q-85 0 -85 -159q0 -84 21 -125.5t70 -41.5z" />
    <glyph glyph-name="ocircumflex" unicode="&#xf4;" horiz-adv-x="603" 
d="M148 614l-57 102l208 126l211 -126l-64 -103l-147 81zM298 -12q-145 0 -205 76t-60 219q0 140 65.5 219.5t204.5 79.5q145 0 206 -76t61 -219q0 -139 -66.5 -219t-205.5 -80zM303 122q49 0 68.5 38t19.5 121q0 84 -21.5 125.5t-72.5 41.5q-85 0 -85 -159q0 -84 21 -125.5
t70 -41.5z" />
    <glyph glyph-name="otilde" unicode="&#xf5;" horiz-adv-x="603" 
d="M153 627l-68 98q16 29 48.5 53.5t72.5 24.5q35 0 88.5 -21.5t75.5 -21.5q26 0 41.5 9.5t37.5 38.5l67 -97q-17 -29 -49.5 -53t-72.5 -24q-31 0 -88.5 21t-74.5 21q-48 0 -78 -49zM298 -12q-145 0 -205 76t-60 219q0 140 65.5 219.5t204.5 79.5q145 0 206 -76t61 -219
q0 -139 -66.5 -219t-205.5 -80zM303 122q49 0 68.5 38t19.5 121q0 84 -21.5 125.5t-72.5 41.5q-85 0 -85 -159q0 -84 21 -125.5t70 -41.5z" />
    <glyph glyph-name="odieresis" unicode="&#xf6;" horiz-adv-x="603" 
d="M167 631q-39 0 -64.5 25.5t-25.5 62.5t25.5 63t64.5 26t64.5 -26t25.5 -63t-25.5 -62.5t-64.5 -25.5zM435 631q-38 0 -63.5 25.5t-25.5 62.5t25.5 63t63.5 26q39 0 64.5 -26t25.5 -63t-25.5 -62.5t-64.5 -25.5zM298 -12q-145 0 -205 76t-60 219q0 140 65.5 219.5
t204.5 79.5q145 0 206 -76t61 -219q0 -139 -66.5 -219t-205.5 -80zM303 122q49 0 68.5 38t19.5 121q0 84 -21.5 125.5t-72.5 41.5q-85 0 -85 -159q0 -84 21 -125.5t70 -41.5z" />
    <glyph glyph-name="divide" unicode="&#xf7;" horiz-adv-x="568" 
d="M283 454q-39 0 -64.5 25.5t-25.5 63.5q0 37 25.5 62.5t64.5 25.5q38 0 63.5 -26t25.5 -62q0 -38 -25.5 -63.5t-63.5 -25.5zM33 285v134h502v-134h-502zM283 72q-39 0 -64.5 25.5t-25.5 62.5t25.5 62.5t64.5 25.5q38 0 63.5 -25.5t25.5 -62.5t-25.5 -62.5t-63.5 -25.5z
" />
    <glyph glyph-name="oslash" unicode="&#xf8;" horiz-adv-x="603" 
d="M33 -12v5l54 80q-54 71 -54 210q0 140 65.5 219.5t204.5 79.5q64 0 117 -16l11 16h139v-5l-54 -81q54 -69 54 -209q0 -139 -66.5 -219t-205.5 -80q-64 0 -117 16l-10 -16h-138zM205 248l130 192q-15 8 -38 8q-90 0 -90 -159q0 -28 -2 -41zM303 122q50 0 71.5 38.5
t21.5 120.5q0 27 2 40l-132 -192q18 -7 37 -7z" />
    <glyph glyph-name="ugrave" unicode="&#xf9;" horiz-adv-x="628" 
d="M304 614l-249 147l149 88l188 -160zM241 -11q-93 0 -136.5 49t-42.5 153v381h174v-368q0 -40 18.5 -61t50.5 -21q27 0 46 13t27.5 24.5t11.5 10.5v402h175v-572h-150l-23 51h-4q-51 -62 -147 -62z" />
    <glyph glyph-name="uacute" unicode="&#xfa;" horiz-adv-x="628" 
d="M314 614l-88 75l188 160l149 -88zM241 -11q-93 0 -136.5 49t-42.5 153v381h174v-368q0 -40 18.5 -61t50.5 -21q27 0 46 13t27.5 24.5t11.5 10.5v402h175v-572h-150l-23 51h-4q-51 -62 -147 -62z" />
    <glyph glyph-name="ucircumflex" unicode="&#xfb;" horiz-adv-x="628" 
d="M162 614l-57 102l208 126l211 -126l-64 -103l-147 81zM241 -11q-93 0 -136.5 49t-42.5 153v381h174v-368q0 -40 18.5 -61t50.5 -21q27 0 46 13t27.5 24.5t11.5 10.5v402h175v-572h-150l-23 51h-4q-51 -62 -147 -62z" />
    <glyph glyph-name="udieresis" unicode="&#xfc;" horiz-adv-x="628" 
d="M179 631q-39 0 -64.5 25.5t-25.5 62.5t25.5 63t64.5 26t64.5 -26t25.5 -63t-25.5 -62.5t-64.5 -25.5zM447 631q-38 0 -63.5 25.5t-25.5 62.5t25.5 63t63.5 26q39 0 64.5 -26t25.5 -63t-25.5 -62.5t-64.5 -25.5zM241 -11q-93 0 -136.5 49t-42.5 153v381h174v-368
q0 -40 18.5 -61t50.5 -21q27 0 46 13t27.5 24.5t11.5 10.5v402h175v-572h-150l-23 51h-4q-51 -62 -147 -62z" />
    <glyph glyph-name="yacute" unicode="&#xfd;" horiz-adv-x="560" 
d="M288 614l-88 75l188 160l149 -88zM146 -214q-66 0 -102 19l29 141q27 -15 64 -15q38 0 59.5 20.5t20.5 57.5l-217 563h196l55 -168q38 -121 46 -197h4q18 119 38 197l43 168h180l-190 -597q-27 -86 -79 -137.5t-147 -51.5z" />
    <glyph glyph-name="thorn" unicode="&#xfe;" horiz-adv-x="609" 
d="M63 -195v955h170v-238h4q16 25 50.5 43t79.5 18q96 0 152.5 -71.5t56.5 -199.5q0 -152 -74.5 -232.5t-178.5 -80.5q-42 0 -87 8v-202h-173zM298 138q51 0 76 34.5t25 124.5q0 71 -25.5 109t-67.5 38q-48 0 -72 -39v-249q26 -18 64 -18z" />
    <glyph glyph-name="ydieresis" unicode="&#xff;" horiz-adv-x="560" 
d="M145 631q-39 0 -64.5 25.5t-25.5 62.5t25.5 63t64.5 26t64.5 -26t25.5 -63t-25.5 -62.5t-64.5 -25.5zM413 631q-38 0 -63.5 25.5t-25.5 62.5t25.5 63t63.5 26q39 0 64.5 -26t25.5 -63t-25.5 -62.5t-64.5 -25.5zM146 -214q-66 0 -102 19l29 141q27 -15 64 -15
q38 0 59.5 20.5t20.5 57.5l-217 563h196l55 -168q38 -121 46 -197h4q18 119 38 197l43 168h180l-190 -597q-27 -86 -79 -137.5t-147 -51.5z" />
    <glyph glyph-name="Amacron" unicode="&#x100;" horiz-adv-x="689" 
d="M504 895v-137h-319v137h319zM489 0l-37 147h-221l-38 -147h-177l207 701h241l209 -701h-184zM269 291h146l-14 54q-43 157 -57 234h-4q-16 -89 -56 -229z" />
    <glyph glyph-name="amacron" unicode="&#x101;" 
d="M125 630v137h319v-137h-319zM205 -9q-81 0 -125.5 46.5t-44.5 113.5q0 97 78.5 144t211.5 39v39q0 72 -70 72q-63 0 -89 -64l-123 90q77 111 210 111q119 0 177.5 -44.5t58.5 -149.5v-219q0 -20 8 -27.5t27 -7.5h16v-119q-37 -23 -89 -23q-72 0 -103 60h-4
q-44 -61 -139 -61zM254 123q47 0 71 29v67q-121 11 -121 -51q0 -21 13 -33t37 -12z" />
    <glyph glyph-name="Abreve" unicode="&#x102;" horiz-adv-x="689" 
d="M345 737q-147 0 -216 134l111 64q12 -30 38 -53t67 -23q74 0 107 76l110 -64q-34 -64 -84.5 -99t-132.5 -35zM489 0l-37 147h-221l-38 -147h-177l207 701h241l209 -701h-184zM269 291h146l-14 54q-43 157 -57 234h-4q-16 -89 -56 -229z" />
    <glyph glyph-name="abreve" unicode="&#x103;" 
d="M284 609q-147 0 -216 134l111 64q12 -30 38 -53t67 -23q74 0 107 76l110 -64q-34 -64 -84.5 -99t-132.5 -35zM205 -9q-81 0 -125.5 46.5t-44.5 113.5q0 97 78.5 144t211.5 39v39q0 72 -70 72q-63 0 -89 -64l-123 90q77 111 210 111q119 0 177.5 -44.5t58.5 -149.5v-219
q0 -20 8 -27.5t27 -7.5h16v-119q-37 -23 -89 -23q-72 0 -103 60h-4q-44 -61 -139 -61zM254 123q47 0 71 29v67q-121 11 -121 -51q0 -21 13 -33t37 -12z" />
    <glyph glyph-name="Aogonek" unicode="&#x104;" horiz-adv-x="689" 
d="M649 -143l33 -94q-48 -29 -118 -29q-73 0 -107.5 33.5t-34.5 86.5q0 79 78 146h-11l-37 147h-221l-38 -147h-177l207 701h241l209 -701q-126 -72 -126 -126q0 -37 36 -37q31 0 66 20zM269 291h146l-14 54q-43 157 -57 234h-4q-16 -89 -56 -229z" />
    <glyph glyph-name="aogonek" unicode="&#x105;" 
d="M515 -128l33 -94q-48 -29 -118 -29q-73 0 -107.5 33.5t-34.5 86.5q0 83 84 151q-15 13 -24 32h-4q-44 -61 -139 -61q-81 0 -125.5 46.5t-44.5 113.5q0 97 78.5 144t211.5 39v39q0 72 -70 72q-63 0 -89 -64l-123 90q77 111 210 111q119 0 177.5 -44.5t58.5 -149.5v-219
q0 -20 8 -27.5t27 -7.5h16v-119q-10 -6 -15 -8q-112 -65 -112 -118q0 -37 36 -37q31 0 66 20zM325 152v67q-121 11 -121 -51q0 -21 13 -33t37 -12q47 0 71 29z" />
    <glyph glyph-name="Cacute" unicode="&#x106;" horiz-adv-x="598" 
d="M360 742l-88 75l188 160l149 -88zM348 -10q-159 0 -233 94t-74 258q0 169 82 268.5t236 99.5q152 0 229 -90l-116 -127q-15 21 -26 32.5t-38 24.5t-61 13q-64 0 -94.5 -51t-30.5 -159q0 -100 35 -156.5t104 -56.5q73 0 122 64l96 -125q-28 -35 -86.5 -62t-144.5 -27z" />
    <glyph glyph-name="cacute" unicode="&#x107;" horiz-adv-x="514" 
d="M302 614l-88 75l188 160l149 -88zM287 -12q-254 0 -254 293q0 146 74 224t197 78q141 0 207 -90l-116 -108q-3 8 -12 20t-30.5 24.5t-47.5 12.5q-46 0 -70 -33.5t-24 -114.5q0 -164 93 -164q33 0 57.5 18.5t34.5 40.5l112 -100q-34 -46 -84 -73.5t-137 -27.5z" />
    <glyph glyph-name="Ccircumflex" unicode="&#x108;" horiz-adv-x="598" 
d="M181 742l-57 102l208 126l211 -126l-64 -103l-147 81zM348 -10q-159 0 -233 94t-74 258q0 169 82 268.5t236 99.5q152 0 229 -90l-116 -127q-15 21 -26 32.5t-38 24.5t-61 13q-64 0 -94.5 -51t-30.5 -159q0 -100 35 -156.5t104 -56.5q73 0 122 64l96 -125
q-28 -35 -86.5 -62t-144.5 -27z" />
    <glyph glyph-name="ccircumflex" unicode="&#x109;" horiz-adv-x="514" 
d="M136 614l-57 102l208 126l211 -126l-64 -103l-147 81zM287 -12q-254 0 -254 293q0 146 74 224t197 78q141 0 207 -90l-116 -108q-3 8 -12 20t-30.5 24.5t-47.5 12.5q-46 0 -70 -33.5t-24 -114.5q0 -164 93 -164q33 0 57.5 18.5t34.5 40.5l112 -100q-34 -46 -84 -73.5
t-137 -27.5z" />
    <glyph glyph-name="Cdotaccent" unicode="&#x10a;" horiz-adv-x="598" 
d="M333 755q-44 0 -73.5 29.5t-29.5 72.5t29.5 72t73.5 29q45 0 74 -29t29 -72t-29 -72.5t-74 -29.5zM348 -10q-159 0 -233 94t-74 258q0 169 82 268.5t236 99.5q152 0 229 -90l-116 -127q-15 21 -26 32.5t-38 24.5t-61 13q-64 0 -94.5 -51t-30.5 -159q0 -100 35 -156.5
t104 -56.5q73 0 122 64l96 -125q-28 -35 -86.5 -62t-144.5 -27z" />
    <glyph glyph-name="cdotaccent" unicode="&#x10b;" horiz-adv-x="514" 
d="M283 627q-44 0 -73.5 29.5t-29.5 72.5t29.5 72t73.5 29q45 0 74 -29t29 -72t-29 -72.5t-74 -29.5zM287 -12q-254 0 -254 293q0 146 74 224t197 78q141 0 207 -90l-116 -108q-3 8 -12 20t-30.5 24.5t-47.5 12.5q-46 0 -70 -33.5t-24 -114.5q0 -164 93 -164q33 0 57.5 18.5
t34.5 40.5l112 -100q-34 -46 -84 -73.5t-137 -27.5z" />
    <glyph glyph-name="Ccaron" unicode="&#x10c;" horiz-adv-x="598" 
d="M355 729l-208 125l57 102l151 -80l147 82l64 -104zM348 -10q-159 0 -233 94t-74 258q0 169 82 268.5t236 99.5q152 0 229 -90l-116 -127q-15 21 -26 32.5t-38 24.5t-61 13q-64 0 -94.5 -51t-30.5 -159q0 -100 35 -156.5t104 -56.5q73 0 122 64l96 -125q-28 -35 -86.5 -62
t-144.5 -27z" />
    <glyph glyph-name="ccaron" unicode="&#x10d;" horiz-adv-x="514" 
d="M298 601l-208 125l57 102l151 -80l147 82l64 -104zM287 -12q-254 0 -254 293q0 146 74 224t197 78q141 0 207 -90l-116 -108q-3 8 -12 20t-30.5 24.5t-47.5 12.5q-46 0 -70 -33.5t-24 -114.5q0 -164 93 -164q33 0 57.5 18.5t34.5 40.5l112 -100q-34 -46 -84 -73.5
t-137 -27.5z" />
    <glyph glyph-name="Dcaron" unicode="&#x10e;" horiz-adv-x="686" 
d="M346 729l-208 125l57 102l151 -80l147 82l64 -104zM77 0v701h229q173 0 256 -82.5t83 -249.5q0 -53 -8.5 -101.5t-32 -98.5t-60 -86.5t-97 -59.5t-138.5 -23h-232zM252 143h41q51 0 85.5 16t52.5 46.5t25.5 66t7.5 81.5q0 111 -45 158t-126 47h-41v-415z" />
    <glyph glyph-name="dcaron" unicode="&#x10f;" horiz-adv-x="783" 
d="M241 -9q-94 0 -151 65.5t-57 198.5q0 72 15 129.5t39 92.5t57 58t65.5 32t67.5 9q53 0 95 -13v195h173v-758h-137l-27 43h-4q-66 -52 -136 -52zM620 444l-44 60q93 43 93 100q0 47 -59 65v13q0 32 22 54t57 22q44 0 69 -29.5t25 -74.5q0 -70 -48.5 -129t-114.5 -81z
M294 127q49 0 83 36v251q-21 23 -73 23q-19 0 -33.5 -5t-30 -20.5t-23.5 -51.5t-8 -91q0 -142 85 -142z" />
    <glyph glyph-name="Dcroat" unicode="&#x110;" horiz-adv-x="677" 
d="M314 701q174 0 256.5 -82.5t82.5 -249.5q0 -53 -8.5 -101.5t-32 -98.5t-59.5 -86.5t-97 -59.5t-139 -23h-232v273h-94v146h94v282h229zM302 143q96 0 133 56t37 154q0 111 -44.5 158t-125.5 47h-42v-139h107v-146h-107v-130h42z" />
    <glyph glyph-name="dcroat" unicode="&#x111;" horiz-adv-x="607" 
d="M598 709v-91h-53v-618l-138 1l-26 42h-4q-66 -52 -136 -52q-94 0 -151 65.5t-57 198.5q0 72 15 129.5t39 92.5t57 58t65.5 32t67.5 9q53 0 95 -13v55h-140v91h140v49h173v-49h53zM377 151v263q-21 23 -73 23q-19 0 -33.5 -5t-30 -20.5t-23.5 -51.5t-8 -91q0 -142 85 -142
q12 0 24.5 2.5t19 5t21 8.5t18.5 8z" />
    <glyph glyph-name="Emacron" unicode="&#x112;" horiz-adv-x="574" 
d="M137 758v137h319v-137h-319zM77 0v701h429v-143h-254v-130h216v-143h-216v-141h265v-144h-440z" />
    <glyph glyph-name="emacron" unicode="&#x113;" horiz-adv-x="580" 
d="M130 630v137h319v-137h-319zM312 -12q-138 0 -208.5 76.5t-70.5 222.5q0 136 73 216t203 80q111 0 173.5 -63.5t62.5 -170.5q0 -48 -7 -103h-335q2 -123 128 -123q76 0 123 54l76 -122q-40 -33 -88.5 -50t-129.5 -17zM207 358h176q-1 2 -1 9q0 87 -76 87q-47 0 -72.5 -29
t-26.5 -67z" />
    <glyph glyph-name="Ebreve" unicode="&#x114;" horiz-adv-x="574" 
d="M292 737q-147 0 -216 134l111 64q12 -30 38 -53t67 -23q74 0 107 76l110 -64q-34 -64 -84.5 -99t-132.5 -35zM77 0v701h429v-143h-254v-130h216v-143h-216v-141h265v-144h-440z" />
    <glyph glyph-name="ebreve" unicode="&#x115;" horiz-adv-x="580" 
d="M290 609q-147 0 -216 134l111 64q12 -30 38 -53t67 -23q74 0 107 76l110 -64q-34 -64 -84.5 -99t-132.5 -35zM312 -12q-138 0 -208.5 76.5t-70.5 222.5q0 136 73 216t203 80q111 0 173.5 -63.5t62.5 -170.5q0 -48 -7 -103h-335q2 -123 128 -123q76 0 123 54l76 -122
q-40 -33 -88.5 -50t-129.5 -17zM207 358h176q-1 2 -1 9q0 87 -76 87q-47 0 -72.5 -29t-26.5 -67z" />
    <glyph glyph-name="Edotaccent" unicode="&#x116;" horiz-adv-x="574" 
d="M281 755q-44 0 -73.5 29.5t-29.5 72.5t29.5 72t73.5 29q45 0 74 -29t29 -72t-29 -72.5t-74 -29.5zM77 0v701h429v-143h-254v-130h216v-143h-216v-141h265v-144h-440z" />
    <glyph glyph-name="edotaccent" unicode="&#x117;" horiz-adv-x="580" 
d="M289 627q-44 0 -73.5 29.5t-29.5 72.5t29.5 72t73.5 29q45 0 74 -29t29 -72t-29 -72.5t-74 -29.5zM312 -12q-138 0 -208.5 76.5t-70.5 222.5q0 136 73 216t203 80q111 0 173.5 -63.5t62.5 -170.5q0 -48 -7 -103h-335q2 -123 128 -123q76 0 123 54l76 -122
q-40 -33 -88.5 -50t-129.5 -17zM207 358h176q-1 2 -1 9q0 87 -76 87q-47 0 -72.5 -29t-26.5 -67z" />
    <glyph glyph-name="Eogonek" unicode="&#x118;" horiz-adv-x="574" 
d="M493 -143l33 -94q-48 -29 -118 -29q-73 0 -107.5 33.5t-34.5 86.5q0 79 78 146h-267v701h429v-143h-254v-130h216v-143h-216v-141h265v-144q-126 -72 -126 -126q0 -37 36 -37q31 0 66 20z" />
    <glyph glyph-name="eogonek" unicode="&#x119;" horiz-adv-x="580" 
d="M545 349q0 -48 -7 -103h-335q2 -123 128 -123q76 0 123 54l76 -122q-34 -29 -74 -45q-126 -72 -126 -126q0 -37 36 -37q31 0 66 20l33 -94q-48 -29 -118 -29q-73 0 -107.5 33.5t-34.5 86.5q0 68 57 127q-229 27 -229 296q0 136 73 216t203 80q111 0 173.5 -63.5
t62.5 -170.5zM207 358h176q-1 2 -1 9q0 87 -76 87q-47 0 -72.5 -29t-26.5 -67z" />
    <glyph glyph-name="Ecaron" unicode="&#x11a;" horiz-adv-x="574" 
d="M286 729l-208 125l57 102l151 -80l147 82l64 -104zM77 0v701h429v-143h-254v-130h216v-143h-216v-141h265v-144h-440z" />
    <glyph glyph-name="ecaron" unicode="&#x11b;" horiz-adv-x="580" 
d="M289 601l-208 125l57 102l151 -80l147 82l64 -104zM312 -12q-138 0 -208.5 76.5t-70.5 222.5q0 136 73 216t203 80q111 0 173.5 -63.5t62.5 -170.5q0 -48 -7 -103h-335q2 -123 128 -123q76 0 123 54l76 -122q-40 -33 -88.5 -50t-129.5 -17zM207 358h176q-1 2 -1 9
q0 87 -76 87q-47 0 -72.5 -29t-26.5 -67z" />
    <glyph glyph-name="Gcircumflex" unicode="&#x11c;" horiz-adv-x="665" 
d="M364 822l-151 -80l-57 102l208 126l211 -126l-64 -103zM338 396h269v-344q-94 -62 -261 -62q-305 0 -305 353q0 181 95.5 274.5t247.5 93.5q66 0 119.5 -18.5t74.5 -35t35 -33.5l-113 -122q-50 58 -122 58q-156 0 -156 -196q0 -121 39 -177t122 -56q23 0 48 5v108h-93
v152z" />
    <glyph glyph-name="gcircumflex" unicode="&#x11d;" horiz-adv-x="602" 
d="M167 614l-57 102l208 126l211 -126l-64 -103l-147 81zM269 -201q-103 0 -157.5 22.5t-85.5 60.5l98 127q21 -32 60.5 -51.5t81.5 -19.5q55 0 78.5 21.5t23.5 76.5v22h-4q-32 -29 -104 -29q-227 0 -227 263q0 123 72.5 205t205.5 82q143 0 228 -35v-510
q0 -114 -74.5 -174.5t-195.5 -60.5zM299 169q43 0 68 21v246q-28 8 -54 8q-107 0 -107 -147q0 -74 21.5 -101t71.5 -27z" />
    <glyph glyph-name="Gbreve" unicode="&#x11e;" horiz-adv-x="665" 
d="M377 737q-147 0 -216 134l111 64q12 -30 38 -53t67 -23q74 0 107 76l110 -64q-34 -64 -84.5 -99t-132.5 -35zM338 396h269v-344q-94 -62 -261 -62q-305 0 -305 353q0 181 95.5 274.5t247.5 93.5q66 0 119.5 -18.5t74.5 -35t35 -33.5l-113 -122q-50 58 -122 58
q-156 0 -156 -196q0 -121 39 -177t122 -56q23 0 48 5v108h-93v152z" />
    <glyph glyph-name="gbreve" unicode="&#x11f;" horiz-adv-x="602" 
d="M325 609q-147 0 -216 134l111 64q12 -30 38 -53t67 -23q74 0 107 76l110 -64q-34 -64 -84.5 -99t-132.5 -35zM269 -201q-103 0 -157.5 22.5t-85.5 60.5l98 127q21 -32 60.5 -51.5t81.5 -19.5q55 0 78.5 21.5t23.5 76.5v22h-4q-32 -29 -104 -29q-227 0 -227 263
q0 123 72.5 205t205.5 82q143 0 228 -35v-510q0 -114 -74.5 -174.5t-195.5 -60.5zM299 169q43 0 68 21v246q-28 8 -54 8q-107 0 -107 -147q0 -74 21.5 -101t71.5 -27z" />
    <glyph glyph-name="Gdotaccent" unicode="&#x120;" horiz-adv-x="665" 
d="M348 755q-44 0 -73.5 29.5t-29.5 72.5t29.5 72t73.5 29q45 0 74 -29t29 -72t-29 -72.5t-74 -29.5zM338 396h269v-344q-94 -62 -261 -62q-305 0 -305 353q0 181 95.5 274.5t247.5 93.5q66 0 119.5 -18.5t74.5 -35t35 -33.5l-113 -122q-50 58 -122 58q-156 0 -156 -196
q0 -121 39 -177t122 -56q23 0 48 5v108h-93v152z" />
    <glyph glyph-name="gdotaccent" unicode="&#x121;" horiz-adv-x="602" 
d="M293 628q-44 0 -73.5 29.5t-29.5 72.5t29.5 72t73.5 29q45 0 74 -29t29 -72t-29 -72.5t-74 -29.5zM269 -201q-103 0 -157.5 22.5t-85.5 60.5l98 127q21 -32 60.5 -51.5t81.5 -19.5q55 0 78.5 21.5t23.5 76.5v22h-4q-32 -29 -104 -29q-227 0 -227 263q0 123 72.5 205
t205.5 82q143 0 228 -35v-510q0 -114 -74.5 -174.5t-195.5 -60.5zM299 169q43 0 68 21v246q-28 8 -54 8q-107 0 -107 -147q0 -74 21.5 -101t71.5 -27z" />
    <glyph glyph-name="Gcommaaccent" unicode="&#x122;" horiz-adv-x="665" 
d="M338 396h269v-344q-94 -62 -261 -62q-305 0 -305 353q0 181 95.5 274.5t247.5 93.5q66 0 119.5 -18.5t74.5 -35t35 -33.5l-113 -122q-50 58 -122 58q-156 0 -156 -196q0 -121 39 -177t122 -56q23 0 48 5v108h-93v152zM353 -41q46 0 72.5 -31.5t26.5 -78.5
q0 -79 -50.5 -133t-118.5 -75l-25 52q49 16 74 44t25 56q0 7 -1.5 13.5t-5.5 12.5l-7 10.5t-10 9.5t-10.5 8t-13 8t-12 6t-13.5 6t-12 6v5q0 34 21.5 57.5t59.5 23.5z" />
    <glyph glyph-name="gcommaaccent" unicode="&#x123;" horiz-adv-x="602" 
d="M309 638q-42 0 -66 28t-24 72q0 67 46.5 124t111.5 79l42 -59q-90 -41 -90 -96q0 -45 57 -63v-12q0 -30 -21.5 -51.5t-55.5 -21.5zM269 -201q-103 0 -157.5 22.5t-85.5 60.5l98 127q21 -32 60.5 -51.5t81.5 -19.5q55 0 78.5 21.5t23.5 76.5v22h-4q-32 -29 -104 -29
q-227 0 -227 263q0 123 72.5 205t205.5 82q143 0 228 -35v-510q0 -114 -74.5 -174.5t-195.5 -60.5zM299 169q43 0 68 21v246q-28 8 -54 8q-107 0 -107 -147q0 -74 21.5 -101t71.5 -27z" />
    <glyph glyph-name="Hcircumflex" unicode="&#x124;" horiz-adv-x="734" 
d="M215 742l-57 102l208 126l211 -126l-64 -103l-147 81zM77 0v701h176v-281h228v281h177v-701h-177v277h-228v-277h-176z" />
    <glyph glyph-name="hcircumflex" unicode="&#x125;" horiz-adv-x="623" 
d="M-4 782l-57 102l208 126l211 -126l-64 -103l-147 81zM63 0v758h175v-242h4q58 58 146 58q173 0 173 -191v-383h-174v347q0 81 -68 81q-18 0 -42.5 -15t-38.5 -37v-376h-175z" />
    <glyph glyph-name="Hbar" unicode="&#x126;" horiz-adv-x="751" 
d="M736 606v-91h-69v-515h-177v277h-228v-277h-176v515h-71v91h71v95h176v-95h228v95h177v-95h69zM490 420v95h-228v-95h228z" />
    <glyph glyph-name="hbar" unicode="&#x127;" horiz-adv-x="625" 
d="M387 574q173 0 173 -191v-383h-174v347q0 81 -68 81q-18 0 -42.5 -15t-38.5 -37v-376h-175v618h-65v91h65v49h175v-49h126v-91h-126v-102h4q58 58 146 58z" />
    <glyph glyph-name="Itilde" unicode="&#x128;" horiz-adv-x="345" 
d="M25 755l-68 98q16 29 48.5 53.5t72.5 24.5q35 0 88.5 -21.5t75.5 -21.5q26 0 41.5 9.5t37.5 38.5l67 -97q-17 -29 -49.5 -53t-72.5 -24q-31 0 -88.5 21t-74.5 21q-48 0 -78 -49zM84 0v701h177v-701h-177z" />
    <glyph glyph-name="itilde" unicode="&#x129;" horiz-adv-x="297" 
d="M1 627l-68 98q16 29 48.5 53.5t72.5 24.5q35 0 88.5 -21.5t75.5 -21.5q26 0 41.5 9.5t37.5 38.5l67 -97q-17 -29 -49.5 -53t-72.5 -24q-31 0 -88.5 21t-74.5 21q-48 0 -78 -49zM60 0v572h175v-572h-175z" />
    <glyph glyph-name="Imacron" unicode="&#x12a;" horiz-adv-x="345" 
d="M14 758v137h319v-137h-319zM84 0v701h177v-701h-177z" />
    <glyph glyph-name="imacron" unicode="&#x12b;" horiz-adv-x="297" 
d="M-10 630v137h319v-137h-319zM60 0v572h175v-572h-175z" />
    <glyph glyph-name="Ibreve" unicode="&#x12c;" horiz-adv-x="345" 
d="M173 737q-147 0 -216 134l111 64q12 -30 38 -53t67 -23q74 0 107 76l110 -64q-34 -64 -84.5 -99t-132.5 -35zM84 0v701h177v-701h-177z" />
    <glyph glyph-name="ibreve" unicode="&#x12d;" horiz-adv-x="297" 
d="M149 609q-147 0 -216 134l111 64q12 -30 38 -53t67 -23q74 0 107 76l110 -64q-34 -64 -84.5 -99t-132.5 -35zM60 0v572h175v-572h-175z" />
    <glyph glyph-name="Iogonek" unicode="&#x12e;" horiz-adv-x="345" 
d="M237 -143l33 -94q-48 -29 -118 -29q-73 0 -107.5 33.5t-34.5 86.5q0 79 78 146h-4v701h177v-701q-126 -72 -126 -126q0 -37 36 -37q31 0 66 20z" />
    <glyph glyph-name="iogonek" unicode="&#x12f;" horiz-adv-x="297" 
d="M146 621q-40 0 -68 27.5t-28 66.5q0 43 27.5 71.5t68.5 28.5q42 0 70.5 -28.5t28.5 -71.5q0 -39 -28.5 -66.5t-70.5 -27.5zM145 -163q31 0 66 20l33 -94q-48 -29 -118 -29q-73 0 -107.5 33.5t-34.5 86.5q0 79 78 146h-2v572h175v-572q-126 -72 -126 -126q0 -37 36 -37z
" />
    <glyph glyph-name="Idotaccent" unicode="&#x130;" horiz-adv-x="345" 
d="M173 755q-44 0 -73.5 29.5t-29.5 72.5t29.5 72t73.5 29q45 0 74 -29t29 -72t-29 -72.5t-74 -29.5zM84 0v701h177v-701h-177z" />
    <glyph glyph-name="dotlessi" unicode="&#x131;" horiz-adv-x="297" 
d="M60 0v572h175v-572h-175z" />
    <glyph glyph-name="IJ" unicode="&#x132;" horiz-adv-x="797" 
d="M84 0v701h177v-701h-177zM500 -13q-43 0 -79.5 7t-52.5 13.5t-24 12.5l54 154q45 -35 95 -35q29 0 40 12.5t11 40.5v509h176v-523q0 -87 -54.5 -139t-165.5 -52z" />
    <glyph glyph-name="ij" unicode="&#x133;" horiz-adv-x="587" 
d="M146 621q-40 0 -68 27.5t-28 66.5q0 43 27.5 71.5t68.5 28.5q42 0 70.5 -28.5t28.5 -71.5q0 -39 -28.5 -66.5t-70.5 -27.5zM438 621q-40 0 -68 27.5t-28 66.5q0 43 28 71.5t68 28.5q43 0 71 -28.5t28 -71.5q0 -39 -28.5 -66.5t-70.5 -27.5zM60 0v572h175v-572h-175z
M311 -218l-55 136q58 26 76.5 61.5t18.5 118.5v474h175v-480q0 -37 -3 -66.5t-16 -69t-34.5 -70t-63 -59t-98.5 -45.5z" />
    <glyph glyph-name="Jcircumflex" unicode="&#x134;" horiz-adv-x="462" 
d="M145 742l-57 102l208 126l211 -126l-64 -103l-147 81zM165 -13q-43 0 -79.5 7t-52.5 13.5t-24 12.5l54 154q45 -35 95 -35q29 0 40 12.5t11 40.5v509h176v-523q0 -87 -54.5 -139t-165.5 -52z" />
    <glyph glyph-name="jcircumflex" unicode="&#x135;" horiz-adv-x="320" 
d="M8 614l-57 102l208 126l211 -126l-64 -103l-147 81zM34 -260l-55 136q58 27 76.5 62.5t18.5 118.5v515h175v-521q0 -37 -3 -66.5t-16 -69t-34.5 -70t-63 -59.5t-98.5 -46z" />
    <glyph glyph-name="Kcommaaccent" unicode="&#x136;" horiz-adv-x="670" 
d="M440 363l230 -363h-219l-198 350v-350h-176v701h176v-337l193 337h202zM329 -28q46 0 72.5 -32t26.5 -79q0 -78 -51 -132.5t-119 -74.5l-25 52q49 15 74.5 43.5t25.5 56.5q0 15 -7 27.5t-23 23t-25.5 15t-30.5 13.5v5q0 34 22 58t60 24z" />
    <glyph glyph-name="kcommaaccent" unicode="&#x137;" horiz-adv-x="595" 
d="M238 305v-305h-175v758h175v-449l141 263h197l-155 -261v-4l157 -307h-205zM294 -28q46 0 72.5 -32t26.5 -79q0 -78 -51 -132.5t-118 -74.5l-25 52q48 15 73.5 43.5t25.5 56.5q0 20 -16 37t-29 23.5t-40 18.5v5q0 35 21.5 58.5t59.5 23.5z" />
    <glyph glyph-name="kgreenlandic" unicode="&#x138;" horiz-adv-x="595" 
d="M63 0v572h175v-572h-175zM373 0l-134 290v4l140 278h198l-155 -276v-4l156 -292h-205z" />
    <glyph glyph-name="Lacute" unicode="&#x139;" horiz-adv-x="514" 
d="M185 742l-88 75l188 160l149 -88zM77 0v701h176v-557h244v-144h-420z" />
    <glyph glyph-name="lacute" unicode="&#x13a;" horiz-adv-x="334" 
d="M126 793l-88 75l188 160l149 -88zM220 -10q-73 0 -115.5 42t-42.5 117v609h174v-564q0 -52 44 -52q5 0 8.5 -0.5t4.5 -0.5v-136q-36 -15 -73 -15z" />
    <glyph glyph-name="Lcommaaccent" unicode="&#x13b;" horiz-adv-x="514" 
d="M77 0v701h176v-557h244v-144h-420zM212 -346l-25 52q48 15 73.5 43.5t25.5 56.5q0 20 -16 37t-29 23.5t-40 18.5v5q0 35 21.5 58.5t59.5 23.5q46 0 72.5 -32t26.5 -79q0 -78 -51 -132.5t-118 -74.5z" />
    <glyph glyph-name="lcommaaccent" unicode="&#x13c;" horiz-adv-x="334" 
d="M220 -10q-73 0 -115.5 42t-42.5 117v609h174v-564q0 -52 44 -52q5 0 8.5 -0.5t4.5 -0.5v-136q-36 -15 -73 -15zM90 -346l-25 52q49 15 74.5 43.5t25.5 56.5q0 15 -7 27.5t-23 23t-25.5 15t-30.5 13.5v5q0 34 22 58t60 24q46 0 72.5 -32t26.5 -79q0 -78 -51 -132.5
t-119 -74.5z" />
    <glyph glyph-name="Lcaron" unicode="&#x13d;" horiz-adv-x="514" 
d="M337 493l-44 60q93 43 93 100q0 47 -59 65v13q0 32 22 54t57 22q44 0 69 -29.5t25 -74.5q0 -70 -48.5 -129t-114.5 -81zM77 0v701h176v-557h244v-144h-420z" />
    <glyph glyph-name="lcaron" unicode="&#x13e;" horiz-adv-x="441" 
d="M301 445l-44 60q93 43 93 100q0 47 -59 65v13q0 32 22 54t57 22q44 0 69 -29.5t25 -74.5q0 -70 -48.5 -129t-114.5 -81zM220 -10q-73 0 -115.5 42t-42.5 117v609h174v-564q0 -52 44 -52q5 0 8.5 -0.5t4.5 -0.5v-136q-36 -15 -73 -15z" />
    <glyph glyph-name="Ldot" unicode="&#x13f;" horiz-adv-x="514" 
d="M77 0v701h176v-557h244v-144h-420zM409 303q-37 0 -63.5 26.5t-26.5 63.5q0 40 26 67.5t64 27.5q40 0 67 -27t27 -68q0 -38 -27 -64t-67 -26z" />
    <glyph glyph-name="ldot" unicode="&#x140;" horiz-adv-x="464" 
d="M220 -10q-73 0 -115.5 42t-42.5 117v609h174v-564q0 -52 44 -52q5 0 8.5 -0.5t4.5 -0.5v-136q-36 -15 -73 -15zM398 295q-38 0 -64 26.5t-26 63.5q0 40 26 67.5t64 27.5q40 0 67 -27t27 -68q0 -38 -27 -64t-67 -26z" />
    <glyph glyph-name="Lslash" unicode="&#x141;" horiz-adv-x="518" 
d="M258 144h244v-144h-420v176l-82 -43v125l82 43v400h176v-307l176 92v-125l-176 -92v-125z" />
    <glyph glyph-name="lslash" unicode="&#x142;" horiz-adv-x="334" 
d="M322 449l-88 -58v-197q0 -52 44 -52q5 0 8.5 -0.5t4.5 -0.5v-136q-36 -15 -73 -15q-73 0 -115.5 42t-42.5 117v126l-68 -45v125l68 45v358h174v-243l88 58v-124z" />
    <glyph glyph-name="Nacute" unicode="&#x143;" horiz-adv-x="743" 
d="M371 742l-88 75l188 160l149 -88zM79 0v701h206l113 -223q72 -136 105 -233h3q-10 109 -10 295v161h167v-701h-200l-128 248q-48 94 -97 232h-3q13 -105 13 -264v-216h-169z" />
    <glyph glyph-name="nacute" unicode="&#x144;" horiz-adv-x="623" 
d="M309 614l-88 75l188 160l149 -88zM63 0v572h137l34 -52h4q56 67 151 67q173 0 172 -191v-396h-174v360q0 80 -66 80q-58 0 -83 -57v-383h-175z" />
    <glyph glyph-name="Ncommaaccent" unicode="&#x145;" horiz-adv-x="743" 
d="M79 0v701h206l113 -223q72 -136 105 -233h3q-10 109 -10 295v161h167v-701h-200l-128 248q-48 94 -97 232h-3q13 -105 13 -264v-216h-169zM297 -346l-25 52q49 15 74.5 43.5t25.5 56.5q0 15 -7 27.5t-23 23t-25.5 15t-30.5 13.5v5q0 34 22 58t60 24q46 0 72.5 -32
t26.5 -79q0 -78 -51 -132.5t-119 -74.5z" />
    <glyph glyph-name="ncommaaccent" unicode="&#x146;" horiz-adv-x="623" 
d="M63 0v572h137l34 -52h4q56 67 151 67q173 0 172 -191v-396h-174v360q0 80 -66 80q-58 0 -83 -57v-383h-175zM238 -346l-25 52q48 15 73.5 43.5t25.5 56.5q0 20 -15.5 36.5t-29 23.5t-40.5 19v5q0 34 22 58t59 24q46 0 72.5 -32t26.5 -79q0 -79 -50.5 -133t-118.5 -74z
" />
    <glyph glyph-name="Ncaron" unicode="&#x147;" horiz-adv-x="743" 
d="M369 729l-208 125l57 102l151 -80l147 82l64 -104zM79 0v701h206l113 -223q72 -136 105 -233h3q-10 109 -10 295v161h167v-701h-200l-128 248q-48 94 -97 232h-3q13 -105 13 -264v-216h-169z" />
    <glyph glyph-name="ncaron" unicode="&#x148;" horiz-adv-x="623" 
d="M310 601l-208 125l57 102l151 -80l147 82l64 -104zM63 0v572h137l34 -52h4q56 67 151 67q173 0 172 -191v-396h-174v360q0 80 -66 80q-58 0 -83 -57v-383h-175z" />
    <glyph glyph-name="napostrophe" unicode="&#x149;" horiz-adv-x="878" 
d="M41 379l-54 75q115 52 115 123q0 58 -73 80v16q0 39 27 66.5t71 27.5q54 0 84.5 -36.5t30.5 -92.5q0 -86 -59.5 -159t-141.5 -100zM318 0v572h137l34 -52h4q56 67 151 67q173 0 172 -191v-396h-174v360q0 80 -66 80q-58 0 -83 -57v-383h-175z" />
    <glyph glyph-name="Eng" unicode="&#x14a;" horiz-adv-x="743" 
d="M448 -260l-54 136q48 22 67 48.5t24 75.5h-22l-128 248q-48 94 -97 232h-3q13 -105 13 -264v-216h-169v701h206l113 -223q72 -136 105 -233h3q-10 109 -10 295v161h167v-650q0 -37 -3 -66t-15.5 -69.5t-34.5 -70.5t-63.5 -59t-98.5 -46z" />
    <glyph glyph-name="eng" unicode="&#x14b;" horiz-adv-x="625" 
d="M389 587q173 0 172 -191v-345q0 -37 -3 -66t-15.5 -69.5t-34.5 -70.5t-63.5 -59t-98.5 -46l-54 136q58 27 76.5 62.5t18.5 118.5v303q0 38 -17 59t-49 21q-58 0 -83 -57v-383h-175v572h137l34 -52h4q56 67 151 67z" />
    <glyph glyph-name="Omacron" unicode="&#x14c;" horiz-adv-x="708" 
d="M194 758v137h319v-137h-319zM348 -10q-141 0 -216 83.5t-75 272.5q0 182 82.5 273.5t217.5 91.5q293 0 293 -357q0 -182 -83 -273t-219 -91zM358 135q54 0 82 48.5t28 163.5q0 220 -121 220q-109 0 -109 -210q0 -118 30.5 -170t89.5 -52z" />
    <glyph glyph-name="omacron" unicode="&#x14d;" horiz-adv-x="603" 
d="M142 630v137h319v-137h-319zM298 -12q-145 0 -205 76t-60 219q0 140 65.5 219.5t204.5 79.5q145 0 206 -76t61 -219q0 -139 -66.5 -219t-205.5 -80zM303 122q49 0 68.5 38t19.5 121q0 84 -21.5 125.5t-72.5 41.5q-85 0 -85 -159q0 -84 21 -125.5t70 -41.5z" />
    <glyph glyph-name="Obreve" unicode="&#x14e;" horiz-adv-x="708" 
d="M353 737q-147 0 -216 134l111 64q12 -30 38 -53t67 -23q74 0 107 76l110 -64q-34 -64 -84.5 -99t-132.5 -35zM348 -10q-141 0 -216 83.5t-75 272.5q0 182 82.5 273.5t217.5 91.5q293 0 293 -357q0 -182 -83 -273t-219 -91zM358 135q54 0 82 48.5t28 163.5q0 220 -121 220
q-109 0 -109 -210q0 -118 30.5 -170t89.5 -52z" />
    <glyph glyph-name="obreve" unicode="&#x14f;" horiz-adv-x="603" 
d="M301 609q-147 0 -216 134l111 64q12 -30 38 -53t67 -23q74 0 107 76l110 -64q-34 -64 -84.5 -99t-132.5 -35zM298 -12q-145 0 -205 76t-60 219q0 140 65.5 219.5t204.5 79.5q145 0 206 -76t61 -219q0 -139 -66.5 -219t-205.5 -80zM303 122q49 0 68.5 38t19.5 121
q0 84 -21.5 125.5t-72.5 41.5q-85 0 -85 -159q0 -84 21 -125.5t70 -41.5z" />
    <glyph glyph-name="Ohungarumlaut" unicode="&#x150;" horiz-adv-x="708" 
d="M209 712l-73 90l198 187l83 -107zM444 714l-48 107l242 129l54 -126zM348 -10q-141 0 -216 83.5t-75 272.5q0 182 82.5 273.5t217.5 91.5q293 0 293 -357q0 -182 -83 -273t-219 -91zM358 135q54 0 82 48.5t28 163.5q0 220 -121 220q-109 0 -109 -210q0 -118 30.5 -170
t89.5 -52z" />
    <glyph glyph-name="ohungarumlaut" unicode="&#x151;" horiz-adv-x="603" 
d="M131 584l-73 90l198 187l83 -107zM366 586l-48 107l242 129l54 -126zM298 -12q-145 0 -205 76t-60 219q0 140 65.5 219.5t204.5 79.5q145 0 206 -76t61 -219q0 -139 -66.5 -219t-205.5 -80zM303 122q49 0 68.5 38t19.5 121q0 84 -21.5 125.5t-72.5 41.5q-85 0 -85 -159
q0 -84 21 -125.5t70 -41.5z" />
    <glyph glyph-name="OE" unicode="&#x152;" horiz-adv-x="999" 
d="M669 144h272v-144h-419v50q-17 -23 -62.5 -41.5t-111.5 -18.5q-307 0 -307 356q0 182 88.5 273.5t229.5 91.5q118 0 163 -49v39h408v-143h-261v-130h223v-143h-223v-141zM361 135q123 0 123 212q0 220 -134 220q-128 0 -128 -210q0 -115 39 -168.5t100 -53.5z" />
    <glyph glyph-name="oe" unicode="&#x153;" horiz-adv-x="938" 
d="M298 -12q-145 0 -205 76t-60 219q0 299 268 299q113 0 171 -64h5q64 65 183 65q118 0 182.5 -64t64.5 -177q0 -30 -5.5 -62.5t-10.5 -39.5h-327q0 -2 0.5 -5t0.5 -4q21 -108 124 -108q35 0 62.5 10.5t40.5 21.5t28 28l88 -112q-80 -83 -236 -83q-127 0 -194 73h-4
q-61 -73 -176 -73zM565 356h172q-1 3 -1 12q0 86 -82 86q-37 0 -57 -22.5t-31 -65.5q0 -1 -0.5 -4.5t-0.5 -5.5zM306 122q50 0 67 36.5t17 120.5q0 85 -22 127t-73 42q-45 0 -64 -38.5t-19 -120.5q0 -167 94 -167z" />
    <glyph glyph-name="Racute" unicode="&#x154;" horiz-adv-x="619" 
d="M528 889l-249 -147l-88 75l188 160zM518 185l100 -185h-209l-113 229q-10 21 -45 23v-252h-174v701h244q122 0 184 -49.5t62 -159.5q0 -164 -144 -196v-4q29 -15 49.5 -38t45.5 -69zM298 389q53 0 72 22t19 67q0 80 -86 80h-52v-169h47z" />
    <glyph glyph-name="racute" unicode="&#x155;" horiz-adv-x="413" 
d="M135 614l-88 75l188 160l149 -88zM63 0v572h137l36 -90h4q38 103 148 103q24 0 46 -5v-171q-20 4 -66 4q-65 0 -132 -37v-376h-173z" />
    <glyph glyph-name="Rcommaaccent" unicode="&#x156;" horiz-adv-x="619" 
d="M518 185l100 -185h-209l-113 229q-10 21 -45 23v-252h-174v701h244q122 0 184 -49.5t62 -159.5q0 -164 -144 -196v-4q29 -15 49.5 -38t45.5 -69zM298 389q53 0 72 22t19 67q0 80 -86 80h-52v-169h47zM310 -28q46 0 72.5 -32t26.5 -79q0 -78 -51 -132.5t-118 -74.5l-25 52
q48 15 73.5 43.5t25.5 56.5q0 20 -16 37t-29 23.5t-40 18.5v5q0 35 21.5 58.5t59.5 23.5z" />
    <glyph glyph-name="rcommaaccent" unicode="&#x157;" horiz-adv-x="413" 
d="M63 0v572h137l36 -90h4q38 103 148 103q24 0 46 -5v-171q-20 4 -66 4q-65 0 -132 -37v-376h-173zM75 -346l-25 52q48 15 73.5 43.5t25.5 56.5q0 20 -16 37t-29 23.5t-40 18.5v5q0 35 21.5 58.5t59.5 23.5q46 0 72.5 -32t26.5 -79q0 -78 -51 -132.5t-118 -74.5z" />
    <glyph glyph-name="Rcaron" unicode="&#x158;" horiz-adv-x="619" 
d="M519 854l-211 -125l-208 125l57 102l151 -80l147 82zM518 185l100 -185h-209l-113 229q-10 21 -45 23v-252h-174v701h244q122 0 184 -49.5t62 -159.5q0 -164 -144 -196v-4q29 -15 49.5 -38t45.5 -69zM298 389q53 0 72 22t19 67q0 80 -86 80h-52v-169h47z" />
    <glyph glyph-name="rcaron" unicode="&#x159;" horiz-adv-x="413" 
d="M241 601l-208 125l57 102l151 -80l147 82l64 -104zM63 0v572h137l36 -90h4q38 103 148 103q24 0 46 -5v-171q-20 4 -66 4q-65 0 -132 -37v-376h-173z" />
    <glyph glyph-name="Sacute" unicode="&#x15a;" horiz-adv-x="586" 
d="M307 742l-88 75l188 160l149 -88zM275 -10q-94 0 -161.5 31.5t-88.5 59.5l99 146q81 -90 175 -90q35 0 53.5 15t18.5 38q0 26 -33 47t-80 40t-93.5 44t-79.5 70.5t-33 106.5q0 90 72.5 151.5t183.5 61.5q86 0 145.5 -31t78.5 -61l-110 -129q-8 14 -20.5 27.5t-42.5 28
t-66 14.5q-29 0 -45 -13.5t-16 -34.5q0 -26 33 -47t79.5 -40.5t93 -44t79.5 -70.5t33 -109q0 -85 -71.5 -148t-203.5 -63z" />
    <glyph glyph-name="sacute" unicode="&#x15b;" horiz-adv-x="503" 
d="M262 614l-88 75l188 160l149 -88zM244 -10q-89 0 -150 28t-91 62l103 118q22 -27 61.5 -50t86.5 -23q50 0 50 36q0 18 -27 32.5t-66 27.5t-78 32t-66 56.5t-27 90.5q0 75 60 128.5t158 53.5q147 0 218 -86l-112 -107q-47 55 -111 55q-16 0 -28 -9t-12 -23q0 -17 19.5 -30
t49 -22t63.5 -24t63.5 -33t49 -52t19.5 -79q0 -30 -12.5 -60.5t-38 -58.5t-73 -45.5t-109.5 -17.5z" />
    <glyph glyph-name="Scircumflex" unicode="&#x15c;" horiz-adv-x="586" 
d="M153 742l-57 102l208 126l211 -126l-64 -103l-147 81zM275 -10q-94 0 -161.5 31.5t-88.5 59.5l99 146q81 -90 175 -90q35 0 53.5 15t18.5 38q0 26 -33 47t-80 40t-93.5 44t-79.5 70.5t-33 106.5q0 90 72.5 151.5t183.5 61.5q86 0 145.5 -31t78.5 -61l-110 -129
q-8 14 -20.5 27.5t-42.5 28t-66 14.5q-29 0 -45 -13.5t-16 -34.5q0 -26 33 -47t79.5 -40.5t93 -44t79.5 -70.5t33 -109q0 -85 -71.5 -148t-203.5 -63z" />
    <glyph glyph-name="scircumflex" unicode="&#x15d;" horiz-adv-x="503" 
d="M101 614l-57 102l208 126l211 -126l-64 -103l-147 81zM244 -10q-89 0 -150 28t-91 62l103 118q22 -27 61.5 -50t86.5 -23q50 0 50 36q0 18 -27 32.5t-66 27.5t-78 32t-66 56.5t-27 90.5q0 75 60 128.5t158 53.5q147 0 218 -86l-112 -107q-47 55 -111 55q-16 0 -28 -9
t-12 -23q0 -17 19.5 -30t49 -22t63.5 -24t63.5 -33t49 -52t19.5 -79q0 -30 -12.5 -60.5t-38 -58.5t-73 -45.5t-109.5 -17.5z" />
    <glyph glyph-name="Scedilla" unicode="&#x15e;" horiz-adv-x="586" 
d="M275 -10q-94 0 -161.5 31.5t-88.5 59.5l99 146q81 -90 175 -90q35 0 53.5 15t18.5 38q0 26 -33 47t-80 40t-93.5 44t-79.5 70.5t-33 106.5q0 90 72.5 151.5t183.5 61.5q86 0 145.5 -31t78.5 -61l-110 -129q-8 14 -20.5 27.5t-42.5 28t-66 14.5q-29 0 -45 -13.5t-16 -34.5
q0 -26 33 -47t79.5 -40.5t93 -44t79.5 -70.5t33 -109q0 -85 -71.5 -148t-203.5 -63zM234 -269l-46 82q37 13 55.5 30t18.5 45q0 18 -9 34.5t-18 22.5v4h126q17 -25 17 -68q0 -116 -144 -150z" />
    <glyph glyph-name="scedilla" unicode="&#x15f;" horiz-adv-x="503" 
d="M244 -10q-89 0 -150 28t-91 62l103 118q22 -27 61.5 -50t86.5 -23q50 0 50 36q0 18 -27 32.5t-66 27.5t-78 32t-66 56.5t-27 90.5q0 75 60 128.5t158 53.5q147 0 218 -86l-112 -107q-47 55 -111 55q-16 0 -28 -9t-12 -23q0 -17 19.5 -30t49 -22t63.5 -24t63.5 -33t49 -52
t19.5 -79q0 -30 -12.5 -60.5t-38 -58.5t-73 -45.5t-109.5 -17.5zM194 -269l-46 82q37 13 55.5 30t18.5 45q0 18 -9 34.5t-18 22.5v4h126q17 -25 17 -68q0 -116 -144 -150z" />
    <glyph glyph-name="Scaron" unicode="&#x160;" horiz-adv-x="586" 
d="M299 729l-208 125l57 102l151 -80l147 82l64 -104zM275 -10q-94 0 -161.5 31.5t-88.5 59.5l99 146q81 -90 175 -90q35 0 53.5 15t18.5 38q0 26 -33 47t-80 40t-93.5 44t-79.5 70.5t-33 106.5q0 90 72.5 151.5t183.5 61.5q86 0 145.5 -31t78.5 -61l-110 -129
q-8 14 -20.5 27.5t-42.5 28t-66 14.5q-29 0 -45 -13.5t-16 -34.5q0 -26 33 -47t79.5 -40.5t93 -44t79.5 -70.5t33 -109q0 -85 -71.5 -148t-203.5 -63z" />
    <glyph glyph-name="scaron" unicode="&#x161;" horiz-adv-x="503" 
d="M251 601l-208 125l57 102l151 -80l147 82l64 -104zM244 -10q-89 0 -150 28t-91 62l103 118q22 -27 61.5 -50t86.5 -23q50 0 50 36q0 18 -27 32.5t-66 27.5t-78 32t-66 56.5t-27 90.5q0 75 60 128.5t158 53.5q147 0 218 -86l-112 -107q-47 55 -111 55q-16 0 -28 -9
t-12 -23q0 -17 19.5 -30t49 -22t63.5 -24t63.5 -33t49 -52t19.5 -79q0 -30 -12.5 -60.5t-38 -58.5t-73 -45.5t-109.5 -17.5z" />
    <glyph glyph-name="uni0162" unicode="&#x162;" horiz-adv-x="517" 
d="M170 0v558h-170v143h516v-143h-170v-558h-176zM188 -269l-46 82q37 13 55.5 30t18.5 45q0 18 -9 34.5t-18 22.5v4h126q17 -25 17 -68q0 -116 -144 -150z" />
    <glyph glyph-name="uni0163" unicode="&#x163;" horiz-adv-x="409" 
d="M250 -5q-176 0 -176 198v247h-69v108l70 35l61 130h110v-141h138v-132h-138v-254q0 -50 52 -50q42 0 75 26l45 -129q-52 -38 -168 -38zM143 -269l-46 82q37 13 55.5 30t18.5 45q0 18 -9 34.5t-18 22.5v4h126q17 -25 17 -68q0 -116 -144 -150z" />
    <glyph glyph-name="Tcaron" unicode="&#x164;" horiz-adv-x="517" 
d="M257 729l-208 125l57 102l151 -80l147 82l64 -104zM170 0v558h-170v143h516v-143h-170v-558h-176z" />
    <glyph glyph-name="tcaron" unicode="&#x165;" horiz-adv-x="420" 
d="M313 635l-44 60q93 43 93 100q0 47 -59 65v13q0 32 22 54t57 22q44 0 69 -29.5t25 -74.5q0 -70 -48.5 -129t-114.5 -81zM250 -5q-176 0 -176 198v247h-69v108l70 35l61 130h110v-141h138v-132h-138v-254q0 -50 52 -50q42 0 75 26l45 -129q-52 -38 -168 -38z" />
    <glyph glyph-name="Tbar" unicode="&#x166;" horiz-adv-x="523" 
d="M519 558h-170v-146h104v-130h-104v-282h-176v282h-103v130h103v146h-170v143h516v-143z" />
    <glyph glyph-name="tbar" unicode="&#x167;" horiz-adv-x="409" 
d="M373 162l45 -129q-52 -38 -168 -38q-176 0 -176 198v39h-69v108l69 34v66h-69v108l70 35l61 130h110v-141h138v-132h-138v-77h127v-131h-127v-46q0 -50 52 -50q42 0 75 26z" />
    <glyph glyph-name="Utilde" unicode="&#x168;" horiz-adv-x="705" 
d="M205 755l-68 98q16 29 48.5 53.5t72.5 24.5q35 0 88.5 -21.5t75.5 -21.5q26 0 41.5 9.5t37.5 38.5l67 -97q-17 -29 -49.5 -53t-72.5 -24q-31 0 -88.5 21t-74.5 21q-48 0 -78 -49zM335 -10q-133 0 -197 71t-64 186v454h176v-419q0 -73 24.5 -109.5t85.5 -36.5
q49 0 72 29.5t23 94.5v441h176v-415q0 -82 -24 -141.5t-66.5 -92.5t-93 -47.5t-112.5 -14.5z" />
    <glyph glyph-name="utilde" unicode="&#x169;" horiz-adv-x="628" 
d="M167 627l-68 98q16 29 48.5 53.5t72.5 24.5q35 0 88.5 -21.5t75.5 -21.5q26 0 41.5 9.5t37.5 38.5l67 -97q-17 -29 -49.5 -53t-72.5 -24q-31 0 -88.5 21t-74.5 21q-48 0 -78 -49zM241 -11q-93 0 -136.5 49t-42.5 153v381h174v-368q0 -40 18.5 -61t50.5 -21q27 0 46 13
t27.5 24.5t11.5 10.5v402h175v-572h-150l-23 51h-4q-51 -62 -147 -62z" />
    <glyph glyph-name="Umacron" unicode="&#x16a;" horiz-adv-x="705" 
d="M193 758v137h319v-137h-319zM335 -10q-133 0 -197 71t-64 186v454h176v-419q0 -73 24.5 -109.5t85.5 -36.5q49 0 72 29.5t23 94.5v441h176v-415q0 -82 -24 -141.5t-66.5 -92.5t-93 -47.5t-112.5 -14.5z" />
    <glyph glyph-name="umacron" unicode="&#x16b;" horiz-adv-x="628" 
d="M154 630v137h319v-137h-319zM241 -11q-93 0 -136.5 49t-42.5 153v381h174v-368q0 -40 18.5 -61t50.5 -21q27 0 46 13t27.5 24.5t11.5 10.5v402h175v-572h-150l-23 51h-4q-51 -62 -147 -62z" />
    <glyph glyph-name="Ubreve" unicode="&#x16c;" horiz-adv-x="705" 
d="M352 737q-147 0 -216 134l111 64q12 -30 38 -53t67 -23q74 0 107 76l110 -64q-34 -64 -84.5 -99t-132.5 -35zM335 -10q-133 0 -197 71t-64 186v454h176v-419q0 -73 24.5 -109.5t85.5 -36.5q49 0 72 29.5t23 94.5v441h176v-415q0 -82 -24 -141.5t-66.5 -92.5t-93 -47.5
t-112.5 -14.5z" />
    <glyph glyph-name="ubreve" unicode="&#x16d;" horiz-adv-x="628" 
d="M313 609q-147 0 -216 134l111 64q12 -30 38 -53t67 -23q74 0 107 76l110 -64q-34 -64 -84.5 -99t-132.5 -35zM241 -11q-93 0 -136.5 49t-42.5 153v381h174v-368q0 -40 18.5 -61t50.5 -21q27 0 46 13t27.5 24.5t11.5 10.5v402h175v-572h-150l-23 51h-4q-51 -62 -147 -62z
" />
    <glyph glyph-name="Uring" unicode="&#x16e;" horiz-adv-x="705" 
d="M351 709q-63 0 -100 36t-37 92q0 57 38 95.5t101 38.5t100.5 -35.5t37.5 -92.5q0 -56 -38.5 -95t-101.5 -39zM351 790q53 0 53 49q0 52 -52 52q-51 0 -51 -50q0 -51 50 -51zM335 -10q-133 0 -197 71t-64 186v454h176v-419q0 -73 24.5 -109.5t85.5 -36.5q49 0 72 29.5
t23 94.5v441h176v-415q0 -82 -24 -141.5t-66.5 -92.5t-93 -47.5t-112.5 -14.5z" />
    <glyph glyph-name="uring" unicode="&#x16f;" horiz-adv-x="628" 
d="M313 581q-63 0 -100 36t-37 92q0 57 38 95.5t101 38.5t100.5 -35.5t37.5 -92.5q0 -56 -38.5 -95t-101.5 -39zM313 662q53 0 53 49q0 52 -52 52q-51 0 -51 -50q0 -51 50 -51zM241 -11q-93 0 -136.5 49t-42.5 153v381h174v-368q0 -40 18.5 -61t50.5 -21q27 0 46 13
t27.5 24.5t11.5 10.5v402h175v-572h-150l-23 51h-4q-51 -62 -147 -62z" />
    <glyph glyph-name="Uhungarumlaut" unicode="&#x170;" horiz-adv-x="705" 
d="M227 712l-73 90l198 187l83 -107zM462 714l-48 107l242 129l54 -126zM335 -10q-133 0 -197 71t-64 186v454h176v-419q0 -73 24.5 -109.5t85.5 -36.5q49 0 72 29.5t23 94.5v441h176v-415q0 -82 -24 -141.5t-66.5 -92.5t-93 -47.5t-112.5 -14.5z" />
    <glyph glyph-name="uhungarumlaut" unicode="&#x171;" horiz-adv-x="628" 
d="M164 584l-73 90l198 187l83 -107zM399 586l-48 107l242 129l54 -126zM241 -11q-93 0 -136.5 49t-42.5 153v381h174v-368q0 -40 18.5 -61t50.5 -21q27 0 46 13t27.5 24.5t11.5 10.5v402h175v-572h-150l-23 51h-4q-51 -62 -147 -62z" />
    <glyph glyph-name="Uogonek" unicode="&#x172;" horiz-adv-x="705" 
d="M455 701h176v-415q0 -212 -159 -274q-122 -70 -122 -123q0 -37 36 -37q31 0 66 20l33 -94q-48 -29 -118 -29q-73 0 -107.5 33.5t-34.5 86.5q0 67 55 125q-105 14 -155.5 82.5t-50.5 170.5v454h176v-419q0 -73 24.5 -109.5t85.5 -36.5q49 0 72 29.5t23 94.5v441z" />
    <glyph glyph-name="uogonek" unicode="&#x173;" horiz-adv-x="628" 
d="M541 -143l33 -94q-48 -29 -118 -29q-73 0 -107.5 33.5t-34.5 86.5q0 88 95 160l-17 37h-4q-51 -62 -147 -62q-93 0 -136.5 49t-42.5 153v381h174v-368q0 -40 18.5 -61t50.5 -21q27 0 46 13t27.5 24.5t11.5 10.5v402h175v-572q-126 -72 -126 -126q0 -37 36 -37q31 0 66 20
z" />
    <glyph glyph-name="Wcircumflex" unicode="&#x174;" horiz-adv-x="974" 
d="M334 742l-57 102l208 126l211 -126l-64 -103l-147 81zM184 0l-178 701h191l56 -235q40 -166 40 -265h4q5 65 31 190l64 310h201l68 -307q26 -112 33 -190h4q5 104 38 242l56 255h175l-178 -701h-201l-57 268q-31 134 -39 230h-4q-13 -111 -32 -190l-71 -308h-201z" />
    <glyph glyph-name="wcircumflex" unicode="&#x175;" horiz-adv-x="852" 
d="M274 614l-57 102l208 126l211 -126l-64 -103l-147 81zM149 0l-147 572h173l55 -249q20 -96 25 -176h4q7 90 30 181l66 244h158l55 -238q29 -120 30 -187h4q6 75 31 182l55 243h153l-147 -572h-198l-64 351h-4l-84 -351h-195z" />
    <glyph glyph-name="Ycircumflex" unicode="&#x176;" horiz-adv-x="654" 
d="M175 742l-57 102l208 126l211 -126l-64 -103l-147 81zM239 0v216l-237 485h195l131 -309h4l135 309h186l-238 -485v-216h-176z" />
    <glyph glyph-name="ycircumflex" unicode="&#x177;" horiz-adv-x="560" 
d="M128 614l-57 102l208 126l211 -126l-64 -103l-147 81zM146 -214q-66 0 -102 19l29 141q27 -15 64 -15q38 0 59.5 20.5t20.5 57.5l-217 563h196l55 -168q38 -121 46 -197h4q18 119 38 197l43 168h180l-190 -597q-27 -86 -79 -137.5t-147 -51.5z" />
    <glyph glyph-name="Ydieresis" unicode="&#x178;" horiz-adv-x="654" 
d="M193 759q-39 0 -64.5 25.5t-25.5 62.5t25.5 63t64.5 26t64.5 -26t25.5 -63t-25.5 -62.5t-64.5 -25.5zM461 759q-38 0 -63.5 25.5t-25.5 62.5t25.5 63t63.5 26q39 0 64.5 -26t25.5 -63t-25.5 -62.5t-64.5 -25.5zM239 0v216l-237 485h195l131 -309h4l135 309h186l-238 -485
v-216h-176z" />
    <glyph glyph-name="Zacute" unicode="&#x179;" horiz-adv-x="569" 
d="M292 742l-88 75l188 160l149 -88zM45 0l-23 135l296 415v4h-261v147h452l24 -135l-293 -415v-4h296v-147h-491z" />
    <glyph glyph-name="zacute" unicode="&#x17a;" horiz-adv-x="524" 
d="M262 614l-88 75l188 160l149 -88zM61 0l-22 124l232 306v4h-220v138h407l21 -126l-227 -304v-4h242v-138h-433z" />
    <glyph glyph-name="Zdotaccent" unicode="&#x17b;" horiz-adv-x="569" 
d="M284 755q-44 0 -73.5 29.5t-29.5 72.5t29.5 72t73.5 29q45 0 74 -29t29 -72t-29 -72.5t-74 -29.5zM45 0l-23 135l296 415v4h-261v147h452l24 -135l-293 -415v-4h296v-147h-491z" />
    <glyph glyph-name="zdotaccent" unicode="&#x17c;" horiz-adv-x="524" 
d="M262 627q-44 0 -73.5 29.5t-29.5 72.5t29.5 72t73.5 29q45 0 74 -29t29 -72t-29 -72.5t-74 -29.5zM61 0l-22 124l232 306v4h-220v138h407l21 -126l-227 -304v-4h242v-138h-433z" />
    <glyph glyph-name="Zcaron" unicode="&#x17d;" horiz-adv-x="569" 
d="M283 729l-208 125l57 102l151 -80l147 82l64 -104zM45 0l-23 135l296 415v4h-261v147h452l24 -135l-293 -415v-4h296v-147h-491z" />
    <glyph glyph-name="zcaron" unicode="&#x17e;" horiz-adv-x="524" 
d="M261 601l-208 125l57 102l151 -80l147 82l64 -104zM61 0l-22 124l232 306v4h-220v138h407l21 -126l-227 -304v-4h242v-138h-433z" />
    <glyph glyph-name="longs" unicode="&#x17f;" horiz-adv-x="401" 
d="M96 0v598q0 80 54.5 134.5t161.5 54.5q50 0 86 -7l-21 -140q-32 7 -55 7q-28 0 -40 -13t-12 -41v-593h-174z" />
    <glyph glyph-name="florin" unicode="&#x192;" horiz-adv-x="582" 
d="M75 -204q-102 0 -150 31l58 147q46 -36 89 -36q19 0 30 2t23.5 10t20 26.5t10.5 47.5l37 271h-104v129h120l7 52q15 112 85 168.5t162 56.5q105 0 150 -29l-55 -143q-41 30 -88 30q-38 0 -56 -15t-25 -70l-6 -50h118v-129h-134l-38 -273q-15 -111 -88.5 -168.5
t-165.5 -57.5z" />
    <glyph glyph-name="Scommaaccent" unicode="&#x218;" horiz-adv-x="586" 
d="M275 -10q-94 0 -161.5 31.5t-88.5 59.5l99 146q81 -90 175 -90q35 0 53.5 15t18.5 38q0 26 -33 47t-80 40t-93.5 44t-79.5 70.5t-33 106.5q0 90 72.5 151.5t183.5 61.5q86 0 145.5 -31t78.5 -61l-110 -129q-8 14 -20.5 27.5t-42.5 28t-66 14.5q-29 0 -45 -13.5t-16 -34.5
q0 -26 33 -47t79.5 -40.5t93 -44t79.5 -70.5t33 -109q0 -85 -71.5 -148t-203.5 -63zM226 -346l-25 52q49 15 74.5 43.5t25.5 56.5q0 15 -7 27.5t-23 23t-25.5 15t-30.5 13.5v5q0 34 22 58t60 24q46 0 72.5 -32t26.5 -79q0 -78 -51 -132.5t-119 -74.5z" />
    <glyph glyph-name="scommaaccent" unicode="&#x219;" horiz-adv-x="503" 
d="M244 -10q-89 0 -150 28t-91 62l103 118q22 -27 61.5 -50t86.5 -23q50 0 50 36q0 18 -27 32.5t-66 27.5t-78 32t-66 56.5t-27 90.5q0 75 60 128.5t158 53.5q147 0 218 -86l-112 -107q-47 55 -111 55q-16 0 -28 -9t-12 -23q0 -17 19.5 -30t49 -22t63.5 -24t63.5 -33t49 -52
t19.5 -79q0 -30 -12.5 -60.5t-38 -58.5t-73 -45.5t-109.5 -17.5zM178 -346l-25 52q48 15 73.5 43.5t25.5 56.5q0 15 -7 27.5t-23 23t-25.5 15t-30.5 13.5v5q0 34 22 58t60 24q46 0 72.5 -32t26.5 -79q0 -78 -51 -132.5t-118 -74.5z" />
    <glyph glyph-name="uni021A" unicode="&#x21a;" horiz-adv-x="517" 
d="M170 0v558h-170v143h516v-143h-170v-558h-176zM183 -346l-25 52q49 15 74.5 43.5t25.5 56.5q0 15 -7 27.5t-23 23t-25.5 15t-30.5 13.5v5q0 34 22 58t60 24q46 0 72.5 -32t26.5 -79q0 -78 -51 -132.5t-119 -74.5z" />
    <glyph glyph-name="uni021B" unicode="&#x21b;" horiz-adv-x="409" 
d="M250 -5q-176 0 -176 198v247h-69v108l70 35l61 130h110v-141h138v-132h-138v-254q0 -50 52 -50q42 0 75 26l45 -129q-52 -38 -168 -38zM131 -346l-25 52q48 15 73.5 43.5t25.5 56.5q0 20 -16 37t-29 23.5t-40 18.5v5q0 35 21.5 58.5t59.5 23.5q46 0 72.5 -32t26.5 -79
q0 -78 -51 -132.5t-118 -74.5z" />
    <glyph glyph-name="uni0237" unicode="&#x237;" horiz-adv-x="300" 
d="M24 -260l-55 136q58 27 76.5 62.5t18.5 118.5v515h175v-521q0 -37 -3 -66.5t-16 -69t-34.5 -70t-63 -59.5t-98.5 -46z" />
    <glyph glyph-name="apostrophe" unicode="&#x2bc;" horiz-adv-x="303" 
d="M65 379l-54 75q115 52 115 123q0 58 -73 80v16q0 39 27 66.5t71 27.5q54 0 84.5 -36.5t30.5 -92.5q0 -86 -59.5 -159t-141.5 -100z" />
    <glyph glyph-name="circumflex" unicode="&#x2c6;" horiz-adv-x="510" 
d="M102 614l-57 102l208 126l211 -126l-64 -103l-147 81z" />
    <glyph glyph-name="caron" unicode="&#x2c7;" horiz-adv-x="510" 
d="M253 601l-208 125l57 102l151 -80l147 82l64 -104z" />
    <glyph glyph-name="breve" unicode="&#x2d8;" horiz-adv-x="510" 
d="M255 609q-147 0 -216 134l111 64q12 -30 38 -53t67 -23q74 0 107 76l110 -64q-34 -64 -84.5 -99t-132.5 -35z" />
    <glyph glyph-name="dotaccent" unicode="&#x2d9;" horiz-adv-x="510" 
d="M255 627q-44 0 -73.5 29.5t-29.5 72.5t29.5 72t73.5 29q45 0 74 -29t29 -72t-29 -72.5t-74 -29.5z" />
    <glyph glyph-name="ring" unicode="&#x2da;" horiz-adv-x="510" 
d="M253 581q-63 0 -100 36t-37 92q0 57 38 95.5t101 38.5t100.5 -35.5t37.5 -92.5q0 -56 -38.5 -95t-101.5 -39zM253 662q53 0 53 49q0 52 -52 52q-51 0 -51 -50q0 -51 50 -51z" />
    <glyph glyph-name="ogonek" unicode="&#x2db;" horiz-adv-x="510" 
d="M267 -251q-73 0 -107.5 33.5t-34.5 86.5q0 42 21 80t55 65t63 44t57 29l55 -72q-126 -72 -126 -126q0 -37 36 -37q31 0 66 20l33 -94q-48 -29 -118 -29z" />
    <glyph glyph-name="tilde" unicode="&#x2dc;" horiz-adv-x="510" 
d="M107 627l-68 98q16 29 48.5 53.5t72.5 24.5q35 0 88.5 -21.5t75.5 -21.5q26 0 41.5 9.5t37.5 38.5l67 -97q-17 -29 -49.5 -53t-72.5 -24q-31 0 -88.5 21t-74.5 21q-48 0 -78 -49z" />
    <glyph glyph-name="hungarumlaut" unicode="&#x2dd;" horiz-adv-x="510" 
d="M50 584l-73 90l198 187l83 -107zM285 586l-48 107l242 129l54 -126z" />
    <glyph glyph-name="pi" unicode="&#x3c0;" horiz-adv-x="658" 
d="M202 -16l-146 84q18 24 26 40t15 48.5t7 79.5v190h-79v144h591v-144h-79v-426h-172v426h-91v-194q0 -164 -72 -248z" />
    <glyph glyph-name="Wgrave" unicode="&#x1e80;" horiz-adv-x="974" 
d="M490 742l-249 147l149 88l188 -160zM184 0l-178 701h191l56 -235q40 -166 40 -265h4q5 65 31 190l64 310h201l68 -307q26 -112 33 -190h4q5 104 38 242l56 255h175l-178 -701h-201l-57 268q-31 134 -39 230h-4q-13 -111 -32 -190l-71 -308h-201z" />
    <glyph glyph-name="wgrave" unicode="&#x1e81;" horiz-adv-x="852" 
d="M434 614l-249 147l149 88l188 -160zM149 0l-147 572h173l55 -249q20 -96 25 -176h4q7 90 30 181l66 244h158l55 -238q29 -120 30 -187h4q6 75 31 182l55 243h153l-147 -572h-198l-64 351h-4l-84 -351h-195z" />
    <glyph glyph-name="Wacute" unicode="&#x1e82;" horiz-adv-x="974" 
d="M480 742l-88 75l188 160l149 -88zM184 0l-178 701h191l56 -235q40 -166 40 -265h4q5 65 31 190l64 310h201l68 -307q26 -112 33 -190h4q5 104 38 242l56 255h175l-178 -701h-201l-57 268q-31 134 -39 230h-4q-13 -111 -32 -190l-71 -308h-201z" />
    <glyph glyph-name="wacute" unicode="&#x1e83;" horiz-adv-x="852" 
d="M420 614l-88 75l188 160l149 -88zM149 0l-147 572h173l55 -249q20 -96 25 -176h4q7 90 30 181l66 244h158l55 -238q29 -120 30 -187h4q6 75 31 182l55 243h153l-147 -572h-198l-64 351h-4l-84 -351h-195z" />
    <glyph glyph-name="Wdieresis" unicode="&#x1e84;" horiz-adv-x="974" 
d="M353 759q-39 0 -64.5 25.5t-25.5 62.5t25.5 63t64.5 26t64.5 -26t25.5 -63t-25.5 -62.5t-64.5 -25.5zM621 759q-38 0 -63.5 25.5t-25.5 62.5t25.5 63t63.5 26q39 0 64.5 -26t25.5 -63t-25.5 -62.5t-64.5 -25.5zM184 0l-178 701h191l56 -235q40 -166 40 -265h4
q5 65 31 190l64 310h201l68 -307q26 -112 33 -190h4q5 104 38 242l56 255h175l-178 -701h-201l-57 268q-31 134 -39 230h-4q-13 -111 -32 -190l-71 -308h-201z" />
    <glyph glyph-name="wdieresis" unicode="&#x1e85;" horiz-adv-x="852" 
d="M292 631q-39 0 -64.5 25.5t-25.5 62.5t25.5 63t64.5 26t64.5 -26t25.5 -63t-25.5 -62.5t-64.5 -25.5zM560 631q-38 0 -63.5 25.5t-25.5 62.5t25.5 63t63.5 26q39 0 64.5 -26t25.5 -63t-25.5 -62.5t-64.5 -25.5zM149 0l-147 572h173l55 -249q20 -96 25 -176h4q7 90 30 181
l66 244h158l55 -238q29 -120 30 -187h4q6 75 31 182l55 243h153l-147 -572h-198l-64 351h-4l-84 -351h-195z" />
    <glyph glyph-name="Ygrave" unicode="&#x1ef2;" horiz-adv-x="654" 
d="M317 742l-249 147l149 88l188 -160zM239 0v216l-237 485h195l131 -309h4l135 309h186l-238 -485v-216h-176z" />
    <glyph glyph-name="ygrave" unicode="&#x1ef3;" horiz-adv-x="560" 
d="M291 614l-249 147l149 88l188 -160zM146 -214q-66 0 -102 19l29 141q27 -15 64 -15q38 0 59.5 20.5t20.5 57.5l-217 563h196l55 -168q38 -121 46 -197h4q18 119 38 197l43 168h180l-190 -597q-27 -86 -79 -137.5t-147 -51.5z" />
    <glyph glyph-name="endash" unicode="&#x2013;" horiz-adv-x="508" 
d="M5 259v137h498v-137h-498z" />
    <glyph glyph-name="emdash" unicode="&#x2014;" horiz-adv-x="804" 
d="M5 259v137h794v-137h-794z" />
    <glyph glyph-name="quoteleft" unicode="&#x2018;" horiz-adv-x="303" 
d="M155 378q-54 0 -84.5 36.5t-30.5 92.5q0 86 59.5 159t141.5 100l54 -75q-115 -52 -115 -123q0 -58 73 -80v-16q0 -39 -27 -66.5t-71 -27.5z" />
    <glyph glyph-name="quoteright" unicode="&#x2019;" horiz-adv-x="303" 
d="M65 379l-54 75q115 52 115 123q0 58 -73 80v16q0 39 27 66.5t71 27.5q54 0 84.5 -36.5t30.5 -92.5q0 -86 -59.5 -159t-141.5 -100z" />
    <glyph glyph-name="quotesinglbase" unicode="&#x201a;" horiz-adv-x="312" 
d="M69 -193l-54 76q115 50 115 123q0 58 -73 79v16q0 39 27 66.5t71 27.5q54 0 84.5 -36.5t30.5 -91.5q0 -86 -59.5 -159.5t-141.5 -100.5z" />
    <glyph glyph-name="quotedblleft" unicode="&#x201c;" horiz-adv-x="585" 
d="M155 378q-54 0 -84.5 36.5t-30.5 92.5q0 86 59.5 159t141.5 100l54 -75q-115 -52 -115 -123q0 -58 73 -80v-16q0 -39 -27 -66.5t-71 -27.5zM437 378q-54 0 -85 36.5t-31 92.5q0 86 59.5 159t142.5 100l53 -75q-114 -52 -114 -123q0 -58 72 -80v-16q0 -39 -27 -66.5
t-70 -27.5z" />
    <glyph glyph-name="quotedblright" unicode="&#x201d;" horiz-adv-x="585" 
d="M65 379l-54 76q115 50 115 123q0 58 -73 79v16q0 39 27 66.5t71 27.5q54 0 84.5 -36.5t30.5 -91.5q0 -86 -59.5 -159.5t-141.5 -100.5zM346 379l-54 76q115 50 115 123q0 59 -73 79v16q0 39 27 66.5t71 27.5q54 0 84.5 -36.5t30.5 -91.5q0 -86 -59 -159.5t-142 -100.5z
" />
    <glyph glyph-name="quotedblbase" unicode="&#x201e;" horiz-adv-x="592" 
d="M66 -193l-54 76q115 50 115 123q0 59 -73 79v16q0 39 27 66.5t71 27.5q54 0 84.5 -36.5t30.5 -91.5q0 -86 -59 -159.5t-142 -100.5zM347 -193l-54 76q115 50 115 123q0 59 -73 79v16q0 39 27 66.5t71 27.5q54 0 84.5 -36.5t30.5 -91.5q0 -86 -59 -159.5t-142 -100.5z" />
    <glyph glyph-name="dagger" unicode="&#x2020;" horiz-adv-x="565" 
d="M192 -199l17 631l-162 -12v150l162 -9l-15 202h176l-15 -202l163 9v-150l-163 13l16 -632h-179z" />
    <glyph glyph-name="daggerdbl" unicode="&#x2021;" horiz-adv-x="566" 
d="M195 -199l15 203l-163 -9v150l157 -9l2 147l-2 145l-156 -8v150l163 -9l-16 202h177l-16 -202l164 9v-150l-158 9l-2 -145l2 -147l156 8v-150l-162 9l15 -203h-176z" />
    <glyph glyph-name="bullet" unicode="&#x2022;" horiz-adv-x="477" 
d="M239 218q-63 0 -98.5 37t-35.5 94q0 55 38 92.5t95 37.5q62 0 98 -37t36 -93q0 -55 -37.5 -93t-95.5 -38z" />
    <glyph glyph-name="ellipsis" unicode="&#x2026;" horiz-adv-x="931" 
d="M157 -12q-45 0 -76.5 31.5t-31.5 76.5q0 48 31.5 80.5t76.5 32.5q48 0 80 -32t32 -81q0 -45 -32 -76.5t-80 -31.5zM464 -12q-46 0 -77.5 31.5t-31.5 76.5q0 48 31.5 80.5t77.5 32.5q48 0 80 -32t32 -81q0 -45 -32 -76.5t-80 -31.5zM770 -12q-45 0 -76.5 31.5t-31.5 76.5
q0 48 31.5 80.5t76.5 32.5q48 0 80 -32t32 -81q0 -45 -32 -76.5t-80 -31.5z" />
    <glyph glyph-name="perthousand" unicode="&#x2030;" horiz-adv-x="1302" 
d="M214 332q-87 0 -130.5 46t-43.5 143q0 92 47.5 142t133.5 50q174 0 174 -185q0 -97 -47 -146.5t-134 -49.5zM186 32l-69 70l607 577l70 -70zM218 426q30 0 41.5 22.5t11.5 73.5q0 97 -57 97q-50 0 -50 -97q0 -96 54 -96zM678 -9q-87 0 -130.5 46t-43.5 143q0 92 47.5 142
t133.5 50q174 0 174 -185q0 -97 -47 -146.5t-134 -49.5zM1081 -9q-87 0 -130.5 46t-43.5 143q0 92 47.5 142t133.5 50q174 0 174 -185q0 -97 -47 -146.5t-134 -49.5zM683 85q29 0 41 22.5t12 73.5q0 97 -57 97q-51 0 -51 -97q0 -96 55 -96zM1086 85q29 0 41 22.5t12 73.5
q0 97 -57 97q-51 0 -51 -97q0 -96 55 -96z" />
    <glyph glyph-name="guilsinglleft" unicode="&#x2039;" horiz-adv-x="378" 
d="M250 15l-217 272l217 273l108 -86l-150 -187l150 -185z" />
    <glyph glyph-name="guilsinglright" unicode="&#x203a;" horiz-adv-x="378" 
d="M140 15l-107 87l149 185l-149 187l107 86l218 -273z" />
    <glyph glyph-name="fraction" unicode="&#x2044;" horiz-adv-x="185" 
d="M-61 -23l-84 44l393 696l83 -44z" />
    <glyph glyph-name="uni20A8" unicode="&#x20a8;" horiz-adv-x="1135" 
d="M423 292q29 -15 49.5 -38t45.5 -69l100 -185h-209l-113 229q-10 21 -45 23v-252h-174v701h244q122 0 184 -49.5t62 -159.5q0 -164 -144 -196v-4zM841 412q0 -17 19.5 -30t49 -22t63.5 -24t63.5 -33t49 -52t19.5 -79q0 -30 -12.5 -60.5t-38 -58.5t-73 -45.5t-109.5 -17.5
q-89 0 -150 28t-91 62l103 118q22 -27 61.5 -50t86.5 -23q50 0 50 36q0 18 -27 32.5t-66 27.5t-78 32t-66 56.5t-27 90.5q0 75 60 128.5t158 53.5q147 0 218 -86l-112 -107q-47 55 -111 55q-16 0 -28 -9t-12 -23zM298 389q53 0 72 22t19 67q0 80 -86 80h-52v-169h47z" />
    <glyph glyph-name="Euro" unicode="&#x20ac;" horiz-adv-x="622" 
d="M390 -11q-125 0 -192.5 57t-92.5 165h-70v118h59v41h-59v118h74q61 226 292 226q42 0 78.5 -8t57 -16t42.5 -24.5t26.5 -21.5t18.5 -20l-115 -129q-1 1 -7.5 9.5t-8 10.5t-8 9.5t-10 10t-10.5 8.5t-12 8.5l-13 6.5t-16 5.5t-17.5 3t-20.5 1.5q-92 0 -119 -80h208
l-36 -118h-182q1 -6 1 -15q0 -18 1 -26h169l-30 -118h-122q30 -75 129 -75q29 0 54 13.5t36 25.5t26 32l94 -128q-71 -90 -225 -90z" />
    <glyph glyph-name="uni20B9" unicode="&#x20b9;" horiz-adv-x="568" 
d="M249 0l-105 128q-71 78 -117 101v130q37 -10 80 -10q57 0 87.5 12.5t52.5 38.5q-48 -4 -189 -4h-31v112h36q88 0 192 -4q-13 40 -44 56.5t-103 16.5h-81v112h534v-112h-192v-4q33 -23 51 -65h141v-112h-136q-17 -71 -74.5 -107.5t-115.5 -35.5h-13v-4q23 -14 47.5 -37
t37 -37t41.5 -48l108 -127h-207z" />
    <glyph glyph-name="trademark" unicode="&#x2122;" horiz-adv-x="681" 
d="M10 625v76h259v-76h-78v-206h-93v206h-88zM529 701h113v-281h-85v76q0 83 7 104h-4l-50 -147h-67l-50 148h-3q5 -30 5 -90v-91h-85v281h112l56 -163z" />
    <glyph glyph-name="uni2126" unicode="&#x2126;" horiz-adv-x="801" 
d="M65 0v146l130 -9v4q-44 35 -70 94.5t-26 129.5q0 167 80.5 255.5t231.5 88.5q150 0 227 -85.5t77 -252.5q0 -69 -30.5 -135t-68.5 -95v-4l133 9v-146h-300v158q28 13 44 30t28 60t12 112q0 110 -32 160t-96 50q-65 0 -94.5 -46.5t-29.5 -157.5q0 -102 21.5 -145.5
t63.5 -62.5v-158h-301z" />
    <glyph glyph-name="estimated" unicode="&#x212e;" horiz-adv-x="707" 
d="M359 -10q-137 0 -217.5 83.5t-80.5 211.5q0 126 81 212t215 86q118 0 196.5 -71.5t78.5 -194.5q0 -30 -2 -52h-387v-142q41 -39 119 -39q121 0 182 92l77 -51q-83 -135 -262 -135zM243 349h226v110q-13 15 -43 25.5t-65 10.5q-85 0 -118 -41v-105z" />
    <glyph glyph-name="partialdiff" unicode="&#x2202;" horiz-adv-x="560" 
d="M278 704q39 -17 79 -52.5t76 -86t59 -120t23 -144.5q0 -153 -68 -232t-179 -79q-236 0 -236 219q0 113 64 180.5t154 67.5q40 0 78 -12q-27 72 -123.5 148t-161.5 100v11h235zM269 127q49 0 69 30.5t20 103.5q0 34 -2 58q-60 6 -74 6q-46 0 -69 -22.5t-23 -77.5
q0 -98 79 -98z" />
    <glyph glyph-name="uni2206" unicode="&#x2206;" horiz-adv-x="667" 
d="M79 0l-63 97l254 604h143l239 -605l-61 -96h-512zM193 146h274l-41 86l-35 93l-54 176h-4l-58 -176l-38 -95z" />
    <glyph glyph-name="product" unicode="&#x220f;" horiz-adv-x="684" 
d="M190 -165l-144 84q18 25 26 40t15 47t7 80v615h497v-850h-168v707h-161v-477q0 -162 -72 -246z" />
    <glyph glyph-name="summation" unicode="&#x2211;" horiz-adv-x="548" 
d="M116 -172l-59 92l138 345l-138 343l59 93h384v-139h-148l-110 4v-4l56 -122l56 -175l-55 -175l-57 -123v-4l117 4h141v-139h-384z" />
    <glyph glyph-name="minus" unicode="&#x2212;" horiz-adv-x="568" 
d="M33 285v134h502v-134h-502z" />
    <glyph glyph-name="uni2215" unicode="&#x2215;" horiz-adv-x="185" 
d="M-61 -23l-84 44l393 696l83 -44z" />
    <glyph glyph-name="uni2219" unicode="&#x2219;" horiz-adv-x="324" 
d="M160 230q-45 0 -76.5 31.5t-31.5 76.5q0 48 31.5 80.5t76.5 32.5q48 0 80 -32t32 -81q0 -45 -32 -76.5t-80 -31.5z" />
    <glyph glyph-name="radical" unicode="&#x221a;" horiz-adv-x="750" 
d="M339 -162l-198 540h-127l53 123h178l106 -283l56 -199h4l73 304l176 610h133l-308 -1095h-146z" />
    <glyph glyph-name="infinity" unicode="&#x221e;" horiz-adv-x="867" 
d="M254 160q-93 0 -142 45t-49 130q0 83 53.5 132t141.5 49q98 0 174 -81q82 85 183 85q91 0 140 -45.5t49 -129.5q0 -81 -53.5 -131t-139.5 -50q-101 0 -177 83q-15 -16 -21 -22t-25 -21.5t-35 -22.5t-43 -14t-56 -7zM603 292q55 0 55 51q0 22 -13.5 36t-36.5 14t-43 -12
t-25.5 -19t-18.5 -25q2 -2 14.5 -11.5t17.5 -13t15 -9.5t18.5 -8.5t16.5 -2.5zM264 287q45 0 83 56q-51 45 -82 45q-56 0 -56 -52q0 -49 55 -49z" />
    <glyph glyph-name="integral" unicode="&#x222b;" horiz-adv-x="538" 
d="M64 -218q-82 0 -141 36l76 124q23 -16 52 -16q37 0 57 16t26 65l81 647q16 124 76.5 178t164.5 54q82 0 140 -37l-75 -124q-24 17 -52 17q-37 0 -57 -16.5t-26 -64.5l-81 -648q-16 -123 -77 -177t-164 -54z" />
    <glyph glyph-name="approxequal" unicode="&#x2248;" horiz-adv-x="605" 
d="M132 363l-120 20q11 83 57 129t125 46q42 0 123 -33q59 -26 93 -26q24 0 38 13t24 50l120 -20q-11 -83 -57.5 -128.5t-126.5 -45.5q-44 0 -118 32q-62 27 -91 27q-26 0 -41 -13t-26 -51zM132 141l-120 21q11 83 57 128.5t125 45.5q44 0 123 -32q62 -27 93 -27
q24 0 38 13.5t24 49.5l120 -20q-12 -83 -58.5 -128.5t-125.5 -45.5q-42 0 -118 33q-59 26 -91 26q-26 0 -41 -13t-26 -51z" />
    <glyph glyph-name="notequal" unicode="&#x2260;" horiz-adv-x="568" 
d="M535 400h-172l-35 -96h207v-135h-257l-33 -88h-119l33 88h-126v135h176l36 96h-212v135h262l30 81h118l-30 -81h122v-135z" />
    <glyph glyph-name="lessequal" unicode="&#x2264;" horiz-adv-x="568" 
d="M384 443l-148 -47v-4l149 -46l150 -51v-302h-502v134h495l-495 208v122l502 210v-171z" />
    <glyph glyph-name="greaterequal" unicode="&#x2265;" horiz-adv-x="568" 
d="M535 457v-122l-495 -208h495v-134h-502v302l150 51l149 46v4l-148 47l-151 53v171z" />
    <glyph glyph-name="lozenge" unicode="&#x25ca;" horiz-adv-x="582" 
d="M210 0l-211 350l211 351h137l212 -351l-211 -350h-138zM276 174h5l50 97l51 80l-48 75l-53 101h-5l-52 -100l-48 -77l50 -78z" />
    <glyph glyph-name="four.superior" horiz-adv-x="395" 
d="M222 374v84h-177l-24 80l186 259h138v-249h64v-90h-64v-84h-123zM146 548h76v36q0 1 10 97h-2q-10 -17 -24 -40t-18 -29z" />
    <glyph glyph-name="f_f" horiz-adv-x="729" 
d="M601 593v-21h117v-118h-121v-454h-174v454h-153v-454h-174v454h-81v118h84v36q0 179 255 179q34 0 82.5 -8.5t78.5 -21.5q52 30 129 30q52 0 94 -10l-22 -140q-40 10 -63 10q-28 0 -40 -13t-12 -41zM427 572v26q0 24 4 43q-41 10 -82 10q-26 0 -42 -4.5t-23 -14.5
t-8.5 -19t-1.5 -25v-16h153z" />
    <glyph glyph-name="f_f_i" horiz-adv-x="988" 
d="M925 572v-572h-174v454h-154v-454h-174v454h-153v-454h-174v454h-81v118h84v36q0 179 255 179q35 0 83.5 -8.5t77.5 -21.5q62 30 168 30q153 0 218 -32l-35 -126q-62 22 -190 22q-26 0 -42 -4.5t-23 -14.5t-8.5 -19t-1.5 -25v-16h324zM427 572v36q0 13 2 33
q-41 10 -80 10q-26 0 -42 -4.5t-23 -14.5t-8.5 -19t-1.5 -25v-16h153z" />
    <glyph glyph-name="f_f_l" horiz-adv-x="1011" 
d="M969 142q5 0 8.5 -0.5t4.5 -0.5v-136q-36 -15 -73 -15q-73 0 -115.5 42t-42.5 117v499q-37 3 -75 3q-26 0 -42 -4.5t-23 -14.5t-8.5 -19t-1.5 -25v-16h84v-118h-88v-454h-174v454h-153v-454h-174v454h-81v118h84v36q0 179 255 179q35 0 83.5 -8.5t77.5 -21.5
q62 30 168 30q174 0 242 -36v-557q0 -52 44 -52zM427 572v36q0 13 2 33q-41 10 -80 10q-26 0 -42 -4.5t-23 -14.5t-8.5 -19t-1.5 -25v-16h153z" />
    <glyph glyph-name="a.ss01" horiz-adv-x="585" 
d="M237 -10q-204 0 -204 270q0 140 70.5 228.5t206.5 88.5q143 0 211 -31l-2 -334l-1 -212h-148l-5 65h-4q-51 -75 -124 -75zM279 127q54 0 81 42l-1 268q-10 5 -38 5q-54 0 -84.5 -42.5t-30.5 -124.5q0 -73 16 -110.5t57 -37.5z" />
    <glyph glyph-name="aacute.ss01" 
d="M300 614l-88 75l188 160l149 -88zM240 -10q-204 0 -204 270q0 140 70.5 228.5t206.5 88.5q143 0 211 -31l-2 -334l-1 -212h-148l-5 65h-4q-51 -75 -124 -75zM282 127q54 0 81 42l-1 268q-10 5 -38 5q-54 0 -84.5 -42.5t-30.5 -124.5q0 -73 16 -110.5t57 -37.5z" />
    <glyph glyph-name="abreve.ss01" 
d="M306 609q-147 0 -216 134l111 64q12 -30 38 -53t67 -23q74 0 107 76l110 -64q-34 -64 -84.5 -99t-132.5 -35zM240 -10q-204 0 -204 270q0 140 70.5 228.5t206.5 88.5q143 0 211 -31l-2 -334l-1 -212h-148l-5 65h-4q-51 -75 -124 -75zM282 127q54 0 81 42l-1 268
q-10 5 -38 5q-54 0 -84.5 -42.5t-30.5 -124.5q0 -73 16 -110.5t57 -37.5z" />
    <glyph glyph-name="acircumflex.ss01" 
d="M160 614l-57 102l208 126l211 -126l-64 -103l-147 81zM240 -10q-204 0 -204 270q0 140 70.5 228.5t206.5 88.5q143 0 211 -31l-2 -334l-1 -212h-148l-5 65h-4q-51 -75 -124 -75zM282 127q54 0 81 42l-1 268q-10 5 -38 5q-54 0 -84.5 -42.5t-30.5 -124.5q0 -73 16 -110.5
t57 -37.5z" />
    <glyph glyph-name="adieresis.ss01" 
d="M171 631q-39 0 -64.5 25.5t-25.5 62.5t25.5 63t64.5 26t64.5 -26t25.5 -63t-25.5 -62.5t-64.5 -25.5zM439 631q-38 0 -63.5 25.5t-25.5 62.5t25.5 63t63.5 26q39 0 64.5 -26t25.5 -63t-25.5 -62.5t-64.5 -25.5zM240 -10q-204 0 -204 270q0 140 70.5 228.5t206.5 88.5
q143 0 211 -31l-2 -334l-1 -212h-148l-5 65h-4q-51 -75 -124 -75zM282 127q54 0 81 42l-1 268q-10 5 -38 5q-54 0 -84.5 -42.5t-30.5 -124.5q0 -73 16 -110.5t57 -37.5z" />
    <glyph glyph-name="agrave.ss01" 
d="M352 614l-249 147l149 88l188 -160zM240 -10q-204 0 -204 270q0 140 70.5 228.5t206.5 88.5q143 0 211 -31l-2 -334l-1 -212h-148l-5 65h-4q-51 -75 -124 -75zM282 127q54 0 81 42l-1 268q-10 5 -38 5q-54 0 -84.5 -42.5t-30.5 -124.5q0 -73 16 -110.5t57 -37.5z" />
    <glyph glyph-name="amacron.ss01" 
d="M158 630v137h319v-137h-319zM240 -10q-204 0 -204 270q0 140 70.5 228.5t206.5 88.5q143 0 211 -31l-2 -334l-1 -212h-148l-5 65h-4q-51 -75 -124 -75zM282 127q54 0 81 42l-1 268q-10 5 -38 5q-54 0 -84.5 -42.5t-30.5 -124.5q0 -73 16 -110.5t57 -37.5z" />
    <glyph glyph-name="aogonek.ss01" 
d="M496 -143l33 -94q-48 -29 -118 -29q-73 0 -107.5 33.5t-34.5 86.5q0 91 102 166l-3 45h-4q-51 -75 -124 -75q-204 0 -204 270q0 140 70.5 228.5t206.5 88.5q143 0 211 -31l-2 -334l-1 -212h-1q-126 -72 -126 -126q0 -37 36 -37q31 0 66 20zM282 127q54 0 81 42l-1 268
q-10 5 -38 5q-54 0 -84.5 -42.5t-30.5 -124.5q0 -73 16 -110.5t57 -37.5z" />
    <glyph glyph-name="aring.ss01" 
d="M303 581q-63 0 -100 36t-37 92q0 57 38 95.5t101 38.5t100.5 -35.5t37.5 -92.5q0 -56 -38.5 -95t-101.5 -39zM303 662q53 0 53 49q0 52 -52 52q-51 0 -51 -50q0 -51 50 -51zM240 -10q-204 0 -204 270q0 140 70.5 228.5t206.5 88.5q143 0 211 -31l-2 -334l-1 -212h-148
l-5 65h-4q-51 -75 -124 -75zM282 127q54 0 81 42l-1 268q-10 5 -38 5q-54 0 -84.5 -42.5t-30.5 -124.5q0 -73 16 -110.5t57 -37.5z" />
    <glyph glyph-name="atilde.ss01" 
d="M167 627l-68 98q16 29 48.5 53.5t72.5 24.5q35 0 88.5 -21.5t75.5 -21.5q26 0 41.5 9.5t37.5 38.5l67 -97q-17 -29 -49.5 -53t-72.5 -24q-31 0 -88.5 21t-74.5 21q-48 0 -78 -49zM240 -10q-204 0 -204 270q0 140 70.5 228.5t206.5 88.5q143 0 211 -31l-2 -334l-1 -212
h-148l-5 65h-4q-51 -75 -124 -75zM282 127q54 0 81 42l-1 268q-10 5 -38 5q-54 0 -84.5 -42.5t-30.5 -124.5q0 -73 16 -110.5t57 -37.5z" />
    <glyph glyph-name="one.superior" horiz-adv-x="346" 
d="M171 374v199l3 111h-5l-65 -49l-33 -21l-59 96l159 87h127v-423h-127z" />
    <glyph glyph-name="two.superior" horiz-adv-x="407" 
d="M55 374l-21 86q2 2 23 18.5t40 32.5t42.5 37t43.5 43t31 41q12 26 12 38q0 38 -29 38q-35 0 -35 -54l-124 19q5 57 46 91.5t122 34.5q74 0 110 -32t36 -88q0 -53 -42 -109q-29 -37 -73 -73l-50 -39l73 5h97v-89h-302z" />
    <glyph glyph-name="three.superior" horiz-adv-x="395" 
d="M184 371q-64 0 -104.5 27.5t-54.5 69.5l116 48q17 -57 62 -57q24 0 32 10.5t8 33.5q0 43 -74 43h-27v85h32q34 0 44.5 10t10.5 33q0 38 -39 38q-30 0 -29 -45l-122 6q-1 56 40 91.5t114 35.5q77 0 115.5 -25.5t38.5 -84.5q0 -72 -63 -91q80 -11 80 -88
q0 -67 -48.5 -103.5t-131.5 -36.5z" />
    </font>
</defs>
</svg>
