<?xml version="1.0" standalone="no"?>
<!DOCTYPE svg PUBLIC "-//W3C//DTD SVG 1.1//EN" "http://www.w3.org/Graphics/SVG/1.1/DTD/svg11.dtd" >
<svg xmlns="http://www.w3.org/2000/svg" xmlns:xlink="http://www.w3.org/1999/xlink" version="1.1">
<metadata>
Created by FontForge 20170731 at Wed Oct 10 01:32:25 2018
 By Aleksey,,,
Copyright (c) 2017 by Satya Rajpurohit. All rights reserved.
</metadata>
<defs>
<font id="KohinoorKBS-Bold" horiz-adv-x="556" >
  <font-face 
    font-family="Kohinoor KBS Bold"
    font-weight="700"
    font-stretch="normal"
    units-per-em="1000"
    panose-1="0 0 8 0 0 0 0 0 0 0"
    ascent="800"
    descent="-200"
    x-height="565"
    cap-height="701"
    bbox="-152 -351 1236 1012"
    underline-thickness="50"
    underline-position="-200"
    unicode-range="U+0020-25CA"
  />
<missing-glyph horiz-adv-x="476" 
d="M390 758v-952h-301v952h301zM317 694h-157v-31h62v-35h-63v-32h158v32h-63v35h63v31zM254 571h-95v-99h158v33h-63v66zM222 539v-34h-32v34h32zM317 447h-158v-32h63v-35h-63v-31h95v66h63v32zM317 390h-31v-63h-127v-33h158v96zM317 273h-95v-53h32v22h32v-45h-96v76
h-31v-107h158v107zM317 109h-158v-108h158v108zM286 77v-44h-96v44h96zM317 -21h-158v-31h67l-67 -45v-31h158v31h-97l67 45h30v31z" />
    <glyph glyph-name="f_i" unicode="fi" horiz-adv-x="645" 
d="M577 565v-565h-151v461h-174v-461h-151v461h-83v104h86v42q0 175 244 175q143 0 207 -32l-32 -110q-64 23 -182 23q-53 0 -69.5 -17.5t-16.5 -53.5v-27h322z" />
    <glyph glyph-name="f_l" unicode="fl" horiz-adv-x="672" 
d="M624 122q11 0 21 2v-119q-36 -14 -72 -14q-69 0 -108 39t-39 109v520q-36 4 -85 4q-53 0 -69.5 -17.5t-16.5 -53.5v-27h94v-104h-97v-461h-151v461h-83v104h86v42q0 175 244 175q162 0 229 -37v-567q0 -56 47 -56z" />
    <glyph glyph-name=".notdef" horiz-adv-x="476" 
d="M390 758v-952h-301v952h301zM317 694h-157v-31h62v-35h-63v-32h158v32h-63v35h63v31zM254 571h-95v-99h158v33h-63v66zM222 539v-34h-32v34h32zM317 447h-158v-32h63v-35h-63v-31h95v66h63v32zM317 390h-31v-63h-127v-33h158v96zM317 273h-95v-53h32v22h32v-45h-96v76
h-31v-107h158v107zM317 109h-158v-108h158v108zM286 77v-44h-96v44h96zM317 -21h-158v-31h67l-67 -45v-31h158v31h-97l67 45h30v31z" />
    <glyph glyph-name=".null" horiz-adv-x="0" 
 />
    <glyph glyph-name="nonmarkingreturn" horiz-adv-x="333" 
 />
    <glyph glyph-name="space" unicode=" " horiz-adv-x="245" 
 />
    <glyph glyph-name="exclam" unicode="!" horiz-adv-x="315" 
d="M97 280l-30 455h181q-5 -76 -14.5 -227.5t-14.5 -227.5h-122zM156 -7q-37 0 -63.5 26t-26.5 63q0 40 26 67t64 27q40 0 66.5 -27t26.5 -67q0 -37 -27 -63t-66 -26z" />
    <glyph glyph-name="quotedbl" unicode="&#x22;" horiz-adv-x="414" 
d="M59 461l-21 260h150l-21 -260h-108zM247 461l-21 260h150l-21 -260h-108z" />
    <glyph glyph-name="numbersign" unicode="#" horiz-adv-x="705" 
d="M119 0l26 185h-109l15 109h107l18 113h-109l15 109h109l26 185h127l-26 -185h125l26 185h127l-26 -185h99l-15 -109h-100l-15 -113h99l-15 -109h-99l-26 -185h-127l26 185h-125l-26 -185h-127zM285 294h127l15 113h-124z" />
    <glyph glyph-name="dollar" unicode="$" horiz-adv-x="560" 
d="M521 206q0 -71 -46.5 -125.5t-133.5 -71.5l3 -135h-122l3 131q-117 12 -199 85l83 112q79 -74 176 -74q41 0 63 17t22 45t-22.5 45.5t-86.5 46.5l-60 27q-147 65 -147 188q0 78 51.5 131t132.5 68l-4 128h122l-3 -128q43 -7 79 -25t49.5 -30t20.5 -22l-87 -103
q-57 57 -130 57q-38 0 -58.5 -17.5t-20.5 -46.5t23.5 -48.5t76.5 -43.5l49 -22q91 -41 128.5 -81t37.5 -108z" />
    <glyph glyph-name="percent" unicode="%" horiz-adv-x="882" 
d="M210 329q-168 0 -168 189q0 92 46 142t128 50q168 0 168 -186q0 -96 -45.5 -145.5t-128.5 -49.5zM189 29l-64 63l580 587l65 -63zM214 414q33 0 46.5 24.5t13.5 80.5q0 106 -64 106q-58 0 -58 -106q0 -105 62 -105zM666 -9q-168 0 -168 189q0 92 46 142t128 50
q168 0 168 -186q0 -96 -45.5 -145.5t-128.5 -49.5zM670 76q33 0 46.5 24.5t13.5 80.5q0 106 -64 106q-58 0 -58 -106q0 -105 62 -105z" />
    <glyph glyph-name="ampersand" unicode="&#x26;" horiz-adv-x="724" 
d="M272 -21q-124 0 -187.5 61.5t-63.5 144.5q0 75 41.5 121t116.5 77q-52 60 -52 136q0 79 56 133t148 54q91 0 144 -51t53 -131q0 -68 -39.5 -117t-110.5 -75q80 -80 123 -113q35 52 35 157h130q0 -63 -19.5 -127t-51.5 -106q22 -20 159 -123v-20h-180q-6 4 -66 49
q-89 -70 -236 -70zM304 421q47 16 69.5 39t22.5 59q0 32 -19 51.5t-51 19.5q-30 0 -48 -18t-18 -53q0 -26 14.5 -56.5t29.5 -41.5zM295 97q69 0 116 32q-106 93 -164 157q-82 -23 -82 -89q0 -42 35.5 -71t94.5 -29z" />
    <glyph glyph-name="quotesingle" unicode="'" horiz-adv-x="226" 
d="M59 461l-21 260h150l-21 -260h-108z" />
    <glyph glyph-name="parenleft" unicode="(" horiz-adv-x="379" 
d="M298 -264q-20 16 -44 44.5t-56 80t-57.5 111.5t-43.5 144t-18 173t18 173t43.5 144t57.5 111.5t56 80t44 44.5h137v-14q-99 -94 -165 -232.5t-66 -306.5t66 -306.5t165 -232.5v-14h-137z" />
    <glyph glyph-name="parenright" unicode=")" horiz-adv-x="379" 
d="M-56 -264v14q99 94 165 232.5t66 306.5t-66 306.5t-165 232.5v14h137q20 -16 44 -44.5t56 -80t57.5 -111.5t43.5 -144t18 -173t-18 -173t-43.5 -144t-57.5 -111.5t-56 -80t-44 -44.5h-137z" />
    <glyph glyph-name="asterisk" unicode="*" horiz-adv-x="425" 
d="M155 339l-90 66l34 47l53 41l-67 4l-56 18l35 106l55 -18l55 -37l-17 64v59h112v-58l-18 -64l55 37l57 18l33 -107l-54 -18l-68 -2l53 -42l35 -48l-91 -65l-34 46l-24 63l-23 -62z" />
    <glyph glyph-name="plus" unicode="+" horiz-adv-x="558" 
d="M526 408v-118h-187v-188h-120v188h-187v118h187v188h120v-188h187z" />
    <glyph glyph-name="comma" unicode="," horiz-adv-x="295" 
d="M69 -180l-47 67q105 46 105 113q0 54 -69 77v14q0 36 25 61t64 25q48 0 76.5 -33.5t28.5 -85.5q0 -80 -54.5 -147t-128.5 -91z" />
    <glyph glyph-name="hyphen" unicode="-" horiz-adv-x="382" 
d="M24 260v121h334v-121h-334z" />
    <glyph glyph-name="period" unicode="." horiz-adv-x="295" 
d="M146 -9q-40 0 -68.5 28t-28.5 68q0 43 28 72t69 29q43 0 71.5 -29t28.5 -72q0 -40 -29 -68t-71 -28z" />
    <glyph glyph-name="slash" unicode="/" horiz-adv-x="396" 
d="M-6 -159l283 889h125l-283 -889h-125z" />
    <glyph glyph-name="zero" unicode="0" horiz-adv-x="592" 
d="M288 -10q-131 0 -188.5 85.5t-57.5 265.5q0 360 261 360q130 0 188.5 -86.5t58.5 -268.5q0 -356 -262 -356zM298 117q59 0 80 51t21 173q0 119 -25.5 176t-81.5 57q-58 0 -78.5 -52t-20.5 -176q0 -120 25 -174.5t80 -54.5z" />
    <glyph glyph-name="one" unicode="1" horiz-adv-x="482" 
d="M331 133h131v-133h-416v133h135v190q0 111 5 193h-4l-100 -61l-67 128l175 108h141v-558z" />
    <glyph glyph-name="two" unicode="2" horiz-adv-x="535" 
d="M67 0l-26 126q183 175 240 254q49 69 49 116q0 78 -64 78q-33 0 -50.5 -26.5t-17.5 -65.5l-153 27q8 83 66.5 137.5t162.5 54.5q98 0 155 -50t57 -134q0 -111 -86 -217q-38 -46 -93 -102q-22 -21 -85 -76v-4q72 7 163 7h110v-125h-428z" />
    <glyph glyph-name="three" unicode="3" horiz-adv-x="535" 
d="M240 -10q-89 0 -148.5 41.5t-80.5 103.5l141 64q36 -85 107 -85q85 0 85 91q0 82 -118 82h-46v124h45q50 0 72 21t22 69q0 76 -69 76q-33 0 -51.5 -21t-19.5 -59l-145 13q3 83 60 137t155 54q219 0 219 -187q0 -57 -29 -96.5t-75 -54.5v-4q55 -5 92 -40.5t37 -106.5
q0 -107 -67.5 -164.5t-185.5 -57.5z" />
    <glyph glyph-name="four" unicode="4" horiz-adv-x="578" 
d="M322 0v152h-269l-31 117l274 422h171v-416h92v-123h-92v-152h-145zM174 275h148v55q0 112 10 205h-4q-33 -64 -73 -129z" />
    <glyph glyph-name="five" unicode="5" horiz-adv-x="573" 
d="M273 -10q-180 0 -235 145l148 63q29 -84 97 -84q85 0 85 106q0 111 -94 111q-44 0 -75 -33l-125 44l29 349h379v-124h-246l-15 -146h4q14 11 40 18.5t48 7.5q204 0 204 -208q0 -113 -65 -181t-179 -68z" />
    <glyph glyph-name="six" unicode="6" horiz-adv-x="573" 
d="M284 -10q-230 0 -230 266q0 133 65 249.5t163 185.5h192v-20q-147 -83 -221 -217l2 -3q22 10 62 10q97 0 154 -52.5t57 -163.5q0 -116 -67.5 -185.5t-176.5 -69.5zM300 114q41 0 60 27t19 87q0 51 -26.5 81t-77.5 30q-34 0 -67 -9q-5 -29 -5 -69q0 -147 97 -147z" />
    <glyph glyph-name="seven" unicode="7" horiz-adv-x="481" 
d="M100 0v18q0 118 47 258t152 285v4q-79 -7 -165 -7h-134v133h432l30 -139q-124 -163 -167.5 -291t-43.5 -245v-16h-151z" />
    <glyph glyph-name="eight" unicode="8" horiz-adv-x="587" 
d="M292 -10q-242 0 -242 200q0 61 34 101t91 58v4q-47 12 -77 51t-30 97q0 96 59.5 148t167.5 52q225 0 225 -189q0 -54 -30.5 -93.5t-76.5 -56.5v-4q124 -25 124 -152q0 -107 -65 -161.5t-180 -54.5zM294 409q42 0 60 23t18 68q0 36 -19.5 57.5t-58.5 21.5q-78 0 -78 -79
q0 -91 78 -91zM295 110q95 0 95 91q0 88 -97 88q-52 0 -73.5 -25.5t-21.5 -64.5q0 -89 97 -89z" />
    <glyph glyph-name="nine" unicode="9" horiz-adv-x="548" 
d="M89 0v20q157 90 222 223l-2 3q-18 -5 -58 -5q-98 0 -158.5 52t-60.5 161q0 116 67 181.5t178 65.5q228 0 228 -263q0 -127 -64.5 -247.5t-159.5 -190.5h-192zM281 364q38 0 71 11q4 31 4 57q0 76 -27 110.5t-66 34.5q-42 0 -62.5 -24t-20.5 -80q0 -109 101 -109z" />
    <glyph glyph-name="colon" unicode=":" horiz-adv-x="295" 
d="M146 369q-40 0 -68.5 28t-28.5 68q0 43 28 72t69 29q43 0 71.5 -29t28.5 -72q0 -40 -29 -68t-71 -28zM146 -9q-40 0 -68.5 28t-28.5 68q0 43 28 72t69 29q43 0 71.5 -29t28.5 -72q0 -40 -29 -68t-71 -28z" />
    <glyph glyph-name="semicolon" unicode=";" horiz-adv-x="295" 
d="M147 369q-40 0 -68.5 28t-28.5 68q0 43 28 72t69 29q43 0 71.5 -29t28.5 -72q0 -40 -29 -68t-71 -28zM61 -180l-47 67q105 46 105 113q0 54 -69 77v14q0 36 25 61t64 25q48 0 76.5 -33.5t28.5 -85.5q0 -80 -54.5 -147t-128.5 -91z" />
    <glyph glyph-name="less" unicode="&#x3c;" horiz-adv-x="558" 
d="M526 82l-494 211v110l494 212v-149l-172 -65l-148 -49v-4l147 -50l173 -67v-149z" />
    <glyph glyph-name="equal" unicode="=" horiz-adv-x="558" 
d="M32 406v119h494v-119h-494zM32 173v119h494v-119h-494z" />
    <glyph glyph-name="greater" unicode="&#x3e;" horiz-adv-x="558" 
d="M32 82v149l172 65l148 49v4l-147 50l-173 67v149l494 -211v-110z" />
    <glyph glyph-name="question" unicode="?" horiz-adv-x="453" 
d="M175 249q-67 23 -67 83q0 35 25.5 64.5t55.5 47t55.5 45t25.5 58.5q0 30 -19 48t-51 18q-64 0 -116 -66l-98 110q77 84 231 84q97 0 151 -45.5t54 -126.5q0 -61 -22.5 -105t-85.5 -97zM216 -7q-40 0 -65 25t-25 64q0 41 26.5 67.5t64.5 26.5q42 0 67 -25.5t25 -68.5
q0 -38 -26 -63.5t-67 -25.5z" />
    <glyph glyph-name="at" unicode="@" horiz-adv-x="1016" 
d="M450 -160q-192 0 -291 99t-99 275q0 219 139.5 359.5t364.5 140.5q179 0 285.5 -92.5t106.5 -247.5q0 -146 -72.5 -234t-191.5 -88q-91 0 -122 54h-4q-38 -52 -112 -52q-81 0 -121 45.5t-40 119.5q0 63 17 113.5t43.5 81.5t63 51t73 28t75.5 8q98 0 156 -41l-38 -229
q-4 -24 -4 -34q0 -35 31 -35q56 0 88.5 61.5t32.5 131.5q0 117 -73 181.5t-214 64.5q-161 0 -259.5 -106t-98.5 -264q0 -140 73.5 -209.5t211.5 -69.5q89 0 148 36l45 -100q-86 -48 -214 -48zM482 164q36 0 68 26q0 20 5 48l25 146q-25 5 -38 5q-49 0 -84 -39.5t-35 -107.5
q0 -43 14 -60.5t45 -17.5z" />
    <glyph glyph-name="A" unicode="A" horiz-adv-x="666" 
d="M492 0l-44 161h-235l-45 -161h-154l212 701h213l213 -701h-160zM248 287h165l-27 98q-41 146 -53 210h-4q-15 -72 -52 -206z" />
    <glyph glyph-name="B" unicode="B" horiz-adv-x="642" 
d="M77 0v701h251q226 0 226 -182q0 -56 -29.5 -94t-72.5 -54v-4q57 -7 96.5 -45t39.5 -107q0 -39 -11.5 -73t-40 -68t-86.5 -54t-141 -20h-232zM228 420h76q52 0 77.5 22.5t25.5 55.5q0 77 -97 77h-82v-155zM228 126h105q53 0 76.5 24.5t23.5 59.5q0 43 -30.5 63.5
t-77.5 20.5h-97v-168z" />
    <glyph glyph-name="C" unicode="C" horiz-adv-x="591" 
d="M345 -10q-155 0 -227 94t-72 259q0 170 80 268.5t230 98.5q145 0 219 -82l-100 -111q-15 18 -28 29.5t-40.5 23t-61.5 11.5q-142 0 -142 -228q0 -111 39 -171.5t116 -60.5q75 0 125 59l84 -108q-27 -33 -83.5 -57.5t-138.5 -24.5z" />
    <glyph glyph-name="D" unicode="D" horiz-adv-x="676" 
d="M81 0v701h218q170 0 250.5 -83t80.5 -252q0 -72 -16 -133.5t-51.5 -116t-102 -85.5t-159.5 -31h-220zM233 126h56q101 0 142.5 58t41.5 168q0 120 -48 171.5t-137 51.5h-55v-449z" />
    <glyph glyph-name="E" unicode="E" horiz-adv-x="563" 
d="M81 0v701h415v-126h-263v-156h226v-126h-226v-167h275v-126h-427z" />
    <glyph glyph-name="F" unicode="F" horiz-adv-x="536" 
d="M81 0v701h415v-126h-263v-186h226v-126h-226v-263h-152z" />
    <glyph glyph-name="G" unicode="G" horiz-adv-x="658" 
d="M341 388h254v-336q-90 -62 -251 -62q-298 0 -298 354q0 181 92.5 274t240.5 93q150 0 220 -81l-98 -107q-52 56 -128 56q-170 0 -170 -217q0 -129 42.5 -188.5t130.5 -59.5q43 0 66 10v131h-101v133z" />
    <glyph glyph-name="H" unicode="H" horiz-adv-x="723" 
d="M81 0v701h153v-288h255v288h153v-701h-153v287h-255v-287h-153z" />
    <glyph glyph-name="I" unicode="I" horiz-adv-x="331" 
d="M89 0v701h153v-701h-153z" />
    <glyph glyph-name="J" unicode="J" horiz-adv-x="444" 
d="M155 -13q-97 0 -146 30l47 135q43 -32 95 -32q33 0 46 14.5t13 46.5v520h153v-531q0 -83 -51.5 -133t-156.5 -50z" />
    <glyph glyph-name="K" unicode="K" horiz-adv-x="648" 
d="M81 0v701h153v-701h-153zM453 0l-215 353v4l208 344h176l-218 -341l240 -360h-191z" />
    <glyph glyph-name="L" unicode="L" horiz-adv-x="508" 
d="M81 0v701h153v-575h258v-126h-411z" />
    <glyph glyph-name="M" unicode="M" horiz-adv-x="898" 
d="M83 0v701h235l133 -378h4l131 378h229v-701h-146v519h-4l-156 -435h-126l-154 435h-6v-519h-140z" />
    <glyph glyph-name="N" unicode="N" horiz-adv-x="732" 
d="M83 0v701h183l143 -276q66 -127 99 -215h4q-8 98 -8 269v222h145v-701h-179l-154 296q-46 90 -93 214h-4q10 -100 10 -245v-265h-146z" />
    <glyph glyph-name="O" unicode="O" horiz-adv-x="673" 
d="M331 -10q-138 0 -211.5 83.5t-73.5 272.5q0 184 80 274.5t214 90.5q287 0 287 -357q0 -183 -80.5 -273.5t-215.5 -90.5zM340 117q63 0 96 53t33 177q0 126 -35.5 181.5t-102.5 55.5q-128 0 -128 -228q0 -128 35 -183.5t102 -55.5z" />
    <glyph glyph-name="P" unicode="P" horiz-adv-x="599" 
d="M81 0v701h240q245 0 245 -208q0 -109 -65 -176.5t-209 -67.5h-58v-249h-153zM234 374h50q71 0 97.5 26t26.5 72q0 52 -27 76t-85 24h-62v-198z" />
    <glyph glyph-name="Q" unicode="Q" horiz-adv-x="699" 
d="M535 -158l-185 153q-66 0 -117 17t-92 56t-63 109.5t-22 169.5q0 183 80.5 273.5t215.5 90.5q291 0 291 -358q0 -128 -38 -208.5t-98 -108.5v-4l173 -106zM352 117q66 0 99.5 52.5t33.5 178.5q0 127 -35.5 181.5t-104.5 54.5q-64 0 -98 -52t-34 -176q0 -239 139 -239z
" />
    <glyph glyph-name="R" unicode="R" horiz-adv-x="613" 
d="M81 0v701h228q120 0 181.5 -49.5t61.5 -156.5q0 -86 -40.5 -134t-107.5 -61v-4q28 -13 48 -35.5t45 -67.5l107 -193h-182l-116 228q-17 33 -64 33h-10v-261h-151zM232 382h58q59 0 83 24.5t24 75.5q0 93 -105 93h-60v-193z" />
    <glyph glyph-name="S" unicode="S" horiz-adv-x="573" 
d="M269 -10q-89 0 -153 28.5t-90 58.5l87 126q84 -84 176 -84q44 0 67 19.5t23 48.5q0 30 -33.5 53.5t-80.5 43t-94.5 44.5t-81 70t-33.5 106q0 88 69.5 147.5t177.5 59.5q78 0 134 -27t79 -57l-95 -113q-53 65 -131 65q-36 0 -57 -18t-21 -45q0 -31 33 -54.5t80.5 -43
t95 -44.5t80.5 -70t33 -107q0 -85 -69.5 -146t-195.5 -61z" />
    <glyph glyph-name="T" unicode="T" horiz-adv-x="507" 
d="M177 0v575h-174v126h501v-126h-174v-575h-153z" />
    <glyph glyph-name="U" unicode="U" horiz-adv-x="699" 
d="M335 -10q-130 0 -193.5 69t-63.5 184v458h153v-428q0 -77 29.5 -116t95.5 -39q56 0 84 32.5t28 103.5v447h153v-425q0 -150 -79 -218t-207 -68z" />
    <glyph glyph-name="V" unicode="V" horiz-adv-x="664" 
d="M233 0l-225 701h170l108 -380q39 -139 50 -194h4q19 94 47 195l108 379h161l-225 -701h-198z" />
    <glyph glyph-name="W" unicode="W" horiz-adv-x="962" 
d="M185 0l-178 701h165l69 -283q37 -153 41 -247h4q6 56 34 187l75 343h181l79 -342q26 -109 35 -186h4q8 98 39 228l70 300h152l-179 -701h-180l-71 311q-29 126 -40 218h-4q-15 -107 -34 -186l-81 -343h-181z" />
    <glyph glyph-name="X" unicode="X" horiz-adv-x="630" 
d="M6 0l225 358l-213 343h184l118 -215h4l112 215h176l-212 -343l224 -358h-183l-131 227h-4l-124 -227h-176z" />
    <glyph glyph-name="Y" unicode="Y" horiz-adv-x="627" 
d="M237 0v225l-236 476h170l143 -323h4l146 323h162l-236 -476v-225h-153z" />
    <glyph glyph-name="Z" unicode="Z" 
d="M44 0l-21 120l310 448v4h-275v129h440l21 -120l-307 -448v-4h310v-129h-478z" />
    <glyph glyph-name="bracketleft" unicode="[" horiz-adv-x="368" 
d="M105 -260v1101h276v-100h-147v-902h147v-99h-276z" />
    <glyph glyph-name="backslash" unicode="\" horiz-adv-x="396" 
d="M277 -159l-283 889h125l283 -889h-125z" />
    <glyph glyph-name="bracketright" unicode="]" horiz-adv-x="368" 
d="M-13 -260v99h147v902h-147v100h276v-1101h-276z" />
    <glyph glyph-name="asciicircum" unicode="^" horiz-adv-x="572" 
d="M30 277l182 424h148l182 -424h-146l-60 151l-50 149h-4l-50 -149l-60 -151h-142z" />
    <glyph glyph-name="underscore" unicode="_" horiz-adv-x="530" 
d="M4 -142v108h522v-108h-522z" />
    <glyph glyph-name="grave" unicode="`" horiz-adv-x="508" 
d="M333 616l-237 141l131 77l184 -152z" />
    <glyph glyph-name="a" unicode="a" horiz-adv-x="547" 
d="M204 -9q-79 0 -123 45.5t-44 110.5q0 95 79 141.5t216 39.5v44q0 82 -81 82q-70 0 -97 -64l-107 79q75 106 203 106q112 0 168 -43.5t56 -143.5v-226q0 -46 39 -46h16v-104q-30 -19 -75 -19q-72 0 -102 61h-4q-47 -63 -144 -63zM245 106q57 0 87 40v80q-148 10 -148 -65
q0 -25 16 -40t45 -15z" />
    <glyph glyph-name="b" unicode="b" horiz-adv-x="592" 
d="M265 -10q-118 0 -197 36v732h149v-218h4q45 31 110 31q223 0 223 -278q0 -134 -76 -218.5t-213 -84.5zM276 110q128 0 128 171q0 166 -109 166q-50 0 -76 -30v-299q23 -8 57 -8z" />
    <glyph glyph-name="c" unicode="c" horiz-adv-x="504" 
d="M284 -11q-246 0 -246 288q0 145 71 222t190 77q134 0 195 -82l-101 -96q-31 54 -94 54q-52 0 -79.5 -37.5t-27.5 -125.5q0 -176 106 -176q65 0 96 55l96 -89q-67 -90 -206 -90z" />
    <glyph glyph-name="d" unicode="d" horiz-adv-x="596" 
d="M244 -9q-94 0 -150 65t-56 197q0 85 21.5 149t58 98.5t78.5 51t89 16.5q50 0 93 -12v202h150v-758h-118l-24 46h-4q-55 -55 -138 -55zM289 110q58 0 93 48v268q-25 20 -75 20q-26 0 -45 -7t-36 -25.5t-26 -55.5t-9 -92q0 -79 26 -117.5t72 -38.5z" />
    <glyph glyph-name="e" unicode="e" horiz-adv-x="571" 
d="M307 -11q-269 0 -269 295q0 137 71 214.5t194 77.5q107 0 167 -62t60 -167q0 -50 -7 -101h-337q3 -138 138 -138q75 0 124 51l66 -107q-77 -63 -207 -63zM189 346h199v15q0 101 -89 101q-50 0 -79 -32.5t-31 -83.5z" />
    <glyph glyph-name="f" unicode="f" horiz-adv-x="391" 
d="M101 0v461h-83v104h86v40q0 76 51.5 126.5t150.5 50.5q52 0 92 -10l-21 -122q-38 10 -65 10q-31 0 -44 -14.5t-13 -44.5v-36h123v-104h-126v-461h-151z" />
    <glyph glyph-name="g" unicode="g" horiz-adv-x="591" 
d="M264 -205q-162 0 -227 77l85 111q21 -30 59.5 -48t82.5 -18q59 0 85 25t26 84v29h-4q-35 -32 -111 -32q-99 0 -160.5 60t-61.5 201q0 126 71 207t204 81t210 -34v-513q0 -112 -71 -171t-188 -59zM295 145q50 0 79 29v269q-30 10 -62 10q-60 0 -92 -41.5t-32 -121.5
q0 -82 26.5 -113.5t80.5 -31.5z" />
    <glyph glyph-name="h" unicode="h" horiz-adv-x="611" 
d="M68 0v758h151v-250h4q59 61 149 61q84 0 128.5 -47t44.5 -141v-381h-151v351q0 90 -78 90q-27 0 -55 -18t-42 -44v-379h-151z" />
    <glyph glyph-name="i" unicode="i" horiz-adv-x="295" 
d="M145 627q-36 0 -61 25t-25 60q0 39 25 64.5t61 25.5q38 0 63.5 -25.5t25.5 -64.5q0 -36 -25.5 -60.5t-63.5 -24.5zM72 0v565h151v-565h-151z" />
    <glyph glyph-name="j" unicode="j" horiz-adv-x="289" 
d="M144 627q-36 0 -61 25t-25 60q0 39 25 64.5t61 25.5q38 0 63.5 -25.5t25.5 -64.5q0 -36 -25.5 -60.5t-63.5 -24.5zM18 -219l-48 119q57 25 78.5 62t21.5 121v482h151v-487q0 -37 -4 -69t-17 -68.5t-34.5 -65t-59 -54t-88.5 -40.5z" />
    <glyph glyph-name="k" unicode="k" horiz-adv-x="572" 
d="M68 0v758h151v-758h-151zM375 0l-152 299v4l154 262h173l-166 -260v-4l170 -301h-179z" />
    <glyph glyph-name="l" unicode="l" horiz-adv-x="314" 
d="M215 -9q-69 0 -108 39t-39 109v619h151v-580q0 -56 47 -56q11 0 21 2v-119q-36 -14 -72 -14z" />
    <glyph glyph-name="m" unicode="m" horiz-adv-x="921" 
d="M68 0v565h124l25 -53h4q51 66 149 66q103 0 141 -76h4q57 76 166 76q174 0 174 -188v-390h-151v363q0 88 -73 88q-29 0 -55 -17.5t-39 -47.5v-386h-151v352q0 99 -80 99q-27 0 -51.5 -19.5t-35.5 -47.5v-384h-151z" />
    <glyph glyph-name="n" unicode="n" horiz-adv-x="611" 
d="M68 0v565h118l30 -53h4q25 31 66.5 49t85.5 18q84 0 128.5 -47t44.5 -141v-391h-151v359q0 44 -20 68t-58 24q-69 0 -97 -67v-384h-151z" />
    <glyph glyph-name="o" unicode="o" horiz-adv-x="592" 
d="M293 -11q-138 0 -196.5 75t-58.5 216q0 138 63 216.5t197 78.5q139 0 197.5 -75t58.5 -216q0 -138 -63.5 -216.5t-197.5 -78.5zM298 107q56 0 78.5 41t22.5 130q0 90 -25 134.5t-82 44.5q-51 0 -75 -42t-24 -129q0 -90 24.5 -134.5t80.5 -44.5z" />
    <glyph glyph-name="p" unicode="p" horiz-adv-x="597" 
d="M68 -194v759h111l32 -48h4q49 58 135 58q95 0 152 -70t57 -199q0 -149 -72.5 -229t-181.5 -80q-47 0 -87 9v-200h-150zM287 119q58 0 88 39.5t30 134.5q0 80 -29.5 120t-76.5 40q-54 0 -83 -43v-274q29 -17 71 -17z" />
    <glyph glyph-name="q" unicode="q" horiz-adv-x="590" 
d="M377 -194v215h-4q-39 -31 -118 -31q-98 0 -157.5 67t-59.5 214q0 132 71 215.5t208 83.5q132 0 205 -35v-729h-145zM297 114q53 0 79 28v299q-30 10 -70 10q-118 0 -118 -174q0 -94 28 -128.5t81 -34.5z" />
    <glyph glyph-name="r" unicode="r" horiz-adv-x="419" 
d="M68 0v565h118l31 -83h4q40 95 146 95q26 0 48 -5v-149q-25 5 -65 5q-77 0 -132 -45v-383h-150z" />
    <glyph glyph-name="s" unicode="s" horiz-adv-x="496" 
d="M239 -10q-83 0 -141 26t-89 59l90 104q23 -27 62.5 -48.5t85.5 -21.5q65 0 65 48q0 22 -27.5 38t-66.5 29.5t-78 31.5t-66.5 55t-27.5 89q0 72 57.5 123.5t152.5 51.5q136 0 204 -79l-97 -95q-46 53 -111 53q-25 0 -40.5 -12t-15.5 -32q0 -23 27.5 -39.5t66.5 -29.5
t78 -31t66.5 -55t27.5 -89q0 -67 -55.5 -121.5t-167.5 -54.5z" />
    <glyph glyph-name="t" unicode="t" horiz-adv-x="402" 
d="M247 -5q-167 0 -167 186v269h-72v94l73 30l52 133h96v-142h141v-115h-141v-273q0 -59 59 -59q45 0 77 25l39 -113q-48 -35 -157 -35z" />
    <glyph glyph-name="u" unicode="u" horiz-adv-x="615" 
d="M245 -11q-91 0 -135 48.5t-44 148.5v379h151v-365q0 -46 21 -70t60 -24q68 0 98 68v391h151v-565h-128l-21 52h-4q-52 -63 -149 -63z" />
    <glyph glyph-name="v" unicode="v" horiz-adv-x="549" 
d="M197 0l-192 565h163l77 -270q26 -90 37 -153h4q8 58 34 153l73 270h151l-178 -565h-169z" />
    <glyph glyph-name="w" unicode="w" horiz-adv-x="829" 
d="M155 0l-147 565h151l60 -261q21 -95 29 -176h4q8 84 31 175l70 262h144l61 -258q28 -118 31 -179h4q8 73 34 181l60 256h134l-146 -565h-176l-75 378h-4l-92 -378h-173z" />
    <glyph glyph-name="x" unicode="x" horiz-adv-x="531" 
d="M4 0l178 292l-168 273h168l90 -166h4l66 166h177l-164 -275l172 -290h-168l-94 178h-4l-82 -178h-175z" />
    <glyph glyph-name="y" unicode="y" horiz-adv-x="545" 
d="M132 -213q-58 0 -92 17l25 124q26 -14 61 -14q83 0 91 88l-212 563h169l63 -192q38 -117 50 -197h4q16 104 42 197l53 192h156l-190 -593q-28 -86 -78.5 -135.5t-141.5 -49.5z" />
    <glyph glyph-name="z" unicode="z" horiz-adv-x="506" 
d="M58 0l-20 113l242 327v4h-228v121h387l20 -114l-238 -326v-4h251v-121h-414z" />
    <glyph glyph-name="braceleft" unicode="{" horiz-adv-x="370" 
d="M295 -261q-84 0 -128.5 41t-44.5 116q0 44 15 132.5t15 144.5q0 26 -20 45.5t-68 19.5v116q48 0 68 19.5t20 45.5q0 57 -15 139t-15 126q0 157 164 157q49 0 78 -12l-13 -98q-24 6 -44 6q-55 0 -55 -56q0 -47 13.5 -122.5t13.5 -121.5q0 -115 -98 -139v-4q98 -24 98 -139
q0 -46 -13.5 -127.5t-13.5 -128.5q0 -56 55 -56q20 0 44 6l13 -98q-29 -12 -69 -12z" />
    <glyph glyph-name="bar" unicode="|" horiz-adv-x="282" 
d="M90 -280v1142h102v-1142h-102z" />
    <glyph glyph-name="braceright" unicode="}" horiz-adv-x="370" 
d="M75 -261q-40 0 -69 12l13 98q24 -6 44 -6q55 0 55 56q0 47 -13.5 128.5t-13.5 127.5q0 115 98 139v4q-98 24 -98 139q0 46 13.5 121.5t13.5 122.5q0 56 -55 56q-20 0 -44 -6l-13 98q29 12 78 12q164 0 164 -157q0 -44 -15 -126t-15 -139q0 -26 20 -45.5t68 -19.5v-116
q-48 0 -68 -19.5t-20 -45.5q0 -56 15 -144.5t15 -132.5q0 -75 -44.5 -116t-128.5 -41z" />
    <glyph glyph-name="asciitilde" unicode="~" horiz-adv-x="570" 
d="M145 183l-119 21q0 2 -0.5 8t-0.5 8q0 71 36 118.5t107 47.5q46 0 121 -34.5t102 -34.5q37 0 37 55q0 8 -2 26l119 -21q0 -15 -2 -43q-18 -139 -139 -139q-48 0 -123 34.5t-101 34.5q-37 0 -37 -54q0 -9 2 -27z" />
    <glyph glyph-name="exclamdown" unicode="&#xa1;" horiz-adv-x="319" 
d="M161 392q-40 0 -66.5 27t-26.5 67q0 37 27 63t66 26q37 0 63.5 -26t26.5 -63q0 -40 -26 -67t-64 -27zM66 -167l30 455h126l31 -455h-187z" />
    <glyph glyph-name="cent" unicode="&#xa2;" horiz-adv-x="505" 
d="M122 -136l52 144q-136 55 -136 269q0 145 71.5 222t188.5 77q45 0 78 -9l49 134h72l-58 -160q31 -20 52 -52l-106 -96l-101 -279q5 -1 16 -1q58 0 94 60l94 -94q-12 -19 -30.5 -36.5t-66 -35.5t-108.5 -18q-23 0 -43 3l-46 -128h-72zM221 148h4l109 302q-18 6 -39 6
q-107 0 -107 -167q0 -95 33 -141z" />
    <glyph glyph-name="sterling" unicode="&#xa3;" horiz-adv-x="576" 
d="M73 0l-24 107q33 13 51.5 38.5t21.5 79.5l4 73h-72v117h80l7 84q9 103 73 158.5t158 55.5q75 0 117 -22t72 -63l-95 -97q-39 56 -102 56q-36 0 -53.5 -21t-21.5 -65l-7 -86h177v-117h-184l-4 -59q-5 -75 -46 -108v-4h314v-127h-466z" />
    <glyph glyph-name="currency" unicode="&#xa4;" horiz-adv-x="558" 
d="M106 75l-85 82l59 57q-29 52 -29 112q0 59 28 110l-58 57l85 82l58 -57q51 28 115 28q62 0 114 -27l58 56l85 -82l-58 -57q29 -53 29 -110q0 -59 -30 -112l59 -57l-85 -82l-59 56q-50 -26 -113 -26q-64 0 -115 27zM279 219q46 0 76 31.5t30 75.5t-30 75.5t-76 31.5
t-76 -31.5t-30 -75.5t30 -75.5t76 -31.5z" />
    <glyph glyph-name="yen" unicode="&#xa5;" horiz-adv-x="618" 
d="M232 0v214h-186v117h131l-168 370h170l80 -197l50 -159h4l51 159l83 197h162l-170 -370h128v-117h-182v-214h-153z" />
    <glyph glyph-name="brokenbar" unicode="&#xa6;" horiz-adv-x="282" 
d="M90 410v356h102v-356h-102zM90 -194v356h102v-356h-102z" />
    <glyph glyph-name="section" unicode="&#xa7;" horiz-adv-x="560" 
d="M224 -122q-48 0 -89 9l21 94q38 -16 80 -16q58 0 81.5 24.5t23.5 54.5q0 35 -27 68.5t-66 64.5t-78 66.5t-66 88.5t-27 116q0 117 86.5 204.5t224.5 87.5q41 0 78 -8l-25 -92q-33 14 -76 14q-48 0 -76.5 -22t-28.5 -59q0 -33 27 -68.5t65.5 -70t77 -73t65.5 -91.5
t27 -112q0 -114 -81 -197t-217 -83zM417 69h5q19 40 19 90q0 45 -24.5 85.5t-59.5 72t-71 62t-64 70t-32 81.5q-1 6 -1 17h-5q-23 -35 -23 -94q0 -44 24.5 -85t60.5 -73t72.5 -63t64.5 -69t33 -77q1 -6 1 -17z" />
    <glyph glyph-name="dieresis" unicode="&#xa8;" horiz-adv-x="508" 
d="M129 638q-34 0 -57 23t-23 56t23 56t57 23t57 -23t23 -56t-23 -56t-57 -23zM379 638q-34 0 -57 23t-23 56t23 56t57 23t57 -23t23 -56t-23 -56t-57 -23z" />
    <glyph glyph-name="copyright" unicode="&#xa9;" horiz-adv-x="836" 
d="M418 -21q-163 0 -271 104.5t-108 263.5t109 264.5t270 105.5q163 0 270 -104.5t107 -265.5q0 -157 -108.5 -262.5t-268.5 -105.5zM418 80q118 0 195 76t77 191q0 119 -74.5 193.5t-197.5 74.5t-198.5 -75t-75.5 -193q0 -117 76.5 -192t197.5 -75zM426 139
q-91 0 -134.5 57t-43.5 152q0 94 46.5 150.5t131.5 56.5q54 0 86.5 -16t44.5 -35l-59 -71q-24 38 -72 38q-72 0 -72 -123t72 -123q48 0 73 38l57 -70q-46 -54 -130 -54z" />
    <glyph glyph-name="guillemotleft" unicode="&#xab;" horiz-adv-x="607" 
d="M228 26l-202 257l202 258l94 -75l-142 -183l142 -182zM487 26l-202 257l202 258l94 -75l-142 -183l142 -182z" />
    <glyph glyph-name="logicalnot" unicode="&#xac;" horiz-adv-x="558" 
d="M425 166v175h-403v106h513v-281h-110z" />
    <glyph glyph-name="registered" unicode="&#xae;" horiz-adv-x="492" 
d="M245 277q-92 0 -154.5 57.5t-62.5 157.5t63 158t155 58q93 0 155.5 -58t62.5 -158q0 -99 -62 -157t-157 -58zM245 328q70 0 116 42.5t46 121.5q0 80 -47 122.5t-114 42.5q-68 0 -114.5 -42.5t-46.5 -122.5q0 -79 45.5 -121.5t114.5 -42.5zM171 381v233h79q38 0 61 -17.5
t23 -52.5q0 -58 -44 -67l60 -96h-63l-46 84h-17v-84h-53zM224 508h19q21 0 29 7.5t8 25.5q0 30 -33 30h-23v-63z" />
    <glyph glyph-name="macron" unicode="&#xaf;" horiz-adv-x="508" 
d="M96 639v119h316v-119h-316z" />
    <glyph glyph-name="degree" unicode="&#xb0;" horiz-adv-x="418" 
d="M207 395q-71 0 -116 42.5t-45 113.5t47 115.5t118 44.5q72 0 116.5 -42.5t44.5 -113.5t-46.5 -115.5t-118.5 -44.5zM211 470q36 0 55.5 22.5t19.5 58.5t-21.5 60t-57.5 24q-35 0 -55.5 -22t-20.5 -58t22.5 -60.5t57.5 -24.5z" />
    <glyph glyph-name="plusminus" unicode="&#xb1;" horiz-adv-x="558" 
d="M526 290h-187v-172h187v-118h-494v118h187v172h-187v118h187v188h120v-188h187v-118z" />
    <glyph glyph-name="acute" unicode="&#xb4;" horiz-adv-x="508" 
d="M174 616l-78 66l184 152l131 -77z" />
    <glyph glyph-name="uni00B5" unicode="&#xb5;" horiz-adv-x="630" 
d="M68 -194v759h151v-365q0 -45 21.5 -69.5t59.5 -24.5q56 0 77 29t21 87v343h151v-402q0 -50 41 -50q12 0 24 4v-106q-32 -19 -74 -19t-72 21t-37 65h-4q-36 -85 -145 -85q-33 0 -64 13v-200h-150z" />
    <glyph glyph-name="paragraph" unicode="&#xb6;" horiz-adv-x="631" 
d="M231 -211l-77 77q48 42 65 75.5t17 105.5v257q-18 -2 -28 -2q-171 0 -171 186q0 102 66.5 157.5t176.5 55.5h67v-676q0 -150 -116 -236zM437 0v701h108v-701h-108z" />
    <glyph glyph-name="periodcentered" unicode="&#xb7;" horiz-adv-x="295" 
d="M146 251q-40 0 -68.5 28t-28.5 68q0 43 28 72t69 29q43 0 71.5 -29t28.5 -72q0 -40 -29 -68t-71 -28z" />
    <glyph glyph-name="cedilla" unicode="&#xb8;" horiz-adv-x="508" 
d="M208 -261l-41 72q70 27 70 76q0 35 -26 58v4h113q17 -25 17 -67q0 -109 -133 -143z" />
    <glyph glyph-name="guillemotright" unicode="&#xbb;" horiz-adv-x="607" 
d="M120 26l-94 75l142 182l-142 183l94 75l202 -258zM379 26l-94 75l142 182l-142 183l94 75l202 -258z" />
    <glyph glyph-name="questiondown" unicode="&#xbf;" horiz-adv-x="453" 
d="M229 574q40 0 65 -25t25 -64q0 -41 -26.5 -67.5t-64.5 -26.5q-42 0 -67 25.5t-25 68.5q0 38 26 63.5t67 25.5zM270 318q67 -23 67 -83q0 -35 -25.5 -64.5t-55.5 -47t-55.5 -45t-25.5 -58.5q0 -30 19 -48t51 -18q64 0 116 66l98 -110q-77 -84 -231 -84q-97 0 -151 45.5
t-54 126.5q0 61 22.5 105t85.5 97z" />
    <glyph glyph-name="Agrave" unicode="&#xc0;" horiz-adv-x="666" 
d="M408 818l-78 -66l-237 141l131 77zM492 0l-44 161h-235l-45 -161h-154l212 701h213l213 -701h-160zM248 287h165l-27 98q-41 146 -53 210h-4q-15 -72 -52 -206z" />
    <glyph glyph-name="Aacute" unicode="&#xc1;" horiz-adv-x="666" 
d="M576 893l-237 -141l-78 66l184 152zM492 0l-44 161h-235l-45 -161h-154l212 701h213l213 -701h-160zM248 287h165l-27 98q-41 146 -53 210h-4q-15 -72 -52 -206z" />
    <glyph glyph-name="Acircumflex" unicode="&#xc2;" horiz-adv-x="666" 
d="M331 836l-154 -84l-50 89l204 125l207 -125l-56 -90zM492 0l-44 161h-235l-45 -161h-154l212 701h213l213 -701h-160zM248 287h165l-27 98q-41 146 -53 210h-4q-15 -72 -52 -206z" />
    <glyph glyph-name="Atilde" unicode="&#xc3;" horiz-adv-x="666" 
d="M264 814q-45 0 -76 -44l-59 86q15 25 45.5 47t69.5 22q33 0 85 -20.5t73 -20.5q26 0 41 9.5t34 34.5l59 -86q-15 -25 -45.5 -47t-69.5 -22q-29 0 -84 20.5t-73 20.5zM492 0l-44 161h-235l-45 -161h-154l212 701h213l213 -701h-160zM248 287h165l-27 98q-41 146 -53 210
h-4q-15 -72 -52 -206z" />
    <glyph glyph-name="Adieresis" unicode="&#xc4;" horiz-adv-x="666" 
d="M208 774q-34 0 -57 23t-23 56t23 56t57 23t57 -23t23 -56t-23 -56t-57 -23zM458 774q-34 0 -57 23t-23 56t23 56t57 23t57 -23t23 -56t-23 -56t-57 -23zM492 0l-44 161h-235l-45 -161h-154l212 701h213l213 -701h-160zM248 287h165l-27 98q-41 146 -53 210h-4
q-15 -72 -52 -206z" />
    <glyph glyph-name="Aring" unicode="&#xc5;" horiz-adv-x="666" 
d="M331 724q-60 0 -95 34t-35 88q0 55 36.5 91.5t95.5 36.5q60 0 95.5 -34t35.5 -88t-37 -91t-96 -37zM332 902q-53 0 -53 -52q0 -24 13.5 -39t39.5 -15q54 0 54 52q0 54 -54 54zM492 0l-44 161h-235l-45 -161h-154l212 701h213l213 -701h-160zM248 287h165l-27 98
q-41 146 -53 210h-4q-15 -72 -52 -206z" />
    <glyph glyph-name="AE" unicode="&#xc6;" horiz-adv-x="925" 
d="M-6 0l350 701h514v-126h-269v-156h232v-126h-232v-167h281v-126h-427v181h-201l-89 -181h-159zM304 305h139v274h-4z" />
    <glyph glyph-name="Ccedilla" unicode="&#xc7;" horiz-adv-x="591" 
d="M345 -10q-155 0 -227 94t-72 259q0 170 80 268.5t230 98.5q145 0 219 -82l-100 -111q-15 18 -28 29.5t-40.5 23t-61.5 11.5q-142 0 -142 -228q0 -111 39 -171.5t116 -60.5q75 0 125 59l84 -108q-27 -33 -83.5 -57.5t-138.5 -24.5zM249 -261l-41 72q70 27 70 76
q0 35 -26 58v4h113q17 -25 17 -67q0 -109 -133 -143z" />
    <glyph glyph-name="Egrave" unicode="&#xc8;" horiz-adv-x="563" 
d="M297 752l-237 141l131 77l184 -152zM81 0v701h415v-126h-263v-156h226v-126h-226v-167h275v-126h-427z" />
    <glyph glyph-name="Eacute" unicode="&#xc9;" horiz-adv-x="563" 
d="M284 752l-78 66l184 152l131 -77zM81 0v701h415v-126h-263v-156h226v-126h-226v-167h275v-126h-427z" />
    <glyph glyph-name="Ecircumflex" unicode="&#xca;" horiz-adv-x="563" 
d="M135 752l-50 89l204 125l207 -125l-56 -90l-151 85zM81 0v701h415v-126h-263v-156h226v-126h-226v-167h275v-126h-427z" />
    <glyph glyph-name="Edieresis" unicode="&#xcb;" horiz-adv-x="563" 
d="M166 774q-34 0 -57 23t-23 56t23 56t57 23t57 -23t23 -56t-23 -56t-57 -23zM416 774q-34 0 -57 23t-23 56t23 56t57 23t57 -23t23 -56t-23 -56t-57 -23zM81 0v701h415v-126h-263v-156h226v-126h-226v-167h275v-126h-427z" />
    <glyph glyph-name="Igrave" unicode="&#xcc;" horiz-adv-x="331" 
d="M177 752l-237 141l131 77l184 -152zM89 0v701h153v-701h-153z" />
    <glyph glyph-name="Iacute" unicode="&#xcd;" horiz-adv-x="331" 
d="M148 752l-78 66l184 152l131 -77zM89 0v701h153v-701h-153z" />
    <glyph glyph-name="Icircumflex" unicode="&#xce;" horiz-adv-x="331" 
d="M10 752l-50 89l204 125l207 -125l-56 -90l-151 85zM89 0v701h153v-701h-153z" />
    <glyph glyph-name="Idieresis" unicode="&#xcf;" horiz-adv-x="331" 
d="M41 774q-34 0 -57 23t-23 56t23 56t57 23t57 -23t23 -56t-23 -56t-57 -23zM291 774q-34 0 -57 23t-23 56t23 56t57 23t57 -23t23 -56t-23 -56t-57 -23zM89 0v701h153v-701h-153z" />
    <glyph glyph-name="Eth" unicode="&#xd0;" horiz-adv-x="684" 
d="M307 701q170 0 250.5 -83t80.5 -252q0 -72 -16 -133.5t-51.5 -116t-102 -85.5t-159.5 -31h-220v317h-77v101h77v283h218zM297 126q101 0 142.5 58t41.5 168q0 120 -48 171.5t-137 51.5h-55v-157h120v-101h-120v-191h56z" />
    <glyph glyph-name="Ntilde" unicode="&#xd1;" horiz-adv-x="732" 
d="M221 770l-59 86q15 25 45.5 47t69.5 22q33 0 85 -20.5t73 -20.5q26 0 41 9.5t34 34.5l59 -86q-15 -25 -45.5 -47t-69.5 -22q-29 0 -84 20.5t-73 20.5q-45 0 -76 -44zM83 0v701h183l143 -276q66 -127 99 -215h4q-8 98 -8 269v222h145v-701h-179l-154 296q-46 90 -93 214
h-4q10 -100 10 -245v-265h-146z" />
    <glyph glyph-name="Ograve" unicode="&#xd2;" horiz-adv-x="699" 
d="M365 752l-237 141l131 77l184 -152zM344 -10q-138 0 -211.5 83.5t-73.5 272.5q0 184 80 274.5t214 90.5q287 0 287 -357q0 -183 -80.5 -273.5t-215.5 -90.5zM353 117q63 0 96 53t33 177q0 126 -35.5 181.5t-102.5 55.5q-128 0 -128 -228q0 -128 35 -183.5t102 -55.5z" />
    <glyph glyph-name="Oacute" unicode="&#xd3;" horiz-adv-x="699" 
d="M341 752l-78 66l184 152l131 -77zM344 -10q-138 0 -211.5 83.5t-73.5 272.5q0 184 80 274.5t214 90.5q287 0 287 -357q0 -183 -80.5 -273.5t-215.5 -90.5zM353 117q63 0 96 53t33 177q0 126 -35.5 181.5t-102.5 55.5q-128 0 -128 -228q0 -128 35 -183.5t102 -55.5z" />
    <glyph glyph-name="Ocircumflex" unicode="&#xd4;" horiz-adv-x="699" 
d="M194 752l-50 89l204 125l207 -125l-56 -90l-151 85zM344 -10q-138 0 -211.5 83.5t-73.5 272.5q0 184 80 274.5t214 90.5q287 0 287 -357q0 -183 -80.5 -273.5t-215.5 -90.5zM353 117q63 0 96 53t33 177q0 126 -35.5 181.5t-102.5 55.5q-128 0 -128 -228q0 -128 35 -183.5
t102 -55.5z" />
    <glyph glyph-name="Otilde" unicode="&#xd5;" horiz-adv-x="699" 
d="M205 770l-59 86q15 25 45.5 47t69.5 22q33 0 85 -20.5t73 -20.5q26 0 41 9.5t34 34.5l59 -86q-15 -25 -45.5 -47t-69.5 -22q-29 0 -84 20.5t-73 20.5q-45 0 -76 -44zM344 -10q-138 0 -211.5 83.5t-73.5 272.5q0 184 80 274.5t214 90.5q287 0 287 -357
q0 -183 -80.5 -273.5t-215.5 -90.5zM353 117q63 0 96 53t33 177q0 126 -35.5 181.5t-102.5 55.5q-128 0 -128 -228q0 -128 35 -183.5t102 -55.5z" />
    <glyph glyph-name="Odieresis" unicode="&#xd6;" horiz-adv-x="699" 
d="M224 774q-34 0 -57 23t-23 56t23 56t57 23t57 -23t23 -56t-23 -56t-57 -23zM474 774q-34 0 -57 23t-23 56t23 56t57 23t57 -23t23 -56t-23 -56t-57 -23zM344 -10q-138 0 -211.5 83.5t-73.5 272.5q0 184 80 274.5t214 90.5q287 0 287 -357q0 -183 -80.5 -273.5
t-215.5 -90.5zM353 117q63 0 96 53t33 177q0 126 -35.5 181.5t-102.5 55.5q-128 0 -128 -228q0 -128 35 -183.5t102 -55.5z" />
    <glyph glyph-name="multiply" unicode="&#xd7;" horiz-adv-x="558" 
d="M138 126l-82 82l145 141l-145 141l82 82l141 -145l141 145l82 -82l-145 -141l145 -141l-82 -82l-141 145z" />
    <glyph glyph-name="Oslash" unicode="&#xd8;" horiz-adv-x="699" 
d="M344 -10q-86 0 -148 29l-19 -29h-131v4l64 97q-64 89 -64 255q0 183 84.5 274t222.5 91q85 0 148 -31l21 31h131v-4l-66 -99q66 -90 66 -254q0 -183 -85 -273.5t-224 -90.5zM214 247l208 314q-32 23 -78 23q-141 0 -141 -228q0 -62 11 -109zM353 117q142 0 142 230
q0 59 -11 106l-208 -313q33 -23 77 -23z" />
    <glyph glyph-name="Ugrave" unicode="&#xd9;" horiz-adv-x="699" 
d="M347 752l-237 141l131 77l184 -152zM335 -10q-130 0 -193.5 69t-63.5 184v458h153v-428q0 -77 29.5 -116t95.5 -39q56 0 84 32.5t28 103.5v447h153v-425q0 -150 -79 -218t-207 -68z" />
    <glyph glyph-name="Uacute" unicode="&#xda;" horiz-adv-x="699" 
d="M350 752l-78 66l184 152l131 -77zM335 -10q-130 0 -193.5 69t-63.5 184v458h153v-428q0 -77 29.5 -116t95.5 -39q56 0 84 32.5t28 103.5v447h153v-425q0 -150 -79 -218t-207 -68z" />
    <glyph glyph-name="Ucircumflex" unicode="&#xdb;" horiz-adv-x="699" 
d="M194 752l-50 89l204 125l207 -125l-56 -90l-151 85zM335 -10q-130 0 -193.5 69t-63.5 184v458h153v-428q0 -77 29.5 -116t95.5 -39q56 0 84 32.5t28 103.5v447h153v-425q0 -150 -79 -218t-207 -68z" />
    <glyph glyph-name="Udieresis" unicode="&#xdc;" horiz-adv-x="699" 
d="M224 774q-34 0 -57 23t-23 56t23 56t57 23t57 -23t23 -56t-23 -56t-57 -23zM474 774q-34 0 -57 23t-23 56t23 56t57 23t57 -23t23 -56t-23 -56t-57 -23zM335 -10q-130 0 -193.5 69t-63.5 184v458h153v-428q0 -77 29.5 -116t95.5 -39q56 0 84 32.5t28 103.5v447h153v-425
q0 -150 -79 -218t-207 -68z" />
    <glyph glyph-name="Yacute" unicode="&#xdd;" horiz-adv-x="627" 
d="M313 752l-78 66l184 152l131 -77zM237 0v225l-236 476h170l143 -323h4l146 323h162l-236 -476v-225h-153z" />
    <glyph glyph-name="Thorn" unicode="&#xde;" horiz-adv-x="590" 
d="M81 0v701h153v-116h88q244 0 244 -208q0 -51 -14.5 -93t-45 -77t-85.5 -54.5t-130 -19.5h-57v-133h-153zM277 258q76 0 103.5 27t27.5 70q0 52 -27 76.5t-86 24.5h-61v-198h43z" />
    <glyph glyph-name="germandbls" unicode="&#xdf;" horiz-adv-x="645" 
d="M414 -12q-88 0 -156 38l60 117q51 -35 106 -35q65 0 65 54q0 28 -31.5 52t-68.5 40t-68.5 47t-31.5 71q0 39 48 102.5t48 103.5q0 74 -78 74q-48 0 -70 -29t-22 -94v-529h-146v525q0 121 61.5 184.5t176.5 63.5q107 0 165 -49t58 -124q0 -39 -14 -74t-30.5 -55.5
t-30.5 -41.5t-14 -34q0 -12 19.5 -25.5t47.5 -29.5t56 -36.5t47.5 -56t19.5 -80.5q0 -77 -54.5 -128t-162.5 -51z" />
    <glyph glyph-name="agrave" unicode="&#xe0;" 
d="M261 616l-237 141l131 77l184 -152zM206 -9q-79 0 -123 45.5t-44 110.5q0 95 79 141.5t216 39.5v44q0 82 -81 82q-70 0 -97 -64l-107 79q75 106 203 106q112 0 168 -43.5t56 -143.5v-226q0 -46 39 -46h16v-104q-30 -19 -75 -19q-72 0 -102 61h-4q-47 -63 -144 -63z
M247 106q57 0 87 40v80q-148 10 -148 -65q0 -25 16 -40t45 -15z" />
    <glyph glyph-name="aacute" unicode="&#xe1;" 
d="M264 616l-78 66l184 152l131 -77zM206 -9q-79 0 -123 45.5t-44 110.5q0 95 79 141.5t216 39.5v44q0 82 -81 82q-70 0 -97 -64l-107 79q75 106 203 106q112 0 168 -43.5t56 -143.5v-226q0 -46 39 -46h16v-104q-30 -19 -75 -19q-72 0 -102 61h-4q-47 -63 -144 -63zM247 106
q57 0 87 40v80q-148 10 -148 -65q0 -25 16 -40t45 -15z" />
    <glyph glyph-name="acircumflex" unicode="&#xe2;" 
d="M122 616l-50 89l204 125l207 -125l-56 -90l-151 85zM206 -9q-79 0 -123 45.5t-44 110.5q0 95 79 141.5t216 39.5v44q0 82 -81 82q-70 0 -97 -64l-107 79q75 106 203 106q112 0 168 -43.5t56 -143.5v-226q0 -46 39 -46h16v-104q-30 -19 -75 -19q-72 0 -102 61h-4
q-47 -63 -144 -63zM247 106q57 0 87 40v80q-148 10 -148 -65q0 -25 16 -40t45 -15z" />
    <glyph glyph-name="atilde" unicode="&#xe3;" 
d="M133 634l-59 86q15 25 45.5 47t69.5 22q33 0 85 -20.5t73 -20.5q26 0 41 9.5t34 34.5l59 -86q-15 -25 -45.5 -47t-69.5 -22q-29 0 -84 20.5t-73 20.5q-45 0 -76 -44zM206 -9q-79 0 -123 45.5t-44 110.5q0 95 79 141.5t216 39.5v44q0 82 -81 82q-70 0 -97 -64l-107 79
q75 106 203 106q112 0 168 -43.5t56 -143.5v-226q0 -46 39 -46h16v-104q-30 -19 -75 -19q-72 0 -102 61h-4q-47 -63 -144 -63zM247 106q57 0 87 40v80q-148 10 -148 -65q0 -25 16 -40t45 -15z" />
    <glyph glyph-name="adieresis" unicode="&#xe4;" 
d="M153 638q-34 0 -57 23t-23 56t23 56t57 23t57 -23t23 -56t-23 -56t-57 -23zM403 638q-34 0 -57 23t-23 56t23 56t57 23t57 -23t23 -56t-23 -56t-57 -23zM206 -9q-79 0 -123 45.5t-44 110.5q0 95 79 141.5t216 39.5v44q0 82 -81 82q-70 0 -97 -64l-107 79q75 106 203 106
q112 0 168 -43.5t56 -143.5v-226q0 -46 39 -46h16v-104q-30 -19 -75 -19q-72 0 -102 61h-4q-47 -63 -144 -63zM247 106q57 0 87 40v80q-148 10 -148 -65q0 -25 16 -40t45 -15z" />
    <glyph glyph-name="aring" unicode="&#xe5;" 
d="M276 588q-60 0 -95 34t-35 88q0 55 36.5 91.5t95.5 36.5q60 0 95.5 -34t35.5 -88t-36.5 -91t-96.5 -37zM277 660q54 0 54 52q0 54 -54 54q-53 0 -53 -52q0 -24 13.5 -39t39.5 -15zM206 -9q-79 0 -123 45.5t-44 110.5q0 95 79 141.5t216 39.5v44q0 82 -81 82
q-70 0 -97 -64l-107 79q75 106 203 106q112 0 168 -43.5t56 -143.5v-226q0 -46 39 -46h16v-104q-30 -19 -75 -19q-72 0 -102 61h-4q-47 -63 -144 -63zM247 106q57 0 87 40v80q-148 10 -148 -65q0 -25 16 -40t45 -15z" />
    <glyph glyph-name="ae" unicode="&#xe6;" horiz-adv-x="867" 
d="M208 -14q-97 0 -145.5 45t-48.5 114q0 190 326 190v29q0 42 -22 66t-64 24q-76 0 -124 -63l-88 104q63 80 214 80q130 0 177 -70h4q57 71 158 71q112 0 173 -62.5t61 -172.5q0 -66 -13 -100h-335q7 -69 41 -101t99 -32q77 0 132 57l76 -99q-75 -77 -222 -77
q-143 0 -197 83h-4q-25 -42 -67.5 -64t-130.5 -22zM483 345h198v16q0 101 -94 101q-43 0 -70.5 -30t-33.5 -87zM238 100q102 0 102 101v35q-94 0 -134 -16.5t-40 -59.5q0 -22 18.5 -41t53.5 -19z" />
    <glyph glyph-name="ccedilla" unicode="&#xe7;" horiz-adv-x="504" 
d="M284 -11q-246 0 -246 288q0 145 71 222t190 77q134 0 195 -82l-101 -96q-31 54 -94 54q-52 0 -79.5 -37.5t-27.5 -125.5q0 -176 106 -176q65 0 96 55l96 -89q-67 -90 -206 -90zM246 -261l-41 72q70 27 70 76q0 35 -26 58v4h113q17 -25 17 -67q0 -109 -133 -143z" />
    <glyph glyph-name="egrave" unicode="&#xe8;" horiz-adv-x="571" 
d="M301 616l-237 141l131 77l184 -152zM307 -11q-269 0 -269 295q0 137 71 214.5t194 77.5q107 0 167 -62t60 -167q0 -50 -7 -101h-337q3 -138 138 -138q75 0 124 51l66 -107q-77 -63 -207 -63zM189 346h199v15q0 101 -89 101q-50 0 -79 -32.5t-31 -83.5z" />
    <glyph glyph-name="eacute" unicode="&#xe9;" horiz-adv-x="571" 
d="M295 616l-78 66l184 152l131 -77zM307 -11q-269 0 -269 295q0 137 71 214.5t194 77.5q107 0 167 -62t60 -167q0 -50 -7 -101h-337q3 -138 138 -138q75 0 124 51l66 -107q-77 -63 -207 -63zM189 346h199v15q0 101 -89 101q-50 0 -79 -32.5t-31 -83.5z" />
    <glyph glyph-name="ecircumflex" unicode="&#xea;" horiz-adv-x="571" 
d="M130 616l-50 89l204 125l207 -125l-56 -90l-151 85zM307 -11q-269 0 -269 295q0 137 71 214.5t194 77.5q107 0 167 -62t60 -167q0 -50 -7 -101h-337q3 -138 138 -138q75 0 124 51l66 -107q-77 -63 -207 -63zM189 346h199v15q0 101 -89 101q-50 0 -79 -32.5t-31 -83.5z
" />
    <glyph glyph-name="edieresis" unicode="&#xeb;" horiz-adv-x="571" 
d="M160 638q-34 0 -57 23t-23 56t23 56t57 23t57 -23t23 -56t-23 -56t-57 -23zM410 638q-34 0 -57 23t-23 56t23 56t57 23t57 -23t23 -56t-23 -56t-57 -23zM307 -11q-269 0 -269 295q0 137 71 214.5t194 77.5q107 0 167 -62t60 -167q0 -50 -7 -101h-337q3 -138 138 -138
q75 0 124 51l66 -107q-77 -63 -207 -63zM189 346h199v15q0 101 -89 101q-50 0 -79 -32.5t-31 -83.5z" />
    <glyph glyph-name="igrave" unicode="&#xec;" horiz-adv-x="295" 
d="M158 616l-237 141l131 77l184 -152zM72 0v565h151v-565h-151z" />
    <glyph glyph-name="iacute" unicode="&#xed;" horiz-adv-x="295" 
d="M132 616l-78 66l184 152l131 -77zM72 0v565h151v-565h-151z" />
    <glyph glyph-name="icircumflex" unicode="&#xee;" horiz-adv-x="295" 
d="M-8 616l-50 89l204 125l207 -125l-56 -90l-151 85zM72 0v565h151v-565h-151z" />
    <glyph glyph-name="idieresis" unicode="&#xef;" horiz-adv-x="295" 
d="M23 638q-34 0 -57 23t-23 56t23 56t57 23t57 -23t23 -56t-23 -56t-57 -23zM273 638q-34 0 -57 23t-23 56t23 56t57 23t57 -23t23 -56t-23 -56t-57 -23zM72 0v565h151v-565h-151z" />
    <glyph glyph-name="eth" unicode="&#xf0;" horiz-adv-x="557" 
d="M268 -9q-104 0 -165 58.5t-61 165.5q0 117 63.5 177t150.5 60q50 0 86 -10q-16 48 -53 95l-175 -70v84l112 45q-50 38 -165 95v10h212q41 -21 78 -55l152 61v-84l-96 -39q103 -133 103 -292q0 -147 -65 -224t-177 -77zM277 112q52 0 75.5 34.5t23.5 113.5q0 43 -4 64
q-39 15 -88 15q-50 0 -74.5 -26t-24.5 -87q0 -56 26.5 -85t65.5 -29z" />
    <glyph glyph-name="ntilde" unicode="&#xf1;" horiz-adv-x="611" 
d="M161 634l-59 86q15 25 45.5 47t69.5 22q33 0 85 -20.5t73 -20.5q26 0 41 9.5t34 34.5l59 -86q-15 -25 -45.5 -47t-69.5 -22q-29 0 -84 20.5t-73 20.5q-45 0 -76 -44zM68 0v565h118l30 -53h4q25 31 66.5 49t85.5 18q84 0 128.5 -47t44.5 -141v-391h-151v359q0 44 -20 68
t-58 24q-69 0 -97 -67v-384h-151z" />
    <glyph glyph-name="ograve" unicode="&#xf2;" horiz-adv-x="592" 
d="M299 616l-237 141l131 77l184 -152zM293 -11q-138 0 -196.5 75t-58.5 216q0 138 63 216.5t197 78.5q139 0 197.5 -75t58.5 -216q0 -138 -63.5 -216.5t-197.5 -78.5zM298 107q56 0 78.5 41t22.5 130q0 90 -25 134.5t-82 44.5q-51 0 -75 -42t-24 -129q0 -90 24.5 -134.5
t80.5 -44.5z" />
    <glyph glyph-name="oacute" unicode="&#xf3;" horiz-adv-x="592" 
d="M294 616l-78 66l184 152l131 -77zM293 -11q-138 0 -196.5 75t-58.5 216q0 138 63 216.5t197 78.5q139 0 197.5 -75t58.5 -216q0 -138 -63.5 -216.5t-197.5 -78.5zM298 107q56 0 78.5 41t22.5 130q0 90 -25 134.5t-82 44.5q-51 0 -75 -42t-24 -129q0 -90 24.5 -134.5
t80.5 -44.5z" />
    <glyph glyph-name="ocircumflex" unicode="&#xf4;" horiz-adv-x="592" 
d="M140 616l-50 89l204 125l207 -125l-56 -90l-151 85zM293 -11q-138 0 -196.5 75t-58.5 216q0 138 63 216.5t197 78.5q139 0 197.5 -75t58.5 -216q0 -138 -63.5 -216.5t-197.5 -78.5zM298 107q56 0 78.5 41t22.5 130q0 90 -25 134.5t-82 44.5q-51 0 -75 -42t-24 -129
q0 -90 24.5 -134.5t80.5 -44.5z" />
    <glyph glyph-name="otilde" unicode="&#xf5;" horiz-adv-x="592" 
d="M151 634l-59 86q15 25 45.5 47t69.5 22q33 0 85 -20.5t73 -20.5q26 0 41 9.5t34 34.5l59 -86q-15 -25 -45.5 -47t-69.5 -22q-29 0 -84 20.5t-73 20.5q-45 0 -76 -44zM293 -11q-138 0 -196.5 75t-58.5 216q0 138 63 216.5t197 78.5q139 0 197.5 -75t58.5 -216
q0 -138 -63.5 -216.5t-197.5 -78.5zM298 107q56 0 78.5 41t22.5 130q0 90 -25 134.5t-82 44.5q-51 0 -75 -42t-24 -129q0 -90 24.5 -134.5t80.5 -44.5z" />
    <glyph glyph-name="odieresis" unicode="&#xf6;" horiz-adv-x="592" 
d="M171 638q-34 0 -57 23t-23 56t23 56t57 23t57 -23t23 -56t-23 -56t-57 -23zM421 638q-34 0 -57 23t-23 56t23 56t57 23t57 -23t23 -56t-23 -56t-57 -23zM293 -11q-138 0 -196.5 75t-58.5 216q0 138 63 216.5t197 78.5q139 0 197.5 -75t58.5 -216q0 -138 -63.5 -216.5
t-197.5 -78.5zM298 107q56 0 78.5 41t22.5 130q0 90 -25 134.5t-82 44.5q-51 0 -75 -42t-24 -129q0 -90 24.5 -134.5t80.5 -44.5z" />
    <glyph glyph-name="divide" unicode="&#xf7;" horiz-adv-x="558" 
d="M278 456q-35 0 -58.5 23.5t-23.5 57.5t23.5 57.5t58.5 23.5t58.5 -23.5t23.5 -57.5t-23.5 -57.5t-58.5 -23.5zM32 290v118h494v-118h-494zM278 79q-35 0 -58.5 23.5t-23.5 57.5t23.5 57.5t58.5 23.5t58.5 -23.5t23.5 -57.5t-23.5 -57.5t-58.5 -23.5z" />
    <glyph glyph-name="oslash" unicode="&#xf8;" horiz-adv-x="592" 
d="M38 -11v4l53 78q-53 71 -53 209t63 216.5t197 78.5q69 0 120 -20l14 20h122v-4l-53 -79q53 -70 53 -208t-63.5 -216.5t-197.5 -78.5q-69 0 -120 20l-13 -20h-122zM193 222l150 222q-20 13 -51 13q-103 0 -103 -171q0 -28 4 -64zM298 107q57 0 81 41.5t24 129.5
q0 27 -4 63l-151 -222q20 -12 50 -12z" />
    <glyph glyph-name="ugrave" unicode="&#xf9;" horiz-adv-x="615" 
d="M300 616l-237 141l131 77l184 -152zM245 -11q-91 0 -135 48.5t-44 148.5v379h151v-365q0 -46 21 -70t60 -24q68 0 98 68v391h151v-565h-128l-21 52h-4q-52 -63 -149 -63z" />
    <glyph glyph-name="uacute" unicode="&#xfa;" horiz-adv-x="615" 
d="M309 616l-78 66l184 152l131 -77zM245 -11q-91 0 -135 48.5t-44 148.5v379h151v-365q0 -46 21 -70t60 -24q68 0 98 68v391h151v-565h-128l-21 52h-4q-52 -63 -149 -63z" />
    <glyph glyph-name="ucircumflex" unicode="&#xfb;" horiz-adv-x="615" 
d="M152 616l-50 89l204 125l207 -125l-56 -90l-151 85zM245 -11q-91 0 -135 48.5t-44 148.5v379h151v-365q0 -46 21 -70t60 -24q68 0 98 68v391h151v-565h-128l-21 52h-4q-52 -63 -149 -63z" />
    <glyph glyph-name="udieresis" unicode="&#xfc;" horiz-adv-x="615" 
d="M182 638q-34 0 -57 23t-23 56t23 56t57 23t57 -23t23 -56t-23 -56t-57 -23zM432 638q-34 0 -57 23t-23 56t23 56t57 23t57 -23t23 -56t-23 -56t-57 -23zM245 -11q-91 0 -135 48.5t-44 148.5v379h151v-365q0 -46 21 -70t60 -24q68 0 98 68v391h151v-565h-128l-21 52h-4
q-52 -63 -149 -63z" />
    <glyph glyph-name="yacute" unicode="&#xfd;" horiz-adv-x="545" 
d="M282 616l-78 66l184 152l131 -77zM132 -213q-58 0 -92 17l25 124q26 -14 61 -14q83 0 91 88l-212 563h169l63 -192q38 -117 50 -197h4q16 104 42 197l53 192h156l-190 -593q-28 -86 -78.5 -135.5t-141.5 -49.5z" />
    <glyph glyph-name="thorn" unicode="&#xfe;" horiz-adv-x="597" 
d="M68 -194v952h147v-241h4q16 23 50.5 40.5t80.5 17.5q95 0 152 -70t57 -199q0 -149 -72.5 -229t-181.5 -80q-47 0 -87 9v-200h-150zM287 119q58 0 88 39.5t30 134.5q0 80 -29.5 120t-76.5 40q-54 0 -83 -43v-274q29 -17 71 -17z" />
    <glyph glyph-name="ydieresis" unicode="&#xff;" horiz-adv-x="545" 
d="M147 638q-34 0 -57 23t-23 56t23 56t57 23t57 -23t23 -56t-23 -56t-57 -23zM397 638q-34 0 -57 23t-23 56t23 56t57 23t57 -23t23 -56t-23 -56t-57 -23zM132 -213q-58 0 -92 17l25 124q26 -14 61 -14q83 0 91 88l-212 563h169l63 -192q38 -117 50 -197h4q16 104 42 197
l53 192h156l-190 -593q-28 -86 -78.5 -135.5t-141.5 -49.5z" />
    <glyph glyph-name="Amacron" unicode="&#x100;" horiz-adv-x="666" 
d="M491 894v-119h-316v119h316zM492 0l-44 161h-235l-45 -161h-154l212 701h213l213 -701h-160zM248 287h165l-27 98q-41 146 -53 210h-4q-15 -72 -52 -206z" />
    <glyph glyph-name="amacron" unicode="&#x101;" 
d="M120 639v119h316v-119h-316zM206 -9q-79 0 -123 45.5t-44 110.5q0 95 79 141.5t216 39.5v44q0 82 -81 82q-70 0 -97 -64l-107 79q75 106 203 106q112 0 168 -43.5t56 -143.5v-226q0 -46 39 -46h16v-104q-30 -19 -75 -19q-72 0 -102 61h-4q-47 -63 -144 -63zM247 106
q57 0 87 40v80q-148 10 -148 -65q0 -25 16 -40t45 -15z" />
    <glyph glyph-name="Abreve" unicode="&#x102;" horiz-adv-x="666" 
d="M333 752q-140 0 -205 125l97 57q32 -75 108 -75q44 0 70.5 23.5t38.5 51.5l96 -57q-65 -125 -205 -125zM492 0l-44 161h-235l-45 -161h-154l212 701h213l213 -701h-160zM248 287h165l-27 98q-41 146 -53 210h-4q-15 -72 -52 -206z" />
    <glyph glyph-name="abreve" unicode="&#x103;" 
d="M278 616q-140 0 -205 125l97 57q32 -75 108 -75q44 0 70.5 23.5t38.5 51.5l96 -57q-65 -125 -205 -125zM206 -9q-79 0 -123 45.5t-44 110.5q0 95 79 141.5t216 39.5v44q0 82 -81 82q-70 0 -97 -64l-107 79q75 106 203 106q112 0 168 -43.5t56 -143.5v-226q0 -46 39 -46
h16v-104q-30 -19 -75 -19q-72 0 -102 61h-4q-47 -63 -144 -63zM247 106q57 0 87 40v80q-148 10 -148 -65q0 -25 16 -40t45 -15z" />
    <glyph glyph-name="Aogonek" unicode="&#x104;" horiz-adv-x="666" 
d="M636 -150l28 -85q-44 -25 -109 -25q-70 0 -103.5 33t-33.5 84q0 79 79 143h-5l-44 161h-235l-45 -161h-154l212 701h213l213 -701q-123 -69 -123 -126q0 -42 45 -42q29 0 62 18zM248 287h165l-27 98q-41 146 -53 210h-4q-15 -72 -52 -206z" />
    <glyph glyph-name="aogonek" unicode="&#x105;" 
d="M515 -138l28 -85q-44 -25 -109 -25q-70 0 -103.5 33t-33.5 84q0 80 85 148q-16 14 -28 37h-4q-47 -63 -144 -63q-79 0 -123 45.5t-44 110.5q0 95 79 141.5t216 39.5v44q0 82 -81 82q-70 0 -97 -64l-107 79q75 106 203 106q112 0 168 -43.5t56 -143.5v-226q0 -46 39 -46
h16v-104l-9 -5q-114 -65 -114 -121q0 -42 45 -42q29 0 62 18zM334 146v80q-148 10 -148 -65q0 -25 16 -40t45 -15q57 0 87 40z" />
    <glyph glyph-name="Cacute" unicode="&#x106;" horiz-adv-x="591" 
d="M354 752l-78 66l184 152l131 -77zM345 -10q-155 0 -227 94t-72 259q0 170 80 268.5t230 98.5q145 0 219 -82l-100 -111q-15 18 -28 29.5t-40.5 23t-61.5 11.5q-142 0 -142 -228q0 -111 39 -171.5t116 -60.5q75 0 125 59l84 -108q-27 -33 -83.5 -57.5t-138.5 -24.5z" />
    <glyph glyph-name="cacute" unicode="&#x107;" horiz-adv-x="504" 
d="M293 616l-78 66l184 152l131 -77zM284 -11q-246 0 -246 288q0 145 71 222t190 77q134 0 195 -82l-101 -96q-31 54 -94 54q-52 0 -79.5 -37.5t-27.5 -125.5q0 -176 106 -176q65 0 96 55l96 -89q-67 -90 -206 -90z" />
    <glyph glyph-name="Ccircumflex" unicode="&#x108;" horiz-adv-x="591" 
d="M180 752l-50 89l204 125l207 -125l-56 -90l-151 85zM345 -10q-155 0 -227 94t-72 259q0 170 80 268.5t230 98.5q145 0 219 -82l-100 -111q-15 18 -28 29.5t-40.5 23t-61.5 11.5q-142 0 -142 -228q0 -111 39 -171.5t116 -60.5q75 0 125 59l84 -108q-27 -33 -83.5 -57.5
t-138.5 -24.5z" />
    <glyph glyph-name="ccircumflex" unicode="&#x109;" horiz-adv-x="504" 
d="M127 616l-50 89l204 125l207 -125l-56 -90l-151 85zM284 -11q-246 0 -246 288q0 145 71 222t190 77q134 0 195 -82l-101 -96q-31 54 -94 54q-52 0 -79.5 -37.5t-27.5 -125.5q0 -176 106 -176q65 0 96 55l96 -89q-67 -90 -206 -90z" />
    <glyph glyph-name="Cdotaccent" unicode="&#x10a;" horiz-adv-x="591" 
d="M335 768q-39 0 -65.5 26t-26.5 65t26.5 65t65.5 26t65.5 -26t26.5 -65t-26.5 -65t-65.5 -26zM345 -10q-155 0 -227 94t-72 259q0 170 80 268.5t230 98.5q145 0 219 -82l-100 -111q-15 18 -28 29.5t-40.5 23t-61.5 11.5q-142 0 -142 -228q0 -111 39 -171.5t116 -60.5
q75 0 125 59l84 -108q-27 -33 -83.5 -57.5t-138.5 -24.5z" />
    <glyph glyph-name="cdotaccent" unicode="&#x10b;" horiz-adv-x="504" 
d="M282 632q-40 0 -66 26t-26 65t26 65t66 26t66 -26t26 -65t-26 -65t-66 -26zM284 -11q-246 0 -246 288q0 145 71 222t190 77q134 0 195 -82l-101 -96q-31 54 -94 54q-52 0 -79.5 -37.5t-27.5 -125.5q0 -176 106 -176q65 0 96 55l96 -89q-67 -90 -206 -90z" />
    <glyph glyph-name="Ccaron" unicode="&#x10c;" horiz-adv-x="591" 
d="M349 742l-204 125l50 89l154 -84l151 85l56 -90zM345 -10q-155 0 -227 94t-72 259q0 170 80 268.5t230 98.5q145 0 219 -82l-100 -111q-15 18 -28 29.5t-40.5 23t-61.5 11.5q-142 0 -142 -228q0 -111 39 -171.5t116 -60.5q75 0 125 59l84 -108q-27 -33 -83.5 -57.5
t-138.5 -24.5z" />
    <glyph glyph-name="ccaron" unicode="&#x10d;" horiz-adv-x="504" 
d="M291 606l-204 125l50 89l154 -84l151 85l56 -90zM284 -11q-246 0 -246 288q0 145 71 222t190 77q134 0 195 -82l-101 -96q-31 54 -94 54q-52 0 -79.5 -37.5t-27.5 -125.5q0 -176 106 -176q65 0 96 55l96 -89q-67 -90 -206 -90z" />
    <glyph glyph-name="Dcaron" unicode="&#x10e;" horiz-adv-x="676" 
d="M336 742l-204 125l50 89l154 -84l151 85l56 -90zM81 0v701h218q170 0 250.5 -83t80.5 -252q0 -72 -16 -133.5t-51.5 -116t-102 -85.5t-159.5 -31h-220zM233 126h56q101 0 142.5 58t41.5 168q0 120 -48 171.5t-137 51.5h-55v-449z" />
    <glyph glyph-name="dcaron" unicode="&#x10f;" horiz-adv-x="750" 
d="M606 457l-40 56q89 40 89 96q0 47 -58 66v12q0 30 21 51.5t54 21.5q41 0 65.5 -28.5t24.5 -72.5q0 -68 -46.5 -124.5t-109.5 -77.5zM244 -9q-94 0 -150 65t-56 197q0 85 21.5 149t58 98.5t78.5 51t89 16.5q50 0 93 -12v202h150v-758h-118l-24 46h-4q-55 -55 -138 -55z
M289 110q58 0 93 48v268q-25 20 -75 20q-26 0 -45 -7t-36 -25.5t-26 -55.5t-9 -92q0 -79 26 -117.5t72 -38.5z" />
    <glyph glyph-name="Dcroat" unicode="&#x110;" horiz-adv-x="671" 
d="M307 701q170 0 250.5 -83t80.5 -252q0 -72 -16 -133.5t-51.5 -116t-102 -85.5t-159.5 -31h-220v287h-90v126h90v288h218zM297 126q101 0 142.5 58t41.5 168q0 120 -48 171.5t-137 51.5h-55v-162h120v-126h-120v-161h56z" />
    <glyph glyph-name="dcroat" unicode="&#x111;" horiz-adv-x="596" 
d="M583 701v-82h-55v-619h-118l-24 46h-4q-55 -55 -138 -55q-94 0 -150 65t-56 197q0 85 21.5 149t58 98.5t78.5 51t89 16.5q50 0 93 -12v63h-149v82h149v57h150v-57h55zM382 158v268q-25 20 -75 20q-26 0 -45 -7t-36 -25.5t-26 -55.5t-9 -92q0 -79 26 -117.5t72 -38.5
q58 0 93 48z" />
    <glyph glyph-name="Emacron" unicode="&#x112;" horiz-adv-x="563" 
d="M135 775v119h316v-119h-316zM81 0v701h415v-126h-263v-156h226v-126h-226v-167h275v-126h-427z" />
    <glyph glyph-name="emacron" unicode="&#x113;" horiz-adv-x="571" 
d="M127 639v119h316v-119h-316zM307 -11q-269 0 -269 295q0 137 71 214.5t194 77.5q107 0 167 -62t60 -167q0 -50 -7 -101h-337q3 -138 138 -138q75 0 124 51l66 -107q-77 -63 -207 -63zM189 346h199v15q0 101 -89 101q-50 0 -79 -32.5t-31 -83.5z" />
    <glyph glyph-name="Ebreve" unicode="&#x114;" horiz-adv-x="563" 
d="M289 752q-140 0 -205 125l97 57q32 -75 108 -75q44 0 70.5 23.5t38.5 51.5l96 -57q-65 -125 -205 -125zM81 0v701h415v-126h-263v-156h226v-126h-226v-167h275v-126h-427z" />
    <glyph glyph-name="ebreve" unicode="&#x115;" horiz-adv-x="571" 
d="M285 616q-140 0 -205 125l97 57q32 -75 108 -75q44 0 70.5 23.5t38.5 51.5l96 -57q-65 -125 -205 -125zM307 -11q-269 0 -269 295q0 137 71 214.5t194 77.5q107 0 167 -62t60 -167q0 -50 -7 -101h-337q3 -138 138 -138q75 0 124 51l66 -107q-77 -63 -207 -63zM189 346
h199v15q0 101 -89 101q-50 0 -79 -32.5t-31 -83.5z" />
    <glyph glyph-name="Edotaccent" unicode="&#x116;" horiz-adv-x="563" 
d="M281 768q-39 0 -65.5 26t-26.5 65t26.5 65t65.5 26t65.5 -26t26.5 -65t-26.5 -65t-65.5 -26zM81 0v701h415v-126h-263v-156h226v-126h-226v-167h275v-126h-427z" />
    <glyph glyph-name="edotaccent" unicode="&#x117;" horiz-adv-x="571" 
d="M285 632q-39 0 -65.5 26t-26.5 65t26.5 65t65.5 26t65.5 -26t26.5 -65t-26.5 -65t-65.5 -26zM307 -11q-269 0 -269 295q0 137 71 214.5t194 77.5q107 0 167 -62t60 -167q0 -50 -7 -101h-337q3 -138 138 -138q75 0 124 51l66 -107q-77 -63 -207 -63zM189 346h199v15
q0 101 -89 101q-50 0 -79 -32.5t-31 -83.5z" />
    <glyph glyph-name="Eogonek" unicode="&#x118;" horiz-adv-x="563" 
d="M492 -150l28 -85q-44 -25 -109 -25q-70 0 -103.5 33t-33.5 84q0 79 79 143h-272v701h415v-126h-263v-156h226v-126h-226v-167h275v-126q-123 -69 -123 -126q0 -42 45 -42q29 0 62 18z" />
    <glyph glyph-name="eogonek" unicode="&#x119;" horiz-adv-x="571" 
d="M530 347q0 -50 -7 -101h-337q3 -138 138 -138q75 0 124 51l66 -107q-31 -26 -68 -41q-118 -65 -118 -123q0 -42 45 -42q29 0 62 18l28 -85q-44 -25 -109 -25q-70 0 -103.5 33t-33.5 84q0 62 53 120q-232 20 -232 293q0 137 71 214.5t194 77.5q107 0 167 -62t60 -167z
M388 346v15q0 101 -89 101q-50 0 -79 -32.5t-31 -83.5h199z" />
    <glyph glyph-name="Ecaron" unicode="&#x11a;" horiz-adv-x="563" 
d="M280 742l-204 125l50 89l154 -84l151 85l56 -90zM81 0v701h415v-126h-263v-156h226v-126h-226v-167h275v-126h-427z" />
    <glyph glyph-name="ecaron" unicode="&#x11b;" horiz-adv-x="571" 
d="M284 606l-204 125l50 89l154 -84l151 85l56 -90zM307 -11q-269 0 -269 295q0 137 71 214.5t194 77.5q107 0 167 -62t60 -167q0 -50 -7 -101h-337q3 -138 138 -138q75 0 124 51l66 -107q-77 -63 -207 -63zM189 346h199v15q0 101 -89 101q-50 0 -79 -32.5t-31 -83.5z" />
    <glyph glyph-name="Gcircumflex" unicode="&#x11c;" horiz-adv-x="658" 
d="M361 836l-154 -84l-50 89l204 125l207 -125l-56 -90zM341 388h254v-336q-90 -62 -251 -62q-298 0 -298 354q0 181 92.5 274t240.5 93q150 0 220 -81l-98 -107q-52 56 -128 56q-170 0 -170 -217q0 -129 42.5 -188.5t130.5 -59.5q43 0 66 10v131h-101v133z" />
    <glyph glyph-name="gcircumflex" unicode="&#x11d;" horiz-adv-x="591" 
d="M157 616l-50 89l204 125l207 -125l-56 -90l-151 85zM264 -205q-162 0 -227 77l85 111q21 -30 59.5 -48t82.5 -18q59 0 85 25t26 84v29h-4q-35 -32 -111 -32q-99 0 -160.5 60t-61.5 201q0 126 71 207t204 81t210 -34v-513q0 -112 -71 -171t-188 -59zM295 145q50 0 79 29
v269q-30 10 -62 10q-60 0 -92 -41.5t-32 -121.5q0 -82 26.5 -113.5t80.5 -31.5z" />
    <glyph glyph-name="Gbreve" unicode="&#x11e;" horiz-adv-x="658" 
d="M369 752q-140 0 -205 125l97 57q32 -75 108 -75q44 0 70.5 23.5t38.5 51.5l96 -57q-65 -125 -205 -125zM341 388h254v-336q-90 -62 -251 -62q-298 0 -298 354q0 181 92.5 274t240.5 93q150 0 220 -81l-98 -107q-52 56 -128 56q-170 0 -170 -217q0 -129 42.5 -188.5
t130.5 -59.5q43 0 66 10v131h-101v133z" />
    <glyph glyph-name="gbreve" unicode="&#x11f;" horiz-adv-x="591" 
d="M317 616q-140 0 -205 125l97 57q32 -75 108 -75q44 0 70.5 23.5t38.5 51.5l96 -57q-65 -125 -205 -125zM264 -205q-162 0 -227 77l85 111q21 -30 59.5 -48t82.5 -18q59 0 85 25t26 84v29h-4q-35 -32 -111 -32q-99 0 -160.5 60t-61.5 201q0 126 71 207t204 81t210 -34
v-513q0 -112 -71 -171t-188 -59zM295 145q50 0 79 29v269q-30 10 -62 10q-60 0 -92 -41.5t-32 -121.5q0 -82 26.5 -113.5t80.5 -31.5z" />
    <glyph glyph-name="Gdotaccent" unicode="&#x120;" horiz-adv-x="658" 
d="M348 768q-40 0 -66 26t-26 65t26 65t66 26t66 -26t26 -65t-26 -65t-66 -26zM341 388h254v-336q-90 -62 -251 -62q-298 0 -298 354q0 181 92.5 274t240.5 93q150 0 220 -81l-98 -107q-52 56 -128 56q-170 0 -170 -217q0 -129 42.5 -188.5t130.5 -59.5q43 0 66 10v131h-101
v133z" />
    <glyph glyph-name="gdotaccent" unicode="&#x121;" horiz-adv-x="591" 
d="M295 632q-39 0 -65.5 26t-26.5 65t26.5 65t65.5 26t65.5 -26t26.5 -65t-26.5 -65t-65.5 -26zM264 -205q-162 0 -227 77l85 111q21 -30 59.5 -48t82.5 -18q59 0 85 25t26 84v29h-4q-35 -32 -111 -32q-99 0 -160.5 60t-61.5 201q0 126 71 207t204 81t210 -34v-513
q0 -112 -71 -171t-188 -59zM295 145q50 0 79 29v269q-30 10 -62 10q-60 0 -92 -41.5t-32 -121.5q0 -82 26.5 -113.5t80.5 -31.5z" />
    <glyph glyph-name="Gcommaaccent" unicode="&#x122;" horiz-adv-x="658" 
d="M341 388h254v-336q-90 -62 -251 -62q-298 0 -298 354q0 181 92.5 274t240.5 93q150 0 220 -81l-98 -107q-52 56 -128 56q-170 0 -170 -217q0 -129 42.5 -188.5t130.5 -59.5q43 0 66 10v131h-101v133zM353 -56q42 0 66.5 -29t24.5 -74q0 -71 -45 -121.5t-106 -70.5l-24 47
q43 15 65.5 40.5t22.5 51.5q0 19 -14.5 35t-27 22.5t-37.5 18.5v5q0 32 20.5 53.5t54.5 21.5z" />
    <glyph glyph-name="gcommaaccent" unicode="&#x123;" horiz-adv-x="591" 
d="M312 632q-40 0 -63.5 27.5t-23.5 70.5q0 66 44.5 121t106.5 76l39 -55q-87 -38 -87 -94q0 -45 57 -63v-12q0 -29 -20.5 -50t-52.5 -21zM264 -205q-162 0 -227 77l85 111q21 -30 59.5 -48t82.5 -18q59 0 85 25t26 84v29h-4q-35 -32 -111 -32q-99 0 -160.5 60t-61.5 201
q0 126 71 207t204 81t210 -34v-513q0 -112 -71 -171t-188 -59zM295 145q50 0 79 29v269q-30 10 -62 10q-60 0 -92 -41.5t-32 -121.5q0 -82 26.5 -113.5t80.5 -31.5z" />
    <glyph glyph-name="Hcircumflex" unicode="&#x124;" horiz-adv-x="723" 
d="M206 752l-50 89l204 125l207 -125l-56 -90l-151 85zM81 0v701h153v-288h255v288h153v-701h-153v287h-255v-287h-153z" />
    <glyph glyph-name="hcircumflex" unicode="&#x125;" horiz-adv-x="611" 
d="M-14 781l-50 89l204 125l207 -125l-56 -90l-151 85zM68 0v758h151v-250h4q59 61 149 61q84 0 128.5 -47t44.5 -141v-381h-151v351q0 90 -78 90q-27 0 -55 -18t-42 -44v-379h-151z" />
    <glyph glyph-name="Hbar" unicode="&#x126;" horiz-adv-x="739" 
d="M720 597v-82h-70v-515h-153v287h-255v-287h-153v515h-70v82h70v104h153v-104h255v104h153v-104h70zM497 413v102h-255v-102h255z" />
    <glyph glyph-name="hbar" unicode="&#x127;" horiz-adv-x="613" 
d="M372 569q84 0 128.5 -47t44.5 -141v-381h-151v351q0 90 -78 90q-27 0 -55 -18t-42 -44v-379h-151v619h-65v82h65v57h151v-57h138v-82h-138v-111h4q59 61 149 61z" />
    <glyph glyph-name="Itilde" unicode="&#x128;" horiz-adv-x="331" 
d="M21 770l-59 86q15 25 45.5 47t69.5 22q33 0 85 -20.5t73 -20.5q26 0 41 9.5t34 34.5l59 -86q-15 -25 -45.5 -47t-69.5 -22q-29 0 -84 20.5t-73 20.5q-45 0 -76 -44zM89 0v701h153v-701h-153z" />
    <glyph glyph-name="itilde" unicode="&#x129;" horiz-adv-x="295" 
d="M3 634l-59 86q15 25 45.5 47t69.5 22q33 0 85 -20.5t73 -20.5q26 0 41 9.5t34 34.5l59 -86q-15 -25 -45.5 -47t-69.5 -22q-29 0 -84 20.5t-73 20.5q-45 0 -76 -44zM72 0v565h151v-565h-151z" />
    <glyph glyph-name="Imacron" unicode="&#x12a;" horiz-adv-x="331" 
d="M8 775v119h316v-119h-316zM89 0v701h153v-701h-153z" />
    <glyph glyph-name="imacron" unicode="&#x12b;" horiz-adv-x="295" 
d="M-10 639v119h316v-119h-316zM72 0v565h151v-565h-151z" />
    <glyph glyph-name="Ibreve" unicode="&#x12c;" horiz-adv-x="331" 
d="M166 752q-140 0 -205 125l97 57q32 -75 108 -75q44 0 70.5 23.5t38.5 51.5l96 -57q-65 -125 -205 -125zM89 0v701h153v-701h-153z" />
    <glyph glyph-name="ibreve" unicode="&#x12d;" horiz-adv-x="295" 
d="M148 616q-140 0 -205 125l97 57q32 -75 108 -75q44 0 70.5 23.5t38.5 51.5l96 -57q-65 -125 -205 -125zM72 0v565h151v-565h-151z" />
    <glyph glyph-name="Iogonek" unicode="&#x12e;" horiz-adv-x="331" 
d="M226 -150l28 -85q-44 -25 -109 -25q-70 0 -103.5 33t-33.5 84q0 79 81 145v699h153v-701q-123 -69 -123 -126q0 -42 45 -42q29 0 62 18z" />
    <glyph glyph-name="iogonek" unicode="&#x12f;" horiz-adv-x="295" 
d="M145 627q-36 0 -61 25t-25 60q0 39 25 64.5t61 25.5q38 0 63.5 -25.5t25.5 -64.5q0 -36 -25.5 -60.5t-63.5 -24.5zM207 -150l28 -85q-44 -25 -109 -25q-70 0 -103.5 33t-33.5 84q0 80 83 146v562h151v-565q-123 -69 -123 -126q0 -42 45 -42q29 0 62 18z" />
    <glyph glyph-name="Idotaccent" unicode="&#x130;" horiz-adv-x="331" 
d="M166 768q-40 0 -66 26t-26 65t26 65t66 26t66 -26t26 -65t-26 -65t-66 -26zM89 0v701h153v-701h-153z" />
    <glyph glyph-name="dotlessi" unicode="&#x131;" horiz-adv-x="295" 
d="M72 0v565h151v-565h-151z" />
    <glyph glyph-name="IJ" unicode="&#x132;" horiz-adv-x="767" 
d="M89 0v701h153v-701h-153zM478 -13q-97 0 -146 30l47 135q43 -32 95 -32q33 0 46 14.5t13 46.5v520h153v-531q0 -83 -51.5 -133t-156.5 -50z" />
    <glyph glyph-name="ij" unicode="&#x133;" horiz-adv-x="576" 
d="M145 627q-36 0 -61 25t-25 60q0 39 25 64.5t61 25.5q38 0 63.5 -25.5t25.5 -64.5q0 -36 -25.5 -60.5t-63.5 -24.5zM431 627q-36 0 -61 25t-25 60q0 39 25 64.5t61 25.5q38 0 63.5 -25.5t25.5 -64.5q0 -36 -25.5 -60.5t-63.5 -24.5zM72 0v565h151v-565h-151zM305 -219
l-48 119q57 25 78.5 62t21.5 121v482h151v-487q0 -37 -4 -69t-17 -68.5t-34.5 -65t-59 -54t-88.5 -40.5z" />
    <glyph glyph-name="Jcircumflex" unicode="&#x134;" horiz-adv-x="444" 
d="M131 752l-50 89l204 125l207 -125l-56 -90l-151 85zM155 -13q-97 0 -146 30l47 135q43 -32 95 -32q33 0 46 14.5t13 46.5v520h153v-531q0 -83 -51.5 -133t-156.5 -50z" />
    <glyph glyph-name="jcircumflex" unicode="&#x135;" horiz-adv-x="309" 
d="M-1 616l-50 89l204 125l207 -125l-56 -90l-151 85zM28 -252l-48 119q57 25 78.5 62t21.5 121v515h151v-520q0 -37 -4 -69t-17 -68.5t-34.5 -65t-59 -54t-88.5 -40.5z" />
    <glyph glyph-name="Kcommaaccent" unicode="&#x136;" horiz-adv-x="648" 
d="M81 0v701h153v-701h-153zM453 0l-215 353v4l208 344h176l-218 -341l240 -360h-191zM262 -341l-24 47q43 15 65.5 40.5t22.5 51.5q0 19 -14.5 35t-27 22.5t-37.5 18.5v5q0 32 20.5 53.5t54.5 21.5q42 0 66.5 -29t24.5 -74q0 -71 -45 -121.5t-106 -70.5z" />
    <glyph glyph-name="kcommaaccent" unicode="&#x137;" horiz-adv-x="572" 
d="M68 0v758h151v-758h-151zM375 0l-152 299v4l154 262h173l-166 -260v-4l170 -301h-179zM226 -341l-24 47q43 15 65.5 40.5t22.5 51.5q0 19 -14.5 35t-27 22.5t-37.5 18.5v5q0 32 20.5 53.5t54.5 21.5q42 0 66.5 -29t24.5 -74q0 -71 -45 -121.5t-106 -70.5z" />
    <glyph glyph-name="kgreenlandic" unicode="&#x138;" horiz-adv-x="572" 
d="M68 0v565h151v-565h-151zM375 0l-150 283v4l152 278h173l-164 -276v-4l168 -285h-179z" />
    <glyph glyph-name="Lacute" unicode="&#x139;" horiz-adv-x="508" 
d="M174 752l-78 66l184 152l131 -77zM81 0v701h153v-575h258v-126h-411z" />
    <glyph glyph-name="lacute" unicode="&#x13a;" horiz-adv-x="323" 
d="M126 794l-78 66l184 152l131 -77zM215 -9q-69 0 -108 39t-39 109v619h151v-580q0 -56 47 -56q11 0 21 2v-119q-36 -14 -72 -14z" />
    <glyph glyph-name="Lcommaaccent" unicode="&#x13b;" horiz-adv-x="508" 
d="M81 0v701h153v-575h258v-126h-411zM220 -341l-24 47q43 15 65.5 40.5t22.5 51.5q0 19 -14.5 35t-27 22.5t-37.5 18.5v5q0 32 20.5 53.5t54.5 21.5q42 0 66.5 -29t24.5 -74q0 -71 -45 -121.5t-106 -70.5z" />
    <glyph glyph-name="lcommaaccent" unicode="&#x13c;" horiz-adv-x="323" 
d="M215 -9q-69 0 -108 39t-39 109v619h151v-580q0 -56 47 -56q11 0 21 2v-119q-36 -14 -72 -14zM100 -341l-24 47q43 15 65.5 40.5t22.5 51.5q0 19 -14.5 35t-27 22.5t-37.5 18.5v5q0 32 20.5 53.5t54.5 21.5q42 0 66.5 -29t24.5 -74q0 -71 -45 -121.5t-106 -70.5z" />
    <glyph glyph-name="Lcaron" unicode="&#x13d;" horiz-adv-x="508" 
d="M320 485l-40 56q89 40 89 96q0 47 -58 66v12q0 30 21 51.5t54 21.5q41 0 65.5 -28.5t24.5 -72.5q0 -68 -46.5 -124.5t-109.5 -77.5zM81 0v701h153v-575h258v-126h-411z" />
    <glyph glyph-name="lcaron" unicode="&#x13e;" horiz-adv-x="422" 
d="M292 457l-40 56q89 40 89 96q0 47 -58 66v12q0 30 21 51.5t54 21.5q41 0 65.5 -28.5t24.5 -72.5q0 -68 -46.5 -124.5t-109.5 -77.5zM215 -9q-69 0 -108 39t-39 109v619h151v-580q0 -56 47 -56q11 0 21 2v-119q-36 -14 -72 -14z" />
    <glyph glyph-name="Ldot" unicode="&#x13f;" horiz-adv-x="508" 
d="M81 0v701h153v-575h258v-126h-411zM397 306q-35 0 -59.5 24.5t-24.5 59.5q0 37 24.5 62t59.5 25q37 0 62 -25t25 -62q0 -35 -25 -59.5t-62 -24.5z" />
    <glyph glyph-name="ldot" unicode="&#x140;" horiz-adv-x="445" 
d="M215 -9q-69 0 -108 39t-39 109v619h151v-580q0 -56 47 -56q11 0 21 2v-119q-36 -14 -72 -14zM383 306q-35 0 -59.5 24.5t-24.5 59.5q0 37 24.5 62t59.5 25q37 0 62 -25t25 -62q0 -35 -25 -59.5t-62 -24.5z" />
    <glyph glyph-name="Lslash" unicode="&#x141;" horiz-adv-x="513" 
d="M239 126h258v-126h-411v203l-77 -43v111l77 43v387h153v-301l168 94v-111l-168 -94v-163z" />
    <glyph glyph-name="lslash" unicode="&#x142;" horiz-adv-x="326" 
d="M309 449l-90 -61v-210q0 -56 47 -56q11 0 21 2v-119q-36 -14 -72 -14q-69 0 -108 39t-39 109v145l-65 -44v111l65 44v363h151v-259l90 61v-111z" />
    <glyph glyph-name="Nacute" unicode="&#x143;" horiz-adv-x="732" 
d="M368 752l-78 66l184 152l131 -77zM83 0v701h183l143 -276q66 -127 99 -215h4q-8 98 -8 269v222h145v-701h-179l-154 296q-46 90 -93 214h-4q10 -100 10 -245v-265h-146z" />
    <glyph glyph-name="nacute" unicode="&#x144;" horiz-adv-x="611" 
d="M306 616l-78 66l184 152l131 -77zM68 0v565h118l30 -53h4q25 31 66.5 49t85.5 18q84 0 128.5 -47t44.5 -141v-391h-151v359q0 44 -20 68t-58 24q-69 0 -97 -67v-384h-151z" />
    <glyph glyph-name="Ncommaaccent" unicode="&#x145;" horiz-adv-x="732" 
d="M83 0v701h183l143 -276q66 -127 99 -215h4q-8 98 -8 269v222h145v-701h-179l-154 296q-46 90 -93 214h-4q10 -100 10 -245v-265h-146zM302 -341l-24 47q43 15 65.5 40.5t22.5 51.5q0 19 -14.5 35t-27 22.5t-37.5 18.5v5q0 32 20.5 53.5t54.5 21.5q42 0 66.5 -29t24.5 -74
q0 -71 -45 -121.5t-106 -70.5z" />
    <glyph glyph-name="ncommaaccent" unicode="&#x146;" horiz-adv-x="611" 
d="M68 0v565h118l30 -53h4q25 31 66.5 49t85.5 18q84 0 128.5 -47t44.5 -141v-391h-151v359q0 44 -20 68t-58 24q-69 0 -97 -67v-384h-151zM242 -341l-24 47q43 15 65.5 40.5t22.5 51.5q0 19 -14.5 35t-27 22.5t-37.5 18.5v5q0 32 20.5 53.5t54.5 21.5q42 0 66.5 -29
t24.5 -74q0 -71 -45 -121.5t-106 -70.5z" />
    <glyph glyph-name="Ncaron" unicode="&#x147;" horiz-adv-x="732" 
d="M364 742l-204 125l50 89l154 -84l151 85l56 -90zM83 0v701h183l143 -276q66 -127 99 -215h4q-8 98 -8 269v222h145v-701h-179l-154 296q-46 90 -93 214h-4q10 -100 10 -245v-265h-146z" />
    <glyph glyph-name="ncaron" unicode="&#x148;" horiz-adv-x="611" 
d="M304 606l-204 125l50 89l154 -84l151 85l56 -90zM68 0v565h118l30 -53h4q25 31 66.5 49t85.5 18q84 0 128.5 -47t44.5 -141v-391h-151v359q0 44 -20 68t-58 24q-69 0 -97 -67v-384h-151z" />
    <glyph glyph-name="napostrophe" unicode="&#x149;" horiz-adv-x="831" 
d="M35 401l-47 67q105 46 105 113q0 54 -69 77v14q0 36 25 61t64 25q48 0 76.5 -33.5t28.5 -85.5q0 -80 -54.5 -147t-128.5 -91zM288 0v565h118l30 -53h4q25 31 66.5 49t85.5 18q84 0 128.5 -47t44.5 -141v-391h-151v359q0 44 -20 68t-58 24q-69 0 -97 -67v-384h-151z" />
    <glyph glyph-name="Eng" unicode="&#x14a;" horiz-adv-x="732" 
d="M446 -252l-48 119q48 21 70 49.5t27 83.5h-25l-154 296q-46 90 -93 214h-4q10 -100 10 -245v-265h-146v701h183l143 -276q66 -127 99 -215h4q-8 98 -8 269v222h145v-656q0 -37 -4 -69t-17 -68.5t-34.5 -65t-59 -54t-88.5 -40.5z" />
    <glyph glyph-name="eng" unicode="&#x14b;" horiz-adv-x="613" 
d="M372 579q84 0 128.5 -47t44.5 -141v-346q0 -37 -4 -69t-17 -68.5t-34.5 -65t-59 -54t-88.5 -40.5l-48 119q57 25 78.5 62t21.5 121v309q0 44 -20 68t-58 24q-69 0 -97 -67v-384h-151v565h118l30 -53h4q25 31 66.5 49t85.5 18z" />
    <glyph glyph-name="Omacron" unicode="&#x14c;" horiz-adv-x="699" 
d="M191 775v119h316v-119h-316zM344 -10q-138 0 -211.5 83.5t-73.5 272.5q0 184 80 274.5t214 90.5q287 0 287 -357q0 -183 -80.5 -273.5t-215.5 -90.5zM353 117q63 0 96 53t33 177q0 126 -35.5 181.5t-102.5 55.5q-128 0 -128 -228q0 -128 35 -183.5t102 -55.5z" />
    <glyph glyph-name="omacron" unicode="&#x14d;" horiz-adv-x="592" 
d="M138 639v119h316v-119h-316zM293 -11q-138 0 -196.5 75t-58.5 216q0 138 63 216.5t197 78.5q139 0 197.5 -75t58.5 -216q0 -138 -63.5 -216.5t-197.5 -78.5zM298 107q56 0 78.5 41t22.5 130q0 90 -25 134.5t-82 44.5q-51 0 -75 -42t-24 -129q0 -90 24.5 -134.5
t80.5 -44.5z" />
    <glyph glyph-name="Obreve" unicode="&#x14e;" horiz-adv-x="699" 
d="M349 752q-140 0 -205 125l97 57q32 -75 108 -75q44 0 70.5 23.5t38.5 51.5l96 -57q-65 -125 -205 -125zM344 -10q-138 0 -211.5 83.5t-73.5 272.5q0 184 80 274.5t214 90.5q287 0 287 -357q0 -183 -80.5 -273.5t-215.5 -90.5zM353 117q63 0 96 53t33 177
q0 126 -35.5 181.5t-102.5 55.5q-128 0 -128 -228q0 -128 35 -183.5t102 -55.5z" />
    <glyph glyph-name="obreve" unicode="&#x14f;" horiz-adv-x="592" 
d="M296 616q-140 0 -205 125l97 57q32 -75 108 -75q44 0 70.5 23.5t38.5 51.5l96 -57q-65 -125 -205 -125zM293 -11q-138 0 -196.5 75t-58.5 216q0 138 63 216.5t197 78.5q139 0 197.5 -75t58.5 -216q0 -138 -63.5 -216.5t-197.5 -78.5zM298 107q56 0 78.5 41t22.5 130
q0 90 -25 134.5t-82 44.5q-51 0 -75 -42t-24 -129q0 -90 24.5 -134.5t80.5 -44.5z" />
    <glyph glyph-name="Ohungarumlaut" unicode="&#x150;" horiz-adv-x="699" 
d="M216 728l-66 78l191 174l79 -92zM444 730l-46 91l227 128l55 -108zM344 -10q-138 0 -211.5 83.5t-73.5 272.5q0 184 80 274.5t214 90.5q287 0 287 -357q0 -183 -80.5 -273.5t-215.5 -90.5zM353 117q63 0 96 53t33 177q0 126 -35.5 181.5t-102.5 55.5q-128 0 -128 -228
q0 -128 35 -183.5t102 -55.5z" />
    <glyph glyph-name="ohungarumlaut" unicode="&#x151;" horiz-adv-x="592" 
d="M139 592l-66 78l191 174l79 -92zM367 594l-46 91l227 128l55 -108zM293 -11q-138 0 -196.5 75t-58.5 216q0 138 63 216.5t197 78.5q139 0 197.5 -75t58.5 -216q0 -138 -63.5 -216.5t-197.5 -78.5zM298 107q56 0 78.5 41t22.5 130q0 90 -25 134.5t-82 44.5q-51 0 -75 -42
t-24 -129q0 -90 24.5 -134.5t80.5 -44.5z" />
    <glyph glyph-name="OE" unicode="&#x152;" horiz-adv-x="990" 
d="M344 -10q-298 0 -298 356q0 183 85 274t223 91q125 0 171 -60v50h398v-126h-269v-156h232v-126h-232v-167h281v-126h-410v60q-18 -29 -65 -49.5t-116 -20.5zM355 117q67 0 103.5 53t36.5 177q0 237 -149 237q-143 0 -143 -228q0 -125 41.5 -182t110.5 -57z" />
    <glyph glyph-name="oe" unicode="&#x153;" horiz-adv-x="932" 
d="M293 -11q-138 0 -196.5 75t-58.5 216q0 295 258 295q119 0 174 -74h5q62 75 184 75q112 0 173.5 -62.5t61.5 -172.5q0 -66 -13 -100h-332q0 -2 0.5 -4.5t0.5 -3.5q10 -65 43 -95t93 -30q77 0 132 57l76 -99q-75 -77 -223 -77q-134 0 -196 81h-4q-59 -81 -178 -81z
M550 345h196v16q0 101 -94 101q-82 0 -101 -108q0 -2 -0.5 -5t-0.5 -4zM300 107q57 0 78 40t21 131q0 90 -26 134.5t-83 44.5q-52 0 -74.5 -41.5t-22.5 -129.5q0 -179 107 -179z" />
    <glyph glyph-name="Racute" unicode="&#x154;" horiz-adv-x="613" 
d="M279 752l-78 66l184 152l131 -77zM81 0v701h228q120 0 181.5 -49.5t61.5 -156.5q0 -86 -40.5 -134t-107.5 -61v-4q28 -13 48 -35.5t45 -67.5l107 -193h-182l-116 228q-17 33 -64 33h-10v-261h-151zM232 382h58q59 0 83 24.5t24 75.5q0 93 -105 93h-60v-193z" />
    <glyph glyph-name="racute" unicode="&#x155;" horiz-adv-x="399" 
d="M129 616l-78 66l184 152l131 -77zM68 0v565h118l31 -83h4q40 95 146 95q26 0 48 -5v-149q-25 5 -65 5q-77 0 -132 -45v-383h-150z" />
    <glyph glyph-name="Rcommaaccent" unicode="&#x156;" horiz-adv-x="613" 
d="M81 0v701h228q120 0 181.5 -49.5t61.5 -156.5q0 -86 -40.5 -134t-107.5 -61v-4q28 -13 48 -35.5t45 -67.5l107 -193h-182l-116 228q-17 33 -64 33h-10v-261h-151zM232 382h58q59 0 83 24.5t24 75.5q0 93 -105 93h-60v-193zM250 -341l-24 47q43 15 65.5 40.5t22.5 51.5
q0 19 -14.5 35t-27 22.5t-37.5 18.5v5q0 32 20.5 53.5t54.5 21.5q42 0 66.5 -29t24.5 -74q0 -71 -45 -121.5t-106 -70.5z" />
    <glyph glyph-name="rcommaaccent" unicode="&#x157;" horiz-adv-x="399" 
d="M68 0v565h118l31 -83h4q40 95 146 95q26 0 48 -5v-149q-25 5 -65 5q-77 0 -132 -45v-383h-150zM78 -341l-24 47q43 15 65.5 40.5t22.5 51.5q0 19 -14.5 35t-27 22.5t-37.5 18.5v5q0 32 20.5 53.5t54.5 21.5q42 0 66.5 -29t24.5 -74q0 -71 -45 -121.5t-106 -70.5z" />
    <glyph glyph-name="Rcaron" unicode="&#x158;" horiz-adv-x="613" 
d="M305 742l-204 125l50 89l154 -84l151 85l56 -90zM81 0v701h228q120 0 181.5 -49.5t61.5 -156.5q0 -86 -40.5 -134t-107.5 -61v-4q28 -13 48 -35.5t45 -67.5l107 -193h-182l-116 228q-17 33 -64 33h-10v-261h-151zM232 382h58q59 0 83 24.5t24 75.5q0 93 -105 93h-60v-193
z" />
    <glyph glyph-name="rcaron" unicode="&#x159;" horiz-adv-x="399" 
d="M227 606l-204 125l50 89l154 -84l151 85l56 -90zM68 0v565h118l31 -83h4q40 95 146 95q26 0 48 -5v-149q-25 5 -65 5q-77 0 -132 -45v-383h-150z" />
    <glyph glyph-name="Sacute" unicode="&#x15a;" horiz-adv-x="573" 
d="M302 752l-78 66l184 152l131 -77zM269 -10q-89 0 -153 28.5t-90 58.5l87 126q84 -84 176 -84q44 0 67 19.5t23 48.5q0 30 -33.5 53.5t-80.5 43t-94.5 44.5t-81 70t-33.5 106q0 88 69.5 147.5t177.5 59.5q78 0 134 -27t79 -57l-95 -113q-53 65 -131 65q-36 0 -57 -18
t-21 -45q0 -31 33 -54.5t80.5 -43t95 -44.5t80.5 -70t33 -107q0 -85 -69.5 -146t-195.5 -61z" />
    <glyph glyph-name="sacute" unicode="&#x15b;" horiz-adv-x="496" 
d="M258 616l-78 66l184 152l131 -77zM239 -10q-83 0 -141 26t-89 59l90 104q23 -27 62.5 -48.5t85.5 -21.5q65 0 65 48q0 22 -27.5 38t-66.5 29.5t-78 31.5t-66.5 55t-27.5 89q0 72 57.5 123.5t152.5 51.5q136 0 204 -79l-97 -95q-46 53 -111 53q-25 0 -40.5 -12t-15.5 -32
q0 -23 27.5 -39.5t66.5 -29.5t78 -31t66.5 -55t27.5 -89q0 -67 -55.5 -121.5t-167.5 -54.5z" />
    <glyph glyph-name="Scircumflex" unicode="&#x15c;" horiz-adv-x="573" 
d="M141 752l-50 89l204 125l207 -125l-56 -90l-151 85zM269 -10q-89 0 -153 28.5t-90 58.5l87 126q84 -84 176 -84q44 0 67 19.5t23 48.5q0 30 -33.5 53.5t-80.5 43t-94.5 44.5t-81 70t-33.5 106q0 88 69.5 147.5t177.5 59.5q78 0 134 -27t79 -57l-95 -113q-53 65 -131 65
q-36 0 -57 -18t-21 -45q0 -31 33 -54.5t80.5 -43t95 -44.5t80.5 -70t33 -107q0 -85 -69.5 -146t-195.5 -61z" />
    <glyph glyph-name="scircumflex" unicode="&#x15d;" horiz-adv-x="496" 
d="M94 616l-50 89l204 125l207 -125l-56 -90l-151 85zM239 -10q-83 0 -141 26t-89 59l90 104q23 -27 62.5 -48.5t85.5 -21.5q65 0 65 48q0 22 -27.5 38t-66.5 29.5t-78 31.5t-66.5 55t-27.5 89q0 72 57.5 123.5t152.5 51.5q136 0 204 -79l-97 -95q-46 53 -111 53
q-25 0 -40.5 -12t-15.5 -32q0 -23 27.5 -39.5t66.5 -29.5t78 -31t66.5 -55t27.5 -89q0 -67 -55.5 -121.5t-167.5 -54.5z" />
    <glyph glyph-name="Scedilla" unicode="&#x15e;" horiz-adv-x="573" 
d="M269 -10q-89 0 -153 28.5t-90 58.5l87 126q84 -84 176 -84q44 0 67 19.5t23 48.5q0 30 -33.5 53.5t-80.5 43t-94.5 44.5t-81 70t-33.5 106q0 88 69.5 147.5t177.5 59.5q78 0 134 -27t79 -57l-95 -113q-53 65 -131 65q-36 0 -57 -18t-21 -45q0 -31 33 -54.5t80.5 -43
t95 -44.5t80.5 -70t33 -107q0 -85 -69.5 -146t-195.5 -61zM231 -261l-41 72q70 27 70 76q0 35 -26 58v4h113q17 -25 17 -67q0 -109 -133 -143z" />
    <glyph glyph-name="scedilla" unicode="&#x15f;" horiz-adv-x="496" 
d="M239 -10q-83 0 -141 26t-89 59l90 104q23 -27 62.5 -48.5t85.5 -21.5q65 0 65 48q0 22 -27.5 38t-66.5 29.5t-78 31.5t-66.5 55t-27.5 89q0 72 57.5 123.5t152.5 51.5q136 0 204 -79l-97 -95q-46 53 -111 53q-25 0 -40.5 -12t-15.5 -32q0 -23 27.5 -39.5t66.5 -29.5
t78 -31t66.5 -55t27.5 -89q0 -67 -55.5 -121.5t-167.5 -54.5zM194 -261l-41 72q70 27 70 76q0 35 -26 58v4h113q17 -25 17 -67q0 -109 -133 -143z" />
    <glyph glyph-name="Scaron" unicode="&#x160;" horiz-adv-x="573" 
d="M293 742l-204 125l50 89l154 -84l151 85l56 -90zM269 -10q-89 0 -153 28.5t-90 58.5l87 126q84 -84 176 -84q44 0 67 19.5t23 48.5q0 30 -33.5 53.5t-80.5 43t-94.5 44.5t-81 70t-33.5 106q0 88 69.5 147.5t177.5 59.5q78 0 134 -27t79 -57l-95 -113q-53 65 -131 65
q-36 0 -57 -18t-21 -45q0 -31 33 -54.5t80.5 -43t95 -44.5t80.5 -70t33 -107q0 -85 -69.5 -146t-195.5 -61z" />
    <glyph glyph-name="scaron" unicode="&#x161;" horiz-adv-x="496" 
d="M247 606l-204 125l50 89l154 -84l151 85l56 -90zM239 -10q-83 0 -141 26t-89 59l90 104q23 -27 62.5 -48.5t85.5 -21.5q65 0 65 48q0 22 -27.5 38t-66.5 29.5t-78 31.5t-66.5 55t-27.5 89q0 72 57.5 123.5t152.5 51.5q136 0 204 -79l-97 -95q-46 53 -111 53
q-25 0 -40.5 -12t-15.5 -32q0 -23 27.5 -39.5t66.5 -29.5t78 -31t66.5 -55t27.5 -89q0 -67 -55.5 -121.5t-167.5 -54.5z" />
    <glyph glyph-name="uni0162" unicode="&#x162;" horiz-adv-x="507" 
d="M177 0v575h-174v126h501v-126h-174v-575h-153zM188 -261l-41 72q70 27 70 76q0 35 -26 58v4h113q17 -25 17 -67q0 -109 -133 -143z" />
    <glyph glyph-name="uni0163" unicode="&#x163;" horiz-adv-x="402" 
d="M247 -5q-167 0 -167 186v269h-72v94l73 30l52 133h96v-142h141v-115h-141v-273q0 -59 59 -59q45 0 77 25l39 -113q-48 -35 -157 -35zM146 -261l-41 72q70 27 70 76q0 35 -26 58v4h113q17 -25 17 -67q0 -109 -133 -143z" />
    <glyph glyph-name="Tcaron" unicode="&#x164;" horiz-adv-x="507" 
d="M252 742l-204 125l50 89l154 -84l151 85l56 -90zM177 0v575h-174v126h501v-126h-174v-575h-153z" />
    <glyph glyph-name="tcaron" unicode="&#x165;" horiz-adv-x="411" 
d="M300 625l-40 56q89 40 89 96q0 47 -58 66v12q0 30 21 51.5t54 21.5q41 0 65.5 -28.5t24.5 -72.5q0 -68 -46.5 -124.5t-109.5 -77.5zM247 -5q-167 0 -167 186v269h-72v94l73 30l52 133h96v-142h141v-115h-141v-273q0 -59 59 -59q45 0 77 25l39 -113q-48 -35 -157 -35z" />
    <glyph glyph-name="Tbar" unicode="&#x166;" horiz-adv-x="513" 
d="M507 575h-174v-170h107v-113h-107v-292h-153v292h-107v113h107v170h-174v126h501v-126z" />
    <glyph glyph-name="tbar" unicode="&#x167;" horiz-adv-x="402" 
d="M365 143l39 -113q-48 -35 -157 -35q-167 0 -167 186v66h-72v94l72 30v79h-72v94l73 30l52 133h96v-142h141v-115h-141v-88h132v-115h-132v-70q0 -59 59 -59q45 0 77 25z" />
    <glyph glyph-name="Utilde" unicode="&#x168;" horiz-adv-x="699" 
d="M205 770l-59 86q15 25 45.5 47t69.5 22q33 0 85 -20.5t73 -20.5q26 0 41 9.5t34 34.5l59 -86q-15 -25 -45.5 -47t-69.5 -22q-29 0 -84 20.5t-73 20.5q-45 0 -76 -44zM335 -10q-130 0 -193.5 69t-63.5 184v458h153v-428q0 -77 29.5 -116t95.5 -39q56 0 84 32.5t28 103.5
v447h153v-425q0 -150 -79 -218t-207 -68z" />
    <glyph glyph-name="utilde" unicode="&#x169;" horiz-adv-x="615" 
d="M163 634l-59 86q15 25 45.5 47t69.5 22q33 0 85 -20.5t73 -20.5q26 0 41 9.5t34 34.5l59 -86q-15 -25 -45.5 -47t-69.5 -22q-29 0 -84 20.5t-73 20.5q-45 0 -76 -44zM245 -11q-91 0 -135 48.5t-44 148.5v379h151v-365q0 -46 21 -70t60 -24q68 0 98 68v391h151v-565h-128
l-21 52h-4q-52 -63 -149 -63z" />
    <glyph glyph-name="Umacron" unicode="&#x16a;" horiz-adv-x="699" 
d="M191 775v119h316v-119h-316zM335 -10q-130 0 -193.5 69t-63.5 184v458h153v-428q0 -77 29.5 -116t95.5 -39q56 0 84 32.5t28 103.5v447h153v-425q0 -150 -79 -218t-207 -68z" />
    <glyph glyph-name="umacron" unicode="&#x16b;" horiz-adv-x="615" 
d="M149 639v119h316v-119h-316zM245 -11q-91 0 -135 48.5t-44 148.5v379h151v-365q0 -46 21 -70t60 -24q68 0 98 68v391h151v-565h-128l-21 52h-4q-52 -63 -149 -63z" />
    <glyph glyph-name="Ubreve" unicode="&#x16c;" horiz-adv-x="699" 
d="M349 752q-140 0 -205 125l97 57q32 -75 108 -75q44 0 70.5 23.5t38.5 51.5l96 -57q-65 -125 -205 -125zM335 -10q-130 0 -193.5 69t-63.5 184v458h153v-428q0 -77 29.5 -116t95.5 -39q56 0 84 32.5t28 103.5v447h153v-425q0 -150 -79 -218t-207 -68z" />
    <glyph glyph-name="ubreve" unicode="&#x16d;" horiz-adv-x="615" 
d="M307 616q-140 0 -205 125l97 57q32 -75 108 -75q44 0 70.5 23.5t38.5 51.5l96 -57q-65 -125 -205 -125zM245 -11q-91 0 -135 48.5t-44 148.5v379h151v-365q0 -46 21 -70t60 -24q68 0 98 68v391h151v-565h-128l-21 52h-4q-52 -63 -149 -63z" />
    <glyph glyph-name="Uring" unicode="&#x16e;" horiz-adv-x="699" 
d="M348 724q-60 0 -95 34t-35 88q0 55 36.5 91.5t95.5 36.5q60 0 95.5 -34t35.5 -88t-36.5 -91t-96.5 -37zM349 796q54 0 54 52q0 54 -54 54q-53 0 -53 -52q0 -24 13.5 -39t39.5 -15zM335 -10q-130 0 -193.5 69t-63.5 184v458h153v-428q0 -77 29.5 -116t95.5 -39
q56 0 84 32.5t28 103.5v447h153v-425q0 -150 -79 -218t-207 -68z" />
    <glyph glyph-name="uring" unicode="&#x16f;" horiz-adv-x="615" 
d="M306 588q-60 0 -95 34t-35 88q0 55 36.5 91.5t95.5 36.5q60 0 95.5 -34t35.5 -88t-36.5 -91t-96.5 -37zM307 660q54 0 54 52q0 54 -54 54q-53 0 -53 -52q0 -24 13.5 -39t39.5 -15zM245 -11q-91 0 -135 48.5t-44 148.5v379h151v-365q0 -46 21 -70t60 -24q68 0 98 68v391
h151v-565h-128l-21 52h-4q-52 -63 -149 -63z" />
    <glyph glyph-name="Uhungarumlaut" unicode="&#x170;" horiz-adv-x="699" 
d="M228 728l-66 78l191 174l79 -92zM456 730l-46 91l227 128l55 -108zM335 -10q-130 0 -193.5 69t-63.5 184v458h153v-428q0 -77 29.5 -116t95.5 -39q56 0 84 32.5t28 103.5v447h153v-425q0 -150 -79 -218t-207 -68z" />
    <glyph glyph-name="uhungarumlaut" unicode="&#x171;" horiz-adv-x="615" 
d="M168 592l-66 78l191 174l79 -92zM396 594l-46 91l227 128l55 -108zM245 -11q-91 0 -135 48.5t-44 148.5v379h151v-365q0 -46 21 -70t60 -24q68 0 98 68v391h151v-565h-128l-21 52h-4q-52 -63 -149 -63z" />
    <glyph glyph-name="Uogonek" unicode="&#x172;" horiz-adv-x="699" 
d="M468 701h153v-425q0 -205 -155 -265q-119 -64 -119 -123q0 -42 45 -42q29 0 62 18l28 -85q-44 -25 -109 -25q-70 0 -103.5 33t-33.5 84q0 64 55 121q-107 12 -160 79.5t-53 171.5v458h153v-428q0 -77 29.5 -116t95.5 -39q56 0 84 32.5t28 103.5v447z" />
    <glyph glyph-name="uogonek" unicode="&#x173;" horiz-adv-x="615" 
d="M531 -150l28 -85q-44 -25 -109 -25q-70 0 -103.5 33t-33.5 84q0 88 100 159l-15 36h-4q-52 -63 -149 -63q-91 0 -135 48.5t-44 148.5v379h151v-365q0 -46 21 -70t60 -24q68 0 98 68v391h151v-565q-123 -69 -123 -126q0 -42 45 -42q29 0 62 18z" />
    <glyph glyph-name="Wcircumflex" unicode="&#x174;" horiz-adv-x="962" 
d="M325 752l-50 89l204 125l207 -125l-56 -90l-151 85zM185 0l-178 701h165l69 -283q37 -153 41 -247h4q6 56 34 187l75 343h181l79 -342q26 -109 35 -186h4q8 98 39 228l70 300h152l-179 -701h-180l-71 311q-29 126 -40 218h-4q-15 -107 -34 -186l-81 -343h-181z" />
    <glyph glyph-name="wcircumflex" unicode="&#x175;" horiz-adv-x="829" 
d="M259 616l-50 89l204 125l207 -125l-56 -90l-151 85zM151 0l-147 565h151l60 -261q21 -95 29 -176h4q8 84 31 175l70 262h144l61 -258q28 -118 31 -179h4q8 73 34 181l60 256h134l-146 -565h-176l-75 378h-4l-92 -378h-173z" />
    <glyph glyph-name="Ycircumflex" unicode="&#x176;" horiz-adv-x="627" 
d="M158 752l-50 89l204 125l207 -125l-56 -90l-151 85zM237 0v225l-236 476h170l143 -323h4l146 323h162l-236 -476v-225h-153z" />
    <glyph glyph-name="ycircumflex" unicode="&#x177;" horiz-adv-x="545" 
d="M117 616l-50 89l204 125l207 -125l-56 -90l-151 85zM132 -213q-58 0 -92 17l25 124q26 -14 61 -14q83 0 91 88l-212 563h169l63 -192q38 -117 50 -197h4q16 104 42 197l53 192h156l-190 -593q-28 -86 -78.5 -135.5t-141.5 -49.5z" />
    <glyph glyph-name="Ydieresis" unicode="&#x178;" horiz-adv-x="627" 
d="M188 774q-34 0 -57 23t-23 56t23 56t57 23t57 -23t23 -56t-23 -56t-57 -23zM438 774q-34 0 -57 23t-23 56t23 56t57 23t57 -23t23 -56t-23 -56t-57 -23zM237 0v225l-236 476h170l143 -323h4l146 323h162l-236 -476v-225h-153z" />
    <glyph glyph-name="Zacute" unicode="&#x179;" 
d="M283 752l-78 66l184 152l131 -77zM44 0l-21 120l310 448v4h-275v129h440l21 -120l-307 -448v-4h310v-129h-478z" />
    <glyph glyph-name="zacute" unicode="&#x17a;" horiz-adv-x="506" 
d="M252 616l-78 66l184 152l131 -77zM58 0l-20 113l242 327v4h-228v121h387l20 -114l-238 -326v-4h251v-121h-414z" />
    <glyph glyph-name="Zdotaccent" unicode="&#x17b;" 
d="M278 768q-40 0 -66 26t-26 65t26 65t66 26t66 -26t26 -65t-26 -65t-66 -26zM44 0l-21 120l310 448v4h-275v129h440l21 -120l-307 -448v-4h310v-129h-478z" />
    <glyph glyph-name="zdotaccent" unicode="&#x17c;" horiz-adv-x="506" 
d="M253 632q-39 0 -65.5 26t-26.5 65t26.5 65t65.5 26t65.5 -26t26.5 -65t-26.5 -65t-65.5 -26zM58 0l-20 113l242 327v4h-228v121h387l20 -114l-238 -326v-4h251v-121h-414z" />
    <glyph glyph-name="Zcaron" unicode="&#x17d;" 
d="M276 742l-204 125l50 89l154 -84l151 85l56 -90zM44 0l-21 120l310 448v4h-275v129h440l21 -120l-307 -448v-4h310v-129h-478z" />
    <glyph glyph-name="zcaron" unicode="&#x17e;" horiz-adv-x="506" 
d="M252 606l-204 125l50 89l154 -84l151 85l56 -90zM58 0l-20 113l242 327v4h-228v121h387l20 -114l-238 -326v-4h251v-121h-414z" />
    <glyph glyph-name="longs" unicode="&#x17f;" horiz-adv-x="391" 
d="M101 0v605q0 76 51.5 126.5t150.5 50.5q52 0 92 -10l-21 -122q-38 10 -65 10q-31 0 -44 -14.5t-13 -44.5v-601h-151z" />
    <glyph glyph-name="florin" unicode="&#x192;" horiz-adv-x="564" 
d="M68 -201q-91 0 -134 27l50 128q43 -31 83 -31q39 0 60 18.5t27 71.5l39 291h-103v114h117l9 70q14 103 78.5 157.5t152.5 54.5q93 0 134 -26l-48 -125q-36 26 -83 26q-38 0 -58 -18t-26 -71l-8 -68h121v-114h-135l-40 -293q-14 -102 -81 -157t-155 -55z" />
    <glyph glyph-name="Scommaaccent" unicode="&#x218;" horiz-adv-x="573" 
d="M269 -10q-89 0 -153 28.5t-90 58.5l87 126q84 -84 176 -84q44 0 67 19.5t23 48.5q0 30 -33.5 53.5t-80.5 43t-94.5 44.5t-81 70t-33.5 106q0 88 69.5 147.5t177.5 59.5q78 0 134 -27t79 -57l-95 -113q-53 65 -131 65q-36 0 -57 -18t-21 -45q0 -31 33 -54.5t80.5 -43
t95 -44.5t80.5 -70t33 -107q0 -85 -69.5 -146t-195.5 -61zM231 -341l-24 47q43 15 65.5 40.5t22.5 51.5q0 19 -14.5 35t-27 22.5t-37.5 18.5v5q0 32 20.5 53.5t54.5 21.5q42 0 66.5 -29t24.5 -74q0 -71 -45 -121.5t-106 -70.5z" />
    <glyph glyph-name="scommaaccent" unicode="&#x219;" horiz-adv-x="496" 
d="M239 -10q-83 0 -141 26t-89 59l90 104q23 -27 62.5 -48.5t85.5 -21.5q65 0 65 48q0 22 -27.5 38t-66.5 29.5t-78 31.5t-66.5 55t-27.5 89q0 72 57.5 123.5t152.5 51.5q136 0 204 -79l-97 -95q-46 53 -111 53q-25 0 -40.5 -12t-15.5 -32q0 -23 27.5 -39.5t66.5 -29.5
t78 -31t66.5 -55t27.5 -89q0 -67 -55.5 -121.5t-167.5 -54.5zM184 -341l-24 47q43 15 65.5 40.5t22.5 51.5q0 19 -14.5 35t-27 22.5t-37.5 18.5v5q0 32 20.5 53.5t54.5 21.5q42 0 66.5 -29t24.5 -74q0 -71 -45 -121.5t-106 -70.5z" />
    <glyph glyph-name="uni021A" unicode="&#x21a;" horiz-adv-x="507" 
d="M177 0v575h-174v126h501v-126h-174v-575h-153zM189 -341l-24 47q43 15 65.5 40.5t22.5 51.5q0 19 -14.5 35t-27 22.5t-37.5 18.5v5q0 32 20.5 53.5t54.5 21.5q42 0 66.5 -29t24.5 -74q0 -71 -45 -121.5t-106 -70.5z" />
    <glyph glyph-name="uni021B" unicode="&#x21b;" horiz-adv-x="402" 
d="M247 -5q-167 0 -167 186v269h-72v94l73 30l52 133h96v-142h141v-115h-141v-273q0 -59 59 -59q45 0 77 25l39 -113q-48 -35 -157 -35zM137 -341l-24 47q43 15 65.5 40.5t22.5 51.5q0 19 -14.5 35t-27 22.5t-37.5 18.5v5q0 32 20.5 53.5t54.5 21.5q42 0 66.5 -29t24.5 -74
q0 -71 -45 -121.5t-106 -70.5z" />
    <glyph glyph-name="uni0237" unicode="&#x237;" horiz-adv-x="289" 
d="M18 -252l-48 119q57 25 78.5 62t21.5 121v515h151v-520q0 -37 -4 -69t-17 -68.5t-34.5 -65t-59 -54t-88.5 -40.5z" />
    <glyph glyph-name="apostrophe" unicode="&#x2bc;" horiz-adv-x="286" 
d="M64 401l-47 67q105 46 105 113q0 54 -69 77v14q0 36 25 61t64 25q48 0 76.5 -33.5t28.5 -85.5q0 -80 -54.5 -147t-128.5 -91z" />
    <glyph glyph-name="circumflex" unicode="&#x2c6;" horiz-adv-x="508" 
d="M98 616l-50 89l204 125l207 -125l-56 -90l-151 85z" />
    <glyph glyph-name="caron" unicode="&#x2c7;" horiz-adv-x="508" 
d="M252 606l-204 125l50 89l154 -84l151 85l56 -90z" />
    <glyph glyph-name="breve" unicode="&#x2d8;" horiz-adv-x="508" 
d="M254 616q-140 0 -205 125l97 57q32 -75 108 -75q44 0 70.5 23.5t38.5 51.5l96 -57q-65 -125 -205 -125z" />
    <glyph glyph-name="dotaccent" unicode="&#x2d9;" horiz-adv-x="508" 
d="M254 632q-40 0 -66 26t-26 65t26 65t66 26t66 -26t26 -65t-26 -65t-66 -26z" />
    <glyph glyph-name="ring" unicode="&#x2da;" horiz-adv-x="508" 
d="M252 588q-60 0 -95 34t-35 88q0 55 36.5 91.5t95.5 36.5q60 0 95.5 -34t35.5 -88t-36.5 -91t-96.5 -37zM253 660q54 0 54 52q0 54 -54 54q-53 0 -53 -52q0 -24 13.5 -39t39.5 -15z" />
    <glyph glyph-name="ogonek" unicode="&#x2db;" horiz-adv-x="508" 
d="M268 -246q-70 0 -103.5 33t-33.5 84q0 39 20 75t52 62t59 42t54 28l49 -64q-123 -69 -123 -126q0 -42 45 -42q29 0 62 18l28 -85q-44 -25 -109 -25z" />
    <glyph glyph-name="tilde" unicode="&#x2dc;" horiz-adv-x="508" 
d="M109 634l-59 86q15 25 45.5 47t69.5 22q33 0 85 -20.5t73 -20.5q26 0 41 9.5t34 34.5l59 -86q-15 -25 -45.5 -47t-69.5 -22q-29 0 -84 20.5t-73 20.5q-45 0 -76 -44z" />
    <glyph glyph-name="hungarumlaut" unicode="&#x2dd;" horiz-adv-x="508" 
d="M55 592l-66 78l191 174l79 -92zM283 594l-46 91l227 128l55 -108z" />
    <glyph glyph-name="pi" unicode="&#x3c0;" horiz-adv-x="648" 
d="M191 -14l-126 73q26 36 36.5 69t10.5 103v208h-77v126h567v-126h-77v-439h-149v439h-116v-212q0 -161 -69 -241z" />
    <glyph glyph-name="Wgrave" unicode="&#x1e80;" horiz-adv-x="962" 
d="M484 752l-237 141l131 77l184 -152zM185 0l-178 701h165l69 -283q37 -153 41 -247h4q6 56 34 187l75 343h181l79 -342q26 -109 35 -186h4q8 98 39 228l70 300h152l-179 -701h-180l-71 311q-29 126 -40 218h-4q-15 -107 -34 -186l-81 -343h-181z" />
    <glyph glyph-name="wgrave" unicode="&#x1e81;" horiz-adv-x="829" 
d="M420 616l-237 141l131 77l184 -152zM151 0l-147 565h151l60 -261q21 -95 29 -176h4q8 84 31 175l70 262h144l61 -258q28 -118 31 -179h4q8 73 34 181l60 256h134l-146 -565h-176l-75 378h-4l-92 -378h-173z" />
    <glyph glyph-name="Wacute" unicode="&#x1e82;" horiz-adv-x="962" 
d="M473 752l-78 66l184 152l131 -77zM185 0l-178 701h165l69 -283q37 -153 41 -247h4q6 56 34 187l75 343h181l79 -342q26 -109 35 -186h4q8 98 39 228l70 300h152l-179 -701h-180l-71 311q-29 126 -40 218h-4q-15 -107 -34 -186l-81 -343h-181z" />
    <glyph glyph-name="wacute" unicode="&#x1e83;" horiz-adv-x="829" 
d="M408 616l-78 66l184 152l131 -77zM151 0l-147 565h151l60 -261q21 -95 29 -176h4q8 84 31 175l70 262h144l61 -258q28 -118 31 -179h4q8 73 34 181l60 256h134l-146 -565h-176l-75 378h-4l-92 -378h-173z" />
    <glyph glyph-name="Wdieresis" unicode="&#x1e84;" horiz-adv-x="962" 
d="M356 774q-34 0 -57 23t-23 56t23 56t57 23t57 -23t23 -56t-23 -56t-57 -23zM606 774q-34 0 -57 23t-23 56t23 56t57 23t57 -23t23 -56t-23 -56t-57 -23zM185 0l-178 701h165l69 -283q37 -153 41 -247h4q6 56 34 187l75 343h181l79 -342q26 -109 35 -186h4q8 98 39 228
l70 300h152l-179 -701h-180l-71 311q-29 126 -40 218h-4q-15 -107 -34 -186l-81 -343h-181z" />
    <glyph glyph-name="wdieresis" unicode="&#x1e85;" horiz-adv-x="829" 
d="M289 638q-34 0 -57 23t-23 56t23 56t57 23t57 -23t23 -56t-23 -56t-57 -23zM539 638q-34 0 -57 23t-23 56t23 56t57 23t57 -23t23 -56t-23 -56t-57 -23zM151 0l-147 565h151l60 -261q21 -95 29 -176h4q8 84 31 175l70 262h144l61 -258q28 -118 31 -179h4q8 73 34 181
l60 256h134l-146 -565h-176l-75 378h-4l-92 -378h-173z" />
    <glyph glyph-name="Ygrave" unicode="&#x1ef2;" horiz-adv-x="627" 
d="M305 752l-237 141l131 77l184 -152zM237 0v225l-236 476h170l143 -323h4l146 323h162l-236 -476v-225h-153z" />
    <glyph glyph-name="ygrave" unicode="&#x1ef3;" horiz-adv-x="545" 
d="M281 616l-237 141l131 77l184 -152zM132 -213q-58 0 -92 17l25 124q26 -14 61 -14q83 0 91 88l-212 563h169l63 -192q38 -117 50 -197h4q16 104 42 197l53 192h156l-190 -593q-28 -86 -78.5 -135.5t-141.5 -49.5z" />
    <glyph glyph-name="endash" unicode="&#x2013;" horiz-adv-x="485" 
d="M4 260v121h477v-121h-477z" />
    <glyph glyph-name="emdash" unicode="&#x2014;" horiz-adv-x="772" 
d="M4 260v121h764v-121h-764z" />
    <glyph glyph-name="quoteleft" unicode="&#x2018;" horiz-adv-x="286" 
d="M146 400q-48 0 -76.5 33.5t-28.5 85.5q0 80 54.5 147t128.5 91l47 -67q-105 -46 -105 -113q0 -54 69 -77v-14q0 -36 -25 -61t-64 -25z" />
    <glyph glyph-name="quoteright" unicode="&#x2019;" horiz-adv-x="286" 
d="M64 401l-47 67q105 46 105 113q0 54 -69 77v14q0 36 25 61t64 25q48 0 76.5 -33.5t28.5 -85.5q0 -80 -54.5 -147t-128.5 -91z" />
    <glyph glyph-name="quotesinglbase" unicode="&#x201a;" horiz-adv-x="295" 
d="M68 -180l-47 67q105 46 105 113q0 54 -69 77v14q0 36 25 61t64 25q48 0 76.5 -33.5t28.5 -85.5q0 -80 -54.5 -147t-128.5 -91z" />
    <glyph glyph-name="quotedblleft" unicode="&#x201c;" horiz-adv-x="548" 
d="M146 400q-48 0 -76.5 33.5t-28.5 85.5q0 80 54.5 147t128.5 91l47 -67q-105 -46 -105 -113q0 -54 69 -77v-14q0 -36 -25 -61t-64 -25zM408 400q-48 0 -76.5 33.5t-28.5 85.5q0 80 54.5 147t128.5 91l47 -67q-105 -46 -105 -113q0 -54 69 -77v-14q0 -36 -25 -61t-64 -25z
" />
    <glyph glyph-name="quotedblright" unicode="&#x201d;" horiz-adv-x="548" 
d="M64 401l-47 67q105 46 105 113q0 54 -69 77v14q0 36 25 61t64 25q48 0 76.5 -33.5t28.5 -85.5q0 -80 -54.5 -147t-128.5 -91zM326 401l-47 67q105 46 105 113q0 54 -69 77v14q0 36 25 61t64 25q48 0 76.5 -33.5t28.5 -85.5q0 -80 -54.5 -147t-128.5 -91z" />
    <glyph glyph-name="quotedblbase" unicode="&#x201e;" 
d="M66 -180l-47 67q105 46 105 113q0 54 -69 77v14q0 36 25 61t64 25q48 0 76.5 -33.5t28.5 -85.5q0 -80 -54.5 -147t-128.5 -91zM328 -180l-47 67q105 46 105 113q0 54 -69 77v14q0 36 25 61t64 25q48 0 76.5 -33.5t28.5 -85.5q0 -80 -54.5 -147t-128.5 -91z" />
    <glyph glyph-name="dagger" unicode="&#x2020;" horiz-adv-x="555" 
d="M199 -183l15 625l-168 -12v135l168 -10l-15 206h156l-15 -206l169 10v-135l-169 13l15 -626h-156z" />
    <glyph glyph-name="daggerdbl" unicode="&#x2021;" 
d="M200 -183l15 206l-169 -10v135l164 -10v301l-163 -9v135l168 -10l-15 206h156l-15 -206l169 10v-135l-164 10v-301l163 9v-135l-168 10l15 -206h-156z" />
    <glyph glyph-name="bullet" unicode="&#x2022;" horiz-adv-x="471" 
d="M236 219q-61 0 -97.5 37.5t-36.5 93.5q0 55 38 93t95 38q61 0 97.5 -37.5t36.5 -93.5q0 -55 -38 -93t-95 -38z" />
    <glyph glyph-name="ellipsis" unicode="&#x2026;" horiz-adv-x="895" 
d="M146 -9q-40 0 -68.5 28t-28.5 68q0 43 28 72t69 29q43 0 71.5 -29t28.5 -72q0 -40 -29 -68t-71 -28zM446 -9q-40 0 -68.5 28t-28.5 68q0 43 28 72t69 29q43 0 71.5 -29t28.5 -72q0 -40 -29 -68t-71 -28zM746 -9q-40 0 -68.5 28t-28.5 68q0 43 28 72t69 29q43 0 71.5 -29
t28.5 -72q0 -40 -29 -68t-71 -28z" />
    <glyph glyph-name="perthousand" unicode="&#x2030;" horiz-adv-x="1278" 
d="M210 329q-168 0 -168 189q0 92 46 142t128 50q168 0 168 -186q0 -96 -45.5 -145.5t-128.5 -49.5zM189 29l-64 63l580 587l65 -63zM214 414q33 0 46.5 24.5t13.5 80.5q0 106 -64 106q-58 0 -58 -106q0 -105 62 -105zM666 -9q-168 0 -168 189q0 92 46 142t128 50
q168 0 168 -186q0 -96 -45.5 -145.5t-128.5 -49.5zM1062 -9q-168 0 -168 189q0 92 46 142t128 50q168 0 168 -186q0 -96 -45.5 -145.5t-128.5 -49.5zM670 76q33 0 46.5 24.5t13.5 80.5q0 106 -64 106q-58 0 -58 -106q0 -105 62 -105zM1066 76q33 0 46.5 24.5t13.5 80.5
q0 106 -64 106q-58 0 -58 -106q0 -105 62 -105z" />
    <glyph glyph-name="guilsinglleft" unicode="&#x2039;" horiz-adv-x="358" 
d="M238 26l-202 257l202 258l94 -75l-142 -183l142 -182z" />
    <glyph glyph-name="guilsinglright" unicode="&#x203a;" horiz-adv-x="358" 
d="M130 26l-94 75l142 182l-142 183l94 75l202 -258z" />
    <glyph glyph-name="fraction" unicode="&#x2044;" horiz-adv-x="183" 
d="M-77 -15l-75 40l414 686l74 -41z" />
    <glyph glyph-name="uni20A8" unicode="&#x20a8;" horiz-adv-x="1114" 
d="M309 701q120 0 181.5 -49.5t61.5 -156.5q0 -86 -40.5 -134t-107.5 -61v-4q28 -13 48 -35.5t45 -67.5l107 -193h-182l-116 228q-17 33 -64 33h-10v-261h-151v701h228zM232 382h58q59 0 83 24.5t24 75.5q0 93 -105 93h-60v-193zM661 400q0 72 57.5 123.5t152.5 51.5
q136 0 204 -79l-97 -95q-46 53 -111 53q-25 0 -40.5 -12t-15.5 -32q0 -23 27.5 -39.5t66.5 -29.5t78 -31t66.5 -55t27.5 -89q0 -67 -55.5 -121.5t-167.5 -54.5q-83 0 -141 26t-89 59l90 104q23 -27 62.5 -48.5t85.5 -21.5q65 0 65 48q0 22 -27.5 38t-66.5 29.5t-78 31.5
t-66.5 55t-27.5 89z" />
    <glyph glyph-name="Euro" unicode="&#x20ac;" horiz-adv-x="616" 
d="M386 -10q-122 0 -187.5 58.5t-88.5 169.5h-74v105h64v50h-64v105h77q57 232 285 232q48 0 86.5 -8.5t64.5 -25t36.5 -25t24.5 -23.5l-100 -113q-18 22 -28.5 32.5t-37 22.5t-59.5 12q-106 0 -133 -104h215l-31 -105h-193v-20q0 -21 1 -30h179l-26 -105h-138
q28 -100 141 -100q30 0 56 12.5t36.5 23t26.5 29.5l82 -111q-68 -82 -215 -82z" />
    <glyph glyph-name="uni20B9" unicode="&#x20b9;" horiz-adv-x="558" 
d="M256 0l-101 128q-63 80 -126 111v115q38 -10 79 -10q116 0 148 74q-58 -4 -189 -4h-38v101h42q106 0 190 -4q-14 41 -46.5 59t-101.5 18h-84v101h517v-101h-194v-4q36 -25 52 -69h142v-101h-136q-14 -78 -72 -117t-122 -39h-11v-4q50 -30 124 -121l107 -133h-180z" />
    <glyph glyph-name="trademark" unicode="&#x2122;" horiz-adv-x="661" 
d="M95 421v213h-86v67h246v-67h-78v-213h-82zM297 421v280h104l59 -172l55 172h104v-280h-76v92l6 100h-4l-56 -162h-61l-56 163h-4q5 -30 5 -89v-104h-76z" />
    <glyph glyph-name="uni2126" unicode="&#x2126;" horiz-adv-x="790" 
d="M64 0v128l141 -9v4q-51 34 -82 97t-31 144q0 167 81.5 256t230.5 89t227 -86t78 -253q0 -80 -34.5 -149t-80.5 -98v-4l143 9v-128h-292v140q33 13 54.5 33t36.5 67t15 120q0 227 -153 227q-74 0 -111 -52t-37 -169q0 -73 15 -121.5t36.5 -70t54.5 -34.5v-140h-292z" />
    <glyph glyph-name="estimated" unicode="&#x212e;" horiz-adv-x="698" 
d="M356 -10q-136 0 -216 82t-80 210q0 125 80.5 209.5t213.5 84.5q120 0 196.5 -72.5t76.5 -195.5q0 -26 -2 -45h-393v-151q46 -40 127 -40q128 0 188 96l68 -44q-82 -134 -259 -134zM232 337h239v125q-35 37 -114 37q-85 0 -125 -42v-120z" />
    <glyph glyph-name="partialdiff" unicode="&#x2202;" horiz-adv-x="554" 
d="M266 -9q-109 0 -168.5 54t-59.5 166q0 111 62.5 177t151.5 66q52 0 88 -16q-28 76 -116.5 148.5t-161.5 104.5v10h207q89 -42 163 -153.5t74 -255.5q0 -146 -65 -223.5t-175 -77.5zM268 111q52 0 76 34.5t24 113.5q0 43 -4 64q-39 15 -86 15q-51 0 -76.5 -26.5
t-25.5 -87.5q0 -57 25 -85t67 -28z" />
    <glyph glyph-name="uni2206" unicode="&#x2206;" horiz-adv-x="666" 
d="M72 0l-58 88l261 613h128l249 -614l-56 -87h-524zM167 127h326l-46 97l-54 133l-57 173h-4l-60 -173l-57 -134z" />
    <glyph glyph-name="product" unicode="&#x220f;" horiz-adv-x="677" 
d="M181 -164l-125 73q26 36 36.5 69t10.5 103v620h474v-851h-147v726h-180v-499q0 -161 -69 -241z" />
    <glyph glyph-name="summation" unicode="&#x2211;" horiz-adv-x="541" 
d="M106 -171l-51 84l156 352l-156 352l51 84h388v-122h-170l-108 4v-4l55 -113l81 -201l-81 -201l-55 -113v-4l114 4h164v-122h-388z" />
    <glyph glyph-name="minus" unicode="&#x2212;" horiz-adv-x="558" 
d="M32 290v118h494v-118h-494z" />
    <glyph glyph-name="uni2215" unicode="&#x2215;" horiz-adv-x="183" 
d="M-77 -15l-75 40l414 686l74 -41z" />
    <glyph glyph-name="uni2219" unicode="&#x2219;" horiz-adv-x="302" 
d="M149 245q-40 0 -68.5 28t-28.5 68q0 43 28 72t69 29q43 0 71.5 -29t28.5 -72q0 -40 -29 -68t-71 -28z" />
    <glyph glyph-name="radical" unicode="&#x221a;" horiz-adv-x="725" 
d="M324 -161l-200 543h-123l42 109h173l108 -289l63 -210h4l73 295l186 651h118l-309 -1099h-135z" />
    <glyph glyph-name="infinity" unicode="&#x221e;" horiz-adv-x="860" 
d="M246 165q-90 0 -138 44.5t-48 127.5q0 81 52 129.5t138 48.5q98 0 179 -90q81 93 186 93q88 0 136.5 -45.5t48.5 -126.5q0 -80 -52 -129t-137 -49q-103 0 -181 91q-25 -28 -42.5 -43.5t-56.5 -33t-85 -17.5zM605 280q67 0 67 64q0 27 -17 45t-47 18q-25 0 -47 -13.5
t-31 -24t-24 -30.5q20 -19 31 -29t30.5 -20t37.5 -10zM255 276q52 0 99 68q-59 59 -99 59q-32 0 -50 -17t-18 -47t18 -46.5t50 -16.5z" />
    <glyph glyph-name="integral" unicode="&#x222b;" horiz-adv-x="502" 
d="M47 -209q-76 0 -131 32l64 110q25 -16 57 -16q40 0 62 19t28 69l85 672q28 218 228 218q76 0 131 -32l-64 -110q-25 16 -57 16q-40 0 -62 -19t-28 -69l-85 -672q-28 -218 -228 -218z" />
    <glyph glyph-name="approxequal" unicode="&#x2248;" horiz-adv-x="588" 
d="M121 363l-107 19q12 77 55.5 119t117.5 42q42 0 119 -32q64 -27 95 -27q26 0 40.5 13.5t24.5 49.5l107 -18q-12 -77 -55 -119t-117 -42q-44 0 -118 32q-64 27 -94 27q-26 0 -41.5 -14t-26.5 -50zM121 149l-107 19q12 77 55.5 119t117.5 42q42 0 119 -32q64 -27 95 -27
q26 0 40.5 13.5t24.5 49.5l107 -18q-12 -77 -55 -119t-117 -42q-44 0 -118 32q-64 27 -94 27q-26 0 -41.5 -14t-26.5 -50z" />
    <glyph glyph-name="notequal" unicode="&#x2260;" horiz-adv-x="558" 
d="M526 404h-171l-41 -110h212v-119h-256l-36 -95h-106l36 95h-132v119h176l41 110h-217v119h262l33 89h106l-33 -89h126v-119z" />
    <glyph glyph-name="lessequal" unicode="&#x2264;" horiz-adv-x="558" 
d="M526 119l-494 212v110l494 211v-149l-173 -67l-147 -50v-4l148 -49l172 -65v-149zM32 0v118h494v-118h-494z" />
    <glyph glyph-name="greaterequal" unicode="&#x2265;" horiz-adv-x="558" 
d="M32 119v149l172 65l148 49v4l-147 50l-173 67v149l494 -211v-110zM32 0v118h494v-118h-494z" />
    <glyph glyph-name="lozenge" unicode="&#x25ca;" horiz-adv-x="575" 
d="M214 0l-208 350l208 351h127l209 -351l-209 -350h-127zM275 147h4l52 98l64 105l-64 106l-52 98h-4l-51 -98l-63 -106l63 -105z" />
    <glyph glyph-name="four.superior" horiz-adv-x="385" 
d="M221 379v86h-180l-21 73l186 261h123v-253h62v-81h-62v-86h-108zM132 546h89v58l9 93h-2l-42 -69z" />
    <glyph glyph-name="f_f" horiz-adv-x="716" 
d="M580 601v-36h123v-104h-126v-461h-151v461h-174v-461h-151v461h-83v104h86v42q0 175 243 175q38 0 85.5 -8.5t75.5 -21.5q49 30 123 30q52 0 92 -10l-21 -122q-38 10 -65 10q-31 0 -44 -14.5t-13 -44.5zM429 565v40q0 21 5 46q-45 12 -93 12q-53 0 -69.5 -17.5
t-16.5 -53.5v-27h174z" />
    <glyph glyph-name="f_f_i" horiz-adv-x="970" 
d="M902 565v-565h-151v461h-174v-461h-151v461h-174v-461h-151v461h-83v104h86v42q0 175 243 175q38 0 86.5 -9t76.5 -22q60 31 163 31q143 0 207 -32l-32 -110q-64 23 -182 23q-53 0 -69.5 -17.5t-16.5 -53.5v-27h322zM429 565v42q0 25 4 44q-45 12 -92 12
q-53 0 -69.5 -17.5t-16.5 -53.5v-27h174z" />
    <glyph glyph-name="f_f_l" horiz-adv-x="997" 
d="M949 122q11 0 21 2v-119q-36 -14 -72 -14q-69 0 -108 39t-39 109v520q-36 4 -85 4q-53 0 -69.5 -17.5t-16.5 -53.5v-27h94v-104h-97v-461h-151v461h-174v-461h-151v461h-83v104h86v42q0 175 243 175q38 0 86.5 -9t76.5 -22q60 31 163 31q162 0 229 -37v-567q0 -56 47 -56
zM429 565v42q0 25 4 44q-45 12 -92 12q-53 0 -69.5 -17.5t-16.5 -53.5v-27h174z" />
    <glyph glyph-name="a.ss01" horiz-adv-x="576" 
d="M240 -10q-202 0 -202 269q0 138 69.5 224.5t201.5 86.5t199 -31l-2 -326l-1 -213h-127l-5 65h-4q-52 -75 -129 -75zM275 110q65 0 92 54v281q-16 7 -48 7q-60 0 -95.5 -46.5t-35.5 -134.5q0 -161 87 -161z" />
    <glyph glyph-name="aacute.ss01" 
d="M294 616l-78 66l184 152l131 -77zM242 -10q-202 0 -202 269q0 138 69.5 224.5t201.5 86.5t199 -31l-2 -326l-1 -213h-127l-5 65h-4q-52 -75 -129 -75zM277 110q65 0 92 54v281q-16 7 -48 7q-60 0 -95.5 -46.5t-35.5 -134.5q0 -161 87 -161z" />
    <glyph glyph-name="abreve.ss01" 
d="M298 616q-140 0 -205 125l97 57q32 -75 108 -75q44 0 70.5 23.5t38.5 51.5l96 -57q-65 -125 -205 -125zM242 -10q-202 0 -202 269q0 138 69.5 224.5t201.5 86.5t199 -31l-2 -326l-1 -213h-127l-5 65h-4q-52 -75 -129 -75zM277 110q65 0 92 54v281q-16 7 -48 7
q-60 0 -95.5 -46.5t-35.5 -134.5q0 -161 87 -161z" />
    <glyph glyph-name="acircumflex.ss01" 
d="M152 616l-50 89l204 125l207 -125l-56 -90l-151 85zM242 -10q-202 0 -202 269q0 138 69.5 224.5t201.5 86.5t199 -31l-2 -326l-1 -213h-127l-5 65h-4q-52 -75 -129 -75zM277 110q65 0 92 54v281q-16 7 -48 7q-60 0 -95.5 -46.5t-35.5 -134.5q0 -161 87 -161z" />
    <glyph glyph-name="adieresis.ss01" 
d="M173 638q-34 0 -57 23t-23 56t23 56t57 23t57 -23t23 -56t-23 -56t-57 -23zM423 638q-34 0 -57 23t-23 56t23 56t57 23t57 -23t23 -56t-23 -56t-57 -23zM242 -10q-202 0 -202 269q0 138 69.5 224.5t201.5 86.5t199 -31l-2 -326l-1 -213h-127l-5 65h-4q-52 -75 -129 -75z
M277 110q65 0 92 54v281q-16 7 -48 7q-60 0 -95.5 -46.5t-35.5 -134.5q0 -161 87 -161z" />
    <glyph glyph-name="agrave.ss01" 
d="M351 616l-237 141l131 77l184 -152zM242 -10q-202 0 -202 269q0 138 69.5 224.5t201.5 86.5t199 -31l-2 -326l-1 -213h-127l-5 65h-4q-52 -75 -129 -75zM277 110q65 0 92 54v281q-16 7 -48 7q-60 0 -95.5 -46.5t-35.5 -134.5q0 -161 87 -161z" />
    <glyph glyph-name="amacron.ss01" 
d="M150 639v119h316v-119h-316zM242 -10q-202 0 -202 269q0 138 69.5 224.5t201.5 86.5t199 -31l-2 -326l-1 -213h-127l-5 65h-4q-52 -75 -129 -75zM277 110q65 0 92 54v281q-16 7 -48 7q-60 0 -95.5 -46.5t-35.5 -134.5q0 -161 87 -161z" />
    <glyph glyph-name="aogonek.ss01" 
d="M491 -150l28 -85q-44 -25 -109 -25q-70 0 -103.5 33t-33.5 84q0 90 105 163l-3 45h-4q-52 -75 -129 -75q-202 0 -202 269q0 138 69.5 224.5t201.5 86.5t199 -31l-2 -326l-1 -213q-123 -69 -123 -126q0 -42 45 -42q29 0 62 18zM369 164v281q-16 7 -48 7q-60 0 -95.5 -46.5
t-35.5 -134.5q0 -161 87 -161q65 0 92 54z" />
    <glyph glyph-name="aring.ss01" 
d="M296 588q-60 0 -95 34t-35 88q0 55 36.5 91.5t95.5 36.5q60 0 95.5 -34t35.5 -88t-36.5 -91t-96.5 -37zM297 660q54 0 54 52q0 54 -54 54q-53 0 -53 -52q0 -24 13.5 -39t39.5 -15zM242 -10q-202 0 -202 269q0 138 69.5 224.5t201.5 86.5t199 -31l-2 -326l-1 -213h-127
l-5 65h-4q-52 -75 -129 -75zM277 110q65 0 92 54v281q-16 7 -48 7q-60 0 -95.5 -46.5t-35.5 -134.5q0 -161 87 -161z" />
    <glyph glyph-name="atilde.ss01" 
d="M163 634l-59 86q15 25 45.5 47t69.5 22q33 0 85 -20.5t73 -20.5q26 0 41 9.5t34 34.5l59 -86q-15 -25 -45.5 -47t-69.5 -22q-29 0 -84 20.5t-73 20.5q-45 0 -76 -44zM242 -10q-202 0 -202 269q0 138 69.5 224.5t201.5 86.5t199 -31l-2 -326l-1 -213h-127l-5 65h-4
q-52 -75 -129 -75zM277 110q65 0 92 54v281q-16 7 -48 7q-60 0 -95.5 -46.5t-35.5 -134.5q0 -161 87 -161z" />
    <glyph glyph-name="one.superior" horiz-adv-x="333" 
d="M166 379v211l3 109h-4l-60 -45l-40 -25l-53 85l154 85h112v-420h-112z" />
    <glyph glyph-name="two.superior" horiz-adv-x="393" 
d="M50 379l-18 77q5 5 33.5 28.5t50.5 43.5t49.5 48.5t42.5 50.5q20 32 20 51q0 44 -38 44q-20 0 -31 -16t-12 -40l-110 18q6 54 45.5 86.5t114.5 32.5q71 0 106.5 -31t35.5 -86q0 -56 -47 -115q-26 -33 -72 -73l-53 -43l75 4h104v-80h-296z" />
    <glyph glyph-name="three.superior" horiz-adv-x="385" 
d="M179 374q-60 0 -99 25.5t-54 64.5l101 44q19 -55 68 -55q28 0 39 13t11 38q0 49 -80 49h-29v76h33q37 0 49.5 12.5t12.5 38.5q0 45 -47 45q-37 0 -39 -48l-107 8q2 52 41.5 85.5t107.5 33.5q149 0 149 -110q0 -72 -62 -94q78 -11 78 -89q0 -65 -46.5 -101t-126.5 -36z
" />
    </font>
</defs>
</svg>
