<?xml version="1.0" standalone="no"?>
<!DOCTYPE svg PUBLIC "-//W3C//DTD SVG 1.1//EN" "http://www.w3.org/Graphics/SVG/1.1/DTD/svg11.dtd" >
<svg xmlns="http://www.w3.org/2000/svg" xmlns:xlink="http://www.w3.org/1999/xlink" version="1.1">
<metadata>
Created by FontForge 20170731 at Wed Oct 10 01:32:30 2018
 By Aleksey,,,
Copyright (c) 2017 by Satya Rajpurohit. All rights reserved.
</metadata>
<defs>
<font id="KohinoorKBS-SemiboldItalic" horiz-adv-x="588" >
  <font-face 
    font-family="Kohinoor KBS Semibold Italic"
    font-weight="600"
    font-style="italic"
    font-stretch="normal"
    units-per-em="1000"
    panose-1="0 0 8 0 0 0 0 0 0 0"
    ascent="800"
    descent="-200"
    x-height="557"
    cap-height="701"
    bbox="-239 -335 1181 986"
    underline-thickness="50"
    underline-position="-200"
    slope="-8"
    unicode-range="U+0020-25CA"
  />
<missing-glyph horiz-adv-x="478" 
d="M392 761v-955h-303v955h303zM318 697h-158v-31h63v-36h-64v-31h159v31h-63v36h63v31zM255 574h-96v-99h159v32h-63v67zM223 541v-34h-32v34h32zM318 449h-159v-32h64v-35h-64v-32h96v67h63v32zM318 391h-31v-63h-128v-32h159v95zM318 275h-95v-54h32v22h32v-44h-96v76
h-32v-108h159v108zM318 110h-159v-108h159v108zM287 78v-45h-96v45h96zM318 -20h-159v-32h67l-67 -45v-31h159v31h-97l66 45h31v32z" />
    <glyph glyph-name="f_i" unicode="fi" horiz-adv-x="621" 
d="M507 130q0 -18 8.5 -25.5t29.5 -7.5h22l-12 -87q-26 -14 -67 -14q-48 0 -77 27.5t-29 81.5q0 13 19 160l29 204h-188l-91 -663h-120l92 663h-86l13 88h87l8 48q24 171 246 171q118 0 179 -28l-34 -95q-70 24 -152 24q-61 0 -88 -18.5t-32 -57.5l-7 -44h309l-42 -292
q-17 -121 -17 -135z" />
    <glyph glyph-name="f_l" unicode="fl" horiz-adv-x="632" 
d="M509 150q-3 -28 7 -39.5t34 -11.5q17 0 29 3l-14 -97q-27 -12 -66 -12q-63 0 -94 36t-23 99q3 23 9.5 68.5t9.5 68.5l57 405q-37 7 -73 7q-61 0 -88.5 -18.5t-32.5 -57.5l-7 -44h107l-13 -88h-109l-91 -663h-120l92 663h-86l13 88h87l8 48q24 171 246 171q124 0 200 -40
l-67 -471q-14 -106 -15 -115z" />
    <glyph glyph-name=".notdef" horiz-adv-x="478" 
d="M392 761v-955h-303v955h303zM318 697h-158v-31h63v-36h-64v-31h159v31h-63v36h63v31zM255 574h-96v-99h159v32h-63v67zM223 541v-34h-32v34h32zM318 449h-159v-32h64v-35h-64v-32h96v67h63v32zM318 391h-31v-63h-128v-32h159v95zM318 275h-95v-54h32v22h32v-44h-96v76
h-32v-108h159v108zM318 110h-159v-108h159v108zM287 78v-45h-96v45h96zM318 -20h-159v-32h67l-67 -45v-31h159v31h-97l66 45h31v32z" />
    <glyph glyph-name=".null" horiz-adv-x="0" 
 />
    <glyph glyph-name="nonmarkingreturn" horiz-adv-x="333" 
 />
    <glyph glyph-name="space" unicode=" " horiz-adv-x="243" 
 />
    <glyph glyph-name="exclam" unicode="!" horiz-adv-x="289" 
d="M86 276l36 449h155l-88 -449h-103zM104 -7q-34 0 -56.5 22t-22.5 55q0 40 26 67t65 27q36 0 58.5 -23t22.5 -58q0 -40 -27 -65t-66 -25z" />
    <glyph glyph-name="quotedbl" unicode="&#x22;" horiz-adv-x="402" 
d="M73 472l16 245h127l-53 -245h-90zM266 472l16 245h127l-53 -245h-90z" />
    <glyph glyph-name="numbersign" unicode="#" horiz-adv-x="686" 
d="M72 0l56 191h-109l23 92h110l42 135h-110l23 92h113l55 187h105l-55 -187h152l55 187h105l-55 -187h98l-23 -92h-101l-40 -135h99l-24 -92h-101l-55 -191h-106l56 191h-152l-55 -191h-106zM258 283h153l39 135h-151z" />
    <glyph glyph-name="dollar" unicode="$" horiz-adv-x="543" 
d="M343 380q70 -35 104 -75t34 -96q0 -77 -52.5 -135t-154.5 -69l-16 -136h-103l22 138q-113 16 -176 84l79 89q25 -28 66.5 -50t95.5 -22q57 0 86 26.5t29 62.5q0 31 -22.5 52t-82.5 51l-52 27q-119 57 -119 167q0 87 58 140t148 62l15 129h103l-21 -132q90 -15 136 -74
l-86 -80q-39 54 -119 54q-49 0 -79.5 -25.5t-30.5 -63.5q0 -32 22.5 -54t71.5 -47z" />
    <glyph glyph-name="percent" unicode="%" horiz-adv-x="862" 
d="M210 326q-68 0 -106 37t-38 108q0 104 47 170t141 66q68 0 105.5 -36.5t37.5 -107.5q0 -104 -47 -170.5t-140 -66.5zM146 26l-53 58l634 595l54 -58zM216 399q90 0 91 169q0 67 -58 67q-92 0 -92 -170q0 -66 59 -66zM609 -9q-68 0 -106 37t-38 108q0 104 47.5 170
t140.5 66q68 0 105.5 -37t37.5 -108q0 -103 -47 -169.5t-140 -66.5zM615 63q90 0 91 169q0 68 -58 68q-92 0 -92 -170q0 -67 59 -67z" />
    <glyph glyph-name="ampersand" unicode="&#x26;" horiz-adv-x="797" 
d="M631 -45l-110 115q-101 -88 -250 -88q-115 0 -178.5 62t-63.5 151q0 84 53.5 137t140.5 71q-49 59 -49 130q0 72 52.5 124t140.5 52q92 0 138.5 -45t52.5 -119q1 0 41.5 6t76.5 6h120l-14 -99h-126q4 -36 4 -56q0 -141 -69 -252l179 -188v-7h-139zM517 228q39 76 39 161
q0 39 -6 69h-90q4 30 4 45q0 56 -26 84t-70 28q-41 0 -64 -24t-23 -58q0 -41 27 -78.5t103 -115.5zM292 84q92 0 159 59l-130 137q-26 26 -37 38q-60 -6 -96.5 -34.5t-36.5 -82.5q0 -51 37 -84t104 -33z" />
    <glyph glyph-name="quotesingle" unicode="'" horiz-adv-x="209" 
d="M73 472l15 245h127l-53 -245h-89z" />
    <glyph glyph-name="parenleft" unicode="(" horiz-adv-x="371" 
d="M220 -245q-13 13 -35 49t-49.5 94.5t-46.5 143.5t-19 173q0 180 78.5 344t211.5 270h130l-2 -12q-63 -52 -111.5 -104.5t-97.5 -127t-76 -170.5t-27 -205q0 -129 47.5 -248.5t111.5 -194.5l-2 -12h-113z" />
    <glyph glyph-name="parenright" unicode=")" horiz-adv-x="371" 
d="M-123 -245l1 11q50 41 89.5 80.5t83 97.5t73 118.5t48.5 141.5t19 170q0 129 -47.5 248.5t-111.5 194.5l1 12h114q13 -14 35 -49.5t49.5 -94t46.5 -143.5t19 -173q0 -180 -79 -343.5t-212 -270.5h-129z" />
    <glyph glyph-name="asterisk" unicode="*" horiz-adv-x="409" 
d="M163 347l-76 56l34 47l53 48l-72 10l-56 18l30 90l55 -17l62 -35l-12 70v59h95v-58l-14 -71l63 35l56 18l28 -91l-54 -18l-72 -8l53 -50l35 -47l-78 -55l-34 46l-31 65l-30 -65z" />
    <glyph glyph-name="plus" unicode="+" horiz-adv-x="549" 
d="M523 395l-15 -99h-190l-27 -192h-103l27 192h-190l14 99h190l27 192h103l-27 -192h191z" />
    <glyph glyph-name="comma" unicode="," horiz-adv-x="270" 
d="M12 -165l-38 57q101 42 101 104q0 47 -61 71v11q0 31 22 54t58 23q41 0 66 -28.5t25 -74.5q0 -73 -53 -134t-120 -83z" />
    <glyph glyph-name="hyphen" unicode="-" horiz-adv-x="354" 
d="M12 261l14 102h317l-14 -102h-317z" />
    <glyph glyph-name="period" unicode="." horiz-adv-x="270" 
d="M95 -7q-34 0 -56.5 22t-22.5 55q0 40 26 67t65 27q35 0 58 -23t23 -58q0 -40 -27 -65t-66 -25z" />
    <glyph glyph-name="slash" unicode="/" horiz-adv-x="380" 
d="M-56 -150l388 880h104l-388 -880h-104z" />
    <glyph glyph-name="zero" unicode="0" horiz-adv-x="587" 
d="M246 -10q-104 0 -155 63.5t-51 179.5q0 65 6.5 123.5t26 124t51.5 112t88 77.5t129 31q206 0 206 -241q0 -66 -6.5 -124.5t-26.5 -124t-52 -112.5t-87.5 -78t-128.5 -31zM262 96q43 0 75 32t49.5 86t26 115t8.5 129q0 70 -23 103.5t-74 33.5q-43 0 -75 -31.5t-49.5 -85
t-26 -114t-8.5 -128.5q0 -140 97 -140z" />
    <glyph glyph-name="one" unicode="1" horiz-adv-x="482" 
d="M285 111h131l-16 -111h-390l15 111h137l35 247q19 136 30 189h-4l-116 -66l-42 104l182 105h119z" />
    <glyph glyph-name="two" unicode="2" horiz-adv-x="533" 
d="M18 0l-17 105q170 142 265 244q47 51 70.5 90t23.5 78q0 36 -21 57t-55 21q-79 0 -95 -95l-120 32q19 75 76 121.5t150 46.5q89 0 140 -49t51 -126q0 -93 -98 -207q-55 -62 -133 -129q-41 -36 -102 -85v-4q1 0 47.5 2.5t88.5 2.5h156l-15 -105h-412z" />
    <glyph glyph-name="three" unicode="3" horiz-adv-x="531" 
d="M195 -9q-83 0 -135.5 37.5t-66.5 92.5l117 57q27 -84 108 -84q59 0 87.5 32.5t28.5 87.5q0 82 -121 82h-45l15 103h47q68 0 96 31t28 94q0 33 -19 53t-56 20q-78 0 -98 -85l-119 16q17 76 74 124t151 48q88 0 140 -43.5t52 -118.5q0 -78 -37.5 -123t-91.5 -56v-4
q46 -7 76.5 -40t30.5 -93q0 -114 -71 -172.5t-191 -58.5z" />
    <glyph glyph-name="four" unicode="4" horiz-adv-x="552" 
d="M273 0l22 158h-277l-15 98l338 435h145l-61 -431h95l-14 -102h-95l-22 -158h-116zM134 260h175l16 116q15 95 35 185h-4q-48 -69 -90 -126z" />
    <glyph glyph-name="five" unicode="5" horiz-adv-x="555" 
d="M229 -9q-93 0 -144 41t-67 95l127 51q23 -84 102 -84q57 0 88.5 42.5t31.5 115.5q0 90 -87 90q-55 0 -98 -41l-104 40l78 350h362l-15 -104h-254l-42 -180l4 -1q39 30 100 30q85 0 131.5 -47t46.5 -129q0 -126 -69 -197.5t-191 -71.5z" />
    <glyph glyph-name="six" unicode="6" horiz-adv-x="565" 
d="M242 -10q-97 0 -146.5 61t-49.5 159q0 155 90.5 285.5t205.5 195.5h172v-12q-196 -103 -277 -238l2 -2q36 16 83 16q81 0 131.5 -50t50.5 -137q0 -133 -72 -205.5t-190 -72.5zM261 93q56 0 87.5 42t31.5 125q0 95 -96 95q-44 0 -98 -21q-19 -51 -19 -128
q0 -58 25.5 -85.5t68.5 -27.5z" />
    <glyph glyph-name="seven" unicode="7" horiz-adv-x="485" 
d="M61 0q25 178 136 357l67 105l87 115l1 5l-118 -2h-193l15 111h422l9 -120l-169 -242q-53 -78 -83.5 -153.5t-44.5 -175.5h-129z" />
    <glyph glyph-name="eight" unicode="8" horiz-adv-x="593" 
d="M254 -10q-101 0 -157 46t-56 131q0 82 43 126.5t107 54.5v4q-36 9 -61.5 47t-25.5 90q0 105 65 158.5t174 53.5q95 0 147.5 -43.5t52.5 -122.5q0 -75 -36.5 -117t-91.5 -58l-1 -4q43 -8 74 -42.5t31 -94.5q0 -115 -72 -172t-193 -57zM312 399q51 0 79.5 31.5t28.5 93.5
q0 34 -22.5 55.5t-63.5 21.5q-109 0 -109 -118q0 -39 22 -61.5t65 -22.5zM269 90q126 0 126 125q0 85 -105 85q-66 0 -96 -34.5t-30 -89.5q0 -86 105 -86z" />
    <glyph glyph-name="nine" unicode="9" horiz-adv-x="558" 
d="M48 0v14q202 107 279 241l-2 3q-31 -12 -75 -12q-85 0 -137.5 49t-52.5 141q0 125 71.5 195t184.5 70q100 0 151 -55.5t51 -158.5q0 -158 -88 -288t-207 -199h-175zM284 349q44 0 90 19q23 57 23 116t-26.5 86.5t-69.5 27.5q-53 0 -84.5 -38t-31.5 -119q0 -44 25.5 -68
t73.5 -24z" />
    <glyph glyph-name="colon" unicode=":" horiz-adv-x="269" 
d="M148 382q-34 0 -56.5 22t-22.5 55q0 40 26 67t66 27q35 0 57.5 -22.5t22.5 -58.5q0 -40 -27 -65t-66 -25zM94 -5q-34 0 -56.5 22t-22.5 55q0 40 26 67t66 27q35 0 57.5 -22.5t22.5 -57.5q0 -41 -27 -66t-66 -25z" />
    <glyph glyph-name="semicolon" unicode=";" horiz-adv-x="270" 
d="M148 382q-34 0 -56.5 22t-22.5 55q0 40 26 67t66 27q35 0 57.5 -22.5t22.5 -58.5q0 -40 -27 -65t-66 -25zM20 -165l-38 57q101 42 101 104q0 49 -62 71l1 12q1 32 23.5 54t56.5 22q41 0 66.5 -28.5t25.5 -74.5q0 -73 -53.5 -134t-120.5 -83z" />
    <glyph glyph-name="less" unicode="&#x3c;" horiz-adv-x="558" 
d="M481 87l-454 212l13 96l514 213l-18 -128l-209 -82l-160 -52v-4l143 -54l188 -82z" />
    <glyph glyph-name="equal" unicode="=" horiz-adv-x="558" 
d="M47 410l13 100h483l-13 -100h-483zM14 181l14 100h484l-15 -100h-483z" />
    <glyph glyph-name="greater" unicode="&#x3e;" horiz-adv-x="558" 
d="M12 87l17 129l210 81l159 52l1 4l-144 54l-187 83l17 118l453 -212l-12 -96z" />
    <glyph glyph-name="question" unicode="?" horiz-adv-x="455" 
d="M157 227q-48 21 -48 65q0 14 5 27t20 27t25 22.5t36 27t37 27.5q41 32 61.5 58.5t20.5 61.5q0 31 -20.5 48t-54.5 17q-76 0 -126 -59l-68 100q70 66 208 66q91 0 140 -44t49 -115q0 -57 -26 -104.5t-94 -99.5q-138 -109 -158 -125h-7zM171 -5q-32 0 -54 21t-22 54
q0 35 23 59.5t59 24.5q33 0 55.5 -21t22.5 -54q0 -37 -23 -60.5t-61 -23.5z" />
    <glyph glyph-name="at" unicode="@" horiz-adv-x="969" 
d="M394 -161q-168 0 -260 87.5t-92 233.5q0 222 147 371t367 149q171 0 264.5 -84t93.5 -221q0 -142 -77.5 -238.5t-193.5 -96.5q-84 0 -106 57h-4q-41 -55 -118 -55q-73 0 -108.5 40t-35.5 101q0 75 25 134t66.5 92.5t87.5 50t94 16.5q92 0 149 -37l-53 -213
q-12 -53 -12 -62q0 -33 34 -33q67 0 107.5 77.5t40.5 161.5q0 105 -66.5 160t-197.5 55q-111 0 -203.5 -58.5t-144 -154t-51.5 -204.5q0 -235 263 -235q100 0 181 47l35 -86q-94 -55 -232 -55zM437 130q51 0 87 40q2 20 7 36l43 175q-16 4 -42 4q-70 0 -112.5 -53
t-42.5 -133q0 -69 60 -69z" />
    <glyph glyph-name="A" unicode="A" horiz-adv-x="642" 
d="M458 0l-27 178h-253l-77 -178h-132l316 701h179l121 -701h-127zM224 283h190l-23 151q-19 123 -23 182h-4q-19 -55 -73 -179z" />
    <glyph glyph-name="B" unicode="B" horiz-adv-x="621" 
d="M37 0l98 701h239q88 0 139 -39t51 -118q0 -73 -36 -117t-89 -60v-4q50 -6 82.5 -39.5t32.5 -95.5q0 -43 -13.5 -80.5t-43.5 -72t-88.5 -55t-139.5 -20.5h-232zM217 408h98q58 0 91 29t33 88q0 71 -89 71h-107zM174 105h121q67 0 98.5 32.5t31.5 86.5q0 44 -27 61.5
t-78 17.5h-118z" />
    <glyph glyph-name="C" unicode="C" horiz-adv-x="573" 
d="M309 -10q-131 0 -196 75t-65 203q0 91 19 169.5t58 140t103.5 97t148.5 35.5q53 0 94 -10t65 -26.5t36.5 -30.5t19.5 -28l-95 -71q-33 59 -123 59q-88 0 -142 -82t-54 -254q0 -82 37.5 -125.5t108.5 -43.5q81 0 127 55l69 -91q-83 -72 -211 -72z" />
    <glyph glyph-name="D" unicode="D" horiz-adv-x="668" 
d="M37 0l98 701h184q148 0 224 -64t76 -204q0 -70 -11.5 -132t-38 -118t-66.5 -96t-101.5 -63.5t-138.5 -23.5h-226zM175 105h74q239 0 239 324q0 167 -161 167h-83z" />
    <glyph glyph-name="E" unicode="E" horiz-adv-x="547" 
d="M37 0l98 701h398l-15 -105h-274l-26 -188h237l-14 -105h-238l-28 -198h287l-14 -105h-411z" />
    <glyph glyph-name="F" unicode="F" horiz-adv-x="520" 
d="M37 0l98 701h397l-15 -105h-272l-30 -214h236l-15 -105h-236l-38 -277h-125z" />
    <glyph glyph-name="G" unicode="G" horiz-adv-x="663" 
d="M357 378h236l-15 -110l-30 -218q-84 -60 -243 -60q-117 0 -184 71t-67 195q0 212 99.5 333.5t269.5 121.5q142 0 204 -76l-88 -86q-46 52 -126 52q-106 0 -168 -88t-62 -240q0 -94 39.5 -136.5t120.5 -42.5q59 0 88 17l22 157h-112z" />
    <glyph glyph-name="H" unicode="H" horiz-adv-x="709" 
d="M37 0l98 701h125l-42 -297h287l42 297h125l-98 -701h-125l42 299h-287l-42 -299h-125z" />
    <glyph glyph-name="I" unicode="I" horiz-adv-x="310" 
d="M43 0l98 701h125l-98 -701h-125z" />
    <glyph glyph-name="J" unicode="J" horiz-adv-x="396" 
d="M70 -12q-84 0 -129 31l48 109q39 -30 93 -30q36 0 54.5 16.5t23.5 53.5l75 533h125l-77 -541q-23 -172 -213 -172z" />
    <glyph glyph-name="K" unicode="K" horiz-adv-x="593" 
d="M37 0l98 701h125l-98 -701h-125zM405 0l-181 364l1 4l258 333h144l-270 -339l188 -362h-140z" />
    <glyph glyph-name="L" unicode="L" horiz-adv-x="501" 
d="M37 0l98 701h125l-84 -596h274l-14 -105h-399z" />
    <glyph glyph-name="M" unicode="M" horiz-adv-x="878" 
d="M37 0l98 701h192l100 -424h4l217 424h193l-98 -701h-120l78 553h-5l-241 -463h-107l-110 463h-6l-76 -553h-119z" />
    <glyph glyph-name="N" unicode="N" horiz-adv-x="714" 
d="M37 0l98 701h154l128 -335q45 -113 70 -198h4q6 92 28 238l41 295h119l-98 -701h-151l-135 348q-38 102 -65 198h-4q-8 -105 -24 -222l-45 -324h-120z" />
    <glyph glyph-name="O" unicode="O" horiz-adv-x="698" 
d="M304 -10q-119 0 -187.5 67t-68.5 205q0 66 11 128t37 121t64.5 103t98 70.5t133.5 26.5q119 0 188 -67.5t69 -205.5q0 -66 -11 -128t-37 -121t-64.5 -102.5t-98.5 -70t-134 -26.5zM315 96q47 0 84 23.5t59 59.5t36.5 83.5t20 92t5.5 89.5q0 88 -36 124.5t-103 36.5
q-57 0 -99.5 -34t-63.5 -89t-30.5 -110t-9.5 -112q0 -90 36 -127t101 -37z" />
    <glyph glyph-name="P" unicode="P" horiz-adv-x="577" 
d="M37 0l98 701h212q225 0 225 -185q0 -115 -69.5 -185.5t-212.5 -70.5h-92l-36 -260h-125zM212 364h82q148 0 148 144q0 45 -26 65.5t-86 20.5h-85z" />
    <glyph glyph-name="Q" unicode="Q" horiz-adv-x="698" 
d="M478 -156l-171 150q-7 -1 -21 -1q-112 4 -175 69.5t-63 199.5q0 66 11 128t37 121t64.5 103t98 70.5t133.5 26.5q119 0 188 -67.5t69 -205.5q0 -90 -20 -170t-67.5 -146.5t-117.5 -93.5l-1 -4l167 -111zM315 96q47 0 84 23.5t59 59.5t36.5 83.5t20 92t5.5 89.5
q0 88 -36 124.5t-103 36.5q-57 0 -99.5 -34t-63.5 -89t-30.5 -110t-9.5 -112q0 -90 36 -127t101 -37z" />
    <glyph glyph-name="R" unicode="R" horiz-adv-x="600" 
d="M37 0l98 701h203q103 0 160 -45.5t57 -132.5q0 -107 -51 -159t-126 -62v-4q22 -13 37.5 -34.5t34.5 -64.5l85 -199h-134l-91 227q-18 45 -76 45h-36l-38 -272h-123zM212 374h71q144 0 144 141q0 81 -107 81h-77z" />
    <glyph glyph-name="S" unicode="S" horiz-adv-x="557" 
d="M228 -10q-142 0 -237 85l79 98q68 -76 170 -76q60 0 90.5 27t30.5 66q0 32 -29.5 57.5t-71 46t-83 44t-71 62.5t-29.5 90q0 100 73 160.5t187 60.5q73 0 121.5 -24t69.5 -53l-85 -89q-47 57 -127 57q-50 0 -79.5 -25.5t-29.5 -63.5q0 -27 21 -50t52 -38.5t68 -36
t68 -41.5t52 -55.5t21 -78.5q0 -99 -67 -161t-194 -62z" />
    <glyph glyph-name="T" unicode="T" horiz-adv-x="486" 
d="M132 0l83 596h-179l15 105h483l-15 -105h-179l-83 -596h-125z" />
    <glyph glyph-name="U" unicode="U" horiz-adv-x="693" 
d="M299 -10q-112 0 -171 56t-59 151q0 33 25 219l40 285h125l-39 -274q-27 -191 -27 -221q0 -109 120 -109q69 0 107.5 36t49.5 113l64 455h125l-64 -445q-20 -141 -93.5 -203.5t-202.5 -62.5z" />
    <glyph glyph-name="V" unicode="V" horiz-adv-x="618" 
d="M171 0l-128 701h132l64 -400q24 -158 28 -201h4q33 87 82 201l175 400h137l-325 -701h-169z" />
    <glyph glyph-name="W" unicode="W" horiz-adv-x="930" 
d="M126 0l-81 701h128l37 -340q15 -136 11 -226h4q12 41 63 184l142 382h156l39 -383q11 -110 12 -182h4q28 100 70 211l136 354h131l-278 -701h-155l-37 363q-11 130 -12 204h-4q-30 -97 -62 -182l-148 -385h-156z" />
    <glyph glyph-name="X" unicode="X" horiz-adv-x="594" 
d="M-47 0l276 359l-165 342h142l103 -238h5l165 238h152l-260 -341l176 -360h-141l-116 253h-5l-179 -253h-153z" />
    <glyph glyph-name="Y" unicode="Y" horiz-adv-x="553" 
d="M165 0l33 236l-169 465h133l111 -345h4l206 345h140l-300 -465l-33 -236h-125z" />
    <glyph glyph-name="Z" unicode="Z" horiz-adv-x="539" 
d="M1 0l-10 102l388 488v4h-284l15 107h422l8 -102l-385 -488v-4h319l-15 -107h-458z" />
    <glyph glyph-name="bracketleft" unicode="[" horiz-adv-x="350" 
d="M34 -243l151 1071h244l-12 -85h-136l-127 -902h136l-12 -84h-244z" />
    <glyph glyph-name="backslash" unicode="\" horiz-adv-x="364" 
d="M252 -150l-217 880h101l217 -880h-101z" />
    <glyph glyph-name="bracketright" unicode="]" horiz-adv-x="350" 
d="M-81 -243l12 84h137l127 902h-137l12 85h244l-151 -1071h-244z" />
    <glyph glyph-name="asciicircum" unicode="^" horiz-adv-x="548" 
d="M24 290l238 411h128l122 -411h-117l-45 167l-32 146h-4l-74 -146l-93 -167h-123z" />
    <glyph glyph-name="underscore" unicode="_" horiz-adv-x="520" 
d="M-50 -126l13 93h507l-13 -93h-507z" />
    <glyph glyph-name="grave" unicode="`" horiz-adv-x="515" 
d="M328 624l-200 129l114 65l161 -143z" />
    <glyph glyph-name="a" unicode="a" 
d="M209 -10q-79 0 -124 51.5t-45 151.5q0 162 81 265.5t229 103.5q123 0 180 -31q-26 -178 -36 -250q-19 -127 -19 -147q0 -38 40 -38q13 0 20 1l-13 -87q-29 -16 -64 -16q-76 0 -93 71h-4q-50 -75 -152 -75zM246 90q38 0 69 19.5t47 48.5l42 297q-22 9 -60 9
q-80 0 -130.5 -69.5t-50.5 -196.5q0 -60 21.5 -84t61.5 -24z" />
    <glyph glyph-name="b" unicode="b" horiz-adv-x="583" 
d="M218 -10q-114 0 -179 36l85 603q3 22 5 58q0 31 -6 60l120 14q7 -22 7 -65q0 -36 -4 -64l-17 -124h4q18 23 51.5 39t71.5 16q82 0 134.5 -53t52.5 -154q0 -163 -81.5 -264.5t-243.5 -101.5zM235 91q80 0 132 65.5t52 190.5q0 61 -26.5 89.5t-70.5 28.5q-46 0 -75.5 -30.5
t-36.5 -79.5l-37 -254q20 -10 62 -10z" />
    <glyph glyph-name="c" unicode="c" horiz-adv-x="493" 
d="M250 -10q-103 0 -156.5 60t-53.5 163q0 157 72 255.5t212 98.5q131 0 175 -79l-91 -73q-24 51 -90 51q-68 0 -110 -61.5t-42 -187.5q0 -124 106 -124q65 0 112 49l68 -75q-12 -15 -30.5 -29.5t-65.5 -31t-106 -16.5z" />
    <glyph glyph-name="d" unicode="d" horiz-adv-x="599" 
d="M213 -10q-78 0 -125.5 51.5t-47.5 150.5q0 159 82 263.5t233 104.5q29 0 69 -5l10 74q3 22 5 58q0 31 -6 60l120 14q7 -22 7 -65q0 -36 -4 -64l-49 -351q-21 -134 -21 -150q0 -36 42 -36q3 0 9.5 0.5t9.5 0.5l-13 -87q-27 -15 -68 -15q-77 0 -94 69h-4q-49 -73 -155 -73z
M250 89q37 0 70.5 21t49.5 48l41 290q-25 10 -67 10q-85 0 -133 -66t-48 -195q0 -108 87 -108z" />
    <glyph glyph-name="e" unicode="e" horiz-adv-x="569" 
d="M268 -10q-114 0 -171 62.5t-57 174.5q0 159 79 249.5t200 90.5q102 0 155 -51.5t53 -139.5q0 -74 -23 -134h-346q-1 -10 -1 -30q0 -57 31.5 -90.5t97.5 -33.5q86 0 141 49l48 -88q-79 -59 -207 -59zM172 331h235q7 28 7 51q0 89 -96 89q-113 0 -146 -140z" />
    <glyph glyph-name="f" unicode="f" horiz-adv-x="359" 
d="M31 -194l92 663h-86l13 88h87l9 56q10 74 61 119t142 45q51 0 87 -12l-33 -99q-33 10 -63 10q-66 0 -75 -66l-8 -53h130l-13 -88h-132l-91 -663h-120z" />
    <glyph glyph-name="g" unicode="g" horiz-adv-x="583" 
d="M205 -210q-131 0 -210 69l77 94q52 -61 141 -61q66 0 99 28.5t43 94.5l10 57h-4q-47 -57 -139 -57q-79 0 -130 52.5t-51 151.5q0 148 83 247t227 99q132 0 193 -40l-72 -511q-16 -111 -84.5 -167.5t-182.5 -56.5zM264 112q49 0 80.5 32t39.5 88l33 224q-24 11 -66 11
q-82 0 -133 -62.5t-51 -176.5q0 -116 97 -116z" />
    <glyph glyph-name="h" unicode="h" horiz-adv-x="599" 
d="M36 0l88 629q4 28 4 58q0 36 -5 60l120 14q7 -27 7 -65q0 -29 -5 -64l-20 -148h4q21 30 62.5 54.5t96.5 24.5q73 0 114 -37t41 -104q0 -41 -20 -164l-36 -258h-123l37 260q17 121 17 141q0 60 -68 60q-57 0 -97.5 -37.5t-49.5 -105.5l-44 -318h-123z" />
    <glyph glyph-name="i" unicode="i" horiz-adv-x="299" 
d="M189 632q-29 0 -48 18t-19 48q0 37 23.5 61.5t61.5 24.5q30 0 49 -18.5t19 -49.5q0 -37 -23.5 -60.5t-62.5 -23.5zM163 -4q-48 0 -76.5 27.5t-28.5 81.5q0 21 18 160l41 292h124l-42 -292q-17 -121 -17 -135q0 -18 8.5 -25.5t29.5 -7.5h23l-13 -87q-26 -14 -67 -14z" />
    <glyph glyph-name="j" unicode="j" horiz-adv-x="276" 
d="M189 632q-29 0 -48 18t-19 48q0 37 23.5 61.5t61.5 24.5q30 0 49 -18.5t19 -49.5q0 -37 -23.5 -60.5t-62.5 -23.5zM-49 -211l-36 95q60 24 91.5 63.5t43.5 125.5l68 484h123l-69 -489q-16 -111 -65.5 -180.5t-155.5 -98.5z" />
    <glyph glyph-name="k" unicode="k" horiz-adv-x="548" 
d="M34 0l88 630q3 21 5 57q0 37 -6 60l122 14q8 -25 8 -65q0 -29 -5 -64l-89 -632h-123zM434 -7q-79 0 -125 101l-102 208v4l204 251h139v-4l-213 -254v-4l85 -164q10 -20 23 -28.5t39 -8.5h26l-13 -89q-22 -12 -63 -12z" />
    <glyph glyph-name="l" unicode="l" horiz-adv-x="306" 
d="M173 -7q-63 0 -93.5 35.5t-23.5 99.5q3 23 9.5 68.5t9.5 68.5l52 364q2 22 4 58q0 37 -6 60l123 14q7 -27 7 -65q0 -29 -5 -64l-51 -367q-3 -21 -8.5 -61.5t-7.5 -53.5q-3 -28 7 -39.5t35 -11.5q16 0 28 3l-14 -97q-27 -12 -66 -12z" />
    <glyph glyph-name="m" unicode="m" horiz-adv-x="901" 
d="M36 0l77 557h96l20 -69h4q18 33 57 57t92 24q120 0 140 -94h4q56 94 169 94q71 0 110 -36.5t39 -105.5q0 -51 -18 -162l-36 -265h-124l38 266q15 108 15 142q0 59 -64 59q-61 0 -95 -40.5t-45 -125.5l-41 -301h-123l37 266q17 122 17 141q0 60 -64 60q-57 0 -92.5 -38
t-45.5 -110l-44 -319h-123z" />
    <glyph glyph-name="n" unicode="n" horiz-adv-x="602" 
d="M36 0l77 557h96l20 -69h4q20 33 60.5 57t95.5 24q74 0 115.5 -37t41.5 -107q0 -32 -19 -160l-37 -265h-123l37 266q17 115 17 139q0 62 -70 62q-59 0 -98.5 -37t-49.5 -106l-44 -324h-123z" />
    <glyph glyph-name="o" unicode="o" horiz-adv-x="582" 
d="M262 -11q-108 0 -165 58t-57 158q0 161 70 261.5t211 100.5q110 0 165.5 -57t55.5 -158q0 -161 -70 -262t-210 -101zM267 87q43 0 74 25.5t46.5 67.5t22.5 83.5t7 84.5q0 121 -102 121q-43 0 -73.5 -25.5t-46 -67.5t-22.5 -83.5t-7 -84.5q0 -121 101 -121z" />
    <glyph glyph-name="p" unicode="p" horiz-adv-x="596" 
d="M22 -194q86 614 86 625q0 18 -8 25.5t-28 7.5h-27l12 87q26 14 70 14q86 0 103 -75h4q17 32 53.5 54.5t88.5 22.5q81 0 130 -52t49 -150q0 -177 -77 -272.5t-215 -95.5q-52 0 -91 13l-28 -204h-122zM258 98q80 0 125 64t48 187q0 116 -91 116q-50 0 -82.5 -35.5
t-41.5 -101.5l-29 -214q28 -16 71 -16z" />
    <glyph glyph-name="q" unicode="q" horiz-adv-x="579" 
d="M319 -194l34 240h-4q-46 -55 -131 -55q-81 0 -129.5 52.5t-48.5 153.5q0 105 33.5 186.5t105 131.5t172.5 50q123 0 189 -35l-101 -724h-120zM255 89q50 0 81.5 30.5t38.5 89.5l34 248q-24 9 -60 9q-82 0 -134 -66.5t-52 -188.5t92 -122z" />
    <glyph glyph-name="r" unicode="r" horiz-adv-x="387" 
d="M50 0l53 387q5 35 5 43q0 34 -35 34h-29l13 87q31 14 73 14q83 0 95 -75h4q47 78 147 78q36 0 64 -10l-19 -126q-36 15 -76 15q-111 0 -127 -111l-46 -336h-122z" />
    <glyph glyph-name="s" unicode="s" horiz-adv-x="481" 
d="M208 -9q-76 0 -135 28t-79 56l75 84q20 -26 60 -48t91 -22q45 0 65.5 19t20.5 44q0 22 -14 36.5t-52 31.5l-66 31q-108 48 -108 145q0 75 58 123t157 48q67 0 113.5 -20.5t70.5 -49.5l-78 -84q-17 21 -48.5 37t-68.5 16q-40 0 -61.5 -17.5t-21.5 -44.5q0 -23 15.5 -39
t54.5 -32l54 -25q58 -26 88 -60t30 -86q0 -68 -54 -119.5t-167 -51.5z" />
    <glyph glyph-name="t" unicode="t" horiz-adv-x="383" 
d="M216 -5q-67 0 -106 35.5t-39 102.5q0 30 23 186l20 143h-76l11 75l80 24l57 136h82l-20 -140h138l-13 -95h-138l-21 -148q-22 -153 -22 -168q0 -50 52 -50q48 0 80 21l20 -96q-47 -26 -128 -26z" />
    <glyph glyph-name="u" unicode="u" horiz-adv-x="624" 
d="M221 -11q-78 0 -120.5 38.5t-42.5 107.5q0 22 7 66l32 232q3 19 5 57q0 37 -6 61l122 11q7 -22 7 -63q0 -30 -5 -65l-31 -222q-4 -38 -4 -50q0 -76 84 -76q52 0 86 35.5t43 95.5l47 340h124l-52 -370q-7 -47 -7 -57q0 -35 41 -35q12 0 20 2l-12 -88q-29 -15 -69 -15
q-42 0 -67.5 20t-31.5 52h-4q-55 -77 -166 -77z" />
    <glyph glyph-name="v" unicode="v" horiz-adv-x="493" 
d="M135 0l-115 557h127l50 -289q12 -81 17 -152h4q21 62 59 150l47 103q37 84 37 153q0 13 -2 35h122q4 -15 4 -34q0 -70 -42 -159l-169 -364h-139z" />
    <glyph glyph-name="w" unicode="w" horiz-adv-x="781" 
d="M93 0l-68 557h117l29 -276q8 -93 8 -175h4q15 55 60 170l111 281h128l29 -266q13 -109 12 -185h4q20 72 64 189l29 76q38 108 38 151q0 18 -3 35h112q4 -15 4 -34q0 -66 -44 -174l-141 -349h-149l-35 411h-4l-159 -411h-146z" />
    <glyph glyph-name="x" unicode="x" horiz-adv-x="511" 
d="M-31 0l217 288l-129 269h131l78 -180h4l110 180h150l-202 -270l134 -287h-133l-81 194h-4l-125 -194h-150z" />
    <glyph glyph-name="y" unicode="y" horiz-adv-x="590" 
d="M199 -210q-151 0 -217 70l81 92q20 -25 57.5 -42.5t82.5 -17.5q71 0 106.5 28.5t46.5 89.5l12 71h-4q-51 -65 -151 -65q-67 0 -104.5 38.5t-37.5 103.5q0 35 17 147t17 126q0 19 -8.5 26t-29.5 7h-29l13 87q26 14 74 14t76.5 -27.5t28.5 -81.5q0 -23 -18 -134.5
t-18 -134.5q0 -76 71 -76q51 0 83.5 34.5t40.5 94.5l44 317h123l-78 -543q-32 -224 -279 -224z" />
    <glyph glyph-name="z" unicode="z" horiz-adv-x="473" 
d="M21 0l-17 102l253 269q49 53 57 85h-239l14 101h322l27 -98q-14 -79 -81 -148l-195 -206v-4h249l-14 -101h-376z" />
    <glyph glyph-name="braceleft" unicode="{" horiz-adv-x="355" 
d="M206 -245q-66 0 -100.5 35t-34.5 95q0 43 30 159t30 138q0 32 -16.5 51t-60.5 21l14 97q32 1 53 12.5t31.5 28t16 46.5t6.5 56.5t3 72t5 78.5q16 185 176 185q41 0 67 -13l-24 -81q-22 6 -44 6q-36 0 -51.5 -24t-17.5 -73q-3 -26 -7 -105t-13 -120q-10 -49 -35 -75
t-74 -41v-4q78 -23 78 -114q0 -45 -31 -155t-31 -141q0 -48 52 -48q26 0 44 6l2 -82q-27 -11 -68 -11z" />
    <glyph glyph-name="bar" unicode="|" horiz-adv-x="273" 
d="M14 -268l158 1121h86l-158 -1121h-86z" />
    <glyph glyph-name="braceright" unicode="}" horiz-adv-x="355" 
d="M-13 -245q-41 0 -67 12l23 81q24 -6 45 -6q36 0 51.5 24.5t17.5 73.5q3 28 6.5 106t12.5 119q10 49 35.5 75.5t74.5 40.5v4q-78 22 -78 114q0 45 30.5 154.5t30.5 140.5q0 48 -51 48q-26 0 -45 -6l-1 83q30 11 67 11q66 0 101 -35.5t35 -95.5q0 -43 -30.5 -158.5
t-30.5 -138.5q0 -69 78 -71l-14 -98q-32 -1 -53 -12.5t-31.5 -28t-16 -46.5t-6.5 -56.5t-3 -72t-5 -78.5q-16 -184 -176 -184z" />
    <glyph glyph-name="asciitilde" unicode="~" horiz-adv-x="533" 
d="M95 209l-97 16q0 74 38 120t104 46q47 0 125.5 -35.5t110.5 -35.5q28 0 41 22t9 58l97 -16q-5 -80 -40.5 -123t-100.5 -43q-48 0 -126.5 35t-110.5 35q-29 0 -41 -22.5t-9 -56.5z" />
    <glyph glyph-name="exclamdown" unicode="&#xa1;" horiz-adv-x="289" 
d="M176 568q34 0 56.5 -22t22.5 -55q0 -40 -26 -67t-65 -27q-36 0 -58.5 23t-22.5 58q0 40 27 65t66 25zM194 285l-36 -449h-155l88 449h103z" />
    <glyph glyph-name="cent" unicode="&#xa2;" horiz-adv-x="489" 
d="M58 -133l74 148q-99 52 -99 198q0 157 72 255.5t212 98.5q46 0 87 -12l66 132h67l-80 -159q20 -15 35 -41l-91 -70l-162 -322q8 -2 26 -2q66 0 111 49l69 -75q-12 -15 -30.5 -29.5t-65.5 -31t-106 -16.5q-34 0 -54 5l-65 -128h-66zM182 123h4l169 335q-21 8 -45 8
q-68 0 -109.5 -61.5t-41.5 -187.5q0 -67 23 -94z" />
    <glyph glyph-name="sterling" unicode="&#xa3;" horiz-adv-x="585" 
d="M30 0l-8 94q73 30 91 124l17 85h-74l14 97h81l22 100q22 101 84.5 154t151.5 53q75 0 114.5 -21t65.5 -56l-90 -78q-31 51 -99 51q-83 0 -105 -101l-22 -102h191l-15 -97h-197l-15 -75q-18 -87 -68 -119l-1 -4h332l-14 -105h-456z" />
    <glyph glyph-name="currency" unicode="&#xa4;" horiz-adv-x="580" 
d="M430 84l-44 49q-52 -26 -119 -26q-66 0 -114 31l-62 -53l-69 78l63 54q-17 37 -17 79q0 88 46 149l-44 51l84 71l44 -52q54 27 119 27q63 0 112 -30l60 51l67 -78l-58 -51q17 -37 17 -81q0 -87 -46 -150l46 -52zM279 196q63 0 100.5 40t37.5 105q0 49 -28.5 80.5
t-82.5 31.5q-63 0 -101.5 -41t-38.5 -104q0 -49 29 -80.5t84 -31.5z" />
    <glyph glyph-name="yen" unicode="&#xa5;" horiz-adv-x="564" 
d="M181 0l32 230h-190l14 99h141l-120 368h132l59 -206q10 -34 17.5 -70t12 -58t6.5 -27h4q2 4 12.5 27.5t27.5 59t36 68.5l119 206h141l-225 -368h140l-14 -99h-187l-33 -230h-125z" />
    <glyph glyph-name="brokenbar" unicode="&#xa6;" horiz-adv-x="277" 
d="M113 405l49 351h86l-49 -351h-86zM31 -178l49 351h86l-49 -351h-86z" />
    <glyph glyph-name="section" unicode="&#xa7;" horiz-adv-x="585" 
d="M216 -129q-46 0 -89 10l20 83q38 -15 80 -15q39 0 71 14q57 26 57 81q0 37 -27.5 71.5t-67 65t-78.5 65t-66.5 86t-27.5 112.5q0 117 86.5 206t222.5 89q43 0 80 -8l-23 -82q-33 12 -75 12q-55 0 -88.5 -26t-33.5 -68q0 -31 20 -62t50 -56.5t64.5 -58t64.5 -64t50 -76
t20 -93.5q0 -116 -85.5 -201t-224.5 -85zM422 63h5q24 40 24 91q0 42 -18.5 78.5t-46.5 62t-61 53.5t-61.5 53t-48.5 61.5t-22 77.5h-5q-22 -40 -22 -96q0 -48 26.5 -89t64 -71.5l75 -61t64 -71t26.5 -88.5z" />
    <glyph glyph-name="dieresis" unicode="&#xa8;" horiz-adv-x="515" 
d="M151 647q-27 0 -45 17.5t-18 43.5q0 33 20.5 54t53.5 21q28 0 45.5 -18t17.5 -46q0 -33 -21 -52.5t-53 -19.5zM380 647q-28 0 -46 17.5t-18 43.5q0 33 20.5 54t53.5 21q28 0 46 -18t18 -46q0 -33 -21 -52.5t-53 -19.5z" />
    <glyph glyph-name="copyright" unicode="&#xa9;" horiz-adv-x="850" 
d="M385 -16q-149 0 -240.5 88t-91.5 226q0 176 120 294t300 118q148 0 240 -88.5t92 -226.5q0 -173 -119 -292t-301 -119zM392 67q144 0 232.5 92t88.5 232q0 106 -66 170.5t-181 64.5q-141 0 -231.5 -92t-90.5 -232q0 -106 67 -170.5t181 -64.5zM407 145q-72 0 -109.5 42.5
t-37.5 114.5q0 110 51.5 179.5t149.5 69.5q93 0 123 -57l-64 -53q-18 37 -64 37t-76 -43t-30 -130q0 -85 73 -85q47 0 79 34l48 -54q-48 -55 -143 -55z" />
    <glyph glyph-name="guillemotleft" unicode="&#xab;" horiz-adv-x="569" 
d="M198 49l-162 238l215 227l65 -56l-153 -183l109 -182zM416 50l-150 237l208 226l65 -56l-146 -182l97 -181z" />
    <glyph glyph-name="logicalnot" unicode="&#xac;" horiz-adv-x="571" 
d="M413 176l25 179h-409l13 91h503l-37 -270h-95z" />
    <glyph glyph-name="registered" unicode="&#xae;" horiz-adv-x="489" 
d="M242 283q-87 0 -141 51.5t-54 132.5q0 103 70.5 172.5t175.5 69.5q87 0 141 -52.5t54 -133.5q0 -101 -69.5 -170.5t-176.5 -69.5zM246 333q85 0 136 53t51 134q0 63 -38 100.5t-105 37.5q-83 0 -135.5 -53t-52.5 -135q0 -63 38.5 -100t105.5 -37zM178 383l33 232h71
q74 0 74 -61q0 -63 -58 -71v-4q13 -6 23 -29l30 -67h-55l-30 73q-5 13 -19 13h-7l-12 -86h-50zM246 510h16q43 0 43 42q0 23 -31 23h-18z" />
    <glyph glyph-name="macron" unicode="&#xaf;" horiz-adv-x="515" 
d="M87 656l15 103h354l-15 -103h-354z" />
    <glyph glyph-name="degree" unicode="&#xb0;" horiz-adv-x="369" 
d="M194 409q-68 0 -106.5 36.5t-38.5 95.5q0 72 46.5 119t124.5 47q67 0 106 -37t39 -95q0 -72 -46 -119t-125 -47zM198 483q38 0 60 23.5t22 63.5q0 28 -16.5 45.5t-47.5 17.5q-37 0 -59.5 -23t-22.5 -64q0 -28 16.5 -45.5t47.5 -17.5z" />
    <glyph glyph-name="plusminus" unicode="&#xb1;" horiz-adv-x="557" 
d="M-5 16l14 99h191l25 181h-191l14 99h191l27 192h101l-27 -192h192l-14 -99h-192l-25 -181h191l-13 -99h-484z" />
    <glyph glyph-name="acute" unicode="&#xb4;" horiz-adv-x="515" 
d="M217 624l-75 51l160 143l114 -65z" />
    <glyph glyph-name="uni00B5" unicode="&#xb5;" horiz-adv-x="621" 
d="M7 -194l89 627q2 19 4 57q0 37 -6 61l123 11q6 -23 6 -63q0 -37 -4 -65q-36 -255 -36 -271q0 -35 19.5 -56t60.5 -21q89 0 128 93l53 378h123l-53 -379q-6 -45 -6 -48q0 -35 41 -35h20l-12 -86q-29 -15 -68 -15q-84 0 -100 72h-4q-18 -30 -54.5 -52t-86.5 -22
q-53 0 -81 28h-4l-30 -214h-122z" />
    <glyph glyph-name="paragraph" unicode="&#xb6;" horiz-adv-x="630" 
d="M133 -194l-49 64q51 36 74 73t34 113l36 253q-18 -2 -26 -2q-69 0 -110.5 42.5t-41.5 115.5q0 117 71 176.5t180 59.5h76l-94 -661q-14 -97 -51 -148t-99 -86zM477 -3q-40 0 -63.5 22t-23.5 62q0 13 23 174l62 446h90l-62 -446q-20 -140 -20 -149q0 -14 6 -20.5t23 -6.5
h36l-10 -66q-22 -16 -61 -16z" />
    <glyph glyph-name="periodcentered" unicode="&#xb7;" horiz-adv-x="296" 
d="M144 265q-34 0 -56.5 22t-22.5 55q0 40 26 67t65 27q35 0 58 -23t23 -58q0 -40 -27 -65t-66 -25z" />
    <glyph glyph-name="cedilla" unicode="&#xb8;" horiz-adv-x="487" 
d="M187 -252l-27 61q77 31 77 87q0 28 -17 49v4h97q10 -18 10 -44q0 -59 -38.5 -100t-101.5 -57z" />
    <glyph glyph-name="guillemotright" unicode="&#xbb;" horiz-adv-x="569" 
d="M315 49l-65 57l153 182l-109 182l74 44l162 -237zM92 50l-66 57l147 181l-98 182l75 43l150 -236z" />
    <glyph glyph-name="questiondown" unicode="&#xbf;" horiz-adv-x="455" 
d="M276 568q32 0 54 -21t22 -54q0 -35 -23 -59.5t-59 -24.5q-34 0 -56 21t-22 54q0 37 23 60.5t61 23.5zM290 336q48 -21 48 -65q0 -14 -5 -27t-20 -27t-25 -22.5t-36 -27t-37 -27.5q-41 -32 -61.5 -58.5t-20.5 -61.5q0 -31 20.5 -48t54.5 -17q76 0 126 59l68 -100
q-70 -66 -208 -66q-91 0 -140 44t-49 115q0 57 26 104.5t94 99.5q138 109 158 125h7z" />
    <glyph glyph-name="Agrave" unicode="&#xc0;" horiz-adv-x="642" 
d="M456 819l-75 -51l-199 129l113 64zM458 0l-27 178h-253l-77 -178h-132l316 701h179l121 -701h-127zM224 283h190l-23 151q-19 123 -23 182h-4q-19 -55 -73 -179z" />
    <glyph glyph-name="Aacute" unicode="&#xc1;" horiz-adv-x="649" 
d="M588 897l-199 -129l-75 51l160 143zM285 701h179l121 -701h-127l-27 178h-253l-77 -178h-132zM224 283h190l-23 151q-19 123 -23 182h-4q-19 -55 -73 -179z" />
    <glyph glyph-name="Acircumflex" unicode="&#xc2;" horiz-adv-x="642" 
d="M386 845l-168 -88l-43 73l219 126l198 -126l-46 -69zM285 701h179l121 -701h-127l-27 178h-253l-77 -178h-132zM224 283h190l-23 151q-19 123 -23 182h-4q-19 -55 -73 -179z" />
    <glyph glyph-name="Atilde" unicode="&#xc3;" horiz-adv-x="642" 
d="M313 824q-47 0 -78 -34l-45 68q51 59 118 59q31 0 78 -19.5t68 -19.5q26 0 42 8t34 28l44 -69q-45 -60 -115 -60q-28 0 -75 19.5t-71 19.5zM458 0l-27 178h-253l-77 -178h-132l316 701h179l121 -701h-127zM224 283h190l-23 151q-19 123 -23 182h-4q-19 -55 -73 -179z" />
    <glyph glyph-name="Adieresis" unicode="&#xc4;" horiz-adv-x="642" 
d="M264 791q-27 0 -45 17.5t-18 43.5q0 33 20.5 54t53.5 21q28 0 45.5 -18t17.5 -46q0 -33 -21 -52.5t-53 -19.5zM493 791q-28 0 -46 17.5t-18 43.5q0 33 20.5 54t53.5 21q28 0 46 -18t18 -46q0 -33 -21 -52.5t-53 -19.5zM458 0l-27 178h-253l-77 -178h-132l316 701h179
l121 -701h-127zM224 283h190l-23 151q-19 123 -23 182h-4q-19 -55 -73 -179z" />
    <glyph glyph-name="Aring" unicode="&#xc5;" horiz-adv-x="642" 
d="M-31 0l316 701h29v4q-57 18 -57 87q0 57 37 94.5t100 37.5q53 0 84 -28.5t31 -74.5q0 -44 -21.5 -75.5t-55.5 -40.5v-4h32l121 -701h-127l-27 178h-253l-77 -178h-132zM375 748q30 0 48 18.5t18 50.5q0 48 -50 48q-30 0 -48 -18.5t-18 -50.5q0 -48 50 -48zM223 283h193
l-25 151q-21 146 -23 183h-4q-21 -64 -73 -180z" />
    <glyph glyph-name="AE" unicode="&#xc6;" horiz-adv-x="908" 
d="M-43 0l462 701h476l-15 -105h-273l-26 -188h236l-15 -105h-235l-29 -198h286l-14 -105h-405l27 194h-215l-127 -194h-133zM284 298h162l43 304h-4z" />
    <glyph glyph-name="Ccedilla" unicode="&#xc7;" horiz-adv-x="573" 
d="M309 -10q-131 0 -196 75t-65 203q0 91 19 169.5t58 140t103.5 97t148.5 35.5q53 0 94 -10t65 -26.5t36.5 -30.5t19.5 -28l-95 -71q-33 59 -123 59q-88 0 -142 -82t-54 -254q0 -82 37.5 -125.5t108.5 -43.5q81 0 127 55l69 -91q-83 -72 -211 -72zM216 -252l-27 61
q77 31 77 87q0 28 -17 49v4h97q10 -18 10 -44q0 -59 -38.5 -100t-101.5 -57z" />
    <glyph glyph-name="Egrave" unicode="&#xc8;" horiz-adv-x="547" 
d="M348 768l-200 129l114 65l161 -143zM37 0l98 701h398l-15 -105h-274l-26 -188h237l-14 -105h-238l-28 -198h287l-14 -105h-411z" />
    <glyph glyph-name="Eacute" unicode="&#xc9;" horiz-adv-x="547" 
d="M344 768l-75 51l160 143l114 -65zM37 0l98 701h398l-15 -105h-274l-26 -188h237l-14 -105h-238l-28 -198h287l-14 -105h-411z" />
    <glyph glyph-name="Ecircumflex" unicode="&#xca;" horiz-adv-x="547" 
d="M191 757l-43 73l219 126l198 -126l-46 -69l-160 84zM37 0l98 701h398l-15 -105h-274l-26 -188h237l-14 -105h-238l-28 -198h287l-14 -105h-411z" />
    <glyph glyph-name="Edieresis" unicode="&#xcb;" horiz-adv-x="547" 
d="M236 791q-27 0 -45 17.5t-18 43.5q0 33 20.5 54t53.5 21q28 0 45.5 -18t17.5 -46q0 -33 -21 -52.5t-53 -19.5zM465 791q-28 0 -46 17.5t-18 43.5q0 33 20.5 54t53.5 21q28 0 46 -18t18 -46q0 -33 -21 -52.5t-53 -19.5zM37 0l98 701h398l-15 -105h-274l-26 -188h237
l-14 -105h-238l-28 -198h287l-14 -105h-411z" />
    <glyph glyph-name="Igrave" unicode="&#xcc;" horiz-adv-x="310" 
d="M214 768l-200 129l114 65l161 -143zM43 0l98 701h125l-98 -701h-125z" />
    <glyph glyph-name="Iacute" unicode="&#xcd;" horiz-adv-x="310" 
d="M219 768l-75 51l160 143l114 -65zM43 0l98 701h125l-98 -701h-125z" />
    <glyph glyph-name="Icircumflex" unicode="&#xce;" horiz-adv-x="310" 
d="M56 757l-43 73l219 126l198 -126l-46 -69l-160 84zM43 0l98 701h125l-98 -701h-125z" />
    <glyph glyph-name="Idieresis" unicode="&#xcf;" horiz-adv-x="310" 
d="M105 791q-27 0 -45 17.5t-18 43.5q0 33 20.5 54t53.5 21q28 0 45.5 -18t17.5 -46q0 -33 -21 -52.5t-53 -19.5zM334 791q-28 0 -46 17.5t-18 43.5q0 33 20.5 54t53.5 21q28 0 46 -18t18 -46q0 -33 -21 -52.5t-53 -19.5zM43 0l98 701h125l-98 -701h-125z" />
    <glyph glyph-name="Eth" unicode="&#xd0;" horiz-adv-x="685" 
d="M336 701q148 0 224 -64t76 -204q0 -70 -11.5 -132t-38 -118t-66.5 -96t-101.5 -63.5t-138.5 -23.5h-226l45 319h-76l11 85h76l42 297h184zM266 105q239 0 239 324q0 167 -161 167h-83l-27 -192h136l-11 -85h-137l-30 -214h74z" />
    <glyph glyph-name="Ntilde" unicode="&#xd1;" horiz-adv-x="714" 
d="M497 785q-27 0 -74 19.5t-72 19.5q-47 0 -78 -34l-45 68q51 59 118 59q31 0 78 -19.5t68 -19.5q26 0 42 8t34 28l44 -69q-45 -60 -115 -60zM37 0l98 701h154l128 -335q45 -113 70 -198h4q6 92 28 238l41 295h119l-98 -701h-151l-135 348q-38 102 -65 198h-4
q-8 -105 -24 -222l-45 -324h-120z" />
    <glyph glyph-name="Ograve" unicode="&#xd2;" horiz-adv-x="698" 
d="M415 768l-200 129l114 65l161 -143zM304 -10q-119 0 -187.5 67t-68.5 205q0 66 11 128t37 121t64.5 103t98 70.5t133.5 26.5q119 0 188 -67.5t69 -205.5q0 -66 -11 -128t-37 -121t-64.5 -102.5t-98.5 -70t-134 -26.5zM315 96q47 0 84 23.5t59 59.5t36.5 83.5t20 92
t5.5 89.5q0 88 -36 124.5t-103 36.5q-57 0 -99.5 -34t-63.5 -89t-30.5 -110t-9.5 -112q0 -90 36 -127t101 -37z" />
    <glyph glyph-name="Oacute" unicode="&#xd3;" horiz-adv-x="698" 
d="M420 768l-75 51l160 143l114 -65zM304 -10q-119 0 -187.5 67t-68.5 205q0 66 11 128t37 121t64.5 103t98 70.5t133.5 26.5q119 0 188 -67.5t69 -205.5q0 -66 -11 -128t-37 -121t-64.5 -102.5t-98.5 -70t-134 -26.5zM315 96q47 0 84 23.5t59 59.5t36.5 83.5t20 92
t5.5 89.5q0 88 -36 124.5t-103 36.5q-57 0 -99.5 -34t-63.5 -89t-30.5 -110t-9.5 -112q0 -90 36 -127t101 -37z" />
    <glyph glyph-name="Ocircumflex" unicode="&#xd4;" horiz-adv-x="698" 
d="M265 757l-43 73l219 126l198 -126l-46 -69l-160 84zM304 -10q-119 0 -187.5 67t-68.5 205q0 66 11 128t37 121t64.5 103t98 70.5t133.5 26.5q119 0 188 -67.5t69 -205.5q0 -66 -11 -128t-37 -121t-64.5 -102.5t-98.5 -70t-134 -26.5zM315 96q47 0 84 23.5t59 59.5
t36.5 83.5t20 92t5.5 89.5q0 88 -36 124.5t-103 36.5q-57 0 -99.5 -34t-63.5 -89t-30.5 -110t-9.5 -112q0 -90 36 -127t101 -37z" />
    <glyph glyph-name="Otilde" unicode="&#xd5;" horiz-adv-x="698" 
d="M503 785q-27 0 -74 19.5t-72 19.5q-47 0 -78 -34l-45 68q51 59 118 59q31 0 78 -19.5t68 -19.5q26 0 42 8t34 28l44 -69q-45 -60 -115 -60zM304 -10q-119 0 -187.5 67t-68.5 205q0 66 11 128t37 121t64.5 103t98 70.5t133.5 26.5q119 0 188 -67.5t69 -205.5
q0 -66 -11 -128t-37 -121t-64.5 -102.5t-98.5 -70t-134 -26.5zM315 96q47 0 84 23.5t59 59.5t36.5 83.5t20 92t5.5 89.5q0 88 -36 124.5t-103 36.5q-57 0 -99.5 -34t-63.5 -89t-30.5 -110t-9.5 -112q0 -90 36 -127t101 -37z" />
    <glyph glyph-name="Odieresis" unicode="&#xd6;" horiz-adv-x="698" 
d="M307 791q-27 0 -45 17.5t-18 43.5q0 33 20.5 54t53.5 21q28 0 45.5 -18t17.5 -46q0 -33 -21 -52.5t-53 -19.5zM536 791q-28 0 -46 17.5t-18 43.5q0 33 20.5 54t53.5 21q28 0 46 -18t18 -46q0 -33 -21 -52.5t-53 -19.5zM304 -10q-119 0 -187.5 67t-68.5 205q0 66 11 128
t37 121t64.5 103t98 70.5t133.5 26.5q119 0 188 -67.5t69 -205.5q0 -66 -11 -128t-37 -121t-64.5 -102.5t-98.5 -70t-134 -26.5zM315 96q47 0 84 23.5t59 59.5t36.5 83.5t20 92t5.5 89.5q0 88 -36 124.5t-103 36.5q-57 0 -99.5 -34t-63.5 -89t-30.5 -110t-9.5 -112
q0 -90 36 -127t101 -37z" />
    <glyph glyph-name="multiply" unicode="&#xd7;" horiz-adv-x="557" 
d="M107 129l-63 73l172 149l-127 144l73 64l124 -146l165 145l62 -72l-167 -144l126 -144l-73 -64l-123 147z" />
    <glyph glyph-name="Oslash" unicode="&#xd8;" horiz-adv-x="698" 
d="M3 -10l84 104q-39 64 -39 168q0 66 11 128t37 121t64.5 103t98 70.5t133.5 26.5q97 0 161 -46l38 46h105l-86 -106q39 -66 39 -167q0 -66 -11 -128t-37 -121t-64.5 -102.5t-98.5 -70t-134 -26.5q-99 0 -160 45l-36 -45h-105zM183 210l295 363q-33 32 -97 32
q-57 0 -99.5 -34t-63.5 -89t-30.5 -110t-9.5 -112q0 -31 5 -50zM315 96q47 0 84 23.5t59 59.5t36.5 83.5t20 92t5.5 89.5q0 19 -6 45l-294 -362q32 -31 95 -31z" />
    <glyph glyph-name="Ugrave" unicode="&#xd9;" horiz-adv-x="693" 
d="M409 768l-200 129l114 65l161 -143zM299 -10q-112 0 -171 56t-59 151q0 33 25 219l40 285h125l-39 -274q-27 -191 -27 -221q0 -109 120 -109q69 0 107.5 36t49.5 113l64 455h125l-64 -445q-20 -141 -93.5 -203.5t-202.5 -62.5z" />
    <glyph glyph-name="Uacute" unicode="&#xda;" horiz-adv-x="693" 
d="M411 768l-75 51l160 143l114 -65zM299 -10q-112 0 -171 56t-59 151q0 33 25 219l40 285h125l-39 -274q-27 -191 -27 -221q0 -109 120 -109q69 0 107.5 36t49.5 113l64 455h125l-64 -445q-20 -141 -93.5 -203.5t-202.5 -62.5z" />
    <glyph glyph-name="Ucircumflex" unicode="&#xdb;" horiz-adv-x="693" 
d="M245 757l-43 73l219 126l198 -126l-46 -69l-160 84zM299 -10q-112 0 -171 56t-59 151q0 33 25 219l40 285h125l-39 -274q-27 -191 -27 -221q0 -109 120 -109q69 0 107.5 36t49.5 113l64 455h125l-64 -445q-20 -141 -93.5 -203.5t-202.5 -62.5z" />
    <glyph glyph-name="Udieresis" unicode="&#xdc;" horiz-adv-x="693" 
d="M297 791q-27 0 -45 17.5t-18 43.5q0 33 20.5 54t53.5 21q28 0 45.5 -18t17.5 -46q0 -33 -21 -52.5t-53 -19.5zM526 791q-28 0 -46 17.5t-18 43.5q0 33 20.5 54t53.5 21q28 0 46 -18t18 -46q0 -33 -21 -52.5t-53 -19.5zM299 -10q-112 0 -171 56t-59 151q0 33 25 219
l40 285h125l-39 -274q-27 -191 -27 -221q0 -109 120 -109q69 0 107.5 36t49.5 113l64 455h125l-64 -445q-20 -141 -93.5 -203.5t-202.5 -62.5z" />
    <glyph glyph-name="Yacute" unicode="&#xdd;" horiz-adv-x="553" 
d="M328 768l-75 51l160 143l114 -65zM165 0l33 236l-169 465h133l111 -345h4l206 345h140l-300 -465l-33 -236h-125z" />
    <glyph glyph-name="Thorn" unicode="&#xde;" horiz-adv-x="563" 
d="M43 0l98 701h121l-19 -139h56q225 0 225 -186q0 -117 -69.5 -186.5t-211.5 -69.5h-62l-17 -120h-121zM195 224h56q148 0 148 145q0 45 -26 65t-85 20h-60z" />
    <glyph glyph-name="germandbls" unicode="&#xdf;" horiz-adv-x="650" 
d="M5 -202l106 728q34 241 268 241q94 0 144.5 -47t50.5 -115q0 -42 -20 -79.5t-43.5 -58.5t-43.5 -42.5t-20 -35.5q0 -15 16.5 -31.5t39.5 -33.5t46.5 -37.5t40 -51.5t16.5 -67q0 -72 -54.5 -125t-158.5 -53q-63 0 -113.5 21t-75.5 46l76 87q49 -55 122 -55q36 0 59 19
t23 53q0 21 -17 40.5t-41.5 36.5t-49.5 35t-42 42t-17 52q0 27 14 50.5t34 41.5t40 36.5t34 43.5t14 53q0 33 -22.5 54.5t-64.5 21.5q-63 0 -96 -34.5t-44 -105.5l-106 -730h-115z" />
    <glyph glyph-name="agrave" unicode="&#xe0;" 
d="M387 624l-200 129l114 65l161 -143zM209 -10q-79 0 -124 51.5t-45 151.5q0 162 81 265.5t229 103.5q123 0 180 -31q-26 -178 -36 -250q-19 -127 -19 -147q0 -38 40 -38q13 0 20 1l-13 -87q-29 -16 -64 -16q-76 0 -93 71h-4q-50 -75 -152 -75zM246 90q38 0 69 19.5
t47 48.5l42 297q-22 9 -60 9q-80 0 -130.5 -69.5t-50.5 -196.5q0 -60 21.5 -84t61.5 -24z" />
    <glyph glyph-name="aacute" unicode="&#xe1;" 
d="M368 624l-75 51l160 143l114 -65zM209 -10q-79 0 -124 51.5t-45 151.5q0 162 81 265.5t229 103.5q123 0 180 -31q-26 -178 -36 -250q-19 -127 -19 -147q0 -38 40 -38q13 0 20 1l-13 -87q-29 -16 -64 -16q-76 0 -93 71h-4q-50 -75 -152 -75zM246 90q38 0 69 19.5t47 48.5
l42 297q-22 9 -60 9q-80 0 -130.5 -69.5t-50.5 -196.5q0 -60 21.5 -84t61.5 -24z" />
    <glyph glyph-name="acircumflex" unicode="&#xe2;" 
d="M206 613l-43 73l219 126l198 -126l-46 -69l-160 84zM209 -10q-79 0 -124 51.5t-45 151.5q0 162 81 265.5t229 103.5q123 0 180 -31q-26 -178 -36 -250q-19 -127 -19 -147q0 -38 40 -38q13 0 20 1l-13 -87q-29 -16 -64 -16q-76 0 -93 71h-4q-50 -75 -152 -75zM246 90
q38 0 69 19.5t47 48.5l42 297q-22 9 -60 9q-80 0 -130.5 -69.5t-50.5 -196.5q0 -60 21.5 -84t61.5 -24z" />
    <glyph glyph-name="atilde" unicode="&#xe3;" 
d="M452 641q-28 0 -75 19.5t-71 19.5q-47 0 -78 -34l-45 68q51 59 118 59q31 0 78 -19.5t68 -19.5q26 0 42 8t34 28l44 -69q-45 -60 -115 -60zM209 -10q-79 0 -124 51.5t-45 151.5q0 162 81 265.5t229 103.5q123 0 180 -31q-26 -178 -36 -250q-19 -127 -19 -147
q0 -38 40 -38q13 0 20 1l-13 -87q-29 -16 -64 -16q-76 0 -93 71h-4q-50 -75 -152 -75zM246 90q38 0 69 19.5t47 48.5l42 297q-22 9 -60 9q-80 0 -130.5 -69.5t-50.5 -196.5q0 -60 21.5 -84t61.5 -24z" />
    <glyph glyph-name="adieresis" unicode="&#xe4;" 
d="M257 647q-27 0 -45 17.5t-18 43.5q0 33 20.5 54t53.5 21q28 0 45.5 -18t17.5 -46q0 -33 -21 -52.5t-53 -19.5zM486 647q-28 0 -46 17.5t-18 43.5q0 33 20.5 54t53.5 21q28 0 46 -18t18 -46q0 -33 -21 -52.5t-53 -19.5zM209 -10q-79 0 -124 51.5t-45 151.5q0 162 81 265.5
t229 103.5q123 0 180 -31q-26 -178 -36 -250q-19 -127 -19 -147q0 -38 40 -38q13 0 20 1l-13 -87q-29 -16 -64 -16q-76 0 -93 71h-4q-50 -75 -152 -75zM246 90q38 0 69 19.5t47 48.5l42 297q-22 9 -60 9q-80 0 -130.5 -69.5t-50.5 -196.5q0 -60 21.5 -84t61.5 -24z" />
    <glyph glyph-name="aring" unicode="&#xe5;" 
d="M357 596q-54 0 -84.5 28.5t-30.5 74.5q0 57 37 94.5t100 37.5q53 0 84 -28.5t31 -74.5q0 -57 -37 -94.5t-100 -37.5zM360 655q30 0 48 18.5t18 50.5q0 48 -50 48q-30 0 -48 -18.5t-18 -50.5q0 -48 50 -48zM209 -10q-79 0 -124 51.5t-45 151.5q0 162 81 265.5t229 103.5
q123 0 180 -31q-26 -178 -36 -250q-19 -127 -19 -147q0 -38 40 -38q13 0 20 1l-13 -87q-29 -16 -64 -16q-76 0 -93 71h-4q-50 -75 -152 -75zM246 90q38 0 69 19.5t47 48.5l42 297q-22 9 -60 9q-80 0 -130.5 -69.5t-50.5 -196.5q0 -60 21.5 -84t61.5 -24z" />
    <glyph glyph-name="ae" unicode="&#xe6;" horiz-adv-x="895" 
d="M221 -10q-85 0 -133 51.5t-48 151.5q0 162 81 265.5t229 103.5q102 0 150 -29l-3 -17h4q24 25 65.5 38t81.5 13q99 0 153 -52.5t54 -137.5q0 -70 -26 -138h-348q-1 -11 -1 -27q0 -57 32 -90.5t99 -33.5q87 0 147 53l54 -83q-81 -68 -218 -68q-124 0 -178 84h-4
q-60 -84 -191 -84zM496 328h236q8 35 8 54q0 89 -96 89q-61 0 -97.5 -34t-50.5 -109zM247 90q36 0 68.5 18.5t48.5 46.5l42 300q-20 9 -62 9q-81 0 -131 -69t-50 -197q0 -60 22 -84t62 -24z" />
    <glyph glyph-name="ccedilla" unicode="&#xe7;" horiz-adv-x="493" 
d="M250 -10q-103 0 -156.5 60t-53.5 163q0 157 72 255.5t212 98.5q131 0 175 -79l-91 -73q-24 51 -90 51q-68 0 -110 -61.5t-42 -187.5q0 -124 106 -124q65 0 112 49l68 -75q-12 -15 -30.5 -29.5t-65.5 -31t-106 -16.5zM182 -252l-27 61q77 31 77 87q0 28 -17 49v4h97
q10 -18 10 -44q0 -59 -38.5 -100t-101.5 -57z" />
    <glyph glyph-name="egrave" unicode="&#xe8;" horiz-adv-x="569" 
d="M345 624l-200 129l114 65l161 -143zM268 -10q-114 0 -171 62.5t-57 174.5q0 159 79 249.5t200 90.5q102 0 155 -51.5t53 -139.5q0 -74 -23 -134h-346q-1 -10 -1 -30q0 -57 31.5 -90.5t97.5 -33.5q86 0 141 49l48 -88q-79 -59 -207 -59zM172 331h235q7 28 7 51
q0 89 -96 89q-113 0 -146 -140z" />
    <glyph glyph-name="eacute" unicode="&#xe9;" horiz-adv-x="569" 
d="M339 624l-75 51l160 143l114 -65zM268 -10q-114 0 -171 62.5t-57 174.5q0 159 79 249.5t200 90.5q102 0 155 -51.5t53 -139.5q0 -74 -23 -134h-346q-1 -10 -1 -30q0 -57 31.5 -90.5t97.5 -33.5q86 0 141 49l48 -88q-79 -59 -207 -59zM172 331h235q7 28 7 51q0 89 -96 89
q-113 0 -146 -140z" />
    <glyph glyph-name="ecircumflex" unicode="&#xea;" horiz-adv-x="569" 
d="M189 613l-43 73l219 126l198 -126l-46 -69l-160 84zM268 -10q-114 0 -171 62.5t-57 174.5q0 159 79 249.5t200 90.5q102 0 155 -51.5t53 -139.5q0 -74 -23 -134h-346q-1 -10 -1 -30q0 -57 31.5 -90.5t97.5 -33.5q86 0 141 49l48 -88q-79 -59 -207 -59zM172 331h235
q7 28 7 51q0 89 -96 89q-113 0 -146 -140z" />
    <glyph glyph-name="edieresis" unicode="&#xeb;" horiz-adv-x="569" 
d="M232 647q-27 0 -45 17.5t-18 43.5q0 33 20.5 54t53.5 21q28 0 45.5 -18t17.5 -46q0 -33 -21 -52.5t-53 -19.5zM461 647q-28 0 -46 17.5t-18 43.5q0 33 20.5 54t53.5 21q28 0 46 -18t18 -46q0 -33 -21 -52.5t-53 -19.5zM268 -10q-114 0 -171 62.5t-57 174.5
q0 159 79 249.5t200 90.5q102 0 155 -51.5t53 -139.5q0 -74 -23 -134h-346q-1 -10 -1 -30q0 -57 31.5 -90.5t97.5 -33.5q86 0 141 49l48 -88q-79 -59 -207 -59zM172 331h235q7 28 7 51q0 89 -96 89q-113 0 -146 -140z" />
    <glyph glyph-name="igrave" unicode="&#xec;" horiz-adv-x="299" 
d="M197 624l-200 129l114 65l161 -143zM163 -4q-48 0 -76.5 27.5t-28.5 81.5q0 21 18 160l41 292h124l-42 -292q-17 -121 -17 -135q0 -18 8.5 -25.5t29.5 -7.5h23l-13 -87q-26 -14 -67 -14z" />
    <glyph glyph-name="iacute" unicode="&#xed;" horiz-adv-x="299" 
d="M194 624l-75 51l160 143l114 -65zM163 -4q-48 0 -76.5 27.5t-28.5 81.5q0 21 18 160l41 292h124l-42 -292q-17 -121 -17 -135q0 -18 8.5 -25.5t29.5 -7.5h23l-13 -87q-26 -14 -67 -14z" />
    <glyph glyph-name="icircumflex" unicode="&#xee;" horiz-adv-x="299" 
d="M34 613l-43 73l219 126l198 -126l-46 -69l-160 84zM163 -4q-48 0 -76.5 27.5t-28.5 81.5q0 21 18 160l41 292h124l-42 -292q-17 -121 -17 -135q0 -18 8.5 -25.5t29.5 -7.5h23l-13 -87q-26 -14 -67 -14z" />
    <glyph glyph-name="idieresis" unicode="&#xef;" horiz-adv-x="299" 
d="M78 647q-27 0 -45 17.5t-18 43.5q0 33 20.5 54t53.5 21q28 0 45.5 -18t17.5 -46q0 -33 -21 -52.5t-53 -19.5zM307 647q-28 0 -46 17.5t-18 43.5q0 33 20.5 54t53.5 21q28 0 46 -18t18 -46q0 -33 -21 -52.5t-53 -19.5zM163 -4q-48 0 -76.5 27.5t-28.5 81.5q0 21 18 160
l41 292h124l-42 -292q-17 -121 -17 -135q0 -18 8.5 -25.5t29.5 -7.5h23l-13 -87q-26 -14 -67 -14z" />
    <glyph glyph-name="eth" unicode="&#xf0;" horiz-adv-x="551" 
d="M225 -6q-93 0 -146.5 54t-53.5 141q0 124 70.5 192t171.5 68q62 0 96 -17l3 3q-12 56 -48 110l-175 -74l11 77l120 51q-52 54 -126 93l1 9h161q32 -19 68 -60l154 65l-11 -75l-104 -45q74 -122 74 -254q0 -71 -13 -128.5t-42 -106.5t-82.5 -76t-128.5 -27zM238 94
q63 0 94 44.5t41 132.5q3 24 3 60q-42 22 -97 22q-63 0 -98.5 -39.5t-35.5 -120.5q0 -48 25 -73.5t68 -25.5z" />
    <glyph glyph-name="ntilde" unicode="&#xf1;" horiz-adv-x="602" 
d="M439 641q-27 0 -74 19.5t-72 19.5q-47 0 -78 -34l-45 68q51 59 118 59q31 0 78 -19.5t68 -19.5q26 0 42 8t34 28l44 -69q-45 -60 -115 -60zM36 0l77 557h96l20 -69h4q20 33 60.5 57t95.5 24q74 0 115.5 -37t41.5 -107q0 -32 -19 -160l-37 -265h-123l37 266q17 115 17 139
q0 62 -70 62q-59 0 -98.5 -37t-49.5 -106l-44 -324h-123z" />
    <glyph glyph-name="ograve" unicode="&#xf2;" horiz-adv-x="582" 
d="M343 624l-200 129l114 65l161 -143zM262 -11q-108 0 -165 58t-57 158q0 161 70 261.5t211 100.5q110 0 165.5 -57t55.5 -158q0 -161 -70 -262t-210 -101zM267 87q43 0 74 25.5t46.5 67.5t22.5 83.5t7 84.5q0 121 -102 121q-43 0 -73.5 -25.5t-46 -67.5t-22.5 -83.5
t-7 -84.5q0 -121 101 -121z" />
    <glyph glyph-name="oacute" unicode="&#xf3;" horiz-adv-x="582" 
d="M348 624l-75 51l160 143l114 -65zM262 -11q-108 0 -165 58t-57 158q0 161 70 261.5t211 100.5q110 0 165.5 -57t55.5 -158q0 -161 -70 -262t-210 -101zM267 87q43 0 74 25.5t46.5 67.5t22.5 83.5t7 84.5q0 121 -102 121q-43 0 -73.5 -25.5t-46 -67.5t-22.5 -83.5
t-7 -84.5q0 -121 101 -121z" />
    <glyph glyph-name="ocircumflex" unicode="&#xf4;" horiz-adv-x="582" 
d="M194 613l-43 73l219 126l198 -126l-46 -69l-160 84zM262 -11q-108 0 -165 58t-57 158q0 161 70 261.5t211 100.5q110 0 165.5 -57t55.5 -158q0 -161 -70 -262t-210 -101zM267 87q43 0 74 25.5t46.5 67.5t22.5 83.5t7 84.5q0 121 -102 121q-43 0 -73.5 -25.5t-46 -67.5
t-22.5 -83.5t-7 -84.5q0 -121 101 -121z" />
    <glyph glyph-name="otilde" unicode="&#xf5;" horiz-adv-x="582" 
d="M433 641q-27 0 -74 19.5t-72 19.5q-47 0 -78 -34l-45 68q51 59 118 59q31 0 78 -19.5t68 -19.5q26 0 42 8t34 28l44 -69q-45 -60 -115 -60zM262 -11q-108 0 -165 58t-57 158q0 161 70 261.5t211 100.5q110 0 165.5 -57t55.5 -158q0 -161 -70 -262t-210 -101zM267 87
q43 0 74 25.5t46.5 67.5t22.5 83.5t7 84.5q0 121 -102 121q-43 0 -73.5 -25.5t-46 -67.5t-22.5 -83.5t-7 -84.5q0 -121 101 -121z" />
    <glyph glyph-name="odieresis" unicode="&#xf6;" horiz-adv-x="582" 
d="M238 647q-27 0 -45 17.5t-18 43.5q0 33 20.5 54t53.5 21q28 0 45.5 -18t17.5 -46q0 -33 -21 -52.5t-53 -19.5zM467 647q-28 0 -46 17.5t-18 43.5q0 33 20.5 54t53.5 21q28 0 46 -18t18 -46q0 -33 -21 -52.5t-53 -19.5zM262 -11q-108 0 -165 58t-57 158q0 161 70 261.5
t211 100.5q110 0 165.5 -57t55.5 -158q0 -161 -70 -262t-210 -101zM267 87q43 0 74 25.5t46.5 67.5t22.5 83.5t7 84.5q0 121 -102 121q-43 0 -73.5 -25.5t-46 -67.5t-22.5 -83.5t-7 -84.5q0 -121 101 -121z" />
    <glyph glyph-name="divide" unicode="&#xf7;" horiz-adv-x="549" 
d="M292 457q-29 0 -48.5 19t-19.5 47q0 34 22.5 57.5t56.5 23.5q31 0 50.5 -19.5t19.5 -49.5q0 -35 -23.5 -56.5t-57.5 -21.5zM26 296l14 99h484l-15 -99h-483zM242 87q-29 0 -48.5 19t-19.5 48q0 34 22.5 57t56.5 23q30 0 49.5 -19t19.5 -50q0 -35 -23 -56.5t-57 -21.5z
" />
    <glyph glyph-name="oslash" unicode="&#xf8;" horiz-adv-x="582" 
d="M-2 -8l71 84q-34 50 -34 129q0 161 70 261.5t211 100.5q81 0 137 -35l26 32h94l-69 -82q33 -53 33 -130q0 -161 -70 -262t-210 -101q-85 0 -138 36l-27 -33h-94zM163 186l218 261q-24 23 -71 23q-37 0 -65.5 -20t-45 -54t-25 -69t-12.5 -76q-3 -37 1 -65zM262 85
q39 0 69 22t46 59.5t24 76t11 80.5q1 24 -2 48l-219 -261q25 -25 71 -25z" />
    <glyph glyph-name="ugrave" unicode="&#xf9;" horiz-adv-x="624" 
d="M347 624l-200 129l114 65l161 -143zM220 -11q-78 0 -120.5 38.5t-42.5 107.5q0 22 7 66l32 232q3 19 5 57q0 37 -6 61l122 11q7 -22 7 -63q0 -30 -5 -65l-31 -222q-4 -38 -4 -50q0 -76 84 -76q52 0 86 35.5t43 95.5l47 340h124l-52 -370q-7 -47 -7 -57q0 -35 41 -35
q12 0 20 2l-12 -88q-28 -15 -69 -15q-42 0 -67.5 20t-31.5 52h-4q-55 -77 -166 -77z" />
    <glyph glyph-name="uacute" unicode="&#xfa;" horiz-adv-x="624" 
d="M348 624l-75 51l160 143l114 -65zM221 -11q-78 0 -120.5 38.5t-42.5 107.5q0 22 7 66l32 232q3 19 5 57q0 37 -6 61l122 11q7 -22 7 -63q0 -30 -5 -65l-31 -222q-4 -38 -4 -50q0 -76 84 -76q52 0 86 35.5t43 95.5l47 340h124l-52 -370q-7 -47 -7 -57q0 -35 41 -35
q12 0 20 2l-12 -88q-29 -15 -69 -15q-42 0 -67.5 20t-31.5 52h-4q-55 -77 -166 -77z" />
    <glyph glyph-name="ucircumflex" unicode="&#xfb;" horiz-adv-x="624" 
d="M193 613l-43 73l219 126l198 -126l-46 -69l-160 84zM221 -11q-78 0 -120.5 38.5t-42.5 107.5q0 22 7 66l32 232q3 19 5 57q0 37 -6 61l122 11q7 -22 7 -63q0 -30 -5 -65l-31 -222q-4 -38 -4 -50q0 -76 84 -76q52 0 86 35.5t43 95.5l47 340h124l-52 -370q-7 -47 -7 -57
q0 -35 41 -35q12 0 20 2l-12 -88q-29 -15 -69 -15q-42 0 -67.5 20t-31.5 52h-4q-55 -77 -166 -77z" />
    <glyph glyph-name="udieresis" unicode="&#xfc;" horiz-adv-x="624" 
d="M239 647q-27 0 -45 17.5t-18 43.5q0 33 20.5 54t53.5 21q28 0 45.5 -18t17.5 -46q0 -33 -21 -52.5t-53 -19.5zM468 647q-28 0 -46 17.5t-18 43.5q0 33 20.5 54t53.5 21q28 0 46 -18t18 -46q0 -33 -21 -52.5t-53 -19.5zM221 -11q-78 0 -120.5 38.5t-42.5 107.5q0 22 7 66
l32 232q3 19 5 57q0 37 -6 61l122 11q7 -22 7 -63q0 -30 -5 -65l-31 -222q-4 -38 -4 -50q0 -76 84 -76q52 0 86 35.5t43 95.5l47 340h124l-52 -370q-7 -47 -7 -57q0 -35 41 -35q12 0 20 2l-12 -88q-29 -15 -69 -15q-42 0 -67.5 20t-31.5 52h-4q-55 -77 -166 -77z" />
    <glyph glyph-name="yacute" unicode="&#xfd;" horiz-adv-x="590" 
d="M329 624l-75 51l160 143l114 -65zM199 -210q-151 0 -217 70l81 92q20 -25 57.5 -42.5t82.5 -17.5q71 0 106.5 28.5t46.5 89.5l12 71h-4q-51 -65 -151 -65q-67 0 -104.5 38.5t-37.5 103.5q0 35 17 147t17 126q0 19 -8.5 26t-29.5 7h-29l13 87q26 14 74 14t76.5 -27.5
t28.5 -81.5q0 -23 -18 -134.5t-18 -134.5q0 -76 71 -76q51 0 83.5 34.5t40.5 94.5l44 317h123l-78 -543q-32 -224 -279 -224z" />
    <glyph glyph-name="thorn" unicode="&#xfe;" horiz-adv-x="583" 
d="M10 -194l114 822q5 37 5 63q0 33 -6 56l120 14q8 -25 8 -65q0 -29 -5 -64l-17 -128h4q43 63 135 63q77 0 126 -53t49 -149q0 -176 -77 -272t-215 -96q-52 0 -91 13l-28 -204h-122zM246 98q80 0 125 64.5t48 186.5q0 116 -91 116q-49 0 -82 -34.5t-42 -102.5l-29 -214
q28 -16 71 -16z" />
    <glyph glyph-name="ydieresis" unicode="&#xff;" horiz-adv-x="590" 
d="M239 647q-27 0 -45 17.5t-18 43.5q0 33 20.5 54t53.5 21q28 0 45.5 -18t17.5 -46q0 -33 -21 -52.5t-53 -19.5zM468 647q-28 0 -46 17.5t-18 43.5q0 33 20.5 54t53.5 21q28 0 46 -18t18 -46q0 -33 -21 -52.5t-53 -19.5zM199 -210q-151 0 -217 70l81 92q20 -25 57.5 -42.5
t82.5 -17.5q71 0 106.5 28.5t46.5 89.5l12 71h-4q-51 -65 -151 -65q-67 0 -104.5 38.5t-37.5 103.5q0 35 17 147t17 126q0 19 -8.5 26t-29.5 7h-29l13 87q26 14 74 14t76.5 -27.5t28.5 -81.5q0 -23 -18 -134.5t-18 -134.5q0 -76 71 -76q51 0 83.5 34.5t40.5 94.5l44 317h123
l-78 -543q-32 -224 -279 -224z" />
    <glyph glyph-name="Amacron" unicode="&#x100;" horiz-adv-x="642" 
d="M584 903l-15 -103h-354l15 103h354zM458 0l-27 178h-253l-77 -178h-132l316 701h179l121 -701h-127zM224 283h190l-23 151q-19 123 -23 182h-4q-19 -55 -73 -179z" />
    <glyph glyph-name="amacron" unicode="&#x101;" 
d="M171 656l15 103h354l-15 -103h-354zM206 -10q-79 0 -124 51.5t-45 151.5q0 162 81 265.5t229 103.5q123 0 180 -31q-26 -178 -36 -250q-19 -127 -19 -147q0 -38 40 -38q13 0 20 1l-13 -87q-29 -16 -64 -16q-76 0 -93 71h-4q-50 -75 -152 -75zM243 90q38 0 69 19.5
t47 48.5l42 297q-23 9 -60 9q-80 0 -130.5 -69.5t-50.5 -196.5q0 -60 21.5 -84t61.5 -24z" />
    <glyph glyph-name="Abreve" unicode="&#x102;" horiz-adv-x="642" 
d="M387 769q-76 0 -120 36t-58 80l91 47q3 -14 11.5 -29t31.5 -30t55 -15q81 0 118 74l77 -52q-58 -111 -206 -111zM285 701h179l121 -701h-127l-27 178h-253l-77 -178h-132zM224 283h190l-23 151q-19 123 -23 182h-4q-19 -55 -73 -179z" />
    <glyph glyph-name="abreve" unicode="&#x103;" 
d="M362 625q-76 0 -120 36t-58 80l91 47q3 -14 11.5 -29t31.5 -30t55 -15q81 0 118 74l77 -52q-58 -111 -206 -111zM208 -10q-79 0 -124 51.5t-45 151.5q0 162 81 265.5t229 103.5q123 0 180 -31q-26 -178 -36 -250q-19 -127 -19 -147q0 -38 40 -38q13 0 20 1l-13 -87
q-29 -16 -64 -16q-76 0 -93 71h-4q-50 -75 -152 -75zM245 90q38 0 69 19.5t47 48.5l42 297q-22 9 -60 9q-80 0 -130.5 -69.5t-50.5 -196.5q0 -60 21.5 -84t61.5 -24z" />
    <glyph glyph-name="Aogonek" unicode="&#x104;" horiz-adv-x="642" 
d="M583 0q-137 -73 -137 -136q0 -38 48 -38q32 0 60 15l12 -74q-42 -20 -99 -20q-60 0 -89 26t-29 69q0 88 108 163l-26 173h-253l-77 -178h-132l316 701h179l121 -701h-2zM224 283h190l-23 151q-19 123 -23 182h-4q-19 -55 -73 -179z" />
    <glyph glyph-name="aogonek" unicode="&#x105;" 
d="M413 -241q-60 0 -89.5 28.5t-29.5 73.5q0 82 105 153q-27 16 -34 51h-4q-50 -75 -152 -75q-76 0 -122.5 52t-46.5 151q0 162 81 265.5t229 103.5q114 0 180 -32l-39 -273q-16 -113 -16 -123q0 -38 42 -38q12 0 19 1l-12 -87q-132 -69 -132 -131q0 -39 51 -39q23 0 57 15
l11 -75q-44 -21 -98 -21zM247 90q35 0 66.5 19.5t48.5 48.5l42 297q-22 9 -60 9q-81 0 -131 -69t-50 -197q0 -60 22 -84t62 -24z" />
    <glyph glyph-name="Cacute" unicode="&#x106;" horiz-adv-x="573" 
d="M416 768l-75 51l160 143l114 -65zM309 -10q-131 0 -196 75t-65 203q0 91 19 169.5t58 140t103.5 97t148.5 35.5q53 0 94 -10t65 -26.5t36.5 -30.5t19.5 -28l-95 -71q-33 59 -123 59q-88 0 -142 -82t-54 -254q0 -82 37.5 -125.5t108.5 -43.5q81 0 127 55l69 -91
q-83 -72 -211 -72z" />
    <glyph glyph-name="cacute" unicode="&#x107;" horiz-adv-x="493" 
d="M342 624l-75 51l160 143l114 -65zM250 -10q-103 0 -156.5 60t-53.5 163q0 157 72 255.5t212 98.5q131 0 175 -79l-91 -73q-24 51 -90 51q-68 0 -110 -61.5t-42 -187.5q0 -124 106 -124q65 0 112 49l68 -75q-12 -15 -30.5 -29.5t-65.5 -31t-106 -16.5z" />
    <glyph glyph-name="Ccircumflex" unicode="&#x108;" horiz-adv-x="573" 
d="M249 757l-43 73l219 126l198 -126l-46 -69l-160 84zM309 -10q-131 0 -196 75t-65 203q0 91 19 169.5t58 140t103.5 97t148.5 35.5q53 0 94 -10t65 -26.5t36.5 -30.5t19.5 -28l-95 -71q-33 59 -123 59q-88 0 -142 -82t-54 -254q0 -82 37.5 -125.5t108.5 -43.5q81 0 127 55
l69 -91q-83 -72 -211 -72z" />
    <glyph glyph-name="ccircumflex" unicode="&#x109;" horiz-adv-x="493" 
d="M181 613l-43 73l219 126l198 -126l-46 -69l-160 84zM250 -10q-103 0 -156.5 60t-53.5 163q0 157 72 255.5t212 98.5q131 0 175 -79l-91 -73q-24 51 -90 51q-68 0 -110 -61.5t-42 -187.5q0 -124 106 -124q65 0 112 49l68 -75q-12 -15 -30.5 -29.5t-65.5 -31t-106 -16.5z
" />
    <glyph glyph-name="Cdotaccent" unicode="&#x10a;" horiz-adv-x="573" 
d="M431 776q-29 0 -47.5 17.5t-18.5 46.5v11q4 35 27.5 56t56.5 21q31 0 49.5 -18t18.5 -50q0 -36 -24.5 -60t-61.5 -24zM309 -10q-131 0 -196 75t-65 203q0 91 19 169.5t58 140t103.5 97t148.5 35.5q53 0 94 -10t65 -26.5t36.5 -30.5t19.5 -28l-95 -71q-33 59 -123 59
q-88 0 -142 -82t-54 -254q0 -82 37.5 -125.5t108.5 -43.5q81 0 127 55l69 -91q-83 -72 -211 -72z" />
    <glyph glyph-name="cdotaccent" unicode="&#x10b;" horiz-adv-x="493" 
d="M353 632q-29 0 -47.5 17.5t-18.5 46.5v11q4 35 27.5 56t56.5 21q31 0 49.5 -18t18.5 -50q0 -36 -24.5 -60t-61.5 -24zM250 -10q-103 0 -156.5 60t-53.5 163q0 157 72 255.5t212 98.5q131 0 175 -79l-91 -73q-24 51 -90 51q-68 0 -110 -61.5t-42 -187.5q0 -124 106 -124
q65 0 112 49l68 -75q-12 -15 -30.5 -29.5t-65.5 -31t-106 -16.5z" />
    <glyph glyph-name="Ccaron" unicode="&#x10c;" horiz-adv-x="573" 
d="M401 757l-198 126l46 69l160 -84l168 88l43 -73zM309 -10q-131 0 -196 75t-65 203q0 91 19 169.5t58 140t103.5 97t148.5 35.5q53 0 94 -10t65 -26.5t36.5 -30.5t19.5 -28l-95 -71q-33 59 -123 59q-88 0 -142 -82t-54 -254q0 -82 37.5 -125.5t108.5 -43.5q81 0 127 55
l69 -91q-83 -72 -211 -72z" />
    <glyph glyph-name="ccaron" unicode="&#x10d;" horiz-adv-x="493" 
d="M352 613l-198 126l46 69l160 -84l168 88l43 -73zM250 -10q-103 0 -156.5 60t-53.5 163q0 157 72 255.5t212 98.5q131 0 175 -79l-91 -73q-24 51 -90 51q-68 0 -110 -61.5t-42 -187.5q0 -124 106 -124q65 0 112 49l68 -75q-12 -15 -30.5 -29.5t-65.5 -31t-106 -16.5z" />
    <glyph glyph-name="Dcaron" unicode="&#x10e;" horiz-adv-x="668" 
d="M369 757l-198 126l46 69l160 -84l168 88l43 -73zM37 0l98 701h184q148 0 224 -64t76 -204q0 -70 -11.5 -132t-38 -118t-66.5 -96t-101.5 -63.5t-138.5 -23.5h-226zM175 105h74q239 0 239 324q0 167 -161 167h-83z" />
    <glyph glyph-name="dcaron" unicode="&#x10f;" horiz-adv-x="707" 
d="M213 -10q-78 0 -125.5 51.5t-47.5 150.5q0 159 82 263.5t233 104.5q29 0 69 -5l10 74q3 22 5 58q0 31 -6 60l120 14q7 -22 7 -65q0 -36 -4 -64l-49 -351q-21 -134 -21 -150q0 -36 42 -36q3 0 9.5 0.5t9.5 0.5l-13 -87q-27 -15 -68 -15q-77 0 -94 69h-4q-49 -73 -155 -73z
M250 89q37 0 70.5 21t49.5 48l41 290q-25 10 -67 10q-85 0 -133 -66t-48 -195q0 -108 87 -108z" />
    <glyph glyph-name="Dcroat" unicode="&#x110;" horiz-adv-x="676" 
d="M327 701q148 0 224 -64t76 -204q0 -70 -11.5 -132t-38 -118t-66.5 -96t-101.5 -63.5t-138.5 -23.5h-226l44 315h-83l11 85h84l42 301h184zM257 105q239 0 239 324q0 167 -161 167h-83l-28 -196h129l-11 -85h-129l-30 -210h74z" />
    <glyph glyph-name="dcroat" unicode="&#x111;" horiz-adv-x="601" 
d="M554 620l-47 -339q-21 -134 -21 -150q0 -36 42 -36q3 0 9.5 0.5t9.5 0.5l-13 -87q-27 -15 -68 -15q-77 0 -94 69h-4q-49 -73 -155 -73q-78 0 -125.5 51.5t-47.5 150.5q0 159 82 263.5t233 104.5q29 0 69 -5l9 65h-162l11 72h157q0 30 -6 55l120 14q7 -22 7 -65v-4h61
l-10 -72h-57zM370 158l41 290q-25 10 -67 10q-85 0 -133 -66t-48 -195q0 -108 87 -108q37 0 70.5 21t49.5 48z" />
    <glyph glyph-name="Emacron" unicode="&#x112;" horiz-adv-x="547" 
d="M176 800l15 103h354l-15 -103h-354zM37 0l98 701h398l-15 -105h-274l-26 -188h237l-14 -105h-238l-28 -198h287l-14 -105h-411z" />
    <glyph glyph-name="emacron" unicode="&#x113;" horiz-adv-x="569" 
d="M176 656l15 103h354l-15 -103h-354zM268 -10q-114 0 -171 62.5t-57 174.5q0 159 79 249.5t200 90.5q102 0 155 -51.5t53 -139.5q0 -74 -23 -134h-346q-1 -10 -1 -30q0 -57 31.5 -90.5t97.5 -33.5q86 0 141 49l48 -88q-79 -59 -207 -59zM172 331h235q7 28 7 51
q0 89 -96 89q-113 0 -146 -140z" />
    <glyph glyph-name="Ebreve" unicode="&#x114;" horiz-adv-x="547" 
d="M343 769q-76 0 -120 36t-58 80l91 47q3 -14 11.5 -29t31.5 -30t55 -15q81 0 118 74l77 -52q-58 -111 -206 -111zM37 0l98 701h398l-15 -105h-274l-26 -188h237l-14 -105h-238l-28 -198h287l-14 -105h-411z" />
    <glyph glyph-name="ebreve" unicode="&#x115;" horiz-adv-x="569" 
d="M344 625q-76 0 -120 36t-58 80l91 47q3 -14 11.5 -29t31.5 -30t55 -15q81 0 118 74l77 -52q-58 -111 -206 -111zM268 -10q-114 0 -171 62.5t-57 174.5q0 159 79 249.5t200 90.5q102 0 155 -51.5t53 -139.5q0 -74 -23 -134h-346q-1 -10 -1 -30q0 -57 31.5 -90.5
t97.5 -33.5q86 0 141 49l48 -88q-79 -59 -207 -59zM172 331h235q7 28 7 51q0 89 -96 89q-113 0 -146 -140z" />
    <glyph glyph-name="Edotaccent" unicode="&#x116;" horiz-adv-x="547" 
d="M351 776q-29 0 -47.5 17.5t-18.5 46.5v11q4 35 27.5 56t56.5 21q31 0 49.5 -18t18.5 -50q0 -36 -24.5 -60t-61.5 -24zM37 0l98 701h398l-15 -105h-274l-26 -188h237l-14 -105h-238l-28 -198h287l-14 -105h-411z" />
    <glyph glyph-name="edotaccent" unicode="&#x117;" horiz-adv-x="569" 
d="M337 632q-29 0 -47.5 17.5t-18.5 46.5v11q4 35 27.5 56t56.5 21q31 0 49.5 -18t18.5 -50q0 -36 -24.5 -60t-61.5 -24zM268 -10q-114 0 -171 62.5t-57 174.5q0 159 79 249.5t200 90.5q102 0 155 -51.5t53 -139.5q0 -74 -23 -134h-346q-1 -10 -1 -30q0 -57 31.5 -90.5
t97.5 -33.5q86 0 141 49l48 -88q-79 -59 -207 -59zM172 331h235q7 28 7 51q0 89 -96 89q-113 0 -146 -140z" />
    <glyph glyph-name="Eogonek" unicode="&#x118;" horiz-adv-x="542" 
d="M518 596h-274l-26 -188h237l-14 -105h-238l-28 -198h287l-14 -105q-137 -73 -137 -136q0 -38 48 -38q32 0 60 15l12 -74q-42 -20 -99 -20q-60 0 -89 26t-29 69q0 87 102 158h-279l98 701h398z" />
    <glyph glyph-name="eogonek" unicode="&#x119;" horiz-adv-x="569" 
d="M504 242h-346q-1 -10 -1 -30q0 -57 31.5 -90.5t97.5 -33.5q86 0 141 49l48 -88q-22 -17 -47 -28q-124 -67 -124 -129q0 -38 48 -38q32 0 60 15l12 -74q-42 -20 -99 -20q-60 0 -89 26t-29 69q0 64 56 120q-112 1 -167.5 63.5t-55.5 173.5q0 159 79 249.5t200 90.5
q102 0 155 -51.5t53 -139.5q0 -74 -23 -134zM318 471q-113 0 -146 -140h235q7 28 7 51q0 89 -96 89z" />
    <glyph glyph-name="Ecaron" unicode="&#x11a;" horiz-adv-x="547" 
d="M350 757l-198 126l46 69l160 -84l168 88l43 -73zM37 0l98 701h398l-15 -105h-274l-26 -188h237l-14 -105h-238l-28 -198h287l-14 -105h-411z" />
    <glyph glyph-name="ecaron" unicode="&#x11b;" horiz-adv-x="569" 
d="M340 613l-198 126l46 69l160 -84l168 88l43 -73zM268 -10q-114 0 -171 62.5t-57 174.5q0 159 79 249.5t200 90.5q102 0 155 -51.5t53 -139.5q0 -74 -23 -134h-346q-1 -10 -1 -30q0 -57 31.5 -90.5t97.5 -33.5q86 0 141 49l48 -88q-79 -59 -207 -59zM172 331h235
q7 28 7 51q0 89 -96 89q-113 0 -146 -140z" />
    <glyph glyph-name="Gcircumflex" unicode="&#x11c;" horiz-adv-x="663" 
d="M432 845l-168 -88l-43 73l219 126l198 -126l-46 -69zM413 601q-106 0 -168 -88t-62 -240q0 -94 39.5 -136.5t120.5 -42.5q59 0 88 17l22 157h-112l16 110h236l-15 -110l-30 -218q-84 -60 -243 -60q-117 0 -184 71t-67 195q0 212 99.5 333.5t269.5 121.5q142 0 204 -76
l-88 -86q-46 52 -126 52z" />
    <glyph glyph-name="gcircumflex" unicode="&#x11d;" horiz-adv-x="583" 
d="M211 613l-43 73l219 126l198 -126l-46 -69l-160 84zM205 -210q-131 0 -210 69l77 94q52 -61 141 -61q66 0 99 28.5t43 94.5l10 57h-4q-47 -57 -139 -57q-79 0 -130 52.5t-51 151.5q0 148 83 247t227 99q132 0 193 -40l-72 -511q-16 -111 -84.5 -167.5t-182.5 -56.5z
M264 112q49 0 80.5 32t39.5 88l33 224q-24 11 -66 11q-82 0 -133 -62.5t-51 -176.5q0 -116 97 -116z" />
    <glyph glyph-name="Gbreve" unicode="&#x11e;" horiz-adv-x="663" 
d="M432 769q-76 0 -120 36t-58 80l91 47q3 -14 11.5 -29t31.5 -30t55 -15q81 0 118 74l77 -52q-58 -111 -206 -111zM413 601q-106 0 -168 -88t-62 -240q0 -94 39.5 -136.5t120.5 -42.5q59 0 88 17l22 157h-112l16 110h236l-15 -110l-30 -218q-84 -60 -243 -60
q-117 0 -184 71t-67 195q0 212 99.5 333.5t269.5 121.5q142 0 204 -76l-88 -86q-46 52 -126 52z" />
    <glyph glyph-name="gbreve" unicode="&#x11f;" horiz-adv-x="583" 
d="M373 625q-76 0 -120 36t-58 80l91 47q3 -14 11.5 -29t31.5 -30t55 -15q81 0 118 74l77 -52q-58 -111 -206 -111zM205 -210q-131 0 -210 69l77 94q52 -61 141 -61q66 0 99 28.5t43 94.5l10 57h-4q-47 -57 -139 -57q-79 0 -130 52.5t-51 151.5q0 148 83 247t227 99
q132 0 193 -40l-72 -511q-16 -111 -84.5 -167.5t-182.5 -56.5zM264 112q49 0 80.5 32t39.5 88l33 224q-24 11 -66 11q-82 0 -133 -62.5t-51 -176.5q0 -116 97 -116z" />
    <glyph glyph-name="Gdotaccent" unicode="&#x120;" horiz-adv-x="663" 
d="M452 776q-29 0 -47.5 17.5t-18.5 46.5v11q4 35 27.5 56t56.5 21q31 0 49.5 -18t18.5 -50q0 -36 -24.5 -60t-61.5 -24zM357 378h236l-15 -110l-30 -218q-84 -60 -243 -60q-117 0 -184 71t-67 195q0 212 99.5 333.5t269.5 121.5q142 0 204 -76l-88 -86q-46 52 -126 52
q-106 0 -168 -88t-62 -240q0 -94 39.5 -136.5t120.5 -42.5q59 0 88 17l22 157h-112z" />
    <glyph glyph-name="gdotaccent" unicode="&#x121;" horiz-adv-x="583" 
d="M382 632q-29 0 -47.5 17.5t-18.5 46.5v11q4 35 27.5 56t56.5 21q31 0 49.5 -18t18.5 -50q0 -36 -24.5 -60t-61.5 -24zM205 -210q-131 0 -210 69l77 94q52 -61 141 -61q66 0 99 28.5t43 94.5l10 57h-4q-47 -57 -139 -57q-79 0 -130 52.5t-51 151.5q0 148 83 247t227 99
q132 0 193 -40l-72 -511q-16 -111 -84.5 -167.5t-182.5 -56.5zM264 112q49 0 80.5 32t39.5 88l33 224q-24 11 -66 11q-82 0 -133 -62.5t-51 -176.5q0 -116 97 -116z" />
    <glyph glyph-name="Gcommaaccent" unicode="&#x122;" horiz-adv-x="663" 
d="M357 378h236l-15 -110l-30 -218q-84 -60 -243 -60q-117 0 -184 71t-67 195q0 212 99.5 333.5t269.5 121.5q142 0 204 -76l-88 -86q-46 52 -126 52q-106 0 -168 -88t-62 -240q0 -94 39.5 -136.5t120.5 -42.5q59 0 88 17l22 157h-112zM313 -69q36 0 56 -22t20 -58
q0 -69 -41.5 -115.5t-95.5 -70.5l-25 41q76 34 76 87q0 8 -3 15.5t-5.5 12.5t-11 11.5t-12 9t-15 9.5t-14.5 9q1 30 20.5 50.5t50.5 20.5z" />
    <glyph glyph-name="gcommaaccent" unicode="&#x123;" horiz-adv-x="583" 
d="M205 -210q-131 0 -210 69l77 94q52 -61 141 -61q66 0 99 28.5t43 94.5l10 57h-4q-47 -57 -139 -57q-79 0 -130 52.5t-51 151.5q0 148 83 247t227 99q132 0 193 -40l-72 -511q-16 -111 -84.5 -167.5t-182.5 -56.5zM264 112q49 0 80.5 32t39.5 88l33 224q-24 11 -66 11
q-82 0 -133 -62.5t-51 -176.5q0 -116 97 -116z" />
    <glyph glyph-name="Hcircumflex" unicode="&#x124;" horiz-adv-x="709" 
d="M258 757l-43 73l219 126l198 -126l-46 -69l-160 84zM29 0l98 701h125l-42 -297h287l42 297h125l-98 -701h-125l42 299h-287l-42 -299h-125z" />
    <glyph glyph-name="hcircumflex" unicode="&#x125;" horiz-adv-x="599" 
d="M51 754l-43 73l219 126l198 -126l-46 -69l-160 84zM36 0l88 629q4 28 4 58q0 36 -5 60l120 14q7 -27 7 -65q0 -29 -5 -64l-20 -148h4q21 30 62.5 54.5t96.5 24.5q73 0 114 -37t41 -104q0 -41 -20 -164l-36 -258h-123l37 260q17 121 17 141q0 60 -68 60q-57 0 -97.5 -37.5
t-49.5 -105.5l-44 -318h-123z" />
    <glyph glyph-name="Hbar" unicode="&#x126;" horiz-adv-x="728" 
d="M735 587l-9 -72h-79l-72 -515h-125l42 299h-287l-42 -299h-125l72 515h-62l10 72h62l16 114h125l-16 -114h287l16 114h125l-16 -114h78zM506 404l16 111h-287l-16 -111h287z" />
    <glyph glyph-name="hbar" unicode="&#x127;" horiz-adv-x="602" 
d="M391 563q73 0 114 -37t41 -104q0 -41 -20 -164l-36 -258h-123l37 260q17 121 17 141q0 60 -68 60q-57 0 -97.5 -37.5t-49.5 -105.5l-44 -318h-123l87 620h-66l11 72h60q0 34 -5 55l120 14q7 -27 7 -65v-4h157l-10 -72h-154l-18 -136h4q21 30 62.5 54.5t96.5 24.5z" />
    <glyph glyph-name="Itilde" unicode="&#x128;" horiz-adv-x="310" 
d="M304 785q-28 0 -75 19.5t-71 19.5q-47 0 -78 -34l-45 68q51 59 118 59q31 0 78 -19.5t68 -19.5q26 0 42 8t34 28l44 -69q-45 -60 -115 -60zM43 0l98 701h125l-98 -701h-125z" />
    <glyph glyph-name="itilde" unicode="&#x129;" horiz-adv-x="299" 
d="M275 641q-27 0 -74 19.5t-72 19.5q-47 0 -78 -34l-45 68q51 59 118 59q31 0 78 -19.5t68 -19.5q26 0 42 8t34 28l44 -69q-45 -60 -115 -60zM163 -4q-48 0 -76.5 27.5t-28.5 81.5q0 21 18 160l41 292h124l-42 -292q-17 -121 -17 -135q0 -18 8.5 -25.5t29.5 -7.5h23
l-13 -87q-26 -14 -67 -14z" />
    <glyph glyph-name="Imacron" unicode="&#x12a;" horiz-adv-x="310" 
d="M40 800l15 103h354l-15 -103h-354zM43 0l98 701h125l-98 -701h-125z" />
    <glyph glyph-name="imacron" unicode="&#x12b;" horiz-adv-x="299" 
d="M16 656l15 103h354l-15 -103h-354zM163 -4q-48 0 -76.5 27.5t-28.5 81.5q0 21 18 160l41 292h124l-42 -292q-17 -121 -17 -135q0 -18 8.5 -25.5t29.5 -7.5h23l-13 -87q-26 -14 -67 -14z" />
    <glyph glyph-name="Ibreve" unicode="&#x12c;" horiz-adv-x="310" 
d="M212 769q-76 0 -120 36t-58 80l91 47q3 -14 11.5 -29t31.5 -30t55 -15q81 0 118 74l77 -52q-58 -111 -206 -111zM43 0l98 701h125l-98 -701h-125z" />
    <glyph glyph-name="ibreve" unicode="&#x12d;" horiz-adv-x="299" 
d="M187 625q-76 0 -120 36t-58 80l91 47q3 -14 11.5 -29t31.5 -30t55 -15q81 0 118 74l77 -52q-58 -111 -206 -111zM163 -4q-48 0 -76.5 27.5t-28.5 81.5q0 21 18 160l41 292h124l-42 -292q-17 -121 -17 -135q0 -18 8.5 -25.5t29.5 -7.5h23l-13 -87q-26 -14 -67 -14z" />
    <glyph glyph-name="Iogonek" unicode="&#x12e;" horiz-adv-x="310" 
d="M168 0q-137 -73 -137 -136q0 -38 48 -38q32 0 60 15l12 -74q-42 -20 -99 -20q-60 0 -89 26t-29 69q0 89 110 164l97 695h125z" />
    <glyph glyph-name="iogonek" unicode="&#x12f;" horiz-adv-x="299" 
d="M207 784q30 0 49 -18.5t19 -49.5q0 -37 -23.5 -60.5t-62.5 -23.5q-29 0 -48 18t-19 48q0 37 23.5 61.5t61.5 24.5zM182 130q0 -18 8.5 -25.5t29.5 -7.5h23l-13 -87q-1 0 -1 -1q-136 -72 -136 -135q0 -38 48 -38q32 0 60 15l12 -74q-42 -20 -99 -20q-60 0 -89 26t-29 69
q0 88 105 160q-43 27 -43 93q0 21 18 160l41 292h124l-42 -292q-17 -121 -17 -135z" />
    <glyph glyph-name="Idotaccent" unicode="&#x130;" horiz-adv-x="310" 
d="M215 776q-29 0 -47.5 17.5t-18.5 46.5v11q4 35 27.5 56t56.5 21q31 0 49.5 -18t18.5 -50q0 -36 -24.5 -60t-61.5 -24zM43 0l98 701h125l-98 -701h-125z" />
    <glyph glyph-name="dotlessi" unicode="&#x131;" horiz-adv-x="299" 
d="M163 -4q-48 0 -76.5 27.5t-28.5 81.5q0 21 18 160l41 292h124l-42 -292q-17 -121 -17 -135q0 -18 8.5 -25.5t29.5 -7.5h23l-13 -87q-26 -14 -67 -14z" />
    <glyph glyph-name="IJ" unicode="&#x132;" horiz-adv-x="706" 
d="M43 0l98 701h125l-98 -701h-125zM380 -12q-84 0 -129 31l48 109q39 -30 93 -30q36 0 54.5 16.5t23.5 53.5l75 533h125l-77 -541q-23 -172 -213 -172z" />
    <glyph glyph-name="ij" unicode="&#x133;" horiz-adv-x="575" 
d="M185 632q-29 0 -48 18t-19 48q0 37 23.5 61.5t61.5 24.5q30 0 49 -18.5t19 -49.5q0 -37 -23.5 -60.5t-62.5 -23.5zM484 632q-29 0 -48 18t-19 48q0 37 23.5 61.5t61.5 24.5q30 0 49 -18.5t19 -49.5q0 -37 -23.5 -60.5t-62.5 -23.5zM159 -4q-48 0 -76.5 27.5t-28.5 81.5
q0 21 18 160l41 292h124l-42 -292q-17 -121 -17 -135q0 -18 8.5 -25.5t29.5 -7.5h23l-13 -87q-26 -14 -67 -14zM246 -211l-36 95q60 24 91.5 63.5t43.5 125.5l68 484h123l-69 -489q-16 -111 -65.5 -180.5t-155.5 -98.5z" />
    <glyph glyph-name="Jcircumflex" unicode="&#x134;" horiz-adv-x="396" 
d="M160 757l-43 73l219 126l198 -126l-46 -69l-160 84zM70 -12q-84 0 -129 31l48 109q39 -30 93 -30q36 0 54.5 16.5t23.5 53.5l75 533h125l-77 -541q-23 -172 -213 -172z" />
    <glyph glyph-name="jcircumflex" unicode="&#x135;" horiz-adv-x="287" 
d="M31 613l-43 73l219 126l198 -126l-46 -69l-160 84zM-34 -215l-54 98q61 28 92 66.5t43 123.5l68 484h123l-68 -488q-31 -223 -204 -284z" />
    <glyph glyph-name="Kcommaaccent" unicode="&#x136;" horiz-adv-x="593" 
d="M37 0l98 701h125l-98 -701h-125zM405 0l-181 364l1 4l258 333h144l-270 -339l188 -362h-140zM199 -335l-25 41q75 34 75 87q0 7 -1.5 13t-5.5 12t-7 9.5t-10 9t-10.5 7.5t-13 8t-12.5 8q1 30 20 50.5t51 20.5q35 0 55.5 -22t20.5 -58q0 -69 -41.5 -115.5t-95.5 -70.5z
" />
    <glyph glyph-name="kcommaaccent" unicode="&#x137;" horiz-adv-x="548" 
d="M34 0l88 630q3 21 5 57q0 37 -6 60l122 14q8 -25 8 -65q0 -29 -5 -64l-89 -632h-123zM434 -7q-79 0 -125 101l-102 208v4l204 251h139v-4l-213 -254v-4l85 -164q10 -20 23 -28.5t39 -8.5h26l-13 -89q-22 -12 -63 -12zM185 -335l-25 41q76 34 76 87q0 8 -3 15.5t-5.5 12.5
t-11 11.5t-12 9t-15 9.5t-14.5 9q1 30 20.5 50.5t50.5 20.5q36 0 56 -22t20 -58q0 -69 -41.5 -115.5t-95.5 -70.5z" />
    <glyph glyph-name="kgreenlandic" unicode="&#x138;" horiz-adv-x="548" 
d="M34 0l78 557h123l-78 -557h-123zM434 -7q-41 0 -70 24.5t-55 76.5l-98 187v4l201 272h137v-4l-208 -274v-4l81 -144q11 -20 24 -28.5t38 -8.5h26l-13 -89q-22 -12 -63 -12z" />
    <glyph glyph-name="Lacute" unicode="&#x139;" horiz-adv-x="508" 
d="M234 768l-75 51l160 143l114 -65zM37 0l98 701h125l-84 -596h274l-14 -105h-399z" />
    <glyph glyph-name="lacute" unicode="&#x13a;" horiz-adv-x="306" 
d="M198 792l-75 51l160 143l114 -65zM173 -7q-63 0 -93.5 35.5t-23.5 99.5q3 23 9.5 68.5t9.5 68.5l52 364q2 22 4 58q0 37 -6 60l123 14q7 -27 7 -65q0 -29 -5 -64l-51 -367q-3 -21 -8.5 -61.5t-7.5 -53.5q-3 -28 7 -39.5t35 -11.5q16 0 28 3l-14 -97q-27 -12 -66 -12z" />
    <glyph glyph-name="Lcommaaccent" unicode="&#x13b;" horiz-adv-x="508" 
d="M37 0l98 701h125l-84 -596h274l-14 -105h-399zM174 -335l-25 41q75 33 75 87q0 7 -1.5 13t-5.5 12t-7 9.5t-10 9t-10.5 7.5t-13 8t-12.5 8q1 30 20.5 50.5t50.5 20.5q36 0 56 -22t20 -58q0 -69 -41.5 -115.5t-95.5 -70.5z" />
    <glyph glyph-name="lcommaaccent" unicode="&#x13c;" horiz-adv-x="306" 
d="M173 -7q-63 0 -93.5 35.5t-23.5 99.5q3 23 9.5 68.5t9.5 68.5l52 364q2 22 4 58q0 37 -6 60l123 14q7 -27 7 -65q0 -29 -5 -64l-51 -367q-3 -21 -8.5 -61.5t-7.5 -53.5q-3 -28 7 -39.5t35 -11.5q16 0 28 3l-14 -97q-27 -12 -66 -12zM54 -335l-24 41q75 34 75 87
q0 8 -3 15.5t-5.5 12.5t-11 11.5t-12 9t-15 9.5t-14.5 9q2 30 21 50.5t50 20.5q36 0 56.5 -22t20.5 -58q0 -69 -41.5 -115.5t-96.5 -70.5z" />
    <glyph glyph-name="Lcaron" unicode="&#x13d;" horiz-adv-x="508" 
d="M37 0l98 701h125l-84 -596h274l-14 -105h-399z" />
    <glyph glyph-name="lcaron" unicode="&#x13e;" horiz-adv-x="405" 
d="M173 -7q-63 0 -93.5 35.5t-23.5 99.5q3 23 9.5 68.5t9.5 68.5l52 364q2 22 4 58q0 37 -6 60l123 14q7 -27 7 -65q0 -29 -5 -64l-51 -367q-3 -21 -8.5 -61.5t-7.5 -53.5q-3 -28 7 -39.5t35 -11.5q16 0 28 3l-14 -97q-27 -12 -66 -12z" />
    <glyph glyph-name="Ldot" unicode="&#x13f;" horiz-adv-x="508" 
d="M37 0l98 701h125l-84 -596h274l-14 -105h-399zM370 290q-31 0 -52 20.5t-21 51.5q0 37 24 62t60 25q33 0 54.5 -21t21.5 -54q0 -37 -25 -60.5t-62 -23.5z" />
    <glyph glyph-name="ldot" unicode="&#x140;" horiz-adv-x="408" 
d="M173 -7q-63 0 -93.5 35.5t-23.5 99.5q3 23 9.5 68.5t9.5 68.5l52 364q2 22 4 58q0 37 -6 60l123 14q7 -27 7 -65q0 -29 -5 -64l-51 -367q-3 -21 -8.5 -61.5t-7.5 -53.5q-3 -28 7 -39.5t35 -11.5q16 0 28 3l-14 -97q-27 -12 -66 -12zM351 293q-31 0 -52 20.5t-21 51.5
q0 37 24 62t60 25q33 0 54.5 -21t21.5 -54q0 -37 -25 -60.5t-62 -23.5z" />
    <glyph glyph-name="Lslash" unicode="&#x141;" horiz-adv-x="518" 
d="M186 105h274l-14 -105h-399l33 236l-78 -44l13 95l78 44l52 370h125l-41 -294l171 97l-14 -95l-171 -96z" />
    <glyph glyph-name="lslash" unicode="&#x142;" horiz-adv-x="314" 
d="M203 265q-3 -21 -8.5 -61.5t-7.5 -53.5q-3 -28 7 -39.5t35 -11.5q16 0 28 3l-14 -97q-27 -12 -66 -12q-63 0 -93.5 35.5t-23.5 99.5q3 23 9.5 68.5t9.5 68.5l4 31l-67 -44l13 94l68 44l34 239q2 22 4 58q0 37 -6 60l123 14q7 -27 7 -65q0 -29 -5 -64l-21 -154l102 66
l-13 -94l-103 -66z" />
    <glyph glyph-name="Nacute" unicode="&#x143;" horiz-adv-x="714" 
d="M432 768l-75 51l160 143l114 -65zM37 0l98 701h154l128 -335q45 -113 70 -198h4q6 92 28 238l41 295h119l-98 -701h-151l-135 348q-38 102 -65 198h-4q-8 -105 -24 -222l-45 -324h-120z" />
    <glyph glyph-name="nacute" unicode="&#x144;" horiz-adv-x="602" 
d="M354 624l-75 51l160 143l114 -65zM36 0l77 557h96l20 -69h4q20 33 60.5 57t95.5 24q74 0 115.5 -37t41.5 -107q0 -32 -19 -160l-37 -265h-123l37 266q17 115 17 139q0 62 -70 62q-59 0 -98.5 -37t-49.5 -106l-44 -324h-123z" />
    <glyph glyph-name="Ncommaaccent" unicode="&#x145;" horiz-adv-x="714" 
d="M37 0l98 701h154l128 -335q45 -113 70 -198h4q6 92 28 238l41 295h119l-98 -701h-151l-135 348q-38 102 -65 198h-4q-8 -105 -24 -222l-45 -324h-120zM242 -333l-33 46q77 35 77 85q0 37 -54 62q-1 30 18.5 51.5t49.5 21.5q35 0 56.5 -24t21.5 -62q0 -59 -40.5 -109
t-95.5 -71z" />
    <glyph glyph-name="ncommaaccent" unicode="&#x146;" horiz-adv-x="602" 
d="M36 0l77 557h96l20 -69h4q20 33 60.5 57t95.5 24q74 0 115.5 -37t41.5 -107q0 -32 -19 -160l-37 -265h-123l37 266q17 115 17 139q0 62 -70 62q-59 0 -98.5 -37t-49.5 -106l-44 -324h-123zM169 -241l-27 60q77 31 77 87q0 28 -17 49v4h97q10 -18 10 -44
q0 -59 -38.5 -99.5t-101.5 -56.5z" />
    <glyph glyph-name="Ncaron" unicode="&#x147;" horiz-adv-x="714" 
d="M423 757l-198 126l46 69l160 -84l168 88l43 -73zM37 0l98 701h154l128 -335q45 -113 70 -198h4q6 92 28 238l41 295h119l-98 -701h-151l-135 348q-38 102 -65 198h-4q-8 -105 -24 -222l-45 -324h-120z" />
    <glyph glyph-name="ncaron" unicode="&#x148;" horiz-adv-x="602" 
d="M354 613l-198 126l46 69l160 -84l168 88l43 -73zM36 0l77 557h96l20 -69h4q20 33 60.5 57t95.5 24q74 0 115.5 -37t41.5 -107q0 -32 -19 -160l-37 -265h-123l37 266q17 115 17 139q0 62 -70 62q-59 0 -98.5 -37t-49.5 -106l-44 -324h-123z" />
    <glyph glyph-name="napostrophe" unicode="&#x149;" horiz-adv-x="698" 
d="M131 0l77 557h96l20 -69h4q20 33 60.5 57t95.5 24q74 0 115.5 -37t41.5 -107q0 -32 -19 -160l-37 -265h-123l37 266q17 115 17 139q0 62 -70 62q-59 0 -98.5 -37t-49.5 -106l-44 -324h-123z" />
    <glyph glyph-name="Eng" unicode="&#x14a;" horiz-adv-x="713" 
d="M366 -223l-37 95q50 20 80 47t46 81h-25l-136 350q-37 97 -65 196h-4q-6 -97 -23 -222l-45 -324h-120l98 701h154l130 -338q48 -123 68 -195h4q9 108 28 238l41 295h119l-90 -647q-15 -108 -67 -178.5t-156 -98.5z" />
    <glyph glyph-name="eng" unicode="&#x14b;" horiz-adv-x="602" 
d="M267 -234l-31 95q61 24 92.5 63t44.5 125l31 217q17 106 17 137q0 64 -69 64q-60 0 -99.5 -37t-49.5 -106l-44 -324h-123l77 557h96l20 -69h4q21 33 60 57t96 24q74 0 115.5 -37t41.5 -107q0 -32 -19 -160l-32 -220q-31 -223 -228 -279z" />
    <glyph glyph-name="Omacron" unicode="&#x14c;" horiz-adv-x="698" 
d="M233 800l15 103h354l-15 -103h-354zM304 -10q-119 0 -187.5 67t-68.5 205q0 66 11 128t37 121t64.5 103t98 70.5t133.5 26.5q119 0 188 -67.5t69 -205.5q0 -66 -11 -128t-37 -121t-64.5 -102.5t-98.5 -70t-134 -26.5zM315 96q47 0 84 23.5t59 59.5t36.5 83.5t20 92
t5.5 89.5q0 88 -36 124.5t-103 36.5q-57 0 -99.5 -34t-63.5 -89t-30.5 -110t-9.5 -112q0 -90 36 -127t101 -37z" />
    <glyph glyph-name="omacron" unicode="&#x14d;" horiz-adv-x="582" 
d="M171 656l15 103h354l-15 -103h-354zM262 -11q-108 0 -165 58t-57 158q0 161 70 261.5t211 100.5q110 0 165.5 -57t55.5 -158q0 -161 -70 -262t-210 -101zM267 87q43 0 74 25.5t46.5 67.5t22.5 83.5t7 84.5q0 121 -102 121q-43 0 -73.5 -25.5t-46 -67.5t-22.5 -83.5
t-7 -84.5q0 -121 101 -121z" />
    <glyph glyph-name="Obreve" unicode="&#x14e;" horiz-adv-x="698" 
d="M407 769q-76 0 -120 36t-58 80l91 47q3 -14 11.5 -29t31.5 -30t55 -15q81 0 118 74l77 -52q-58 -111 -206 -111zM304 -10q-119 0 -187.5 67t-68.5 205q0 66 11 128t37 121t64.5 103t98 70.5t133.5 26.5q119 0 188 -67.5t69 -205.5q0 -66 -11 -128t-37 -121t-64.5 -102.5
t-98.5 -70t-134 -26.5zM315 96q47 0 84 23.5t59 59.5t36.5 83.5t20 92t5.5 89.5q0 88 -36 124.5t-103 36.5q-57 0 -99.5 -34t-63.5 -89t-30.5 -110t-9.5 -112q0 -90 36 -127t101 -37z" />
    <glyph glyph-name="obreve" unicode="&#x14f;" horiz-adv-x="582" 
d="M357 625q-76 0 -120 36t-58 80l91 47q3 -14 11.5 -29t31.5 -30t55 -15q81 0 118 74l77 -52q-58 -111 -206 -111zM262 -11q-108 0 -165 58t-57 158q0 161 70 261.5t211 100.5q110 0 165.5 -57t55.5 -158q0 -161 -70 -262t-210 -101zM267 87q43 0 74 25.5t46.5 67.5
t22.5 83.5t7 84.5q0 121 -102 121q-43 0 -73.5 -25.5t-46 -67.5t-22.5 -83.5t-7 -84.5q0 -121 101 -121z" />
    <glyph glyph-name="Ohungarumlaut" unicode="&#x150;" horiz-adv-x="698" 
d="M296 748l-50 63l198 156l66 -76zM522 749l-41 72l217 121l50 -85zM304 -10q-119 0 -187.5 67t-68.5 205q0 66 11 128t37 121t64.5 103t98 70.5t133.5 26.5q119 0 188 -67.5t69 -205.5q0 -66 -11 -128t-37 -121t-64.5 -102.5t-98.5 -70t-134 -26.5zM315 96q47 0 84 23.5
t59 59.5t36.5 83.5t20 92t5.5 89.5q0 88 -36 124.5t-103 36.5q-57 0 -99.5 -34t-63.5 -89t-30.5 -110t-9.5 -112q0 -90 36 -127t101 -37z" />
    <glyph glyph-name="ohungarumlaut" unicode="&#x151;" horiz-adv-x="582" 
d="M220 604l-50 63l198 156l66 -76zM446 605l-41 72l217 121l50 -85zM262 -11q-108 0 -165 58t-57 158q0 161 70 261.5t211 100.5q110 0 165.5 -57t55.5 -158q0 -161 -70 -262t-210 -101zM267 87q43 0 74 25.5t46.5 67.5t22.5 83.5t7 84.5q0 121 -102 121q-43 0 -73.5 -25.5
t-46 -67.5t-22.5 -83.5t-7 -84.5q0 -121 101 -121z" />
    <glyph glyph-name="OE" unicode="&#x152;" horiz-adv-x="976" 
d="M298 -10q-118 0 -184 66.5t-66 205.5q0 66 11 128t37.5 121t65.5 103t99 70.5t134 26.5q126 0 175 -73h4l9 63h385l-15 -105h-278l-27 -188h242l-14 -105h-242l-28 -198h291l-14 -105h-398l9 67h-4q-61 -77 -192 -77zM315 96q60 0 103 34t64 90t29.5 110.5t8.5 113.5
q0 88 -36 124.5t-103 36.5q-57 0 -99.5 -34t-63.5 -89t-30.5 -110t-9.5 -112q0 -90 36 -127t101 -37z" />
    <glyph glyph-name="oe" unicode="&#x153;" horiz-adv-x="935" 
d="M254 -13q-106 0 -159.5 58.5t-53.5 157.5q0 162 70.5 263t211.5 101q132 0 175 -89h4q59 89 184 89q101 0 155.5 -52t54.5 -138q0 -70 -26 -138h-345q-2 -11 -2 -27q0 -57 31.5 -90.5t97.5 -33.5q91 0 147 53l54 -83q-83 -68 -219 -68q-134 0 -185 93h-4
q-23 -40 -72.5 -68t-118.5 -28zM538 328h234q8 26 8 53q0 43 -24 67.5t-71 24.5q-122 0 -147 -145zM269 85q42 0 73.5 26.5t47 68.5t22.5 84t7 85q0 120 -104 120q-42 0 -73 -26t-46.5 -68t-22 -84t-6.5 -85q0 -121 102 -121z" />
    <glyph glyph-name="Racute" unicode="&#x154;" horiz-adv-x="600" 
d="M351 768l-75 51l160 143l114 -65zM37 0l98 701h203q103 0 160 -45.5t57 -132.5q0 -107 -51 -159t-126 -62v-4q22 -13 37.5 -34.5t34.5 -64.5l85 -199h-134l-91 227q-18 45 -76 45h-36l-38 -272h-123zM212 374h71q144 0 144 141q0 81 -107 81h-77z" />
    <glyph glyph-name="racute" unicode="&#x155;" horiz-adv-x="387" 
d="M199 624l-75 51l160 143l114 -65zM50 0l53 387q5 35 5 43q0 34 -35 34h-29l13 87q31 14 73 14q83 0 95 -75h4q47 78 147 78q36 0 64 -10l-19 -126q-36 15 -76 15q-111 0 -127 -111l-46 -336h-122z" />
    <glyph glyph-name="Rcommaaccent" unicode="&#x156;" horiz-adv-x="600" 
d="M37 0l98 701h203q103 0 160 -45.5t57 -132.5q0 -107 -51 -159t-126 -62v-4q22 -13 37.5 -34.5t34.5 -64.5l85 -199h-134l-91 227q-18 45 -76 45h-36l-38 -272h-123zM212 374h71q144 0 144 141q0 81 -107 81h-77zM195 -335l-24 41q75 34 75 87q0 8 -3 15.5t-5.5 12.5
t-11 11.5t-12 9t-15 9.5t-14.5 9q1 30 20.5 50.5t50.5 20.5q36 0 56.5 -22t20.5 -58q0 -69 -41.5 -115.5t-96.5 -70.5z" />
    <glyph glyph-name="rcommaaccent" unicode="&#x157;" horiz-adv-x="387" 
d="M50 0l53 387q5 35 5 43q0 34 -35 34h-29l13 87q31 14 73 14q83 0 95 -75h4q47 78 147 78q36 0 64 -10l-19 -126q-36 15 -76 15q-111 0 -127 -111l-46 -336h-122zM27 -335l-24 41q75 34 75 87q0 7 -1.5 13t-5.5 12t-6.5 9.5t-11 9t-10.5 7.5t-13 8.5t-13 7.5q2 30 21 50.5
t51 20.5q35 0 55.5 -22t20.5 -58q0 -69 -41.5 -115.5t-96.5 -70.5z" />
    <glyph glyph-name="Rcaron" unicode="&#x158;" horiz-adv-x="600" 
d="M348 757l-198 126l46 69l160 -84l168 88l43 -73zM37 0l98 701h203q103 0 160 -45.5t57 -132.5q0 -107 -51 -159t-126 -62v-4q22 -13 37.5 -34.5t34.5 -64.5l85 -199h-134l-91 227q-18 45 -76 45h-36l-38 -272h-123zM212 374h71q144 0 144 141q0 81 -107 81h-77z" />
    <glyph glyph-name="rcaron" unicode="&#x159;" horiz-adv-x="387" 
d="M265 613l-198 126l46 69l160 -84l168 88l43 -73zM50 0l53 387q5 35 5 43q0 34 -35 34h-29l13 87q31 14 73 14q83 0 95 -75h4q47 78 147 78q36 0 64 -10l-19 -126q-36 15 -76 15q-111 0 -127 -111l-46 -336h-122z" />
    <glyph glyph-name="Sacute" unicode="&#x15a;" horiz-adv-x="557" 
d="M355 768l-75 51l160 143l114 -65zM228 -10q-142 0 -237 85l79 98q68 -76 170 -76q60 0 90.5 27t30.5 66q0 32 -29.5 57.5t-71 46t-83 44t-71 62.5t-29.5 90q0 100 73 160.5t187 60.5q73 0 121.5 -24t69.5 -53l-85 -89q-47 57 -127 57q-50 0 -79.5 -25.5t-29.5 -63.5
q0 -27 21 -50t52 -38.5t68 -36t68 -41.5t52 -55.5t21 -78.5q0 -99 -67 -161t-194 -62z" />
    <glyph glyph-name="sacute" unicode="&#x15b;" horiz-adv-x="481" 
d="M306 624l-75 51l160 143l114 -65zM208 -9q-76 0 -135 28t-79 56l75 84q20 -26 60 -48t91 -22q45 0 65.5 19t20.5 44q0 22 -14 36.5t-52 31.5l-66 31q-108 48 -108 145q0 75 58 123t157 48q67 0 113.5 -20.5t70.5 -49.5l-78 -84q-17 21 -48.5 37t-68.5 16
q-40 0 -61.5 -17.5t-21.5 -44.5q0 -23 15.5 -39t54.5 -32l54 -25q58 -26 88 -60t30 -86q0 -68 -54 -119.5t-167 -51.5z" />
    <glyph glyph-name="Scircumflex" unicode="&#x15c;" horiz-adv-x="557" 
d="M211 757l-43 73l219 126l198 -126l-46 -69l-160 84zM228 -10q-142 0 -237 85l79 98q68 -76 170 -76q60 0 90.5 27t30.5 66q0 32 -29.5 57.5t-71 46t-83 44t-71 62.5t-29.5 90q0 100 73 160.5t187 60.5q73 0 121.5 -24t69.5 -53l-85 -89q-47 57 -127 57q-50 0 -79.5 -25.5
t-29.5 -63.5q0 -27 21 -50t52 -38.5t68 -36t68 -41.5t52 -55.5t21 -78.5q0 -99 -67 -161t-194 -62z" />
    <glyph glyph-name="scircumflex" unicode="&#x15d;" horiz-adv-x="481" 
d="M151 613l-43 73l219 126l198 -126l-46 -69l-160 84zM208 -9q-76 0 -135 28t-79 56l75 84q20 -26 60 -48t91 -22q45 0 65.5 19t20.5 44q0 22 -14 36.5t-52 31.5l-66 31q-108 48 -108 145q0 75 58 123t157 48q67 0 113.5 -20.5t70.5 -49.5l-78 -84q-17 21 -48.5 37
t-68.5 16q-40 0 -61.5 -17.5t-21.5 -44.5q0 -23 15.5 -39t54.5 -32l54 -25q58 -26 88 -60t30 -86q0 -68 -54 -119.5t-167 -51.5z" />
    <glyph glyph-name="Scedilla" unicode="&#x15e;" horiz-adv-x="557" 
d="M228 -10q-142 0 -237 85l79 98q68 -76 170 -76q60 0 90.5 27t30.5 66q0 32 -29.5 57.5t-71 46t-83 44t-71 62.5t-29.5 90q0 100 73 160.5t187 60.5q73 0 121.5 -24t69.5 -53l-85 -89q-47 57 -127 57q-50 0 -79.5 -25.5t-29.5 -63.5q0 -27 21 -50t52 -38.5t68 -36
t68 -41.5t52 -55.5t21 -78.5q0 -99 -67 -161t-194 -62zM156 -257l-27 61q77 31 77 87q0 28 -17 49v4h97q10 -18 10 -44q0 -59 -38.5 -100t-101.5 -57z" />
    <glyph glyph-name="scedilla" unicode="&#x15f;" horiz-adv-x="481" 
d="M208 -9q-76 0 -135 28t-79 56l75 84q20 -26 60 -48t91 -22q45 0 65.5 19t20.5 44q0 22 -14 36.5t-52 31.5l-66 31q-108 48 -108 145q0 75 58 123t157 48q67 0 113.5 -20.5t70.5 -49.5l-78 -84q-17 21 -48.5 37t-68.5 16q-40 0 -61.5 -17.5t-21.5 -44.5q0 -23 15.5 -39
t54.5 -32l54 -25q58 -26 88 -60t30 -86q0 -68 -54 -119.5t-167 -51.5zM114 -258l-27 61q77 31 77 87q0 28 -17 49v4h97q10 -18 10 -44q0 -59 -38.5 -100t-101.5 -57z" />
    <glyph glyph-name="Scaron" unicode="&#x160;" horiz-adv-x="557" 
d="M362 757l-198 126l46 69l160 -84l168 88l43 -73zM228 -10q-142 0 -237 85l79 98q68 -76 170 -76q60 0 90.5 27t30.5 66q0 32 -29.5 57.5t-71 46t-83 44t-71 62.5t-29.5 90q0 100 73 160.5t187 60.5q73 0 121.5 -24t69.5 -53l-85 -89q-47 57 -127 57q-50 0 -79.5 -25.5
t-29.5 -63.5q0 -27 21 -50t52 -38.5t68 -36t68 -41.5t52 -55.5t21 -78.5q0 -99 -67 -161t-194 -62z" />
    <glyph glyph-name="scaron" unicode="&#x161;" horiz-adv-x="481" 
d="M306 613l-198 126l46 69l160 -84l168 88l43 -73zM208 -9q-76 0 -135 28t-79 56l75 84q20 -26 60 -48t91 -22q45 0 65.5 19t20.5 44q0 22 -14 36.5t-52 31.5l-66 31q-108 48 -108 145q0 75 58 123t157 48q67 0 113.5 -20.5t70.5 -49.5l-78 -84q-17 21 -48.5 37t-68.5 16
q-40 0 -61.5 -17.5t-21.5 -44.5q0 -23 15.5 -39t54.5 -32l54 -25q58 -26 88 -60t30 -86q0 -68 -54 -119.5t-167 -51.5z" />
    <glyph glyph-name="uni0162" unicode="&#x162;" horiz-adv-x="486" 
d="M132 0l83 596h-179l15 105h483l-15 -105h-179l-83 -596h-125zM93 -252l-27 61q77 31 77 87q0 28 -17 49v4h97q10 -18 10 -44q0 -59 -38.5 -100t-101.5 -57z" />
    <glyph glyph-name="uni0163" unicode="&#x163;" horiz-adv-x="383" 
d="M216 -5q-67 0 -106 35.5t-39 102.5q0 30 23 186l20 143h-76l11 75l80 24l57 136h82l-20 -140h138l-13 -95h-138l-21 -148q-22 -153 -22 -168q0 -50 52 -50q48 0 80 21l20 -96q-47 -26 -128 -26zM86 -252l-27 61q77 31 77 87q0 28 -17 49v4h97q10 -18 10 -44
q0 -59 -38.5 -100t-101.5 -57z" />
    <glyph glyph-name="Tcaron" unicode="&#x164;" horiz-adv-x="486" 
d="M303 757l-198 126l46 69l160 -84l168 88l43 -73zM132 0l83 596h-179l15 105h483l-15 -105h-179l-83 -596h-125z" />
    <glyph glyph-name="tcaron" unicode="&#x165;" horiz-adv-x="386" 
d="M216 -5q-67 0 -106 35.5t-39 102.5q0 30 23 186l20 143h-76l11 75l80 24l57 136h82l-20 -140h138l-13 -95h-138l-21 -148q-22 -153 -22 -168q0 -50 52 -50q48 0 80 21l20 -96q-47 -26 -128 -26z" />
    <glyph glyph-name="Tbar" unicode="&#x166;" horiz-adv-x="495" 
d="M523 596h-179l-28 -199h111l-12 -93h-112l-42 -304h-125l42 304h-111l13 93h111l28 199h-179l15 105h483z" />
    <glyph glyph-name="tbar" unicode="&#x167;" horiz-adv-x="396" 
d="M222 -5q-67 0 -105.5 35.5t-38.5 102.5q0 30 15 133h-75l10 74l78 21l15 101h-75l11 75l83 22l38 129h97l-19 -131h129l-14 -95h-133l-14 -101h138l-13 -95h-139q-15 -100 -15 -122q0 -50 52 -50q44 0 71 18l27 -90q-49 -27 -123 -27z" />
    <glyph glyph-name="Utilde" unicode="&#x168;" horiz-adv-x="693" 
d="M494 785q-28 0 -75 19.5t-71 19.5q-47 0 -78 -34l-45 68q51 59 118 59q31 0 78 -19.5t68 -19.5q26 0 42 8t34 28l44 -69q-45 -60 -115 -60zM299 -10q-112 0 -171 56t-59 151q0 33 25 219l40 285h125l-39 -274q-27 -191 -27 -221q0 -109 120 -109q69 0 107.5 36t49.5 113
l64 455h125l-64 -445q-20 -141 -93.5 -203.5t-202.5 -62.5z" />
    <glyph glyph-name="utilde" unicode="&#x169;" horiz-adv-x="624" 
d="M435 641q-27 0 -74 19.5t-72 19.5q-47 0 -78 -34l-45 68q51 59 118 59q31 0 78 -19.5t68 -19.5q26 0 42 8t34 28l44 -69q-45 -60 -115 -60zM221 -11q-78 0 -120.5 38.5t-42.5 107.5q0 22 7 66l32 232q3 19 5 57q0 37 -6 61l122 11q7 -22 7 -63q0 -30 -5 -65l-31 -222
q-4 -38 -4 -50q0 -76 84 -76q52 0 86 35.5t43 95.5l47 340h124l-52 -370q-7 -47 -7 -57q0 -35 41 -35q12 0 20 2l-12 -88q-29 -15 -69 -15q-42 0 -67.5 20t-31.5 52h-4q-55 -77 -166 -77z" />
    <glyph glyph-name="Umacron" unicode="&#x16a;" horiz-adv-x="693" 
d="M234 800l15 103h354l-15 -103h-354zM299 -10q-112 0 -171 56t-59 151q0 33 25 219l40 285h125l-39 -274q-27 -191 -27 -221q0 -109 120 -109q69 0 107.5 36t49.5 113l64 455h125l-64 -445q-20 -141 -93.5 -203.5t-202.5 -62.5z" />
    <glyph glyph-name="umacron" unicode="&#x16b;" horiz-adv-x="624" 
d="M172 656l15 103h354l-15 -103h-354zM221 -11q-78 0 -120.5 38.5t-42.5 107.5q0 22 7 66l32 232q3 19 5 57q0 37 -6 61l122 11q7 -22 7 -63q0 -30 -5 -65l-31 -222q-4 -38 -4 -50q0 -76 84 -76q52 0 86 35.5t43 95.5l47 340h124l-52 -370q-7 -47 -7 -57q0 -35 41 -35
q12 0 20 2l-12 -88q-29 -15 -69 -15q-42 0 -67.5 20t-31.5 52h-4q-55 -77 -166 -77z" />
    <glyph glyph-name="Ubreve" unicode="&#x16c;" horiz-adv-x="693" 
d="M399 769q-76 0 -120 36t-58 80l91 47q3 -14 11.5 -29t31.5 -30t55 -15q81 0 118 74l77 -52q-58 -111 -206 -111zM299 -10q-112 0 -171 56t-59 151q0 33 25 219l40 285h125l-39 -274q-27 -191 -27 -221q0 -109 120 -109q69 0 107.5 36t49.5 113l64 455h125l-64 -445
q-20 -141 -93.5 -203.5t-202.5 -62.5z" />
    <glyph glyph-name="ubreve" unicode="&#x16d;" horiz-adv-x="624" 
d="M344 625q-76 0 -120 36t-58 80l91 47q3 -14 11.5 -29t31.5 -30t55 -15q81 0 118 74l77 -52q-58 -111 -206 -111zM221 -11q-78 0 -120.5 38.5t-42.5 107.5q0 22 7 66l32 232q3 19 5 57q0 37 -6 61l122 11q7 -22 7 -63q0 -30 -5 -65l-31 -222q-4 -38 -4 -50q0 -76 84 -76
q52 0 86 35.5t43 95.5l47 340h124l-52 -370q-7 -47 -7 -57q0 -35 41 -35q12 0 20 2l-12 -88q-29 -15 -69 -15q-42 0 -67.5 20t-31.5 52h-4q-55 -77 -166 -77z" />
    <glyph glyph-name="Uring" unicode="&#x16e;" horiz-adv-x="693" 
d="M407 740q-54 0 -84.5 28.5t-30.5 74.5q0 57 37 94.5t100 37.5q53 0 84 -28.5t31 -74.5q0 -57 -37 -94.5t-100 -37.5zM410 799q30 0 48 18.5t18 50.5q0 48 -50 48q-30 0 -48 -18.5t-18 -50.5q0 -48 50 -48zM299 -10q-112 0 -171 56t-59 151q0 33 25 219l40 285h125
l-39 -274q-27 -191 -27 -221q0 -109 120 -109q69 0 107.5 36t49.5 113l64 455h125l-64 -445q-20 -141 -93.5 -203.5t-202.5 -62.5z" />
    <glyph glyph-name="uring" unicode="&#x16f;" horiz-adv-x="624" 
d="M346 596q-54 0 -84.5 28.5t-30.5 74.5q0 57 37 94.5t100 37.5q53 0 84 -28.5t31 -74.5q0 -57 -37 -94.5t-100 -37.5zM349 655q30 0 48 18.5t18 50.5q0 48 -50 48q-30 0 -48 -18.5t-18 -50.5q0 -48 50 -48zM221 -11q-78 0 -120.5 38.5t-42.5 107.5q0 22 7 66l32 232
q3 19 5 57q0 37 -6 61l122 11q7 -22 7 -63q0 -30 -5 -65l-31 -222q-4 -38 -4 -50q0 -76 84 -76q52 0 86 35.5t43 95.5l47 340h124l-52 -370q-7 -47 -7 -57q0 -35 41 -35q12 0 20 2l-12 -88q-29 -15 -69 -15q-42 0 -67.5 20t-31.5 52h-4q-55 -77 -166 -77z" />
    <glyph glyph-name="Uhungarumlaut" unicode="&#x170;" horiz-adv-x="693" 
d="M279 748l-50 63l198 156l66 -76zM505 749l-41 72l217 121l50 -85zM299 -10q-112 0 -171 56t-59 151q0 33 25 219l40 285h125l-39 -274q-27 -191 -27 -221q0 -109 120 -109q69 0 107.5 36t49.5 113l64 455h125l-64 -445q-20 -141 -93.5 -203.5t-202.5 -62.5z" />
    <glyph glyph-name="uhungarumlaut" unicode="&#x171;" horiz-adv-x="624" 
d="M219 604l-50 63l198 156l66 -76zM445 605l-41 72l217 121l50 -85zM221 -11q-78 0 -120.5 38.5t-42.5 107.5q0 22 7 66l32 232q3 19 5 57q0 37 -6 61l122 11q7 -22 7 -63q0 -30 -5 -65l-31 -222q-4 -38 -4 -50q0 -76 84 -76q52 0 86 35.5t43 95.5l47 340h124l-52 -370
q-7 -47 -7 -57q0 -35 41 -35q12 0 20 2l-12 -88q-29 -15 -69 -15q-42 0 -67.5 20t-31.5 52h-4q-55 -77 -166 -77z" />
    <glyph glyph-name="Uogonek" unicode="&#x172;" horiz-adv-x="693" 
d="M534 701h125l-64 -445q-27 -195 -167 -246q-131 -72 -131 -133q0 -38 48 -38q32 0 60 15l12 -74q-42 -20 -99 -20q-60 0 -89 26t-29 69q0 72 73 136q-99 7 -151.5 62t-52.5 144q0 33 25 219l40 285h125l-39 -274q-27 -191 -27 -221q0 -109 120 -109q69 0 107.5 36
t49.5 113z" />
    <glyph glyph-name="uogonek" unicode="&#x173;" horiz-adv-x="624" 
d="M558 9q-137 -73 -137 -136q0 -38 48 -38q32 0 60 15l12 -74q-42 -20 -99 -20q-60 0 -89 26t-29 69q0 87 103 159q-29 19 -37 56h-4q-55 -77 -166 -77q-78 0 -120.5 38.5t-42.5 107.5q0 22 7 66l32 232q3 19 5 57q0 37 -6 61l122 11q7 -22 7 -63q0 -30 -5 -65l-31 -222
q-4 -38 -4 -50q0 -76 84 -76q52 0 86 35.5t43 95.5l47 340h124l-52 -370q-7 -47 -7 -57q0 -35 41 -35q12 0 20 2z" />
    <glyph glyph-name="Wcircumflex" unicode="&#x174;" horiz-adv-x="930" 
d="M369 757l-43 73l219 126l198 -126l-46 -69l-160 84zM126 0l-81 701h128l37 -340q15 -136 11 -226h4q12 41 63 184l142 382h156l39 -383q11 -110 12 -182h4q28 100 70 211l136 354h131l-278 -701h-155l-37 363q-11 130 -12 204h-4q-30 -97 -62 -182l-148 -385h-156z" />
    <glyph glyph-name="wcircumflex" unicode="&#x175;" horiz-adv-x="783" 
d="M275 613l-43 73l219 126l198 -126l-46 -69l-160 84zM93 0l-68 557h117l29 -276q8 -93 8 -175h4q15 55 60 170l111 281h128l29 -266q13 -109 12 -185h4q20 72 64 189l29 76q38 108 38 151q0 18 -3 35h112q4 -15 4 -34q0 -66 -44 -174l-141 -349h-149l-35 411h-4l-159 -411
h-146z" />
    <glyph glyph-name="Ycircumflex" unicode="&#x176;" horiz-adv-x="553" 
d="M174 757l-43 73l219 126l198 -126l-46 -69l-160 84zM165 0l33 236l-169 465h133l111 -345h4l206 345h140l-300 -465l-33 -236h-125z" />
    <glyph glyph-name="ycircumflex" unicode="&#x177;" horiz-adv-x="590" 
d="M168 613l-43 73l219 126l198 -126l-46 -69l-160 84zM199 -210q-151 0 -217 70l81 92q20 -25 57.5 -42.5t82.5 -17.5q71 0 106.5 28.5t46.5 89.5l12 71h-4q-51 -65 -151 -65q-67 0 -104.5 38.5t-37.5 103.5q0 35 17 147t17 126q0 19 -8.5 26t-29.5 7h-29l13 87
q26 14 74 14t76.5 -27.5t28.5 -81.5q0 -23 -18 -134.5t-18 -134.5q0 -76 71 -76q51 0 83.5 34.5t40.5 94.5l44 317h123l-78 -543q-32 -224 -279 -224z" />
    <glyph glyph-name="Ydieresis" unicode="&#x178;" horiz-adv-x="553" 
d="M223 791q-27 0 -45 17.5t-18 43.5q0 33 20.5 54t53.5 21q28 0 45.5 -18t17.5 -46q0 -33 -21 -52.5t-53 -19.5zM452 791q-28 0 -46 17.5t-18 43.5q0 33 20.5 54t53.5 21q28 0 46 -18t18 -46q0 -33 -21 -52.5t-53 -19.5zM165 0l33 236l-169 465h133l111 -345h4l206 345h140
l-300 -465l-33 -236h-125z" />
    <glyph glyph-name="Zacute" unicode="&#x179;" horiz-adv-x="539" 
d="M336 768l-75 51l160 143l114 -65zM1 0l-10 102l388 488v4h-284l15 107h422l8 -102l-385 -488v-4h319l-15 -107h-458z" />
    <glyph glyph-name="zacute" unicode="&#x17a;" horiz-adv-x="473" 
d="M282 624l-75 51l160 143l114 -65zM21 0l-17 102l253 269q49 53 57 85h-239l14 101h322l27 -98q-14 -79 -81 -148l-195 -206v-4h249l-14 -101h-376z" />
    <glyph glyph-name="Zdotaccent" unicode="&#x17b;" horiz-adv-x="539" 
d="M341 776q-29 0 -47.5 17.5t-18.5 46.5v11q4 35 27.5 56t56.5 21q31 0 49.5 -18t18.5 -50q0 -36 -24.5 -60t-61.5 -24zM1 0l-10 102l388 488v4h-284l15 107h422l8 -102l-385 -488v-4h319l-15 -107h-458z" />
    <glyph glyph-name="zdotaccent" unicode="&#x17c;" horiz-adv-x="473" 
d="M293 632q-29 0 -47.5 17.5t-18.5 46.5v11q4 35 27.5 56t56.5 21q31 0 49.5 -18t18.5 -50q0 -36 -24.5 -60t-61.5 -24zM21 0l-17 102l253 269q49 53 57 85h-239l14 101h322l27 -98q-14 -79 -81 -148l-195 -206v-4h249l-14 -101h-376z" />
    <glyph glyph-name="Zcaron" unicode="&#x17d;" horiz-adv-x="539" 
d="M358 757l-198 126l46 69l160 -84l168 88l43 -73zM1 0l-10 102l388 488v4h-284l15 107h422l8 -102l-385 -488v-4h319l-15 -107h-458z" />
    <glyph glyph-name="zcaron" unicode="&#x17e;" horiz-adv-x="473" 
d="M300 613l-198 126l46 69l160 -84l168 88l43 -73zM21 0l-17 102l253 269q49 53 57 85h-239l14 101h322l27 -98q-14 -79 -81 -148l-195 -206v-4h249l-14 -101h-376z" />
    <glyph glyph-name="longs" unicode="&#x17f;" horiz-adv-x="359" 
d="M33 -194l113 807q10 75 59.5 119.5t141.5 44.5q53 0 89 -12l-33 -99q-33 10 -63 10q-35 0 -53 -17t-23 -52l-113 -801h-118z" />
    <glyph glyph-name="florin" unicode="&#x192;" horiz-adv-x="567" 
d="M31 -143q-74 0 -114 24l41 96q31 -17 74 -17q81 0 107 93l72 262h-102l14 96h113l25 95q25 94 84.5 143.5t145.5 49.5q71 0 115 -25l-41 -96q-33 18 -74 18q-85 0 -108 -94l-24 -91h125l-14 -96h-136l-73 -267q-25 -93 -84.5 -142t-145.5 -49z" />
    <glyph glyph-name="Scommaaccent" unicode="&#x218;" horiz-adv-x="557" 
d="M228 -10q-142 0 -237 85l79 98q68 -76 170 -76q60 0 90.5 27t30.5 66q0 32 -29.5 57.5t-71 46t-83 44t-71 62.5t-29.5 90q0 100 73 160.5t187 60.5q73 0 121.5 -24t69.5 -53l-85 -89q-47 57 -127 57q-50 0 -79.5 -25.5t-29.5 -63.5q0 -27 21 -50t52 -38.5t68 -36
t68 -41.5t52 -55.5t21 -78.5q0 -99 -67 -161t-194 -62zM137 -335l-24 41q75 34 75 87q0 8 -3 15.5t-5.5 12.5t-11 11.5t-12 9t-15 9.5t-14.5 9q1 30 20.5 50.5t50.5 20.5q36 0 56.5 -22t20.5 -58q0 -69 -41.5 -115.5t-96.5 -70.5z" />
    <glyph glyph-name="scommaaccent" unicode="&#x219;" horiz-adv-x="481" 
d="M208 -9q-76 0 -135 28t-79 56l75 84q20 -26 60 -48t91 -22q45 0 65.5 19t20.5 44q0 22 -14 36.5t-52 31.5l-66 31q-108 48 -108 145q0 75 58 123t157 48q67 0 113.5 -20.5t70.5 -49.5l-78 -84q-17 21 -48.5 37t-68.5 16q-40 0 -61.5 -17.5t-21.5 -44.5q0 -23 15.5 -39
t54.5 -32l54 -25q58 -26 88 -60t30 -86q0 -68 -54 -119.5t-167 -51.5zM115 -335l-24 41q75 34 75 87q0 7 -1.5 13t-5.5 12t-6.5 9.5t-11 9t-10.5 7.5t-13 8.5t-13 7.5q2 30 21 50.5t51 20.5q35 0 55.5 -22t20.5 -58q0 -69 -41.5 -115.5t-96.5 -70.5z" />
    <glyph glyph-name="uni021A" unicode="&#x21a;" horiz-adv-x="486" 
d="M132 0l83 596h-179l15 105h483l-15 -105h-179l-83 -596h-125zM112 -335l-25 41q75 34 75 87q0 7 -1.5 13t-5.5 12t-7 9.5t-10 9t-10.5 7.5t-13 8t-12.5 8q1 30 20.5 50.5t50.5 20.5q35 0 55.5 -22t20.5 -58q0 -69 -41.5 -115.5t-95.5 -70.5z" />
    <glyph glyph-name="uni021B" unicode="&#x21b;" horiz-adv-x="383" 
d="M216 -5q-67 0 -106 35.5t-39 102.5q0 30 23 186l20 143h-76l11 75l80 24l57 136h82l-20 -140h138l-13 -95h-138l-21 -148q-22 -153 -22 -168q0 -50 52 -50q48 0 80 21l20 -96q-47 -26 -128 -26zM101 -335l-25 41q76 34 76 87q0 8 -3 15.5t-5.5 12.5t-11 11.5t-12 9
t-15 9.5t-14.5 9q1 30 20.5 50.5t50.5 20.5q36 0 56.5 -22t20.5 -58q0 -69 -42 -115.5t-96 -70.5z" />
    <glyph glyph-name="uni0237" unicode="&#x237;" horiz-adv-x="276" 
d="M-34 -215l-54 98q61 28 92 66.5t43 123.5l68 484h123l-68 -488q-31 -223 -204 -284z" />
    <glyph glyph-name="apostrophe" unicode="&#x2bc;" horiz-adv-x="211" 
d="M61 424l-38 57q101 42 101 104q0 47 -61 70v11q0 31 22 54t58 23q41 0 66 -28t25 -74q0 -74 -53 -135t-120 -82z" />
    <glyph glyph-name="circumflex" unicode="&#x2c6;" horiz-adv-x="515" 
d="M101 613l-43 73l219 126l198 -126l-46 -69l-160 84z" />
    <glyph glyph-name="caron" unicode="&#x2c7;" horiz-adv-x="515" 
d="M264 613l-198 126l46 69l160 -84l168 88l43 -73z" />
    <glyph glyph-name="breve" unicode="&#x2d8;" horiz-adv-x="515" 
d="M254 625q-76 0 -120 36t-58 80l91 47q3 -14 11.5 -29t31.5 -30t55 -15q81 0 118 74l77 -52q-58 -111 -206 -111z" />
    <glyph glyph-name="dotaccent" unicode="&#x2d9;" horiz-adv-x="515" 
d="M258 632q-29 0 -47.5 17.5t-18.5 46.5v11q4 35 27.5 56t56.5 21q31 0 49.5 -18t18.5 -50q0 -36 -24.5 -60t-61.5 -24z" />
    <glyph glyph-name="ring" unicode="&#x2da;" horiz-adv-x="515" 
d="M260 596q-54 0 -84.5 28.5t-30.5 74.5q0 57 37 94.5t100 37.5q53 0 84 -28.5t31 -74.5q0 -57 -37 -94.5t-100 -37.5zM263 655q30 0 48 18.5t18 50.5q0 48 -50 48q-30 0 -48 -18.5t-18 -50.5q0 -48 50 -48z" />
    <glyph glyph-name="ogonek" unicode="&#x2db;" horiz-adv-x="515" 
d="M246 -240q-60 0 -89 26t-29 69q0 40 22 77t57 63.5t63.5 43t57.5 28.5l34 -54q-137 -73 -137 -136q0 -38 48 -38q32 0 60 15l12 -74q-42 -20 -99 -20z" />
    <glyph glyph-name="tilde" unicode="&#x2dc;" horiz-adv-x="515" 
d="M345 641q-27 0 -74 19.5t-72 19.5q-47 0 -78 -34l-45 68q51 59 118 59q31 0 78 -19.5t68 -19.5q26 0 42 8t34 28l44 -69q-45 -60 -115 -60z" />
    <glyph glyph-name="hungarumlaut" unicode="&#x2dd;" horiz-adv-x="515" 
d="M70 604l-50 63l198 156l66 -76zM296 605l-41 72l217 121l50 -85z" />
    <glyph glyph-name="pi" unicode="&#x3c0;" horiz-adv-x="637" 
d="M132 -16l-92 66q32 37 46.5 70t24.5 105l32 230h-75l15 104h538l-14 -104h-75l-64 -455h-122l64 455h-146l-33 -234q-22 -160 -99 -237z" />
    <glyph glyph-name="Wgrave" unicode="&#x1e80;" horiz-adv-x="930" 
d="M516 768l-200 129l114 65l161 -143zM126 0l-81 701h128l37 -340q15 -136 11 -226h4q12 41 63 184l142 382h156l39 -383q11 -110 12 -182h4q28 100 70 211l136 354h131l-278 -701h-155l-37 363q-11 130 -12 204h-4q-30 -97 -62 -182l-148 -385h-156z" />
    <glyph glyph-name="wgrave" unicode="&#x1e81;" horiz-adv-x="783" 
d="M426 624l-200 129l114 65l161 -143zM93 0l-68 557h117l29 -276q8 -93 8 -175h4q15 55 60 170l111 281h128l29 -266q13 -109 12 -185h4q20 72 64 189l29 76q38 108 38 151q0 18 -3 35h112q4 -15 4 -34q0 -66 -44 -174l-141 -349h-149l-35 411h-4l-159 -411h-146z" />
    <glyph glyph-name="Wacute" unicode="&#x1e82;" horiz-adv-x="930" 
d="M517 768l-75 51l160 143l114 -65zM126 0l-81 701h128l37 -340q15 -136 11 -226h4q12 41 63 184l142 382h156l39 -383q11 -110 12 -182h4q28 100 70 211l136 354h131l-278 -701h-155l-37 363q-11 130 -12 204h-4q-30 -97 -62 -182l-148 -385h-156z" />
    <glyph glyph-name="wacute" unicode="&#x1e83;" horiz-adv-x="783" 
d="M427 624l-75 51l160 143l114 -65zM93 0l-68 557h117l29 -276q8 -93 8 -175h4q15 55 60 170l111 281h128l29 -266q13 -109 12 -185h4q20 72 64 189l29 76q38 108 38 151q0 18 -3 35h112q4 -15 4 -34q0 -66 -44 -174l-141 -349h-149l-35 411h-4l-159 -411h-146z" />
    <glyph glyph-name="Wdieresis" unicode="&#x1e84;" horiz-adv-x="930" 
d="M411 791q-27 0 -45 17.5t-18 43.5q0 33 20.5 54t53.5 21q28 0 45.5 -18t17.5 -46q0 -33 -21 -52.5t-53 -19.5zM640 791q-28 0 -46 17.5t-18 43.5q0 33 20.5 54t53.5 21q28 0 46 -18t18 -46q0 -33 -21 -52.5t-53 -19.5zM126 0l-81 701h128l37 -340q15 -136 11 -226h4
q12 41 63 184l142 382h156l39 -383q11 -110 12 -182h4q28 100 70 211l136 354h131l-278 -701h-155l-37 363q-11 130 -12 204h-4q-30 -97 -62 -182l-148 -385h-156z" />
    <glyph glyph-name="wdieresis" unicode="&#x1e85;" horiz-adv-x="783" 
d="M327 647q-27 0 -45 17.5t-18 43.5q0 33 20.5 54t53.5 21q28 0 45.5 -18t17.5 -46q0 -33 -21 -52.5t-53 -19.5zM556 647q-28 0 -46 17.5t-18 43.5q0 33 20.5 54t53.5 21q28 0 46 -18t18 -46q0 -33 -21 -52.5t-53 -19.5zM96 0l-68 557h117l29 -276q8 -93 8 -175h4
q15 55 60 170l111 281h128l29 -266q13 -109 12 -185h4q20 72 64 189l29 76q38 108 38 151q0 18 -3 35h112q4 -15 4 -34q0 -66 -44 -174l-141 -349h-149l-35 411h-4l-159 -411h-146z" />
    <glyph glyph-name="Ygrave" unicode="&#x1ef2;" horiz-adv-x="553" 
d="M316 768l-200 129l114 65l161 -143zM165 0l33 236l-169 465h133l111 -345h4l206 345h140l-300 -465l-33 -236h-125z" />
    <glyph glyph-name="ygrave" unicode="&#x1ef3;" horiz-adv-x="590" 
d="M327 624l-200 129l114 65l161 -143zM199 -210q-151 0 -217 70l81 92q20 -25 57.5 -42.5t82.5 -17.5q71 0 106.5 28.5t46.5 89.5l12 71h-4q-51 -65 -151 -65q-67 0 -104.5 38.5t-37.5 103.5q0 35 17 147t17 126q0 19 -8.5 26t-29.5 7h-29l13 87q26 14 74 14t76.5 -27.5
t28.5 -81.5q0 -23 -18 -134.5t-18 -134.5q0 -76 71 -76q51 0 83.5 34.5t40.5 94.5l44 317h123l-78 -543q-32 -224 -279 -224z" />
    <glyph glyph-name="endash" unicode="&#x2013;" horiz-adv-x="469" 
d="M-1 261l14 102h452l-14 -102h-452z" />
    <glyph glyph-name="emdash" unicode="&#x2014;" horiz-adv-x="746" 
d="M-4 261l14 102h728l-14 -102h-728z" />
    <glyph glyph-name="quoteleft" unicode="&#x2018;" horiz-adv-x="211" 
d="M220 735l38 -57q-101 -42 -101 -104q0 -47 61 -71v-11q0 -31 -22 -54t-58 -23q-41 0 -66 28.5t-25 74.5q0 73 53 134t120 83z" />
    <glyph glyph-name="quoteright" unicode="&#x2019;" horiz-adv-x="211" 
d="M59 424l-38 57q101 42 101 104q0 47 -61 71v11q0 31 22 54t58 23q41 0 66 -28.5t25 -74.5q0 -73 -53 -134t-120 -83z" />
    <glyph glyph-name="quotesinglbase" unicode="&#x201a;" horiz-adv-x="270" 
d="M12 -165l-38 57q101 42 101 104q0 47 -61 71v11q0 31 22 54t58 23q41 0 66 -28.5t25 -74.5q0 -73 -53 -134t-120 -83z" />
    <glyph glyph-name="quotedblleft" unicode="&#x201c;" horiz-adv-x="450" 
d="M220 735l38 -57q-101 -42 -101 -104q0 -47 61 -71v-11q0 -31 -22 -54t-58 -23q-41 0 -66 28.5t-25 74.5q0 73 53 134t120 83zM458 735l38 -57q-101 -42 -101 -104q0 -47 61 -71v-11q0 -31 -22 -54t-58 -23q-41 0 -66 28.5t-25 74.5q0 73 53 134t120 83z" />
    <glyph glyph-name="quotedblright" unicode="&#x201d;" horiz-adv-x="450" 
d="M59 424l-38 57q101 42 101 104q0 47 -61 71v11q0 31 22 54t58 23q41 0 66 -28.5t25 -74.5q0 -73 -53 -134t-120 -83zM298 424l-38 57q101 42 101 104q0 47 -61 71v11q0 31 22 54t58 23q41 0 66 -28.5t25 -74.5q0 -73 -53 -134t-120 -83z" />
    <glyph glyph-name="quotedblbase" unicode="&#x201e;" horiz-adv-x="509" 
d="M12 -165l-38 57q101 42 101 104q0 47 -61 71v11q0 31 22 54t58 23q41 0 66 -28.5t25 -74.5q0 -73 -53 -134t-120 -83zM251 -165l-38 57q101 42 101 104q0 47 -61 71v11q0 31 22 54t58 23q41 0 66 -28.5t25 -74.5q0 -73 -53 -134t-120 -83z" />
    <glyph glyph-name="dagger" unicode="&#x2020;" horiz-adv-x="518" 
d="M123 -164l100 619l-176 -12l16 116l173 -11l15 210h131l-44 -210l177 11l-16 -116l-173 12l-74 -619h-129z" />
    <glyph glyph-name="daggerdbl" unicode="&#x2021;" horiz-adv-x="518" 
d="M124 -164l44 210l-177 -11l16 116l170 -11l18 157l26 156l-172 -10l16 116l173 -11l15 210h131l-43 -210l177 11l-16 -116l-171 10l-18 -155l-25 -157l172 10l-17 -116l-172 11l-16 -210h-131z" />
    <glyph glyph-name="bullet" unicode="&#x2022;" horiz-adv-x="480" 
d="M234 222q-53 0 -88.5 34.5t-35.5 86.5q0 61 38.5 101t98.5 40q55 0 90.5 -35t35.5 -91q0 -61 -39.5 -98.5t-99.5 -37.5z" />
    <glyph glyph-name="ellipsis" unicode="&#x2026;" horiz-adv-x="873" 
d="M101 -7q-34 0 -56.5 22t-22.5 55q0 40 26 67t65 27q35 0 58 -23t23 -58q0 -40 -27 -65t-66 -25zM392 -7q-34 0 -56.5 22t-22.5 55q0 40 26 67t65 27q35 0 58 -23t23 -58q0 -40 -27 -65t-66 -25zM685 -7q-34 0 -56.5 22t-22.5 55q0 40 26 67t66 27q35 0 57.5 -23t22.5 -58
q0 -40 -27 -65t-66 -25z" />
    <glyph glyph-name="perthousand" unicode="&#x2030;" horiz-adv-x="1250" 
d="M217 326q-68 0 -106 37t-38 108q0 104 47.5 170t140.5 66q68 0 105.5 -36.5t37.5 -107.5q0 -104 -47 -170.5t-140 -66.5zM153 26l-53 58l635 595l53 -58zM223 399q91 0 91 169q0 67 -58 67q-92 0 -92 -170q0 -66 59 -66zM616 -9q-68 0 -106 37t-38 108q0 104 47.5 170
t140.5 66q68 0 106 -37t38 -108q0 -103 -47.5 -169.5t-140.5 -66.5zM994 -9q-68 0 -106 37t-38 108q0 104 47.5 170t140.5 66q68 0 105.5 -37t37.5 -108q0 -103 -47 -169.5t-140 -66.5zM623 63q43 0 66.5 43t23.5 126q0 68 -58 68q-92 0 -92 -170q0 -67 60 -67zM1000 63
q90 0 91 169q0 68 -58 68q-92 0 -92 -170q0 -67 59 -67z" />
    <glyph glyph-name="guilsinglleft" unicode="&#x2039;" horiz-adv-x="337" 
d="M188 50l-150 237l208 226l65 -56l-146 -182l97 -181z" />
    <glyph glyph-name="guilsinglright" unicode="&#x203a;" horiz-adv-x="329" 
d="M84 50l-66 57l147 181l-98 182l74 43l151 -236z" />
    <glyph glyph-name="fraction" unicode="&#x2044;" horiz-adv-x="217" 
d="M-187 6l-52 46l643 646l51 -47z" />
    <glyph glyph-name="uni20A8" unicode="&#x20a8;" horiz-adv-x="1060" 
d="M37 0l98 701h203q103 0 160 -45.5t57 -132.5q0 -107 -51 -159t-126 -62v-4q22 -13 37.5 -34.5t34.5 -64.5l85 -199h-134l-91 227q-18 45 -76 45h-36l-38 -272h-123zM212 374h71q144 0 144 141q0 81 -107 81h-77zM786 -9q-76 0 -134 28t-80 56l75 84q19 -26 60 -48t92 -22
q45 0 65.5 19t20.5 44q0 21 -14 36t-52 32l-66 31q-109 49 -109 145q0 75 58 123t157 48q67 0 113.5 -20.5t70.5 -49.5l-78 -84q-17 22 -48 37.5t-69 15.5q-40 0 -61 -17.5t-21 -44.5q0 -23 15 -39t54 -32l54 -25q58 -26 88 -60t30 -86q0 -68 -54 -119.5t-167 -51.5z" />
    <glyph glyph-name="Euro" unicode="&#x20ac;" horiz-adv-x="629" 
d="M366 -10q-120 0 -183.5 63.5t-72.5 173.5h-83l13 89h71q2 42 5 61h-67l12 89h73q34 113 109 178.5t190 65.5q53 0 94 -10t65 -26.5t36.5 -30.5t19.5 -28l-95 -71q-14 25 -46 42t-79 17q-119 0 -167 -137h221l-38 -89h-206q-6 -37 -7 -61h189l-34 -89h-150
q15 -129 142 -129q82 0 130 55l68 -91q-79 -72 -210 -72z" />
    <glyph glyph-name="uni20B9" unicode="&#x20b9;" horiz-adv-x="541" 
d="M213 0l-77 126q-53 89 -123 126l17 96q33 -9 75 -9q137 0 172 101q-84 -4 -190 -4h-46l12 88h49q127 0 187 -4q-9 42 -40 61.5t-98 19.5h-87l12 88h496l-12 -88h-197v-4q36 -28 44 -73h142l-12 -88h-135q-20 -84 -86.5 -129t-144.5 -43l-1 -4q48 -32 103 -120l88 -140
h-148z" />
    <glyph glyph-name="trademark" unicode="&#x2122;" horiz-adv-x="646" 
d="M113 423l31 222h-83l7 56h231l-7 -56h-78l-32 -222h-69zM288 423l38 278h92l38 -182l85 182h95l-39 -278h-65l16 111l17 94h-4l-86 -176h-57l-36 178h-4l-10 -88l-16 -119h-64z" />
    <glyph glyph-name="uni2126" unicode="&#x2126;" horiz-adv-x="772" 
d="M11 0l14 106l153 -6v4q-100 57 -100 210q0 173 95.5 284t259.5 111q130 0 202 -71t72 -202q0 -93 -27 -164t-64.5 -109.5t-86.5 -59.5v-4l155 7l-14 -106h-281l16 119q171 56 171 315q0 173 -155 173q-73 0 -123 -47.5t-71 -116.5t-21 -154q0 -134 103 -170l-16 -119
h-282z" />
    <glyph glyph-name="estimated" unicode="&#x212e;" horiz-adv-x="659" 
d="M290 -10q-130 0 -198 76.5t-56 197.5q12 130 105 217t228 87q117 0 182 -68.5t53 -185.5q-3 -29 -9 -53h-400l-23 -162q46 -41 131 -41q134 0 209 101l52 -36q-98 -133 -274 -133zM204 323h255l19 144q-37 37 -115 37q-85 0 -140 -45z" />
    <glyph glyph-name="partialdiff" unicode="&#x2202;" horiz-adv-x="563" 
d="M230 -6q-93 0 -146.5 54t-53.5 141q0 124 70.5 192t171.5 68q52 0 97 -17l3 2q-15 78 -76.5 145t-146.5 113l1 9h165q76 -49 128.5 -153t52.5 -216q0 -71 -13 -128.5t-42 -106.5t-82.5 -76t-128.5 -27zM243 94q63 0 94 45t41 132q3 24 3 60q-42 22 -97 22
q-63 0 -98.5 -39.5t-35.5 -120.5q0 -48 25 -73.5t68 -25.5z" />
    <glyph glyph-name="uni2206" unicode="&#x2206;" horiz-adv-x="660" 
d="M14 0l-41 79l356 622h110l174 -625l-57 -76h-542zM105 104h388l-36 111l-51 181l-37 169h-4l-87 -169l-104 -182z" />
    <glyph glyph-name="product" unicode="&#x220f;" horiz-adv-x="686" 
d="M106 -160l-97 53q31 36 46 71t25 107l89 630h445l-120 -853h-120l105 750h-204l-74 -526q-22 -161 -95 -232z" />
    <glyph glyph-name="summation" unicode="&#x2211;" horiz-adv-x="534" 
d="M18 -170l-32 74l230 362l-128 362l53 73h392l-14 -102h-196l-106 4v-4l39 -102l79 -231l-145 -233l-67 -102v-4l111 4h199l-15 -101h-400z" />
    <glyph glyph-name="minus" unicode="&#x2212;" horiz-adv-x="549" 
d="M23 296l14 99h484l-15 -99h-483z" />
    <glyph glyph-name="uni2215" unicode="&#x2215;" horiz-adv-x="246" 
d="M-169 6l-52 46l642 646l51 -47z" />
    <glyph glyph-name="uni2219" unicode="&#x2219;" horiz-adv-x="296" 
d="M138 261q-34 0 -56.5 22t-22.5 55q0 40 26 67t65 27q35 0 58 -23t23 -58q0 -40 -27 -65t-66 -25z" />
    <glyph glyph-name="radical" unicode="&#x221a;" horiz-adv-x="696" 
d="M242 -160l-125 547h-111l24 92h177l75 -330q11 -49 18.5 -95t11 -73t4.5 -30h4q1 2 16 48.5t43 121.5t65 162l281 661h113l-467 -1104h-129z" />
    <glyph glyph-name="infinity" unicode="&#x221e;" horiz-adv-x="836" 
d="M211 171q-75 0 -119 45t-44 111q0 81 57 133.5t138 52.5q62 0 102 -26t80 -77q97 106 204 106q77 0 119 -42.5t42 -112.5q0 -84 -55.5 -136t-143.5 -52q-97 0 -179 101q-30 -31 -52 -49.5t-63 -36t-86 -17.5zM596 265q40 0 65 24t25 67q0 30 -19 49.5t-52 19.5
q-61 0 -134 -84q48 -76 115 -76zM223 260q65 0 133 85q-56 77 -110 77q-40 0 -67.5 -25t-27.5 -66q0 -32 19 -51.5t53 -19.5z" />
    <glyph glyph-name="integral" unicode="&#x222b;" horiz-adv-x="460" 
d="M-21 -198q-71 0 -116 28l61 92q27 -16 60 -16q44 0 71 22.5t41 74.5l189 702q54 201 238 201q69 0 118 -28l-62 -92q-27 16 -60 16q-45 0 -72 -22.5t-41 -73.5l-189 -704q-54 -200 -238 -200z" />
    <glyph glyph-name="approxequal" unicode="&#x2248;" horiz-adv-x="604" 
d="M129 363l-89 17q15 69 60.5 107t111.5 38q42 0 112 -28q74 -31 108 -31q26 0 42 13.5t28 49.5l91 -16q-33 -145 -162 -145q-54 0 -124 31q-68 28 -101 28q-56 0 -77 -64zM100 158l-90 18q15 69 60.5 107t111.5 38q42 0 112 -28q77 -32 108 -32q26 0 42 14t28 50l91 -16
q-33 -146 -162 -146q-50 0 -124 32q-68 28 -101 28q-56 0 -76 -65z" />
    <glyph glyph-name="notequal" unicode="&#x2260;" horiz-adv-x="558" 
d="M529 409h-169l-66 -127h218l-15 -100h-255l-53 -103h-91l54 103h-138l14 100h176l66 127h-224l14 100h262l51 98h90l-51 -98h131z" />
    <glyph glyph-name="lessequal" unicode="&#x2264;" horiz-adv-x="558" 
d="M492 113l-453 212l13 96l513 213l-17 -129l-210 -82l-156 -51l-1 -4l141 -54l187 -84zM-6 8l14 100h483l-13 -100h-484z" />
    <glyph glyph-name="greaterequal" unicode="&#x2265;" horiz-adv-x="558" 
d="M14 113l17 129l210 81l159 52l1 4l-144 54l-187 83l17 118l454 -212l-13 -96zM0 8l13 100h484l-14 -100h-483z" />
    <glyph glyph-name="lozenge" unicode="&#x25ca;" horiz-adv-x="568" 
d="M179 0l-156 350l255 351h114l157 -351l-255 -350h-115zM249 115h4l79 116l88 121l-53 119l-46 114h-4l-77 -115l-88 -121l53 -119z" />
    <glyph glyph-name="four.superior" horiz-adv-x="373" 
d="M223 380l12 89h-190l-8 65l225 264h106l-36 -258h52l-10 -71h-52l-12 -89h-87zM136 540h109l12 83q3 24 7.5 46t7.5 33l3 10h-2q-20 -31 -52 -71z" />
    <glyph glyph-name="f_f" horiz-adv-x="676" 
d="M647 676q-67 0 -76 -66l-7 -53h130l-13 -88h-132l-92 -663h-119l91 663h-187l-91 -663h-120l92 663h-86l13 88h87l8 48q24 171 246 171q83 0 151 -24q47 25 113 25q52 0 88 -12l-33 -99q-35 10 -63 10zM444 557l8 56q4 29 15 55q-36 9 -84 9q-61 0 -87 -18.5t-32 -57.5
l-7 -44h187z" />
    <glyph glyph-name="f_f_i" horiz-adv-x="927" 
d="M814 130q0 -18 8.5 -25.5t28.5 -7.5h23l-13 -87q-24 -14 -67 -14q-48 0 -76.5 27.5t-28.5 81.5q0 29 19 160l29 204h-188l-92 -663h-119l91 663h-187l-91 -663h-120l92 663h-86l13 88h87l8 48q24 171 246 171q89 0 160 -27q59 27 147 27q117 0 178 -28l-33 -95
q-72 24 -152 24q-61 0 -88 -18.5t-33 -57.5l-6 -44h308l-41 -292q-17 -121 -17 -135zM444 557l7 48q5 35 18 63q-45 9 -86 9q-61 0 -87 -18.5t-32 -57.5l-7 -44h187z" />
    <glyph glyph-name="f_f_l" horiz-adv-x="938" 
d="M816 150q-4 -28 6 -39.5t35 -11.5q16 0 28 3l-14 -97q-27 -12 -66 -12q-63 0 -93.5 36t-22.5 99q6 53 19 137l57 405q-37 7 -73 7q-61 0 -88.5 -18.5t-33.5 -57.5l-6 -44h106l-12 -88h-109l-92 -663h-119l91 663h-187l-91 -663h-120l92 663h-86l13 88h87l8 48
q24 171 246 171q89 0 160 -27q59 27 147 27q122 0 200 -40l-67 -471q-6 -37 -15 -115zM444 557l7 48q5 35 18 63q-45 9 -86 9q-61 0 -87 -18.5t-32 -57.5l-7 -44h187z" />
    <glyph glyph-name="a.ss01" 
d="M209 -10q-79 0 -124 51.5t-45 151.5q0 162 81 265.5t229 103.5q123 0 180 -31l-46 -316q-15 -105 -13 -215h-112q-3 33 -3 65h-4q-50 -75 -143 -75zM246 90q38 0 69 19.5t47 48.5l42 297q-22 9 -60 9q-80 0 -130.5 -69.5t-50.5 -196.5q0 -60 21.5 -84t61.5 -24z" />
    <glyph glyph-name="aacute.ss01" 
d="M368 624l-75 51l160 143l114 -65zM209 -10q-79 0 -124 51.5t-45 151.5q0 162 81 265.5t229 103.5q123 0 180 -31l-46 -316q-15 -105 -13 -215h-112q-3 33 -3 65h-4q-50 -75 -143 -75zM246 90q38 0 69 19.5t47 48.5l42 297q-22 9 -60 9q-80 0 -130.5 -69.5t-50.5 -196.5
q0 -60 21.5 -84t61.5 -24z" />
    <glyph glyph-name="abreve.ss01" 
d="M362 625q-76 0 -120 36t-58 80l91 47q3 -14 11.5 -29t31.5 -30t55 -15q81 0 118 74l77 -52q-58 -111 -206 -111zM208 -10q-79 0 -124 51.5t-45 151.5q0 162 81 265.5t229 103.5q123 0 180 -31l-46 -316q-15 -105 -13 -215h-112q-3 33 -3 65h-4q-50 -75 -143 -75zM245 90
q38 0 69 19.5t47 48.5l42 297q-22 9 -60 9q-80 0 -130.5 -69.5t-50.5 -196.5q0 -60 21.5 -84t61.5 -24z" />
    <glyph glyph-name="acircumflex.ss01" 
d="M206 613l-43 73l219 126l198 -126l-46 -69l-160 84zM209 -10q-79 0 -124 51.5t-45 151.5q0 162 81 265.5t229 103.5q123 0 180 -31l-46 -316q-15 -105 -13 -215h-112q-3 33 -3 65h-4q-50 -75 -143 -75zM246 90q38 0 69 19.5t47 48.5l42 297q-22 9 -60 9
q-80 0 -130.5 -69.5t-50.5 -196.5q0 -60 21.5 -84t61.5 -24z" />
    <glyph glyph-name="adieresis.ss01" 
d="M257 647q-27 0 -45 17.5t-18 43.5q0 33 20.5 54t53.5 21q28 0 45.5 -18t17.5 -46q0 -33 -21 -52.5t-53 -19.5zM486 647q-28 0 -46 17.5t-18 43.5q0 33 20.5 54t53.5 21q28 0 46 -18t18 -46q0 -33 -21 -52.5t-53 -19.5zM209 -10q-79 0 -124 51.5t-45 151.5q0 162 81 265.5
t229 103.5q123 0 180 -31l-46 -316q-15 -105 -13 -215h-112q-3 33 -3 65h-4q-50 -75 -143 -75zM246 90q38 0 69 19.5t47 48.5l42 297q-22 9 -60 9q-80 0 -130.5 -69.5t-50.5 -196.5q0 -60 21.5 -84t61.5 -24z" />
    <glyph glyph-name="agrave.ss01" 
d="M387 624l-200 129l114 65l161 -143zM209 -10q-79 0 -124 51.5t-45 151.5q0 162 81 265.5t229 103.5q123 0 180 -31l-46 -316q-15 -105 -13 -215h-112q-3 33 -3 65h-4q-50 -75 -143 -75zM246 90q38 0 69 19.5t47 48.5l42 297q-22 9 -60 9q-80 0 -130.5 -69.5t-50.5 -196.5
q0 -60 21.5 -84t61.5 -24z" />
    <glyph glyph-name="amacron.ss01" 
d="M171 656l15 103h354l-15 -103h-354zM206 -10q-79 0 -124 51.5t-45 151.5q0 162 81 265.5t229 103.5q123 0 180 -31l-46 -316q-15 -105 -13 -215h-112q-3 33 -3 65h-4q-50 -75 -143 -75zM243 90q38 0 69 19.5t47 48.5l42 297q-23 9 -60 9q-80 0 -130.5 -69.5t-50.5 -196.5
q0 -60 21.5 -84t61.5 -24z" />
    <glyph glyph-name="aogonek.ss01" 
d="M530 531l-46 -316q-15 -105 -13 -215q-131 -71 -131 -130q0 -39 51 -39q23 0 57 15l11 -75q-44 -21 -98 -21q-60 0 -89.5 28.5t-29.5 73.5q0 95 116 165q-2 34 -2 48h-4q-50 -75 -143 -75q-79 0 -124 51.5t-45 151.5q0 162 81 265.5t229 103.5q123 0 180 -31zM246 90
q38 0 69 19.5t47 48.5l42 297q-22 9 -60 9q-80 0 -130.5 -69.5t-50.5 -196.5q0 -60 21.5 -84t61.5 -24z" />
    <glyph glyph-name="aring.ss01" 
d="M357 596q-54 0 -84.5 28.5t-30.5 74.5q0 57 37 94.5t100 37.5q53 0 84 -28.5t31 -74.5q0 -57 -37 -94.5t-100 -37.5zM360 655q30 0 48 18.5t18 50.5q0 48 -50 48q-30 0 -48 -18.5t-18 -50.5q0 -48 50 -48zM209 -10q-79 0 -124 51.5t-45 151.5q0 162 81 265.5t229 103.5
q123 0 180 -31l-46 -316q-15 -105 -13 -215h-112q-3 33 -3 65h-4q-50 -75 -143 -75zM246 90q38 0 69 19.5t47 48.5l42 297q-22 9 -60 9q-80 0 -130.5 -69.5t-50.5 -196.5q0 -60 21.5 -84t61.5 -24z" />
    <glyph glyph-name="atilde.ss01" 
d="M452 641q-28 0 -75 19.5t-71 19.5q-47 0 -78 -34l-45 68q51 59 118 59q31 0 78 -19.5t68 -19.5q26 0 42 8t34 28l44 -69q-45 -60 -115 -60zM209 -10q-79 0 -124 51.5t-45 151.5q0 162 81 265.5t229 103.5q123 0 180 -31l-46 -316q-15 -105 -13 -215h-112q-3 33 -3 65h-4
q-50 -75 -143 -75zM246 90q38 0 69 19.5t47 48.5l42 297q-22 9 -60 9q-80 0 -130.5 -69.5t-50.5 -196.5q0 -60 21.5 -84t61.5 -24z" />
    <glyph glyph-name="one.superior" horiz-adv-x="317" 
d="M148 380l31 226q4 32 9.5 59t8.5 37l3 11h-4q-15 -15 -60 -40l-53 -30l-37 72l160 83h94l-58 -418h-94z" />
    <glyph glyph-name="two.superior" horiz-adv-x="377" 
d="M48 379l-7 67q5 4 45.5 36.5t72.5 59.5t58 53q60 57 60 98t-41 41q-23 0 -40 -17.5t-22 -41.5l-91 17q15 49 55 79.5t107 30.5q59 0 92 -29t33 -73q0 -72 -82 -146q-38 -35 -133 -107q3 0 14.5 0.5t30.5 1t39 0.5h106l-10 -70h-287z" />
    <glyph glyph-name="three.superior" horiz-adv-x="373" 
d="M167 374q-55 0 -87.5 23.5t-42.5 58.5l82 36q14 -50 68 -50q72 0 72 68q0 48 -73 48h-38l9 65h34q79 0 79 70q0 43 -48 43q-45 0 -57 -51l-89 11q11 48 52.5 78t104.5 30q62 0 95 -25.5t33 -71.5q0 -79 -75 -111q28 -3 45 -22.5t17 -54.5q0 -69 -49.5 -107t-131.5 -38z
" />
    </font>
</defs>
</svg>
