<svg xmlns="http://www.w3.org/2000/svg" viewBox="0 0 29.39 29.41"><defs><style>.cls-1{fill:#ef7d04;}.cls-2{fill:#fff;}</style></defs><title>Element 33</title><g id="Ebene_2" data-name="Ebene 2"><g id="Ebene_1-2" data-name="Ebene 1"><path class="cls-1" d="M29.38,3.9a4.44,4.44,0,0,0,0-.63,3.67,3.67,0,0,0-.74-1.73A3.86,3.86,0,0,0,25.4,0H4A3.65,3.65,0,0,0,3.1.09,3.8,3.8,0,0,0,.3,2.38,3.8,3.8,0,0,0,0,3.91V25.48a3.56,3.56,0,0,0,.05.65,3.79,3.79,0,0,0,1.54,2.53A3.9,3.9,0,0,0,4,29.41H24.63l1.05,0a3.43,3.43,0,0,0,.95-.15,3.91,3.91,0,0,0,2.76-3.73Q29.38,14.71,29.38,3.9ZM1.75,7.17h26v1h-26Zm18.63,9.2A2.87,2.87,0,0,1,18.25,18c-.3.06-.61.08-.91.11v0a3.31,3.31,0,0,1-1.61-.31,2.89,2.89,0,0,1-1.64-2.12,3.42,3.42,0,0,1,.17-2,2.89,2.89,0,0,1,2.16-1.81,4.25,4.25,0,0,1,2.37.15,2.77,2.77,0,0,1,1.8,2.19A3.46,3.46,0,0,1,20.38,16.37ZM12.93,9.76c0,1.35,0,2.7,0,4.05v4c0,.13,0,.13-.13.13h-2c-.09,0-.12,0-.12-.12V9.76c0-.09,0-.12.12-.12h2C12.9,9.64,12.93,9.67,12.93,9.76ZM8.64,13.87a1.8,1.8,0,0,1,.84,1.32,2.47,2.47,0,0,1-.23,1.54A2,2,0,0,1,7.7,17.85,10.63,10.63,0,0,1,5.83,18H2.27c-.13,0-.13,0-.13-.13V9.78c0-.13,0-.13.13-.13H7a2.17,2.17,0,0,1,1.47.53A2,2,0,0,1,9.12,12,1.78,1.78,0,0,1,8,13.53s0,0,0,0C8.17,13.65,8.42,13.74,8.64,13.87Zm12,6.09v.5H1.75v-1H20.68Zm7-1.13a2.21,2.21,0,0,1-1.71,1.48,4.36,4.36,0,0,1-1.08.12c-.32,0-.65,0-1,0A3,3,0,0,1,22.39,20a1.62,1.62,0,0,1-.78-1.21,4,4,0,0,1,0-.6c0-.07,0-.09.09-.08l.57.06.92.11.53.07s.06,0,.07.07a.75.75,0,0,0,.78.54c.12,0,.25,0,.37,0a.73.73,0,0,0,.57-.65,3,3,0,0,0,0-.43c0-.29,0-.59,0-.91l-.19.2a2,2,0,0,1-1.42.61,2.25,2.25,0,0,1-2.24-1.51,3.67,3.67,0,0,1-.25-1.31,4.79,4.79,0,0,1,.12-1.36,2.27,2.27,0,0,1,1.36-1.63,2.13,2.13,0,0,1,.75-.15,2.91,2.91,0,0,1,1,.12,2.1,2.1,0,0,1,1,.76l.07.09s0-.07,0-.1V12c0-.06,0-.09.08-.09h1.94c.06,0,.09,0,.08.09v.11c0,1.86,0,3.71,0,5.57A3.07,3.07,0,0,1,27.63,18.83Z"/><path class="cls-2" d="M9.12,12a2,2,0,0,0-.66-1.82A2.17,2.17,0,0,0,7,9.65H2.27c-.13,0-.13,0-.13.13v8.08c0,.13,0,.13.13.13H5.83a10.63,10.63,0,0,0,1.87-.14,2,2,0,0,0,1.55-1.12,2.47,2.47,0,0,0,.23-1.54,1.8,1.8,0,0,0-.84-1.32c-.22-.13-.47-.22-.7-.33,0,0,0,0,0,0A1.78,1.78,0,0,0,9.12,12Zm-4.48-.53c0-.07,0-.1.1-.09.4,0,.8,0,1.2,0a.77.77,0,0,1,.65.31.93.93,0,0,1,0,.94.67.67,0,0,1-.49.25l-.61,0H4.75c-.09,0-.11,0-.11-.11s0-.44,0-.67S4.65,11.7,4.64,11.47ZM7,15.55a.67.67,0,0,1-.54.54,3.72,3.72,0,0,1-.66.08h-1c-.09,0-.11,0-.11-.11s0-.47,0-.71,0-.48,0-.72c0-.08,0-.1.1-.1H6.13a.93.93,0,0,1,.64.21A.78.78,0,0,1,7,15.55Z"/><path class="cls-2" d="M27.79,12c0-.06,0-.09-.08-.09H25.77c-.06,0-.08,0-.08.09v.64s0,.05,0,.1l-.07-.09a2.1,2.1,0,0,0-1-.76,2.91,2.91,0,0,0-1-.12,2.13,2.13,0,0,0-.75.15,2.27,2.27,0,0,0-1.36,1.63,4.79,4.79,0,0,0-.12,1.36,3.67,3.67,0,0,0,.25,1.31,2.25,2.25,0,0,0,2.24,1.51,2,2,0,0,0,1.42-.61l.19-.2c0,.32,0,.62,0,.91a3,3,0,0,1,0,.43.73.73,0,0,1-.57.65c-.12,0-.25,0-.37,0a.75.75,0,0,1-.78-.54s-.05-.07-.07-.07l-.53-.07-.92-.11-.57-.06c-.07,0-.1,0-.09.08a4,4,0,0,0,0,.6A1.62,1.62,0,0,0,22.39,20a3,3,0,0,0,1.47.41c.33,0,.66,0,1,0a4.36,4.36,0,0,0,1.08-.12,2.21,2.21,0,0,0,1.71-1.48,3.07,3.07,0,0,0,.17-1.13c0-1.86,0-3.71,0-5.57Zm-2.36,3.56a.9.9,0,0,1-1,.57.85.85,0,0,1-.74-.66,2.53,2.53,0,0,1,0-1.39.84.84,0,0,1,1.46-.3,1.29,1.29,0,0,1,.31.74c0,.11,0,.21,0,.26A2.1,2.1,0,0,1,25.43,15.58Z"/><path class="cls-2" d="M18.79,12a4.25,4.25,0,0,0-2.37-.15,2.89,2.89,0,0,0-2.16,1.81,3.42,3.42,0,0,0-.17,2,2.89,2.89,0,0,0,1.64,2.12,3.31,3.31,0,0,0,1.61.31v0c.3,0,.61,0,.91-.11a2.87,2.87,0,0,0,2.13-1.67,3.46,3.46,0,0,0,.21-2.15A2.77,2.77,0,0,0,18.79,12Zm-.5,3.79a1,1,0,0,1-1.86.1,2.07,2.07,0,0,1-.15-1,2.08,2.08,0,0,1,.15-.91,1,1,0,0,1,.68-.6,1,1,0,0,1,1.15.59,2.13,2.13,0,0,1,.15.75A2.78,2.78,0,0,1,18.29,15.82Z"/><path class="cls-2" d="M27.79,7.17h-26v1h26Z"/><path class="cls-2" d="M1.75,20.46H20.68v-1H1.75Z"/><path class="cls-2" d="M10.8,9.64c-.1,0-.12,0-.12.12v8.11c0,.1,0,.12.12.12h2c.13,0,.13,0,.13-.13v-4c0-1.35,0-2.7,0-4.05,0-.09,0-.12-.12-.12Z"/><path class="cls-1" d="M6.13,14.54H4.74c-.07,0-.1,0-.1.1,0,.24,0,.48,0,.72s0,.48,0,.71,0,.12.11.11h1a3.72,3.72,0,0,0,.66-.08A.67.67,0,0,0,7,15.55a.78.78,0,0,0-.22-.8A.93.93,0,0,0,6.13,14.54Z"/><path class="cls-1" d="M4.75,12.92h.71l.61,0a.67.67,0,0,0,.49-.25.93.93,0,0,0,0-.94.77.77,0,0,0-.65-.31c-.4,0-.8,0-1.2,0-.08,0-.1,0-.1.09,0,.23,0,.45,0,.67s0,.45,0,.67S4.66,12.92,4.75,12.92Z"/><path class="cls-1" d="M25.22,13.8a.84.84,0,0,0-1.46.3,2.53,2.53,0,0,0,0,1.39.85.85,0,0,0,.74.66.9.9,0,0,0,1-.57,2.1,2.1,0,0,0,.12-.78c0-.05,0-.15,0-.26A1.29,1.29,0,0,0,25.22,13.8Z"/><path class="cls-1" d="M18.26,14a1,1,0,0,0-1.15-.59,1,1,0,0,0-.68.6,2.08,2.08,0,0,0-.15.91,2.07,2.07,0,0,0,.15,1,1,1,0,0,0,1.86-.1,2.78,2.78,0,0,0,.12-1A2.13,2.13,0,0,0,18.26,14Z"/></g></g></svg>