<svg xmlns="http://www.w3.org/2000/svg" viewBox="0 0 30.19 30.19"><defs><style>.cls-1{fill:#396eb5;}.cls-2{fill:#fff;}</style></defs><title>Element 34</title><g id="Ebene_2" data-name="Ebene 2"><g id="Ebene_1-2" data-name="Ebene 1"><path class="cls-1" d="M30.19,15.09A15.1,15.1,0,1,0,12.73,30V19.46H8.9V15.09h3.83V11.77C12.73,8,15,5.9,18.44,5.9a23.41,23.41,0,0,1,3.37.29V9.9h-1.9a2.19,2.19,0,0,0-2.46,2.36v2.83h4.19L21,19.46H17.45V30A15.09,15.09,0,0,0,30.19,15.09Z"/><path class="cls-2" d="M21,19.46l.67-4.37H17.45V12.26A2.19,2.19,0,0,1,19.91,9.9h1.9V6.19a23.41,23.41,0,0,0-3.37-.29C15,5.9,12.73,8,12.73,11.77v3.32H8.9v4.37h3.83V30a14.75,14.75,0,0,0,4.72,0V19.46Z"/></g></g></svg>