<svg xmlns="http://www.w3.org/2000/svg" viewBox="0 0 33.67 23.72"><defs><style>.cls-1{fill:#e52521;}.cls-2{fill:#fff;}</style></defs><title>Element 35</title><g id="Ebene_2" data-name="Ebene 2"><g id="Ebene_1-2" data-name="Ebene 1"><path class="cls-1" d="M33,3.7a4.21,4.21,0,0,0-3-3C27.36,0,16.83,0,16.83,0S6.31,0,3.68.71a4.24,4.24,0,0,0-3,3A44.67,44.67,0,0,0,0,11.86,44.67,44.67,0,0,0,.7,20a4.24,4.24,0,0,0,3,3c2.63.71,13.15.71,13.15.71S27.36,23.72,30,23a4.21,4.21,0,0,0,3-3,44.06,44.06,0,0,0,.71-8.16A44.06,44.06,0,0,0,33,3.7Z"/><polygon class="cls-2" points="13.39 16.87 22.19 11.86 13.39 6.85 13.39 16.87"/></g></g></svg>