<svg xmlns="http://www.w3.org/2000/svg" viewBox="0 0 33.45 33.45"><defs><style>.cls-1{fill:#ffffff;fill-rule:evenodd;}</style></defs><title>Element 14</title><g id="Ebene_2" data-name="Ebene 2"><g id="Ebene_1-2" data-name="Ebene 1"><path class="cls-1" d="M16.72,33.45A16.73,16.73,0,1,1,33.45,16.72,16.73,16.73,0,0,1,16.72,33.45Zm0-31.36A14.61,14.61,0,0,0,6.57,27.23,15,15,0,0,1,9,24.11a30.8,30.8,0,0,1,2.82-2.44,9.78,9.78,0,0,1-2.37-6.51c0-4.91,3.27-8.89,7.31-8.89s7.32,4,7.32,8.89a9.78,9.78,0,0,1-2.37,6.51,32.19,32.19,0,0,1,2.82,2.44,15,15,0,0,1,2.39,3.12A14.61,14.61,0,0,0,16.72,2.09Z"/></g></g></svg>