<svg xmlns="http://www.w3.org/2000/svg" width="176.525" height="38.063" viewBox="0 0 176.525 38.063">
  <g id="Gruppe_12522" data-name="Gruppe 12522" transform="translate(-1110.111 -1089.237)">
    <path id="Pfad_13495" data-name="Pfad 13495" d="M1110.111,1141.237h3.266v5.995h.043a3.92,3.92,0,0,1,1.289-1.074,3.666,3.666,0,0,1,1.7-.408c2.084,0,3.674,1.44,3.674,4.6v6.145h-3.266v-5.78c0-1.375-.473-2.32-1.7-2.32a1.737,1.737,0,0,0-1.633,1.139,2.078,2.078,0,0,0-.107.73v6.231h-3.266Z" transform="translate(0 -33.684)" fill="#fff"/>
    <path id="Pfad_13496" data-name="Pfad 13496" d="M1150.566,1164.792l-.193-1.053h-.064a3.785,3.785,0,0,1-3.008,1.289,3.221,3.221,0,0,1-3.4-3.223c0-2.729,2.45-4.04,6.167-4.018v-.15c0-.559-.3-1.354-1.912-1.354a5.913,5.913,0,0,0-2.9.795l-.6-2.106a8.672,8.672,0,0,1,4.082-.924c3.5,0,4.62,2.063,4.62,4.534v3.653a16.335,16.335,0,0,0,.15,2.557Zm-.387-4.964c-1.719-.021-3.051.387-3.051,1.655a1.173,1.173,0,0,0,1.289,1.246,1.784,1.784,0,0,0,1.7-1.2,2.338,2.338,0,0,0,.064-.559Z" transform="translate(-21.891 -41.983)" fill="#fff"/>
    <path id="Pfad_13497" data-name="Pfad 13497" d="M1187.892,1161.853c0,1.375.043,2.492.086,3.373h-2.837l-.15-1.483h-.064a3.747,3.747,0,0,1-3.287,1.719c-2.128,0-3.7-1.332-3.7-4.576v-6.167h3.288v5.651c0,1.526.494,2.45,1.633,2.45a1.758,1.758,0,0,0,1.633-1.139,1.822,1.822,0,0,0,.107-.709v-6.253h3.287Z" transform="translate(-43.94 -42.418)" fill="#fff"/>
    <path id="Pfad_13498" data-name="Pfad 13498" d="M1212.5,1161.934a6.384,6.384,0,0,0,2.815.795c.988,0,1.4-.344,1.4-.881s-.322-.795-1.547-1.2c-2.17-.731-3.008-1.912-2.987-3.158,0-1.956,1.676-3.438,4.276-3.438a7.046,7.046,0,0,1,2.965.6l-.58,2.256a5.157,5.157,0,0,0-2.277-.6c-.795,0-1.246.322-1.246.859,0,.494.408.752,1.7,1.2,2,.688,2.837,1.7,2.858,3.244,0,1.956-1.547,3.4-4.555,3.4a7.44,7.44,0,0,1-3.4-.731Z" transform="translate(-65.949 -41.983)" fill="#fff"/>
    <path id="Pfad_13499" data-name="Pfad 13499" d="M1240.1,1141.237h3.266v5.995h.043a3.92,3.92,0,0,1,1.289-1.074,3.667,3.667,0,0,1,1.7-.408c2.084,0,3.674,1.44,3.674,4.6v6.145h-3.266v-5.78c0-1.375-.473-2.32-1.7-2.32a1.738,1.738,0,0,0-1.633,1.139,2.083,2.083,0,0,0-.107.73v6.231H1240.1Z" transform="translate(-84.205 -33.684)" fill="#fff"/>
    <path id="Pfad_13500" data-name="Pfad 13500" d="M1280.557,1164.792l-.193-1.053h-.064a3.785,3.785,0,0,1-3.008,1.289,3.22,3.22,0,0,1-3.395-3.223c0-2.729,2.449-4.04,6.167-4.018v-.15c0-.559-.3-1.354-1.912-1.354a5.913,5.913,0,0,0-2.9.795l-.6-2.106a8.673,8.673,0,0,1,4.083-.924c3.5,0,4.62,2.063,4.62,4.534v3.653a16.266,16.266,0,0,0,.15,2.557Zm-.387-4.964c-1.719-.021-3.051.387-3.051,1.655a1.173,1.173,0,0,0,1.289,1.246,1.784,1.784,0,0,0,1.7-1.2,2.338,2.338,0,0,0,.064-.559Z" transform="translate(-106.096 -41.983)" fill="#fff"/>
    <path id="Pfad_13501" data-name="Pfad 13501" d="M1308.056,1141.237h3.266v15.256h-3.266Z" transform="translate(-128.224 -33.684)" fill="#fff"/>
    <path id="Pfad_13502" data-name="Pfad 13502" d="M1326.744,1146.178v3.008h2.342v2.407h-2.342v3.8c0,1.268.3,1.848,1.289,1.848a5.327,5.327,0,0,0,.967-.086l.021,2.471a6.4,6.4,0,0,1-2.127.279,3.4,3.4,0,0,1-2.45-.9,4.354,4.354,0,0,1-.9-3.116v-4.3h-1.4v-2.407h1.4v-2.278Z" transform="translate(-137.351 -36.885)" fill="#fff"/>
    <path id="Pfad_13503" data-name="Pfad 13503" d="M1346.088,1161.934a6.386,6.386,0,0,0,2.815.795c.988,0,1.4-.344,1.4-.881s-.322-.795-1.547-1.2c-2.17-.731-3.008-1.912-2.987-3.158,0-1.956,1.676-3.438,4.276-3.438a7.048,7.048,0,0,1,2.965.6l-.58,2.256a5.157,5.157,0,0,0-2.278-.6c-.8,0-1.246.322-1.246.859,0,.494.408.752,1.7,1.2,2,.688,2.837,1.7,2.858,3.244,0,1.956-1.547,3.4-4.555,3.4a7.442,7.442,0,0,1-3.4-.731Z" transform="translate(-152.484 -41.983)" fill="#fff"/>
    <path id="Pfad_13504" data-name="Pfad 13504" d="M1367.528,1158.743a2.894,2.894,0,0,0,1.934-.688c.473-.494.645-1.332.645-3.416V1146.3h3.287v9.111c0,2.3-.516,3.7-1.483,4.6a5.989,5.989,0,0,1-4.062,1.289Zm5.952-15.364a1.628,1.628,0,0,1-1.762,1.633,1.647,1.647,0,1,1,1.762-1.633Z" transform="translate(-166.748 -34)" fill="#fff"/>
    <path id="Pfad_13505" data-name="Pfad 13505" d="M1400.711,1159.42a5.272,5.272,0,0,1-5.544,5.608,5.147,5.147,0,0,1-5.437-5.415,5.245,5.245,0,0,1,5.609-5.565A5.109,5.109,0,0,1,1400.711,1159.42Zm-7.606.107c0,1.805.752,3.159,2.149,3.159,1.268,0,2.084-1.268,2.084-3.159,0-1.568-.6-3.158-2.084-3.158C1393.685,1156.369,1393.1,1157.98,1393.1,1159.527Z" transform="translate(-181.131 -41.983)" fill="#fff"/>
    <path id="Pfad_13506" data-name="Pfad 13506" d="M1426.393,1156.493c.043-.688.086-1.955.086-3.137v-12.119h3.266v5.995h.043a3.7,3.7,0,0,1,3.18-1.483c2.514,0,4.362,2.084,4.34,5.307,0,3.782-2.407,5.672-4.813,5.672a3.487,3.487,0,0,1-3.159-1.7h-.043l-.129,1.461Zm3.352-4.469a2.4,2.4,0,0,0,.064.58,1.977,1.977,0,0,0,1.912,1.547c1.4,0,2.256-1.074,2.256-2.965,0-1.633-.73-2.922-2.256-2.922a2.024,2.024,0,0,0-1.912,1.611,2.718,2.718,0,0,0-.064.6Z" transform="translate(-204.88 -33.684)" fill="#fff"/>
    <path id="Pfad_13507" data-name="Pfad 13507" d="M1462.87,1156.493c.043-.688.086-1.955.086-3.137v-12.119h3.266v5.995h.043a3.7,3.7,0,0,1,3.18-1.483c2.514,0,4.362,2.084,4.34,5.307,0,3.782-2.407,5.672-4.813,5.672a3.487,3.487,0,0,1-3.158-1.7h-.043l-.129,1.461Zm3.352-4.469a2.4,2.4,0,0,0,.064.58,1.977,1.977,0,0,0,1.913,1.547c1.4,0,2.256-1.074,2.256-2.965,0-1.633-.731-2.922-2.256-2.922a2.025,2.025,0,0,0-1.913,1.611,2.718,2.718,0,0,0-.064.6Z" transform="translate(-228.508 -33.684)" fill="#59297c"/>
    <path id="Pfad_13508" data-name="Pfad 13508" d="M1509.045,1151.6a5.272,5.272,0,0,1-5.544,5.608,5.147,5.147,0,0,1-5.437-5.415,5.245,5.245,0,0,1,5.609-5.565A5.109,5.109,0,0,1,1509.045,1151.6Zm-9.282-8.1a1.509,1.509,0,0,1,1.547-1.526,1.516,1.516,0,0,1,0,3.03A1.518,1.518,0,0,1,1499.763,1143.495Zm1.676,8.208c0,1.805.752,3.159,2.148,3.159,1.268,0,2.084-1.268,2.084-3.159,0-1.568-.6-3.158-2.084-3.158C1502.019,1148.544,1501.439,1150.156,1501.439,1151.7Zm2.858-8.208a1.491,1.491,0,0,1,1.526-1.526,1.515,1.515,0,0,1,0,3.03A1.5,1.5,0,0,1,1504.3,1143.495Z" transform="translate(-251.307 -34.158)" fill="#59297c"/>
    <path id="Pfad_13509" data-name="Pfad 13509" d="M1534.813,1157.744c0-1.547-.043-2.557-.086-3.46h2.815l.107,1.934h.086a3.086,3.086,0,0,1,2.836-2.17,3.363,3.363,0,0,1,.688.043v3.073a4.639,4.639,0,0,0-.88-.086,2.1,2.1,0,0,0-2.235,1.655,3.842,3.842,0,0,0-.064.731v5.329h-3.266Z" transform="translate(-275.056 -41.983)" fill="#59297c"/>
    <path id="Pfad_13510" data-name="Pfad 13510" d="M1557.021,1161.934a6.384,6.384,0,0,0,2.815.795c.988,0,1.4-.344,1.4-.881s-.322-.795-1.547-1.2c-2.17-.731-3.008-1.912-2.986-3.158,0-1.956,1.676-3.438,4.276-3.438a7.047,7.047,0,0,1,2.965.6l-.58,2.256a5.157,5.157,0,0,0-2.277-.6c-.8,0-1.246.322-1.246.859,0,.494.408.752,1.7,1.2,2,.688,2.836,1.7,2.858,3.244,0,1.956-1.547,3.4-4.555,3.4a7.443,7.443,0,0,1-3.4-.731Z" transform="translate(-289.121 -41.983)" fill="#59297c"/>
    <path id="Pfad_13511" data-name="Pfad 13511" d="M1586.031,1160.58c.107,1.354,1.44,2,2.965,2a9.253,9.253,0,0,0,2.9-.43l.43,2.213a10.372,10.372,0,0,1-3.8.645c-3.567,0-5.608-2.063-5.608-5.35,0-2.664,1.655-5.608,5.307-5.608,3.4,0,4.684,2.643,4.684,5.243a7.774,7.774,0,0,1-.107,1.289Zm3.846-2.235a1.9,1.9,0,0,0-1.848-2.127,2.144,2.144,0,0,0-2.02,2.127Z" transform="translate(-306.271 -41.983)" fill="#59297c"/>
    <g id="Gruppe_12519" data-name="Gruppe 12519" transform="translate(1234.094 1089.237)">
      <path id="Pfad_13512" data-name="Pfad 13512" d="M1472.9,1089.237v12.119c0,1.182.043,2.428.086,3.137h-2.9l-.15-1.547h-.043a3.667,3.667,0,0,1-3.287,1.783c-2.493,0-4.491-2.127-4.491-5.393-.021-3.546,2.192-5.587,4.706-5.587a3.2,3.2,0,0,1,2.772,1.182h.043v-5.694Zm-3.266,9.2a5.359,5.359,0,0,0-.043-.58,1.962,1.962,0,0,0-1.913-1.611c-1.483,0-2.256,1.332-2.256,2.987,0,1.783.881,2.9,2.235,2.9a1.912,1.912,0,0,0,1.891-1.569,2.8,2.8,0,0,0,.086-.752Z" transform="translate(-1462.112 -1089.237)" fill="#59297c"/>
      <path id="Pfad_13513" data-name="Pfad 13513" d="M1503.391,1091.379a1.641,1.641,0,0,1-1.762,1.633,1.645,1.645,0,1,1,.022-3.288A1.638,1.638,0,0,1,1503.391,1091.379Zm-3.374,13.43V1094.3h3.266v10.507Z" transform="translate(-1486.61 -1089.553)" fill="#59297c"/>
      <path id="Pfad_13514" data-name="Pfad 13514" d="M1518.3,1108.58c.107,1.354,1.44,2,2.965,2a9.261,9.261,0,0,0,2.9-.43l.429,2.213a10.369,10.369,0,0,1-3.8.645c-3.567,0-5.608-2.063-5.608-5.35,0-2.664,1.654-5.608,5.307-5.608,3.4,0,4.685,2.643,4.685,5.243a7.749,7.749,0,0,1-.108,1.289Zm3.846-2.234a1.9,1.9,0,0,0-1.848-2.127,2.144,2.144,0,0,0-2.02,2.127Z" transform="translate(-1496.489 -1097.536)" fill="#59297c"/>
    </g>
  </g>
</svg>
