<svg id="SvgjsSvg1011" width="288" height="288" xmlns="http://www.w3.org/2000/svg" version="1.1" xmlns:xlink="http://www.w3.org/1999/xlink" xmlns:svgjs="http://svgjs.com/svgjs"><defs id="SvgjsDefs1012"></defs><g id="SvgjsG1013"><svg xmlns="http://www.w3.org/2000/svg" width="288" height="288" viewBox="0 0 30.043 32.043"><path fill="#9a0000" d="M619.881,338.971h2v-2h-2Zm-2-4.005h6.008v6.007h-6.008Zm2,12.016h2v-2h-2Zm-2-4.007h6.008v6.009h-6.008Zm10.013-4h2v-2h-2Zm-2-4.005H631.9v6.007h-6.008Zm2,12.016h2v-2h-2Zm-2-4.007H631.9v6.009h-6.008Zm10.013-4h2v-2h-2Zm-2-4.005h6.008v6.007H633.9Zm2,12.016h2v-2h-2Zm-2-4.007h6.008v6.009H633.9Zm8.01-12.014H615.876v19.024a1,1,0,0,0,1,1h24.032a1,1,0,0,0,1-1Zm0-5.007a1,1,0,0,0-1-1H635.9v2h-2v-2H623.886v2h-2v-2h-5.007a1,1,0,0,0-1,1v3H641.91Zm0,27.035H615.876a2,2,0,0,1-2-2V324.952a2,2,0,0,1,2-2h6.008v-2h2v2H633.9v-2h2v2h7.009c1.106,0,1,.9,1,2v26.034a2,2,0,0,1-2,2" transform="translate(-613.873 -320.946)" class="color100e0c svgShape"></path></svg></g></svg>