<?xml version="1.0" encoding="utf-8"?>
<!-- Generator: Adobe Illustrator 24.2.0, SVG Export Plug-In . SVG Version: 6.00 Build 0)  -->
<svg version="1.1" id="Ebene_1" xmlns="http://www.w3.org/2000/svg" xmlns:xlink="http://www.w3.org/1999/xlink" x="0px" y="0px"
	 viewBox="0 0 250 250" style="enable-background:new 0 0 250 250;" xml:space="preserve">
<style type="text/css">
	.st0{fill-rule:evenodd;clip-rule:evenodd;fill:#EE8000;}
	.st1{fill:#EE8000;}
</style>
<path id="Pfad_1826" class="st0" d="M124.8,215c4.6,0,9.1-0.3,13.6-0.7l61.4,30.7v-53.1c27.4-19.2,45-48.7,45-81.9
	c0-58-53.7-105-120-105S4.8,52,4.8,110S58.5,215,124.8,215z M124.8,20c58,0,105,40.3,105,90c0,30.5-17.9,57.1-45,73.4v39.1l-45-22.5
	c0,0,2.2,0-15,0c-58,0-105-40.3-105-90S66.8,20,124.8,20L124.8,20z"/>
<path id="Pfad_1827" class="st1" d="M127.5,75.3c-2.4,0.1-4.8-0.8-6.5-2.5c-1.8-1.7-2.7-4.1-2.6-6.5c-0.1-3.1,1.1-6.1,3.2-8.4
	c2.2-2.3,5.2-3.5,8.4-3.3c2.5-0.1,4.9,0.8,6.7,2.5c1.8,1.8,2.7,4.2,2.6,6.8c0.1,3.1-1,6.1-3.2,8.3C133.7,74.3,130.6,75.4,127.5,75.3
	z M123.9,162c-3.8,0.2-7.6-1.2-10.4-3.8c-2.8-3-4.2-7-3.9-11.1c0-1.9,0.8-9.2,2.5-21.8l5.6-39.8h16.9l-5.7,39.8
	c-1.5,11-2.3,17.1-2.3,18.4c-0.1,1.3,0.3,2.5,1.2,3.5c1.2,0.8,2.6,1.2,4,1h3.1l-1.8,11.9C130.2,161.5,127.1,162.1,123.9,162z"/>
</svg>
