<?xml version="1.0" encoding="utf-8"?>
<!-- Generator: Adobe Illustrator 24.2.0, SVG Export Plug-In . SVG Version: 6.00 Build 0)  -->
<svg version="1.1" id="Ebene_1" xmlns="http://www.w3.org/2000/svg" xmlns:xlink="http://www.w3.org/1999/xlink" x="0px" y="0px"
	 viewBox="0 0 250 250" style="enable-background:new 0 0 250 250;" xml:space="preserve">
<style type="text/css">
	.st0{fill:#54575A;}
</style>
<path id="Icon_Gebärde" class="st0" d="M72.6,220.4c0,0.7,0.2,1.5,0.4,2.2c2.4,4.6,5.3,9,7.4,13.8c2.5,4.6,0.6,10.3-4.2,12.7
	c-0.9,0.4-1.8,0.7-2.7,0.9c-3.6,0.4-7.3-0.9-9.6-3.7c-3-3.2-5.6-6.8-8.4-10.2c-3.9-4.9-7.8-9.8-11.7-14.7c-6.3-8-12.6-16-18.7-24.1
	c-4-5.4-8-10.9-11.6-16.6c-2.9-4.7-5.5-9.6-7.8-14.5c-2-3.6-3.5-7.3-4.6-11.2C0.4,150,0,145.2,0,140.4c0.1-1.4,0.3-2.8,0.5-4.2
	c0.5-3.7,1.5-7.4,3.2-10.8c1.8-4.4,4.4-8.4,7.7-11.9c3.3-3.6,7.4-6.6,11.9-8.8c5-2.3,10.3-4,15.8-5.2c7.1-1.8,14.3-2.9,21.6-3.2
	c0.8,0,1.6-0.1,2.4-0.3c5.1-0.9,5.4-1.1,6-6c0.7-4.1,2.3-8,4.6-11.5c2.9-5.1,6.1-10.1,9.7-14.7c5.3-6.8,10.9-13.5,16.7-20
	c7.8-8.8,15.9-17.5,24-26.1c4.4-4.8,9.1-9.3,14-13.6c3.1-3,7.4-4.5,11.8-4c6.3,0.5,11.7,4.5,13.8,10.2c1.1,3.3,0.8,6.9-0.7,10.1
	c-5,9.2-11.5,17.6-19.3,24.8c-3.5,3.9-7.3,7.6-11.5,11.8c1.3,0.3,2.6,0.5,3.9,0.5c8.7-0.4,17.4-1,26.1-1.4c7.3-0.4,14.6-0.5,22-0.8
	c10.3-0.5,20.6-1.1,30.9-1.7c6-0.4,12-1.1,18-1c6.4,0.4,11.5,5.3,11.8,11.5c-0.1,5.9-4.4,10.9-10.3,12.1
	c-10.3,0.8-20.5,2.1-30.7,3.3c-4.4,0.5-8.7,1.2-13,1.9c-0.4,0.1-0.8,0.3-1.2,1c1.3,0.2,2.6,0.4,3.9,0.5c7.8,0.2,15.5,0.3,23.3,0.5
	c8,0.3,16.1,0.6,24.1,1.2c3.3,0.4,6.2,2.4,7.6,5.3c1.2,1.9,1.7,4,1.6,6.2c-0.2,5-3.9,9.3-8.9,10.6c-4.8,1-9.7,1.3-14.6,1.1
	c-10.8,0.2-21.5,0.3-32.3,0.5c-1,0.1-2,0.2-3,0.5l-0.1,0.6c0.9,0.2,1.8,0.4,2.7,0.6c11,1.2,22.1,2.2,33.1,3.6c4,0.7,7.4,3.2,9.2,6.7
	c3,5.9,0.5,13-5.5,15.9c-0.4,0.2-0.7,0.3-1.1,0.5c-0.5,0.2-1,0.3-1.5,0.4c-6.1-0.2-12.1-0.3-18.2-0.6c-3.1-0.2-6.2-0.7-9.4-1.1
	c-2.6-0.3-5.2-0.8-7.8-1.1c-1.1-0.1-2.1-0.1-3.2,0l-0.2,0.7c2.1,0.8,4.1,1.6,6.2,2.3c5,1,9.9,2.8,14.3,5.4c4.2,3,5,8.8,1.9,12.8
	c-0.2,0.3-0.4,0.5-0.6,0.7c-2,1.5-4.4,2.4-6.9,2.7c-6.4,0.1-12.8-0.5-19.3-0.9c-0.8,0-1.6-0.2-2.4-0.3c-9.6-0.7-19.3-1.2-28.9-2.1
	c-6.1-0.6-12.1-1.8-18.1-2.8c-0.6-0.1-1.3-0.2-1.9-0.4c-4.1-0.7-8.2-1.4-12.2-2.1c-0.7-0.1-1.3-0.7-2-0.8c-1-0.2-2-0.2-3-0.3
	l-0.3,0.8c2.1,1.9,4.2,3.9,6.4,5.8c10.8,9.5,21.7,19.1,32.5,28.6c3.4,2.9,6.7,5.9,9.7,9.1c4,5,3,12.2-2.2,16
	c-0.2,0.1-0.3,0.2-0.5,0.3c-5.2,3.2-11.9,2.8-16.6-1c-9.9-7.8-19.8-15.7-29.7-23.5c-1.1-0.9-2.4-1.5-3.5-2.3l-0.5,0.5
	c1.2,1.5,2.4,3,3.7,4.4c6.8,7.2,13.6,14.3,20.4,21.4c3.1,3.3,6.3,6.4,9.3,9.8c4.1,4.9,3.4,12.1-1.6,16.1c-1.3,1-2.8,1.8-4.5,2.2
	c-4.4,1.1-9.1-0.1-12.3-3.2c-8.7-8.3-17.2-16.6-25.8-24.9c-1.8-1.7-3.5-3.5-5.4-5.2c-0.4-0.2-0.8-0.4-1.3-0.5c0,0.5-0.2,1.1,0,1.5
	c3,3.9,5.9,7.8,9,11.7c3.6,4.5,7.5,9,10.8,13.7c0.9,1.9,1.2,3.9,1.1,5.9c0.5,3.9-1.4,7.7-4.9,9.8c-3.1,2.2-7.2,2.9-10.9,1.8
	c-4.3-1.8-8-5-10.4-8.9c-3.9-4.7-7.7-9.5-11.6-14.3l-3.7-4.5L72.6,220.4z M69.7,238.6l0.9-0.4c-0.7-1.6-1.4-3.2-2.2-4.7
	c-1.4-2.6-3-5.1-4.4-7.7c-2.2-3.9-4.3-7.9-6.5-11.8s-4.2-7.9-0.8-12.3c2.7-3.8,8.1-4.7,12.1-2.1c0.6,0.4,1.2,0.9,1.7,1.5
	c3,3.3,5.5,6.9,8.2,10.3c5,6.2,9.9,12.3,14.9,18.4c2.3,2.8,4.6,5.5,6.9,8.2c0.9,1.1,2.6,1.4,3.8,0.5c0.1,0,0.1-0.1,0.2-0.1
	c1.4-0.8,1.8-2.5,0.9-3.8c0,0,0-0.1-0.1-0.1c-0.5-0.8-1-1.5-1.6-2.3c-4.5-5.5-9.1-11-13.5-16.5c-4.6-5.8-8.9-11.8-13.4-17.6
	c-2.4-2.5-3.2-6.1-2-9.3c1.8-4.6,7.2-6.9,12-5.2c1.2,0.5,2.3,1.1,3.3,2c4.4,4.2,8.7,8.5,13.1,12.7c7.3,7.1,14.6,14.3,21.9,21.4
	c2.9,2.8,5.9,5.5,8.9,8.1c0.8,0.5,1.8,0.5,2.7,0.1c0.6-0.8,0.9-1.8,0.7-2.8c-0.1-0.6-0.8-1.3-1.4-1.8c-5.2-5.4-10.6-10.7-15.7-16.1
	c-8.1-8.6-16.1-17.4-24.3-26.1c-2.9-2.5-4.5-6.2-4-10c0.8-3.1,3.2-5.6,6.3-6.6c3.8-0.8,7.7,0.3,10.5,2.8c3.4,3.1,7,6,10.5,8.9
	c6.1,5,12.3,9.9,18.5,14.8c4.9,3.9,9.9,7.6,14.9,11.4c0.9,0.9,2.4,1,3.3,0.1c0.2-0.2,0.3-0.4,0.5-0.6c1-1.1,0.9-2.8-0.3-3.8
	c0,0,0,0,0,0c-1.2-1.1-2.3-2.2-3.4-3.2c-10.7-9.3-21.4-18.7-32.2-28c-11.5-10.1-23-20.2-34.5-30.3c-2.9-2.3-5.1-5.3-6.2-8.8
	c-1.2-4.7,1.8-9.5,6.7-10.7c0.8-0.2,1.6-0.3,2.5-0.3c7.3,0,14.7,0.2,22-0.2c8.2,0,16.3-1,24.2-3.1c2.4-0.7,4-2.8,4-5.2
	c-0.1-4.4-2.8-6.1-7.7-6.7c-3.3-0.3-6.6-0.3-9.9,0.1c-6.9,0.4-13.9,1-20.8,1.3c-13.2,0.7-26.3,1.3-39.5,1.9c-0.4,0-0.9,0.1-1.3,0.2
	c-7.7,1.8-15.7,2-23.3,4.4c-5.5,1.4-10.6,3.8-15.1,7.2c-4.3,3.3-7.5,7.7-9.3,12.7c-1.2,2.5-2.1,5.2-2.7,7.9c-0.6,4.2-0.6,8.4,0,12.6
	c1,4,2.5,7.9,4.4,11.6c1.8,4,3.8,8,6.1,11.8c3.6,5.8,7.5,11.5,11.6,17c5.4,7.3,11,14.5,16.6,21.6c4.4,5.7,9,11.2,13.5,16.9
	C64.6,232.1,67.2,235.3,69.7,238.6L69.7,238.6z M200.3,149.9l0.4-0.4c-0.7-0.7-1.2-1.8-2-2c-2.5-0.8-5.2-1.3-7.8-2
	c-3-0.7-5.9-1.5-8.8-2.3c-3.4-0.9-6.8-2-10.2-2.9c-4.1-1-7.1-4.3-7.6-8.3c-0.5-4.4,2.9-8.4,7.5-8.8c0.8-0.1,1.6,0,2.4,0.1
	c7.9,0.8,15.9,1.5,23.8,2.3l1.5,0.2c7.3,0.9,14.6,1.8,21.9,2.8c1.8,0.3,3.7-0.1,5.1-1.2c1.1-0.7,1.4-2,0.7-3
	c-0.2-0.3-0.5-0.6-0.9-0.8c-1.7-0.8-3.6-1.3-5.5-1.6c-2.9-0.4-5.9-0.2-8.8-0.5c-3.7-0.3-7.4-0.9-11.1-1.3c-1.1-0.1-2.2-0.2-3.3-0.3
	c-7.4-1-14.7-2-22.1-3.2c-3.3-0.1-6.3-1.9-7.7-4.8c-2.4-4.4-0.7-9.9,3.9-12.3c1.6-0.8,3.5-1.2,5.4-1c19.1-0.1,38.2-0.1,57.4-0.2
	c1,0,2,0,3.1-0.1c1.3,0,2.4-1,2.4-2.3c0-0.1,0-0.2,0-0.3c0.1-1.3-0.9-2.5-2.3-2.6c0,0-0.1,0-0.1,0c-0.8-0.1-1.6-0.1-2.4-0.1
	c-20.7,0.6-41.3-1.3-61.9-1.9c-3.2,0-6-1.9-7.2-4.7c-2.4-4.7-0.3-10.3,4.5-12.6c1.5-0.7,3.1-1,4.8-0.9c3.6-0.3,7.3-0.1,11-0.5
	c8-0.8,15.9-1.9,23.9-2.8c6.9-0.7,13.8-1.3,20.7-2c2.4-0.2,3.5-1.3,3.4-3.3c-0.1-2.3-1.9-2.4-3.4-2.3c-7.4,0.2-14.8,0.3-22.2,0.7
	c-17.3,1-34.6,2-51.9,3.1c-7.1,0.4-14.1,1-21.2,1.5c-3.5,0.2-6.9-0.6-9.9-2.3c-4.3-2.8-5.5-8.4-2.6-12.6c0.4-0.5,0.8-1,1.3-1.5
	c6-6.3,12.2-12.3,18-18.7c3.8-4.2,7.3-8.6,10.5-13.2c1.1-1.6,1.6-3.6,1.3-5.5c-1-3-4.3-4.7-7.4-3.7c-0.8,0.2-1.5,0.6-2.1,1.1
	c-3.1,2.3-6,4.9-8.7,7.7C123.7,32,111.4,45.4,99.4,59c-4.8,5.5-9.2,11.2-13.2,17.3c-3,4.9-5.7,9.9-8.1,15C77,93.6,78,95,80.7,94.9
	c5.6-0.2,11.1-0.6,16.7-0.8c10.1-0.4,20.2-1,30.3-1.1c4.4-0.5,9,0.2,13.1,1.9c3.8,1.7,6.5,5.2,7.2,9.2c0.4,2.9,0.4,5.8,0.1,8.7
	c-0.3,3-2,5.7-4.6,7.3c-5.5,3.2-11.8,5-18.2,5.1c-6.8,0.6-13.8,0.5-20.6,0.7c-3.2,0.1-6.4,0.3-9.7,0.5c-0.8,0.2-1.4,0.6-1.9,1.1
	c-0.1,0.1,0.2,1.1,0.6,1.4c2.7,1.9,5.5,3.6,8.4,5.2c3.5,1.7,7.1,3.1,10.8,4.4c2.4,0.9,5,1.6,7.5,2.2c3.7,0.8,7.4,1.5,11.1,2.2
	c4.8,0.9,9.7,2.2,14.6,2.7c7.9,0.9,15.9,1.4,23.8,2.1c1.1,0.1,2.2,0.2,3.3,0.3L200.3,149.9z"/>
</svg>
