<?xml version="1.0" encoding="utf-8"?>
<!-- Generator: Adobe Illustrator 24.2.0, SVG Export Plug-In . SVG Version: 6.00 Build 0)  -->
<svg version="1.1" id="Ebene_1" xmlns="http://www.w3.org/2000/svg" xmlns:xlink="http://www.w3.org/1999/xlink" x="0px" y="0px"
	 viewBox="0 0 250 250" style="enable-background:new 0 0 250 250;" xml:space="preserve">
<style type="text/css">
	.st0{fill:#54575A;}
</style>
<path id="Pfad_13523" class="st0" d="M53.4,60.5c0.4-1.2,0.8-2.4,1-3.7c1.3-15.3,9.2-29.7,22.2-40.1c9.4-7.7,21-13,33.7-15.3
	c14.9-2.9,30.6-1.4,44.4,4.4c12.2,5,22.5,12.9,29.7,22.9c5.9,8.7,9.5,18.3,10.8,28.3c0.3,1.2,0.8,2.4,1.3,3.6
	c7.6-4.9,14.7-9.5,21.8-14c5.9-3.8,12.1-7.4,17.6-11.5c3.9-2.5,9.3-1.9,12.3,1.5c1,1.2,1.6,2.5,1.7,4c0.1,1,0.2,2,0.1,3
	c0,39.9-0.1,79.8,0,119.7c0.3,4.7-2.3,9.2-6.8,11.8c-22.2,14.3-44.2,28.8-66.4,43.2c-14.9,9.7-29.9,19.4-44.9,29.1
	c-3.8,3.4-10,3.6-14,0.3c-0.2-0.1-0.3-0.3-0.5-0.4c-26.1-17-52.2-34.1-78.3-51.1c-11.5-7.5-23-14.9-34.5-22.3
	c-3-1.7-4.7-4.7-4.6-7.8c0-41.4,0-82.8,0-124.3c-0.1-2.9,1.5-5.6,4.2-7.2c2.4-1.8,5.9-1.9,8.3-0.1c10.8,7,21.7,14,32.5,21
	C47.8,57.1,50.3,58.7,53.4,60.5z M231.9,56.3c-3.4,2.1-5.9,3.5-8.3,5.1c-12.4,8.1-24.8,16.2-37.2,24.3c-16.5,10.7-33,21.5-49.6,32.1
	c-2.7,1.6-4.2,4.4-3.9,7.2c0.1,29.5,0.1,59.1,0,88.6c0,3.6,0,7.1,0,10.7c0,2.3,1.2,2.7,3.3,1.6c0.7-0.4,1.4-0.7,2.1-1.2l38.6-25.2
	c17.7-11.6,35.5-23.1,53.1-34.7c1.5-1.1,2.4-2.8,2.5-4.5c0.2-33.2,0.2-66.4,0.1-99.6C232.5,59.3,232.3,57.8,231.9,56.3L231.9,56.3z
	 M116.7,173.5c0-15.9-0.1-31.9,0.1-47.8c0.3-3.4-1.5-6.6-4.8-8.4c-21-13.5-41.9-27.1-62.8-40.7c-9.2-6-18.4-12.1-27.7-18
	c-1.1-0.5-2.2-0.9-3.4-1.2c-0.4,1-0.8,2-1.1,3.1c-0.1,0.7-0.1,1.4,0,2.1c0,22.6,0,45.3,0,67.9c0,9.8,0,19.7,0,29.5
	c-0.3,2,0.7,4,2.7,5.2c6.5,4.1,12.8,8.5,19.2,12.6c24.1,15.7,48.2,31.3,72.3,46.9c1.4,0.7,2.8,1.1,4.3,1.5c0.5-1.2,0.8-2.4,1-3.7
	C116.8,206.1,116.7,189.8,116.7,173.5L116.7,173.5z M71.2,59.1c0.3,3.6,0.2,6.1,0.7,8.5c0.2,3.4,2.1,6.5,5.1,8.7
	c14.9,9.7,29.8,19.4,44.7,29.2c1.7,1.5,4.4,1.6,6.2,0.2c14.4-9.5,28.7-19,43.4-28.2c4.4-2.7,7-7.2,7.1-11.9c1-9.3-1.3-18.7-6.7-26.9
	c-7.3-11.9-20.5-20.3-35.8-22.8c-10.8-2.1-22.2-1-32.2,3C84.7,25.8,72.2,41.4,71.2,59.1L71.2,59.1z"/>
<path id="Pfad_13527" class="st0" d="M34.7,92.2c1.9,0.6,3.7,1.5,5.5,2.5c21.8,14.9,43.6,29.8,65.2,44.8c2.9,1.7,4.4,4.7,4,7.7
	c-0.4,3.3-3.4,5.9-7.2,6c-2.3,0.1-4.5-0.4-6.4-1.5c-13.5-9.1-26.8-18.5-40.3-27.7c-8.9-6.1-17.9-12.3-26.8-18.4
	c-2.8-1.8-4.1-4.8-3.3-7.8C26.7,94.4,30.5,92.1,34.7,92.2z"/>
<path id="Pfad_13528" class="st0" d="M33.4,134.1c1.9,0.6,3.6,1.4,5.3,2.3c22.3,15.3,44.6,30.6,66.9,45.9c3.9,2.3,4.9,7,2.2,10.4
	c-0.1,0.1-0.2,0.2-0.3,0.4c-3.1,2.9-8.3,3.3-12,0.9c-17.5-12.3-35.2-24.3-52.9-36.4c-4.6-3.1-9.2-6.2-13.7-9.4
	c-4.9-3.4-5.6-7.2-1.7-11C29.1,135.8,31.2,134.8,33.4,134.1z"/>
</svg>
