<svg xmlns="http://www.w3.org/2000/svg" width="60.159" height="60.103" viewBox="0 0 60.159 60.103"><defs><style>.a{fill:#b3d239;}.b{fill-rule:evenodd;}</style></defs><g transform="translate(-617 -488.897)"><circle class="a" cx="30" cy="30" r="30" transform="translate(617 489)"/><path class="b" d="M262.481,321.4l-26.173,26.038c-.039.051-.023.12-.068.165a2.057,2.057,0,0,1-2.738,0c-.054-.052-.036-.135-.082-.195L222.35,336.4a1.841,1.841,0,0,1,0-2.614,1.867,1.867,0,0,1,2.627,0l9.891,9.844,24.979-24.849a1.869,1.869,0,0,1,2.634,0A1.847,1.847,0,0,1,262.481,321.4ZM233.03,310.75A26.251,26.251,0,1,0,259.271,337c0-.568-.131-1.1-.167-1.654l3.456-3.36A29.962,29.962,0,1,1,233.03,307a29.829,29.829,0,0,1,19.8,7.512l-2.756,2.68A26,26,0,0,0,233.03,310.75Z" transform="translate(414.133 181.895)"/></g></svg>